<?xml version="1.0" encoding="UTF-8" standalone="no"?>
<!DOCTYPE svg PUBLIC "-//W3C//DTD SVG 1.1//EN"
 "http://www.w3.org/Graphics/SVG/1.1/DTD/svg11.dtd">
<!-- Generated by graphviz version 2.43.0 (0)
 -->
<!-- Title: include/plssvm/detail/assert.hpp Pages: 1 -->
<svg width="1682pt" height="821pt"
 viewBox="0.00 0.00 1681.50 821.00" xmlns="http://www.w3.org/2000/svg" xmlns:xlink="http://www.w3.org/1999/xlink">
<g id="graph0" class="graph" transform="scale(1 1) rotate(0) translate(4 817)">
<title>include/plssvm/detail/assert.hpp</title>
<polygon fill="white" stroke="transparent" points="-4,4 -4,-817 1677.5,-817 1677.5,4 -4,4"/>
<!-- Node1 -->
<g id="node1" class="node">
<title>Node1</title>
<g id="a_node1"><a xlink:title="Implements a custom assert macro PLSSVM_ASSERT.">
<polygon fill="#bfbfbf" stroke="black" points="344.5,-782.5 344.5,-812.5 465.5,-812.5 465.5,-782.5 344.5,-782.5"/>
<text text-anchor="start" x="352.5" y="-800.5" font-family="Helvetica,sans-Serif" font-size="10.00">include/plssvm/detail</text>
<text text-anchor="middle" x="405" y="-789.5" font-family="Helvetica,sans-Serif" font-size="10.00">/assert.hpp</text>
</a>
</g>
</g>
<!-- Node2 -->
<g id="node2" class="node">
<title>Node2</title>
<g id="a_node2"><a xlink:href="backends_2OpenCL_2detail_2utility_8hpp.html" target="_top" xlink:title="Utility functions specific to the OpenCL backend.">
<polygon fill="white" stroke="black" points="1160.5,-581.5 1160.5,-611.5 1299.5,-611.5 1299.5,-581.5 1160.5,-581.5"/>
<text text-anchor="start" x="1168.5" y="-599.5" font-family="Helvetica,sans-Serif" font-size="10.00">include/plssvm/backends</text>
<text text-anchor="middle" x="1230" y="-588.5" font-family="Helvetica,sans-Serif" font-size="10.00">/OpenCL/detail/utility.hpp</text>
</a>
</g>
</g>
<!-- Node1&#45;&gt;Node2 -->
<g id="edge1" class="edge">
<title>Node1&#45;&gt;Node2</title>
<path fill="none" stroke="midnightblue" d="M473.46,-779.99C632.31,-741.67 1023.63,-647.28 1171.84,-611.53"/>
<polygon fill="midnightblue" stroke="midnightblue" points="472.24,-776.68 463.34,-782.43 473.88,-783.48 472.24,-776.68"/>
</g>
<!-- Node3 -->
<g id="node3" class="node">
<title>Node3</title>
<g id="a_node3"><a xlink:href="libsvm__model__parsing_8hpp.html" target="_top" xlink:title="Implements parsing functions for the LIBSVM model file.">
<polygon fill="white" stroke="black" points="142.5,-246.5 142.5,-276.5 305.5,-276.5 305.5,-246.5 142.5,-246.5"/>
<text text-anchor="start" x="150.5" y="-264.5" font-family="Helvetica,sans-Serif" font-size="10.00">include/plssvm/detail</text>
<text text-anchor="middle" x="224" y="-253.5" font-family="Helvetica,sans-Serif" font-size="10.00">/io/libsvm_model_parsing.hpp</text>
</a>
</g>
</g>
<!-- Node1&#45;&gt;Node3 -->
<g id="edge2" class="edge">
<title>Node1&#45;&gt;Node3</title>
<path fill="none" stroke="midnightblue" d="M334.54,-784.77C269.85,-769.51 184,-735.81 184,-664.5 184,-664.5 184,-664.5 184,-394.5 184,-349.96 205.12,-300.46 216.66,-276.72"/>
<polygon fill="midnightblue" stroke="midnightblue" points="333.79,-788.19 344.32,-786.98 335.33,-781.37 333.79,-788.19"/>
</g>
<!-- Node4 -->
<g id="node4" class="node">
<title>Node4</title>
<g id="a_node4"><a xlink:href="model_8hpp.html" target="_top" xlink:title="Implements a model class encapsulating the results of a SVM fit call.">
<polygon fill="white" stroke="black" points="444.5,-190.5 444.5,-209.5 589.5,-209.5 589.5,-190.5 444.5,-190.5"/>
<text text-anchor="middle" x="517" y="-197.5" font-family="Helvetica,sans-Serif" font-size="10.00">include/plssvm/model.hpp</text>
</a>
</g>
</g>
<!-- Node1&#45;&gt;Node4 -->
<g id="edge64" class="edge">
<title>Node1&#45;&gt;Node4</title>
<path fill="none" stroke="midnightblue" d="M334.14,-788.18C218.03,-772.55 0,-733.95 0,-664.5 0,-664.5 0,-664.5 0,-327.5 0,-271.19 45.2,-268.07 97,-246 157.8,-220.09 341.2,-208.36 444.41,-203.68"/>
<polygon fill="midnightblue" stroke="midnightblue" points="333.99,-791.69 344.37,-789.53 334.91,-784.75 333.99,-791.69"/>
</g>
<!-- Node15 -->
<g id="node15" class="node">
<title>Node15</title>
<g id="a_node15"><a xlink:href="libsvm__parsing_8hpp.html" target="_top" xlink:title="Implements parsing functions for the LIBSVM file format.">
<polygon fill="white" stroke="black" points="28.5,-380.5 28.5,-410.5 155.5,-410.5 155.5,-380.5 28.5,-380.5"/>
<text text-anchor="start" x="36.5" y="-398.5" font-family="Helvetica,sans-Serif" font-size="10.00">include/plssvm/detail</text>
<text text-anchor="middle" x="92" y="-387.5" font-family="Helvetica,sans-Serif" font-size="10.00">/io/libsvm_parsing.hpp</text>
</a>
</g>
</g>
<!-- Node1&#45;&gt;Node15 -->
<g id="edge16" class="edge">
<title>Node1&#45;&gt;Node15</title>
<path fill="none" stroke="midnightblue" d="M334.26,-793.7C249.56,-786.12 119,-759.09 119,-664.5 119,-664.5 119,-664.5 119,-528.5 119,-484.76 104.59,-434.49 96.83,-410.57"/>
<polygon fill="midnightblue" stroke="midnightblue" points="334.09,-797.2 344.35,-794.53 334.67,-790.22 334.09,-797.2"/>
</g>
<!-- Node18 -->
<g id="node18" class="node">
<title>Node18</title>
<g id="a_node18"><a xlink:href="scaling__factors__parsing_8hpp.html" target="_top" xlink:title="Implements parsing functions for the scaling factor file parsing.">
<polygon fill="white" stroke="black" points="211.5,-514.5 211.5,-544.5 378.5,-544.5 378.5,-514.5 211.5,-514.5"/>
<text text-anchor="start" x="219.5" y="-532.5" font-family="Helvetica,sans-Serif" font-size="10.00">include/plssvm/detail</text>
<text text-anchor="middle" x="295" y="-521.5" font-family="Helvetica,sans-Serif" font-size="10.00">/io/scaling_factors_parsing.hpp</text>
</a>
</g>
</g>
<!-- Node1&#45;&gt;Node18 -->
<g id="edge24" class="edge">
<title>Node1&#45;&gt;Node18</title>
<path fill="none" stroke="midnightblue" d="M395.18,-772.74C372.81,-718.66 318.65,-587.7 300.81,-544.55"/>
<polygon fill="midnightblue" stroke="midnightblue" points="392.03,-774.3 399.09,-782.2 398.5,-771.62 392.03,-774.3"/>
</g>
<!-- Node19 -->
<g id="node19" class="node">
<title>Node19</title>
<g id="a_node19"><a xlink:href="layout_8hpp.html" target="_top" xlink:title="Defines functions to convert 2D vectors to 1D SoA or AoS vectors.">
<polygon fill="white" stroke="black" points="874.5,-313.5 874.5,-343.5 995.5,-343.5 995.5,-313.5 874.5,-313.5"/>
<text text-anchor="start" x="882.5" y="-331.5" font-family="Helvetica,sans-Serif" font-size="10.00">include/plssvm/detail</text>
<text text-anchor="middle" x="935" y="-320.5" font-family="Helvetica,sans-Serif" font-size="10.00">/layout.hpp</text>
</a>
</g>
</g>
<!-- Node1&#45;&gt;Node19 -->
<g id="edge26" class="edge">
<title>Node1&#45;&gt;Node19</title>
<path fill="none" stroke="midnightblue" d="M475.83,-793.81C691.91,-784.68 1328,-750.5 1328,-664.5 1328,-664.5 1328,-664.5 1328,-595.5 1328,-436.9 1105.78,-366.42 995.54,-341.21"/>
<polygon fill="midnightblue" stroke="midnightblue" points="475.41,-790.33 465.56,-794.24 475.7,-797.32 475.41,-790.33"/>
</g>
<!-- Node20 -->
<g id="node20" class="node">
<title>Node20</title>
<g id="a_node20"><a xlink:href="operators_8hpp.html" target="_top" xlink:title="Defines (arithmetic) functions on std::vector and scalars.">
<polygon fill="white" stroke="black" points="409.5,-715.5 409.5,-745.5 530.5,-745.5 530.5,-715.5 409.5,-715.5"/>
<text text-anchor="start" x="417.5" y="-733.5" font-family="Helvetica,sans-Serif" font-size="10.00">include/plssvm/detail</text>
<text text-anchor="middle" x="470" y="-722.5" font-family="Helvetica,sans-Serif" font-size="10.00">/operators.hpp</text>
</a>
</g>
</g>
<!-- Node1&#45;&gt;Node20 -->
<g id="edge28" class="edge">
<title>Node1&#45;&gt;Node20</title>
<path fill="none" stroke="midnightblue" d="M426.19,-775.31C435.94,-765.56 447.24,-754.26 455.92,-745.58"/>
<polygon fill="midnightblue" stroke="midnightblue" points="423.7,-772.85 419.1,-782.4 428.65,-777.8 423.7,-772.85"/>
</g>
<!-- Node22 -->
<g id="node22" class="node">
<title>Node22</title>
<g id="a_node22"><a xlink:href="kernel__function__types_8hpp.html" target="_top" xlink:title="Defines an enumeration holding all possible kernel function types.">
<polygon fill="white" stroke="black" points="697.5,-648.5 697.5,-678.5 820.5,-678.5 820.5,-648.5 697.5,-648.5"/>
<text text-anchor="start" x="705.5" y="-666.5" font-family="Helvetica,sans-Serif" font-size="10.00">include/plssvm/kernel</text>
<text text-anchor="middle" x="759" y="-655.5" font-family="Helvetica,sans-Serif" font-size="10.00">_function_types.hpp</text>
</a>
</g>
</g>
<!-- Node1&#45;&gt;Node22 -->
<g id="edge63" class="edge">
<title>Node1&#45;&gt;Node22</title>
<path fill="none" stroke="midnightblue" d="M452.15,-778.92C523.19,-752.43 656.28,-702.8 721.3,-678.56"/>
<polygon fill="midnightblue" stroke="midnightblue" points="450.7,-775.73 442.55,-782.5 453.14,-782.28 450.7,-775.73"/>
</g>
<!-- Node3&#45;&gt;Node4 -->
<g id="edge3" class="edge">
<title>Node3&#45;&gt;Node4</title>
<path fill="none" stroke="midnightblue" d="M302.87,-244.48C358.32,-233.22 430.34,-218.6 475.11,-209.51"/>
<polygon fill="midnightblue" stroke="midnightblue" points="302.17,-241.05 293.07,-246.47 303.56,-247.91 302.17,-241.05"/>
</g>
<!-- Node5 -->
<g id="node5" class="node">
<title>Node5</title>
<g id="a_node5"><a xlink:href="core_8hpp.html" target="_top" xlink:title="Core header including all other necessary headers.">
<polygon fill="white" stroke="black" points="569.5,-6 569.5,-25 704.5,-25 704.5,-6 569.5,-6"/>
<text text-anchor="middle" x="637" y="-13" font-family="Helvetica,sans-Serif" font-size="10.00">include/plssvm/core.hpp</text>
</a>
</g>
</g>
<!-- Node4&#45;&gt;Node5 -->
<g id="edge4" class="edge">
<title>Node4&#45;&gt;Node5</title>
<path fill="none" stroke="midnightblue" d="M528.38,-181.7C553.43,-143.6 612.62,-53.57 631.27,-25.21"/>
<polygon fill="midnightblue" stroke="midnightblue" points="525.36,-179.92 522.79,-190.2 531.21,-183.77 525.36,-179.92"/>
</g>
<!-- Node6 -->
<g id="node6" class="node">
<title>Node6</title>
<g id="a_node6"><a xlink:href="csvm_8hpp.html" target="_top" xlink:title="Defines the base class for all C&#45;SVM backends and implements the functionality shared by all of them.">
<polygon fill="white" stroke="black" points="674,-134.5 674,-153.5 814,-153.5 814,-134.5 674,-134.5"/>
<text text-anchor="middle" x="744" y="-141.5" font-family="Helvetica,sans-Serif" font-size="10.00">include/plssvm/csvm.hpp</text>
</a>
</g>
</g>
<!-- Node4&#45;&gt;Node6 -->
<g id="edge5" class="edge">
<title>Node4&#45;&gt;Node6</title>
<path fill="none" stroke="midnightblue" d="M562.87,-188.09C605.75,-177.89 668.92,-162.86 708.2,-153.52"/>
<polygon fill="midnightblue" stroke="midnightblue" points="561.89,-184.72 552.97,-190.44 563.51,-191.53 561.89,-184.72"/>
</g>
<!-- Node6&#45;&gt;Node5 -->
<g id="edge13" class="edge">
<title>Node6&#45;&gt;Node5</title>
<path fill="none" stroke="midnightblue" d="M716.89,-129.6C703.28,-121.84 687.33,-111.01 676,-98 656.33,-75.4 644.3,-41.16 639.46,-25.22"/>
<polygon fill="midnightblue" stroke="midnightblue" points="715.39,-132.77 725.85,-134.48 718.74,-126.63 715.39,-132.77"/>
</g>
<!-- Node7 -->
<g id="node7" class="node">
<title>Node7</title>
<g id="a_node7"><a xlink:href="gpu__csvm_8hpp.html" target="_top" xlink:title="Defines the base class for all C&#45;SVM backends using a GPU. Used for code duplication reduction.">
<polygon fill="white" stroke="black" points="1090.5,-67.5 1090.5,-97.5 1229.5,-97.5 1229.5,-67.5 1090.5,-67.5"/>
<text text-anchor="start" x="1098.5" y="-85.5" font-family="Helvetica,sans-Serif" font-size="10.00">include/plssvm/backends</text>
<text text-anchor="middle" x="1160" y="-74.5" font-family="Helvetica,sans-Serif" font-size="10.00">/gpu_csvm.hpp</text>
</a>
</g>
</g>
<!-- Node6&#45;&gt;Node7 -->
<g id="edge6" class="edge">
<title>Node6&#45;&gt;Node7</title>
<path fill="none" stroke="midnightblue" d="M813.67,-133.03C890.57,-122.04 1013.6,-104.44 1090.45,-93.45"/>
<polygon fill="midnightblue" stroke="midnightblue" points="813.01,-129.59 803.6,-134.48 814,-136.52 813.01,-129.59"/>
</g>
<!-- Node13 -->
<g id="node13" class="node">
<title>Node13</title>
<g id="a_node13"><a xlink:href="backends_2OpenMP_2csvm_8hpp.html" target="_top" xlink:title="Defines a C&#45;SVM using the OpenMP backend.">
<polygon fill="white" stroke="black" points="839.5,-67.5 839.5,-97.5 978.5,-97.5 978.5,-67.5 839.5,-67.5"/>
<text text-anchor="start" x="847.5" y="-85.5" font-family="Helvetica,sans-Serif" font-size="10.00">include/plssvm/backends</text>
<text text-anchor="middle" x="909" y="-74.5" font-family="Helvetica,sans-Serif" font-size="10.00">/OpenMP/csvm.hpp</text>
</a>
</g>
</g>
<!-- Node6&#45;&gt;Node13 -->
<g id="edge12" class="edge">
<title>Node6&#45;&gt;Node13</title>
<path fill="none" stroke="midnightblue" d="M777.35,-130.98C804.17,-121.3 841.91,-107.69 870.11,-97.52"/>
<polygon fill="midnightblue" stroke="midnightblue" points="775.86,-127.79 767.64,-134.48 778.23,-134.38 775.86,-127.79"/>
</g>
<!-- Node14 -->
<g id="node14" class="node">
<title>Node14</title>
<g id="a_node14"><a xlink:href="csvm__factory_8hpp.html" target="_top" xlink:title="Factory function for constructing a new C&#45;SVM based on the provided plssvm::backend_type and potentia...">
<polygon fill="white" stroke="black" points="684.5,-67.5 684.5,-97.5 803.5,-97.5 803.5,-67.5 684.5,-67.5"/>
<text text-anchor="start" x="692.5" y="-85.5" font-family="Helvetica,sans-Serif" font-size="10.00">include/plssvm/csvm</text>
<text text-anchor="middle" x="744" y="-74.5" font-family="Helvetica,sans-Serif" font-size="10.00">_factory.hpp</text>
</a>
</g>
</g>
<!-- Node6&#45;&gt;Node14 -->
<g id="edge14" class="edge">
<title>Node6&#45;&gt;Node14</title>
<path fill="none" stroke="midnightblue" d="M744,-124.23C744,-115.59 744,-105.5 744,-97.52"/>
<polygon fill="midnightblue" stroke="midnightblue" points="740.5,-124.48 744,-134.48 747.5,-124.48 740.5,-124.48"/>
</g>
<!-- Node8 -->
<g id="node8" class="node">
<title>Node8</title>
<g id="a_node8"><a xlink:href="backends_2CUDA_2csvm_8hpp.html" target="_top" xlink:title="Defines a C&#45;SVM using the CUDA backend.">
<polygon fill="white" stroke="black" points="1377.5,-0.5 1377.5,-30.5 1516.5,-30.5 1516.5,-0.5 1377.5,-0.5"/>
<text text-anchor="start" x="1385.5" y="-18.5" font-family="Helvetica,sans-Serif" font-size="10.00">include/plssvm/backends</text>
<text text-anchor="middle" x="1447" y="-7.5" font-family="Helvetica,sans-Serif" font-size="10.00">/CUDA/csvm.hpp</text>
</a>
</g>
</g>
<!-- Node7&#45;&gt;Node8 -->
<g id="edge7" class="edge">
<title>Node7&#45;&gt;Node8</title>
<path fill="none" stroke="midnightblue" d="M1231.74,-65.25C1278.78,-54.6 1339.68,-40.81 1384.69,-30.61"/>
<polygon fill="midnightblue" stroke="midnightblue" points="1230.9,-61.85 1221.92,-67.48 1232.45,-68.68 1230.9,-61.85"/>
</g>
<!-- Node9 -->
<g id="node9" class="node">
<title>Node9</title>
<g id="a_node9"><a xlink:href="backends_2HIP_2csvm_8hpp.html" target="_top" xlink:title="Defines a C&#45;SVM using the HIP backend.">
<polygon fill="white" stroke="black" points="1534.5,-0.5 1534.5,-30.5 1673.5,-30.5 1673.5,-0.5 1534.5,-0.5"/>
<text text-anchor="start" x="1542.5" y="-18.5" font-family="Helvetica,sans-Serif" font-size="10.00">include/plssvm/backends</text>
<text text-anchor="middle" x="1604" y="-7.5" font-family="Helvetica,sans-Serif" font-size="10.00">/HIP/csvm.hpp</text>
</a>
</g>
</g>
<!-- Node7&#45;&gt;Node9 -->
<g id="edge8" class="edge">
<title>Node7&#45;&gt;Node9</title>
<path fill="none" stroke="midnightblue" d="M1239.84,-71.58C1314.09,-62.09 1427.73,-46.91 1526,-31 1528.72,-30.56 1531.49,-30.1 1534.29,-29.63"/>
<polygon fill="midnightblue" stroke="midnightblue" points="1239.11,-68.14 1229.63,-72.88 1239.99,-75.08 1239.11,-68.14"/>
</g>
<!-- Node10 -->
<g id="node10" class="node">
<title>Node10</title>
<g id="a_node10"><a xlink:href="backends_2OpenCL_2csvm_8hpp.html" target="_top" xlink:title="Defines a C&#45;SVM using the OpenCL backend.">
<polygon fill="white" stroke="black" points="906.5,-0.5 906.5,-30.5 1045.5,-30.5 1045.5,-0.5 906.5,-0.5"/>
<text text-anchor="start" x="914.5" y="-18.5" font-family="Helvetica,sans-Serif" font-size="10.00">include/plssvm/backends</text>
<text text-anchor="middle" x="976" y="-7.5" font-family="Helvetica,sans-Serif" font-size="10.00">/OpenCL/csvm.hpp</text>
</a>
</g>
</g>
<!-- Node7&#45;&gt;Node10 -->
<g id="edge9" class="edge">
<title>Node7&#45;&gt;Node10</title>
<path fill="none" stroke="midnightblue" d="M1110.33,-63.96C1080.7,-53.48 1043.56,-40.37 1015.85,-30.58"/>
<polygon fill="midnightblue" stroke="midnightblue" points="1109.48,-67.37 1120.07,-67.4 1111.81,-60.76 1109.48,-67.37"/>
</g>
<!-- Node11 -->
<g id="node11" class="node">
<title>Node11</title>
<g id="a_node11"><a xlink:href="backends_2SYCL_2DPCPP_2csvm_8hpp.html" target="_top" xlink:title="Defines a base C&#45;SVM used for the different SYCL backends using DPC++ as SYCL implementation.">
<polygon fill="white" stroke="black" points="1063.5,-0.5 1063.5,-30.5 1202.5,-30.5 1202.5,-0.5 1063.5,-0.5"/>
<text text-anchor="start" x="1071.5" y="-18.5" font-family="Helvetica,sans-Serif" font-size="10.00">include/plssvm/backends</text>
<text text-anchor="middle" x="1133" y="-7.5" font-family="Helvetica,sans-Serif" font-size="10.00">/SYCL/DPCPP/csvm.hpp</text>
</a>
</g>
</g>
<!-- Node7&#45;&gt;Node11 -->
<g id="edge10" class="edge">
<title>Node7&#45;&gt;Node11</title>
<path fill="none" stroke="midnightblue" d="M1150.23,-57.99C1146.42,-48.8 1142.17,-38.58 1138.85,-30.58"/>
<polygon fill="midnightblue" stroke="midnightblue" points="1147.07,-59.5 1154.14,-67.4 1153.54,-56.82 1147.07,-59.5"/>
</g>
<!-- Node12 -->
<g id="node12" class="node">
<title>Node12</title>
<g id="a_node12"><a xlink:href="backends_2SYCL_2hipSYCL_2csvm_8hpp.html" target="_top" xlink:title="Defines a base C&#45;SVM used for the different SYCL backends using hipSYCL as SYCL implementation.">
<polygon fill="white" stroke="black" points="1220.5,-0.5 1220.5,-30.5 1359.5,-30.5 1359.5,-0.5 1220.5,-0.5"/>
<text text-anchor="start" x="1228.5" y="-18.5" font-family="Helvetica,sans-Serif" font-size="10.00">include/plssvm/backends</text>
<text text-anchor="middle" x="1290" y="-7.5" font-family="Helvetica,sans-Serif" font-size="10.00">/SYCL/hipSYCL/csvm.hpp</text>
</a>
</g>
</g>
<!-- Node7&#45;&gt;Node12 -->
<g id="edge11" class="edge">
<title>Node7&#45;&gt;Node12</title>
<path fill="none" stroke="midnightblue" d="M1197.29,-62.85C1217.85,-52.58 1242.95,-40.03 1261.85,-30.58"/>
<polygon fill="midnightblue" stroke="midnightblue" points="1195.59,-59.79 1188.21,-67.4 1198.72,-66.05 1195.59,-59.79"/>
</g>
<!-- Node14&#45;&gt;Node5 -->
<g id="edge15" class="edge">
<title>Node14&#45;&gt;Node5</title>
<path fill="none" stroke="midnightblue" d="M712.13,-62.14C691.8,-49.79 666.45,-34.39 651,-25.01"/>
<polygon fill="midnightblue" stroke="midnightblue" points="710.42,-65.2 720.78,-67.4 714.05,-59.21 710.42,-65.2"/>
</g>
<!-- Node15&#45;&gt;Node4 -->
<g id="edge23" class="edge">
<title>Node15&#45;&gt;Node4</title>
<path fill="none" stroke="midnightblue" d="M88.82,-369.81C86.05,-336.45 86.84,-277.54 121,-246 144.26,-224.53 336.62,-210.76 444.44,-204.65"/>
<polygon fill="midnightblue" stroke="midnightblue" points="85.37,-370.47 89.85,-380.07 92.33,-369.77 85.37,-370.47"/>
</g>
<!-- Node16 -->
<g id="node16" class="node">
<title>Node16</title>
<g id="a_node16"><a xlink:href="data__set_8hpp.html" target="_top" xlink:title="Implements a data set class encapsulating all data points, features, and potential labels.">
<polygon fill="white" stroke="black" points="229.5,-313.5 229.5,-343.5 344.5,-343.5 344.5,-313.5 229.5,-313.5"/>
<text text-anchor="start" x="237.5" y="-331.5" font-family="Helvetica,sans-Serif" font-size="10.00">include/plssvm/data</text>
<text text-anchor="middle" x="287" y="-320.5" font-family="Helvetica,sans-Serif" font-size="10.00">_set.hpp</text>
</a>
</g>
</g>
<!-- Node15&#45;&gt;Node16 -->
<g id="edge17" class="edge">
<title>Node15&#45;&gt;Node16</title>
<path fill="none" stroke="midnightblue" d="M143.82,-377.23C175.36,-366.71 215.15,-353.45 244.77,-343.58"/>
<polygon fill="midnightblue" stroke="midnightblue" points="142.69,-373.91 134.31,-380.4 144.91,-380.55 142.69,-373.91"/>
</g>
<!-- Node16&#45;&gt;Node3 -->
<g id="edge21" class="edge">
<title>Node16&#45;&gt;Node3</title>
<path fill="none" stroke="midnightblue" d="M266.19,-306.02C256.8,-296.34 245.98,-285.17 237.64,-276.58"/>
<polygon fill="midnightblue" stroke="midnightblue" points="263.86,-308.65 273.33,-313.4 268.88,-303.78 263.86,-308.65"/>
</g>
<!-- Node16&#45;&gt;Node4 -->
<g id="edge22" class="edge">
<title>Node16&#45;&gt;Node4</title>
<path fill="none" stroke="midnightblue" d="M219.3,-315.78C164.75,-303.48 101.86,-281 133,-246 153.3,-223.18 338.82,-210.06 444.38,-204.39"/>
<polygon fill="midnightblue" stroke="midnightblue" points="218.85,-319.26 229.37,-317.96 220.33,-312.42 218.85,-319.26"/>
</g>
<!-- Node16&#45;&gt;Node5 -->
<g id="edge18" class="edge">
<title>Node16&#45;&gt;Node5</title>
<path fill="none" stroke="midnightblue" d="M219.08,-321.83C145.36,-311.51 38,-282.51 38,-201 38,-201 38,-201 38,-143 38,-35.38 412.8,-18.87 569.45,-16.67"/>
<polygon fill="midnightblue" stroke="midnightblue" points="218.88,-325.33 229.25,-323.16 219.79,-318.39 218.88,-325.33"/>
</g>
<!-- Node16&#45;&gt;Node6 -->
<g id="edge19" class="edge">
<title>Node16&#45;&gt;Node6</title>
<path fill="none" stroke="midnightblue" d="M299.24,-304.32C310.55,-285.37 329.18,-259.57 353,-246 449.02,-191.32 492.91,-240.89 599,-210 648.27,-195.65 702.49,-167.84 728.46,-153.7"/>
<polygon fill="midnightblue" stroke="midnightblue" points="296.07,-302.82 294.15,-313.24 302.15,-306.29 296.07,-302.82"/>
</g>
<!-- Node17 -->
<g id="node17" class="node">
<title>Node17</title>
<g id="a_node17"><a xlink:href="data__set__variants_8hpp.html" target="_top" xlink:title="Implements utility functions to create a data set based on runtime parameters.">
<polygon fill="white" stroke="black" points="362,-246.5 362,-276.5 514,-276.5 514,-246.5 362,-246.5"/>
<text text-anchor="start" x="370" y="-264.5" font-family="Helvetica,sans-Serif" font-size="10.00">include/plssvm/detail</text>
<text text-anchor="middle" x="438" y="-253.5" font-family="Helvetica,sans-Serif" font-size="10.00">/cmd/data_set_variants.hpp</text>
</a>
</g>
</g>
<!-- Node16&#45;&gt;Node17 -->
<g id="edge20" class="edge">
<title>Node16&#45;&gt;Node17</title>
<path fill="none" stroke="midnightblue" d="M329.03,-309.41C353.14,-299.03 382.95,-286.2 405.3,-276.58"/>
<polygon fill="midnightblue" stroke="midnightblue" points="327.57,-306.23 319.76,-313.4 330.33,-312.66 327.57,-306.23"/>
</g>
<!-- Node18&#45;&gt;Node16 -->
<g id="edge25" class="edge">
<title>Node18&#45;&gt;Node16</title>
<path fill="none" stroke="midnightblue" d="M268.13,-507.5C259.71,-499.3 251.47,-489.18 247,-478 227.98,-430.39 259.99,-370.67 277.18,-343.78"/>
<polygon fill="midnightblue" stroke="midnightblue" points="266.04,-510.33 275.8,-514.45 270.75,-505.14 266.04,-510.33"/>
</g>
<!-- Node19&#45;&gt;Node7 -->
<g id="edge27" class="edge">
<title>Node19&#45;&gt;Node7</title>
<path fill="none" stroke="midnightblue" d="M949.64,-304.31C974.55,-265.99 1028.13,-188.29 1086,-134 1100.97,-119.95 1120.18,-106.97 1135.27,-97.68"/>
<polygon fill="midnightblue" stroke="midnightblue" points="946.41,-302.86 943.94,-313.16 952.3,-306.65 946.41,-302.86"/>
</g>
<!-- Node20&#45;&gt;Node6 -->
<g id="edge29" class="edge">
<title>Node20&#45;&gt;Node6</title>
<path fill="none" stroke="midnightblue" d="M518.84,-711.7C582.64,-685.69 692.48,-630.83 746,-545 829.59,-410.94 763.03,-199.26 747.18,-153.78"/>
<polygon fill="midnightblue" stroke="midnightblue" points="517.38,-708.52 509.4,-715.48 519.98,-715.02 517.38,-708.52"/>
</g>
<!-- Node21 -->
<g id="node21" class="node">
<title>Node21</title>
<g id="a_node21"><a xlink:href="arff__parsing_8hpp.html" target="_top" xlink:title="Implements parsing functions for the ARFF file format.">
<polygon fill="white" stroke="black" points="256.5,-447.5 256.5,-477.5 377.5,-477.5 377.5,-447.5 256.5,-447.5"/>
<text text-anchor="start" x="264.5" y="-465.5" font-family="Helvetica,sans-Serif" font-size="10.00">include/plssvm/detail</text>
<text text-anchor="middle" x="317" y="-454.5" font-family="Helvetica,sans-Serif" font-size="10.00">/io/arff_parsing.hpp</text>
</a>
</g>
</g>
<!-- Node20&#45;&gt;Node21 -->
<g id="edge30" class="edge">
<title>Node20&#45;&gt;Node21</title>
<path fill="none" stroke="midnightblue" d="M465.43,-705.3C456.47,-662.91 433.27,-574.03 387,-514 375.38,-498.93 358.06,-486.38 343.56,-477.56"/>
<polygon fill="midnightblue" stroke="midnightblue" points="462.04,-706.17 467.46,-715.27 468.9,-704.77 462.04,-706.17"/>
</g>
<!-- Node20&#45;&gt;Node22 -->
<g id="edge32" class="edge">
<title>Node20&#45;&gt;Node22</title>
<path fill="none" stroke="midnightblue" d="M540.58,-713.63C588.51,-702.85 651.3,-688.72 697.25,-678.39"/>
<polygon fill="midnightblue" stroke="midnightblue" points="539.57,-710.26 530.58,-715.87 541.11,-717.09 539.57,-710.26"/>
</g>
<!-- Node21&#45;&gt;Node16 -->
<g id="edge31" class="edge">
<title>Node21&#45;&gt;Node16</title>
<path fill="none" stroke="midnightblue" d="M311.52,-437.39C305.27,-409.9 295.27,-365.89 290.19,-343.52"/>
<polygon fill="midnightblue" stroke="midnightblue" points="308.16,-438.4 313.79,-447.37 314.99,-436.85 308.16,-438.4"/>
</g>
<!-- Node22&#45;&gt;Node2 -->
<g id="edge33" class="edge">
<title>Node22&#45;&gt;Node2</title>
<path fill="none" stroke="midnightblue" d="M830.88,-654.41C909.62,-645.27 1039.56,-629.39 1151,-612 1154.03,-611.53 1157.12,-611.03 1160.25,-610.51"/>
<polygon fill="midnightblue" stroke="midnightblue" points="830.12,-650.97 820.59,-655.6 830.93,-657.92 830.12,-650.97"/>
</g>
<!-- Node22&#45;&gt;Node5 -->
<g id="edge34" class="edge">
<title>Node22&#45;&gt;Node5</title>
<path fill="none" stroke="midnightblue" d="M718.96,-643.51C682.81,-624.1 631.36,-590.38 605,-545 550.86,-451.81 622.76,-85.89 635.22,-25.09"/>
<polygon fill="midnightblue" stroke="midnightblue" points="717.78,-646.83 728.26,-648.36 721.02,-640.63 717.78,-646.83"/>
</g>
<!-- Node22&#45;&gt;Node6 -->
<g id="edge35" class="edge">
<title>Node22&#45;&gt;Node6</title>
<path fill="none" stroke="midnightblue" d="M780.64,-640.86C802.79,-616.32 834,-574.02 834,-530.5 834,-530.5 834,-530.5 834,-461.5 834,-338.8 837.85,-300.25 784,-190 776.84,-175.35 763.56,-161.84 754.27,-153.53"/>
<polygon fill="midnightblue" stroke="midnightblue" points="778.07,-638.48 773.82,-648.19 783.2,-643.26 778.07,-638.48"/>
</g>
<!-- Node23 -->
<g id="node23" class="node">
<title>Node23</title>
<g id="a_node23"><a xlink:href="parameter_8hpp.html" target="_top" xlink:title="Implements the parameter class encapsulating all important C&#45;SVM parameters.">
<polygon fill="white" stroke="black" points="978,-587 978,-606 1142,-606 1142,-587 978,-587"/>
<text text-anchor="middle" x="1060" y="-594" font-family="Helvetica,sans-Serif" font-size="10.00">include/plssvm/parameter.hpp</text>
</a>
</g>
</g>
<!-- Node22&#45;&gt;Node23 -->
<g id="edge36" class="edge">
<title>Node22&#45;&gt;Node23</title>
<path fill="none" stroke="midnightblue" d="M830.71,-647.01C890.12,-634.18 972.35,-616.43 1020.48,-606.03"/>
<polygon fill="midnightblue" stroke="midnightblue" points="829.67,-643.66 820.64,-649.19 831.15,-650.5 829.67,-643.66"/>
</g>
<!-- Node23&#45;&gt;Node3 -->
<g id="edge61" class="edge">
<title>Node23&#45;&gt;Node3</title>
<path fill="none" stroke="midnightblue" d="M967.6,-593.98C832.04,-590.6 586.61,-579.72 506,-545 464.64,-527.19 456.98,-514.05 430,-478 381.51,-413.21 412.01,-368.38 353,-313 334.67,-295.8 309.81,-284.23 286.81,-276.56"/>
<polygon fill="midnightblue" stroke="midnightblue" points="967.88,-597.49 977.96,-594.23 968.05,-590.49 967.88,-597.49"/>
</g>
<!-- Node23&#45;&gt;Node4 -->
<g id="edge62" class="edge">
<title>Node23&#45;&gt;Node4</title>
<path fill="none" stroke="midnightblue" d="M967.4,-594.58C852.18,-591.86 663.48,-581.72 605,-545 577.46,-527.71 500.28,-384.38 490,-344 486.6,-330.65 485.01,-325.84 490,-313 497.87,-292.77 515.13,-297.23 523,-277 531.92,-254.06 524.71,-224.33 520.1,-209.79"/>
<polygon fill="midnightblue" stroke="midnightblue" points="967.55,-598.09 977.62,-594.81 967.7,-591.09 967.55,-598.09"/>
</g>
<!-- Node23&#45;&gt;Node5 -->
<g id="edge44" class="edge">
<title>Node23&#45;&gt;Node5</title>
<path fill="none" stroke="midnightblue" d="M1076.96,-579.75C1099.91,-556.65 1138,-511.12 1138,-463.5 1138,-463.5 1138,-463.5 1138,-260.5 1138,-206.09 1035.02,-94.37 988,-67 941.18,-39.75 792.83,-26.1 704.69,-20.23"/>
<polygon fill="midnightblue" stroke="midnightblue" points="1074.29,-577.47 1069.56,-586.96 1079.17,-582.49 1074.29,-577.47"/>
</g>
<!-- Node23&#45;&gt;Node6 -->
<g id="edge45" class="edge">
<title>Node23&#45;&gt;Node6</title>
<path fill="none" stroke="midnightblue" d="M1051.79,-577.45C1041.16,-552.42 1024,-505.48 1024,-463.5 1024,-463.5 1024,-463.5 1024,-260.5 1024,-169.92 897.24,-148.95 814.29,-144.91"/>
<polygon fill="midnightblue" stroke="midnightblue" points="1048.65,-579.01 1055.87,-586.76 1055.06,-576.2 1048.65,-579.01"/>
</g>
<!-- Node23&#45;&gt;Node7 -->
<g id="edge38" class="edge">
<title>Node23&#45;&gt;Node7</title>
<path fill="none" stroke="midnightblue" d="M1121.27,-584.97C1163.75,-576.28 1214.96,-562.53 1228,-545 1335.52,-400.4 1204.77,-158.54 1168.71,-97.71"/>
<polygon fill="midnightblue" stroke="midnightblue" points="1120.36,-581.58 1111.24,-586.97 1121.73,-588.45 1120.36,-581.58"/>
</g>
<!-- Node23&#45;&gt;Node8 -->
<g id="edge37" class="edge">
<title>Node23&#45;&gt;Node8</title>
<path fill="none" stroke="midnightblue" d="M1125.53,-585.26C1229.35,-567.17 1420,-525.51 1420,-463.5 1420,-463.5 1420,-463.5 1420,-143 1420,-101.46 1434.1,-53.89 1441.92,-30.71"/>
<polygon fill="midnightblue" stroke="midnightblue" points="1124.72,-581.85 1115.46,-586.99 1125.91,-588.75 1124.72,-581.85"/>
</g>
<!-- Node23&#45;&gt;Node9 -->
<g id="edge39" class="edge">
<title>Node23&#45;&gt;Node9</title>
<path fill="none" stroke="midnightblue" d="M1121.88,-585.3C1204.58,-571.61 1342.08,-548.57 1353,-545 1430.36,-519.71 1517,-544.89 1517,-463.5 1517,-463.5 1517,-463.5 1517,-143 1517,-95.02 1560.01,-51.97 1585.55,-30.64"/>
<polygon fill="midnightblue" stroke="midnightblue" points="1121.13,-581.88 1111.84,-586.97 1122.27,-588.79 1121.13,-581.88"/>
</g>
<!-- Node23&#45;&gt;Node10 -->
<g id="edge40" class="edge">
<title>Node23&#45;&gt;Node10</title>
<path fill="none" stroke="midnightblue" d="M1096.84,-583.11C1115.79,-575.01 1137.83,-562.61 1152,-545 1175.67,-515.58 1176,-501.26 1176,-463.5 1176,-463.5 1176,-463.5 1176,-260.5 1176,-154.87 1115.04,-139.27 1038,-67 1024.13,-53.99 1007.35,-40.44 994.74,-30.66"/>
<polygon fill="midnightblue" stroke="midnightblue" points="1095.51,-579.87 1087.55,-586.86 1098.13,-586.37 1095.51,-579.87"/>
</g>
<!-- Node23&#45;&gt;Node11 -->
<g id="edge42" class="edge">
<title>Node23&#45;&gt;Node11</title>
<path fill="none" stroke="midnightblue" d="M1124.08,-584.22C1148.01,-576.88 1173.39,-564.81 1190,-545 1290.13,-425.57 1258,-356.85 1258,-201 1258,-201 1258,-201 1258,-143 1258,-108.18 1261.04,-93.95 1239,-67 1225.06,-49.96 1204.02,-38.31 1184.34,-30.53"/>
<polygon fill="midnightblue" stroke="midnightblue" points="1122.96,-580.9 1114.3,-587 1124.87,-587.64 1122.96,-580.9"/>
</g>
<!-- Node23&#45;&gt;Node12 -->
<g id="edge43" class="edge">
<title>Node23&#45;&gt;Node12</title>
<path fill="none" stroke="midnightblue" d="M1120.5,-585.03C1168.54,-575.72 1230.88,-561.12 1251,-545 1309.02,-498.52 1328,-470.84 1328,-396.5 1328,-396.5 1328,-396.5 1328,-143 1328,-100.58 1308.16,-53.41 1297.15,-30.5"/>
<polygon fill="midnightblue" stroke="midnightblue" points="1119.65,-581.62 1110.48,-586.93 1120.96,-588.5 1119.65,-581.62"/>
</g>
<!-- Node23&#45;&gt;Node13 -->
<g id="edge41" class="edge">
<title>Node23&#45;&gt;Node13</title>
<path fill="none" stroke="midnightblue" d="M1069.13,-577.55C1080.93,-552.63 1100,-505.82 1100,-463.5 1100,-463.5 1100,-463.5 1100,-260.5 1100,-214.84 981.08,-131.03 930.91,-97.71"/>
<polygon fill="midnightblue" stroke="midnightblue" points="1065.84,-576.29 1064.59,-586.81 1072.13,-579.37 1065.84,-576.29"/>
</g>
<!-- Node24 -->
<g id="node24" class="node">
<title>Node24</title>
<g id="a_node24"><a xlink:href="parser__train_8hpp.html" target="_top" xlink:title="Implements a class encapsulating all necessary parameters for training the C&#45;SVM possibly provided th...">
<polygon fill="white" stroke="black" points="613.5,-514.5 613.5,-544.5 736.5,-544.5 736.5,-514.5 613.5,-514.5"/>
<text text-anchor="start" x="621.5" y="-532.5" font-family="Helvetica,sans-Serif" font-size="10.00">include/plssvm/detail</text>
<text text-anchor="middle" x="675" y="-521.5" font-family="Helvetica,sans-Serif" font-size="10.00">/cmd/parser_train.hpp</text>
</a>
</g>
</g>
<!-- Node23&#45;&gt;Node24 -->
<g id="edge46" class="edge">
<title>Node23&#45;&gt;Node24</title>
<path fill="none" stroke="midnightblue" d="M999.03,-585.21C927.26,-573.09 808.74,-553.08 736.66,-540.91"/>
<polygon fill="midnightblue" stroke="midnightblue" points="998.83,-588.72 1009.27,-586.94 999.99,-581.82 998.83,-588.72"/>
</g>
<!-- Node24&#45;&gt;Node17 -->
<g id="edge47" class="edge">
<title>Node24&#45;&gt;Node17</title>
<path fill="none" stroke="midnightblue" d="M638.63,-509.12C624.48,-500.62 608.66,-489.88 596,-478 526.47,-412.78 466.76,-313.4 445.9,-276.73"/>
<polygon fill="midnightblue" stroke="midnightblue" points="637.24,-512.35 647.64,-514.36 640.76,-506.31 637.24,-512.35"/>
</g>
<!-- Node25 -->
<g id="node25" class="node">
<title>Node25</title>
<g id="a_node25"><a xlink:href="performance__tracker_8hpp.html" target="_top" xlink:title="Defines a performance tracker which can dump performance information in a YAML file.">
<polygon fill="white" stroke="black" points="604.5,-447.5 604.5,-477.5 745.5,-477.5 745.5,-447.5 604.5,-447.5"/>
<text text-anchor="start" x="612.5" y="-465.5" font-family="Helvetica,sans-Serif" font-size="10.00">include/plssvm/detail</text>
<text text-anchor="middle" x="675" y="-454.5" font-family="Helvetica,sans-Serif" font-size="10.00">/performance_tracker.hpp</text>
</a>
</g>
</g>
<!-- Node24&#45;&gt;Node25 -->
<g id="edge48" class="edge">
<title>Node24&#45;&gt;Node25</title>
<path fill="none" stroke="midnightblue" d="M675,-504.11C675,-495.15 675,-485.32 675,-477.58"/>
<polygon fill="midnightblue" stroke="midnightblue" points="671.5,-504.4 675,-514.4 678.5,-504.4 671.5,-504.4"/>
</g>
<!-- Node25&#45;&gt;Node4 -->
<g id="edge60" class="edge">
<title>Node25&#45;&gt;Node4</title>
<path fill="none" stroke="midnightblue" d="M635.2,-442.12C622.32,-434.1 609.03,-423.67 600,-411 555.94,-349.2 591.54,-313.06 556,-246 548.45,-231.75 535.62,-218.16 526.75,-209.71"/>
<polygon fill="midnightblue" stroke="midnightblue" points="633.61,-445.25 644,-447.29 637.15,-439.21 633.61,-445.25"/>
</g>
<!-- Node25&#45;&gt;Node6 -->
<g id="edge50" class="edge">
<title>Node25&#45;&gt;Node6</title>
<path fill="none" stroke="midnightblue" d="M710.99,-441.74C722,-433.74 732.83,-423.43 739,-411 762.1,-364.46 748.46,-194.25 744.81,-153.71"/>
<polygon fill="midnightblue" stroke="midnightblue" points="708.94,-438.9 702.61,-447.4 712.85,-444.7 708.94,-438.9"/>
</g>
<!-- Node25&#45;&gt;Node7 -->
<g id="edge49" class="edge">
<title>Node25&#45;&gt;Node7</title>
<path fill="none" stroke="midnightblue" d="M755.58,-450.63C868.98,-433.04 1062,-393.67 1062,-329.5 1062,-329.5 1062,-329.5 1062,-260.5 1062,-192.36 1118.28,-125.85 1145.54,-97.63"/>
<polygon fill="midnightblue" stroke="midnightblue" points="754.89,-447.2 745.53,-452.17 755.95,-454.12 754.89,-447.2"/>
</g>
<!-- Node25&#45;&gt;Node16 -->
<g id="edge51" class="edge">
<title>Node25&#45;&gt;Node16</title>
<path fill="none" stroke="midnightblue" d="M624.28,-444.24C546.65,-417.83 399.88,-367.9 328.32,-343.56"/>
<polygon fill="midnightblue" stroke="midnightblue" points="623.25,-447.59 633.84,-447.5 625.5,-440.96 623.25,-447.59"/>
</g>
<!-- Node25&#45;&gt;Node19 -->
<g id="edge52" class="edge">
<title>Node25&#45;&gt;Node19</title>
<path fill="none" stroke="midnightblue" d="M711.83,-442.8C764.54,-416.04 860.3,-367.42 907.38,-343.52"/>
<polygon fill="midnightblue" stroke="midnightblue" points="710.16,-439.73 702.82,-447.37 713.33,-445.97 710.16,-439.73"/>
</g>
<!-- Node26 -->
<g id="node26" class="node">
<title>Node26</title>
<g id="a_node26"><a xlink:href="logger_8hpp.html" target="_top" xlink:title="Defines a simple logging function.">
<polygon fill="white" stroke="black" points="608.5,-380.5 608.5,-410.5 729.5,-410.5 729.5,-380.5 608.5,-380.5"/>
<text text-anchor="start" x="616.5" y="-398.5" font-family="Helvetica,sans-Serif" font-size="10.00">include/plssvm/detail</text>
<text text-anchor="middle" x="669" y="-387.5" font-family="Helvetica,sans-Serif" font-size="10.00">/logger.hpp</text>
</a>
</g>
</g>
<!-- Node25&#45;&gt;Node26 -->
<g id="edge53" class="edge">
<title>Node25&#45;&gt;Node26</title>
<path fill="none" stroke="midnightblue" d="M672.78,-437.4C671.94,-428.37 671.02,-418.41 670.3,-410.58"/>
<polygon fill="midnightblue" stroke="midnightblue" points="669.29,-437.76 673.7,-447.4 676.26,-437.12 669.29,-437.76"/>
</g>
<!-- Node26&#45;&gt;Node3 -->
<g id="edge57" class="edge">
<title>Node26&#45;&gt;Node3</title>
<path fill="none" stroke="midnightblue" d="M614.94,-377.44C561.47,-360.68 477.25,-334.54 404,-313 360.72,-300.27 311.37,-286.48 275.3,-276.53"/>
<polygon fill="midnightblue" stroke="midnightblue" points="613.97,-380.81 624.56,-380.46 616.07,-374.13 613.97,-380.81"/>
</g>
<!-- Node26&#45;&gt;Node4 -->
<g id="edge59" class="edge">
<title>Node26&#45;&gt;Node4</title>
<path fill="none" stroke="midnightblue" d="M661.66,-370.47C651.01,-338.82 628.67,-282.86 594,-246 578.41,-229.42 555.33,-217.04 538.51,-209.51"/>
<polygon fill="midnightblue" stroke="midnightblue" points="658.41,-371.78 664.83,-380.21 665.07,-369.62 658.41,-371.78"/>
</g>
<!-- Node26&#45;&gt;Node6 -->
<g id="edge55" class="edge">
<title>Node26&#45;&gt;Node6</title>
<path fill="none" stroke="midnightblue" d="M672.47,-370.32C678.58,-331.34 693.02,-252.63 718,-190 723.35,-176.59 732.17,-162.37 738.03,-153.58"/>
<polygon fill="midnightblue" stroke="midnightblue" points="668.98,-370.02 670.94,-380.44 675.9,-371.07 668.98,-370.02"/>
</g>
<!-- Node26&#45;&gt;Node7 -->
<g id="edge54" class="edge">
<title>Node26&#45;&gt;Node7</title>
<path fill="none" stroke="midnightblue" d="M729.44,-376.99C780.71,-358 846,-322.1 846,-262.5 846,-262.5 846,-262.5 846,-199 846,-147.3 997.81,-111.66 1090.31,-94.74"/>
<polygon fill="midnightblue" stroke="midnightblue" points="727.96,-373.8 719.72,-380.46 730.32,-380.4 727.96,-373.8"/>
</g>
<!-- Node26&#45;&gt;Node16 -->
<g id="edge56" class="edge">
<title>Node26&#45;&gt;Node16</title>
<path fill="none" stroke="midnightblue" d="M598.44,-382.49C525.4,-370.06 412.67,-350.88 344.75,-339.33"/>
<polygon fill="midnightblue" stroke="midnightblue" points="598.03,-385.97 608.47,-384.2 599.2,-379.07 598.03,-385.97"/>
</g>
<!-- Node26&#45;&gt;Node19 -->
<g id="edge58" class="edge">
<title>Node26&#45;&gt;Node19</title>
<path fill="none" stroke="midnightblue" d="M736.31,-378.05C779.8,-367.43 835.8,-353.74 877.25,-343.61"/>
<polygon fill="midnightblue" stroke="midnightblue" points="735.27,-374.7 726.39,-380.48 736.94,-381.5 735.27,-374.7"/>
</g>
</g>
</svg>
