<?xml version="1.0" encoding="UTF-8" standalone="no"?>
<!DOCTYPE svg PUBLIC "-//W3C//DTD SVG 1.1//EN"
 "http://www.w3.org/Graphics/SVG/1.1/DTD/svg11.dtd">
<!-- Generated by graphviz version 2.43.0 (0)
 -->
<!-- Title: include/plssvm/backends/SYCL/detail/atomics.hpp Pages: 1 -->
<svg width="541pt" height="106pt"
 viewBox="0.00 0.00 541.00 106.00" xmlns="http://www.w3.org/2000/svg" xmlns:xlink="http://www.w3.org/1999/xlink">
<g id="graph0" class="graph" transform="scale(1 1) rotate(0) translate(4 102)">
<title>include/plssvm/backends/SYCL/detail/atomics.hpp</title>
<polygon fill="white" stroke="transparent" points="-4,4 -4,-102 537,-102 537,4 -4,4"/>
<!-- Node1 -->
<g id="node1" class="node">
<title>Node1</title>
<g id="a_node1"><a xlink:title="Defines an atomic_ref wrapper for the SYCL backend.">
<polygon fill="#bfbfbf" stroke="black" points="220,-67.5 220,-97.5 359,-97.5 359,-67.5 220,-67.5"/>
<text text-anchor="start" x="228" y="-85.5" font-family="Helvetica,sans-Serif" font-size="10.00">include/plssvm/backends</text>
<text text-anchor="middle" x="289.5" y="-74.5" font-family="Helvetica,sans-Serif" font-size="10.00">/SYCL/detail/atomics.hpp</text>
</a>
</g>
</g>
<!-- Node2 -->
<g id="node2" class="node">
<title>Node2</title>
<g id="a_node2"><a xlink:href="svm__kernel__hierarchical_8hpp.html" target="_top" xlink:title="Defines the kernel functions for the C&#45;SVM using the SYCL backend.">
<polygon fill="white" stroke="black" points="0,-0.5 0,-30.5 185,-30.5 185,-0.5 0,-0.5"/>
<text text-anchor="start" x="8" y="-18.5" font-family="Helvetica,sans-Serif" font-size="10.00">include/plssvm/backends</text>
<text text-anchor="middle" x="92.5" y="-7.5" font-family="Helvetica,sans-Serif" font-size="10.00">/SYCL/svm_kernel_hierarchical.hpp</text>
</a>
</g>
</g>
<!-- Node1&#45;&gt;Node2 -->
<g id="edge1" class="edge">
<title>Node1&#45;&gt;Node2</title>
<path fill="none" stroke="midnightblue" d="M237.15,-64.23C205.28,-53.71 165.09,-40.45 135.16,-30.58"/>
<polygon fill="midnightblue" stroke="midnightblue" points="236.16,-67.59 246.75,-67.4 238.35,-60.94 236.16,-67.59"/>
</g>
<!-- Node3 -->
<g id="node3" class="node">
<title>Node3</title>
<g id="a_node3"><a xlink:href="svm__kernel__nd__range_8hpp.html" target="_top" xlink:title="Defines the kernel functions for the C&#45;SVM in the nd_range formulation using the SYCL backend.">
<polygon fill="white" stroke="black" points="203,-0.5 203,-30.5 376,-30.5 376,-0.5 203,-0.5"/>
<text text-anchor="start" x="211" y="-18.5" font-family="Helvetica,sans-Serif" font-size="10.00">include/plssvm/backends</text>
<text text-anchor="middle" x="289.5" y="-7.5" font-family="Helvetica,sans-Serif" font-size="10.00">/SYCL/svm_kernel_nd_range.hpp</text>
</a>
</g>
</g>
<!-- Node1&#45;&gt;Node3 -->
<g id="edge2" class="edge">
<title>Node1&#45;&gt;Node3</title>
<path fill="none" stroke="midnightblue" d="M289.5,-57.11C289.5,-48.15 289.5,-38.32 289.5,-30.58"/>
<polygon fill="midnightblue" stroke="midnightblue" points="286,-57.4 289.5,-67.4 293,-57.4 286,-57.4"/>
</g>
<!-- Node4 -->
<g id="node4" class="node">
<title>Node4</title>
<g id="a_node4"><a xlink:href="predict__kernel_8hpp.html" target="_top" xlink:title="Defines the functions used for prediction for the C&#45;SVM using the SYCL backend.">
<polygon fill="white" stroke="black" points="394,-0.5 394,-30.5 533,-30.5 533,-0.5 394,-0.5"/>
<text text-anchor="start" x="402" y="-18.5" font-family="Helvetica,sans-Serif" font-size="10.00">include/plssvm/backends</text>
<text text-anchor="middle" x="463.5" y="-7.5" font-family="Helvetica,sans-Serif" font-size="10.00">/SYCL/predict_kernel.hpp</text>
</a>
</g>
</g>
<!-- Node1&#45;&gt;Node4 -->
<g id="edge3" class="edge">
<title>Node1&#45;&gt;Node4</title>
<path fill="none" stroke="midnightblue" d="M336.83,-63.82C364.8,-53.37 399.73,-40.32 425.82,-30.58"/>
<polygon fill="midnightblue" stroke="midnightblue" points="335.4,-60.62 327.26,-67.4 337.85,-67.18 335.4,-60.62"/>
</g>
</g>
</svg>
