<?xml version="1.0" encoding="UTF-8" standalone="no"?>
<!DOCTYPE svg PUBLIC "-//W3C//DTD SVG 1.1//EN"
 "http://www.w3.org/Graphics/SVG/1.1/DTD/svg11.dtd">
<!-- Generated by graphviz version 2.43.0 (0)
 -->
<!-- Title: include/plssvm/backends/SYCL/detail/atomics.hpp Pages: 1 -->
<svg width="541pt" height="106pt"
 viewBox="0.00 0.00 541.00 106.00" xmlns="http://www.w3.org/2000/svg" xmlns:xlink="http://www.w3.org/1999/xlink">
<g id="graph0" class="graph" transform="scale(1 1) rotate(0) translate(4 102)">
<title>include/plssvm/backends/SYCL/detail/atomics.hpp</title>
<polygon fill="white" stroke="transparent" points="-4,4 -4,-102 537,-102 537,4 -4,4"/>
<!-- Node1 -->
<g id="node1" class="node">
<title>Node1</title>
<g id="a_node1"><a xlink:title="Defines an atomic_ref wrapper for the SYCL backend.">
<polygon fill="#bfbfbf" stroke="black" points="180,-67.5 180,-97.5 319,-97.5 319,-67.5 180,-67.5"/>
<text text-anchor="start" x="188" y="-85.5" font-family="Helvetica,sans-Serif" font-size="10.00">include/plssvm/backends</text>
<text text-anchor="middle" x="249.5" y="-74.5" font-family="Helvetica,sans-Serif" font-size="10.00">/SYCL/detail/atomics.hpp</text>
</a>
</g>
</g>
<!-- Node2 -->
<g id="node2" class="node">
<title>Node2</title>
<g id="a_node2"><a xlink:href="predict__kernel_8hpp.html" target="_top" xlink:title="Defines the functions used for prediction for the C&#45;SVM using the SYCL backend.">
<polygon fill="white" stroke="black" points="0,-0.5 0,-30.5 139,-30.5 139,-0.5 0,-0.5"/>
<text text-anchor="start" x="8" y="-18.5" font-family="Helvetica,sans-Serif" font-size="10.00">include/plssvm/backends</text>
<text text-anchor="middle" x="69.5" y="-7.5" font-family="Helvetica,sans-Serif" font-size="10.00">/SYCL/predict_kernel.hpp</text>
</a>
</g>
</g>
<!-- Node1&#45;&gt;Node2 -->
<g id="edge1" class="edge">
<title>Node1&#45;&gt;Node2</title>
<path fill="none" stroke="midnightblue" d="M200.91,-63.96C171.92,-53.48 135.59,-40.37 108.48,-30.58"/>
<polygon fill="midnightblue" stroke="midnightblue" points="199.85,-67.29 210.44,-67.4 202.23,-60.71 199.85,-67.29"/>
</g>
<!-- Node3 -->
<g id="node3" class="node">
<title>Node3</title>
<g id="a_node3"><a xlink:href="svm__kernel__hierarchical_8hpp.html" target="_top" xlink:title="Defines the kernel functions for the C&#45;SVM using the SYCL backend.">
<polygon fill="white" stroke="black" points="157,-0.5 157,-30.5 342,-30.5 342,-0.5 157,-0.5"/>
<text text-anchor="start" x="165" y="-18.5" font-family="Helvetica,sans-Serif" font-size="10.00">include/plssvm/backends</text>
<text text-anchor="middle" x="249.5" y="-7.5" font-family="Helvetica,sans-Serif" font-size="10.00">/SYCL/svm_kernel_hierarchical.hpp</text>
</a>
</g>
</g>
<!-- Node1&#45;&gt;Node3 -->
<g id="edge2" class="edge">
<title>Node1&#45;&gt;Node3</title>
<path fill="none" stroke="midnightblue" d="M249.5,-57.11C249.5,-48.15 249.5,-38.32 249.5,-30.58"/>
<polygon fill="midnightblue" stroke="midnightblue" points="246,-57.4 249.5,-67.4 253,-57.4 246,-57.4"/>
</g>
<!-- Node4 -->
<g id="node4" class="node">
<title>Node4</title>
<g id="a_node4"><a xlink:href="svm__kernel__nd__range_8hpp.html" target="_top" xlink:title="Defines the kernel functions for the C&#45;SVM in the nd_range formulation using the SYCL backend.">
<polygon fill="white" stroke="black" points="360,-0.5 360,-30.5 533,-30.5 533,-0.5 360,-0.5"/>
<text text-anchor="start" x="368" y="-18.5" font-family="Helvetica,sans-Serif" font-size="10.00">include/plssvm/backends</text>
<text text-anchor="middle" x="446.5" y="-7.5" font-family="Helvetica,sans-Serif" font-size="10.00">/SYCL/svm_kernel_nd_range.hpp</text>
</a>
</g>
</g>
<!-- Node1&#45;&gt;Node4 -->
<g id="edge3" class="edge">
<title>Node1&#45;&gt;Node4</title>
<path fill="none" stroke="midnightblue" d="M301.85,-64.23C333.72,-53.71 373.91,-40.45 403.84,-30.58"/>
<polygon fill="midnightblue" stroke="midnightblue" points="300.65,-60.94 292.25,-67.4 302.84,-67.59 300.65,-60.94"/>
</g>
</g>
</svg>
