<?xml version="1.0" encoding="UTF-8" standalone="no"?>
<!DOCTYPE svg PUBLIC "-//W3C//DTD SVG 1.1//EN"
 "http://www.w3.org/Graphics/SVG/1.1/DTD/svg11.dtd">
<!-- Generated by graphviz version 2.43.0 (0)
 -->
<!-- Title: include/plssvm/backend_types.hpp Pages: 1 -->
<svg width="1141pt" height="620pt"
 viewBox="0.00 0.00 1140.50 620.00" xmlns="http://www.w3.org/2000/svg" xmlns:xlink="http://www.w3.org/1999/xlink">
<g id="graph0" class="graph" transform="scale(1 1) rotate(0) translate(4 616)">
<title>include/plssvm/backend_types.hpp</title>
<polygon fill="white" stroke="transparent" points="-4,4 -4,-616 1136.5,-616 1136.5,4 -4,4"/>
<!-- Node1 -->
<g id="node1" class="node">
<title>Node1</title>
<g id="a_node1"><a xlink:title="Defines an enumeration holding all possible backends. Can also include backends not available on the ...">
<polygon fill="#bfbfbf" stroke="black" points="985.5,-581.5 985.5,-611.5 1119.5,-611.5 1119.5,-581.5 985.5,-581.5"/>
<text text-anchor="start" x="993.5" y="-599.5" font-family="Helvetica,sans-Serif" font-size="10.00">include/plssvm/backend</text>
<text text-anchor="middle" x="1052.5" y="-588.5" font-family="Helvetica,sans-Serif" font-size="10.00">_types.hpp</text>
</a>
</g>
</g>
<!-- Node2 -->
<g id="node2" class="node">
<title>Node2</title>
<g id="a_node2"><a xlink:href="core_8hpp.html" target="_top" xlink:title="Core header including all other necessary headers.">
<polygon fill="white" stroke="black" points="785,-6 785,-25 920,-25 920,-6 785,-6"/>
<text text-anchor="middle" x="852.5" y="-13" font-family="Helvetica,sans-Serif" font-size="10.00">include/plssvm/core.hpp</text>
</a>
</g>
</g>
<!-- Node1&#45;&gt;Node2 -->
<g id="edge1" class="edge">
<title>Node1&#45;&gt;Node2</title>
<path fill="none" stroke="midnightblue" d="M1075.58,-574.14C1099.21,-549.84 1132.5,-507.75 1132.5,-463.5 1132.5,-463.5 1132.5,-463.5 1132.5,-143 1132.5,-50.19 1003.15,-25.1 920.28,-18.55"/>
<polygon fill="midnightblue" stroke="midnightblue" points="1072.92,-571.85 1068.31,-581.38 1077.86,-576.81 1072.92,-571.85"/>
</g>
<!-- Node3 -->
<g id="node3" class="node">
<title>Node3</title>
<g id="a_node3"><a xlink:href="csvm__factory_8hpp.html" target="_top" xlink:title="Factory function for constructing a new C&#45;SVM based on the provided plssvm::backend_type and potentia...">
<polygon fill="white" stroke="black" points="704,-67.5 704,-97.5 823,-97.5 823,-67.5 704,-67.5"/>
<text text-anchor="start" x="712" y="-85.5" font-family="Helvetica,sans-Serif" font-size="10.00">include/plssvm/csvm</text>
<text text-anchor="middle" x="763.5" y="-74.5" font-family="Helvetica,sans-Serif" font-size="10.00">_factory.hpp</text>
</a>
</g>
</g>
<!-- Node1&#45;&gt;Node3 -->
<g id="edge2" class="edge">
<title>Node1&#45;&gt;Node3</title>
<path fill="none" stroke="midnightblue" d="M1064.66,-572.33C1077.07,-546.51 1094.5,-503.16 1094.5,-463.5 1094.5,-463.5 1094.5,-463.5 1094.5,-327.5 1094.5,-290.31 1098.3,-275.39 1075.5,-246 1010.92,-162.76 891.71,-117.92 820.81,-97.52"/>
<polygon fill="midnightblue" stroke="midnightblue" points="1061.51,-570.81 1060.2,-581.32 1067.78,-573.92 1061.51,-570.81"/>
</g>
<!-- Node4 -->
<g id="node4" class="node">
<title>Node4</title>
<g id="a_node4"><a xlink:href="parser__predict_8hpp.html" target="_top" xlink:title="Implements a class encapsulating all necessary parameters for predicting using the C&#45;SVM possibly pro...">
<polygon fill="white" stroke="black" points="786.5,-514.5 786.5,-544.5 920.5,-544.5 920.5,-514.5 786.5,-514.5"/>
<text text-anchor="start" x="794.5" y="-532.5" font-family="Helvetica,sans-Serif" font-size="10.00">include/plssvm/detail</text>
<text text-anchor="middle" x="853.5" y="-521.5" font-family="Helvetica,sans-Serif" font-size="10.00">/cmd/parser_predict.hpp</text>
</a>
</g>
</g>
<!-- Node1&#45;&gt;Node4 -->
<g id="edge4" class="edge">
<title>Node1&#45;&gt;Node4</title>
<path fill="none" stroke="midnightblue" d="M999.62,-578.23C967.43,-567.71 926.83,-554.45 896.6,-544.58"/>
<polygon fill="midnightblue" stroke="midnightblue" points="998.73,-581.62 1009.32,-581.4 1000.9,-574.96 998.73,-581.62"/>
</g>
<!-- Node20 -->
<g id="node20" class="node">
<title>Node20</title>
<g id="a_node20"><a xlink:href="parser__train_8hpp.html" target="_top" xlink:title="Implements a class encapsulating all necessary parameters for training the C&#45;SVM possibly provided th...">
<polygon fill="white" stroke="black" points="939,-514.5 939,-544.5 1062,-544.5 1062,-514.5 939,-514.5"/>
<text text-anchor="start" x="947" y="-532.5" font-family="Helvetica,sans-Serif" font-size="10.00">include/plssvm/detail</text>
<text text-anchor="middle" x="1000.5" y="-521.5" font-family="Helvetica,sans-Serif" font-size="10.00">/cmd/parser_train.hpp</text>
</a>
</g>
</g>
<!-- Node1&#45;&gt;Node20 -->
<g id="edge37" class="edge">
<title>Node1&#45;&gt;Node20</title>
<path fill="none" stroke="midnightblue" d="M1034.86,-573.45C1027.22,-563.9 1018.5,-553 1011.76,-544.58"/>
<polygon fill="midnightblue" stroke="midnightblue" points="1032.24,-575.77 1041.22,-581.4 1037.7,-571.4 1032.24,-575.77"/>
</g>
<!-- Node3&#45;&gt;Node2 -->
<g id="edge3" class="edge">
<title>Node3&#45;&gt;Node2</title>
<path fill="none" stroke="midnightblue" d="M791.15,-61.31C807.86,-49.1 828.3,-34.18 840.85,-25.01"/>
<polygon fill="midnightblue" stroke="midnightblue" points="788.82,-58.67 782.81,-67.4 792.95,-64.32 788.82,-58.67"/>
</g>
<!-- Node5 -->
<g id="node5" class="node">
<title>Node5</title>
<g id="a_node5"><a xlink:href="data__set__variants_8hpp.html" target="_top" xlink:title="Implements utility functions to create a data set based on runtime parameters.">
<polygon fill="white" stroke="black" points="914.5,-246.5 914.5,-276.5 1066.5,-276.5 1066.5,-246.5 914.5,-246.5"/>
<text text-anchor="start" x="922.5" y="-264.5" font-family="Helvetica,sans-Serif" font-size="10.00">include/plssvm/detail</text>
<text text-anchor="middle" x="990.5" y="-253.5" font-family="Helvetica,sans-Serif" font-size="10.00">/cmd/data_set_variants.hpp</text>
</a>
</g>
</g>
<!-- Node4&#45;&gt;Node5 -->
<g id="edge5" class="edge">
<title>Node4&#45;&gt;Node5</title>
<path fill="none" stroke="midnightblue" d="M865.56,-505.08C893.31,-451.2 960.99,-319.79 983.26,-276.55"/>
<polygon fill="midnightblue" stroke="midnightblue" points="862.33,-503.71 860.87,-514.2 868.56,-506.91 862.33,-503.71"/>
</g>
<!-- Node6 -->
<g id="node6" class="node">
<title>Node6</title>
<g id="a_node6"><a xlink:href="performance__tracker_8hpp.html" target="_top" xlink:title="Defines a performance tracker which can dump performance information in a YAML file.">
<polygon fill="white" stroke="black" points="573,-447.5 573,-477.5 714,-477.5 714,-447.5 573,-447.5"/>
<text text-anchor="start" x="581" y="-465.5" font-family="Helvetica,sans-Serif" font-size="10.00">include/plssvm/detail</text>
<text text-anchor="middle" x="643.5" y="-454.5" font-family="Helvetica,sans-Serif" font-size="10.00">/performance_tracker.hpp</text>
</a>
</g>
</g>
<!-- Node4&#45;&gt;Node6 -->
<g id="edge6" class="edge">
<title>Node4&#45;&gt;Node6</title>
<path fill="none" stroke="midnightblue" d="M798.4,-511.44C764.36,-500.91 721.2,-487.55 689.09,-477.61"/>
<polygon fill="midnightblue" stroke="midnightblue" points="797.6,-514.86 808.19,-514.48 799.67,-508.18 797.6,-514.86"/>
</g>
<!-- Node7 -->
<g id="node7" class="node">
<title>Node7</title>
<g id="a_node7"><a xlink:href="gpu__csvm_8hpp.html" target="_top" xlink:title="Defines the base class for all C&#45;SVM backends using a GPU. Used for code duplication reduction.">
<polygon fill="white" stroke="black" points="318,-67.5 318,-97.5 457,-97.5 457,-67.5 318,-67.5"/>
<text text-anchor="start" x="326" y="-85.5" font-family="Helvetica,sans-Serif" font-size="10.00">include/plssvm/backends</text>
<text text-anchor="middle" x="387.5" y="-74.5" font-family="Helvetica,sans-Serif" font-size="10.00">/gpu_csvm.hpp</text>
</a>
</g>
</g>
<!-- Node6&#45;&gt;Node7 -->
<g id="edge7" class="edge">
<title>Node6&#45;&gt;Node7</title>
<path fill="none" stroke="midnightblue" d="M562.88,-447.3C460.92,-427 298.5,-385.82 298.5,-329.5 298.5,-329.5 298.5,-329.5 298.5,-199 298.5,-154.7 340.09,-116.99 366.41,-97.57"/>
<polygon fill="midnightblue" stroke="midnightblue" points="562.36,-450.76 572.85,-449.26 563.71,-443.9 562.36,-450.76"/>
</g>
<!-- Node13 -->
<g id="node13" class="node">
<title>Node13</title>
<g id="a_node13"><a xlink:href="csvm_8hpp.html" target="_top" xlink:title="Defines the base class for all C&#45;SVM backends and implements the functionality shared by all of them.">
<polygon fill="white" stroke="black" points="474.5,-134.5 474.5,-153.5 614.5,-153.5 614.5,-134.5 474.5,-134.5"/>
<text text-anchor="middle" x="544.5" y="-141.5" font-family="Helvetica,sans-Serif" font-size="10.00">include/plssvm/csvm.hpp</text>
</a>
</g>
</g>
<!-- Node6&#45;&gt;Node13 -->
<g id="edge13" class="edge">
<title>Node6&#45;&gt;Node13</title>
<path fill="none" stroke="midnightblue" d="M578.95,-444.02C558.9,-436.3 537.8,-425.57 521.5,-411 490.65,-383.43 476.5,-370.88 476.5,-329.5 476.5,-329.5 476.5,-329.5 476.5,-260.5 476.5,-214.89 516.36,-171.42 535.04,-153.54"/>
<polygon fill="midnightblue" stroke="midnightblue" points="577.78,-447.32 588.37,-447.46 580.18,-440.74 577.78,-447.32"/>
</g>
<!-- Node15 -->
<g id="node15" class="node">
<title>Node15</title>
<g id="a_node15"><a xlink:href="data__set_8hpp.html" target="_top" xlink:title="Implements a data set class encapsulating all data points, features, and potential labels.">
<polygon fill="white" stroke="black" points="657,-313.5 657,-343.5 772,-343.5 772,-313.5 657,-313.5"/>
<text text-anchor="start" x="665" y="-331.5" font-family="Helvetica,sans-Serif" font-size="10.00">include/plssvm/data</text>
<text text-anchor="middle" x="714.5" y="-320.5" font-family="Helvetica,sans-Serif" font-size="10.00">_set.hpp</text>
</a>
</g>
</g>
<!-- Node6&#45;&gt;Node15 -->
<g id="edge18" class="edge">
<title>Node6&#45;&gt;Node15</title>
<path fill="none" stroke="midnightblue" d="M655.88,-438.48C670.62,-411.07 694.77,-366.19 706.96,-343.52"/>
<polygon fill="midnightblue" stroke="midnightblue" points="652.75,-436.91 651.1,-447.37 658.92,-440.22 652.75,-436.91"/>
</g>
<!-- Node17 -->
<g id="node17" class="node">
<title>Node17</title>
<g id="a_node17"><a xlink:href="model_8hpp.html" target="_top" xlink:title="Implements a model class encapsulating the results of a SVM fit call.">
<polygon fill="white" stroke="black" points="642,-190.5 642,-209.5 787,-209.5 787,-190.5 642,-190.5"/>
<text text-anchor="middle" x="714.5" y="-197.5" font-family="Helvetica,sans-Serif" font-size="10.00">include/plssvm/model.hpp</text>
</a>
</g>
</g>
<!-- Node6&#45;&gt;Node17 -->
<g id="edge36" class="edge">
<title>Node6&#45;&gt;Node17</title>
<path fill="none" stroke="midnightblue" d="M674.75,-441.71C705.61,-420.76 752.3,-385.09 781.5,-344 800,-317.96 801.62,-308.4 807.5,-277 810.04,-263.46 814.82,-257.67 807.5,-246 795.68,-227.16 773.5,-216.01 753.75,-209.52"/>
<polygon fill="midnightblue" stroke="midnightblue" points="672.49,-439.01 666.11,-447.47 676.37,-444.84 672.49,-439.01"/>
</g>
<!-- Node18 -->
<g id="node18" class="node">
<title>Node18</title>
<g id="a_node18"><a xlink:href="layout_8hpp.html" target="_top" xlink:title="Defines functions to convert 2D vectors to 1D SoA or AoS vectors.">
<polygon fill="white" stroke="black" points="327,-313.5 327,-343.5 448,-343.5 448,-313.5 327,-313.5"/>
<text text-anchor="start" x="335" y="-331.5" font-family="Helvetica,sans-Serif" font-size="10.00">include/plssvm/detail</text>
<text text-anchor="middle" x="387.5" y="-320.5" font-family="Helvetica,sans-Serif" font-size="10.00">/layout.hpp</text>
</a>
</g>
</g>
<!-- Node6&#45;&gt;Node18 -->
<g id="edge27" class="edge">
<title>Node6&#45;&gt;Node18</title>
<path fill="none" stroke="midnightblue" d="M562.77,-448.99C529.97,-441.43 492.76,-429.53 462.5,-411 433.8,-393.43 409.29,-361.79 396.66,-343.54"/>
<polygon fill="midnightblue" stroke="midnightblue" points="562.27,-452.46 572.79,-451.2 563.78,-445.63 562.27,-452.46"/>
</g>
<!-- Node19 -->
<g id="node19" class="node">
<title>Node19</title>
<g id="a_node19"><a xlink:href="logger_8hpp.html" target="_top" xlink:title="Defines a simple logging function.">
<polygon fill="white" stroke="black" points="530,-380.5 530,-410.5 651,-410.5 651,-380.5 530,-380.5"/>
<text text-anchor="start" x="538" y="-398.5" font-family="Helvetica,sans-Serif" font-size="10.00">include/plssvm/detail</text>
<text text-anchor="middle" x="590.5" y="-387.5" font-family="Helvetica,sans-Serif" font-size="10.00">/logger.hpp</text>
</a>
</g>
</g>
<!-- Node6&#45;&gt;Node19 -->
<g id="edge29" class="edge">
<title>Node6&#45;&gt;Node19</title>
<path fill="none" stroke="midnightblue" d="M625.52,-439.45C617.73,-429.9 608.85,-419 601.98,-410.58"/>
<polygon fill="midnightblue" stroke="midnightblue" points="622.97,-441.86 632,-447.4 628.39,-437.43 622.97,-441.86"/>
</g>
<!-- Node8 -->
<g id="node8" class="node">
<title>Node8</title>
<g id="a_node8"><a xlink:href="backends_2CUDA_2csvm_8hpp.html" target="_top" xlink:title="Defines a C&#45;SVM using the CUDA backend.">
<polygon fill="white" stroke="black" points="471,-0.5 471,-30.5 610,-30.5 610,-0.5 471,-0.5"/>
<text text-anchor="start" x="479" y="-18.5" font-family="Helvetica,sans-Serif" font-size="10.00">include/plssvm/backends</text>
<text text-anchor="middle" x="540.5" y="-7.5" font-family="Helvetica,sans-Serif" font-size="10.00">/CUDA/csvm.hpp</text>
</a>
</g>
</g>
<!-- Node7&#45;&gt;Node8 -->
<g id="edge8" class="edge">
<title>Node7&#45;&gt;Node8</title>
<path fill="none" stroke="midnightblue" d="M430.09,-63.41C454.52,-53.03 484.72,-40.2 507.37,-30.58"/>
<polygon fill="midnightblue" stroke="midnightblue" points="428.53,-60.26 420.7,-67.4 431.27,-66.71 428.53,-60.26"/>
</g>
<!-- Node9 -->
<g id="node9" class="node">
<title>Node9</title>
<g id="a_node9"><a xlink:href="backends_2HIP_2csvm_8hpp.html" target="_top" xlink:title="Defines a C&#45;SVM using the HIP backend.">
<polygon fill="white" stroke="black" points="628,-0.5 628,-30.5 767,-30.5 767,-0.5 628,-0.5"/>
<text text-anchor="start" x="636" y="-18.5" font-family="Helvetica,sans-Serif" font-size="10.00">include/plssvm/backends</text>
<text text-anchor="middle" x="697.5" y="-7.5" font-family="Helvetica,sans-Serif" font-size="10.00">/HIP/csvm.hpp</text>
</a>
</g>
</g>
<!-- Node7&#45;&gt;Node9 -->
<g id="edge9" class="edge">
<title>Node7&#45;&gt;Node9</title>
<path fill="none" stroke="midnightblue" d="M464.37,-65.38C515.36,-54.69 581.63,-40.8 630.47,-30.55"/>
<polygon fill="midnightblue" stroke="midnightblue" points="463.45,-62 454.38,-67.48 464.89,-68.85 463.45,-62"/>
</g>
<!-- Node10 -->
<g id="node10" class="node">
<title>Node10</title>
<g id="a_node10"><a xlink:href="backends_2OpenCL_2csvm_8hpp.html" target="_top" xlink:title="Defines a C&#45;SVM using the OpenCL backend.">
<polygon fill="white" stroke="black" points="0,-0.5 0,-30.5 139,-30.5 139,-0.5 0,-0.5"/>
<text text-anchor="start" x="8" y="-18.5" font-family="Helvetica,sans-Serif" font-size="10.00">include/plssvm/backends</text>
<text text-anchor="middle" x="69.5" y="-7.5" font-family="Helvetica,sans-Serif" font-size="10.00">/OpenCL/csvm.hpp</text>
</a>
</g>
</g>
<!-- Node7&#45;&gt;Node10 -->
<g id="edge10" class="edge">
<title>Node7&#45;&gt;Node10</title>
<path fill="none" stroke="midnightblue" d="M308.97,-65.45C256.62,-54.75 188.47,-40.82 138.26,-30.55"/>
<polygon fill="midnightblue" stroke="midnightblue" points="308.39,-68.9 318.89,-67.48 309.79,-62.04 308.39,-68.9"/>
</g>
<!-- Node11 -->
<g id="node11" class="node">
<title>Node11</title>
<g id="a_node11"><a xlink:href="backends_2SYCL_2hipSYCL_2csvm_8hpp.html" target="_top" xlink:title="Defines a base C&#45;SVM used for the different SYCL backends using hipSYCL as SYCL implementation.">
<polygon fill="white" stroke="black" points="157,-0.5 157,-30.5 296,-30.5 296,-0.5 157,-0.5"/>
<text text-anchor="start" x="165" y="-18.5" font-family="Helvetica,sans-Serif" font-size="10.00">include/plssvm/backends</text>
<text text-anchor="middle" x="226.5" y="-7.5" font-family="Helvetica,sans-Serif" font-size="10.00">/SYCL/hipSYCL/csvm.hpp</text>
</a>
</g>
</g>
<!-- Node7&#45;&gt;Node11 -->
<g id="edge11" class="edge">
<title>Node7&#45;&gt;Node11</title>
<path fill="none" stroke="midnightblue" d="M343.02,-63.54C317.26,-53.14 285.3,-40.24 261.37,-30.58"/>
<polygon fill="midnightblue" stroke="midnightblue" points="341.98,-66.9 352.57,-67.4 344.6,-60.41 341.98,-66.9"/>
</g>
<!-- Node12 -->
<g id="node12" class="node">
<title>Node12</title>
<g id="a_node12"><a xlink:href="backends_2SYCL_2DPCPP_2csvm_8hpp.html" target="_top" xlink:title="Defines a base C&#45;SVM used for the different SYCL backends using DPC++ as SYCL implementation.">
<polygon fill="white" stroke="black" points="314,-0.5 314,-30.5 453,-30.5 453,-0.5 314,-0.5"/>
<text text-anchor="start" x="322" y="-18.5" font-family="Helvetica,sans-Serif" font-size="10.00">include/plssvm/backends</text>
<text text-anchor="middle" x="383.5" y="-7.5" font-family="Helvetica,sans-Serif" font-size="10.00">/SYCL/DPCPP/csvm.hpp</text>
</a>
</g>
</g>
<!-- Node7&#45;&gt;Node12 -->
<g id="edge12" class="edge">
<title>Node7&#45;&gt;Node12</title>
<path fill="none" stroke="midnightblue" d="M386.02,-57.4C385.46,-48.37 384.85,-38.41 384.37,-30.58"/>
<polygon fill="midnightblue" stroke="midnightblue" points="382.52,-57.63 386.63,-67.4 389.51,-57.2 382.52,-57.63"/>
</g>
<!-- Node13&#45;&gt;Node2 -->
<g id="edge16" class="edge">
<title>Node13&#45;&gt;Node2</title>
<path fill="none" stroke="midnightblue" d="M536.46,-124.87C530.3,-107.88 524.92,-82.79 538.5,-67 573.38,-26.45 723.77,-40.01 776.5,-31 787.09,-29.19 798.49,-27.09 809.15,-25.07"/>
<polygon fill="midnightblue" stroke="midnightblue" points="533.26,-126.28 540.24,-134.25 539.75,-123.67 533.26,-126.28"/>
</g>
<!-- Node13&#45;&gt;Node3 -->
<g id="edge17" class="edge">
<title>Node13&#45;&gt;Node3</title>
<path fill="none" stroke="midnightblue" d="M585.97,-131.73C621.71,-122.02 673.47,-107.96 711.89,-97.52"/>
<polygon fill="midnightblue" stroke="midnightblue" points="584.61,-128.48 575.88,-134.48 586.45,-135.23 584.61,-128.48"/>
</g>
<!-- Node13&#45;&gt;Node7 -->
<g id="edge14" class="edge">
<title>Node13&#45;&gt;Node7</title>
<path fill="none" stroke="midnightblue" d="M512.43,-130.85C486.93,-121.18 451.22,-107.65 424.5,-97.52"/>
<polygon fill="midnightblue" stroke="midnightblue" points="511.41,-134.2 522.01,-134.48 513.9,-127.66 511.41,-134.2"/>
</g>
<!-- Node14 -->
<g id="node14" class="node">
<title>Node14</title>
<g id="a_node14"><a xlink:href="backends_2OpenMP_2csvm_8hpp.html" target="_top" xlink:title="Defines a C&#45;SVM using the OpenMP backend.">
<polygon fill="white" stroke="black" points="547,-67.5 547,-97.5 686,-97.5 686,-67.5 547,-67.5"/>
<text text-anchor="start" x="555" y="-85.5" font-family="Helvetica,sans-Serif" font-size="10.00">include/plssvm/backends</text>
<text text-anchor="middle" x="616.5" y="-74.5" font-family="Helvetica,sans-Serif" font-size="10.00">/OpenMP/csvm.hpp</text>
</a>
</g>
</g>
<!-- Node13&#45;&gt;Node14 -->
<g id="edge15" class="edge">
<title>Node13&#45;&gt;Node14</title>
<path fill="none" stroke="midnightblue" d="M562.75,-127.92C574.05,-118.58 588.47,-106.66 599.53,-97.52"/>
<polygon fill="midnightblue" stroke="midnightblue" points="560.29,-125.41 554.82,-134.48 564.75,-130.8 560.29,-125.41"/>
</g>
<!-- Node15&#45;&gt;Node2 -->
<g id="edge19" class="edge">
<title>Node15&#45;&gt;Node2</title>
<path fill="none" stroke="midnightblue" d="M766.18,-308.92C781.43,-301.17 796.87,-290.7 807.5,-277 869.67,-196.86 858.04,-60.95 853.69,-25.28"/>
<polygon fill="midnightblue" stroke="midnightblue" points="764.28,-305.95 756.75,-313.4 767.28,-312.27 764.28,-305.95"/>
</g>
<!-- Node15&#45;&gt;Node5 -->
<g id="edge21" class="edge">
<title>Node15&#45;&gt;Node5</title>
<path fill="none" stroke="midnightblue" d="M781.8,-311.65C827.29,-300.94 886.83,-286.92 930.67,-276.59"/>
<polygon fill="midnightblue" stroke="midnightblue" points="780.95,-308.25 772.02,-313.95 782.56,-315.07 780.95,-308.25"/>
</g>
<!-- Node15&#45;&gt;Node13 -->
<g id="edge20" class="edge">
<title>Node15&#45;&gt;Node13</title>
<path fill="none" stroke="midnightblue" d="M660.7,-309.41C643.12,-301.53 624.53,-290.87 610.5,-277 572.78,-239.72 552.91,-176.42 546.68,-153.56"/>
<polygon fill="midnightblue" stroke="midnightblue" points="659.75,-312.81 670.33,-313.5 662.49,-306.37 659.75,-312.81"/>
</g>
<!-- Node16 -->
<g id="node16" class="node">
<title>Node16</title>
<g id="a_node16"><a xlink:href="libsvm__model__parsing_8hpp.html" target="_top" xlink:title="Implements parsing functions for the LIBSVM model file.">
<polygon fill="white" stroke="black" points="619,-246.5 619,-276.5 782,-276.5 782,-246.5 619,-246.5"/>
<text text-anchor="start" x="627" y="-264.5" font-family="Helvetica,sans-Serif" font-size="10.00">include/plssvm/detail</text>
<text text-anchor="middle" x="700.5" y="-253.5" font-family="Helvetica,sans-Serif" font-size="10.00">/io/libsvm_model_parsing.hpp</text>
</a>
</g>
</g>
<!-- Node15&#45;&gt;Node16 -->
<g id="edge22" class="edge">
<title>Node15&#45;&gt;Node16</title>
<path fill="none" stroke="midnightblue" d="M709.31,-303.4C707.36,-294.37 705.22,-284.41 703.53,-276.58"/>
<polygon fill="midnightblue" stroke="midnightblue" points="705.94,-304.36 711.46,-313.4 712.78,-302.88 705.94,-304.36"/>
</g>
<!-- Node15&#45;&gt;Node17 -->
<g id="edge26" class="edge">
<title>Node15&#45;&gt;Node17</title>
<path fill="none" stroke="midnightblue" d="M759.3,-308.37C772.02,-300.6 784.34,-290.26 791.5,-277 798.05,-264.88 798.36,-257.95 791.5,-246 781.1,-227.87 760.25,-216.35 742.87,-209.51"/>
<polygon fill="midnightblue" stroke="midnightblue" points="757.48,-305.38 750.49,-313.35 760.92,-311.48 757.48,-305.38"/>
</g>
<!-- Node16&#45;&gt;Node17 -->
<g id="edge23" class="edge">
<title>Node16&#45;&gt;Node17</title>
<path fill="none" stroke="midnightblue" d="M706.13,-236.59C708.36,-227.08 710.8,-216.73 712.46,-209.66"/>
<polygon fill="midnightblue" stroke="midnightblue" points="702.7,-235.86 703.82,-246.4 709.52,-237.47 702.7,-235.86"/>
</g>
<!-- Node17&#45;&gt;Node2 -->
<g id="edge24" class="edge">
<title>Node17&#45;&gt;Node2</title>
<path fill="none" stroke="midnightblue" d="M738.68,-184.86C765.73,-167.75 808.86,-136.41 832.5,-98 847.09,-74.3 851.04,-40.6 852.11,-25.01"/>
<polygon fill="midnightblue" stroke="midnightblue" points="736.51,-182.08 729.84,-190.3 740.19,-188.04 736.51,-182.08"/>
</g>
<!-- Node17&#45;&gt;Node13 -->
<g id="edge25" class="edge">
<title>Node17&#45;&gt;Node13</title>
<path fill="none" stroke="midnightblue" d="M677.68,-187.3C645.65,-177.13 599.98,-162.62 571.31,-153.52"/>
<polygon fill="midnightblue" stroke="midnightblue" points="676.97,-190.75 687.56,-190.44 679.09,-184.08 676.97,-190.75"/>
</g>
<!-- Node18&#45;&gt;Node7 -->
<g id="edge28" class="edge">
<title>Node18&#45;&gt;Node7</title>
<path fill="none" stroke="midnightblue" d="M387.5,-303.01C387.5,-252.44 387.5,-137.85 387.5,-97.71"/>
<polygon fill="midnightblue" stroke="midnightblue" points="384,-303.33 387.5,-313.33 391,-303.33 384,-303.33"/>
</g>
<!-- Node19&#45;&gt;Node7 -->
<g id="edge30" class="edge">
<title>Node19&#45;&gt;Node7</title>
<path fill="none" stroke="midnightblue" d="M575.72,-371.86C536.23,-311.36 429.06,-147.16 396.8,-97.75"/>
<polygon fill="midnightblue" stroke="midnightblue" points="572.85,-373.87 581.25,-380.33 578.71,-370.04 572.85,-373.87"/>
</g>
<!-- Node19&#45;&gt;Node13 -->
<g id="edge31" class="edge">
<title>Node19&#45;&gt;Node13</title>
<path fill="none" stroke="midnightblue" d="M585.72,-370.47C584.06,-362.09 582.19,-352.63 580.5,-344 568.83,-284.47 564.89,-269.77 554.5,-210 551.02,-189.98 547.54,-166.37 545.75,-153.85"/>
<polygon fill="midnightblue" stroke="midnightblue" points="582.3,-371.23 587.68,-380.35 589.17,-369.86 582.3,-371.23"/>
</g>
<!-- Node19&#45;&gt;Node15 -->
<g id="edge32" class="edge">
<title>Node19&#45;&gt;Node15</title>
<path fill="none" stroke="midnightblue" d="M626.34,-375.71C645.89,-365.46 669.7,-352.98 687.65,-343.58"/>
<polygon fill="midnightblue" stroke="midnightblue" points="624.64,-372.65 617.41,-380.4 627.89,-378.85 624.64,-372.65"/>
</g>
<!-- Node19&#45;&gt;Node16 -->
<g id="edge33" class="edge">
<title>Node19&#45;&gt;Node16</title>
<path fill="none" stroke="midnightblue" d="M605.07,-371.75C616.22,-354.93 632.37,-331.79 648.5,-313 659.65,-300.01 673.63,-286.57 684.28,-276.82"/>
<polygon fill="midnightblue" stroke="midnightblue" points="601.97,-370.09 599.42,-380.38 607.83,-373.93 601.97,-370.09"/>
</g>
<!-- Node19&#45;&gt;Node17 -->
<g id="edge35" class="edge">
<title>Node19&#45;&gt;Node17</title>
<path fill="none" stroke="midnightblue" d="M586.95,-369.9C583.76,-338 583.11,-282.17 610.5,-246 624.87,-227.02 648.89,-215.93 670.23,-209.51"/>
<polygon fill="midnightblue" stroke="midnightblue" points="583.51,-370.59 588.15,-380.11 590.46,-369.77 583.51,-370.59"/>
</g>
<!-- Node19&#45;&gt;Node18 -->
<g id="edge34" class="edge">
<title>Node19&#45;&gt;Node18</title>
<path fill="none" stroke="midnightblue" d="M536.56,-377.23C503.72,-366.71 462.3,-353.45 431.46,-343.58"/>
<polygon fill="midnightblue" stroke="midnightblue" points="535.86,-380.68 546.45,-380.4 538,-374.01 535.86,-380.68"/>
</g>
<!-- Node20&#45;&gt;Node5 -->
<g id="edge38" class="edge">
<title>Node20&#45;&gt;Node5</title>
<path fill="none" stroke="midnightblue" d="M999.58,-504.07C997.53,-449.57 992.64,-319.52 991.03,-276.55"/>
<polygon fill="midnightblue" stroke="midnightblue" points="996.09,-504.34 999.96,-514.2 1003.08,-504.07 996.09,-504.34"/>
</g>
<!-- Node20&#45;&gt;Node6 -->
<g id="edge39" class="edge">
<title>Node20&#45;&gt;Node6</title>
<path fill="none" stroke="midnightblue" d="M928.76,-513.89C849.34,-498.85 769.68,-484.94 714.12,-475.43"/>
<polygon fill="midnightblue" stroke="midnightblue" points="928.47,-517.4 938.95,-515.82 929.78,-510.52 928.47,-517.4"/>
</g>
</g>
</svg>
