<?xml version="1.0" encoding="UTF-8" standalone="no"?>
<!DOCTYPE svg PUBLIC "-//W3C//DTD SVG 1.1//EN"
 "http://www.w3.org/Graphics/SVG/1.1/DTD/svg11.dtd">
<!-- Generated by graphviz version 2.43.0 (0)
 -->
<!-- Title: plssvm::opencl::csvm Pages: 1 -->
<svg width="151pt" height="253pt"
 viewBox="0.00 0.00 151.00 253.00" xmlns="http://www.w3.org/2000/svg" xmlns:xlink="http://www.w3.org/1999/xlink">
<g id="graph0" class="graph" transform="scale(1 1) rotate(0) translate(4 249)">
<title>plssvm::opencl::csvm</title>
<polygon fill="white" stroke="transparent" points="-4,4 -4,-249 147,-249 147,4 -4,4"/>
<!-- Node1 -->
<g id="node1" class="node">
<title>Node1</title>
<g id="a_node1"><a xlink:title="A C&#45;SVM implementation using OpenCL as backend.">
<polygon fill="#bfbfbf" stroke="black" points="10.5,-0.5 10.5,-19.5 132.5,-19.5 132.5,-0.5 10.5,-0.5"/>
<text text-anchor="middle" x="71.5" y="-7.5" font-family="Helvetica,sans-Serif" font-size="10.00">plssvm::opencl::csvm</text>
</a>
</g>
</g>
<!-- Node2 -->
<g id="node2" class="node">
<title>Node2</title>
<g id="a_node2"><a xlink:href="classplssvm_1_1detail_1_1gpu__csvm.html" target="_top" xlink:title=" ">
<polygon fill="white" stroke="black" points="9,-57.5 9,-109.5 134,-109.5 134,-57.5 9,-57.5"/>
<text text-anchor="start" x="17" y="-97.5" font-family="Helvetica,sans-Serif" font-size="10.00">plssvm::detail::gpu</text>
<text text-anchor="start" x="17" y="-86.5" font-family="Helvetica,sans-Serif" font-size="10.00">_csvm&lt; detail::device</text>
<text text-anchor="start" x="17" y="-75.5" font-family="Helvetica,sans-Serif" font-size="10.00">_ptr, detail::command</text>
<text text-anchor="middle" x="71.5" y="-64.5" font-family="Helvetica,sans-Serif" font-size="10.00">_queue &gt;</text>
</a>
</g>
</g>
<!-- Node2&#45;&gt;Node1 -->
<g id="edge1" class="edge">
<title>Node2&#45;&gt;Node1</title>
<path fill="none" stroke="midnightblue" d="M71.5,-47.31C71.5,-36.98 71.5,-26.58 71.5,-19.58"/>
<polygon fill="midnightblue" stroke="midnightblue" points="68,-47.49 71.5,-57.49 75,-47.49 68,-47.49"/>
</g>
<!-- Node3 -->
<g id="node3" class="node">
<title>Node3</title>
<g id="a_node3"><a xlink:href="classplssvm_1_1csvm.html" target="_top" xlink:title="Base class for all C&#45;SVM backends.">
<polygon fill="white" stroke="black" points="29.5,-147.5 29.5,-166.5 113.5,-166.5 113.5,-147.5 29.5,-147.5"/>
<text text-anchor="middle" x="71.5" y="-154.5" font-family="Helvetica,sans-Serif" font-size="10.00">plssvm::csvm</text>
</a>
</g>
</g>
<!-- Node3&#45;&gt;Node2 -->
<g id="edge2" class="edge">
<title>Node3&#45;&gt;Node2</title>
<path fill="none" stroke="midnightblue" d="M71.5,-137.02C71.5,-128.63 71.5,-118.64 71.5,-109.65"/>
<polygon fill="midnightblue" stroke="midnightblue" points="68,-137.23 71.5,-147.23 75,-137.23 68,-137.23"/>
</g>
<!-- Node4 -->
<g id="node4" class="node">
<title>Node4</title>
<g id="a_node4"><a xlink:href="structplssvm_1_1detail_1_1parameter.html" target="_top" xlink:title=" ">
<polygon fill="white" stroke="black" points="0,-214.5 0,-244.5 143,-244.5 143,-214.5 0,-214.5"/>
<text text-anchor="start" x="8" y="-232.5" font-family="Helvetica,sans-Serif" font-size="10.00">plssvm::detail::parameter</text>
<text text-anchor="middle" x="71.5" y="-221.5" font-family="Helvetica,sans-Serif" font-size="10.00">&lt; double &gt;</text>
</a>
</g>
</g>
<!-- Node4&#45;&gt;Node3 -->
<g id="edge3" class="edge">
<title>Node4&#45;&gt;Node3</title>
<path fill="none" stroke="#9a32cd" stroke-dasharray="5,2" d="M71.5,-204.09C71.5,-191.21 71.5,-176.2 71.5,-166.89"/>
<polygon fill="#9a32cd" stroke="#9a32cd" points="68,-204.23 71.5,-214.23 75,-204.23 68,-204.23"/>
<text text-anchor="middle" x="94.5" y="-188" font-family="Helvetica,sans-Serif" font-size="10.00"> params_</text>
</g>
</g>
</svg>
