<?xml version="1.0" encoding="UTF-8" standalone="no"?>
<!DOCTYPE svg PUBLIC "-//W3C//DTD SVG 1.1//EN"
 "http://www.w3.org/Graphics/SVG/1.1/DTD/svg11.dtd">
<!-- Generated by graphviz version 2.43.0 (0)
 -->
<!-- Title: plssvm::opencl::detail::device_ptr&lt; T &gt; Pages: 1 -->
<svg width="176pt" height="117pt"
 viewBox="0.00 0.00 176.00 117.00" xmlns="http://www.w3.org/2000/svg" xmlns:xlink="http://www.w3.org/1999/xlink">
<g id="graph0" class="graph" transform="scale(1 1) rotate(0) translate(4 113)">
<title>plssvm::opencl::detail::device_ptr&lt; T &gt;</title>
<polygon fill="white" stroke="transparent" points="-4,4 -4,-113 172,-113 172,4 -4,4"/>
<!-- Node1 -->
<g id="node1" class="node">
<title>Node1</title>
<g id="a_node1"><a xlink:title="Small wrapper class around an OpenCL device pointer together with commonly used device functions.">
<polygon fill="#bfbfbf" stroke="black" points="22,-0.5 22,-30.5 146,-30.5 146,-0.5 22,-0.5"/>
<text text-anchor="start" x="30" y="-18.5" font-family="Helvetica,sans-Serif" font-size="10.00">plssvm::opencl::detail</text>
<text text-anchor="middle" x="84" y="-7.5" font-family="Helvetica,sans-Serif" font-size="10.00">::device_ptr&lt; T &gt;</text>
</a>
</g>
</g>
<!-- Node2 -->
<g id="node2" class="node">
<title>Node2</title>
<g id="a_node2"><a xlink:href="classplssvm_1_1detail_1_1gpu__device__ptr.html" target="_top" xlink:title=" ">
<polygon fill="white" stroke="black" points="0,-67.5 0,-108.5 168,-108.5 168,-67.5 0,-67.5"/>
<text text-anchor="start" x="8" y="-96.5" font-family="Helvetica,sans-Serif" font-size="10.00">plssvm::detail::gpu</text>
<text text-anchor="start" x="8" y="-85.5" font-family="Helvetica,sans-Serif" font-size="10.00">_device_ptr&lt; T, const</text>
<text text-anchor="middle" x="84" y="-74.5" font-family="Helvetica,sans-Serif" font-size="10.00"> command_queue *, cl_mem &gt;</text>
</a>
</g>
</g>
<!-- Node2&#45;&gt;Node1 -->
<g id="edge1" class="edge">
<title>Node2&#45;&gt;Node1</title>
<path fill="none" stroke="midnightblue" d="M84,-57.08C84,-48.01 84,-38.45 84,-30.89"/>
<polygon fill="midnightblue" stroke="midnightblue" points="80.5,-57.36 84,-67.36 87.5,-57.36 80.5,-57.36"/>
</g>
</g>
</svg>
