<?xml version="1.0" encoding="UTF-8" standalone="no"?>
<!DOCTYPE svg PUBLIC "-//W3C//DTD SVG 1.1//EN"
 "http://www.w3.org/Graphics/SVG/1.1/DTD/svg11.dtd">
<!-- Generated by graphviz version 2.43.0 (0)
 -->
<!-- Title: plssvm::hipsycl::backend_exception Pages: 1 -->
<svg width="264pt" height="231pt"
 viewBox="0.00 0.00 264.00 231.00" xmlns="http://www.w3.org/2000/svg" xmlns:xlink="http://www.w3.org/1999/xlink">
<g id="graph0" class="graph" transform="scale(1 1) rotate(0) translate(4 227)">
<title>plssvm::hipsycl::backend_exception</title>
<polygon fill="white" stroke="transparent" points="-4,4 -4,-227 260,-227 260,4 -4,4"/>
<!-- Node1 -->
<g id="node1" class="node">
<title>Node1</title>
<g id="a_node1"><a xlink:title="Exception type thrown if a problem with the hipSYCL SYCL backend occurs.">
<polygon fill="#bfbfbf" stroke="black" points="50.5,-0.5 50.5,-30.5 189.5,-30.5 189.5,-0.5 50.5,-0.5"/>
<text text-anchor="start" x="58.5" y="-18.5" font-family="Helvetica,sans-Serif" font-size="10.00">plssvm::hipsycl::backend</text>
<text text-anchor="middle" x="120" y="-7.5" font-family="Helvetica,sans-Serif" font-size="10.00">_exception</text>
</a>
</g>
</g>
<!-- Node2 -->
<g id="node2" class="node">
<title>Node2</title>
<g id="a_node2"><a xlink:href="classplssvm_1_1sycl_1_1backend__exception.html" target="_top" xlink:title="Exception type thrown if a problem with the SYCL backend occurs.">
<polygon fill="white" stroke="black" points="58,-68.5 58,-98.5 182,-98.5 182,-68.5 58,-68.5"/>
<text text-anchor="start" x="66" y="-86.5" font-family="Helvetica,sans-Serif" font-size="10.00">plssvm::sycl::backend</text>
<text text-anchor="middle" x="120" y="-75.5" font-family="Helvetica,sans-Serif" font-size="10.00">_exception</text>
</a>
</g>
</g>
<!-- Node2&#45;&gt;Node1 -->
<g id="edge1" class="edge">
<title>Node2&#45;&gt;Node1</title>
<path fill="none" stroke="midnightblue" d="M120,-58.03C120,-48.86 120,-38.74 120,-30.79"/>
<polygon fill="midnightblue" stroke="midnightblue" points="116.5,-58.18 120,-68.18 123.5,-58.18 116.5,-58.18"/>
</g>
<!-- Node3 -->
<g id="node3" class="node">
<title>Node3</title>
<g id="a_node3"><a xlink:href="classplssvm_1_1exception.html" target="_top" xlink:title="Base class for all custom exception types. Forwards its message to std::runtime_error and saves the e...">
<polygon fill="white" stroke="black" points="67,-136.5 67,-155.5 173,-155.5 173,-136.5 67,-136.5"/>
<text text-anchor="middle" x="120" y="-143.5" font-family="Helvetica,sans-Serif" font-size="10.00">plssvm::exception</text>
</a>
</g>
</g>
<!-- Node3&#45;&gt;Node2 -->
<g id="edge2" class="edge">
<title>Node3&#45;&gt;Node2</title>
<path fill="none" stroke="midnightblue" d="M120,-126.22C120,-117.36 120,-106.96 120,-98.76"/>
<polygon fill="midnightblue" stroke="midnightblue" points="116.5,-126.33 120,-136.33 123.5,-126.33 116.5,-126.33"/>
</g>
<!-- Node4 -->
<g id="node4" class="node">
<title>Node4</title>
<g id="a_node4"><a xlink:title=" ">
<polygon fill="white" stroke="#bfbfbf" points="0,-203.5 0,-222.5 104,-222.5 104,-203.5 0,-203.5"/>
<text text-anchor="middle" x="52" y="-210.5" font-family="Helvetica,sans-Serif" font-size="10.00">std::runtime_error</text>
</a>
</g>
</g>
<!-- Node4&#45;&gt;Node3 -->
<g id="edge3" class="edge">
<title>Node4&#45;&gt;Node3</title>
<path fill="none" stroke="midnightblue" d="M68.74,-196C82.08,-183.25 100.23,-165.89 110.97,-155.63"/>
<polygon fill="midnightblue" stroke="midnightblue" points="65.98,-193.79 61.17,-203.23 70.82,-198.85 65.98,-193.79"/>
</g>
<!-- Node5 -->
<g id="node5" class="node">
<title>Node5</title>
<g id="a_node5"><a xlink:href="classplssvm_1_1source__location.html" target="_top" xlink:title="The plssvm::source_location class represents certain information about the source code,...">
<polygon fill="white" stroke="black" points="122,-203.5 122,-222.5 256,-222.5 256,-203.5 122,-203.5"/>
<text text-anchor="middle" x="189" y="-210.5" font-family="Helvetica,sans-Serif" font-size="10.00">plssvm::source_location</text>
</a>
</g>
</g>
<!-- Node5&#45;&gt;Node3 -->
<g id="edge4" class="edge">
<title>Node5&#45;&gt;Node3</title>
<path fill="none" stroke="#9a32cd" stroke-dasharray="5,2" d="M172.39,-196.36C158.83,-183.58 140.16,-165.99 129.16,-155.63"/>
<polygon fill="#9a32cd" stroke="#9a32cd" points="170.02,-198.92 179.69,-203.23 174.82,-193.83 170.02,-198.92"/>
<text text-anchor="middle" x="169.5" y="-177" font-family="Helvetica,sans-Serif" font-size="10.00"> loc_</text>
</g>
</g>
</svg>
