<?xml version="1.0" encoding="UTF-8" standalone="no"?>
<!DOCTYPE svg PUBLIC "-//W3C//DTD SVG 1.1//EN"
 "http://www.w3.org/Graphics/SVG/1.1/DTD/svg11.dtd">
<!-- Generated by graphviz version 2.43.0 (0)
 -->
<!-- Title: plssvm::file_not_found_exception Pages: 1 -->
<svg width="135pt" height="151pt"
 viewBox="0.00 0.00 135.00 151.00" xmlns="http://www.w3.org/2000/svg" xmlns:xlink="http://www.w3.org/1999/xlink">
<g id="graph0" class="graph" transform="scale(1 1) rotate(0) translate(4 147)">
<title>plssvm::file_not_found_exception</title>
<polygon fill="white" stroke="transparent" points="-4,4 -4,-147 131,-147 131,4 -4,4"/>
<!-- Node1 -->
<g id="node1" class="node">
<title>Node1</title>
<g id="a_node1"><a xlink:title="Exception type thrown if the provided file couldn&#39;t be found.">
<polygon fill="#bfbfbf" stroke="black" points="0,-0.5 0,-30.5 127,-30.5 127,-0.5 0,-0.5"/>
<text text-anchor="start" x="8" y="-18.5" font-family="Helvetica,sans-Serif" font-size="10.00">plssvm::file_not_found</text>
<text text-anchor="middle" x="63.5" y="-7.5" font-family="Helvetica,sans-Serif" font-size="10.00">_exception</text>
</a>
</g>
</g>
<!-- Node2 -->
<g id="node2" class="node">
<title>Node2</title>
<g id="a_node2"><a xlink:href="classplssvm_1_1exception.html" target="_top" xlink:title="Base class for all custom exception types. Forwards its message to std::runtime_error and saves the e...">
<polygon fill="white" stroke="black" points="10.5,-67.5 10.5,-86.5 116.5,-86.5 116.5,-67.5 10.5,-67.5"/>
<text text-anchor="middle" x="63.5" y="-74.5" font-family="Helvetica,sans-Serif" font-size="10.00">plssvm::exception</text>
</a>
</g>
</g>
<!-- Node2&#45;&gt;Node1 -->
<g id="edge1" class="edge">
<title>Node2&#45;&gt;Node1</title>
<path fill="none" stroke="midnightblue" d="M63.5,-57.23C63.5,-48.59 63.5,-38.5 63.5,-30.52"/>
<polygon fill="midnightblue" stroke="midnightblue" points="60,-57.48 63.5,-67.48 67,-57.48 60,-57.48"/>
</g>
<!-- Node3 -->
<g id="node3" class="node">
<title>Node3</title>
<g id="a_node3"><a xlink:title=" ">
<polygon fill="white" stroke="#bfbfbf" points="11.5,-123.5 11.5,-142.5 115.5,-142.5 115.5,-123.5 11.5,-123.5"/>
<text text-anchor="middle" x="63.5" y="-130.5" font-family="Helvetica,sans-Serif" font-size="10.00">std::runtime_error</text>
</a>
</g>
</g>
<!-- Node3&#45;&gt;Node2 -->
<g id="edge2" class="edge">
<title>Node3&#45;&gt;Node2</title>
<path fill="none" stroke="midnightblue" d="M63.5,-112.8C63.5,-103.91 63.5,-93.78 63.5,-86.75"/>
<polygon fill="midnightblue" stroke="midnightblue" points="60,-113.08 63.5,-123.08 67,-113.08 60,-113.08"/>
</g>
</g>
</svg>
