<?xml version="1.0" encoding="UTF-8" standalone="no"?>
<!DOCTYPE svg PUBLIC "-//W3C//DTD SVG 1.1//EN"
 "http://www.w3.org/Graphics/SVG/1.1/DTD/svg11.dtd">
<!-- Generated by graphviz version 2.43.0 (0)
 -->
<!-- Title: plssvm::csvm Pages: 1 -->
<svg width="419pt" height="293pt"
 viewBox="0.00 0.00 419.00 293.00" xmlns="http://www.w3.org/2000/svg" xmlns:xlink="http://www.w3.org/1999/xlink">
<g id="graph0" class="graph" transform="scale(1 1) rotate(0) translate(4 289)">
<title>plssvm::csvm</title>
<polygon fill="white" stroke="transparent" points="-4,4 -4,-289 415,-289 415,4 -4,4"/>
<!-- Node1 -->
<g id="node1" class="node">
<title>Node1</title>
<g id="a_node1"><a xlink:title="Base class for all C&#45;SVM backends.">
<polygon fill="#bfbfbf" stroke="black" points="0,-109.5 0,-128.5 84,-128.5 84,-109.5 0,-109.5"/>
<text text-anchor="middle" x="42" y="-116.5" font-family="Helvetica,sans-Serif" font-size="10.00">plssvm::csvm</text>
</a>
</g>
</g>
<!-- Node2 -->
<g id="node2" class="node">
<title>Node2</title>
<g id="a_node2"><a xlink:href="classplssvm_1_1detail_1_1gpu__csvm.html" target="_top" xlink:title=" ">
<polygon fill="white" stroke="black" points="122.5,-230.5 122.5,-271.5 247.5,-271.5 247.5,-230.5 122.5,-230.5"/>
<text text-anchor="start" x="130.5" y="-259.5" font-family="Helvetica,sans-Serif" font-size="10.00">plssvm::detail::gpu</text>
<text text-anchor="start" x="130.5" y="-248.5" font-family="Helvetica,sans-Serif" font-size="10.00">_csvm&lt; detail::device</text>
<text text-anchor="middle" x="185" y="-237.5" font-family="Helvetica,sans-Serif" font-size="10.00">_ptr, int &gt;</text>
</a>
</g>
</g>
<!-- Node1&#45;&gt;Node2 -->
<g id="edge1" class="edge">
<title>Node1&#45;&gt;Node2</title>
<path fill="none" stroke="midnightblue" d="M53.14,-137.47C66.15,-159.74 90.57,-197.14 120,-221 124.19,-224.4 128.84,-227.52 133.65,-230.35"/>
<polygon fill="midnightblue" stroke="midnightblue" points="56.12,-135.63 48.14,-128.67 50.04,-139.09 56.12,-135.63"/>
</g>
<!-- Node5 -->
<g id="node5" class="node">
<title>Node5</title>
<g id="a_node5"><a xlink:href="classplssvm_1_1detail_1_1gpu__csvm.html" target="_top" xlink:title=" ">
<polygon fill="white" stroke="black" points="122.5,-159 122.5,-211 247.5,-211 247.5,-159 122.5,-159"/>
<text text-anchor="start" x="130.5" y="-199" font-family="Helvetica,sans-Serif" font-size="10.00">plssvm::detail::gpu</text>
<text text-anchor="start" x="130.5" y="-188" font-family="Helvetica,sans-Serif" font-size="10.00">_csvm&lt; detail::device</text>
<text text-anchor="start" x="130.5" y="-177" font-family="Helvetica,sans-Serif" font-size="10.00">_ptr, detail::command</text>
<text text-anchor="middle" x="185" y="-166" font-family="Helvetica,sans-Serif" font-size="10.00">_queue &gt;</text>
</a>
</g>
</g>
<!-- Node1&#45;&gt;Node5 -->
<g id="edge4" class="edge">
<title>Node1&#45;&gt;Node5</title>
<path fill="none" stroke="midnightblue" d="M72.94,-133.02C89.08,-140.57 109.52,-150.14 128.45,-159"/>
<polygon fill="midnightblue" stroke="midnightblue" points="74.04,-129.67 63.5,-128.6 71.08,-136.01 74.04,-129.67"/>
</g>
<!-- Node7 -->
<g id="node7" class="node">
<title>Node7</title>
<g id="a_node7"><a xlink:href="classplssvm_1_1detail_1_1gpu__csvm.html" target="_top" xlink:title=" ">
<polygon fill="white" stroke="black" points="122.5,-98.5 122.5,-139.5 247.5,-139.5 247.5,-98.5 122.5,-98.5"/>
<text text-anchor="start" x="130.5" y="-127.5" font-family="Helvetica,sans-Serif" font-size="10.00">plssvm::detail::gpu</text>
<text text-anchor="start" x="130.5" y="-116.5" font-family="Helvetica,sans-Serif" font-size="10.00">_csvm&lt; detail::device</text>
<text text-anchor="middle" x="185" y="-105.5" font-family="Helvetica,sans-Serif" font-size="10.00">_ptr, detail::queue &gt;</text>
</a>
</g>
</g>
<!-- Node1&#45;&gt;Node7 -->
<g id="edge6" class="edge">
<title>Node1&#45;&gt;Node7</title>
<path fill="none" stroke="midnightblue" d="M94.23,-119C103.36,-119 112.96,-119 122.34,-119"/>
<polygon fill="midnightblue" stroke="midnightblue" points="94.16,-115.5 84.16,-119 94.16,-122.5 94.16,-115.5"/>
</g>
<!-- Node10 -->
<g id="node10" class="node">
<title>Node10</title>
<g id="a_node10"><a xlink:href="classplssvm_1_1detail_1_1gpu__csvm.html" target="_top" xlink:title="A C&#45;SVM implementation for all GPU backends to reduce code duplication.">
<polygon fill="white" stroke="black" points="124,-38.5 124,-79.5 246,-79.5 246,-38.5 124,-38.5"/>
<text text-anchor="start" x="132" y="-67.5" font-family="Helvetica,sans-Serif" font-size="10.00">plssvm::detail::gpu</text>
<text text-anchor="start" x="132" y="-56.5" font-family="Helvetica,sans-Serif" font-size="10.00">_csvm&lt; device_ptr_t,</text>
<text text-anchor="middle" x="185" y="-45.5" font-family="Helvetica,sans-Serif" font-size="10.00"> queue_t &gt;</text>
</a>
</g>
</g>
<!-- Node1&#45;&gt;Node10 -->
<g id="edge9" class="edge">
<title>Node1&#45;&gt;Node10</title>
<path fill="none" stroke="midnightblue" d="M74.78,-105.47C92.77,-97.82 115.63,-88.09 135.78,-79.52"/>
<polygon fill="midnightblue" stroke="midnightblue" points="73.17,-102.36 65.34,-109.49 75.91,-108.8 73.17,-102.36"/>
</g>
<!-- Node11 -->
<g id="node11" class="node">
<title>Node11</title>
<g id="a_node11"><a xlink:href="classplssvm_1_1openmp_1_1csvm.html" target="_top" xlink:title="A C&#45;SVM implementation using OpenMP as backend.">
<polygon fill="white" stroke="black" points="120,-0.5 120,-19.5 250,-19.5 250,-0.5 120,-0.5"/>
<text text-anchor="middle" x="185" y="-7.5" font-family="Helvetica,sans-Serif" font-size="10.00">plssvm::openmp::csvm</text>
</a>
</g>
</g>
<!-- Node1&#45;&gt;Node11 -->
<g id="edge10" class="edge">
<title>Node1&#45;&gt;Node11</title>
<path fill="none" stroke="midnightblue" d="M54.1,-100.57C67.32,-80.15 91.26,-47.66 120,-29 125.93,-25.15 132.67,-22.06 139.49,-19.58"/>
<polygon fill="midnightblue" stroke="midnightblue" points="51,-98.93 48.65,-109.26 56.93,-102.65 51,-98.93"/>
</g>
<!-- Node3 -->
<g id="node3" class="node">
<title>Node3</title>
<g id="a_node3"><a xlink:href="classplssvm_1_1cuda_1_1csvm.html" target="_top" xlink:title="A C&#45;SVM implementation using CUDA as backend.">
<polygon fill="white" stroke="black" points="292,-265.5 292,-284.5 405,-284.5 405,-265.5 292,-265.5"/>
<text text-anchor="middle" x="348.5" y="-272.5" font-family="Helvetica,sans-Serif" font-size="10.00">plssvm::cuda::csvm</text>
</a>
</g>
</g>
<!-- Node2&#45;&gt;Node3 -->
<g id="edge2" class="edge">
<title>Node2&#45;&gt;Node3</title>
<path fill="none" stroke="midnightblue" d="M257.57,-261.64C269.1,-263.35 280.9,-265.1 291.98,-266.75"/>
<polygon fill="midnightblue" stroke="midnightblue" points="257.92,-258.15 247.52,-260.14 256.89,-265.07 257.92,-258.15"/>
</g>
<!-- Node4 -->
<g id="node4" class="node">
<title>Node4</title>
<g id="a_node4"><a xlink:href="classplssvm_1_1hip_1_1csvm.html" target="_top" xlink:title="A C&#45;SVM implementation using HIP as backend.">
<polygon fill="white" stroke="black" points="296,-227.5 296,-246.5 401,-246.5 401,-227.5 296,-227.5"/>
<text text-anchor="middle" x="348.5" y="-234.5" font-family="Helvetica,sans-Serif" font-size="10.00">plssvm::hip::csvm</text>
</a>
</g>
</g>
<!-- Node2&#45;&gt;Node4 -->
<g id="edge3" class="edge">
<title>Node2&#45;&gt;Node4</title>
<path fill="none" stroke="midnightblue" d="M257.73,-244.78C270.58,-243.67 283.74,-242.53 295.88,-241.47"/>
<polygon fill="midnightblue" stroke="midnightblue" points="257.18,-241.32 247.52,-245.67 257.78,-248.29 257.18,-241.32"/>
</g>
<!-- Node6 -->
<g id="node6" class="node">
<title>Node6</title>
<g id="a_node6"><a xlink:href="classplssvm_1_1opencl_1_1csvm.html" target="_top" xlink:title="A C&#45;SVM implementation using OpenCL as backend.">
<polygon fill="white" stroke="black" points="287.5,-175.5 287.5,-194.5 409.5,-194.5 409.5,-175.5 287.5,-175.5"/>
<text text-anchor="middle" x="348.5" y="-182.5" font-family="Helvetica,sans-Serif" font-size="10.00">plssvm::opencl::csvm</text>
</a>
</g>
</g>
<!-- Node5&#45;&gt;Node6 -->
<g id="edge5" class="edge">
<title>Node5&#45;&gt;Node6</title>
<path fill="none" stroke="midnightblue" d="M257.77,-185C267.7,-185 277.81,-185 287.49,-185"/>
<polygon fill="midnightblue" stroke="midnightblue" points="257.52,-181.5 247.52,-185 257.52,-188.5 257.52,-181.5"/>
</g>
<!-- Node8 -->
<g id="node8" class="node">
<title>Node8</title>
<g id="a_node8"><a xlink:href="classplssvm_1_1dpcpp_1_1csvm.html" target="_top" xlink:title="A C&#45;SVM implementation using DPC++ as SYCL backend.">
<polygon fill="white" stroke="black" points="289,-123.5 289,-142.5 408,-142.5 408,-123.5 289,-123.5"/>
<text text-anchor="middle" x="348.5" y="-130.5" font-family="Helvetica,sans-Serif" font-size="10.00">plssvm::dpcpp::csvm</text>
</a>
</g>
</g>
<!-- Node7&#45;&gt;Node8 -->
<g id="edge7" class="edge">
<title>Node7&#45;&gt;Node8</title>
<path fill="none" stroke="midnightblue" d="M257.8,-125.22C268.17,-126.12 278.74,-127.04 288.82,-127.91"/>
<polygon fill="midnightblue" stroke="midnightblue" points="257.78,-121.71 247.52,-124.33 257.18,-128.68 257.78,-121.71"/>
</g>
<!-- Node9 -->
<g id="node9" class="node">
<title>Node9</title>
<g id="a_node9"><a xlink:href="classplssvm_1_1hipsycl_1_1csvm.html" target="_top" xlink:title="A C&#45;SVM implementation using hipSYCL as SYCL backend.">
<polygon fill="white" stroke="black" points="286,-85.5 286,-104.5 411,-104.5 411,-85.5 286,-85.5"/>
<text text-anchor="middle" x="348.5" y="-92.5" font-family="Helvetica,sans-Serif" font-size="10.00">plssvm::hipsycl::csvm</text>
</a>
</g>
</g>
<!-- Node7&#45;&gt;Node9 -->
<g id="edge8" class="edge">
<title>Node7&#45;&gt;Node9</title>
<path fill="none" stroke="midnightblue" d="M257.65,-108.35C267.07,-106.95 276.65,-105.53 285.89,-104.16"/>
<polygon fill="midnightblue" stroke="midnightblue" points="256.89,-104.93 247.52,-109.86 257.92,-111.85 256.89,-104.93"/>
</g>
</g>
</svg>
