<?xml version="1.0" encoding="UTF-8" standalone="no"?>
<!DOCTYPE svg PUBLIC "-//W3C//DTD SVG 1.1//EN"
 "http://www.w3.org/Graphics/SVG/1.1/DTD/svg11.dtd">
<!-- Generated by graphviz version 2.43.0 (0)
 -->
<!-- Title: plssvm::opencl::csvm Pages: 1 -->
<svg width="133pt" height="173pt"
 viewBox="0.00 0.00 133.00 173.00" xmlns="http://www.w3.org/2000/svg" xmlns:xlink="http://www.w3.org/1999/xlink">
<g id="graph0" class="graph" transform="scale(1 1) rotate(0) translate(4 169)">
<title>plssvm::opencl::csvm</title>
<polygon fill="white" stroke="transparent" points="-4,4 -4,-169 129,-169 129,4 -4,4"/>
<!-- Node1 -->
<g id="node1" class="node">
<title>Node1</title>
<g id="a_node1"><a xlink:title="A C&#45;SVM implementation using OpenCL as backend.">
<polygon fill="#bfbfbf" stroke="black" points="1.5,-0.5 1.5,-19.5 123.5,-19.5 123.5,-0.5 1.5,-0.5"/>
<text text-anchor="middle" x="62.5" y="-7.5" font-family="Helvetica,sans-Serif" font-size="10.00">plssvm::opencl::csvm</text>
</a>
</g>
</g>
<!-- Node2 -->
<g id="node2" class="node">
<title>Node2</title>
<g id="a_node2"><a xlink:href="classplssvm_1_1detail_1_1gpu__csvm.html" target="_top" xlink:title=" ">
<polygon fill="white" stroke="black" points="0,-56.5 0,-108.5 125,-108.5 125,-56.5 0,-56.5"/>
<text text-anchor="start" x="8" y="-96.5" font-family="Helvetica,sans-Serif" font-size="10.00">plssvm::detail::gpu</text>
<text text-anchor="start" x="8" y="-85.5" font-family="Helvetica,sans-Serif" font-size="10.00">_csvm&lt; detail::device</text>
<text text-anchor="start" x="8" y="-74.5" font-family="Helvetica,sans-Serif" font-size="10.00">_ptr, detail::command</text>
<text text-anchor="middle" x="62.5" y="-63.5" font-family="Helvetica,sans-Serif" font-size="10.00">_queue &gt;</text>
</a>
</g>
</g>
<!-- Node2&#45;&gt;Node1 -->
<g id="edge1" class="edge">
<title>Node2&#45;&gt;Node1</title>
<path fill="none" stroke="midnightblue" d="M62.5,-46.27C62.5,-36.37 62.5,-26.47 62.5,-19.7"/>
<polygon fill="midnightblue" stroke="midnightblue" points="59,-46.45 62.5,-56.45 66,-46.45 59,-46.45"/>
</g>
<!-- Node3 -->
<g id="node3" class="node">
<title>Node3</title>
<g id="a_node3"><a xlink:href="classplssvm_1_1csvm.html" target="_top" xlink:title="Base class for all C&#45;SVM backends.">
<polygon fill="white" stroke="black" points="20.5,-145.5 20.5,-164.5 104.5,-164.5 104.5,-145.5 20.5,-145.5"/>
<text text-anchor="middle" x="62.5" y="-152.5" font-family="Helvetica,sans-Serif" font-size="10.00">plssvm::csvm</text>
</a>
</g>
</g>
<!-- Node3&#45;&gt;Node2 -->
<g id="edge2" class="edge">
<title>Node3&#45;&gt;Node2</title>
<path fill="none" stroke="midnightblue" d="M62.5,-135.1C62.5,-126.96 62.5,-117.33 62.5,-108.6"/>
<polygon fill="midnightblue" stroke="midnightblue" points="59,-135.36 62.5,-145.36 66,-135.36 59,-135.36"/>
</g>
</g>
</svg>
