<?xml version="1.0" encoding="UTF-8" standalone="no"?>
<!DOCTYPE svg PUBLIC "-//W3C//DTD SVG 1.1//EN"
 "http://www.w3.org/Graphics/SVG/1.1/DTD/svg11.dtd">
<!-- Generated by graphviz version 2.43.0 (0)
 -->
<!-- Title: plssvm::hipsycl::csvm Pages: 1 -->
<svg width="133pt" height="162pt"
 viewBox="0.00 0.00 133.00 162.00" xmlns="http://www.w3.org/2000/svg" xmlns:xlink="http://www.w3.org/1999/xlink">
<g id="graph0" class="graph" transform="scale(1 1) rotate(0) translate(4 158)">
<title>plssvm::hipsycl::csvm</title>
<polygon fill="white" stroke="transparent" points="-4,4 -4,-158 129,-158 129,4 -4,4"/>
<!-- Node1 -->
<g id="node1" class="node">
<title>Node1</title>
<g id="a_node1"><a xlink:title="A C&#45;SVM implementation using hipSYCL as SYCL backend.">
<polygon fill="#bfbfbf" stroke="black" points="0,-0.5 0,-19.5 125,-19.5 125,-0.5 0,-0.5"/>
<text text-anchor="middle" x="62.5" y="-7.5" font-family="Helvetica,sans-Serif" font-size="10.00">plssvm::hipsycl::csvm</text>
</a>
</g>
</g>
<!-- Node2 -->
<g id="node2" class="node">
<title>Node2</title>
<g id="a_node2"><a xlink:href="classplssvm_1_1detail_1_1gpu__csvm.html" target="_top" xlink:title=" ">
<polygon fill="white" stroke="black" points="0,-56.5 0,-97.5 125,-97.5 125,-56.5 0,-56.5"/>
<text text-anchor="start" x="8" y="-85.5" font-family="Helvetica,sans-Serif" font-size="10.00">plssvm::detail::gpu</text>
<text text-anchor="start" x="8" y="-74.5" font-family="Helvetica,sans-Serif" font-size="10.00">_csvm&lt; detail::device</text>
<text text-anchor="middle" x="62.5" y="-63.5" font-family="Helvetica,sans-Serif" font-size="10.00">_ptr, detail::queue &gt;</text>
</a>
</g>
</g>
<!-- Node2&#45;&gt;Node1 -->
<g id="edge1" class="edge">
<title>Node2&#45;&gt;Node1</title>
<path fill="none" stroke="midnightblue" d="M62.5,-46.26C62.5,-36.56 62.5,-26.52 62.5,-19.65"/>
<polygon fill="midnightblue" stroke="midnightblue" points="59,-46.5 62.5,-56.5 66,-46.5 59,-46.5"/>
</g>
<!-- Node3 -->
<g id="node3" class="node">
<title>Node3</title>
<g id="a_node3"><a xlink:href="classplssvm_1_1csvm.html" target="_top" xlink:title="Base class for all C&#45;SVM backends.">
<polygon fill="white" stroke="black" points="20.5,-134.5 20.5,-153.5 104.5,-153.5 104.5,-134.5 20.5,-134.5"/>
<text text-anchor="middle" x="62.5" y="-141.5" font-family="Helvetica,sans-Serif" font-size="10.00">plssvm::csvm</text>
</a>
</g>
</g>
<!-- Node3&#45;&gt;Node2 -->
<g id="edge2" class="edge">
<title>Node3&#45;&gt;Node2</title>
<path fill="none" stroke="midnightblue" d="M62.5,-124.04C62.5,-115.71 62.5,-105.94 62.5,-97.54"/>
<polygon fill="midnightblue" stroke="midnightblue" points="59,-124.23 62.5,-134.23 66,-124.23 59,-124.23"/>
</g>
</g>
</svg>
