<?xml version="1.0" encoding="UTF-8" standalone="no"?>
<!DOCTYPE svg PUBLIC "-//W3C//DTD SVG 1.1//EN"
 "http://www.w3.org/Graphics/SVG/1.1/DTD/svg11.dtd">
<!-- Generated by graphviz version 2.43.0 (0)
 -->
<!-- Title: plssvm::model&lt; T, U &gt; Pages: 1 -->
<svg width="300pt" height="106pt"
 viewBox="0.00 0.00 299.50 106.00" xmlns="http://www.w3.org/2000/svg" xmlns:xlink="http://www.w3.org/1999/xlink">
<g id="graph0" class="graph" transform="scale(1 1) rotate(0) translate(4 102)">
<title>plssvm::model&lt; T, U &gt;</title>
<polygon fill="white" stroke="transparent" points="-4,4 -4,-102 295.5,-102 295.5,4 -4,4"/>
<!-- Node1 -->
<g id="node1" class="node">
<title>Node1</title>
<g id="a_node1"><a xlink:title="Implements a class encapsulating the result of a call to the SVM fit function. A model is used to pre...">
<polygon fill="#bfbfbf" stroke="black" points="83,-0.5 83,-19.5 214,-19.5 214,-0.5 83,-0.5"/>
<text text-anchor="middle" x="148.5" y="-7.5" font-family="Helvetica,sans-Serif" font-size="10.00">plssvm::model&lt; T, U &gt;</text>
</a>
</g>
</g>
<!-- Node2 -->
<g id="node2" class="node">
<title>Node2</title>
<g id="a_node2"><a xlink:href="structplssvm_1_1detail_1_1parameter.html" target="_top" xlink:title=" ">
<polygon fill="white" stroke="black" points="0,-67.5 0,-97.5 143,-97.5 143,-67.5 0,-67.5"/>
<text text-anchor="start" x="8" y="-85.5" font-family="Helvetica,sans-Serif" font-size="10.00">plssvm::detail::parameter</text>
<text text-anchor="middle" x="71.5" y="-74.5" font-family="Helvetica,sans-Serif" font-size="10.00">&lt; double &gt;</text>
</a>
</g>
</g>
<!-- Node2&#45;&gt;Node1 -->
<g id="edge1" class="edge">
<title>Node2&#45;&gt;Node1</title>
<path fill="none" stroke="#9a32cd" stroke-dasharray="5,2" d="M94.83,-60.14C109.56,-46.65 127.81,-29.94 138.79,-19.89"/>
<polygon fill="#9a32cd" stroke="#9a32cd" points="92.09,-57.9 87.08,-67.23 96.82,-63.06 92.09,-57.9"/>
<text text-anchor="middle" x="140.5" y="-41" font-family="Helvetica,sans-Serif" font-size="10.00"> params_</text>
</g>
<!-- Node3 -->
<g id="node3" class="node">
<title>Node3</title>
<g id="a_node3"><a xlink:href="classplssvm_1_1data__set.html" target="_top" xlink:title=" ">
<polygon fill="white" stroke="black" points="161.5,-67.5 161.5,-97.5 291.5,-97.5 291.5,-67.5 161.5,-67.5"/>
<text text-anchor="start" x="169.5" y="-85.5" font-family="Helvetica,sans-Serif" font-size="10.00">plssvm::data_set&lt; real</text>
<text text-anchor="middle" x="226.5" y="-74.5" font-family="Helvetica,sans-Serif" font-size="10.00">_type, label_type &gt;</text>
</a>
</g>
</g>
<!-- Node3&#45;&gt;Node1 -->
<g id="edge2" class="edge">
<title>Node3&#45;&gt;Node1</title>
<path fill="none" stroke="#9a32cd" stroke-dasharray="5,2" d="M203.28,-60.51C188.29,-46.96 169.56,-30.03 158.34,-19.89"/>
<polygon fill="#9a32cd" stroke="#9a32cd" points="200.95,-63.12 210.72,-67.23 205.64,-57.93 200.95,-63.12"/>
<text text-anchor="middle" x="205" y="-41" font-family="Helvetica,sans-Serif" font-size="10.00"> data_</text>
</g>
</g>
</svg>
