<?xml version="1.0" encoding="UTF-8" standalone="no"?>
<!DOCTYPE svg PUBLIC "-//W3C//DTD SVG 1.1//EN"
 "http://www.w3.org/Graphics/SVG/1.1/DTD/svg11.dtd">
<!-- Generated by graphviz version 2.43.0 (0)
 -->
<!-- Title: plssvm::unsupported_kernel_type_exception Pages: 1 -->
<svg width="140pt" height="151pt"
 viewBox="0.00 0.00 140.00 151.00" xmlns="http://www.w3.org/2000/svg" xmlns:xlink="http://www.w3.org/1999/xlink">
<g id="graph0" class="graph" transform="scale(1 1) rotate(0) translate(4 147)">
<title>plssvm::unsupported_kernel_type_exception</title>
<polygon fill="white" stroke="transparent" points="-4,4 -4,-147 136,-147 136,4 -4,4"/>
<!-- Node1 -->
<g id="node1" class="node">
<title>Node1</title>
<g id="a_node1"><a xlink:title="Exception type thrown if the requested kernel type is not supported.">
<polygon fill="#bfbfbf" stroke="black" points="0,-0.5 0,-30.5 132,-30.5 132,-0.5 0,-0.5"/>
<text text-anchor="start" x="8" y="-18.5" font-family="Helvetica,sans-Serif" font-size="10.00">plssvm::unsupported</text>
<text text-anchor="middle" x="66" y="-7.5" font-family="Helvetica,sans-Serif" font-size="10.00">_kernel_type_exception</text>
</a>
</g>
</g>
<!-- Node2 -->
<g id="node2" class="node">
<title>Node2</title>
<g id="a_node2"><a xlink:href="classplssvm_1_1exception.html" target="_top" xlink:title="Base class for all custom exception types. Forwards its message to std::runtime_error and saves the e...">
<polygon fill="white" stroke="black" points="13,-67.5 13,-86.5 119,-86.5 119,-67.5 13,-67.5"/>
<text text-anchor="middle" x="66" y="-74.5" font-family="Helvetica,sans-Serif" font-size="10.00">plssvm::exception</text>
</a>
</g>
</g>
<!-- Node2&#45;&gt;Node1 -->
<g id="edge1" class="edge">
<title>Node2&#45;&gt;Node1</title>
<path fill="none" stroke="midnightblue" d="M66,-57.23C66,-48.59 66,-38.5 66,-30.52"/>
<polygon fill="midnightblue" stroke="midnightblue" points="62.5,-57.48 66,-67.48 69.5,-57.48 62.5,-57.48"/>
</g>
<!-- Node3 -->
<g id="node3" class="node">
<title>Node3</title>
<g id="a_node3"><a xlink:title=" ">
<polygon fill="white" stroke="#bfbfbf" points="14,-123.5 14,-142.5 118,-142.5 118,-123.5 14,-123.5"/>
<text text-anchor="middle" x="66" y="-130.5" font-family="Helvetica,sans-Serif" font-size="10.00">std::runtime_error</text>
</a>
</g>
</g>
<!-- Node3&#45;&gt;Node2 -->
<g id="edge2" class="edge">
<title>Node3&#45;&gt;Node2</title>
<path fill="none" stroke="midnightblue" d="M66,-112.8C66,-103.91 66,-93.78 66,-86.75"/>
<polygon fill="midnightblue" stroke="midnightblue" points="62.5,-113.08 66,-123.08 69.5,-113.08 62.5,-113.08"/>
</g>
</g>
</svg>
