<?xml version="1.0" encoding="UTF-8" standalone="no"?>
<!DOCTYPE svg PUBLIC "-//W3C//DTD SVG 1.1//EN"
 "http://www.w3.org/Graphics/SVG/1.1/DTD/svg11.dtd">
<!-- Generated by graphviz version 2.43.0 (0)
 -->
<!-- Title: plssvm::detail::cmd::parser_train Pages: 1 -->
<svg width="372pt" height="137pt"
 viewBox="0.00 0.00 372.00 137.00" xmlns="http://www.w3.org/2000/svg" xmlns:xlink="http://www.w3.org/1999/xlink">
<g id="graph0" class="graph" transform="scale(1 1) rotate(0) translate(4 133)">
<title>plssvm::detail::cmd::parser_train</title>
<polygon fill="white" stroke="transparent" points="-4,4 -4,-133 368,-133 368,4 -4,4"/>
<!-- Node1 -->
<g id="node1" class="node">
<title>Node1</title>
<g id="a_node1"><a xlink:title="Class for encapsulating all necessary parameters for training; normally provided through command line...">
<polygon fill="#bfbfbf" stroke="black" points="251,-49.5 251,-79.5 364,-79.5 364,-49.5 251,-49.5"/>
<text text-anchor="start" x="259" y="-67.5" font-family="Helvetica,sans-Serif" font-size="10.00">plssvm::detail::cmd</text>
<text text-anchor="middle" x="307.5" y="-56.5" font-family="Helvetica,sans-Serif" font-size="10.00">::parser_train</text>
</a>
</g>
</g>
<!-- Node2 -->
<g id="node2" class="node">
<title>Node2</title>
<g id="a_node2"><a xlink:href="classplssvm_1_1default__value.html" target="_top" xlink:title=" ">
<polygon fill="white" stroke="black" points="9,-98.5 9,-128.5 134,-128.5 134,-98.5 9,-98.5"/>
<text text-anchor="start" x="17" y="-116.5" font-family="Helvetica,sans-Serif" font-size="10.00">plssvm::default_value</text>
<text text-anchor="middle" x="71.5" y="-105.5" font-family="Helvetica,sans-Serif" font-size="10.00">&lt; std::size_t &gt;</text>
</a>
</g>
</g>
<!-- Node2&#45;&gt;Node1 -->
<g id="edge1" class="edge">
<title>Node2&#45;&gt;Node1</title>
<path fill="none" stroke="#9a32cd" stroke-dasharray="5,2" d="M144.24,-98.48C178.49,-91.3 218.87,-82.85 250.77,-76.17"/>
<polygon fill="#9a32cd" stroke="#9a32cd" points="143.36,-95.09 134.29,-100.56 144.79,-101.94 143.36,-95.09"/>
<text text-anchor="middle" x="197" y="-97.5" font-family="Helvetica,sans-Serif" font-size="10.00"> max_iter</text>
</g>
<!-- Node3 -->
<g id="node3" class="node">
<title>Node3</title>
<g id="a_node3"><a xlink:href="structplssvm_1_1detail_1_1parameter.html" target="_top" xlink:title=" ">
<polygon fill="white" stroke="black" points="0,-49.5 0,-79.5 143,-79.5 143,-49.5 0,-49.5"/>
<text text-anchor="start" x="8" y="-67.5" font-family="Helvetica,sans-Serif" font-size="10.00">plssvm::detail::parameter</text>
<text text-anchor="middle" x="71.5" y="-56.5" font-family="Helvetica,sans-Serif" font-size="10.00">&lt; double &gt;</text>
</a>
</g>
</g>
<!-- Node3&#45;&gt;Node1 -->
<g id="edge2" class="edge">
<title>Node3&#45;&gt;Node1</title>
<path fill="none" stroke="#9a32cd" stroke-dasharray="5,2" d="M153.33,-64.5C185.54,-64.5 221.82,-64.5 250.98,-64.5"/>
<polygon fill="#9a32cd" stroke="#9a32cd" points="153.03,-61 143.03,-64.5 153.03,-68 153.03,-61"/>
<text text-anchor="middle" x="197" y="-67.5" font-family="Helvetica,sans-Serif" font-size="10.00"> csvm_params</text>
</g>
<!-- Node4 -->
<g id="node4" class="node">
<title>Node4</title>
<g id="a_node4"><a xlink:href="classplssvm_1_1default__value.html" target="_top" xlink:title=" ">
<polygon fill="white" stroke="black" points="9,-0.5 9,-30.5 134,-30.5 134,-0.5 9,-0.5"/>
<text text-anchor="start" x="17" y="-18.5" font-family="Helvetica,sans-Serif" font-size="10.00">plssvm::default_value</text>
<text text-anchor="middle" x="71.5" y="-7.5" font-family="Helvetica,sans-Serif" font-size="10.00">&lt; double &gt;</text>
</a>
</g>
</g>
<!-- Node4&#45;&gt;Node1 -->
<g id="edge3" class="edge">
<title>Node4&#45;&gt;Node1</title>
<path fill="none" stroke="#9a32cd" stroke-dasharray="5,2" d="M144.24,-30.52C178.49,-37.7 218.87,-46.15 250.77,-52.83"/>
<polygon fill="#9a32cd" stroke="#9a32cd" points="144.79,-27.06 134.29,-28.44 143.36,-33.91 144.79,-27.06"/>
<text text-anchor="middle" x="197" y="-51.5" font-family="Helvetica,sans-Serif" font-size="10.00"> epsilon</text>
</g>
</g>
</svg>
