<?xml version="1.0" encoding="UTF-8" standalone="no"?>
<!DOCTYPE svg PUBLIC "-//W3C//DTD SVG 1.1//EN"
 "http://www.w3.org/Graphics/SVG/1.1/DTD/svg11.dtd">
<!-- Generated by graphviz version 2.43.0 (0)
 -->
<!-- Title: plssvm::data_set_exception Pages: 1 -->
<svg width="264pt" height="152pt"
 viewBox="0.00 0.00 264.00 152.00" xmlns="http://www.w3.org/2000/svg" xmlns:xlink="http://www.w3.org/1999/xlink">
<g id="graph0" class="graph" transform="scale(1 1) rotate(0) translate(4 148)">
<title>plssvm::data_set_exception</title>
<polygon fill="white" stroke="transparent" points="-4,4 -4,-148 260,-148 260,4 -4,4"/>
<!-- Node1 -->
<g id="node1" class="node">
<title>Node1</title>
<g id="a_node1"><a xlink:title="Exception type thrown if a data_set is used inappropriately.">
<polygon fill="#bfbfbf" stroke="black" points="43.5,-0.5 43.5,-19.5 196.5,-19.5 196.5,-0.5 43.5,-0.5"/>
<text text-anchor="middle" x="120" y="-7.5" font-family="Helvetica,sans-Serif" font-size="10.00">plssvm::data_set_exception</text>
</a>
</g>
</g>
<!-- Node2 -->
<g id="node2" class="node">
<title>Node2</title>
<g id="a_node2"><a xlink:href="classplssvm_1_1exception.html" target="_top" xlink:title="Base class for all custom exception types. Forwards its message to std::runtime_error and saves the e...">
<polygon fill="white" stroke="black" points="67,-57.5 67,-76.5 173,-76.5 173,-57.5 67,-57.5"/>
<text text-anchor="middle" x="120" y="-64.5" font-family="Helvetica,sans-Serif" font-size="10.00">plssvm::exception</text>
</a>
</g>
</g>
<!-- Node2&#45;&gt;Node1 -->
<g id="edge1" class="edge">
<title>Node2&#45;&gt;Node1</title>
<path fill="none" stroke="midnightblue" d="M120,-47.12C120,-37.82 120,-27.06 120,-19.71"/>
<polygon fill="midnightblue" stroke="midnightblue" points="116.5,-47.41 120,-57.41 123.5,-47.41 116.5,-47.41"/>
</g>
<!-- Node3 -->
<g id="node3" class="node">
<title>Node3</title>
<g id="a_node3"><a xlink:title=" ">
<polygon fill="white" stroke="#bfbfbf" points="0,-124.5 0,-143.5 104,-143.5 104,-124.5 0,-124.5"/>
<text text-anchor="middle" x="52" y="-131.5" font-family="Helvetica,sans-Serif" font-size="10.00">std::runtime_error</text>
</a>
</g>
</g>
<!-- Node3&#45;&gt;Node2 -->
<g id="edge2" class="edge">
<title>Node3&#45;&gt;Node2</title>
<path fill="none" stroke="midnightblue" d="M68.74,-117C82.08,-104.25 100.23,-86.89 110.97,-76.63"/>
<polygon fill="midnightblue" stroke="midnightblue" points="65.98,-114.79 61.17,-124.23 70.82,-119.85 65.98,-114.79"/>
</g>
<!-- Node4 -->
<g id="node4" class="node">
<title>Node4</title>
<g id="a_node4"><a xlink:href="classplssvm_1_1source__location.html" target="_top" xlink:title="The plssvm::source_location class represents certain information about the source code,...">
<polygon fill="white" stroke="black" points="122,-124.5 122,-143.5 256,-143.5 256,-124.5 122,-124.5"/>
<text text-anchor="middle" x="189" y="-131.5" font-family="Helvetica,sans-Serif" font-size="10.00">plssvm::source_location</text>
</a>
</g>
</g>
<!-- Node4&#45;&gt;Node2 -->
<g id="edge3" class="edge">
<title>Node4&#45;&gt;Node2</title>
<path fill="none" stroke="#9a32cd" stroke-dasharray="5,2" d="M172.39,-117.36C158.83,-104.58 140.16,-86.99 129.16,-76.63"/>
<polygon fill="#9a32cd" stroke="#9a32cd" points="170.02,-119.92 179.69,-124.23 174.82,-114.83 170.02,-119.92"/>
<text text-anchor="middle" x="169.5" y="-98" font-family="Helvetica,sans-Serif" font-size="10.00"> loc_</text>
</g>
</g>
</svg>
