<?xml version="1.0" encoding="UTF-8" standalone="no"?>
<!DOCTYPE svg PUBLIC "-//W3C//DTD SVG 1.1//EN"
 "http://www.w3.org/Graphics/SVG/1.1/DTD/svg11.dtd">
<!-- Generated by graphviz version 2.43.0 (0)
 -->
<!-- Title: plssvm::hip::csvm Pages: 1 -->
<svg width="151pt" height="242pt"
 viewBox="0.00 0.00 151.00 242.00" xmlns="http://www.w3.org/2000/svg" xmlns:xlink="http://www.w3.org/1999/xlink">
<g id="graph0" class="graph" transform="scale(1 1) rotate(0) translate(4 238)">
<title>plssvm::hip::csvm</title>
<polygon fill="white" stroke="transparent" points="-4,4 -4,-238 147,-238 147,4 -4,4"/>
<!-- Node1 -->
<g id="node1" class="node">
<title>Node1</title>
<g id="a_node1"><a xlink:title="A C&#45;SVM implementation using HIP as backend.">
<polygon fill="#bfbfbf" stroke="black" points="19,-0.5 19,-19.5 124,-19.5 124,-0.5 19,-0.5"/>
<text text-anchor="middle" x="71.5" y="-7.5" font-family="Helvetica,sans-Serif" font-size="10.00">plssvm::hip::csvm</text>
</a>
</g>
</g>
<!-- Node2 -->
<g id="node2" class="node">
<title>Node2</title>
<g id="a_node2"><a xlink:href="classplssvm_1_1detail_1_1gpu__csvm.html" target="_top" xlink:title=" ">
<polygon fill="white" stroke="black" points="9,-57.5 9,-98.5 134,-98.5 134,-57.5 9,-57.5"/>
<text text-anchor="start" x="17" y="-86.5" font-family="Helvetica,sans-Serif" font-size="10.00">plssvm::detail::gpu</text>
<text text-anchor="start" x="17" y="-75.5" font-family="Helvetica,sans-Serif" font-size="10.00">_csvm&lt; detail::device</text>
<text text-anchor="middle" x="71.5" y="-64.5" font-family="Helvetica,sans-Serif" font-size="10.00">_ptr, int &gt;</text>
</a>
</g>
</g>
<!-- Node2&#45;&gt;Node1 -->
<g id="edge1" class="edge">
<title>Node2&#45;&gt;Node1</title>
<path fill="none" stroke="midnightblue" d="M71.5,-47.12C71.5,-37.17 71.5,-26.84 71.5,-19.79"/>
<polygon fill="midnightblue" stroke="midnightblue" points="68,-47.2 71.5,-57.2 75,-47.2 68,-47.2"/>
</g>
<!-- Node3 -->
<g id="node3" class="node">
<title>Node3</title>
<g id="a_node3"><a xlink:href="classplssvm_1_1csvm.html" target="_top" xlink:title="Base class for all C&#45;SVM backends.">
<polygon fill="white" stroke="black" points="29.5,-136.5 29.5,-155.5 113.5,-155.5 113.5,-136.5 29.5,-136.5"/>
<text text-anchor="middle" x="71.5" y="-143.5" font-family="Helvetica,sans-Serif" font-size="10.00">plssvm::csvm</text>
</a>
</g>
</g>
<!-- Node3&#45;&gt;Node2 -->
<g id="edge2" class="edge">
<title>Node3&#45;&gt;Node2</title>
<path fill="none" stroke="midnightblue" d="M71.5,-126.25C71.5,-117.65 71.5,-107.45 71.5,-98.74"/>
<polygon fill="midnightblue" stroke="midnightblue" points="68,-126.37 71.5,-136.37 75,-126.37 68,-126.37"/>
</g>
<!-- Node4 -->
<g id="node4" class="node">
<title>Node4</title>
<g id="a_node4"><a xlink:href="structplssvm_1_1detail_1_1parameter.html" target="_top" xlink:title=" ">
<polygon fill="white" stroke="black" points="0,-203.5 0,-233.5 143,-233.5 143,-203.5 0,-203.5"/>
<text text-anchor="start" x="8" y="-221.5" font-family="Helvetica,sans-Serif" font-size="10.00">plssvm::detail::parameter</text>
<text text-anchor="middle" x="71.5" y="-210.5" font-family="Helvetica,sans-Serif" font-size="10.00">&lt; double &gt;</text>
</a>
</g>
</g>
<!-- Node4&#45;&gt;Node3 -->
<g id="edge3" class="edge">
<title>Node4&#45;&gt;Node3</title>
<path fill="none" stroke="#9a32cd" stroke-dasharray="5,2" d="M71.5,-193.09C71.5,-180.21 71.5,-165.2 71.5,-155.89"/>
<polygon fill="#9a32cd" stroke="#9a32cd" points="68,-193.23 71.5,-203.23 75,-193.23 68,-193.23"/>
<text text-anchor="middle" x="94.5" y="-177" font-family="Helvetica,sans-Serif" font-size="10.00"> params_</text>
</g>
</g>
</svg>
