<?xml version="1.0" encoding="UTF-8" standalone="no"?>
<!DOCTYPE svg PUBLIC "-//W3C//DTD SVG 1.1//EN"
 "http://www.w3.org/Graphics/SVG/1.1/DTD/svg11.dtd">
<!-- Generated by graphviz version 2.43.0 (0)
 -->
<!-- Title: plssvm::sycl::backend_exception Pages: 1 -->
<svg width="300pt" height="218pt"
 viewBox="0.00 0.00 299.50 218.00" xmlns="http://www.w3.org/2000/svg" xmlns:xlink="http://www.w3.org/1999/xlink">
<g id="graph0" class="graph" transform="scale(1 1) rotate(0) translate(4 214)">
<title>plssvm::sycl::backend_exception</title>
<polygon fill="white" stroke="transparent" points="-4,4 -4,-214 295.5,-214 295.5,4 -4,4"/>
<!-- Node1 -->
<g id="node1" class="node">
<title>Node1</title>
<g id="a_node1"><a xlink:title="Exception type thrown if a problem with the SYCL backend occurs.">
<polygon fill="#bfbfbf" stroke="black" points="82,-67.5 82,-97.5 206,-97.5 206,-67.5 82,-67.5"/>
<text text-anchor="start" x="90" y="-85.5" font-family="Helvetica,sans-Serif" font-size="10.00">plssvm::sycl::backend</text>
<text text-anchor="middle" x="144" y="-74.5" font-family="Helvetica,sans-Serif" font-size="10.00">_exception</text>
</a>
</g>
</g>
<!-- Node4 -->
<g id="node4" class="node">
<title>Node4</title>
<g id="a_node4"><a xlink:href="classplssvm_1_1dpcpp_1_1backend__exception.html" target="_top" xlink:title="Exception type thrown if a problem with the DPC++ SYCL backend occurs.">
<polygon fill="white" stroke="black" points="0,-0.5 0,-30.5 134,-30.5 134,-0.5 0,-0.5"/>
<text text-anchor="start" x="8" y="-18.5" font-family="Helvetica,sans-Serif" font-size="10.00">plssvm::dpcpp::backend</text>
<text text-anchor="middle" x="67" y="-7.5" font-family="Helvetica,sans-Serif" font-size="10.00">_exception</text>
</a>
</g>
</g>
<!-- Node1&#45;&gt;Node4 -->
<g id="edge3" class="edge">
<title>Node1&#45;&gt;Node4</title>
<path fill="none" stroke="midnightblue" d="M119.58,-60.88C107.88,-51.01 94.16,-39.43 83.68,-30.58"/>
<polygon fill="midnightblue" stroke="midnightblue" points="117.39,-63.62 127.29,-67.4 121.91,-58.27 117.39,-63.62"/>
</g>
<!-- Node5 -->
<g id="node5" class="node">
<title>Node5</title>
<g id="a_node5"><a xlink:href="classplssvm_1_1hipsycl_1_1backend__exception.html" target="_top" xlink:title="Exception type thrown if a problem with the hipSYCL SYCL backend occurs.">
<polygon fill="white" stroke="black" points="152.5,-0.5 152.5,-30.5 291.5,-30.5 291.5,-0.5 152.5,-0.5"/>
<text text-anchor="start" x="160.5" y="-18.5" font-family="Helvetica,sans-Serif" font-size="10.00">plssvm::hipsycl::backend</text>
<text text-anchor="middle" x="222" y="-7.5" font-family="Helvetica,sans-Serif" font-size="10.00">_exception</text>
</a>
</g>
</g>
<!-- Node1&#45;&gt;Node5 -->
<g id="edge4" class="edge">
<title>Node1&#45;&gt;Node5</title>
<path fill="none" stroke="midnightblue" d="M168.74,-60.88C180.59,-51.01 194.48,-39.43 205.11,-30.58"/>
<polygon fill="midnightblue" stroke="midnightblue" points="166.37,-58.31 160.92,-67.4 170.85,-63.68 166.37,-58.31"/>
</g>
<!-- Node2 -->
<g id="node2" class="node">
<title>Node2</title>
<g id="a_node2"><a xlink:href="classplssvm_1_1exception.html" target="_top" xlink:title="Base class for all custom exception types. Forwards its message to std::runtime_error and saves the e...">
<polygon fill="white" stroke="black" points="91,-134.5 91,-153.5 197,-153.5 197,-134.5 91,-134.5"/>
<text text-anchor="middle" x="144" y="-141.5" font-family="Helvetica,sans-Serif" font-size="10.00">plssvm::exception</text>
</a>
</g>
</g>
<!-- Node2&#45;&gt;Node1 -->
<g id="edge1" class="edge">
<title>Node2&#45;&gt;Node1</title>
<path fill="none" stroke="midnightblue" d="M144,-124.23C144,-115.59 144,-105.5 144,-97.52"/>
<polygon fill="midnightblue" stroke="midnightblue" points="140.5,-124.48 144,-134.48 147.5,-124.48 140.5,-124.48"/>
</g>
<!-- Node3 -->
<g id="node3" class="node">
<title>Node3</title>
<g id="a_node3"><a xlink:title=" ">
<polygon fill="white" stroke="#bfbfbf" points="92,-190.5 92,-209.5 196,-209.5 196,-190.5 92,-190.5"/>
<text text-anchor="middle" x="144" y="-197.5" font-family="Helvetica,sans-Serif" font-size="10.00">std::runtime_error</text>
</a>
</g>
</g>
<!-- Node3&#45;&gt;Node2 -->
<g id="edge2" class="edge">
<title>Node3&#45;&gt;Node2</title>
<path fill="none" stroke="midnightblue" d="M144,-179.8C144,-170.91 144,-160.78 144,-153.75"/>
<polygon fill="midnightblue" stroke="midnightblue" points="140.5,-180.08 144,-190.08 147.5,-180.08 140.5,-180.08"/>
</g>
</g>
</svg>
