<?xml version="1.0" encoding="UTF-8" standalone="no"?>
<!DOCTYPE svg PUBLIC "-//W3C//DTD SVG 1.1//EN"
 "http://www.w3.org/Graphics/SVG/1.1/DTD/svg11.dtd">
<!-- Generated by graphviz version 2.43.0 (0)
 -->
<!-- Title: plssvm::invalid_parameter_exception Pages: 1 -->
<svg width="264pt" height="163pt"
 viewBox="0.00 0.00 264.00 163.00" xmlns="http://www.w3.org/2000/svg" xmlns:xlink="http://www.w3.org/1999/xlink">
<g id="graph0" class="graph" transform="scale(1 1) rotate(0) translate(4 159)">
<title>plssvm::invalid_parameter_exception</title>
<polygon fill="white" stroke="transparent" points="-4,4 -4,-159 260,-159 260,4 -4,4"/>
<!-- Node1 -->
<g id="node1" class="node">
<title>Node1</title>
<g id="a_node1"><a xlink:title="Exception type thrown if the provided parameter is invalid.">
<polygon fill="#bfbfbf" stroke="black" points="46.5,-0.5 46.5,-30.5 193.5,-30.5 193.5,-0.5 46.5,-0.5"/>
<text text-anchor="start" x="54.5" y="-18.5" font-family="Helvetica,sans-Serif" font-size="10.00">plssvm::invalid_parameter</text>
<text text-anchor="middle" x="120" y="-7.5" font-family="Helvetica,sans-Serif" font-size="10.00">_exception</text>
</a>
</g>
</g>
<!-- Node2 -->
<g id="node2" class="node">
<title>Node2</title>
<g id="a_node2"><a xlink:href="classplssvm_1_1exception.html" target="_top" xlink:title="Base class for all custom exception types. Forwards its message to std::runtime_error and saves the e...">
<polygon fill="white" stroke="black" points="67,-68.5 67,-87.5 173,-87.5 173,-68.5 67,-68.5"/>
<text text-anchor="middle" x="120" y="-75.5" font-family="Helvetica,sans-Serif" font-size="10.00">plssvm::exception</text>
</a>
</g>
</g>
<!-- Node2&#45;&gt;Node1 -->
<g id="edge1" class="edge">
<title>Node2&#45;&gt;Node1</title>
<path fill="none" stroke="midnightblue" d="M120,-58.22C120,-49.36 120,-38.96 120,-30.76"/>
<polygon fill="midnightblue" stroke="midnightblue" points="116.5,-58.33 120,-68.33 123.5,-58.33 116.5,-58.33"/>
</g>
<!-- Node3 -->
<g id="node3" class="node">
<title>Node3</title>
<g id="a_node3"><a xlink:title=" ">
<polygon fill="white" stroke="#bfbfbf" points="0,-135.5 0,-154.5 104,-154.5 104,-135.5 0,-135.5"/>
<text text-anchor="middle" x="52" y="-142.5" font-family="Helvetica,sans-Serif" font-size="10.00">std::runtime_error</text>
</a>
</g>
</g>
<!-- Node3&#45;&gt;Node2 -->
<g id="edge2" class="edge">
<title>Node3&#45;&gt;Node2</title>
<path fill="none" stroke="midnightblue" d="M68.74,-128C82.08,-115.25 100.23,-97.89 110.97,-87.63"/>
<polygon fill="midnightblue" stroke="midnightblue" points="65.98,-125.79 61.17,-135.23 70.82,-130.85 65.98,-125.79"/>
</g>
<!-- Node4 -->
<g id="node4" class="node">
<title>Node4</title>
<g id="a_node4"><a xlink:href="classplssvm_1_1source__location.html" target="_top" xlink:title="The plssvm::source_location class represents certain information about the source code,...">
<polygon fill="white" stroke="black" points="122,-135.5 122,-154.5 256,-154.5 256,-135.5 122,-135.5"/>
<text text-anchor="middle" x="189" y="-142.5" font-family="Helvetica,sans-Serif" font-size="10.00">plssvm::source_location</text>
</a>
</g>
</g>
<!-- Node4&#45;&gt;Node2 -->
<g id="edge3" class="edge">
<title>Node4&#45;&gt;Node2</title>
<path fill="none" stroke="#9a32cd" stroke-dasharray="5,2" d="M172.39,-128.36C158.83,-115.58 140.16,-97.99 129.16,-87.63"/>
<polygon fill="#9a32cd" stroke="#9a32cd" points="170.02,-130.92 179.69,-135.23 174.82,-125.83 170.02,-130.92"/>
<text text-anchor="middle" x="169.5" y="-109" font-family="Helvetica,sans-Serif" font-size="10.00"> loc_</text>
</g>
</g>
</svg>
