<?xml version="1.0" encoding="UTF-8" standalone="no"?>
<!DOCTYPE svg PUBLIC "-//W3C//DTD SVG 1.1//EN"
 "http://www.w3.org/Graphics/SVG/1.1/DTD/svg11.dtd">
<!-- Generated by graphviz version 2.43.0 (0)
 -->
<!-- Title: plssvm::hipsycl::backend_exception Pages: 1 -->
<svg width="147pt" height="218pt"
 viewBox="0.00 0.00 147.00 218.00" xmlns="http://www.w3.org/2000/svg" xmlns:xlink="http://www.w3.org/1999/xlink">
<g id="graph0" class="graph" transform="scale(1 1) rotate(0) translate(4 214)">
<title>plssvm::hipsycl::backend_exception</title>
<polygon fill="white" stroke="transparent" points="-4,4 -4,-214 143,-214 143,4 -4,4"/>
<!-- Node1 -->
<g id="node1" class="node">
<title>Node1</title>
<g id="a_node1"><a xlink:title="Exception type thrown if a problem with the hipSYCL SYCL backend occurs.">
<polygon fill="#bfbfbf" stroke="black" points="0,-0.5 0,-30.5 139,-30.5 139,-0.5 0,-0.5"/>
<text text-anchor="start" x="8" y="-18.5" font-family="Helvetica,sans-Serif" font-size="10.00">plssvm::hipsycl::backend</text>
<text text-anchor="middle" x="69.5" y="-7.5" font-family="Helvetica,sans-Serif" font-size="10.00">_exception</text>
</a>
</g>
</g>
<!-- Node2 -->
<g id="node2" class="node">
<title>Node2</title>
<g id="a_node2"><a xlink:href="classplssvm_1_1sycl_1_1backend__exception.html" target="_top" xlink:title="Exception type thrown if a problem with the SYCL backend occurs.">
<polygon fill="white" stroke="black" points="7.5,-67.5 7.5,-97.5 131.5,-97.5 131.5,-67.5 7.5,-67.5"/>
<text text-anchor="start" x="15.5" y="-85.5" font-family="Helvetica,sans-Serif" font-size="10.00">plssvm::sycl::backend</text>
<text text-anchor="middle" x="69.5" y="-74.5" font-family="Helvetica,sans-Serif" font-size="10.00">_exception</text>
</a>
</g>
</g>
<!-- Node2&#45;&gt;Node1 -->
<g id="edge1" class="edge">
<title>Node2&#45;&gt;Node1</title>
<path fill="none" stroke="midnightblue" d="M69.5,-57.11C69.5,-48.15 69.5,-38.32 69.5,-30.58"/>
<polygon fill="midnightblue" stroke="midnightblue" points="66,-57.4 69.5,-67.4 73,-57.4 66,-57.4"/>
</g>
<!-- Node3 -->
<g id="node3" class="node">
<title>Node3</title>
<g id="a_node3"><a xlink:href="classplssvm_1_1exception.html" target="_top" xlink:title="Base class for all custom exception types. Forwards its message to std::runtime_error and saves the e...">
<polygon fill="white" stroke="black" points="16.5,-134.5 16.5,-153.5 122.5,-153.5 122.5,-134.5 16.5,-134.5"/>
<text text-anchor="middle" x="69.5" y="-141.5" font-family="Helvetica,sans-Serif" font-size="10.00">plssvm::exception</text>
</a>
</g>
</g>
<!-- Node3&#45;&gt;Node2 -->
<g id="edge2" class="edge">
<title>Node3&#45;&gt;Node2</title>
<path fill="none" stroke="midnightblue" d="M69.5,-124.23C69.5,-115.59 69.5,-105.5 69.5,-97.52"/>
<polygon fill="midnightblue" stroke="midnightblue" points="66,-124.48 69.5,-134.48 73,-124.48 66,-124.48"/>
</g>
<!-- Node4 -->
<g id="node4" class="node">
<title>Node4</title>
<g id="a_node4"><a xlink:title=" ">
<polygon fill="white" stroke="#bfbfbf" points="17.5,-190.5 17.5,-209.5 121.5,-209.5 121.5,-190.5 17.5,-190.5"/>
<text text-anchor="middle" x="69.5" y="-197.5" font-family="Helvetica,sans-Serif" font-size="10.00">std::runtime_error</text>
</a>
</g>
</g>
<!-- Node4&#45;&gt;Node3 -->
<g id="edge3" class="edge">
<title>Node4&#45;&gt;Node3</title>
<path fill="none" stroke="midnightblue" d="M69.5,-179.8C69.5,-170.91 69.5,-160.78 69.5,-153.75"/>
<polygon fill="midnightblue" stroke="midnightblue" points="66,-180.08 69.5,-190.08 73,-180.08 66,-180.08"/>
</g>
</g>
</svg>
