<?xml version="1.0" encoding="UTF-8" standalone="no"?>
<!DOCTYPE svg PUBLIC "-//W3C//DTD SVG 1.1//EN"
 "http://www.w3.org/Graphics/SVG/1.1/DTD/svg11.dtd">
<!-- Generated by graphviz version 2.43.0 (0)
 -->
<!-- Title: plssvm::file_reader_exception Pages: 1 -->
<svg width="118pt" height="151pt"
 viewBox="0.00 0.00 118.00 151.00" xmlns="http://www.w3.org/2000/svg" xmlns:xlink="http://www.w3.org/1999/xlink">
<g id="graph0" class="graph" transform="scale(1 1) rotate(0) translate(4 147)">
<title>plssvm::file_reader_exception</title>
<polygon fill="white" stroke="transparent" points="-4,4 -4,-147 114,-147 114,4 -4,4"/>
<!-- Node1 -->
<g id="node1" class="node">
<title>Node1</title>
<g id="a_node1"><a xlink:title="Exception type thrown if the file_reader is used inappropriately (e.g., if two files should be opened...">
<polygon fill="#bfbfbf" stroke="black" points="0,-0.5 0,-30.5 110,-30.5 110,-0.5 0,-0.5"/>
<text text-anchor="start" x="8" y="-18.5" font-family="Helvetica,sans-Serif" font-size="10.00">plssvm::file_reader</text>
<text text-anchor="middle" x="55" y="-7.5" font-family="Helvetica,sans-Serif" font-size="10.00">_exception</text>
</a>
</g>
</g>
<!-- Node2 -->
<g id="node2" class="node">
<title>Node2</title>
<g id="a_node2"><a xlink:href="classplssvm_1_1exception.html" target="_top" xlink:title="Base class for all custom exception types. Forwards its message to std::runtime_error and saves the e...">
<polygon fill="white" stroke="black" points="2,-67.5 2,-86.5 108,-86.5 108,-67.5 2,-67.5"/>
<text text-anchor="middle" x="55" y="-74.5" font-family="Helvetica,sans-Serif" font-size="10.00">plssvm::exception</text>
</a>
</g>
</g>
<!-- Node2&#45;&gt;Node1 -->
<g id="edge1" class="edge">
<title>Node2&#45;&gt;Node1</title>
<path fill="none" stroke="midnightblue" d="M55,-57.23C55,-48.59 55,-38.5 55,-30.52"/>
<polygon fill="midnightblue" stroke="midnightblue" points="51.5,-57.48 55,-67.48 58.5,-57.48 51.5,-57.48"/>
</g>
<!-- Node3 -->
<g id="node3" class="node">
<title>Node3</title>
<g id="a_node3"><a xlink:title=" ">
<polygon fill="white" stroke="#bfbfbf" points="3,-123.5 3,-142.5 107,-142.5 107,-123.5 3,-123.5"/>
<text text-anchor="middle" x="55" y="-130.5" font-family="Helvetica,sans-Serif" font-size="10.00">std::runtime_error</text>
</a>
</g>
</g>
<!-- Node3&#45;&gt;Node2 -->
<g id="edge2" class="edge">
<title>Node3&#45;&gt;Node2</title>
<path fill="none" stroke="midnightblue" d="M55,-112.8C55,-103.91 55,-93.78 55,-86.75"/>
<polygon fill="midnightblue" stroke="midnightblue" points="51.5,-113.08 55,-123.08 58.5,-113.08 51.5,-113.08"/>
</g>
</g>
</svg>
