<?xml version="1.0" encoding="UTF-8" standalone="no"?>
<!DOCTYPE svg PUBLIC "-//W3C//DTD SVG 1.1//EN"
 "http://www.w3.org/Graphics/SVG/1.1/DTD/svg11.dtd">
<!-- Generated by graphviz version 2.43.0 (0)
 -->
<!-- Title: plssvm::detail::gpu_csvm&lt; device_ptr_t, queue_t &gt; Pages: 1 -->
<svg width="151pt" height="185pt"
 viewBox="0.00 0.00 151.00 185.00" xmlns="http://www.w3.org/2000/svg" xmlns:xlink="http://www.w3.org/1999/xlink">
<g id="graph0" class="graph" transform="scale(1 1) rotate(0) translate(4 181)">
<title>plssvm::detail::gpu_csvm&lt; device_ptr_t, queue_t &gt;</title>
<polygon fill="white" stroke="transparent" points="-4,4 -4,-181 147,-181 147,4 -4,4"/>
<!-- Node1 -->
<g id="node1" class="node">
<title>Node1</title>
<g id="a_node1"><a xlink:title="A C&#45;SVM implementation for all GPU backends to reduce code duplication.">
<polygon fill="#bfbfbf" stroke="black" points="10.5,-0.5 10.5,-41.5 132.5,-41.5 132.5,-0.5 10.5,-0.5"/>
<text text-anchor="start" x="18.5" y="-29.5" font-family="Helvetica,sans-Serif" font-size="10.00">plssvm::detail::gpu</text>
<text text-anchor="start" x="18.5" y="-18.5" font-family="Helvetica,sans-Serif" font-size="10.00">_csvm&lt; device_ptr_t,</text>
<text text-anchor="middle" x="71.5" y="-7.5" font-family="Helvetica,sans-Serif" font-size="10.00"> queue_t &gt;</text>
</a>
</g>
</g>
<!-- Node2 -->
<g id="node2" class="node">
<title>Node2</title>
<g id="a_node2"><a xlink:href="classplssvm_1_1csvm.html" target="_top" xlink:title="Base class for all C&#45;SVM backends.">
<polygon fill="white" stroke="black" points="29.5,-79.5 29.5,-98.5 113.5,-98.5 113.5,-79.5 29.5,-79.5"/>
<text text-anchor="middle" x="71.5" y="-86.5" font-family="Helvetica,sans-Serif" font-size="10.00">plssvm::csvm</text>
</a>
</g>
</g>
<!-- Node2&#45;&gt;Node1 -->
<g id="edge1" class="edge">
<title>Node2&#45;&gt;Node1</title>
<path fill="none" stroke="midnightblue" d="M71.5,-69.25C71.5,-60.65 71.5,-50.45 71.5,-41.74"/>
<polygon fill="midnightblue" stroke="midnightblue" points="68,-69.37 71.5,-79.37 75,-69.37 68,-69.37"/>
</g>
<!-- Node3 -->
<g id="node3" class="node">
<title>Node3</title>
<g id="a_node3"><a xlink:href="structplssvm_1_1detail_1_1parameter.html" target="_top" xlink:title=" ">
<polygon fill="white" stroke="black" points="0,-146.5 0,-176.5 143,-176.5 143,-146.5 0,-146.5"/>
<text text-anchor="start" x="8" y="-164.5" font-family="Helvetica,sans-Serif" font-size="10.00">plssvm::detail::parameter</text>
<text text-anchor="middle" x="71.5" y="-153.5" font-family="Helvetica,sans-Serif" font-size="10.00">&lt; double &gt;</text>
</a>
</g>
</g>
<!-- Node3&#45;&gt;Node2 -->
<g id="edge2" class="edge">
<title>Node3&#45;&gt;Node2</title>
<path fill="none" stroke="#9a32cd" stroke-dasharray="5,2" d="M71.5,-136.09C71.5,-123.21 71.5,-108.2 71.5,-98.89"/>
<polygon fill="#9a32cd" stroke="#9a32cd" points="68,-136.23 71.5,-146.23 75,-136.23 68,-136.23"/>
<text text-anchor="middle" x="94.5" y="-120" font-family="Helvetica,sans-Serif" font-size="10.00"> params_</text>
</g>
</g>
</svg>
