<?xml version="1.0" encoding="UTF-8" standalone="no"?>
<!DOCTYPE svg PUBLIC "-//W3C//DTD SVG 1.1//EN"
 "http://www.w3.org/Graphics/SVG/1.1/DTD/svg11.dtd">
<!-- Generated by graphviz version 2.43.0 (0)
 -->
<!-- Title: include/plssvm/backends/OpenCL/detail/command_queue.hpp Pages: 1 -->
<svg width="353pt" height="195pt"
 viewBox="0.00 0.00 353.00 195.00" xmlns="http://www.w3.org/2000/svg" xmlns:xlink="http://www.w3.org/1999/xlink">
<g id="graph0" class="graph" transform="scale(1 1) rotate(0) translate(4 191)">
<title>include/plssvm/backends/OpenCL/detail/command_queue.hpp</title>
<polygon fill="white" stroke="transparent" points="-4,4 -4,-191 349,-191 349,4 -4,4"/>
<!-- Node1 -->
<g id="node1" class="node">
<title>Node1</title>
<g id="a_node1"><a xlink:title="Defines a very small RAII wrapper around a cl_command_queue including information about its associate...">
<polygon fill="#bfbfbf" stroke="black" points="48.5,-145.5 48.5,-186.5 188.5,-186.5 188.5,-145.5 48.5,-145.5"/>
<text text-anchor="start" x="56.5" y="-174.5" font-family="Helvetica,sans-Serif" font-size="10.00">include/plssvm/backends</text>
<text text-anchor="start" x="56.5" y="-163.5" font-family="Helvetica,sans-Serif" font-size="10.00">/OpenCL/detail/command</text>
<text text-anchor="middle" x="118.5" y="-152.5" font-family="Helvetica,sans-Serif" font-size="10.00">_queue.hpp</text>
</a>
</g>
</g>
<!-- Node2 -->
<g id="node2" class="node">
<title>Node2</title>
<g id="a_node2"><a xlink:href="backends_2OpenCL_2csvm_8hpp.html" target="_top" xlink:title="Defines a C&#45;SVM using the OpenCL backend.">
<polygon fill="white" stroke="black" points="0,-0.5 0,-30.5 139,-30.5 139,-0.5 0,-0.5"/>
<text text-anchor="start" x="8" y="-18.5" font-family="Helvetica,sans-Serif" font-size="10.00">include/plssvm/backends</text>
<text text-anchor="middle" x="69.5" y="-7.5" font-family="Helvetica,sans-Serif" font-size="10.00">/OpenCL/csvm.hpp</text>
</a>
</g>
</g>
<!-- Node1&#45;&gt;Node2 -->
<g id="edge1" class="edge">
<title>Node1&#45;&gt;Node2</title>
<path fill="none" stroke="midnightblue" d="M67.76,-139.79C56.43,-131.61 45.9,-121.38 39.5,-109 25.93,-82.75 44.93,-49.17 58.32,-30.54"/>
<polygon fill="midnightblue" stroke="midnightblue" points="65.84,-142.72 76.1,-145.38 69.74,-136.91 65.84,-142.72"/>
</g>
<!-- Node3 -->
<g id="node3" class="node">
<title>Node3</title>
<g id="a_node3"><a xlink:href="OpenCL_2detail_2device__ptr_8hpp.html" target="_top" xlink:title="Small wrapper around a OpenCL device pointer.">
<polygon fill="white" stroke="black" points="49,-67.5 49,-108.5 188,-108.5 188,-67.5 49,-67.5"/>
<text text-anchor="start" x="57" y="-96.5" font-family="Helvetica,sans-Serif" font-size="10.00">include/plssvm/backends</text>
<text text-anchor="start" x="57" y="-85.5" font-family="Helvetica,sans-Serif" font-size="10.00">/OpenCL/detail/device</text>
<text text-anchor="middle" x="118.5" y="-74.5" font-family="Helvetica,sans-Serif" font-size="10.00">_ptr.hpp</text>
</a>
</g>
</g>
<!-- Node1&#45;&gt;Node3 -->
<g id="edge2" class="edge">
<title>Node1&#45;&gt;Node3</title>
<path fill="none" stroke="midnightblue" d="M118.5,-135.3C118.5,-126.3 118.5,-116.65 118.5,-108.51"/>
<polygon fill="midnightblue" stroke="midnightblue" points="115,-135.43 118.5,-145.43 122,-135.43 115,-135.43"/>
</g>
<!-- Node4 -->
<g id="node4" class="node">
<title>Node4</title>
<g id="a_node4"><a xlink:href="backends_2OpenCL_2detail_2utility_8hpp.html" target="_top" xlink:title="Utility functions specific to the OpenCL backend.">
<polygon fill="white" stroke="black" points="206,-73 206,-103 345,-103 345,-73 206,-73"/>
<text text-anchor="start" x="214" y="-91" font-family="Helvetica,sans-Serif" font-size="10.00">include/plssvm/backends</text>
<text text-anchor="middle" x="275.5" y="-80" font-family="Helvetica,sans-Serif" font-size="10.00">/OpenCL/detail/utility.hpp</text>
</a>
</g>
</g>
<!-- Node1&#45;&gt;Node4 -->
<g id="edge4" class="edge">
<title>Node1&#45;&gt;Node4</title>
<path fill="none" stroke="midnightblue" d="M168.14,-140.97C193.79,-128.55 224.21,-113.83 246.11,-103.23"/>
<polygon fill="midnightblue" stroke="midnightblue" points="166.41,-137.92 158.93,-145.43 169.46,-144.22 166.41,-137.92"/>
</g>
<!-- Node3&#45;&gt;Node2 -->
<g id="edge3" class="edge">
<title>Node3&#45;&gt;Node2</title>
<path fill="none" stroke="midnightblue" d="M99.14,-59.14C92.42,-49.47 85.16,-39.02 79.5,-30.89"/>
<polygon fill="midnightblue" stroke="midnightblue" points="96.27,-61.15 104.85,-67.36 102.02,-57.15 96.27,-61.15"/>
</g>
</g>
</svg>
