<?xml version="1.0" encoding="UTF-8" standalone="no"?>
<!DOCTYPE svg PUBLIC "-//W3C//DTD SVG 1.1//EN"
 "http://www.w3.org/Graphics/SVG/1.1/DTD/svg11.dtd">
<!-- Generated by graphviz version 2.43.0 (0)
 -->
<!-- Title: include/plssvm/constants.hpp Pages: 1 -->
<svg width="1960pt" height="162pt"
 viewBox="0.00 0.00 1959.50 162.00" xmlns="http://www.w3.org/2000/svg" xmlns:xlink="http://www.w3.org/1999/xlink">
<g id="graph0" class="graph" transform="scale(1 1) rotate(0) translate(4 158)">
<title>include/plssvm/constants.hpp</title>
<polygon fill="white" stroke="transparent" points="-4,4 -4,-158 1955.5,-158 1955.5,4 -4,4"/>
<!-- Node1 -->
<g id="node1" class="node">
<title>Node1</title>
<g id="a_node1"><a xlink:title="Global type definitions and compile&#45;time constants.">
<polygon fill="#bfbfbf" stroke="black" points="861.5,-134.5 861.5,-153.5 1022.5,-153.5 1022.5,-134.5 861.5,-134.5"/>
<text text-anchor="middle" x="942" y="-141.5" font-family="Helvetica,sans-Serif" font-size="10.00">include/plssvm/constants.hpp</text>
</a>
</g>
</g>
<!-- Node2 -->
<g id="node2" class="node">
<title>Node2</title>
<g id="a_node2"><a xlink:href="predict__kernel_8cuh.html" target="_top" xlink:title="Defines the functions used for prediction for the C&#45;SVM using the CUDA backend.">
<polygon fill="white" stroke="black" points="0,-67.5 0,-97.5 140,-97.5 140,-67.5 0,-67.5"/>
<text text-anchor="start" x="8" y="-85.5" font-family="Helvetica,sans-Serif" font-size="10.00">include/plssvm/backends</text>
<text text-anchor="middle" x="70" y="-74.5" font-family="Helvetica,sans-Serif" font-size="10.00">/CUDA/predict_kernel.cuh</text>
</a>
</g>
</g>
<!-- Node1&#45;&gt;Node2 -->
<g id="edge1" class="edge">
<title>Node1&#45;&gt;Node2</title>
<path fill="none" stroke="midnightblue" d="M850.85,-141.52C703.03,-138.29 402.04,-128.28 149,-98 146.09,-97.65 143.13,-97.26 140.14,-96.84"/>
<polygon fill="midnightblue" stroke="midnightblue" points="851.15,-145.03 861.22,-141.74 851.3,-138.03 851.15,-145.03"/>
</g>
<!-- Node3 -->
<g id="node3" class="node">
<title>Node3</title>
<g id="a_node3"><a xlink:href="q__kernel_8cuh.html" target="_top" xlink:title="Defines CUDA functions for generating the q vector.">
<polygon fill="white" stroke="black" points="158.5,-67.5 158.5,-97.5 297.5,-97.5 297.5,-67.5 158.5,-67.5"/>
<text text-anchor="start" x="166.5" y="-85.5" font-family="Helvetica,sans-Serif" font-size="10.00">include/plssvm/backends</text>
<text text-anchor="middle" x="228" y="-74.5" font-family="Helvetica,sans-Serif" font-size="10.00">/CUDA/q_kernel.cuh</text>
</a>
</g>
</g>
<!-- Node1&#45;&gt;Node3 -->
<g id="edge2" class="edge">
<title>Node1&#45;&gt;Node3</title>
<path fill="none" stroke="midnightblue" d="M851.21,-139.81C727.52,-134.73 499.3,-122.72 306,-98 303.27,-97.65 300.49,-97.27 297.68,-96.86"/>
<polygon fill="midnightblue" stroke="midnightblue" points="851.26,-143.31 861.39,-140.22 851.54,-136.32 851.26,-143.31"/>
</g>
<!-- Node4 -->
<g id="node4" class="node">
<title>Node4</title>
<g id="a_node4"><a xlink:href="svm__kernel_8cuh.html" target="_top" xlink:title="Defines the kernel functions for the C&#45;SVM using the CUDA backend.">
<polygon fill="white" stroke="black" points="315.5,-67.5 315.5,-97.5 454.5,-97.5 454.5,-67.5 315.5,-67.5"/>
<text text-anchor="start" x="323.5" y="-85.5" font-family="Helvetica,sans-Serif" font-size="10.00">include/plssvm/backends</text>
<text text-anchor="middle" x="385" y="-74.5" font-family="Helvetica,sans-Serif" font-size="10.00">/CUDA/svm_kernel.cuh</text>
</a>
</g>
</g>
<!-- Node1&#45;&gt;Node4 -->
<g id="edge3" class="edge">
<title>Node1&#45;&gt;Node4</title>
<path fill="none" stroke="midnightblue" d="M851.41,-136.85C755.07,-129.75 598.37,-116.62 464,-98 460.96,-97.58 457.86,-97.12 454.73,-96.64"/>
<polygon fill="midnightblue" stroke="midnightblue" points="851.18,-140.34 861.4,-137.58 851.69,-133.36 851.18,-140.34"/>
</g>
<!-- Node5 -->
<g id="node5" class="node">
<title>Node5</title>
<g id="a_node5"><a xlink:href="gpu__csvm_8hpp.html" target="_top" xlink:title="Defines the base class for all C&#45;SVM backends using a GPU. Used for code duplication reduction.">
<polygon fill="white" stroke="black" points="472.5,-67.5 472.5,-97.5 611.5,-97.5 611.5,-67.5 472.5,-67.5"/>
<text text-anchor="start" x="480.5" y="-85.5" font-family="Helvetica,sans-Serif" font-size="10.00">include/plssvm/backends</text>
<text text-anchor="middle" x="542" y="-74.5" font-family="Helvetica,sans-Serif" font-size="10.00">/gpu_csvm.hpp</text>
</a>
</g>
</g>
<!-- Node1&#45;&gt;Node5 -->
<g id="edge4" class="edge">
<title>Node1&#45;&gt;Node5</title>
<path fill="none" stroke="midnightblue" d="M864.99,-133.13C799.88,-124.57 704.18,-111.46 621,-98 617.97,-97.51 614.88,-97 611.76,-96.47"/>
<polygon fill="midnightblue" stroke="midnightblue" points="864.8,-136.64 875.17,-134.47 865.71,-129.7 864.8,-136.64"/>
</g>
<!-- Node11 -->
<g id="node11" class="node">
<title>Node11</title>
<g id="a_node11"><a xlink:href="predict__kernel_8hip_8hpp.html" target="_top" xlink:title="Defines the functions used for prediction for the C&#45;SVM using the HIP backend.">
<polygon fill="white" stroke="black" points="629.5,-67.5 629.5,-97.5 776.5,-97.5 776.5,-67.5 629.5,-67.5"/>
<text text-anchor="start" x="637.5" y="-85.5" font-family="Helvetica,sans-Serif" font-size="10.00">include/plssvm/backends</text>
<text text-anchor="middle" x="703" y="-74.5" font-family="Helvetica,sans-Serif" font-size="10.00">/HIP/predict_kernel.hip.hpp</text>
</a>
</g>
</g>
<!-- Node1&#45;&gt;Node11 -->
<g id="edge10" class="edge">
<title>Node1&#45;&gt;Node11</title>
<path fill="none" stroke="midnightblue" d="M897.75,-131.98C858.71,-122.27 801.61,-108.05 759.33,-97.52"/>
<polygon fill="midnightblue" stroke="midnightblue" points="897.21,-135.46 907.76,-134.48 898.9,-128.66 897.21,-135.46"/>
</g>
<!-- Node12 -->
<g id="node12" class="node">
<title>Node12</title>
<g id="a_node12"><a xlink:href="q__kernel_8hip_8hpp.html" target="_top" xlink:title="Defines HIP functions for generating the q vector.">
<polygon fill="white" stroke="black" points="794.5,-67.5 794.5,-97.5 933.5,-97.5 933.5,-67.5 794.5,-67.5"/>
<text text-anchor="start" x="802.5" y="-85.5" font-family="Helvetica,sans-Serif" font-size="10.00">include/plssvm/backends</text>
<text text-anchor="middle" x="864" y="-74.5" font-family="Helvetica,sans-Serif" font-size="10.00">/HIP/q_kernel.hip.hpp</text>
</a>
</g>
</g>
<!-- Node1&#45;&gt;Node12 -->
<g id="edge11" class="edge">
<title>Node1&#45;&gt;Node12</title>
<path fill="none" stroke="midnightblue" d="M922.59,-128.2C910.29,-118.81 894.48,-106.75 882.38,-97.52"/>
<polygon fill="midnightblue" stroke="midnightblue" points="920.75,-131.19 930.82,-134.48 925,-125.63 920.75,-131.19"/>
</g>
<!-- Node13 -->
<g id="node13" class="node">
<title>Node13</title>
<g id="a_node13"><a xlink:href="svm__kernel_8hip_8hpp.html" target="_top" xlink:title="Defines the kernel functions for the C&#45;SVM using the HIP backend.">
<polygon fill="white" stroke="black" points="951.5,-67.5 951.5,-97.5 1090.5,-97.5 1090.5,-67.5 951.5,-67.5"/>
<text text-anchor="start" x="959.5" y="-85.5" font-family="Helvetica,sans-Serif" font-size="10.00">include/plssvm/backends</text>
<text text-anchor="middle" x="1021" y="-74.5" font-family="Helvetica,sans-Serif" font-size="10.00">/HIP/svm_kernel.hip.hpp</text>
</a>
</g>
</g>
<!-- Node1&#45;&gt;Node13 -->
<g id="edge12" class="edge">
<title>Node1&#45;&gt;Node13</title>
<path fill="none" stroke="midnightblue" d="M961.66,-128.2C974.11,-118.81 990.13,-106.75 1002.38,-97.52"/>
<polygon fill="midnightblue" stroke="midnightblue" points="959.2,-125.66 953.32,-134.48 963.41,-131.25 959.2,-125.66"/>
</g>
<!-- Node14 -->
<g id="node14" class="node">
<title>Node14</title>
<g id="a_node14"><a xlink:href="predict__kernel_8hpp.html" target="_top" xlink:title="Defines the functions used for prediction for the C&#45;SVM using the SYCL backend.">
<polygon fill="white" stroke="black" points="1108.5,-67.5 1108.5,-97.5 1247.5,-97.5 1247.5,-67.5 1108.5,-67.5"/>
<text text-anchor="start" x="1116.5" y="-85.5" font-family="Helvetica,sans-Serif" font-size="10.00">include/plssvm/backends</text>
<text text-anchor="middle" x="1178" y="-74.5" font-family="Helvetica,sans-Serif" font-size="10.00">/SYCL/predict_kernel.hpp</text>
</a>
</g>
</g>
<!-- Node1&#45;&gt;Node14 -->
<g id="edge13" class="edge">
<title>Node1&#45;&gt;Node14</title>
<path fill="none" stroke="midnightblue" d="M985.7,-131.98C1024.24,-122.27 1080.62,-108.05 1122.38,-97.52"/>
<polygon fill="midnightblue" stroke="midnightblue" points="984.65,-128.64 975.81,-134.48 986.37,-135.42 984.65,-128.64"/>
</g>
<!-- Node15 -->
<g id="node15" class="node">
<title>Node15</title>
<g id="a_node15"><a xlink:href="SYCL_2q__kernel_8hpp.html" target="_top" xlink:title="Defines SYCL functions for generating the q vector.">
<polygon fill="white" stroke="black" points="1265.5,-67.5 1265.5,-97.5 1404.5,-97.5 1404.5,-67.5 1265.5,-67.5"/>
<text text-anchor="start" x="1273.5" y="-85.5" font-family="Helvetica,sans-Serif" font-size="10.00">include/plssvm/backends</text>
<text text-anchor="middle" x="1335" y="-74.5" font-family="Helvetica,sans-Serif" font-size="10.00">/SYCL/q_kernel.hpp</text>
</a>
</g>
</g>
<!-- Node1&#45;&gt;Node15 -->
<g id="edge14" class="edge">
<title>Node1&#45;&gt;Node15</title>
<path fill="none" stroke="midnightblue" d="M1017.27,-133.15C1081.17,-124.57 1175.25,-111.43 1257,-98 1259.72,-97.55 1262.49,-97.09 1265.28,-96.61"/>
<polygon fill="midnightblue" stroke="midnightblue" points="1016.72,-129.69 1007.28,-134.49 1017.65,-136.63 1016.72,-129.69"/>
</g>
<!-- Node16 -->
<g id="node16" class="node">
<title>Node16</title>
<g id="a_node16"><a xlink:href="svm__kernel__hierarchical_8hpp.html" target="_top" xlink:title="Defines the kernel functions for the C&#45;SVM using the SYCL backend.">
<polygon fill="white" stroke="black" points="1422.5,-67.5 1422.5,-97.5 1607.5,-97.5 1607.5,-67.5 1422.5,-67.5"/>
<text text-anchor="start" x="1430.5" y="-85.5" font-family="Helvetica,sans-Serif" font-size="10.00">include/plssvm/backends</text>
<text text-anchor="middle" x="1515" y="-74.5" font-family="Helvetica,sans-Serif" font-size="10.00">/SYCL/svm_kernel_hierarchical.hpp</text>
</a>
</g>
</g>
<!-- Node1&#45;&gt;Node16 -->
<g id="edge15" class="edge">
<title>Node1&#45;&gt;Node16</title>
<path fill="none" stroke="midnightblue" d="M1032.88,-135.63C1128.03,-127.6 1281.71,-113.79 1414,-98 1416.73,-97.67 1419.49,-97.34 1422.28,-96.99"/>
<polygon fill="midnightblue" stroke="midnightblue" points="1032.39,-132.15 1022.72,-136.48 1032.98,-139.13 1032.39,-132.15"/>
</g>
<!-- Node17 -->
<g id="node17" class="node">
<title>Node17</title>
<g id="a_node17"><a xlink:href="svm__kernel__nd__range_8hpp.html" target="_top" xlink:title="Defines the kernel functions for the C&#45;SVM in the nd_range formulation using the SYCL backend.">
<polygon fill="white" stroke="black" points="1625.5,-67.5 1625.5,-97.5 1798.5,-97.5 1798.5,-67.5 1625.5,-67.5"/>
<text text-anchor="start" x="1633.5" y="-85.5" font-family="Helvetica,sans-Serif" font-size="10.00">include/plssvm/backends</text>
<text text-anchor="middle" x="1712" y="-74.5" font-family="Helvetica,sans-Serif" font-size="10.00">/SYCL/svm_kernel_nd_range.hpp</text>
</a>
</g>
</g>
<!-- Node1&#45;&gt;Node17 -->
<g id="edge16" class="edge">
<title>Node1&#45;&gt;Node17</title>
<path fill="none" stroke="midnightblue" d="M1033.01,-139.39C1162.87,-133.68 1408.7,-120.8 1617,-98 1619.74,-97.7 1622.51,-97.38 1625.32,-97.04"/>
<polygon fill="midnightblue" stroke="midnightblue" points="1032.56,-135.9 1022.72,-139.84 1032.86,-142.9 1032.56,-135.9"/>
</g>
<!-- Node18 -->
<g id="node18" class="node">
<title>Node18</title>
<g id="a_node18"><a xlink:href="core_8hpp.html" target="_top" xlink:title="Core header including all other necessary headers.">
<polygon fill="white" stroke="black" points="1816.5,-73 1816.5,-92 1951.5,-92 1951.5,-73 1816.5,-73"/>
<text text-anchor="middle" x="1884" y="-80" font-family="Helvetica,sans-Serif" font-size="10.00">include/plssvm/core.hpp</text>
</a>
</g>
</g>
<!-- Node1&#45;&gt;Node18 -->
<g id="edge17" class="edge">
<title>Node1&#45;&gt;Node18</title>
<path fill="none" stroke="midnightblue" d="M1032.76,-142.35C1190.82,-140.32 1526.65,-131.99 1808,-98 1820,-96.55 1832.96,-94.33 1844.71,-92.05"/>
<polygon fill="midnightblue" stroke="midnightblue" points="1032.56,-138.86 1022.61,-142.48 1032.65,-145.86 1032.56,-138.86"/>
</g>
<!-- Node6 -->
<g id="node6" class="node">
<title>Node6</title>
<g id="a_node6"><a xlink:href="backends_2CUDA_2csvm_8hpp.html" target="_top" xlink:title="Defines a C&#45;SVM using the CUDA backend.">
<polygon fill="white" stroke="black" points="158.5,-0.5 158.5,-30.5 297.5,-30.5 297.5,-0.5 158.5,-0.5"/>
<text text-anchor="start" x="166.5" y="-18.5" font-family="Helvetica,sans-Serif" font-size="10.00">include/plssvm/backends</text>
<text text-anchor="middle" x="228" y="-7.5" font-family="Helvetica,sans-Serif" font-size="10.00">/CUDA/csvm.hpp</text>
</a>
</g>
</g>
<!-- Node5&#45;&gt;Node6 -->
<g id="edge5" class="edge">
<title>Node5&#45;&gt;Node6</title>
<path fill="none" stroke="midnightblue" d="M464.14,-65.38C412.49,-54.69 345.37,-40.8 295.9,-30.55"/>
<polygon fill="midnightblue" stroke="midnightblue" points="463.75,-68.88 474.25,-67.48 465.17,-62.02 463.75,-68.88"/>
</g>
<!-- Node7 -->
<g id="node7" class="node">
<title>Node7</title>
<g id="a_node7"><a xlink:href="backends_2HIP_2csvm_8hpp.html" target="_top" xlink:title="Defines a C&#45;SVM using the HIP backend.">
<polygon fill="white" stroke="black" points="315.5,-0.5 315.5,-30.5 454.5,-30.5 454.5,-0.5 315.5,-0.5"/>
<text text-anchor="start" x="323.5" y="-18.5" font-family="Helvetica,sans-Serif" font-size="10.00">include/plssvm/backends</text>
<text text-anchor="middle" x="385" y="-7.5" font-family="Helvetica,sans-Serif" font-size="10.00">/HIP/csvm.hpp</text>
</a>
</g>
</g>
<!-- Node5&#45;&gt;Node7 -->
<g id="edge6" class="edge">
<title>Node5&#45;&gt;Node7</title>
<path fill="none" stroke="midnightblue" d="M498.63,-63.54C473.51,-53.14 442.34,-40.24 419,-30.58"/>
<polygon fill="midnightblue" stroke="midnightblue" points="497.36,-66.8 507.93,-67.4 500.03,-60.34 497.36,-66.8"/>
</g>
<!-- Node8 -->
<g id="node8" class="node">
<title>Node8</title>
<g id="a_node8"><a xlink:href="backends_2OpenCL_2csvm_8hpp.html" target="_top" xlink:title="Defines a C&#45;SVM using the OpenCL backend.">
<polygon fill="white" stroke="black" points="472.5,-0.5 472.5,-30.5 611.5,-30.5 611.5,-0.5 472.5,-0.5"/>
<text text-anchor="start" x="480.5" y="-18.5" font-family="Helvetica,sans-Serif" font-size="10.00">include/plssvm/backends</text>
<text text-anchor="middle" x="542" y="-7.5" font-family="Helvetica,sans-Serif" font-size="10.00">/OpenCL/csvm.hpp</text>
</a>
</g>
</g>
<!-- Node5&#45;&gt;Node8 -->
<g id="edge7" class="edge">
<title>Node5&#45;&gt;Node8</title>
<path fill="none" stroke="midnightblue" d="M542,-57.11C542,-48.15 542,-38.32 542,-30.58"/>
<polygon fill="midnightblue" stroke="midnightblue" points="538.5,-57.4 542,-67.4 545.5,-57.4 538.5,-57.4"/>
</g>
<!-- Node9 -->
<g id="node9" class="node">
<title>Node9</title>
<g id="a_node9"><a xlink:href="backends_2SYCL_2DPCPP_2csvm_8hpp.html" target="_top" xlink:title="Defines a base C&#45;SVM used for the different SYCL backends using DPC++ as SYCL implementation.">
<polygon fill="white" stroke="black" points="629.5,-0.5 629.5,-30.5 768.5,-30.5 768.5,-0.5 629.5,-0.5"/>
<text text-anchor="start" x="637.5" y="-18.5" font-family="Helvetica,sans-Serif" font-size="10.00">include/plssvm/backends</text>
<text text-anchor="middle" x="699" y="-7.5" font-family="Helvetica,sans-Serif" font-size="10.00">/SYCL/DPCPP/csvm.hpp</text>
</a>
</g>
</g>
<!-- Node5&#45;&gt;Node9 -->
<g id="edge8" class="edge">
<title>Node5&#45;&gt;Node9</title>
<path fill="none" stroke="midnightblue" d="M585.37,-63.54C610.49,-53.14 641.66,-40.24 665,-30.58"/>
<polygon fill="midnightblue" stroke="midnightblue" points="583.97,-60.34 576.07,-67.4 586.64,-66.8 583.97,-60.34"/>
</g>
<!-- Node10 -->
<g id="node10" class="node">
<title>Node10</title>
<g id="a_node10"><a xlink:href="backends_2SYCL_2hipSYCL_2csvm_8hpp.html" target="_top" xlink:title="Defines a base C&#45;SVM used for the different SYCL backends using hipSYCL as SYCL implementation.">
<polygon fill="white" stroke="black" points="786.5,-0.5 786.5,-30.5 925.5,-30.5 925.5,-0.5 786.5,-0.5"/>
<text text-anchor="start" x="794.5" y="-18.5" font-family="Helvetica,sans-Serif" font-size="10.00">include/plssvm/backends</text>
<text text-anchor="middle" x="856" y="-7.5" font-family="Helvetica,sans-Serif" font-size="10.00">/SYCL/hipSYCL/csvm.hpp</text>
</a>
</g>
</g>
<!-- Node5&#45;&gt;Node10 -->
<g id="edge9" class="edge">
<title>Node5&#45;&gt;Node10</title>
<path fill="none" stroke="midnightblue" d="M619.86,-65.38C671.51,-54.69 738.63,-40.8 788.1,-30.55"/>
<polygon fill="midnightblue" stroke="midnightblue" points="618.83,-62.02 609.75,-67.48 620.25,-68.88 618.83,-62.02"/>
</g>
</g>
</svg>
