<?xml version="1.0" encoding="UTF-8" standalone="no"?>
<!DOCTYPE svg PUBLIC "-//W3C//DTD SVG 1.1//EN"
 "http://www.w3.org/Graphics/SVG/1.1/DTD/svg11.dtd">
<!-- Generated by graphviz version 2.43.0 (0)
 -->
<!-- Title: include/plssvm/constants.hpp Pages: 1 -->
<svg width="1960pt" height="162pt"
 viewBox="0.00 0.00 1959.50 162.00" xmlns="http://www.w3.org/2000/svg" xmlns:xlink="http://www.w3.org/1999/xlink">
<g id="graph0" class="graph" transform="scale(1 1) rotate(0) translate(4 158)">
<title>include/plssvm/constants.hpp</title>
<polygon fill="white" stroke="transparent" points="-4,4 -4,-158 1955.5,-158 1955.5,4 -4,4"/>
<!-- Node1 -->
<g id="node1" class="node">
<title>Node1</title>
<g id="a_node1"><a xlink:title="Global type definitions and compile&#45;time constants.">
<polygon fill="#bfbfbf" stroke="black" points="859.5,-134.5 859.5,-153.5 1020.5,-153.5 1020.5,-134.5 859.5,-134.5"/>
<text text-anchor="middle" x="940" y="-141.5" font-family="Helvetica,sans-Serif" font-size="10.00">include/plssvm/constants.hpp</text>
</a>
</g>
</g>
<!-- Node2 -->
<g id="node2" class="node">
<title>Node2</title>
<g id="a_node2"><a xlink:href="predict__kernel_8cuh.html" target="_top" xlink:title="Defines the functions used for prediction for the C&#45;SVM using the CUDA backend.">
<polygon fill="white" stroke="black" points="0,-67.5 0,-97.5 140,-97.5 140,-67.5 0,-67.5"/>
<text text-anchor="start" x="8" y="-85.5" font-family="Helvetica,sans-Serif" font-size="10.00">include/plssvm/backends</text>
<text text-anchor="middle" x="70" y="-74.5" font-family="Helvetica,sans-Serif" font-size="10.00">/CUDA/predict_kernel.cuh</text>
</a>
</g>
</g>
<!-- Node1&#45;&gt;Node2 -->
<g id="edge1" class="edge">
<title>Node1&#45;&gt;Node2</title>
<path fill="none" stroke="midnightblue" d="M849.08,-141.51C701.63,-138.26 401.41,-128.22 149,-98 146.09,-97.65 143.13,-97.26 140.14,-96.84"/>
<polygon fill="midnightblue" stroke="midnightblue" points="849.36,-145.01 859.43,-141.73 849.51,-138.02 849.36,-145.01"/>
</g>
<!-- Node3 -->
<g id="node3" class="node">
<title>Node3</title>
<g id="a_node3"><a xlink:href="q__kernel_8cuh.html" target="_top" xlink:title="Defines CUDA functions for generating the q vector.">
<polygon fill="white" stroke="black" points="158.5,-67.5 158.5,-97.5 297.5,-97.5 297.5,-67.5 158.5,-67.5"/>
<text text-anchor="start" x="166.5" y="-85.5" font-family="Helvetica,sans-Serif" font-size="10.00">include/plssvm/backends</text>
<text text-anchor="middle" x="228" y="-74.5" font-family="Helvetica,sans-Serif" font-size="10.00">/CUDA/q_kernel.cuh</text>
</a>
</g>
</g>
<!-- Node1&#45;&gt;Node3 -->
<g id="edge2" class="edge">
<title>Node1&#45;&gt;Node3</title>
<path fill="none" stroke="midnightblue" d="M849.24,-139.78C725.88,-134.67 498.56,-122.65 306,-98 303.27,-97.65 300.49,-97.27 297.68,-96.86"/>
<polygon fill="midnightblue" stroke="midnightblue" points="849.26,-143.29 859.4,-140.2 849.55,-136.29 849.26,-143.29"/>
</g>
<!-- Node4 -->
<g id="node4" class="node">
<title>Node4</title>
<g id="a_node4"><a xlink:href="svm__kernel_8cuh.html" target="_top" xlink:title="Defines the kernel functions for the C&#45;SVM using the CUDA backend.">
<polygon fill="white" stroke="black" points="315.5,-67.5 315.5,-97.5 454.5,-97.5 454.5,-67.5 315.5,-67.5"/>
<text text-anchor="start" x="323.5" y="-85.5" font-family="Helvetica,sans-Serif" font-size="10.00">include/plssvm/backends</text>
<text text-anchor="middle" x="385" y="-74.5" font-family="Helvetica,sans-Serif" font-size="10.00">/CUDA/svm_kernel.cuh</text>
</a>
</g>
</g>
<!-- Node1&#45;&gt;Node4 -->
<g id="edge3" class="edge">
<title>Node1&#45;&gt;Node4</title>
<path fill="none" stroke="midnightblue" d="M849.07,-136.77C753.07,-129.65 597.47,-116.52 464,-98 460.96,-97.58 457.86,-97.12 454.73,-96.64"/>
<polygon fill="midnightblue" stroke="midnightblue" points="849.09,-140.29 859.32,-137.53 849.6,-133.3 849.09,-140.29"/>
</g>
<!-- Node5 -->
<g id="node5" class="node">
<title>Node5</title>
<g id="a_node5"><a xlink:href="gpu__csvm_8hpp.html" target="_top" xlink:title="Defines the base class for all C&#45;SVM backends using a GPU. Used for code duplication reduction.">
<polygon fill="white" stroke="black" points="472.5,-67.5 472.5,-97.5 611.5,-97.5 611.5,-67.5 472.5,-67.5"/>
<text text-anchor="start" x="480.5" y="-85.5" font-family="Helvetica,sans-Serif" font-size="10.00">include/plssvm/backends</text>
<text text-anchor="middle" x="542" y="-74.5" font-family="Helvetica,sans-Serif" font-size="10.00">/gpu_csvm.hpp</text>
</a>
</g>
</g>
<!-- Node1&#45;&gt;Node5 -->
<g id="edge4" class="edge">
<title>Node1&#45;&gt;Node5</title>
<path fill="none" stroke="midnightblue" d="M863.78,-133.15C799.07,-124.57 703.8,-111.43 621,-98 617.97,-97.51 614.88,-96.99 611.76,-96.47"/>
<polygon fill="midnightblue" stroke="midnightblue" points="863.52,-136.65 873.9,-134.49 864.44,-129.71 863.52,-136.65"/>
</g>
<!-- Node11 -->
<g id="node11" class="node">
<title>Node11</title>
<g id="a_node11"><a xlink:href="q__kernel_8hip_8hpp.html" target="_top" xlink:title="Defines HIP functions for generating the q vector.">
<polygon fill="white" stroke="black" points="629.5,-67.5 629.5,-97.5 768.5,-97.5 768.5,-67.5 629.5,-67.5"/>
<text text-anchor="start" x="637.5" y="-85.5" font-family="Helvetica,sans-Serif" font-size="10.00">include/plssvm/backends</text>
<text text-anchor="middle" x="699" y="-74.5" font-family="Helvetica,sans-Serif" font-size="10.00">/HIP/q_kernel.hip.hpp</text>
</a>
</g>
</g>
<!-- Node1&#45;&gt;Node11 -->
<g id="edge10" class="edge">
<title>Node1&#45;&gt;Node11</title>
<path fill="none" stroke="midnightblue" d="M895.63,-132.05C856.26,-122.33 798.53,-108.07 755.8,-97.52"/>
<polygon fill="midnightblue" stroke="midnightblue" points="894.92,-135.48 905.47,-134.48 896.6,-128.68 894.92,-135.48"/>
</g>
<!-- Node12 -->
<g id="node12" class="node">
<title>Node12</title>
<g id="a_node12"><a xlink:href="predict__kernel_8hip_8hpp.html" target="_top" xlink:title="Defines the functions used for prediction for the C&#45;SVM using the HIP backend.">
<polygon fill="white" stroke="black" points="786.5,-67.5 786.5,-97.5 933.5,-97.5 933.5,-67.5 786.5,-67.5"/>
<text text-anchor="start" x="794.5" y="-85.5" font-family="Helvetica,sans-Serif" font-size="10.00">include/plssvm/backends</text>
<text text-anchor="middle" x="860" y="-74.5" font-family="Helvetica,sans-Serif" font-size="10.00">/HIP/predict_kernel.hip.hpp</text>
</a>
</g>
</g>
<!-- Node1&#45;&gt;Node12 -->
<g id="edge11" class="edge">
<title>Node1&#45;&gt;Node12</title>
<path fill="none" stroke="midnightblue" d="M920.46,-128.47C907.79,-119.05 891.38,-106.84 878.85,-97.52"/>
<polygon fill="midnightblue" stroke="midnightblue" points="918.43,-131.32 928.54,-134.48 922.6,-125.7 918.43,-131.32"/>
</g>
<!-- Node13 -->
<g id="node13" class="node">
<title>Node13</title>
<g id="a_node13"><a xlink:href="svm__kernel_8hip_8hpp.html" target="_top" xlink:title="Defines the kernel functions for the C&#45;SVM using the HIP backend.">
<polygon fill="white" stroke="black" points="951.5,-67.5 951.5,-97.5 1090.5,-97.5 1090.5,-67.5 951.5,-67.5"/>
<text text-anchor="start" x="959.5" y="-85.5" font-family="Helvetica,sans-Serif" font-size="10.00">include/plssvm/backends</text>
<text text-anchor="middle" x="1021" y="-74.5" font-family="Helvetica,sans-Serif" font-size="10.00">/HIP/svm_kernel.hip.hpp</text>
</a>
</g>
</g>
<!-- Node1&#45;&gt;Node13 -->
<g id="edge12" class="edge">
<title>Node1&#45;&gt;Node13</title>
<path fill="none" stroke="midnightblue" d="M959.78,-128.47C972.61,-119.05 989.23,-106.84 1001.91,-97.52"/>
<polygon fill="midnightblue" stroke="midnightblue" points="957.59,-125.73 951.61,-134.48 961.74,-131.38 957.59,-125.73"/>
</g>
<!-- Node14 -->
<g id="node14" class="node">
<title>Node14</title>
<g id="a_node14"><a xlink:href="predict__kernel_8hpp.html" target="_top" xlink:title="Defines the functions used for prediction for the C&#45;SVM using the SYCL backend.">
<polygon fill="white" stroke="black" points="1108.5,-67.5 1108.5,-97.5 1247.5,-97.5 1247.5,-67.5 1108.5,-67.5"/>
<text text-anchor="start" x="1116.5" y="-85.5" font-family="Helvetica,sans-Serif" font-size="10.00">include/plssvm/backends</text>
<text text-anchor="middle" x="1178" y="-74.5" font-family="Helvetica,sans-Serif" font-size="10.00">/SYCL/predict_kernel.hpp</text>
</a>
</g>
</g>
<!-- Node1&#45;&gt;Node14 -->
<g id="edge13" class="edge">
<title>Node1&#45;&gt;Node14</title>
<path fill="none" stroke="midnightblue" d="M984.07,-131.98C1022.94,-122.27 1079.8,-108.05 1121.91,-97.52"/>
<polygon fill="midnightblue" stroke="midnightblue" points="982.95,-128.65 974.1,-134.48 984.65,-135.45 982.95,-128.65"/>
</g>
<!-- Node15 -->
<g id="node15" class="node">
<title>Node15</title>
<g id="a_node15"><a xlink:href="SYCL_2q__kernel_8hpp.html" target="_top" xlink:title="Defines SYCL functions for generating the q vector.">
<polygon fill="white" stroke="black" points="1265.5,-67.5 1265.5,-97.5 1404.5,-97.5 1404.5,-67.5 1265.5,-67.5"/>
<text text-anchor="start" x="1273.5" y="-85.5" font-family="Helvetica,sans-Serif" font-size="10.00">include/plssvm/backends</text>
<text text-anchor="middle" x="1335" y="-74.5" font-family="Helvetica,sans-Serif" font-size="10.00">/SYCL/q_kernel.hpp</text>
</a>
</g>
</g>
<!-- Node1&#45;&gt;Node15 -->
<g id="edge14" class="edge">
<title>Node1&#45;&gt;Node15</title>
<path fill="none" stroke="midnightblue" d="M1016.05,-133.13C1080.36,-124.57 1174.86,-111.46 1257,-98 1259.72,-97.55 1262.49,-97.09 1265.28,-96.61"/>
<polygon fill="midnightblue" stroke="midnightblue" points="1015.45,-129.68 1006,-134.47 1016.37,-136.62 1015.45,-129.68"/>
</g>
<!-- Node16 -->
<g id="node16" class="node">
<title>Node16</title>
<g id="a_node16"><a xlink:href="svm__kernel__hierarchical_8hpp.html" target="_top" xlink:title="Defines the kernel functions for the C&#45;SVM using the SYCL backend.">
<polygon fill="white" stroke="black" points="1422.5,-67.5 1422.5,-97.5 1607.5,-97.5 1607.5,-67.5 1422.5,-67.5"/>
<text text-anchor="start" x="1430.5" y="-85.5" font-family="Helvetica,sans-Serif" font-size="10.00">include/plssvm/backends</text>
<text text-anchor="middle" x="1515" y="-74.5" font-family="Helvetica,sans-Serif" font-size="10.00">/SYCL/svm_kernel_hierarchical.hpp</text>
</a>
</g>
</g>
<!-- Node1&#45;&gt;Node16 -->
<g id="edge15" class="edge">
<title>Node1&#45;&gt;Node16</title>
<path fill="none" stroke="midnightblue" d="M1030.84,-135.68C1126.36,-127.67 1280.95,-113.86 1414,-98 1416.73,-97.68 1419.49,-97.34 1422.28,-96.99"/>
<polygon fill="midnightblue" stroke="midnightblue" points="1030.31,-132.21 1020.64,-136.53 1030.9,-139.19 1030.31,-132.21"/>
</g>
<!-- Node17 -->
<g id="node17" class="node">
<title>Node17</title>
<g id="a_node17"><a xlink:href="svm__kernel__nd__range_8hpp.html" target="_top" xlink:title="Defines the kernel functions for the C&#45;SVM in the nd_range formulation using the SYCL backend.">
<polygon fill="white" stroke="black" points="1625.5,-67.5 1625.5,-97.5 1798.5,-97.5 1798.5,-67.5 1625.5,-67.5"/>
<text text-anchor="start" x="1633.5" y="-85.5" font-family="Helvetica,sans-Serif" font-size="10.00">include/plssvm/backends</text>
<text text-anchor="middle" x="1712" y="-74.5" font-family="Helvetica,sans-Serif" font-size="10.00">/SYCL/svm_kernel_nd_range.hpp</text>
</a>
</g>
</g>
<!-- Node1&#45;&gt;Node17 -->
<g id="edge16" class="edge">
<title>Node1&#45;&gt;Node17</title>
<path fill="none" stroke="midnightblue" d="M1031.02,-139.41C1161.19,-133.72 1407.94,-120.86 1617,-98 1619.74,-97.7 1622.52,-97.38 1625.32,-97.04"/>
<polygon fill="midnightblue" stroke="midnightblue" points="1030.54,-135.93 1020.7,-139.86 1030.84,-142.92 1030.54,-135.93"/>
</g>
<!-- Node18 -->
<g id="node18" class="node">
<title>Node18</title>
<g id="a_node18"><a xlink:href="core_8hpp.html" target="_top" xlink:title="Core header including all other necessary headers.">
<polygon fill="white" stroke="black" points="1816.5,-73 1816.5,-92 1951.5,-92 1951.5,-73 1816.5,-73"/>
<text text-anchor="middle" x="1884" y="-80" font-family="Helvetica,sans-Serif" font-size="10.00">include/plssvm/core.hpp</text>
</a>
</g>
</g>
<!-- Node1&#45;&gt;Node18 -->
<g id="edge17" class="edge">
<title>Node1&#45;&gt;Node18</title>
<path fill="none" stroke="midnightblue" d="M1030.97,-142.37C1189.4,-140.36 1526,-132.05 1808,-98 1820,-96.55 1832.96,-94.33 1844.71,-92.06"/>
<polygon fill="midnightblue" stroke="midnightblue" points="1030.75,-138.87 1020.79,-142.49 1030.83,-145.87 1030.75,-138.87"/>
</g>
<!-- Node6 -->
<g id="node6" class="node">
<title>Node6</title>
<g id="a_node6"><a xlink:href="backends_2CUDA_2csvm_8hpp.html" target="_top" xlink:title="Defines a C&#45;SVM using the CUDA backend.">
<polygon fill="white" stroke="black" points="158.5,-0.5 158.5,-30.5 297.5,-30.5 297.5,-0.5 158.5,-0.5"/>
<text text-anchor="start" x="166.5" y="-18.5" font-family="Helvetica,sans-Serif" font-size="10.00">include/plssvm/backends</text>
<text text-anchor="middle" x="228" y="-7.5" font-family="Helvetica,sans-Serif" font-size="10.00">/CUDA/csvm.hpp</text>
</a>
</g>
</g>
<!-- Node5&#45;&gt;Node6 -->
<g id="edge5" class="edge">
<title>Node5&#45;&gt;Node6</title>
<path fill="none" stroke="midnightblue" d="M464.14,-65.38C412.49,-54.69 345.37,-40.8 295.9,-30.55"/>
<polygon fill="midnightblue" stroke="midnightblue" points="463.75,-68.88 474.25,-67.48 465.17,-62.02 463.75,-68.88"/>
</g>
<!-- Node7 -->
<g id="node7" class="node">
<title>Node7</title>
<g id="a_node7"><a xlink:href="backends_2HIP_2csvm_8hpp.html" target="_top" xlink:title="Defines a C&#45;SVM using the HIP backend.">
<polygon fill="white" stroke="black" points="315.5,-0.5 315.5,-30.5 454.5,-30.5 454.5,-0.5 315.5,-0.5"/>
<text text-anchor="start" x="323.5" y="-18.5" font-family="Helvetica,sans-Serif" font-size="10.00">include/plssvm/backends</text>
<text text-anchor="middle" x="385" y="-7.5" font-family="Helvetica,sans-Serif" font-size="10.00">/HIP/csvm.hpp</text>
</a>
</g>
</g>
<!-- Node5&#45;&gt;Node7 -->
<g id="edge6" class="edge">
<title>Node5&#45;&gt;Node7</title>
<path fill="none" stroke="midnightblue" d="M498.63,-63.54C473.51,-53.14 442.34,-40.24 419,-30.58"/>
<polygon fill="midnightblue" stroke="midnightblue" points="497.36,-66.8 507.93,-67.4 500.03,-60.34 497.36,-66.8"/>
</g>
<!-- Node8 -->
<g id="node8" class="node">
<title>Node8</title>
<g id="a_node8"><a xlink:href="backends_2OpenCL_2csvm_8hpp.html" target="_top" xlink:title="Defines a C&#45;SVM using the OpenCL backend.">
<polygon fill="white" stroke="black" points="472.5,-0.5 472.5,-30.5 611.5,-30.5 611.5,-0.5 472.5,-0.5"/>
<text text-anchor="start" x="480.5" y="-18.5" font-family="Helvetica,sans-Serif" font-size="10.00">include/plssvm/backends</text>
<text text-anchor="middle" x="542" y="-7.5" font-family="Helvetica,sans-Serif" font-size="10.00">/OpenCL/csvm.hpp</text>
</a>
</g>
</g>
<!-- Node5&#45;&gt;Node8 -->
<g id="edge7" class="edge">
<title>Node5&#45;&gt;Node8</title>
<path fill="none" stroke="midnightblue" d="M542,-57.11C542,-48.15 542,-38.32 542,-30.58"/>
<polygon fill="midnightblue" stroke="midnightblue" points="538.5,-57.4 542,-67.4 545.5,-57.4 538.5,-57.4"/>
</g>
<!-- Node9 -->
<g id="node9" class="node">
<title>Node9</title>
<g id="a_node9"><a xlink:href="backends_2SYCL_2DPCPP_2csvm_8hpp.html" target="_top" xlink:title="Defines a base C&#45;SVM used for the different SYCL backends using DPC++ as SYCL implementation.">
<polygon fill="white" stroke="black" points="629.5,-0.5 629.5,-30.5 768.5,-30.5 768.5,-0.5 629.5,-0.5"/>
<text text-anchor="start" x="637.5" y="-18.5" font-family="Helvetica,sans-Serif" font-size="10.00">include/plssvm/backends</text>
<text text-anchor="middle" x="699" y="-7.5" font-family="Helvetica,sans-Serif" font-size="10.00">/SYCL/DPCPP/csvm.hpp</text>
</a>
</g>
</g>
<!-- Node5&#45;&gt;Node9 -->
<g id="edge8" class="edge">
<title>Node5&#45;&gt;Node9</title>
<path fill="none" stroke="midnightblue" d="M585.37,-63.54C610.49,-53.14 641.66,-40.24 665,-30.58"/>
<polygon fill="midnightblue" stroke="midnightblue" points="583.97,-60.34 576.07,-67.4 586.64,-66.8 583.97,-60.34"/>
</g>
<!-- Node10 -->
<g id="node10" class="node">
<title>Node10</title>
<g id="a_node10"><a xlink:href="backends_2SYCL_2hipSYCL_2csvm_8hpp.html" target="_top" xlink:title="Defines a base C&#45;SVM used for the different SYCL backends using hipSYCL as SYCL implementation.">
<polygon fill="white" stroke="black" points="786.5,-0.5 786.5,-30.5 925.5,-30.5 925.5,-0.5 786.5,-0.5"/>
<text text-anchor="start" x="794.5" y="-18.5" font-family="Helvetica,sans-Serif" font-size="10.00">include/plssvm/backends</text>
<text text-anchor="middle" x="856" y="-7.5" font-family="Helvetica,sans-Serif" font-size="10.00">/SYCL/hipSYCL/csvm.hpp</text>
</a>
</g>
</g>
<!-- Node5&#45;&gt;Node10 -->
<g id="edge9" class="edge">
<title>Node5&#45;&gt;Node10</title>
<path fill="none" stroke="midnightblue" d="M619.86,-65.38C671.51,-54.69 738.63,-40.8 788.1,-30.55"/>
<polygon fill="midnightblue" stroke="midnightblue" points="618.83,-62.02 609.75,-67.48 620.25,-68.88 618.83,-62.02"/>
</g>
</g>
</svg>
