<?xml version="1.0" encoding="UTF-8" standalone="no"?>
<!DOCTYPE svg PUBLIC "-//W3C//DTD SVG 1.1//EN"
 "http://www.w3.org/Graphics/SVG/1.1/DTD/svg11.dtd">
<!-- Generated by graphviz version 2.43.0 (0)
 -->
<!-- Title: include/plssvm/csvm.hpp Pages: 1 -->
<!--zoomable 162 -->
<svg id="main" version="1.1" xmlns="http://www.w3.org/2000/svg" xmlns:xlink="http://www.w3.org/1999/xlink" xml:space="preserve" onload="init(evt)">
<style type="text/css"><![CDATA[
.edge:hover path { stroke: red; }
.edge:hover polygon { stroke: red; fill: red; }
]]></style>
<script type="text/javascript"><![CDATA[
var edges = document.getElementsByTagName('g');
if (edges && edges.length) {
  for (var i=0;i<edges.length;i++) {
    if (edges[i].id.substr(0,4)=='edge') {
      edges[i].setAttribute('class','edge');
    }
  }
}
]]></script>
        <defs>
                <circle id="rim" cx="0" cy="0" r="7"/>
                <circle id="rim2" cx="0" cy="0" r="3.5"/>
                <g id="zoomPlus">
                        <use xlink:href="#rim" fill="#404040">
                                <set attributeName="fill" to="#808080" begin="zoomplus.mouseover" end="zoomplus.mouseout"/>
                        </use>
                        <path d="M-4,0h8M0,-4v8" fill="none" stroke="white" stroke-width="1.5" pointer-events="none"/>
                </g>
                <g id="zoomMin">
                        <use xlink:href="#rim" fill="#404040">
                                <set attributeName="fill" to="#808080" begin="zoomminus.mouseover" end="zoomminus.mouseout"/>
                        </use>
                        <path d="M-4,0h8" fill="none" stroke="white" stroke-width="1.5" pointer-events="none"/>
                </g>
                <g id="dirArrow">
                        <path fill="none" stroke="white" stroke-width="1.5" d="M0,-3.0v7 M-2.5,-0.5L0,-3.0L2.5,-0.5"/>
                </g>
               <g id="resetDef">
                       <use xlink:href="#rim2" fill="#404040">
                               <set attributeName="fill" to="#808080" begin="reset.mouseover" end="reset.mouseout"/>
                       </use>
               </g>
        </defs>

<script type="text/javascript">
var viewWidth = 928;
var viewHeight = 162;
var sectionId = 'dynsection-0';
</script>
<script xlink:href="svgpan.js"/>
<svg id="graph" class="graph">
<g id="viewport">
<title>include/plssvm/csvm.hpp</title>
<polygon fill="white" stroke="transparent" points="-4,4 -4,-158 924,-158 924,4 -4,4"/>
<!-- Node1 -->
<g id="node1" class="node">
<title>Node1</title>
<g id="a_node1"><a xlink:title="Defines the base class for all C&#45;SVM backends and implements the functionality shared by all of them.">
<polygon fill="#bfbfbf" stroke="black" points="645.5,-134.5 645.5,-153.5 785.5,-153.5 785.5,-134.5 645.5,-134.5"/>
<text text-anchor="middle" x="715.5" y="-141.5" font-family="Helvetica,sans-Serif" font-size="10.00">include/plssvm/csvm.hpp</text>
</a>
</g>
</g>
<!-- Node2 -->
<g id="node2" class="node">
<title>Node2</title>
<g id="a_node2"><a xlink:href="gpu__csvm_8hpp.html" target="_top" xlink:title="Defines the base class for all C&#45;SVM backends using a GPU. Used for code duplication reduction.">
<polygon fill="white" stroke="black" points="377,-67.5 377,-97.5 516,-97.5 516,-67.5 377,-67.5"/>
<text text-anchor="start" x="385" y="-85.5" font-family="Helvetica,sans-Serif" font-size="10.00">include/plssvm/backends</text>
<text text-anchor="middle" x="446.5" y="-74.5" font-family="Helvetica,sans-Serif" font-size="10.00">/gpu_csvm.hpp</text>
</a>
</g>
</g>
<!-- Node1&#45;&gt;Node2 -->
<g id="edge1" class="edge">
<title>Node1&#45;&gt;Node2</title>
<path fill="none" stroke="midnightblue" d="M667.09,-132.29C623.13,-122.57 558,-108.16 509.9,-97.52"/>
<polygon fill="midnightblue" stroke="midnightblue" points="666.44,-135.73 676.96,-134.48 667.95,-128.9 666.44,-135.73"/>
</g>
<!-- Node8 -->
<g id="node8" class="node">
<title>Node8</title>
<g id="a_node8"><a xlink:href="backends_2OpenMP_2csvm_8hpp.html" target="_top" xlink:title="Defines a C&#45;SVM using the OpenMP backend.">
<polygon fill="white" stroke="black" points="597,-67.5 597,-97.5 736,-97.5 736,-67.5 597,-67.5"/>
<text text-anchor="start" x="605" y="-85.5" font-family="Helvetica,sans-Serif" font-size="10.00">include/plssvm/backends</text>
<text text-anchor="middle" x="666.5" y="-74.5" font-family="Helvetica,sans-Serif" font-size="10.00">/OpenMP/csvm.hpp</text>
</a>
</g>
</g>
<!-- Node1&#45;&gt;Node8 -->
<g id="edge7" class="edge">
<title>Node1&#45;&gt;Node8</title>
<path fill="none" stroke="midnightblue" d="M701.94,-126.53C694.43,-117.42 685.21,-106.21 678.05,-97.52"/>
<polygon fill="midnightblue" stroke="midnightblue" points="699.42,-128.98 708.48,-134.48 704.82,-124.53 699.42,-128.98"/>
</g>
<!-- Node9 -->
<g id="node9" class="node">
<title>Node9</title>
<g id="a_node9"><a xlink:href="core_8hpp.html" target="_top" xlink:title="Core header including all other necessary headers.">
<polygon fill="white" stroke="black" points="785,-6 785,-25 920,-25 920,-6 785,-6"/>
<text text-anchor="middle" x="852.5" y="-13" font-family="Helvetica,sans-Serif" font-size="10.00">include/plssvm/core.hpp</text>
</a>
</g>
</g>
<!-- Node1&#45;&gt;Node9 -->
<g id="edge8" class="edge">
<title>Node1&#45;&gt;Node9</title>
<path fill="none" stroke="midnightblue" d="M729.19,-126.1C742.53,-110.1 763.78,-85.78 784.5,-67 802.37,-50.81 825.25,-34.64 839.39,-25.1"/>
<polygon fill="midnightblue" stroke="midnightblue" points="726.3,-124.11 722.65,-134.05 731.7,-128.56 726.3,-124.11"/>
</g>
<!-- Node10 -->
<g id="node10" class="node">
<title>Node10</title>
<g id="a_node10"><a xlink:href="csvm__factory_8hpp.html" target="_top" xlink:title="Factory function for constructing a new C&#45;SVM based on the provided plssvm::backend_type and potentia...">
<polygon fill="white" stroke="black" points="793,-67.5 793,-97.5 912,-97.5 912,-67.5 793,-67.5"/>
<text text-anchor="start" x="801" y="-85.5" font-family="Helvetica,sans-Serif" font-size="10.00">include/plssvm/csvm</text>
<text text-anchor="middle" x="852.5" y="-74.5" font-family="Helvetica,sans-Serif" font-size="10.00">_factory.hpp</text>
</a>
</g>
</g>
<!-- Node1&#45;&gt;Node10 -->
<g id="edge9" class="edge">
<title>Node1&#45;&gt;Node10</title>
<path fill="none" stroke="midnightblue" d="M744.37,-130.46C766.56,-120.82 797.21,-107.51 820.21,-97.52"/>
<polygon fill="midnightblue" stroke="midnightblue" points="742.91,-127.28 735.13,-134.48 745.7,-133.7 742.91,-127.28"/>
</g>
<!-- Node3 -->
<g id="node3" class="node">
<title>Node3</title>
<g id="a_node3"><a xlink:href="backends_2CUDA_2csvm_8hpp.html" target="_top" xlink:title="Defines a C&#45;SVM using the CUDA backend.">
<polygon fill="white" stroke="black" points="0,-0.5 0,-30.5 139,-30.5 139,-0.5 0,-0.5"/>
<text text-anchor="start" x="8" y="-18.5" font-family="Helvetica,sans-Serif" font-size="10.00">include/plssvm/backends</text>
<text text-anchor="middle" x="69.5" y="-7.5" font-family="Helvetica,sans-Serif" font-size="10.00">/CUDA/csvm.hpp</text>
</a>
</g>
</g>
<!-- Node2&#45;&gt;Node3 -->
<g id="edge2" class="edge">
<title>Node2&#45;&gt;Node3</title>
<path fill="none" stroke="midnightblue" d="M366.76,-68.4C306.49,-58.41 221.74,-44.17 147.5,-31 144.79,-30.52 142.02,-30.02 139.23,-29.52"/>
<polygon fill="midnightblue" stroke="midnightblue" points="366.53,-71.91 376.97,-70.09 367.67,-65 366.53,-71.91"/>
</g>
<!-- Node4 -->
<g id="node4" class="node">
<title>Node4</title>
<g id="a_node4"><a xlink:href="backends_2HIP_2csvm_8hpp.html" target="_top" xlink:title="Defines a C&#45;SVM using the HIP backend.">
<polygon fill="white" stroke="black" points="157,-0.5 157,-30.5 296,-30.5 296,-0.5 157,-0.5"/>
<text text-anchor="start" x="165" y="-18.5" font-family="Helvetica,sans-Serif" font-size="10.00">include/plssvm/backends</text>
<text text-anchor="middle" x="226.5" y="-7.5" font-family="Helvetica,sans-Serif" font-size="10.00">/HIP/csvm.hpp</text>
</a>
</g>
</g>
<!-- Node2&#45;&gt;Node4 -->
<g id="edge3" class="edge">
<title>Node2&#45;&gt;Node4</title>
<path fill="none" stroke="midnightblue" d="M389.23,-64.58C353.5,-54.02 308.04,-40.59 274.26,-30.61"/>
<polygon fill="midnightblue" stroke="midnightblue" points="388.45,-68 399.03,-67.48 390.44,-61.29 388.45,-68"/>
</g>
<!-- Node5 -->
<g id="node5" class="node">
<title>Node5</title>
<g id="a_node5"><a xlink:href="backends_2OpenCL_2csvm_8hpp.html" target="_top" xlink:title="Defines a C&#45;SVM using the OpenCL backend.">
<polygon fill="white" stroke="black" points="314,-0.5 314,-30.5 453,-30.5 453,-0.5 314,-0.5"/>
<text text-anchor="start" x="322" y="-18.5" font-family="Helvetica,sans-Serif" font-size="10.00">include/plssvm/backends</text>
<text text-anchor="middle" x="383.5" y="-7.5" font-family="Helvetica,sans-Serif" font-size="10.00">/OpenCL/csvm.hpp</text>
</a>
</g>
</g>
<!-- Node2&#45;&gt;Node5 -->
<g id="edge4" class="edge">
<title>Node2&#45;&gt;Node5</title>
<path fill="none" stroke="midnightblue" d="M425.69,-60.02C416.3,-50.34 405.48,-39.17 397.14,-30.58"/>
<polygon fill="midnightblue" stroke="midnightblue" points="423.36,-62.65 432.83,-67.4 428.38,-57.78 423.36,-62.65"/>
</g>
<!-- Node6 -->
<g id="node6" class="node">
<title>Node6</title>
<g id="a_node6"><a xlink:href="backends_2SYCL_2hipSYCL_2csvm_8hpp.html" target="_top" xlink:title="Defines a base C&#45;SVM used for the different SYCL backends using hipSYCL as SYCL implementation.">
<polygon fill="white" stroke="black" points="471,-0.5 471,-30.5 610,-30.5 610,-0.5 471,-0.5"/>
<text text-anchor="start" x="479" y="-18.5" font-family="Helvetica,sans-Serif" font-size="10.00">include/plssvm/backends</text>
<text text-anchor="middle" x="540.5" y="-7.5" font-family="Helvetica,sans-Serif" font-size="10.00">/SYCL/hipSYCL/csvm.hpp</text>
</a>
</g>
</g>
<!-- Node2&#45;&gt;Node6 -->
<g id="edge5" class="edge">
<title>Node2&#45;&gt;Node6</title>
<path fill="none" stroke="midnightblue" d="M475.49,-61.45C489.95,-51.45 507.09,-39.6 520.14,-30.58"/>
<polygon fill="midnightblue" stroke="midnightblue" points="473.13,-58.83 466.9,-67.4 477.11,-64.59 473.13,-58.83"/>
</g>
<!-- Node7 -->
<g id="node7" class="node">
<title>Node7</title>
<g id="a_node7"><a xlink:href="backends_2SYCL_2DPCPP_2csvm_8hpp.html" target="_top" xlink:title="Defines a base C&#45;SVM used for the different SYCL backends using DPC++ as SYCL implementation.">
<polygon fill="white" stroke="black" points="628,-0.5 628,-30.5 767,-30.5 767,-0.5 628,-0.5"/>
<text text-anchor="start" x="636" y="-18.5" font-family="Helvetica,sans-Serif" font-size="10.00">include/plssvm/backends</text>
<text text-anchor="middle" x="697.5" y="-7.5" font-family="Helvetica,sans-Serif" font-size="10.00">/SYCL/DPCPP/csvm.hpp</text>
</a>
</g>
</g>
<!-- Node2&#45;&gt;Node7 -->
<g id="edge6" class="edge">
<title>Node2&#45;&gt;Node7</title>
<path fill="none" stroke="midnightblue" d="M510.54,-64.92C551.5,-54.31 604.06,-40.7 643.01,-30.61"/>
<polygon fill="midnightblue" stroke="midnightblue" points="509.46,-61.58 500.65,-67.48 511.21,-68.36 509.46,-61.58"/>
</g>
<!-- Node10&#45;&gt;Node9 -->
<g id="edge10" class="edge">
<title>Node10&#45;&gt;Node9</title>
<path fill="none" stroke="midnightblue" d="M852.5,-57.25C852.5,-46.02 852.5,-33.38 852.5,-25.19"/>
<polygon fill="midnightblue" stroke="midnightblue" points="849,-57.4 852.5,-67.4 856,-57.4 849,-57.4"/>
</g>
</g>
</svg>
        <g id="navigator" transform="translate(0 0)" fill="#404254">
                <rect fill="#f2f5e9" fill-opacity="0.5" stroke="#606060" stroke-width=".5" x="0" y="0" width="60" height="60"/>
                <use id="zoomplus" xlink:href="#zoomPlus" x="17" y="9" onmousedown="handleZoom(evt,'in')"/>
                <use id="zoomminus" xlink:href="#zoomMin" x="42" y="9" onmousedown="handleZoom(evt,'out')"/>
                <use id="reset" xlink:href="#resetDef" x="30" y="36" onmousedown="handleReset()"/>
                <g id="arrowUp" xlink:href="#dirArrow" transform="translate(30 24)" onmousedown="handlePan(0,-1)">
                  <use xlink:href="#rim" fill="#404040">
                        <set attributeName="fill" to="#808080" begin="arrowUp.mouseover" end="arrowUp.mouseout"/>
                  </use>
                  <path fill="none" stroke="white" stroke-width="1.5" d="M0,-3.0v7 M-2.5,-0.5L0,-3.0L2.5,-0.5"/>
                </g>
                <g id="arrowRight" xlink:href="#dirArrow" transform="rotate(90) translate(36 -43)" onmousedown="handlePan(1,0)">
                  <use xlink:href="#rim" fill="#404040">
                        <set attributeName="fill" to="#808080" begin="arrowRight.mouseover" end="arrowRight.mouseout"/>
                  </use>
                  <path fill="none" stroke="white" stroke-width="1.5" d="M0,-3.0v7 M-2.5,-0.5L0,-3.0L2.5,-0.5"/>
                </g>
                <g id="arrowDown" xlink:href="#dirArrow" transform="rotate(180) translate(-30 -48)" onmousedown="handlePan(0,1)">
                  <use xlink:href="#rim" fill="#404040">
                        <set attributeName="fill" to="#808080" begin="arrowDown.mouseover" end="arrowDown.mouseout"/>
                  </use>
                  <path fill="none" stroke="white" stroke-width="1.5" d="M0,-3.0v7 M-2.5,-0.5L0,-3.0L2.5,-0.5"/>
                </g>
                <g id="arrowLeft" xlink:href="#dirArrow" transform="rotate(270) translate(-36 17)" onmousedown="handlePan(-1,0)">
                  <use xlink:href="#rim" fill="#404040">
                        <set attributeName="fill" to="#808080" begin="arrowLeft.mouseover" end="arrowLeft.mouseout"/>
                  </use>
                  <path fill="none" stroke="white" stroke-width="1.5" d="M0,-3.0v7 M-2.5,-0.5L0,-3.0L2.5,-0.5"/>
                </g>
        </g>
        <svg viewBox="0 0 15 15" width="100%" height="30px" preserveAspectRatio="xMaxYMin meet">
         <g id="arrow_out" transform="scale(0.3 0.3)">
          <a xlink:href="csvm_8hpp__dep__incl_org.svg" target="_base">
           <rect id="button" ry="5" rx="5" y="6" x="6" height="38" width="38"
                fill="#f2f5e9" fill-opacity="0.5" stroke="#606060" stroke-width="1.0"/>
           <path id="arrow"
             d="M 11.500037,31.436501 C 11.940474,20.09759 22.043105,11.32322 32.158766,21.979434 L 37.068811,17.246167 C 37.068811,17.246167 37.088388,32 37.088388,32 L 22.160133,31.978069 C 22.160133,31.978069 26.997745,27.140456 26.997745,27.140456 C 18.528582,18.264221 13.291696,25.230495 11.500037,31.436501 z"
             style="fill:#404040;"/>
          </a>
         </g>
        </svg>
</svg>
