<?xml version="1.0" encoding="UTF-8" standalone="no"?>
<!DOCTYPE svg PUBLIC "-//W3C//DTD SVG 1.1//EN"
 "http://www.w3.org/Graphics/SVG/1.1/DTD/svg11.dtd">
<!-- Generated by graphviz version 2.43.0 (0)
 -->
<!-- Title: include/plssvm/default_value.hpp Pages: 1 -->
<svg width="1785pt" height="821pt"
 viewBox="0.00 0.00 1785.35 821.00" xmlns="http://www.w3.org/2000/svg" xmlns:xlink="http://www.w3.org/1999/xlink">
<g id="graph0" class="graph" transform="scale(1 1) rotate(0) translate(4 817)">
<title>include/plssvm/default_value.hpp</title>
<polygon fill="white" stroke="transparent" points="-4,4 -4,-817 1781.35,-817 1781.35,4 -4,4"/>
<!-- Node1 -->
<g id="node1" class="node">
<title>Node1</title>
<g id="a_node1"><a xlink:title="Implements a class used to be able to distinguish between the default value of a variable and an assi...">
<polygon fill="#bfbfbf" stroke="black" points="793.5,-782.5 793.5,-812.5 921.5,-812.5 921.5,-782.5 793.5,-782.5"/>
<text text-anchor="start" x="801.5" y="-800.5" font-family="Helvetica,sans-Serif" font-size="10.00">include/plssvm/default</text>
<text text-anchor="middle" x="857.5" y="-789.5" font-family="Helvetica,sans-Serif" font-size="10.00">_value.hpp</text>
</a>
</g>
</g>
<!-- Node2 -->
<g id="node2" class="node">
<title>Node2</title>
<g id="a_node2"><a xlink:href="csvm_8hpp.html" target="_top" xlink:title="Defines the base class for all C&#45;SVM backends and implements the functionality shared by all of them.">
<polygon fill="white" stroke="black" points="980.5,-134.5 980.5,-153.5 1120.5,-153.5 1120.5,-134.5 980.5,-134.5"/>
<text text-anchor="middle" x="1050.5" y="-141.5" font-family="Helvetica,sans-Serif" font-size="10.00">include/plssvm/csvm.hpp</text>
</a>
</g>
</g>
<!-- Node1&#45;&gt;Node2 -->
<g id="edge1" class="edge">
<title>Node1&#45;&gt;Node2</title>
<path fill="none" stroke="midnightblue" d="M844.47,-773.43C831.18,-747.7 812.5,-704.43 812.5,-664.5 812.5,-664.5 812.5,-664.5 812.5,-595.5 812.5,-407.55 789.72,-312.22 932.5,-190 954.15,-171.46 984.24,-160.15 1008.62,-153.5"/>
<polygon fill="midnightblue" stroke="midnightblue" points="841.45,-775.21 849.25,-782.39 847.63,-771.92 841.45,-775.21"/>
</g>
<!-- Node12 -->
<g id="node12" class="node">
<title>Node12</title>
<g id="a_node12"><a xlink:href="parser__train_8hpp.html" target="_top" xlink:title="Implements a class encapsulating all necessary parameters for training the C&#45;SVM possibly provided th...">
<polygon fill="white" stroke="black" points="849,-514.5 849,-544.5 972,-544.5 972,-514.5 849,-514.5"/>
<text text-anchor="start" x="857" y="-532.5" font-family="Helvetica,sans-Serif" font-size="10.00">include/plssvm/detail</text>
<text text-anchor="middle" x="910.5" y="-521.5" font-family="Helvetica,sans-Serif" font-size="10.00">/cmd/parser_train.hpp</text>
</a>
</g>
</g>
<!-- Node1&#45;&gt;Node12 -->
<g id="edge12" class="edge">
<title>Node1&#45;&gt;Node12</title>
<path fill="none" stroke="midnightblue" d="M862.37,-772.07C873.23,-717.57 899.14,-587.52 907.7,-544.55"/>
<polygon fill="midnightblue" stroke="midnightblue" points="858.87,-771.71 860.35,-782.2 865.74,-773.08 858.87,-771.71"/>
</g>
<!-- Node20 -->
<g id="node20" class="node">
<title>Node20</title>
<g id="a_node20"><a xlink:href="detail_2utility_8hpp.html" target="_top" xlink:title="Defines universal utility functions.">
<polygon fill="white" stroke="black" points="1342,-715.5 1342,-745.5 1463,-745.5 1463,-715.5 1342,-715.5"/>
<text text-anchor="start" x="1350" y="-733.5" font-family="Helvetica,sans-Serif" font-size="10.00">include/plssvm/detail</text>
<text text-anchor="middle" x="1402.5" y="-722.5" font-family="Helvetica,sans-Serif" font-size="10.00">/utility.hpp</text>
</a>
</g>
</g>
<!-- Node1&#45;&gt;Node20 -->
<g id="edge36" class="edge">
<title>Node1&#45;&gt;Node20</title>
<path fill="none" stroke="midnightblue" d="M931.87,-787.63C1040.76,-774.64 1241.52,-750.7 1341.96,-738.72"/>
<polygon fill="midnightblue" stroke="midnightblue" points="931.14,-784.19 921.62,-788.85 931.97,-791.14 931.14,-784.19"/>
</g>
<!-- Node26 -->
<g id="node26" class="node">
<title>Node26</title>
<g id="a_node26"><a xlink:href="parameter_8hpp.html" target="_top" xlink:title="Implements the parameter class encapsulating all important C&#45;SVM parameters.">
<polygon fill="white" stroke="black" points="540.5,-587 540.5,-606 704.5,-606 704.5,-587 540.5,-587"/>
<text text-anchor="middle" x="622.5" y="-594" font-family="Helvetica,sans-Serif" font-size="10.00">include/plssvm/parameter.hpp</text>
</a>
</g>
</g>
<!-- Node1&#45;&gt;Node26 -->
<g id="edge65" class="edge">
<title>Node1&#45;&gt;Node26</title>
<path fill="none" stroke="midnightblue" d="M832.72,-775.51C781.84,-732.43 667.46,-635.57 632.71,-606.14"/>
<polygon fill="midnightblue" stroke="midnightblue" points="830.71,-778.4 840.6,-782.19 835.23,-773.06 830.71,-778.4"/>
</g>
<!-- Node3 -->
<g id="node3" class="node">
<title>Node3</title>
<g id="a_node3"><a xlink:href="gpu__csvm_8hpp.html" target="_top" xlink:title="Defines the base class for all C&#45;SVM backends using a GPU. Used for code duplication reduction.">
<polygon fill="white" stroke="black" points="420,-67.5 420,-97.5 559,-97.5 559,-67.5 420,-67.5"/>
<text text-anchor="start" x="428" y="-85.5" font-family="Helvetica,sans-Serif" font-size="10.00">include/plssvm/backends</text>
<text text-anchor="middle" x="489.5" y="-74.5" font-family="Helvetica,sans-Serif" font-size="10.00">/gpu_csvm.hpp</text>
</a>
</g>
</g>
<!-- Node2&#45;&gt;Node3 -->
<g id="edge2" class="edge">
<title>Node2&#45;&gt;Node3</title>
<path fill="none" stroke="midnightblue" d="M970.34,-134.41C969.05,-134.27 967.77,-134.14 966.5,-134 821.59,-118.57 651.9,-100.63 559.02,-90.83"/>
<polygon fill="midnightblue" stroke="midnightblue" points="970.06,-137.9 980.37,-135.48 970.8,-130.94 970.06,-137.9"/>
</g>
<!-- Node9 -->
<g id="node9" class="node">
<title>Node9</title>
<g id="a_node9"><a xlink:href="backends_2OpenMP_2csvm_8hpp.html" target="_top" xlink:title="Defines a C&#45;SVM using the OpenMP backend.">
<polygon fill="white" stroke="black" points="736,-67.5 736,-97.5 875,-97.5 875,-67.5 736,-67.5"/>
<text text-anchor="start" x="744" y="-85.5" font-family="Helvetica,sans-Serif" font-size="10.00">include/plssvm/backends</text>
<text text-anchor="middle" x="805.5" y="-74.5" font-family="Helvetica,sans-Serif" font-size="10.00">/OpenMP/csvm.hpp</text>
</a>
</g>
</g>
<!-- Node2&#45;&gt;Node9 -->
<g id="edge8" class="edge">
<title>Node2&#45;&gt;Node9</title>
<path fill="none" stroke="midnightblue" d="M1005.65,-132.11C965.62,-122.39 906.77,-108.1 863.24,-97.52"/>
<polygon fill="midnightblue" stroke="midnightblue" points="1004.85,-135.52 1015.4,-134.48 1006.51,-128.71 1004.85,-135.52"/>
</g>
<!-- Node10 -->
<g id="node10" class="node">
<title>Node10</title>
<g id="a_node10"><a xlink:href="core_8hpp.html" target="_top" xlink:title="Core header including all other necessary headers.">
<polygon fill="white" stroke="black" points="1119,-6 1119,-25 1254,-25 1254,-6 1119,-6"/>
<text text-anchor="middle" x="1186.5" y="-13" font-family="Helvetica,sans-Serif" font-size="10.00">include/plssvm/core.hpp</text>
</a>
</g>
</g>
<!-- Node2&#45;&gt;Node10 -->
<g id="edge9" class="edge">
<title>Node2&#45;&gt;Node10</title>
<path fill="none" stroke="midnightblue" d="M1076.54,-129.64C1090.93,-121.56 1108.65,-110.44 1122.5,-98 1148.06,-75.04 1171.11,-40.97 1181.16,-25.15"/>
<polygon fill="midnightblue" stroke="midnightblue" points="1074.75,-126.63 1067.64,-134.49 1078.1,-132.78 1074.75,-126.63"/>
</g>
<!-- Node11 -->
<g id="node11" class="node">
<title>Node11</title>
<g id="a_node11"><a xlink:href="csvm__factory_8hpp.html" target="_top" xlink:title="Factory function for constructing a new C&#45;SVM based on the provided plssvm::backend_type and potentia...">
<polygon fill="white" stroke="black" points="994,-67.5 994,-97.5 1113,-97.5 1113,-67.5 994,-67.5"/>
<text text-anchor="start" x="1002" y="-85.5" font-family="Helvetica,sans-Serif" font-size="10.00">include/plssvm/csvm</text>
<text text-anchor="middle" x="1053.5" y="-74.5" font-family="Helvetica,sans-Serif" font-size="10.00">_factory.hpp</text>
</a>
</g>
</g>
<!-- Node2&#45;&gt;Node11 -->
<g id="edge10" class="edge">
<title>Node2&#45;&gt;Node11</title>
<path fill="none" stroke="midnightblue" d="M1051.45,-124.23C1051.88,-115.59 1052.39,-105.5 1052.79,-97.52"/>
<polygon fill="midnightblue" stroke="midnightblue" points="1047.94,-124.31 1050.93,-134.48 1054.93,-124.66 1047.94,-124.31"/>
</g>
<!-- Node4 -->
<g id="node4" class="node">
<title>Node4</title>
<g id="a_node4"><a xlink:href="backends_2CUDA_2csvm_8hpp.html" target="_top" xlink:title="Defines a C&#45;SVM using the CUDA backend.">
<polygon fill="white" stroke="black" points="471,-0.5 471,-30.5 610,-30.5 610,-0.5 471,-0.5"/>
<text text-anchor="start" x="479" y="-18.5" font-family="Helvetica,sans-Serif" font-size="10.00">include/plssvm/backends</text>
<text text-anchor="middle" x="540.5" y="-7.5" font-family="Helvetica,sans-Serif" font-size="10.00">/CUDA/csvm.hpp</text>
</a>
</g>
</g>
<!-- Node3&#45;&gt;Node4 -->
<g id="edge3" class="edge">
<title>Node3&#45;&gt;Node4</title>
<path fill="none" stroke="midnightblue" d="M506.8,-59.45C514.29,-49.9 522.84,-39 529.46,-30.58"/>
<polygon fill="midnightblue" stroke="midnightblue" points="503.99,-57.37 500.57,-67.4 509.49,-61.69 503.99,-57.37"/>
</g>
<!-- Node5 -->
<g id="node5" class="node">
<title>Node5</title>
<g id="a_node5"><a xlink:href="backends_2HIP_2csvm_8hpp.html" target="_top" xlink:title="Defines a C&#45;SVM using the HIP backend.">
<polygon fill="white" stroke="black" points="628,-0.5 628,-30.5 767,-30.5 767,-0.5 628,-0.5"/>
<text text-anchor="start" x="636" y="-18.5" font-family="Helvetica,sans-Serif" font-size="10.00">include/plssvm/backends</text>
<text text-anchor="middle" x="697.5" y="-7.5" font-family="Helvetica,sans-Serif" font-size="10.00">/HIP/csvm.hpp</text>
</a>
</g>
</g>
<!-- Node3&#45;&gt;Node5 -->
<g id="edge4" class="edge">
<title>Node3&#45;&gt;Node5</title>
<path fill="none" stroke="midnightblue" d="M544.08,-64.44C577.8,-53.91 620.54,-40.55 652.35,-30.61"/>
<polygon fill="midnightblue" stroke="midnightblue" points="542.88,-61.15 534.38,-67.48 544.97,-67.83 542.88,-61.15"/>
</g>
<!-- Node6 -->
<g id="node6" class="node">
<title>Node6</title>
<g id="a_node6"><a xlink:href="backends_2OpenCL_2csvm_8hpp.html" target="_top" xlink:title="Defines a C&#45;SVM using the OpenCL backend.">
<polygon fill="white" stroke="black" points="0,-0.5 0,-30.5 139,-30.5 139,-0.5 0,-0.5"/>
<text text-anchor="start" x="8" y="-18.5" font-family="Helvetica,sans-Serif" font-size="10.00">include/plssvm/backends</text>
<text text-anchor="middle" x="69.5" y="-7.5" font-family="Helvetica,sans-Serif" font-size="10.00">/OpenCL/csvm.hpp</text>
</a>
</g>
</g>
<!-- Node3&#45;&gt;Node6 -->
<g id="edge5" class="edge">
<title>Node3&#45;&gt;Node6</title>
<path fill="none" stroke="midnightblue" d="M409.96,-70.61C340.56,-60.9 237.22,-45.96 147.5,-31 144.78,-30.55 142.01,-30.08 139.22,-29.59"/>
<polygon fill="midnightblue" stroke="midnightblue" points="409.56,-74.09 419.95,-72 410.53,-67.15 409.56,-74.09"/>
</g>
<!-- Node7 -->
<g id="node7" class="node">
<title>Node7</title>
<g id="a_node7"><a xlink:href="backends_2SYCL_2hipSYCL_2csvm_8hpp.html" target="_top" xlink:title="Defines a base C&#45;SVM used for the different SYCL backends using hipSYCL as SYCL implementation.">
<polygon fill="white" stroke="black" points="157,-0.5 157,-30.5 296,-30.5 296,-0.5 157,-0.5"/>
<text text-anchor="start" x="165" y="-18.5" font-family="Helvetica,sans-Serif" font-size="10.00">include/plssvm/backends</text>
<text text-anchor="middle" x="226.5" y="-7.5" font-family="Helvetica,sans-Serif" font-size="10.00">/SYCL/hipSYCL/csvm.hpp</text>
</a>
</g>
</g>
<!-- Node3&#45;&gt;Node7 -->
<g id="edge6" class="edge">
<title>Node3&#45;&gt;Node7</title>
<path fill="none" stroke="midnightblue" d="M422.95,-65.05C379.95,-54.43 324.58,-40.74 283.59,-30.61"/>
<polygon fill="midnightblue" stroke="midnightblue" points="422.21,-68.47 432.76,-67.48 423.89,-61.68 422.21,-68.47"/>
</g>
<!-- Node8 -->
<g id="node8" class="node">
<title>Node8</title>
<g id="a_node8"><a xlink:href="backends_2SYCL_2DPCPP_2csvm_8hpp.html" target="_top" xlink:title="Defines a base C&#45;SVM used for the different SYCL backends using DPC++ as SYCL implementation.">
<polygon fill="white" stroke="black" points="314,-0.5 314,-30.5 453,-30.5 453,-0.5 314,-0.5"/>
<text text-anchor="start" x="322" y="-18.5" font-family="Helvetica,sans-Serif" font-size="10.00">include/plssvm/backends</text>
<text text-anchor="middle" x="383.5" y="-7.5" font-family="Helvetica,sans-Serif" font-size="10.00">/SYCL/DPCPP/csvm.hpp</text>
</a>
</g>
</g>
<!-- Node3&#45;&gt;Node8 -->
<g id="edge7" class="edge">
<title>Node3&#45;&gt;Node8</title>
<path fill="none" stroke="midnightblue" d="M457.72,-62.02C441.23,-51.9 421.45,-39.77 406.46,-30.58"/>
<polygon fill="midnightblue" stroke="midnightblue" points="456.15,-65.15 466.5,-67.4 459.8,-59.18 456.15,-65.15"/>
</g>
<!-- Node11&#45;&gt;Node10 -->
<g id="edge11" class="edge">
<title>Node11&#45;&gt;Node10</title>
<path fill="none" stroke="midnightblue" d="M1091.42,-62.97C1116.97,-50.48 1149.47,-34.6 1169.09,-25.01"/>
<polygon fill="midnightblue" stroke="midnightblue" points="1089.81,-59.86 1082.36,-67.4 1092.88,-66.15 1089.81,-59.86"/>
</g>
<!-- Node13 -->
<g id="node13" class="node">
<title>Node13</title>
<g id="a_node13"><a xlink:href="data__set__variants_8hpp.html" target="_top" xlink:title="Implements utility functions to create a data set based on runtime parameters.">
<polygon fill="white" stroke="black" points="1428.5,-246.5 1428.5,-276.5 1580.5,-276.5 1580.5,-246.5 1428.5,-246.5"/>
<text text-anchor="start" x="1436.5" y="-264.5" font-family="Helvetica,sans-Serif" font-size="10.00">include/plssvm/detail</text>
<text text-anchor="middle" x="1504.5" y="-253.5" font-family="Helvetica,sans-Serif" font-size="10.00">/cmd/data_set_variants.hpp</text>
</a>
</g>
</g>
<!-- Node12&#45;&gt;Node13 -->
<g id="edge13" class="edge">
<title>Node12&#45;&gt;Node13</title>
<path fill="none" stroke="midnightblue" d="M982.36,-519.22C1029.58,-511.62 1092.1,-498.69 1144.5,-478 1285.43,-422.37 1435,-314.87 1486.14,-276.52"/>
<polygon fill="midnightblue" stroke="midnightblue" points="981.56,-515.8 972.22,-520.81 982.64,-522.72 981.56,-515.8"/>
</g>
<!-- Node14 -->
<g id="node14" class="node">
<title>Node14</title>
<g id="a_node14"><a xlink:href="performance__tracker_8hpp.html" target="_top" xlink:title="Defines a performance tracker which can dump performance information in a YAML file.">
<polygon fill="white" stroke="black" points="844,-447.5 844,-477.5 985,-477.5 985,-447.5 844,-447.5"/>
<text text-anchor="start" x="852" y="-465.5" font-family="Helvetica,sans-Serif" font-size="10.00">include/plssvm/detail</text>
<text text-anchor="middle" x="914.5" y="-454.5" font-family="Helvetica,sans-Serif" font-size="10.00">/performance_tracker.hpp</text>
</a>
</g>
</g>
<!-- Node12&#45;&gt;Node14 -->
<g id="edge14" class="edge">
<title>Node12&#45;&gt;Node14</title>
<path fill="none" stroke="midnightblue" d="M911.98,-504.4C912.54,-495.37 913.15,-485.41 913.63,-477.58"/>
<polygon fill="midnightblue" stroke="midnightblue" points="908.49,-504.2 911.37,-514.4 915.48,-504.63 908.49,-504.2"/>
</g>
<!-- Node14&#45;&gt;Node2 -->
<g id="edge16" class="edge">
<title>Node14&#45;&gt;Node2</title>
<path fill="none" stroke="midnightblue" d="M914.5,-436.99C914.5,-410.49 914.5,-367 914.5,-329.5 914.5,-329.5 914.5,-329.5 914.5,-260.5 914.5,-203.19 985.52,-168.39 1024.92,-153.5"/>
<polygon fill="midnightblue" stroke="midnightblue" points="911,-437.24 914.5,-447.24 918,-437.24 911,-437.24"/>
</g>
<!-- Node14&#45;&gt;Node3 -->
<g id="edge15" class="edge">
<title>Node14&#45;&gt;Node3</title>
<path fill="none" stroke="midnightblue" d="M903.15,-437.93C887.41,-406.85 856.65,-351.61 819.5,-313 723.21,-212.93 577.22,-129.76 516.97,-97.68"/>
<polygon fill="midnightblue" stroke="midnightblue" points="900.14,-439.72 907.73,-447.12 906.41,-436.6 900.14,-439.72"/>
</g>
<!-- Node15 -->
<g id="node15" class="node">
<title>Node15</title>
<g id="a_node15"><a xlink:href="data__set_8hpp.html" target="_top" xlink:title="Implements a data set class encapsulating all data points, features, and potential labels.">
<polygon fill="white" stroke="black" points="1497,-313.5 1497,-343.5 1612,-343.5 1612,-313.5 1497,-313.5"/>
<text text-anchor="start" x="1505" y="-331.5" font-family="Helvetica,sans-Serif" font-size="10.00">include/plssvm/data</text>
<text text-anchor="middle" x="1554.5" y="-320.5" font-family="Helvetica,sans-Serif" font-size="10.00">_set.hpp</text>
</a>
</g>
</g>
<!-- Node14&#45;&gt;Node15 -->
<g id="edge17" class="edge">
<title>Node14&#45;&gt;Node15</title>
<path fill="none" stroke="midnightblue" d="M995.02,-447.95C1051.07,-438.28 1127.49,-424.62 1194.5,-411 1301.73,-389.2 1426.07,-360.23 1497,-343.34"/>
<polygon fill="midnightblue" stroke="midnightblue" points="994.41,-444.5 985.15,-449.65 995.6,-451.4 994.41,-444.5"/>
</g>
<!-- Node17 -->
<g id="node17" class="node">
<title>Node17</title>
<g id="a_node17"><a xlink:href="model_8hpp.html" target="_top" xlink:title="Implements a model class encapsulating the results of a SVM fit call.">
<polygon fill="white" stroke="black" points="1141,-190.5 1141,-209.5 1286,-209.5 1286,-190.5 1141,-190.5"/>
<text text-anchor="middle" x="1213.5" y="-197.5" font-family="Helvetica,sans-Serif" font-size="10.00">include/plssvm/model.hpp</text>
</a>
</g>
</g>
<!-- Node14&#45;&gt;Node17 -->
<g id="edge35" class="edge">
<title>Node14&#45;&gt;Node17</title>
<path fill="none" stroke="midnightblue" d="M995.15,-447.09C1021.93,-439.52 1050.7,-428.1 1073.5,-411 1149.92,-353.69 1197.71,-241.7 1210.21,-209.72"/>
<polygon fill="midnightblue" stroke="midnightblue" points="994.14,-443.74 985.39,-449.71 995.95,-450.5 994.14,-443.74"/>
</g>
<!-- Node18 -->
<g id="node18" class="node">
<title>Node18</title>
<g id="a_node18"><a xlink:href="layout_8hpp.html" target="_top" xlink:title="Defines functions to convert 2D vectors to 1D SoA or AoS vectors.">
<polygon fill="white" stroke="black" points="689,-313.5 689,-343.5 810,-343.5 810,-313.5 689,-313.5"/>
<text text-anchor="start" x="697" y="-331.5" font-family="Helvetica,sans-Serif" font-size="10.00">include/plssvm/detail</text>
<text text-anchor="middle" x="749.5" y="-320.5" font-family="Helvetica,sans-Serif" font-size="10.00">/layout.hpp</text>
</a>
</g>
</g>
<!-- Node14&#45;&gt;Node18 -->
<g id="edge26" class="edge">
<title>Node14&#45;&gt;Node18</title>
<path fill="none" stroke="midnightblue" d="M888.8,-440.94C854.92,-413.84 796.22,-366.88 767.03,-343.52"/>
<polygon fill="midnightblue" stroke="midnightblue" points="886.85,-443.86 896.84,-447.37 891.22,-438.39 886.85,-443.86"/>
</g>
<!-- Node19 -->
<g id="node19" class="node">
<title>Node19</title>
<g id="a_node19"><a xlink:href="logger_8hpp.html" target="_top" xlink:title="Defines a simple logging function.">
<polygon fill="white" stroke="black" points="943,-380.5 943,-410.5 1064,-410.5 1064,-380.5 943,-380.5"/>
<text text-anchor="start" x="951" y="-398.5" font-family="Helvetica,sans-Serif" font-size="10.00">include/plssvm/detail</text>
<text text-anchor="middle" x="1003.5" y="-387.5" font-family="Helvetica,sans-Serif" font-size="10.00">/logger.hpp</text>
</a>
</g>
</g>
<!-- Node14&#45;&gt;Node19 -->
<g id="edge28" class="edge">
<title>Node14&#45;&gt;Node19</title>
<path fill="none" stroke="midnightblue" d="M941.95,-441.45C955.64,-431.45 971.87,-419.6 984.23,-410.58"/>
<polygon fill="midnightblue" stroke="midnightblue" points="939.82,-438.67 933.81,-447.4 943.95,-444.32 939.82,-438.67"/>
</g>
<!-- Node15&#45;&gt;Node2 -->
<g id="edge19" class="edge">
<title>Node15&#45;&gt;Node2</title>
<path fill="none" stroke="midnightblue" d="M1582.48,-306.82C1602.23,-289.72 1622.55,-265.22 1606.5,-246 1545.32,-172.71 1255.81,-152.48 1120.5,-146.99"/>
<polygon fill="midnightblue" stroke="midnightblue" points="1580.22,-304.14 1574.73,-313.2 1584.68,-309.54 1580.22,-304.14"/>
</g>
<!-- Node15&#45;&gt;Node10 -->
<g id="edge18" class="edge">
<title>Node15&#45;&gt;Node10</title>
<path fill="none" stroke="midnightblue" d="M1613.49,-309.94C1661.9,-291.47 1722.5,-257.13 1722.5,-201 1722.5,-201 1722.5,-201 1722.5,-143 1722.5,-47.81 1398.21,-24.17 1254.11,-18.36"/>
<polygon fill="midnightblue" stroke="midnightblue" points="1612.18,-306.7 1604,-313.43 1614.59,-313.27 1612.18,-306.7"/>
</g>
<!-- Node15&#45;&gt;Node13 -->
<g id="edge20" class="edge">
<title>Node15&#45;&gt;Node13</title>
<path fill="none" stroke="midnightblue" d="M1537.54,-305.45C1530.19,-295.9 1521.81,-285 1515.33,-276.58"/>
<polygon fill="midnightblue" stroke="midnightblue" points="1534.78,-307.6 1543.65,-313.4 1540.33,-303.34 1534.78,-307.6"/>
</g>
<!-- Node16 -->
<g id="node16" class="node">
<title>Node16</title>
<g id="a_node16"><a xlink:href="libsvm__model__parsing_8hpp.html" target="_top" xlink:title="Implements parsing functions for the LIBSVM model file.">
<polygon fill="white" stroke="black" points="1247,-246.5 1247,-276.5 1410,-276.5 1410,-246.5 1247,-246.5"/>
<text text-anchor="start" x="1255" y="-264.5" font-family="Helvetica,sans-Serif" font-size="10.00">include/plssvm/detail</text>
<text text-anchor="middle" x="1328.5" y="-253.5" font-family="Helvetica,sans-Serif" font-size="10.00">/io/libsvm_model_parsing.hpp</text>
</a>
</g>
</g>
<!-- Node15&#45;&gt;Node16 -->
<g id="edge21" class="edge">
<title>Node15&#45;&gt;Node16</title>
<path fill="none" stroke="midnightblue" d="M1495.67,-310.58C1458.96,-300.02 1412.27,-286.59 1377.56,-276.61"/>
<polygon fill="midnightblue" stroke="midnightblue" points="1495.16,-314.08 1505.74,-313.48 1497.1,-307.35 1495.16,-314.08"/>
</g>
<!-- Node15&#45;&gt;Node17 -->
<g id="edge25" class="edge">
<title>Node15&#45;&gt;Node17</title>
<path fill="none" stroke="midnightblue" d="M1575.67,-305.74C1590.34,-288.01 1604.75,-263.18 1589.5,-246 1569.75,-223.75 1389.97,-210.47 1286.32,-204.59"/>
<polygon fill="midnightblue" stroke="midnightblue" points="1572.97,-303.51 1569.01,-313.33 1578.23,-308.12 1572.97,-303.51"/>
</g>
<!-- Node16&#45;&gt;Node17 -->
<g id="edge22" class="edge">
<title>Node16&#45;&gt;Node17</title>
<path fill="none" stroke="midnightblue" d="M1292.35,-241.8C1271.57,-231.04 1246.45,-218.05 1230.23,-209.66"/>
<polygon fill="midnightblue" stroke="midnightblue" points="1290.76,-244.91 1301.25,-246.4 1293.97,-238.7 1290.76,-244.91"/>
</g>
<!-- Node17&#45;&gt;Node2 -->
<g id="edge24" class="edge">
<title>Node17&#45;&gt;Node2</title>
<path fill="none" stroke="midnightblue" d="M1177.8,-187.17C1147.1,-177 1103.58,-162.59 1076.21,-153.52"/>
<polygon fill="midnightblue" stroke="midnightblue" points="1177.08,-190.62 1187.67,-190.44 1179.28,-183.98 1177.08,-190.62"/>
</g>
<!-- Node17&#45;&gt;Node10 -->
<g id="edge23" class="edge">
<title>Node17&#45;&gt;Node10</title>
<path fill="none" stroke="midnightblue" d="M1210.72,-180.22C1204.97,-141.32 1191.93,-53.21 1187.79,-25.21"/>
<polygon fill="midnightblue" stroke="midnightblue" points="1207.27,-180.82 1212.2,-190.2 1214.2,-179.79 1207.27,-180.82"/>
</g>
<!-- Node18&#45;&gt;Node3 -->
<g id="edge27" class="edge">
<title>Node18&#45;&gt;Node3</title>
<path fill="none" stroke="midnightblue" d="M718.65,-307.93C673.85,-278.46 589.88,-219.16 532.5,-154 517.06,-136.46 503.85,-112.68 496.29,-97.71"/>
<polygon fill="midnightblue" stroke="midnightblue" points="716.78,-310.89 727.07,-313.42 720.6,-305.03 716.78,-310.89"/>
</g>
<!-- Node19&#45;&gt;Node2 -->
<g id="edge30" class="edge">
<title>Node19&#45;&gt;Node2</title>
<path fill="none" stroke="midnightblue" d="M1000.17,-370.28C995.76,-330.97 991.06,-251.49 1014.5,-190 1020.06,-175.42 1032.21,-161.9 1040.86,-153.56"/>
<polygon fill="midnightblue" stroke="midnightblue" points="996.7,-370.75 1001.38,-380.25 1003.65,-369.9 996.7,-370.75"/>
</g>
<!-- Node19&#45;&gt;Node3 -->
<g id="edge29" class="edge">
<title>Node19&#45;&gt;Node3</title>
<path fill="none" stroke="midnightblue" d="M988.68,-371.58C973.63,-346.03 952.5,-302.98 952.5,-262.5 952.5,-262.5 952.5,-262.5 952.5,-199 952.5,-118.9 688.32,-93.91 559.07,-86.47"/>
<polygon fill="midnightblue" stroke="midnightblue" points="985.72,-373.44 993.91,-380.16 991.7,-369.8 985.72,-373.44"/>
</g>
<!-- Node19&#45;&gt;Node15 -->
<g id="edge31" class="edge">
<title>Node19&#45;&gt;Node15</title>
<path fill="none" stroke="midnightblue" d="M1074.06,-386.18C1184.24,-373.18 1395.04,-348.31 1496.77,-336.31"/>
<polygon fill="midnightblue" stroke="midnightblue" points="1073.56,-382.71 1064.04,-387.36 1074.38,-389.66 1073.56,-382.71"/>
</g>
<!-- Node19&#45;&gt;Node16 -->
<g id="edge32" class="edge">
<title>Node19&#45;&gt;Node16</title>
<path fill="none" stroke="midnightblue" d="M1047.59,-376.59C1113.01,-350.02 1234.44,-300.7 1293.89,-276.56"/>
<polygon fill="midnightblue" stroke="midnightblue" points="1045.92,-373.49 1037.97,-380.5 1048.56,-379.98 1045.92,-373.49"/>
</g>
<!-- Node19&#45;&gt;Node17 -->
<g id="edge34" class="edge">
<title>Node19&#45;&gt;Node17</title>
<path fill="none" stroke="midnightblue" d="M1026.57,-373.24C1072.4,-331.02 1173.13,-238.2 1204.19,-209.58"/>
<polygon fill="midnightblue" stroke="midnightblue" points="1023.92,-370.92 1018.94,-380.27 1028.67,-376.07 1023.92,-370.92"/>
</g>
<!-- Node19&#45;&gt;Node18 -->
<g id="edge33" class="edge">
<title>Node19&#45;&gt;Node18</title>
<path fill="none" stroke="midnightblue" d="M938.96,-377.98C897.47,-367.37 844.14,-353.72 804.64,-343.61"/>
<polygon fill="midnightblue" stroke="midnightblue" points="938.14,-381.39 948.7,-380.48 939.88,-374.61 938.14,-381.39"/>
</g>
<!-- Node20&#45;&gt;Node2 -->
<g id="edge37" class="edge">
<title>Node20&#45;&gt;Node2</title>
<path fill="none" stroke="midnightblue" d="M1331.95,-729.12C1240.47,-724.47 1092.5,-700.96 1092.5,-597.5 1092.5,-597.5 1092.5,-597.5 1092.5,-461.5 1092.5,-348.39 1064.79,-322.55 1053.5,-210 1051.49,-189.99 1050.83,-166.38 1050.61,-153.85"/>
<polygon fill="midnightblue" stroke="midnightblue" points="1331.85,-732.61 1341.99,-729.56 1332.16,-725.62 1331.85,-732.61"/>
</g>
<!-- Node20&#45;&gt;Node15 -->
<g id="edge38" class="edge">
<title>Node20&#45;&gt;Node15</title>
<path fill="none" stroke="midnightblue" d="M1450.5,-711.37C1495.04,-691.06 1554.5,-653.46 1554.5,-597.5 1554.5,-597.5 1554.5,-597.5 1554.5,-461.5 1554.5,-418.65 1554.5,-367.97 1554.5,-343.76"/>
<polygon fill="midnightblue" stroke="midnightblue" points="1448.99,-708.21 1441.25,-715.44 1451.81,-714.62 1448.99,-708.21"/>
</g>
<!-- Node20&#45;&gt;Node16 -->
<g id="edge41" class="edge">
<title>Node20&#45;&gt;Node16</title>
<path fill="none" stroke="midnightblue" d="M1400.7,-705.23C1398.21,-675.64 1392.91,-624.24 1383.5,-581 1373.31,-534.16 1361.2,-524.94 1351.5,-478 1336.01,-403.02 1330.61,-311.07 1329.05,-276.51"/>
<polygon fill="midnightblue" stroke="midnightblue" points="1397.23,-705.75 1401.52,-715.44 1404.21,-705.19 1397.23,-705.75"/>
</g>
<!-- Node21 -->
<g id="node21" class="node">
<title>Node21</title>
<g id="a_node21"><a xlink:href="arff__parsing_8hpp.html" target="_top" xlink:title="Implements parsing functions for the ARFF file format.">
<polygon fill="white" stroke="black" points="1621,-514.5 1621,-544.5 1742,-544.5 1742,-514.5 1621,-514.5"/>
<text text-anchor="start" x="1629" y="-532.5" font-family="Helvetica,sans-Serif" font-size="10.00">include/plssvm/detail</text>
<text text-anchor="middle" x="1681.5" y="-521.5" font-family="Helvetica,sans-Serif" font-size="10.00">/io/arff_parsing.hpp</text>
</a>
</g>
</g>
<!-- Node20&#45;&gt;Node21 -->
<g id="edge39" class="edge">
<title>Node20&#45;&gt;Node21</title>
<path fill="none" stroke="midnightblue" d="M1473.29,-718.17C1504.5,-710.71 1540.39,-698.56 1568.5,-679 1620.89,-642.55 1659.56,-574.26 1674.61,-544.72"/>
<polygon fill="midnightblue" stroke="midnightblue" points="1472.32,-714.8 1463.34,-720.43 1473.87,-721.62 1472.32,-714.8"/>
</g>
<!-- Node22 -->
<g id="node22" class="node">
<title>Node22</title>
<g id="a_node22"><a xlink:href="libsvm__parsing_8hpp.html" target="_top" xlink:title="Implements parsing functions for the LIBSVM file format.">
<polygon fill="white" stroke="black" points="1621,-380.5 1621,-410.5 1748,-410.5 1748,-380.5 1621,-380.5"/>
<text text-anchor="start" x="1629" y="-398.5" font-family="Helvetica,sans-Serif" font-size="10.00">include/plssvm/detail</text>
<text text-anchor="middle" x="1684.5" y="-387.5" font-family="Helvetica,sans-Serif" font-size="10.00">/io/libsvm_parsing.hpp</text>
</a>
</g>
</g>
<!-- Node20&#45;&gt;Node22 -->
<g id="edge42" class="edge">
<title>Node20&#45;&gt;Node22</title>
<path fill="none" stroke="midnightblue" d="M1473.35,-718.89C1580.26,-700.84 1770.5,-659.97 1770.5,-597.5 1770.5,-597.5 1770.5,-597.5 1770.5,-528.5 1770.5,-478.72 1727.03,-433 1701.9,-410.73"/>
<polygon fill="midnightblue" stroke="midnightblue" points="1472.56,-715.47 1463.27,-720.56 1473.71,-722.37 1472.56,-715.47"/>
</g>
<!-- Node23 -->
<g id="node23" class="node">
<title>Node23</title>
<g id="a_node23"><a xlink:href="scaling__factors__parsing_8hpp.html" target="_top" xlink:title="Implements parsing functions for the scaling factor file parsing.">
<polygon fill="white" stroke="black" points="1360,-447.5 1360,-477.5 1527,-477.5 1527,-447.5 1360,-447.5"/>
<text text-anchor="start" x="1368" y="-465.5" font-family="Helvetica,sans-Serif" font-size="10.00">include/plssvm/detail</text>
<text text-anchor="middle" x="1443.5" y="-454.5" font-family="Helvetica,sans-Serif" font-size="10.00">/io/scaling_factors_parsing.hpp</text>
</a>
</g>
</g>
<!-- Node20&#45;&gt;Node23 -->
<g id="edge45" class="edge">
<title>Node20&#45;&gt;Node23</title>
<path fill="none" stroke="midnightblue" d="M1409.88,-705.64C1412.27,-697.28 1414.74,-687.78 1416.5,-679 1431.52,-603.95 1439.7,-512.42 1442.44,-477.73"/>
<polygon fill="midnightblue" stroke="midnightblue" points="1406.45,-704.9 1406.98,-715.48 1413.17,-706.88 1406.45,-704.9"/>
</g>
<!-- Node24 -->
<g id="node24" class="node">
<title>Node24</title>
<g id="a_node24"><a xlink:href="kernel__function__types_8hpp.html" target="_top" xlink:title="Defines an enumeration holding all possible kernel function types.">
<polygon fill="white" stroke="black" points="1243,-648.5 1243,-678.5 1366,-678.5 1366,-648.5 1243,-648.5"/>
<text text-anchor="start" x="1251" y="-666.5" font-family="Helvetica,sans-Serif" font-size="10.00">include/plssvm/kernel</text>
<text text-anchor="middle" x="1304.5" y="-655.5" font-family="Helvetica,sans-Serif" font-size="10.00">_function_types.hpp</text>
</a>
</g>
</g>
<!-- Node20&#45;&gt;Node24 -->
<g id="edge47" class="edge">
<title>Node20&#45;&gt;Node24</title>
<path fill="none" stroke="midnightblue" d="M1372.7,-709.73C1357.53,-699.68 1339.46,-687.68 1325.72,-678.58"/>
<polygon fill="midnightblue" stroke="midnightblue" points="1370.97,-712.79 1381.24,-715.4 1374.84,-706.95 1370.97,-712.79"/>
</g>
<!-- Node20&#45;&gt;Node26 -->
<g id="edge64" class="edge">
<title>Node20&#45;&gt;Node26</title>
<path fill="none" stroke="midnightblue" d="M1331.59,-718.91C1265.9,-708.99 1165.51,-693.55 1078.5,-679 928.19,-653.86 750.55,-621.28 668.4,-606.05"/>
<polygon fill="midnightblue" stroke="midnightblue" points="1331.41,-722.42 1341.82,-720.45 1332.46,-715.5 1331.41,-722.42"/>
</g>
<!-- Node21&#45;&gt;Node15 -->
<g id="edge40" class="edge">
<title>Node21&#45;&gt;Node15</title>
<path fill="none" stroke="midnightblue" d="M1666.88,-505.59C1640.4,-464.1 1585.25,-377.68 1563.55,-343.68"/>
<polygon fill="midnightblue" stroke="midnightblue" points="1664.04,-507.64 1672.37,-514.19 1669.94,-503.88 1664.04,-507.64"/>
</g>
<!-- Node22&#45;&gt;Node15 -->
<g id="edge43" class="edge">
<title>Node22&#45;&gt;Node15</title>
<path fill="none" stroke="midnightblue" d="M1647.21,-375.85C1626.65,-365.58 1601.55,-353.03 1582.65,-343.58"/>
<polygon fill="midnightblue" stroke="midnightblue" points="1645.78,-379.05 1656.29,-380.4 1648.91,-372.79 1645.78,-379.05"/>
</g>
<!-- Node22&#45;&gt;Node17 -->
<g id="edge44" class="edge">
<title>Node22&#45;&gt;Node17</title>
<path fill="none" stroke="midnightblue" d="M1679.2,-370.08C1670.43,-336.1 1649.42,-275.4 1606.5,-246 1556,-211.41 1385.29,-203.17 1286.26,-201.36"/>
<polygon fill="midnightblue" stroke="midnightblue" points="1675.87,-371.21 1681.63,-380.1 1682.67,-369.56 1675.87,-371.21"/>
</g>
<!-- Node23&#45;&gt;Node15 -->
<g id="edge46" class="edge">
<title>Node23&#45;&gt;Node15</title>
<path fill="none" stroke="midnightblue" d="M1461.96,-439.54C1484.91,-412.25 1523.4,-366.48 1542.71,-343.52"/>
<polygon fill="midnightblue" stroke="midnightblue" points="1459.14,-437.47 1455.38,-447.37 1464.49,-441.97 1459.14,-437.47"/>
</g>
<!-- Node24&#45;&gt;Node2 -->
<g id="edge50" class="edge">
<title>Node24&#45;&gt;Node2</title>
<path fill="none" stroke="midnightblue" d="M1264.88,-643.5C1251.23,-635.37 1236.8,-624.78 1226.5,-612 1101.46,-456.84 1059.03,-203.52 1051.71,-153.67"/>
<polygon fill="midnightblue" stroke="midnightblue" points="1263.26,-646.61 1273.68,-648.49 1266.71,-640.52 1263.26,-646.61"/>
</g>
<!-- Node24&#45;&gt;Node10 -->
<g id="edge49" class="edge">
<title>Node24&#45;&gt;Node10</title>
<path fill="none" stroke="midnightblue" d="M1342.23,-643.78C1445.89,-592.04 1729.22,-448.47 1757.5,-411 1779.91,-381.31 1776.5,-366.69 1776.5,-329.5 1776.5,-329.5 1776.5,-329.5 1776.5,-143 1776.5,-37.19 1409.15,-19.6 1254.18,-16.89"/>
<polygon fill="midnightblue" stroke="midnightblue" points="1340.45,-640.75 1333.06,-648.35 1343.57,-647.02 1340.45,-640.75"/>
</g>
<!-- Node25 -->
<g id="node25" class="node">
<title>Node25</title>
<g id="a_node25"><a xlink:href="backends_2OpenCL_2detail_2utility_8hpp.html" target="_top" xlink:title="Utility functions specific to the OpenCL backend.">
<polygon fill="white" stroke="black" points="1235,-581.5 1235,-611.5 1374,-611.5 1374,-581.5 1235,-581.5"/>
<text text-anchor="start" x="1243" y="-599.5" font-family="Helvetica,sans-Serif" font-size="10.00">include/plssvm/backends</text>
<text text-anchor="middle" x="1304.5" y="-588.5" font-family="Helvetica,sans-Serif" font-size="10.00">/OpenCL/detail/utility.hpp</text>
</a>
</g>
</g>
<!-- Node24&#45;&gt;Node25 -->
<g id="edge48" class="edge">
<title>Node24&#45;&gt;Node25</title>
<path fill="none" stroke="midnightblue" d="M1304.5,-638.11C1304.5,-629.15 1304.5,-619.32 1304.5,-611.58"/>
<polygon fill="midnightblue" stroke="midnightblue" points="1301,-638.4 1304.5,-648.4 1308,-638.4 1301,-638.4"/>
</g>
<!-- Node24&#45;&gt;Node26 -->
<g id="edge51" class="edge">
<title>Node24&#45;&gt;Node26</title>
<path fill="none" stroke="midnightblue" d="M1232.71,-655.66C1105.09,-643.49 839.48,-618.18 704.72,-605.34"/>
<polygon fill="midnightblue" stroke="midnightblue" points="1232.49,-659.15 1242.77,-656.62 1233.15,-652.18 1232.49,-659.15"/>
</g>
<!-- Node26&#45;&gt;Node2 -->
<g id="edge60" class="edge">
<title>Node26&#45;&gt;Node2</title>
<path fill="none" stroke="midnightblue" d="M631.17,-577.5C642.39,-552.52 660.5,-505.65 660.5,-463.5 660.5,-463.5 660.5,-463.5 660.5,-394.5 660.5,-266.75 745.57,-241.47 862.5,-190 903.66,-171.88 953.24,-160.4 991.15,-153.58"/>
<polygon fill="midnightblue" stroke="midnightblue" points="627.89,-576.24 626.86,-586.79 634.24,-579.19 627.89,-576.24"/>
</g>
<!-- Node26&#45;&gt;Node3 -->
<g id="edge53" class="edge">
<title>Node26&#45;&gt;Node3</title>
<path fill="none" stroke="midnightblue" d="M588.02,-583.22C543.17,-564.79 470.5,-525.37 470.5,-463.5 470.5,-463.5 470.5,-463.5 470.5,-199 470.5,-162.01 480.1,-119.24 485.66,-97.6"/>
<polygon fill="midnightblue" stroke="midnightblue" points="586.81,-586.51 597.4,-586.94 589.39,-580.01 586.81,-586.51"/>
</g>
<!-- Node26&#45;&gt;Node4 -->
<g id="edge52" class="edge">
<title>Node26&#45;&gt;Node4</title>
<path fill="none" stroke="midnightblue" d="M549.87,-585.01C482.14,-570.64 391.5,-537.57 391.5,-463.5 391.5,-463.5 391.5,-463.5 391.5,-143 391.5,-108.18 387.47,-93.12 410.5,-67 426.11,-49.29 448.69,-37.75 470.66,-30.24"/>
<polygon fill="midnightblue" stroke="midnightblue" points="549.19,-588.44 559.68,-587 550.58,-581.58 549.19,-588.44"/>
</g>
<!-- Node26&#45;&gt;Node5 -->
<g id="edge54" class="edge">
<title>Node26&#45;&gt;Node5</title>
<path fill="none" stroke="midnightblue" d="M602.62,-580.48C591.72,-571.32 578.79,-558.74 570.5,-545 550.98,-512.68 546.5,-501.26 546.5,-463.5 546.5,-463.5 546.5,-463.5 546.5,-199 546.5,-133.61 564.84,-112.82 611.5,-67 627.07,-51.71 648.14,-39.24 665.53,-30.52"/>
<polygon fill="midnightblue" stroke="midnightblue" points="600.46,-583.24 610.44,-586.79 604.85,-577.79 600.46,-583.24"/>
</g>
<!-- Node26&#45;&gt;Node6 -->
<g id="edge55" class="edge">
<title>Node26&#45;&gt;Node6</title>
<path fill="none" stroke="midnightblue" d="M529.91,-587.97C394.79,-574.38 159.5,-539.77 159.5,-463.5 159.5,-463.5 159.5,-463.5 159.5,-143 159.5,-94.75 115.5,-52.13 89.03,-30.85"/>
<polygon fill="midnightblue" stroke="midnightblue" points="529.96,-591.49 540.26,-588.99 530.65,-584.52 529.96,-591.49"/>
</g>
<!-- Node26&#45;&gt;Node7 -->
<g id="edge57" class="edge">
<title>Node26&#45;&gt;Node7</title>
<path fill="none" stroke="midnightblue" d="M530.24,-586.89C480.72,-579.9 419.55,-567.35 368.5,-545 312.11,-520.31 256.5,-525.06 256.5,-463.5 256.5,-463.5 256.5,-463.5 256.5,-143 256.5,-101.24 240.83,-53.78 232.14,-30.66"/>
<polygon fill="midnightblue" stroke="midnightblue" points="529.92,-590.38 540.3,-588.26 530.86,-583.45 529.92,-590.38"/>
</g>
<!-- Node26&#45;&gt;Node8 -->
<g id="edge58" class="edge">
<title>Node26&#45;&gt;Node8</title>
<path fill="none" stroke="midnightblue" d="M529.98,-587.73C452.16,-575.53 353.5,-544.15 353.5,-463.5 353.5,-463.5 353.5,-463.5 353.5,-143 353.5,-101.24 369.17,-53.78 377.86,-30.66"/>
<polygon fill="midnightblue" stroke="midnightblue" points="529.92,-591.26 540.33,-589.27 530.95,-584.34 529.92,-591.26"/>
</g>
<!-- Node26&#45;&gt;Node9 -->
<g id="edge56" class="edge">
<title>Node26&#45;&gt;Node9</title>
<path fill="none" stroke="midnightblue" d="M622.5,-576.72C622.5,-551.12 622.5,-503.84 622.5,-463.5 622.5,-463.5 622.5,-463.5 622.5,-394.5 622.5,-263.25 745.06,-138.54 789.58,-97.56"/>
<polygon fill="midnightblue" stroke="midnightblue" points="619,-576.85 622.5,-586.85 626,-576.85 619,-576.85"/>
</g>
<!-- Node26&#45;&gt;Node10 -->
<g id="edge59" class="edge">
<title>Node26&#45;&gt;Node10</title>
<path fill="none" stroke="midnightblue" d="M613.83,-577.5C602.61,-552.52 584.5,-505.65 584.5,-463.5 584.5,-463.5 584.5,-463.5 584.5,-199 584.5,-112.51 648.79,-102.86 727.5,-67 795.62,-35.96 1008.62,-23.34 1118.86,-18.77"/>
<polygon fill="midnightblue" stroke="midnightblue" points="610.76,-579.19 618.14,-586.79 617.11,-576.24 610.76,-579.19"/>
</g>
<!-- Node26&#45;&gt;Node12 -->
<g id="edge61" class="edge">
<title>Node26&#45;&gt;Node12</title>
<path fill="none" stroke="midnightblue" d="M670.45,-584.68C719.34,-573.64 795.39,-556.48 848.75,-544.44"/>
<polygon fill="midnightblue" stroke="midnightblue" points="669.43,-581.32 660.45,-586.94 670.97,-588.15 669.43,-581.32"/>
</g>
<!-- Node26&#45;&gt;Node16 -->
<g id="edge62" class="edge">
<title>Node26&#45;&gt;Node16</title>
<path fill="none" stroke="midnightblue" d="M714.71,-588.92C787.99,-582.16 892.59,-569.12 981.5,-545 1057.09,-524.5 1076.54,-516.94 1144.5,-478 1187.15,-453.56 1199.1,-447.07 1232.5,-411 1272.96,-367.3 1307.23,-304.55 1321.46,-276.72"/>
<polygon fill="midnightblue" stroke="midnightblue" points="714.23,-585.45 704.59,-589.83 714.86,-592.42 714.23,-585.45"/>
</g>
<!-- Node26&#45;&gt;Node17 -->
<g id="edge63" class="edge">
<title>Node26&#45;&gt;Node17</title>
<path fill="none" stroke="midnightblue" d="M651.88,-583.14C693.38,-566 771.75,-534.79 840.5,-514 907.78,-493.65 929.5,-504.75 994.5,-478 1047.09,-456.36 1060.16,-447.82 1103.5,-411 1159.53,-363.4 1175.41,-346.11 1200.5,-277 1209,-253.6 1212.01,-224.08 1213.02,-209.69"/>
<polygon fill="midnightblue" stroke="midnightblue" points="650.53,-579.91 642.64,-586.98 653.22,-586.37 650.53,-579.91"/>
</g>
</g>
</svg>
