<?xml version="1.0" encoding="UTF-8" standalone="no"?>
<!DOCTYPE svg PUBLIC "-//W3C//DTD SVG 1.1//EN"
 "http://www.w3.org/Graphics/SVG/1.1/DTD/svg11.dtd">
<!-- Generated by graphviz version 2.43.0 (0)
 -->
<!-- Title: include/plssvm/detail/utility.hpp Pages: 1 -->
<svg width="1586pt" height="754pt"
 viewBox="0.00 0.00 1585.50 754.00" xmlns="http://www.w3.org/2000/svg" xmlns:xlink="http://www.w3.org/1999/xlink">
<g id="graph0" class="graph" transform="scale(1 1) rotate(0) translate(4 750)">
<title>include/plssvm/detail/utility.hpp</title>
<polygon fill="white" stroke="transparent" points="-4,4 -4,-750 1581.5,-750 1581.5,4 -4,4"/>
<!-- Node1 -->
<g id="node1" class="node">
<title>Node1</title>
<g id="a_node1"><a xlink:title="Defines universal utility functions.">
<polygon fill="#bfbfbf" stroke="black" points="266.5,-715.5 266.5,-745.5 387.5,-745.5 387.5,-715.5 266.5,-715.5"/>
<text text-anchor="start" x="274.5" y="-733.5" font-family="Helvetica,sans-Serif" font-size="10.00">include/plssvm/detail</text>
<text text-anchor="middle" x="327" y="-722.5" font-family="Helvetica,sans-Serif" font-size="10.00">/utility.hpp</text>
</a>
</g>
</g>
<!-- Node2 -->
<g id="node2" class="node">
<title>Node2</title>
<g id="a_node2"><a xlink:href="csvm_8hpp.html" target="_top" xlink:title="Defines the base class for all C&#45;SVM backends and implements the functionality shared by all of them.">
<polygon fill="white" stroke="black" points="686,-134.5 686,-153.5 826,-153.5 826,-134.5 686,-134.5"/>
<text text-anchor="middle" x="756" y="-141.5" font-family="Helvetica,sans-Serif" font-size="10.00">include/plssvm/csvm.hpp</text>
</a>
</g>
</g>
<!-- Node1&#45;&gt;Node2 -->
<g id="edge1" class="edge">
<title>Node1&#45;&gt;Node2</title>
<path fill="none" stroke="midnightblue" d="M397.63,-730.11C567.7,-729.67 986,-716.49 986,-597.5 986,-597.5 986,-597.5 986,-394.5 986,-269.6 828.27,-180.46 774.05,-153.51"/>
<polygon fill="midnightblue" stroke="midnightblue" points="397.52,-726.61 387.52,-730.12 397.53,-733.61 397.52,-726.61"/>
</g>
<!-- Node12 -->
<g id="node12" class="node">
<title>Node12</title>
<g id="a_node12"><a xlink:href="data__set_8hpp.html" target="_top" xlink:title="Implements a data set class encapsulating all data points, features, and potential labels.">
<polygon fill="white" stroke="black" points="221.5,-313.5 221.5,-343.5 336.5,-343.5 336.5,-313.5 221.5,-313.5"/>
<text text-anchor="start" x="229.5" y="-331.5" font-family="Helvetica,sans-Serif" font-size="10.00">include/plssvm/data</text>
<text text-anchor="middle" x="279" y="-320.5" font-family="Helvetica,sans-Serif" font-size="10.00">_set.hpp</text>
</a>
</g>
</g>
<!-- Node1&#45;&gt;Node12 -->
<g id="edge12" class="edge">
<title>Node1&#45;&gt;Node12</title>
<path fill="none" stroke="midnightblue" d="M333.69,-705.44C349.66,-646.26 387.53,-494.93 371,-447 356.05,-403.65 317.79,-364.07 295.6,-343.78"/>
<polygon fill="midnightblue" stroke="midnightblue" points="330.23,-704.8 330.98,-715.37 336.98,-706.65 330.23,-704.8"/>
</g>
<!-- Node14 -->
<g id="node14" class="node">
<title>Node14</title>
<g id="a_node14"><a xlink:href="libsvm__model__parsing_8hpp.html" target="_top" xlink:title="Implements parsing functions for the LIBSVM model file.">
<polygon fill="white" stroke="black" points="218.5,-246.5 218.5,-276.5 381.5,-276.5 381.5,-246.5 218.5,-246.5"/>
<text text-anchor="start" x="226.5" y="-264.5" font-family="Helvetica,sans-Serif" font-size="10.00">include/plssvm/detail</text>
<text text-anchor="middle" x="300" y="-253.5" font-family="Helvetica,sans-Serif" font-size="10.00">/io/libsvm_model_parsing.hpp</text>
</a>
</g>
</g>
<!-- Node1&#45;&gt;Node14 -->
<g id="edge23" class="edge">
<title>Node1&#45;&gt;Node14</title>
<path fill="none" stroke="midnightblue" d="M256.23,-727.02C170.67,-719.8 38,-693.17 38,-597.5 38,-597.5 38,-597.5 38,-394.5 38,-312.63 141.31,-281.53 218.18,-269.72"/>
<polygon fill="midnightblue" stroke="midnightblue" points="256.18,-730.53 266.42,-727.81 256.72,-723.55 256.18,-730.53"/>
</g>
<!-- Node16 -->
<g id="node16" class="node">
<title>Node16</title>
<g id="a_node16"><a xlink:href="arff__parsing_8hpp.html" target="_top" xlink:title="Implements parsing functions for the ARFF file format.">
<polygon fill="white" stroke="black" points="158.5,-514.5 158.5,-544.5 279.5,-544.5 279.5,-514.5 158.5,-514.5"/>
<text text-anchor="start" x="166.5" y="-532.5" font-family="Helvetica,sans-Serif" font-size="10.00">include/plssvm/detail</text>
<text text-anchor="middle" x="219" y="-521.5" font-family="Helvetica,sans-Serif" font-size="10.00">/io/arff_parsing.hpp</text>
</a>
</g>
</g>
<!-- Node1&#45;&gt;Node16 -->
<g id="edge21" class="edge">
<title>Node1&#45;&gt;Node16</title>
<path fill="none" stroke="midnightblue" d="M311.41,-706.81C305.71,-698.23 299.36,-688.29 294,-679 266.29,-630.96 237.96,-571.45 225.52,-544.7"/>
<polygon fill="midnightblue" stroke="midnightblue" points="308.55,-708.84 317.03,-715.18 314.36,-704.93 308.55,-708.84"/>
</g>
<!-- Node17 -->
<g id="node17" class="node">
<title>Node17</title>
<g id="a_node17"><a xlink:href="libsvm__parsing_8hpp.html" target="_top" xlink:title="Implements parsing functions for the LIBSVM file format.">
<polygon fill="white" stroke="black" points="66.5,-380.5 66.5,-410.5 193.5,-410.5 193.5,-380.5 66.5,-380.5"/>
<text text-anchor="start" x="74.5" y="-398.5" font-family="Helvetica,sans-Serif" font-size="10.00">include/plssvm/detail</text>
<text text-anchor="middle" x="130" y="-387.5" font-family="Helvetica,sans-Serif" font-size="10.00">/io/libsvm_parsing.hpp</text>
</a>
</g>
</g>
<!-- Node1&#45;&gt;Node17 -->
<g id="edge24" class="edge">
<title>Node1&#45;&gt;Node17</title>
<path fill="none" stroke="midnightblue" d="M256.62,-713.06C200.06,-695.18 130,-660.35 130,-597.5 130,-597.5 130,-597.5 130,-528.5 130,-485.65 130,-434.97 130,-410.76"/>
<polygon fill="midnightblue" stroke="midnightblue" points="255.7,-716.44 266.29,-716 257.73,-709.74 255.7,-716.44"/>
</g>
<!-- Node18 -->
<g id="node18" class="node">
<title>Node18</title>
<g id="a_node18"><a xlink:href="scaling__factors__parsing_8hpp.html" target="_top" xlink:title="Implements parsing functions for the scaling factor file parsing.">
<polygon fill="white" stroke="black" points="195.5,-447.5 195.5,-477.5 362.5,-477.5 362.5,-447.5 195.5,-447.5"/>
<text text-anchor="start" x="203.5" y="-465.5" font-family="Helvetica,sans-Serif" font-size="10.00">include/plssvm/detail</text>
<text text-anchor="middle" x="279" y="-454.5" font-family="Helvetica,sans-Serif" font-size="10.00">/io/scaling_factors_parsing.hpp</text>
</a>
</g>
</g>
<!-- Node1&#45;&gt;Node18 -->
<g id="edge27" class="edge">
<title>Node1&#45;&gt;Node18</title>
<path fill="none" stroke="midnightblue" d="M322.59,-705.07C312.76,-650.57 289.29,-520.52 281.54,-477.55"/>
<polygon fill="midnightblue" stroke="midnightblue" points="319.2,-705.98 324.42,-715.2 326.09,-704.74 319.2,-705.98"/>
</g>
<!-- Node19 -->
<g id="node19" class="node">
<title>Node19</title>
<g id="a_node19"><a xlink:href="kernel__function__types_8hpp.html" target="_top" xlink:title="Defines an enumeration holding all possible kernel function types.">
<polygon fill="white" stroke="black" points="382.5,-648.5 382.5,-678.5 505.5,-678.5 505.5,-648.5 382.5,-648.5"/>
<text text-anchor="start" x="390.5" y="-666.5" font-family="Helvetica,sans-Serif" font-size="10.00">include/plssvm/kernel</text>
<text text-anchor="middle" x="444" y="-655.5" font-family="Helvetica,sans-Serif" font-size="10.00">_function_types.hpp</text>
</a>
</g>
</g>
<!-- Node1&#45;&gt;Node19 -->
<g id="edge29" class="edge">
<title>Node1&#45;&gt;Node19</title>
<path fill="none" stroke="midnightblue" d="M361.32,-710.44C379.67,-700.24 401.88,-687.9 418.66,-678.58"/>
<polygon fill="midnightblue" stroke="midnightblue" points="359.43,-707.48 352.39,-715.4 362.83,-713.6 359.43,-707.48"/>
</g>
<!-- Node21 -->
<g id="node21" class="node">
<title>Node21</title>
<g id="a_node21"><a xlink:href="parameter_8hpp.html" target="_top" xlink:title="Implements the parameter class encapsulating all important C&#45;SVM parameters.">
<polygon fill="white" stroke="black" points="1016,-587 1016,-606 1180,-606 1180,-587 1016,-587"/>
<text text-anchor="middle" x="1098" y="-594" font-family="Helvetica,sans-Serif" font-size="10.00">include/plssvm/parameter.hpp</text>
</a>
</g>
</g>
<!-- Node1&#45;&gt;Node21 -->
<g id="edge61" class="edge">
<title>Node1&#45;&gt;Node21</title>
<path fill="none" stroke="midnightblue" d="M397.7,-729.6C547.57,-728.94 892.29,-722.56 1000,-679 1040.21,-662.74 1076.29,-623.6 1091,-606.15"/>
<polygon fill="midnightblue" stroke="midnightblue" points="397.67,-726.1 387.68,-729.64 397.7,-733.1 397.67,-726.1"/>
</g>
<!-- Node3 -->
<g id="node3" class="node">
<title>Node3</title>
<g id="a_node3"><a xlink:href="gpu__csvm_8hpp.html" target="_top" xlink:title="Defines the base class for all C&#45;SVM backends using a GPU. Used for code duplication reduction.">
<polygon fill="white" stroke="black" points="1046.5,-67.5 1046.5,-97.5 1185.5,-97.5 1185.5,-67.5 1046.5,-67.5"/>
<text text-anchor="start" x="1054.5" y="-85.5" font-family="Helvetica,sans-Serif" font-size="10.00">include/plssvm/backends</text>
<text text-anchor="middle" x="1116" y="-74.5" font-family="Helvetica,sans-Serif" font-size="10.00">/gpu_csvm.hpp</text>
</a>
</g>
</g>
<!-- Node2&#45;&gt;Node3 -->
<g id="edge2" class="edge">
<title>Node2&#45;&gt;Node3</title>
<path fill="none" stroke="midnightblue" d="M817.46,-132.84C880.96,-122.35 979.91,-105.99 1046.29,-95.02"/>
<polygon fill="midnightblue" stroke="midnightblue" points="816.87,-129.39 807.58,-134.48 818.02,-136.3 816.87,-129.39"/>
</g>
<!-- Node9 -->
<g id="node9" class="node">
<title>Node9</title>
<g id="a_node9"><a xlink:href="backends_2OpenMP_2csvm_8hpp.html" target="_top" xlink:title="Defines a C&#45;SVM using the OpenMP backend.">
<polygon fill="white" stroke="black" points="798.5,-67.5 798.5,-97.5 937.5,-97.5 937.5,-67.5 798.5,-67.5"/>
<text text-anchor="start" x="806.5" y="-85.5" font-family="Helvetica,sans-Serif" font-size="10.00">include/plssvm/backends</text>
<text text-anchor="middle" x="868" y="-74.5" font-family="Helvetica,sans-Serif" font-size="10.00">/OpenMP/csvm.hpp</text>
</a>
</g>
</g>
<!-- Node2&#45;&gt;Node9 -->
<g id="edge8" class="edge">
<title>Node2&#45;&gt;Node9</title>
<path fill="none" stroke="midnightblue" d="M781.33,-129.54C799.31,-119.99 823.39,-107.2 841.6,-97.52"/>
<polygon fill="midnightblue" stroke="midnightblue" points="779.24,-126.69 772.05,-134.48 782.52,-132.87 779.24,-126.69"/>
</g>
<!-- Node10 -->
<g id="node10" class="node">
<title>Node10</title>
<g id="a_node10"><a xlink:href="core_8hpp.html" target="_top" xlink:title="Core header including all other necessary headers.">
<polygon fill="white" stroke="black" points="599.5,-6 599.5,-25 734.5,-25 734.5,-6 599.5,-6"/>
<text text-anchor="middle" x="667" y="-13" font-family="Helvetica,sans-Serif" font-size="10.00">include/plssvm/core.hpp</text>
</a>
</g>
</g>
<!-- Node2&#45;&gt;Node10 -->
<g id="edge9" class="edge">
<title>Node2&#45;&gt;Node10</title>
<path fill="none" stroke="midnightblue" d="M754.59,-124.29C752.59,-107.95 747.74,-84.22 736,-67 723.04,-47.99 700.48,-33.48 684.7,-25"/>
<polygon fill="midnightblue" stroke="midnightblue" points="751.11,-124.64 755.57,-134.25 758.08,-123.95 751.11,-124.64"/>
</g>
<!-- Node11 -->
<g id="node11" class="node">
<title>Node11</title>
<g id="a_node11"><a xlink:href="csvm__factory_8hpp.html" target="_top" xlink:title="Factory function for constructing a new C&#45;SVM based on the provided plssvm::backend_type and potentia...">
<polygon fill="white" stroke="black" points="608.5,-67.5 608.5,-97.5 727.5,-97.5 727.5,-67.5 608.5,-67.5"/>
<text text-anchor="start" x="616.5" y="-85.5" font-family="Helvetica,sans-Serif" font-size="10.00">include/plssvm/csvm</text>
<text text-anchor="middle" x="668" y="-74.5" font-family="Helvetica,sans-Serif" font-size="10.00">_factory.hpp</text>
</a>
</g>
</g>
<!-- Node2&#45;&gt;Node11 -->
<g id="edge10" class="edge">
<title>Node2&#45;&gt;Node11</title>
<path fill="none" stroke="midnightblue" d="M734.91,-128.74C720.92,-119.28 702.65,-106.93 688.74,-97.52"/>
<polygon fill="midnightblue" stroke="midnightblue" points="733.15,-131.77 743.39,-134.48 737.07,-125.97 733.15,-131.77"/>
</g>
<!-- Node4 -->
<g id="node4" class="node">
<title>Node4</title>
<g id="a_node4"><a xlink:href="backends_2CUDA_2csvm_8hpp.html" target="_top" xlink:title="Defines a C&#45;SVM using the CUDA backend.">
<polygon fill="white" stroke="black" points="810.5,-0.5 810.5,-30.5 949.5,-30.5 949.5,-0.5 810.5,-0.5"/>
<text text-anchor="start" x="818.5" y="-18.5" font-family="Helvetica,sans-Serif" font-size="10.00">include/plssvm/backends</text>
<text text-anchor="middle" x="880" y="-7.5" font-family="Helvetica,sans-Serif" font-size="10.00">/CUDA/csvm.hpp</text>
</a>
</g>
</g>
<!-- Node3&#45;&gt;Node4 -->
<g id="edge3" class="edge">
<title>Node3&#45;&gt;Node4</title>
<path fill="none" stroke="midnightblue" d="M1055.06,-64.71C1016.65,-54.14 967.63,-40.63 931.23,-30.61"/>
<polygon fill="midnightblue" stroke="midnightblue" points="1054.51,-68.19 1065.08,-67.48 1056.37,-61.45 1054.51,-68.19"/>
</g>
<!-- Node5 -->
<g id="node5" class="node">
<title>Node5</title>
<g id="a_node5"><a xlink:href="backends_2HIP_2csvm_8hpp.html" target="_top" xlink:title="Defines a C&#45;SVM using the HIP backend.">
<polygon fill="white" stroke="black" points="967.5,-0.5 967.5,-30.5 1106.5,-30.5 1106.5,-0.5 967.5,-0.5"/>
<text text-anchor="start" x="975.5" y="-18.5" font-family="Helvetica,sans-Serif" font-size="10.00">include/plssvm/backends</text>
<text text-anchor="middle" x="1037" y="-7.5" font-family="Helvetica,sans-Serif" font-size="10.00">/HIP/csvm.hpp</text>
</a>
</g>
</g>
<!-- Node3&#45;&gt;Node5 -->
<g id="edge4" class="edge">
<title>Node3&#45;&gt;Node5</title>
<path fill="none" stroke="midnightblue" d="M1090.94,-60.88C1078.94,-51.01 1064.87,-39.43 1054.11,-30.58"/>
<polygon fill="midnightblue" stroke="midnightblue" points="1088.91,-63.75 1098.86,-67.4 1093.36,-58.34 1088.91,-63.75"/>
</g>
<!-- Node6 -->
<g id="node6" class="node">
<title>Node6</title>
<g id="a_node6"><a xlink:href="backends_2OpenCL_2csvm_8hpp.html" target="_top" xlink:title="Defines a C&#45;SVM using the OpenCL backend.">
<polygon fill="white" stroke="black" points="1124.5,-0.5 1124.5,-30.5 1263.5,-30.5 1263.5,-0.5 1124.5,-0.5"/>
<text text-anchor="start" x="1132.5" y="-18.5" font-family="Helvetica,sans-Serif" font-size="10.00">include/plssvm/backends</text>
<text text-anchor="middle" x="1194" y="-7.5" font-family="Helvetica,sans-Serif" font-size="10.00">/OpenCL/csvm.hpp</text>
</a>
</g>
</g>
<!-- Node3&#45;&gt;Node6 -->
<g id="edge5" class="edge">
<title>Node3&#45;&gt;Node6</title>
<path fill="none" stroke="midnightblue" d="M1140.74,-60.88C1152.59,-51.01 1166.48,-39.43 1177.11,-30.58"/>
<polygon fill="midnightblue" stroke="midnightblue" points="1138.37,-58.31 1132.92,-67.4 1142.85,-63.68 1138.37,-58.31"/>
</g>
<!-- Node7 -->
<g id="node7" class="node">
<title>Node7</title>
<g id="a_node7"><a xlink:href="backends_2SYCL_2hipSYCL_2csvm_8hpp.html" target="_top" xlink:title="Defines a base C&#45;SVM used for the different SYCL backends using hipSYCL as SYCL implementation.">
<polygon fill="white" stroke="black" points="1281.5,-0.5 1281.5,-30.5 1420.5,-30.5 1420.5,-0.5 1281.5,-0.5"/>
<text text-anchor="start" x="1289.5" y="-18.5" font-family="Helvetica,sans-Serif" font-size="10.00">include/plssvm/backends</text>
<text text-anchor="middle" x="1351" y="-7.5" font-family="Helvetica,sans-Serif" font-size="10.00">/SYCL/hipSYCL/csvm.hpp</text>
</a>
</g>
</g>
<!-- Node3&#45;&gt;Node7 -->
<g id="edge6" class="edge">
<title>Node3&#45;&gt;Node7</title>
<path fill="none" stroke="midnightblue" d="M1176.68,-64.71C1214.93,-54.14 1263.74,-40.63 1299.98,-30.61"/>
<polygon fill="midnightblue" stroke="midnightblue" points="1175.41,-61.44 1166.7,-67.48 1177.27,-68.18 1175.41,-61.44"/>
</g>
<!-- Node8 -->
<g id="node8" class="node">
<title>Node8</title>
<g id="a_node8"><a xlink:href="backends_2SYCL_2DPCPP_2csvm_8hpp.html" target="_top" xlink:title="Defines a base C&#45;SVM used for the different SYCL backends using DPC++ as SYCL implementation.">
<polygon fill="white" stroke="black" points="1438.5,-0.5 1438.5,-30.5 1577.5,-30.5 1577.5,-0.5 1438.5,-0.5"/>
<text text-anchor="start" x="1446.5" y="-18.5" font-family="Helvetica,sans-Serif" font-size="10.00">include/plssvm/backends</text>
<text text-anchor="middle" x="1508" y="-7.5" font-family="Helvetica,sans-Serif" font-size="10.00">/SYCL/DPCPP/csvm.hpp</text>
</a>
</g>
</g>
<!-- Node3&#45;&gt;Node8 -->
<g id="edge7" class="edge">
<title>Node3&#45;&gt;Node8</title>
<path fill="none" stroke="midnightblue" d="M1195.56,-69.25C1259.09,-59.34 1350.34,-44.81 1430,-31 1432.71,-30.53 1435.48,-30.04 1438.27,-29.55"/>
<polygon fill="midnightblue" stroke="midnightblue" points="1194.95,-65.8 1185.61,-70.8 1196.03,-72.72 1194.95,-65.8"/>
</g>
<!-- Node11&#45;&gt;Node10 -->
<g id="edge11" class="edge">
<title>Node11&#45;&gt;Node10</title>
<path fill="none" stroke="midnightblue" d="M667.63,-57.25C667.45,-46.02 667.26,-33.38 667.13,-25.19"/>
<polygon fill="midnightblue" stroke="midnightblue" points="664.13,-57.45 667.78,-67.4 671.13,-57.34 664.13,-57.45"/>
</g>
<!-- Node12&#45;&gt;Node2 -->
<g id="edge14" class="edge">
<title>Node12&#45;&gt;Node2</title>
<path fill="none" stroke="midnightblue" d="M238.8,-308.56C210.28,-292.57 180.15,-268.71 199,-246 260.08,-172.41 550.23,-152.34 685.84,-146.94"/>
<polygon fill="midnightblue" stroke="midnightblue" points="237.47,-311.82 247.94,-313.47 240.78,-305.66 237.47,-311.82"/>
</g>
<!-- Node12&#45;&gt;Node10 -->
<g id="edge13" class="edge">
<title>Node12&#45;&gt;Node10</title>
<path fill="none" stroke="midnightblue" d="M221.63,-309.86C173.99,-291.24 114,-256.72 114,-201 114,-201 114,-201 114,-143 114,-44.45 451.95,-22.68 599.47,-17.86"/>
<polygon fill="midnightblue" stroke="midnightblue" points="220.68,-313.25 231.28,-313.49 223.15,-306.69 220.68,-313.25"/>
</g>
<!-- Node13 -->
<g id="node13" class="node">
<title>Node13</title>
<g id="a_node13"><a xlink:href="data__set__variants_8hpp.html" target="_top" xlink:title="Implements utility functions to create a data set based on runtime parameters.">
<polygon fill="white" stroke="black" points="400,-246.5 400,-276.5 552,-276.5 552,-246.5 400,-246.5"/>
<text text-anchor="start" x="408" y="-264.5" font-family="Helvetica,sans-Serif" font-size="10.00">include/plssvm/detail</text>
<text text-anchor="middle" x="476" y="-253.5" font-family="Helvetica,sans-Serif" font-size="10.00">/cmd/data_set_variants.hpp</text>
</a>
</g>
</g>
<!-- Node12&#45;&gt;Node13 -->
<g id="edge15" class="edge">
<title>Node12&#45;&gt;Node13</title>
<path fill="none" stroke="midnightblue" d="M331.35,-310.23C363.22,-299.71 403.41,-286.45 433.34,-276.58"/>
<polygon fill="midnightblue" stroke="midnightblue" points="330.15,-306.94 321.75,-313.4 332.34,-313.59 330.15,-306.94"/>
</g>
<!-- Node12&#45;&gt;Node14 -->
<g id="edge16" class="edge">
<title>Node12&#45;&gt;Node14</title>
<path fill="none" stroke="midnightblue" d="M286.69,-303.7C289.63,-294.59 292.89,-284.49 295.45,-276.58"/>
<polygon fill="midnightblue" stroke="midnightblue" points="283.3,-302.8 283.56,-313.4 289.96,-304.96 283.3,-302.8"/>
</g>
<!-- Node15 -->
<g id="node15" class="node">
<title>Node15</title>
<g id="a_node15"><a xlink:href="model_8hpp.html" target="_top" xlink:title="Implements a model class encapsulating the results of a SVM fit call.">
<polygon fill="white" stroke="black" points="507.5,-190.5 507.5,-209.5 652.5,-209.5 652.5,-190.5 507.5,-190.5"/>
<text text-anchor="middle" x="580" y="-197.5" font-family="Helvetica,sans-Serif" font-size="10.00">include/plssvm/model.hpp</text>
</a>
</g>
</g>
<!-- Node12&#45;&gt;Node15 -->
<g id="edge20" class="edge">
<title>Node12&#45;&gt;Node15</title>
<path fill="none" stroke="midnightblue" d="M243.41,-307.94C217.68,-291.33 190.44,-266.95 209,-246 228.42,-224.09 404.89,-210.7 507.29,-204.72"/>
<polygon fill="midnightblue" stroke="midnightblue" points="241.66,-310.97 252.01,-313.25 245.34,-305.02 241.66,-310.97"/>
</g>
<!-- Node14&#45;&gt;Node15 -->
<g id="edge17" class="edge">
<title>Node14&#45;&gt;Node15</title>
<path fill="none" stroke="midnightblue" d="M376.03,-244.34C428.93,-233.1 497.36,-218.56 539.97,-209.51"/>
<polygon fill="midnightblue" stroke="midnightblue" points="375.06,-240.97 366,-246.47 376.51,-247.82 375.06,-240.97"/>
</g>
<!-- Node15&#45;&gt;Node2 -->
<g id="edge19" class="edge">
<title>Node15&#45;&gt;Node2</title>
<path fill="none" stroke="midnightblue" d="M617.69,-187.44C650.87,-177.26 698.43,-162.66 728.24,-153.52"/>
<polygon fill="midnightblue" stroke="midnightblue" points="616.42,-184.16 607.89,-190.44 618.47,-190.86 616.42,-184.16"/>
</g>
<!-- Node15&#45;&gt;Node10 -->
<g id="edge18" class="edge">
<title>Node15&#45;&gt;Node10</title>
<path fill="none" stroke="midnightblue" d="M578.37,-180.19C576.94,-153.16 577.74,-102.67 599,-67 610.52,-47.67 632.56,-33.41 648.43,-25.06"/>
<polygon fill="midnightblue" stroke="midnightblue" points="574.89,-180.49 579.07,-190.23 581.87,-180.01 574.89,-180.49"/>
</g>
<!-- Node16&#45;&gt;Node12 -->
<g id="edge22" class="edge">
<title>Node16&#45;&gt;Node12</title>
<path fill="none" stroke="midnightblue" d="M200.41,-506.14C194.62,-497.83 188.97,-487.98 186,-478 182.07,-464.8 181.47,-460.01 186,-447 201.13,-403.51 239.8,-363.99 262.22,-343.74"/>
<polygon fill="midnightblue" stroke="midnightblue" points="197.61,-508.25 206.39,-514.19 203.23,-504.07 197.61,-508.25"/>
</g>
<!-- Node17&#45;&gt;Node12 -->
<g id="edge25" class="edge">
<title>Node17&#45;&gt;Node12</title>
<path fill="none" stroke="midnightblue" d="M171.79,-376.27C195.52,-365.92 224.78,-353.15 246.73,-343.58"/>
<polygon fill="midnightblue" stroke="midnightblue" points="170.1,-373.19 162.33,-380.4 172.9,-379.61 170.1,-373.19"/>
</g>
<!-- Node17&#45;&gt;Node15 -->
<g id="edge26" class="edge">
<title>Node17&#45;&gt;Node15</title>
<path fill="none" stroke="midnightblue" d="M133.82,-370.19C140.54,-336.33 157.86,-275.79 199,-246 246.74,-211.43 410.6,-203.15 507.19,-201.33"/>
<polygon fill="midnightblue" stroke="midnightblue" points="130.35,-369.7 132,-380.17 137.24,-370.96 130.35,-369.7"/>
</g>
<!-- Node18&#45;&gt;Node12 -->
<g id="edge28" class="edge">
<title>Node18&#45;&gt;Node12</title>
<path fill="none" stroke="midnightblue" d="M279,-437.02C279,-409.51 279,-365.79 279,-343.52"/>
<polygon fill="midnightblue" stroke="midnightblue" points="275.5,-437.37 279,-447.37 282.5,-437.37 275.5,-437.37"/>
</g>
<!-- Node19&#45;&gt;Node2 -->
<g id="edge32" class="edge">
<title>Node19&#45;&gt;Node2</title>
<path fill="none" stroke="midnightblue" d="M484.6,-643.35C498.08,-635.3 512.15,-624.79 522,-612 569.08,-550.87 544.05,-517.24 576,-447 631.85,-324.21 725.42,-188.36 749.96,-153.51"/>
<polygon fill="midnightblue" stroke="midnightblue" points="482.85,-640.32 475.87,-648.29 486.3,-646.41 482.85,-640.32"/>
</g>
<!-- Node19&#45;&gt;Node10 -->
<g id="edge31" class="edge">
<title>Node19&#45;&gt;Node10</title>
<path fill="none" stroke="midnightblue" d="M372.33,-652.9C246.72,-631.61 0,-567.98 0,-396.5 0,-396.5 0,-396.5 0,-143 0,-72.2 72.29,-87.68 140,-67 224.06,-41.33 476.65,-25.83 599.04,-19.63"/>
<polygon fill="midnightblue" stroke="midnightblue" points="371.83,-656.36 382.26,-654.54 372.97,-649.46 371.83,-656.36"/>
</g>
<!-- Node20 -->
<g id="node20" class="node">
<title>Node20</title>
<g id="a_node20"><a xlink:href="backends_2OpenCL_2detail_2utility_8hpp.html" target="_top" xlink:title="Utility functions specific to the OpenCL backend.">
<polygon fill="white" stroke="black" points="374.5,-581.5 374.5,-611.5 513.5,-611.5 513.5,-581.5 374.5,-581.5"/>
<text text-anchor="start" x="382.5" y="-599.5" font-family="Helvetica,sans-Serif" font-size="10.00">include/plssvm/backends</text>
<text text-anchor="middle" x="444" y="-588.5" font-family="Helvetica,sans-Serif" font-size="10.00">/OpenCL/detail/utility.hpp</text>
</a>
</g>
</g>
<!-- Node19&#45;&gt;Node20 -->
<g id="edge30" class="edge">
<title>Node19&#45;&gt;Node20</title>
<path fill="none" stroke="midnightblue" d="M444,-638.11C444,-629.15 444,-619.32 444,-611.58"/>
<polygon fill="midnightblue" stroke="midnightblue" points="440.5,-638.4 444,-648.4 447.5,-638.4 440.5,-638.4"/>
</g>
<!-- Node19&#45;&gt;Node21 -->
<g id="edge33" class="edge">
<title>Node19&#45;&gt;Node21</title>
<path fill="none" stroke="midnightblue" d="M515.54,-655.39C637.89,-643.23 886.61,-618.51 1015.86,-605.66"/>
<polygon fill="midnightblue" stroke="midnightblue" points="515.13,-651.91 505.53,-656.38 515.82,-658.88 515.13,-651.91"/>
</g>
<!-- Node21&#45;&gt;Node2 -->
<g id="edge42" class="edge">
<title>Node21&#45;&gt;Node2</title>
<path fill="none" stroke="midnightblue" d="M1078.59,-580.07C1068.19,-570.88 1055.92,-558.41 1048,-545 1028.8,-512.49 1024,-501.26 1024,-463.5 1024,-463.5 1024,-463.5 1024,-327.5 1024,-260.46 1014.08,-232.21 962,-190 941.28,-173.2 877.38,-160.94 826.18,-153.5"/>
<polygon fill="midnightblue" stroke="midnightblue" points="1076.52,-582.9 1086.41,-586.69 1081.04,-577.56 1076.52,-582.9"/>
</g>
<!-- Node21&#45;&gt;Node3 -->
<g id="edge35" class="edge">
<title>Node21&#45;&gt;Node3</title>
<path fill="none" stroke="midnightblue" d="M1118.66,-580.63C1129.98,-571.51 1143.41,-558.93 1152,-545 1171.82,-512.86 1176,-501.26 1176,-463.5 1176,-463.5 1176,-463.5 1176,-199 1176,-158.55 1146.67,-118.2 1129.02,-97.58"/>
<polygon fill="midnightblue" stroke="midnightblue" points="1116.32,-578.02 1110.54,-586.9 1120.59,-583.56 1116.32,-578.02"/>
</g>
<!-- Node21&#45;&gt;Node4 -->
<g id="edge34" class="edge">
<title>Node21&#45;&gt;Node4</title>
<path fill="none" stroke="midnightblue" d="M1107.13,-577.55C1118.93,-552.63 1138,-505.82 1138,-463.5 1138,-463.5 1138,-463.5 1138,-327.5 1138,-195.21 1095.3,-152.08 994,-67 974.61,-50.71 949.13,-38.76 927.18,-30.59"/>
<polygon fill="midnightblue" stroke="midnightblue" points="1103.84,-576.29 1102.59,-586.81 1110.13,-579.37 1103.84,-576.29"/>
</g>
<!-- Node21&#45;&gt;Node5 -->
<g id="edge36" class="edge">
<title>Node21&#45;&gt;Node5</title>
<path fill="none" stroke="midnightblue" d="M1125.09,-582.17C1140.91,-573.34 1160.37,-560.53 1174,-545 1200.61,-514.67 1214,-503.85 1214,-463.5 1214,-463.5 1214,-463.5 1214,-143 1214,-108.18 1218.81,-92.4 1195,-67 1181.9,-53.03 1139.77,-39.94 1102.3,-30.6"/>
<polygon fill="midnightblue" stroke="midnightblue" points="1123.43,-579.09 1116.27,-586.91 1126.73,-585.26 1123.43,-579.09"/>
</g>
<!-- Node21&#45;&gt;Node6 -->
<g id="edge37" class="edge">
<title>Node21&#45;&gt;Node6</title>
<path fill="none" stroke="midnightblue" d="M1133.3,-583.21C1178.76,-564.87 1252,-525.67 1252,-463.5 1252,-463.5 1252,-463.5 1252,-143 1252,-98.79 1222.36,-53.14 1205.46,-30.71"/>
<polygon fill="midnightblue" stroke="midnightblue" points="1131.83,-580.03 1123.78,-586.91 1134.36,-586.55 1131.83,-580.03"/>
</g>
<!-- Node21&#45;&gt;Node7 -->
<g id="edge39" class="edge">
<title>Node21&#45;&gt;Node7</title>
<path fill="none" stroke="midnightblue" d="M1187.47,-585.12C1259.56,-571.19 1349,-538.74 1349,-463.5 1349,-463.5 1349,-463.5 1349,-143 1349,-102.15 1350.06,-53.88 1350.63,-30.54"/>
<polygon fill="midnightblue" stroke="midnightblue" points="1186.62,-581.72 1177.42,-586.97 1187.89,-588.6 1186.62,-581.72"/>
</g>
<!-- Node21&#45;&gt;Node8 -->
<g id="edge40" class="edge">
<title>Node21&#45;&gt;Node8</title>
<path fill="none" stroke="midnightblue" d="M1182.49,-585.38C1227.61,-577.95 1283.32,-565.48 1330,-545 1387.7,-519.69 1446,-526.51 1446,-463.5 1446,-463.5 1446,-463.5 1446,-143 1446,-98.24 1477.68,-52.83 1495.75,-30.57"/>
<polygon fill="midnightblue" stroke="midnightblue" points="1181.76,-581.95 1172.44,-586.98 1182.86,-588.87 1181.76,-581.95"/>
</g>
<!-- Node21&#45;&gt;Node9 -->
<g id="edge38" class="edge">
<title>Node21&#45;&gt;Node9</title>
<path fill="none" stroke="midnightblue" d="M1089.79,-577.45C1079.16,-552.42 1062,-505.48 1062,-463.5 1062,-463.5 1062,-463.5 1062,-327.5 1062,-218.99 943,-130.78 891.4,-97.63"/>
<polygon fill="midnightblue" stroke="midnightblue" points="1086.65,-579.01 1093.87,-586.76 1093.06,-576.2 1086.65,-579.01"/>
</g>
<!-- Node21&#45;&gt;Node10 -->
<g id="edge41" class="edge">
<title>Node21&#45;&gt;Node10</title>
<path fill="none" stroke="midnightblue" d="M1098.46,-576.72C1099.05,-551.12 1100,-503.85 1100,-463.5 1100,-463.5 1100,-463.5 1100,-327.5 1100,-262.41 991.2,-96.66 947,-67 929.16,-55.03 806.22,-36 729.29,-25.04"/>
<polygon fill="midnightblue" stroke="midnightblue" points="1094.96,-576.77 1098.22,-586.85 1101.96,-576.94 1094.96,-576.77"/>
</g>
<!-- Node21&#45;&gt;Node14 -->
<g id="edge59" class="edge">
<title>Node21&#45;&gt;Node14</title>
<path fill="none" stroke="midnightblue" d="M1005.65,-596.3C821.9,-595.38 428,-579.86 428,-463.5 428,-463.5 428,-463.5 428,-394.5 428,-338.32 367.5,-297 329.69,-276.66"/>
<polygon fill="midnightblue" stroke="midnightblue" points="1005.83,-599.8 1015.84,-596.33 1005.86,-592.8 1005.83,-599.8"/>
</g>
<!-- Node21&#45;&gt;Node15 -->
<g id="edge60" class="edge">
<title>Node21&#45;&gt;Node15</title>
<path fill="none" stroke="midnightblue" d="M1005.76,-589.95C902.18,-582.71 741.23,-568.17 685,-545 630.38,-522.49 580,-522.57 580,-463.5 580,-463.5 580,-463.5 580,-327.5 580,-283.14 580,-230.02 580,-209.59"/>
<polygon fill="midnightblue" stroke="midnightblue" points="1005.69,-593.45 1015.91,-590.65 1006.17,-586.47 1005.69,-593.45"/>
</g>
<!-- Node22 -->
<g id="node22" class="node">
<title>Node22</title>
<g id="a_node22"><a xlink:href="parser__train_8hpp.html" target="_top" xlink:title="Implements a class encapsulating all necessary parameters for training the C&#45;SVM possibly provided th...">
<polygon fill="white" stroke="black" points="694.5,-514.5 694.5,-544.5 817.5,-544.5 817.5,-514.5 694.5,-514.5"/>
<text text-anchor="start" x="702.5" y="-532.5" font-family="Helvetica,sans-Serif" font-size="10.00">include/plssvm/detail</text>
<text text-anchor="middle" x="756" y="-521.5" font-family="Helvetica,sans-Serif" font-size="10.00">/cmd/parser_train.hpp</text>
</a>
</g>
</g>
<!-- Node21&#45;&gt;Node22 -->
<g id="edge43" class="edge">
<title>Node21&#45;&gt;Node22</title>
<path fill="none" stroke="midnightblue" d="M1043.02,-585.05C981.43,-573.35 881.85,-554.42 817.66,-542.22"/>
<polygon fill="midnightblue" stroke="midnightblue" points="1042.46,-588.51 1052.94,-586.94 1043.77,-581.63 1042.46,-588.51"/>
</g>
<!-- Node22&#45;&gt;Node13 -->
<g id="edge44" class="edge">
<title>Node22&#45;&gt;Node13</title>
<path fill="none" stroke="midnightblue" d="M721.27,-509.21C706.71,-500.46 689.96,-489.51 676,-478 595.08,-411.26 515.2,-312.81 486.83,-276.56"/>
<polygon fill="midnightblue" stroke="midnightblue" points="719.62,-512.3 730.01,-514.35 723.17,-506.26 719.62,-512.3"/>
</g>
<!-- Node23 -->
<g id="node23" class="node">
<title>Node23</title>
<g id="a_node23"><a xlink:href="performance__tracker_8hpp.html" target="_top" xlink:title="Defines a performance tracker which can dump performance information in a YAML file.">
<polygon fill="white" stroke="black" points="685.5,-447.5 685.5,-477.5 826.5,-477.5 826.5,-447.5 685.5,-447.5"/>
<text text-anchor="start" x="693.5" y="-465.5" font-family="Helvetica,sans-Serif" font-size="10.00">include/plssvm/detail</text>
<text text-anchor="middle" x="756" y="-454.5" font-family="Helvetica,sans-Serif" font-size="10.00">/performance_tracker.hpp</text>
</a>
</g>
</g>
<!-- Node22&#45;&gt;Node23 -->
<g id="edge45" class="edge">
<title>Node22&#45;&gt;Node23</title>
<path fill="none" stroke="midnightblue" d="M756,-504.11C756,-495.15 756,-485.32 756,-477.58"/>
<polygon fill="midnightblue" stroke="midnightblue" points="752.5,-504.4 756,-514.4 759.5,-504.4 752.5,-504.4"/>
</g>
<!-- Node23&#45;&gt;Node2 -->
<g id="edge47" class="edge">
<title>Node23&#45;&gt;Node2</title>
<path fill="none" stroke="midnightblue" d="M767.35,-438.21C770.85,-429.84 774.25,-420.19 776,-411 795.01,-311.38 766.86,-187.54 758.32,-153.82"/>
<polygon fill="midnightblue" stroke="midnightblue" points="764.15,-436.79 763.28,-447.35 770.54,-439.64 764.15,-436.79"/>
</g>
<!-- Node23&#45;&gt;Node3 -->
<g id="edge46" class="edge">
<title>Node23&#45;&gt;Node3</title>
<path fill="none" stroke="midnightblue" d="M787.36,-442.01C801.97,-432.8 819.5,-421.53 835,-411 877.14,-382.38 891.85,-379.89 928,-344 1002.25,-270.29 1006.25,-239.19 1067,-154 1080.85,-134.58 1096.53,-111.9 1106.34,-97.62"/>
<polygon fill="midnightblue" stroke="midnightblue" points="785.3,-439.18 778.69,-447.46 789.02,-445.1 785.3,-439.18"/>
</g>
<!-- Node23&#45;&gt;Node12 -->
<g id="edge48" class="edge">
<title>Node23&#45;&gt;Node12</title>
<path fill="none" stroke="midnightblue" d="M695.67,-444.8C600.79,-418.55 418.4,-368.08 329.79,-343.56"/>
<polygon fill="midnightblue" stroke="midnightblue" points="694.83,-448.2 705.4,-447.5 696.7,-441.46 694.83,-448.2"/>
</g>
<!-- Node23&#45;&gt;Node15 -->
<g id="edge58" class="edge">
<title>Node23&#45;&gt;Node15</title>
<path fill="none" stroke="midnightblue" d="M685.49,-443.82C667.53,-436.31 649.74,-425.76 637,-411 587.48,-353.64 614.82,-318.87 594,-246 590.36,-233.26 585.72,-218.62 582.8,-209.59"/>
<polygon fill="midnightblue" stroke="midnightblue" points="684.27,-447.1 694.86,-447.47 686.81,-440.58 684.27,-447.1"/>
</g>
<!-- Node24 -->
<g id="node24" class="node">
<title>Node24</title>
<g id="a_node24"><a xlink:href="layout_8hpp.html" target="_top" xlink:title="Defines functions to convert 2D vectors to 1D SoA or AoS vectors.">
<polygon fill="white" stroke="black" points="798.5,-313.5 798.5,-343.5 919.5,-343.5 919.5,-313.5 798.5,-313.5"/>
<text text-anchor="start" x="806.5" y="-331.5" font-family="Helvetica,sans-Serif" font-size="10.00">include/plssvm/detail</text>
<text text-anchor="middle" x="859" y="-320.5" font-family="Helvetica,sans-Serif" font-size="10.00">/layout.hpp</text>
</a>
</g>
</g>
<!-- Node23&#45;&gt;Node24 -->
<g id="edge49" class="edge">
<title>Node23&#45;&gt;Node24</title>
<path fill="none" stroke="midnightblue" d="M781.22,-440.57C790.82,-431.95 801.49,-421.53 810,-411 827.65,-389.18 843.47,-360.4 852.1,-343.53"/>
<polygon fill="midnightblue" stroke="midnightblue" points="778.7,-438.13 773.48,-447.35 783.31,-443.39 778.7,-438.13"/>
</g>
<!-- Node25 -->
<g id="node25" class="node">
<title>Node25</title>
<g id="a_node25"><a xlink:href="logger_8hpp.html" target="_top" xlink:title="Defines a simple logging function.">
<polygon fill="white" stroke="black" points="646.5,-380.5 646.5,-410.5 767.5,-410.5 767.5,-380.5 646.5,-380.5"/>
<text text-anchor="start" x="654.5" y="-398.5" font-family="Helvetica,sans-Serif" font-size="10.00">include/plssvm/detail</text>
<text text-anchor="middle" x="707" y="-387.5" font-family="Helvetica,sans-Serif" font-size="10.00">/logger.hpp</text>
</a>
</g>
</g>
<!-- Node23&#45;&gt;Node25 -->
<g id="edge51" class="edge">
<title>Node23&#45;&gt;Node25</title>
<path fill="none" stroke="midnightblue" d="M739.16,-439.16C732.01,-429.68 723.9,-418.92 717.61,-410.58"/>
<polygon fill="midnightblue" stroke="midnightblue" points="736.55,-441.52 745.37,-447.4 742.14,-437.3 736.55,-441.52"/>
</g>
<!-- Node24&#45;&gt;Node3 -->
<g id="edge50" class="edge">
<title>Node24&#45;&gt;Node3</title>
<path fill="none" stroke="midnightblue" d="M881.21,-306.41C932.44,-257.78 1057.77,-138.78 1101.03,-97.71"/>
<polygon fill="midnightblue" stroke="midnightblue" points="878.77,-303.9 873.93,-313.33 883.59,-308.98 878.77,-303.9"/>
</g>
<!-- Node25&#45;&gt;Node2 -->
<g id="edge53" class="edge">
<title>Node25&#45;&gt;Node2</title>
<path fill="none" stroke="midnightblue" d="M709.73,-370.05C711.68,-353.82 714.56,-332.07 718,-313 729.08,-251.49 747.4,-178.44 753.75,-153.69"/>
<polygon fill="midnightblue" stroke="midnightblue" points="706.21,-369.97 708.53,-380.31 713.17,-370.78 706.21,-369.97"/>
</g>
<!-- Node25&#45;&gt;Node3 -->
<g id="edge52" class="edge">
<title>Node25&#45;&gt;Node3</title>
<path fill="none" stroke="midnightblue" d="M727.25,-372.48C743.31,-355.48 766.7,-331.78 789,-313 896.42,-222.52 1038.51,-131.58 1093.2,-97.53"/>
<polygon fill="midnightblue" stroke="midnightblue" points="724.27,-370.54 719.99,-380.23 729.38,-375.32 724.27,-370.54"/>
</g>
<!-- Node25&#45;&gt;Node12 -->
<g id="edge54" class="edge">
<title>Node25&#45;&gt;Node12</title>
<path fill="none" stroke="midnightblue" d="M636.18,-383.74C552.3,-371.01 414.19,-350.03 336.58,-338.24"/>
<polygon fill="midnightblue" stroke="midnightblue" points="635.72,-387.21 646.13,-385.26 636.77,-380.29 635.72,-387.21"/>
</g>
<!-- Node25&#45;&gt;Node14 -->
<g id="edge55" class="edge">
<title>Node25&#45;&gt;Node14</title>
<path fill="none" stroke="midnightblue" d="M654.29,-377.4C572.99,-351.04 418.56,-300.95 343.34,-276.56"/>
<polygon fill="midnightblue" stroke="midnightblue" points="653.24,-380.74 663.83,-380.5 655.4,-374.08 653.24,-380.74"/>
</g>
<!-- Node25&#45;&gt;Node15 -->
<g id="edge57" class="edge">
<title>Node25&#45;&gt;Node15</title>
<path fill="none" stroke="midnightblue" d="M694.42,-371.39C689.82,-362.82 684.61,-353 680,-344 657.9,-300.83 661.6,-284.42 632,-246 620.78,-231.44 604.24,-218.11 592.84,-209.8"/>
<polygon fill="midnightblue" stroke="midnightblue" points="691.47,-373.29 699.3,-380.42 697.63,-369.96 691.47,-373.29"/>
</g>
<!-- Node25&#45;&gt;Node24 -->
<g id="edge56" class="edge">
<title>Node25&#45;&gt;Node24</title>
<path fill="none" stroke="midnightblue" d="M749.31,-376.41C773.58,-366.03 803.59,-353.2 826.08,-343.58"/>
<polygon fill="midnightblue" stroke="midnightblue" points="747.8,-373.25 739.98,-380.4 750.55,-379.68 747.8,-373.25"/>
</g>
</g>
</svg>
