<?xml version="1.0" encoding="UTF-8" standalone="no"?>
<!DOCTYPE svg PUBLIC "-//W3C//DTD SVG 1.1//EN"
 "http://www.w3.org/Graphics/SVG/1.1/DTD/svg11.dtd">
<!-- Generated by graphviz version 2.43.0 (0)
 -->
<!-- Title: include/plssvm/backends/OpenMP Pages: 1 -->
<svg width="107pt" height="223pt"
 viewBox="0.00 0.00 107.00 223.00" xmlns="http://www.w3.org/2000/svg" xmlns:xlink="http://www.w3.org/1999/xlink">
<g id="graph0" class="graph" transform="scale(1 1) rotate(0) translate(4 219)">
<title>include/plssvm/backends/OpenMP</title>
<polygon fill="white" stroke="transparent" points="-4,4 -4,-219 103,-219 103,4 -4,4"/>
<g id="clust1" class="cluster">
<title>clusterdir_aece132851e9183324b9b3740ef79635</title>
<g id="a_clust1"><a xlink:href="dir_aece132851e9183324b9b3740ef79635.html" target="_top" xlink:title="backends">
<polygon fill="#ddddee" stroke="black" points="8,-136 8,-207 82,-207 82,-136 8,-136"/>
<text text-anchor="middle" x="45" y="-195" font-family="Helvetica,sans-Serif" font-size="10.00">backends</text>
</a>
</g>
</g>
<!-- dir_8b95a41a939438e5917f4497fef8e7ba -->
<g id="node1" class="node">
<title>dir_8b95a41a939438e5917f4497fef8e7ba</title>
<g id="a_node1"><a xlink:href="dir_8b95a41a939438e5917f4497fef8e7ba.html" target="_top" xlink:title="OpenMP">
<polygon fill="#eeeeff" stroke="black" points="73.5,-180 16.5,-180 16.5,-144 73.5,-144 73.5,-180"/>
<text text-anchor="middle" x="45" y="-159.5" font-family="Helvetica,sans-Serif" font-size="10.00">OpenMP</text>
</a>
</g>
</g>
<!-- dir_49c4dd39876428c8a6f54100703c6d1b -->
<g id="node2" class="node">
<title>dir_49c4dd39876428c8a6f54100703c6d1b</title>
<g id="a_node2"><a xlink:href="dir_49c4dd39876428c8a6f54100703c6d1b.html" target="_top" xlink:title="exceptions">
<polygon fill="none" stroke="black" points="79,-36 9,-36 9,0 79,0 79,-36"/>
<text text-anchor="middle" x="44" y="-15.5" font-family="Helvetica,sans-Serif" font-size="10.00">exceptions</text>
</a>
</g>
</g>
<!-- dir_8b95a41a939438e5917f4497fef8e7ba&#45;&gt;dir_49c4dd39876428c8a6f54100703c6d1b -->
<g id="edge1" class="edge">
<title>dir_8b95a41a939438e5917f4497fef8e7ba&#45;&gt;dir_49c4dd39876428c8a6f54100703c6d1b</title>
<path fill="none" stroke="black" d="M41.35,-143.91C39.32,-133.57 37.02,-120.09 36,-108 34.66,-92.06 34.8,-87.96 36,-72 36.64,-63.52 37.84,-54.34 39.12,-46.04"/>
<polygon fill="black" stroke="black" points="42.58,-46.55 40.75,-36.11 35.68,-45.41 42.58,-46.55"/>
<g id="a_edge1&#45;headlabel"><a xlink:href="dir_000008_000013.html" target="_top" xlink:title="2">
<text text-anchor="middle" x="44.8" y="-48.05" font-family="Helvetica,sans-Serif" font-size="10.00">2</text>
</a>
</g>
</g>
<!-- dir_f7dfbd464fc0226e1f04610e75575ed1 -->
<g id="node3" class="node">
<title>dir_f7dfbd464fc0226e1f04610e75575ed1</title>
<g id="a_node3"><a xlink:href="dir_f7dfbd464fc0226e1f04610e75575ed1.html" target="_top" xlink:title="detail">
<polygon fill="white" stroke="red" points="99,-108 45,-108 45,-72 99,-72 99,-108"/>
<text text-anchor="middle" x="72" y="-87.5" font-family="Helvetica,sans-Serif" font-size="10.00">detail</text>
</a>
</g>
</g>
<!-- dir_8b95a41a939438e5917f4497fef8e7ba&#45;&gt;dir_f7dfbd464fc0226e1f04610e75575ed1 -->
<g id="edge2" class="edge">
<title>dir_8b95a41a939438e5917f4497fef8e7ba&#45;&gt;dir_f7dfbd464fc0226e1f04610e75575ed1</title>
<path fill="none" stroke="black" d="M51.67,-143.7C54.71,-135.81 58.38,-126.3 61.76,-117.55"/>
<polygon fill="black" stroke="black" points="65.07,-118.69 65.4,-108.1 58.54,-116.17 65.07,-118.69"/>
<g id="a_edge2&#45;headlabel"><a xlink:href="dir_000008_000018.html" target="_top" xlink:title="1">
<text text-anchor="middle" x="66.42" y="-120.57" font-family="Helvetica,sans-Serif" font-size="10.00">1</text>
</a>
</g>
</g>
<!-- dir_f7dfbd464fc0226e1f04610e75575ed1&#45;&gt;dir_49c4dd39876428c8a6f54100703c6d1b -->
<g id="edge3" class="edge">
<title>dir_f7dfbd464fc0226e1f04610e75575ed1&#45;&gt;dir_49c4dd39876428c8a6f54100703c6d1b</title>
<path fill="none" stroke="black" d="M65.08,-71.7C61.93,-63.81 58.12,-54.3 54.62,-45.55"/>
<polygon fill="black" stroke="black" points="57.81,-44.09 50.84,-36.1 51.31,-46.69 57.81,-44.09"/>
<g id="a_edge3&#45;headlabel"><a xlink:href="dir_000018_000013.html" target="_top" xlink:title="4">
<text text-anchor="middle" x="61.78" y="-43.87" font-family="Helvetica,sans-Serif" font-size="10.00">4</text>
</a>
</g>
</g>
</g>
</svg>
