<?xml version="1.0" encoding="UTF-8" standalone="no"?>
<!DOCTYPE svg PUBLIC "-//W3C//DTD SVG 1.1//EN"
 "http://www.w3.org/Graphics/SVG/1.1/DTD/svg11.dtd">
<!-- Generated by graphviz version 2.43.0 (0)
 -->
<!-- Title: include/plssvm/backends/SYCL/DPCPP Pages: 1 -->
<svg width="164pt" height="183pt"
 viewBox="0.00 0.00 164.00 183.00" xmlns="http://www.w3.org/2000/svg" xmlns:xlink="http://www.w3.org/1999/xlink">
<g id="graph0" class="graph" transform="scale(1 1) rotate(0) translate(4 179)">
<title>include/plssvm/backends/SYCL/DPCPP</title>
<polygon fill="white" stroke="transparent" points="-4,4 -4,-179 160,-179 160,4 -4,4"/>
<g id="clust1" class="cluster">
<title>clusterdir_aeeba53c5fb17833c0f52606d68a5aa8</title>
<g id="a_clust1"><a xlink:href="dir_aeeba53c5fb17833c0f52606d68a5aa8.html" target="_top" xlink:title="SYCL">
<polygon fill="#ddddee" stroke="black" points="8,-8 8,-167 94,-167 94,-8 8,-8"/>
<text text-anchor="middle" x="51" y="-155" font-family="Helvetica,sans-Serif" font-size="10.00">SYCL</text>
</a>
</g>
</g>
<g id="clust2" class="cluster">
<title>clusterdir_c423ce823275d5782ed54321539d9a6b</title>
<g id="a_clust2"><a xlink:href="dir_c423ce823275d5782ed54321539d9a6b.html" target="_top">
<polygon fill="#eeeeff" stroke="black" points="16,-16 16,-140 86,-140 86,-16 16,-16"/>
</a>
</g>
</g>
<!-- dir_c423ce823275d5782ed54321539d9a6b -->
<g id="node1" class="node">
<title>dir_c423ce823275d5782ed54321539d9a6b</title>
<text text-anchor="middle" x="51" y="-111.5" font-family="Helvetica,sans-Serif" font-size="10.00">DPCPP</text>
</g>
<!-- dir_0dd37b5727445e50ac9f8abb30f5595f -->
<g id="node2" class="node">
<title>dir_0dd37b5727445e50ac9f8abb30f5595f</title>
<g id="a_node2"><a xlink:href="dir_0dd37b5727445e50ac9f8abb30f5595f.html" target="_top" xlink:title="detail">
<polygon fill="white" stroke="black" points="78,-60 24,-60 24,-24 78,-24 78,-60"/>
<text text-anchor="middle" x="51" y="-39.5" font-family="Helvetica,sans-Serif" font-size="10.00">detail</text>
</a>
</g>
</g>
<!-- dir_c423ce823275d5782ed54321539d9a6b&#45;&gt;dir_0dd37b5727445e50ac9f8abb30f5595f -->
<g id="edge1" class="edge">
<title>dir_c423ce823275d5782ed54321539d9a6b&#45;&gt;dir_0dd37b5727445e50ac9f8abb30f5595f</title>
<path fill="none" stroke="black" d="M51,-95.7C51,-87.98 51,-78.71 51,-70.11"/>
<polygon fill="black" stroke="black" points="54.5,-70.1 51,-60.1 47.5,-70.1 54.5,-70.1"/>
<g id="a_edge1&#45;headlabel"><a xlink:href="dir_000010_000016.html" target="_top" xlink:title="2">
<text text-anchor="middle" x="57.34" y="-71.2" font-family="Helvetica,sans-Serif" font-size="10.00">2</text>
</a>
</g>
</g>
<!-- dir_f7dfbd464fc0226e1f04610e75575ed1 -->
<g id="node3" class="node">
<title>dir_f7dfbd464fc0226e1f04610e75575ed1</title>
<g id="a_node3"><a xlink:href="dir_f7dfbd464fc0226e1f04610e75575ed1.html" target="_top" xlink:title="detail">
<polygon fill="white" stroke="red" points="156,-60 102,-60 102,-24 156,-24 156,-60"/>
<text text-anchor="middle" x="129" y="-39.5" font-family="Helvetica,sans-Serif" font-size="10.00">detail</text>
</a>
</g>
</g>
<!-- dir_c423ce823275d5782ed54321539d9a6b&#45;&gt;dir_f7dfbd464fc0226e1f04610e75575ed1 -->
<g id="edge2" class="edge">
<title>dir_c423ce823275d5782ed54321539d9a6b&#45;&gt;dir_f7dfbd464fc0226e1f04610e75575ed1</title>
<path fill="none" stroke="black" d="M70.28,-95.7C79.92,-87.05 91.73,-76.45 102.23,-67.03"/>
<polygon fill="black" stroke="black" points="104.84,-69.39 109.94,-60.1 100.16,-64.18 104.84,-69.39"/>
<g id="a_edge2&#45;headlabel"><a xlink:href="dir_000010_000018.html" target="_top" xlink:title="1">
<text text-anchor="middle" x="104.06" y="-71.4" font-family="Helvetica,sans-Serif" font-size="10.00">1</text>
</a>
</g>
</g>
</g>
</svg>
