<?xml version="1.0" encoding="UTF-8" standalone="no"?>
<!DOCTYPE svg PUBLIC "-//W3C//DTD SVG 1.1//EN"
 "http://www.w3.org/Graphics/SVG/1.1/DTD/svg11.dtd">
<!-- Generated by graphviz version 2.43.0 (0)
 -->
<!-- Title: include/plssvm/backends Pages: 1 -->
<svg width="482pt" height="247pt"
 viewBox="0.00 0.00 482.00 247.00" xmlns="http://www.w3.org/2000/svg" xmlns:xlink="http://www.w3.org/1999/xlink">
<g id="graph0" class="graph" transform="scale(1 1) rotate(0) translate(4 243)">
<title>include/plssvm/backends</title>
<polygon fill="white" stroke="transparent" points="-4,4 -4,-243 478,-243 478,4 -4,4"/>
<g id="clust1" class="cluster">
<title>clusterdir_9696d1624c88fbb4b2358edab2255cb6</title>
<g id="a_clust1"><a xlink:href="dir_9696d1624c88fbb4b2358edab2255cb6.html" target="_top" xlink:title="plssvm">
<polygon fill="#ddddee" stroke="black" points="8,-8 8,-231 466,-231 466,-8 8,-8"/>
<text text-anchor="middle" x="237" y="-219" font-family="Helvetica,sans-Serif" font-size="10.00">plssvm</text>
</a>
</g>
</g>
<g id="clust2" class="cluster">
<title>clusterdir_aece132851e9183324b9b3740ef79635</title>
<g id="a_clust2"><a xlink:href="dir_aece132851e9183324b9b3740ef79635.html" target="_top">
<polygon fill="#eeeeff" stroke="black" points="16,-152 16,-204 458,-204 458,-152 16,-152"/>
</a>
</g>
</g>
<!-- dir_f7dfbd464fc0226e1f04610e75575ed1 -->
<g id="node1" class="node">
<title>dir_f7dfbd464fc0226e1f04610e75575ed1</title>
<g id="a_node1"><a xlink:href="dir_f7dfbd464fc0226e1f04610e75575ed1.html" target="_top" xlink:title="detail">
<polygon fill="white" stroke="red" points="298,-124 244,-124 244,-88 298,-88 298,-124"/>
<text text-anchor="middle" x="271" y="-103.5" font-family="Helvetica,sans-Serif" font-size="10.00">detail</text>
</a>
</g>
</g>
<!-- dir_49c4dd39876428c8a6f54100703c6d1b -->
<g id="node2" class="node">
<title>dir_49c4dd39876428c8a6f54100703c6d1b</title>
<g id="a_node2"><a xlink:href="dir_49c4dd39876428c8a6f54100703c6d1b.html" target="_top" xlink:title="exceptions">
<polygon fill="none" stroke="black" points="275,-52 205,-52 205,-16 275,-16 275,-52"/>
<text text-anchor="middle" x="240" y="-31.5" font-family="Helvetica,sans-Serif" font-size="10.00">exceptions</text>
</a>
</g>
</g>
<!-- dir_f7dfbd464fc0226e1f04610e75575ed1&#45;&gt;dir_49c4dd39876428c8a6f54100703c6d1b -->
<g id="edge10" class="edge">
<title>dir_f7dfbd464fc0226e1f04610e75575ed1&#45;&gt;dir_49c4dd39876428c8a6f54100703c6d1b</title>
<path fill="none" stroke="black" d="M263.34,-87.7C259.81,-79.73 255.54,-70.1 251.63,-61.26"/>
<polygon fill="black" stroke="black" points="254.82,-59.83 247.57,-52.1 248.42,-62.67 254.82,-59.83"/>
<g id="a_edge10&#45;headlabel"><a xlink:href="dir_000018_000013.html" target="_top" xlink:title="4">
<text text-anchor="middle" x="258.88" y="-59.47" font-family="Helvetica,sans-Serif" font-size="10.00">4</text>
</a>
</g>
</g>
<!-- dir_aeeba53c5fb17833c0f52606d68a5aa8 -->
<g id="node8" class="node">
<title>dir_aeeba53c5fb17833c0f52606d68a5aa8</title>
<g id="a_node8"><a xlink:href="dir_aeeba53c5fb17833c0f52606d68a5aa8.html" target="_top" xlink:title="SYCL">
<polygon fill="white" stroke="red" points="450,-196 396,-196 396,-160 450,-160 450,-196"/>
<text text-anchor="middle" x="423" y="-175.5" font-family="Helvetica,sans-Serif" font-size="10.00">SYCL</text>
</a>
</g>
</g>
<!-- dir_f7dfbd464fc0226e1f04610e75575ed1&#45;&gt;dir_aeeba53c5fb17833c0f52606d68a5aa8 -->
<g id="edge11" class="edge">
<title>dir_f7dfbd464fc0226e1f04610e75575ed1&#45;&gt;dir_aeeba53c5fb17833c0f52606d68a5aa8</title>
<path fill="none" stroke="black" d="M298.26,-113.4C324.49,-121.08 364.15,-135.07 396,-152 397.34,-152.71 398.7,-153.47 400.05,-154.25"/>
<polygon fill="black" stroke="black" points="398.42,-157.37 408.74,-159.76 402.17,-151.45 398.42,-157.37"/>
<g id="a_edge11&#45;headlabel"><a xlink:href="dir_000018_000009.html" target="_top" xlink:title="3">
<text text-anchor="middle" x="393.86" y="-155.34" font-family="Helvetica,sans-Serif" font-size="10.00">3</text>
</a>
</g>
</g>
<!-- dir_aece132851e9183324b9b3740ef79635 -->
<g id="node3" class="node">
<title>dir_aece132851e9183324b9b3740ef79635</title>
<text text-anchor="middle" x="271" y="-175.5" font-family="Helvetica,sans-Serif" font-size="10.00">backends</text>
</g>
<!-- dir_aece132851e9183324b9b3740ef79635&#45;&gt;dir_f7dfbd464fc0226e1f04610e75575ed1 -->
<g id="edge6" class="edge">
<title>dir_aece132851e9183324b9b3740ef79635&#45;&gt;dir_f7dfbd464fc0226e1f04610e75575ed1</title>
<path fill="none" stroke="black" d="M271,-159.7C271,-151.98 271,-142.71 271,-134.11"/>
<polygon fill="black" stroke="black" points="274.5,-134.1 271,-124.1 267.5,-134.1 274.5,-134.1"/>
<g id="a_edge6&#45;headlabel"><a xlink:href="dir_000004_000018.html" target="_top" xlink:title="8">
<text text-anchor="middle" x="277.34" y="-135.2" font-family="Helvetica,sans-Serif" font-size="10.00">8</text>
</a>
</g>
</g>
<!-- dir_3b1acf17ef6b0d0bb2450c7474aff8a9 -->
<g id="node4" class="node">
<title>dir_3b1acf17ef6b0d0bb2450c7474aff8a9</title>
<g id="a_node4"><a xlink:href="dir_3b1acf17ef6b0d0bb2450c7474aff8a9.html" target="_top" xlink:title="CUDA">
<polygon fill="white" stroke="red" points="78,-196 24,-196 24,-160 78,-160 78,-196"/>
<text text-anchor="middle" x="51" y="-175.5" font-family="Helvetica,sans-Serif" font-size="10.00">CUDA</text>
</a>
</g>
</g>
<!-- dir_3b1acf17ef6b0d0bb2450c7474aff8a9&#45;&gt;dir_49c4dd39876428c8a6f54100703c6d1b -->
<g id="edge1" class="edge">
<title>dir_3b1acf17ef6b0d0bb2450c7474aff8a9&#45;&gt;dir_49c4dd39876428c8a6f54100703c6d1b</title>
<path fill="none" stroke="black" d="M71.72,-159.83C93.95,-141.58 130.46,-112.08 163,-88 176.7,-77.86 192.11,-67.13 205.53,-57.98"/>
<polygon fill="black" stroke="black" points="207.71,-60.74 214.02,-52.23 203.78,-54.94 207.71,-60.74"/>
<g id="a_edge1&#45;headlabel"><a xlink:href="dir_000005_000013.html" target="_top" xlink:title="2">
<text text-anchor="middle" x="206.32" y="-62.6" font-family="Helvetica,sans-Serif" font-size="10.00">2</text>
</a>
</g>
</g>
<!-- dir_3cf675f4ae395b9608bea908c689fae5 -->
<g id="node5" class="node">
<title>dir_3cf675f4ae395b9608bea908c689fae5</title>
<g id="a_node5"><a xlink:href="dir_3cf675f4ae395b9608bea908c689fae5.html" target="_top" xlink:title="HIP">
<polygon fill="white" stroke="red" points="150,-196 96,-196 96,-160 150,-160 150,-196"/>
<text text-anchor="middle" x="123" y="-175.5" font-family="Helvetica,sans-Serif" font-size="10.00">HIP</text>
</a>
</g>
</g>
<!-- dir_3cf675f4ae395b9608bea908c689fae5&#45;&gt;dir_49c4dd39876428c8a6f54100703c6d1b -->
<g id="edge7" class="edge">
<title>dir_3cf675f4ae395b9608bea908c689fae5&#45;&gt;dir_49c4dd39876428c8a6f54100703c6d1b</title>
<path fill="none" stroke="black" d="M137.11,-159.87C157.58,-135.03 195.63,-88.85 219.28,-60.14"/>
<polygon fill="black" stroke="black" points="222.18,-62.13 225.84,-52.19 216.78,-57.68 222.18,-62.13"/>
<g id="a_edge7&#45;headlabel"><a xlink:href="dir_000006_000013.html" target="_top" xlink:title="2">
<text text-anchor="middle" x="222.08" y="-64.21" font-family="Helvetica,sans-Serif" font-size="10.00">2</text>
</a>
</g>
</g>
<!-- dir_d7c00eaa22908fd671a35ffbda10ce1f -->
<g id="node6" class="node">
<title>dir_d7c00eaa22908fd671a35ffbda10ce1f</title>
<g id="a_node6"><a xlink:href="dir_d7c00eaa22908fd671a35ffbda10ce1f.html" target="_top" xlink:title="OpenCL">
<polygon fill="white" stroke="red" points="222,-196 168,-196 168,-160 222,-160 222,-196"/>
<text text-anchor="middle" x="195" y="-175.5" font-family="Helvetica,sans-Serif" font-size="10.00">OpenCL</text>
</a>
</g>
</g>
<!-- dir_d7c00eaa22908fd671a35ffbda10ce1f&#45;&gt;dir_f7dfbd464fc0226e1f04610e75575ed1 -->
<g id="edge3" class="edge">
<title>dir_d7c00eaa22908fd671a35ffbda10ce1f&#45;&gt;dir_f7dfbd464fc0226e1f04610e75575ed1</title>
<path fill="none" stroke="black" d="M213.79,-159.7C223.17,-151.05 234.68,-140.45 244.91,-131.03"/>
<polygon fill="black" stroke="black" points="247.45,-133.45 252.43,-124.1 242.7,-128.3 247.45,-133.45"/>
<g id="a_edge3&#45;headlabel"><a xlink:href="dir_000007_000018.html" target="_top" xlink:title="1">
<text text-anchor="middle" x="246.72" y="-135.48" font-family="Helvetica,sans-Serif" font-size="10.00">1</text>
</a>
</g>
</g>
<!-- dir_d7c00eaa22908fd671a35ffbda10ce1f&#45;&gt;dir_49c4dd39876428c8a6f54100703c6d1b -->
<g id="edge2" class="edge">
<title>dir_d7c00eaa22908fd671a35ffbda10ce1f&#45;&gt;dir_49c4dd39876428c8a6f54100703c6d1b</title>
<path fill="none" stroke="black" d="M200.43,-159.87C208.13,-135.56 222.31,-90.82 231.44,-62.01"/>
<polygon fill="black" stroke="black" points="234.87,-62.78 234.55,-52.19 228.2,-60.66 234.87,-62.78"/>
<g id="a_edge2&#45;headlabel"><a xlink:href="dir_000007_000013.html" target="_top" xlink:title="2">
<text text-anchor="middle" x="236.49" y="-64.56" font-family="Helvetica,sans-Serif" font-size="10.00">2</text>
</a>
</g>
</g>
<!-- dir_8b95a41a939438e5917f4497fef8e7ba -->
<g id="node7" class="node">
<title>dir_8b95a41a939438e5917f4497fef8e7ba</title>
<g id="a_node7"><a xlink:href="dir_8b95a41a939438e5917f4497fef8e7ba.html" target="_top" xlink:title="OpenMP">
<polygon fill="white" stroke="black" points="377.5,-196 320.5,-196 320.5,-160 377.5,-160 377.5,-196"/>
<text text-anchor="middle" x="349" y="-175.5" font-family="Helvetica,sans-Serif" font-size="10.00">OpenMP</text>
</a>
</g>
</g>
<!-- dir_8b95a41a939438e5917f4497fef8e7ba&#45;&gt;dir_f7dfbd464fc0226e1f04610e75575ed1 -->
<g id="edge5" class="edge">
<title>dir_8b95a41a939438e5917f4497fef8e7ba&#45;&gt;dir_f7dfbd464fc0226e1f04610e75575ed1</title>
<path fill="none" stroke="black" d="M329.72,-159.7C320.08,-151.05 308.27,-140.45 297.77,-131.03"/>
<polygon fill="black" stroke="black" points="299.84,-128.18 290.06,-124.1 295.16,-133.39 299.84,-128.18"/>
<g id="a_edge5&#45;headlabel"><a xlink:href="dir_000008_000018.html" target="_top" xlink:title="1">
<text text-anchor="middle" x="304.41" y="-125.97" font-family="Helvetica,sans-Serif" font-size="10.00">1</text>
</a>
</g>
</g>
<!-- dir_8b95a41a939438e5917f4497fef8e7ba&#45;&gt;dir_49c4dd39876428c8a6f54100703c6d1b -->
<g id="edge4" class="edge">
<title>dir_8b95a41a939438e5917f4497fef8e7ba&#45;&gt;dir_49c4dd39876428c8a6f54100703c6d1b</title>
<path fill="none" stroke="black" d="M343.62,-159.97C337.06,-141.04 324.64,-110.21 307,-88 298.18,-76.89 286.6,-66.69 275.55,-58.26"/>
<polygon fill="black" stroke="black" points="277.4,-55.28 267.26,-52.18 273.26,-60.92 277.4,-55.28"/>
<g id="a_edge4&#45;headlabel"><a xlink:href="dir_000008_000013.html" target="_top" xlink:title="2">
<text text-anchor="middle" x="281.98" y="-52.61" font-family="Helvetica,sans-Serif" font-size="10.00">2</text>
</a>
</g>
</g>
<!-- dir_aeeba53c5fb17833c0f52606d68a5aa8&#45;&gt;dir_f7dfbd464fc0226e1f04610e75575ed1 -->
<g id="edge9" class="edge">
<title>dir_aeeba53c5fb17833c0f52606d68a5aa8&#45;&gt;dir_f7dfbd464fc0226e1f04610e75575ed1</title>
<path fill="none" stroke="black" d="M395.84,-162.89C390.01,-159.08 383.91,-155.14 378,-152 355.44,-140.01 328.97,-129.49 307.9,-121.65"/>
<polygon fill="black" stroke="black" points="308.93,-118.3 298.33,-118.13 306.51,-124.87 308.93,-118.3"/>
<g id="a_edge9&#45;headlabel"><a xlink:href="dir_000009_000018.html" target="_top" xlink:title="2">
<text text-anchor="middle" x="313.28" y="-114.37" font-family="Helvetica,sans-Serif" font-size="10.00">2</text>
</a>
</g>
</g>
<!-- dir_aeeba53c5fb17833c0f52606d68a5aa8&#45;&gt;dir_49c4dd39876428c8a6f54100703c6d1b -->
<g id="edge8" class="edge">
<title>dir_aeeba53c5fb17833c0f52606d68a5aa8&#45;&gt;dir_49c4dd39876428c8a6f54100703c6d1b</title>
<path fill="none" stroke="black" d="M405.08,-159.74C385.41,-141.16 352.56,-111.14 322,-88 307.9,-77.32 291.67,-66.55 277.39,-57.52"/>
<polygon fill="black" stroke="black" points="279.12,-54.48 268.79,-52.15 275.41,-60.41 279.12,-54.48"/>
<g id="a_edge8&#45;headlabel"><a xlink:href="dir_000009_000013.html" target="_top" xlink:title="2">
<text text-anchor="middle" x="283.68" y="-51.47" font-family="Helvetica,sans-Serif" font-size="10.00">2</text>
</a>
</g>
</g>
</g>
</svg>
