<?xml version="1.0" encoding="UTF-8" standalone="no"?>
<!DOCTYPE svg PUBLIC "-//W3C//DTD SVG 1.1//EN"
 "http://www.w3.org/Graphics/SVG/1.1/DTD/svg11.dtd">
<!-- Generated by graphviz version 2.43.0 (0)
 -->
<!-- Title: include/plssvm/detail Pages: 1 -->
<svg width="260pt" height="202pt"
 viewBox="0.00 0.00 260.00 202.12" xmlns="http://www.w3.org/2000/svg" xmlns:xlink="http://www.w3.org/1999/xlink">
<g id="graph0" class="graph" transform="scale(1 1) rotate(0) translate(4 198.12)">
<title>include/plssvm/detail</title>
<polygon fill="white" stroke="transparent" points="-4,4 -4,-198.12 256,-198.12 256,4 -4,4"/>
<g id="clust1" class="cluster">
<title>clusterdir_9696d1624c88fbb4b2358edab2255cb6</title>
<g id="a_clust1"><a xlink:href="dir_9696d1624c88fbb4b2358edab2255cb6.html" target="_top" xlink:title="plssvm">
<polygon fill="#ddddee" stroke="black" points="8,-8 8,-167 244,-167 244,-8 8,-8"/>
<text text-anchor="middle" x="126" y="-155" font-family="Helvetica,sans-Serif" font-size="10.00">plssvm</text>
</a>
</g>
</g>
<g id="clust2" class="cluster">
<title>clusterdir_f7dfbd464fc0226e1f04610e75575ed1</title>
<g id="a_clust2"><a xlink:href="dir_f7dfbd464fc0226e1f04610e75575ed1.html" target="_top">
<polygon fill="#eeeeff" stroke="black" points="94,-16 94,-140 236,-140 236,-16 94,-16"/>
</a>
</g>
</g>
<!-- dir_49c4dd39876428c8a6f54100703c6d1b -->
<g id="node1" class="node">
<title>dir_49c4dd39876428c8a6f54100703c6d1b</title>
<g id="a_node1"><a xlink:href="dir_49c4dd39876428c8a6f54100703c6d1b.html" target="_top" xlink:title="exceptions">
<polygon fill="none" stroke="black" points="86,-60 16,-60 16,-24 86,-24 86,-60"/>
<text text-anchor="middle" x="51" y="-39.5" font-family="Helvetica,sans-Serif" font-size="10.00">exceptions</text>
</a>
</g>
</g>
<!-- dir_aece132851e9183324b9b3740ef79635 -->
<g id="node2" class="node">
<title>dir_aece132851e9183324b9b3740ef79635</title>
<g id="a_node2"><a xlink:href="dir_aece132851e9183324b9b3740ef79635.html" target="_top" xlink:title="backends">
<polygon fill="white" stroke="red" points="84,-132 22,-132 22,-96 84,-96 84,-132"/>
<text text-anchor="middle" x="53" y="-111.5" font-family="Helvetica,sans-Serif" font-size="10.00">backends</text>
</a>
</g>
</g>
<!-- dir_aece132851e9183324b9b3740ef79635&#45;&gt;dir_49c4dd39876428c8a6f54100703c6d1b -->
<g id="edge4" class="edge">
<title>dir_aece132851e9183324b9b3740ef79635&#45;&gt;dir_49c4dd39876428c8a6f54100703c6d1b</title>
<path fill="none" stroke="black" d="M52.51,-95.7C52.29,-87.98 52.02,-78.71 51.77,-70.11"/>
<polygon fill="black" stroke="black" points="55.27,-70 51.49,-60.1 48.28,-70.2 55.27,-70"/>
<g id="a_edge4&#45;headlabel"><a xlink:href="dir_000004_000013.html" target="_top" xlink:title="10">
<text text-anchor="middle" x="58.21" y="-71.01" font-family="Helvetica,sans-Serif" font-size="10.00">10</text>
</a>
</g>
</g>
<!-- dir_f7dfbd464fc0226e1f04610e75575ed1 -->
<g id="node3" class="node">
<title>dir_f7dfbd464fc0226e1f04610e75575ed1</title>
<text text-anchor="middle" x="201" y="-111.5" font-family="Helvetica,sans-Serif" font-size="10.00">detail</text>
</g>
<!-- dir_aece132851e9183324b9b3740ef79635&#45;&gt;dir_f7dfbd464fc0226e1f04610e75575ed1 -->
<g id="edge3" class="edge">
<title>dir_aece132851e9183324b9b3740ef79635&#45;&gt;dir_f7dfbd464fc0226e1f04610e75575ed1</title>
<path fill="none" stroke="black" d="M58.97,-132.05C65.71,-149.16 78.48,-173.85 99,-185 121.26,-197.1 133.8,-197.21 156,-185 172.84,-175.74 184.26,-157.22 191.38,-141.42"/>
<polygon fill="black" stroke="black" points="194.67,-142.62 195.27,-132.04 188.21,-139.94 194.67,-142.62"/>
<g id="a_edge3&#45;headlabel"><a xlink:href="dir_000004_000018.html" target="_top" xlink:title="8">
<text text-anchor="middle" x="195.92" y="-144.52" font-family="Helvetica,sans-Serif" font-size="10.00">8</text>
</a>
</g>
</g>
<!-- dir_f7dfbd464fc0226e1f04610e75575ed1&#45;&gt;dir_49c4dd39876428c8a6f54100703c6d1b -->
<g id="edge5" class="edge">
<title>dir_f7dfbd464fc0226e1f04610e75575ed1&#45;&gt;dir_49c4dd39876428c8a6f54100703c6d1b</title>
<path fill="none" stroke="black" d="M173.88,-100.17C170.89,-98.76 167.88,-97.35 165,-96 142.12,-85.28 116.62,-73.42 95.55,-63.64"/>
<polygon fill="black" stroke="black" points="96.75,-60.33 86.2,-59.3 93.8,-66.68 96.75,-60.33"/>
<g id="a_edge5&#45;headlabel"><a xlink:href="dir_000018_000013.html" target="_top" xlink:title="4">
<text text-anchor="middle" x="101.2" y="-56.77" font-family="Helvetica,sans-Serif" font-size="10.00">4</text>
</a>
</g>
</g>
<!-- dir_cd889f0c604574e2879acb22d641688c -->
<g id="node4" class="node">
<title>dir_cd889f0c604574e2879acb22d641688c</title>
<g id="a_node4"><a xlink:href="dir_cd889f0c604574e2879acb22d641688c.html" target="_top" xlink:title="cmd">
<polygon fill="white" stroke="black" points="193,-60 139,-60 139,-24 193,-24 193,-60"/>
<text text-anchor="middle" x="166" y="-39.5" font-family="Helvetica,sans-Serif" font-size="10.00">cmd</text>
</a>
</g>
</g>
<!-- dir_f7dfbd464fc0226e1f04610e75575ed1&#45;&gt;dir_cd889f0c604574e2879acb22d641688c -->
<g id="edge6" class="edge">
<title>dir_f7dfbd464fc0226e1f04610e75575ed1&#45;&gt;dir_cd889f0c604574e2879acb22d641688c</title>
<path fill="none" stroke="black" d="M192.35,-95.7C188.36,-87.73 183.55,-78.1 179.13,-69.26"/>
<polygon fill="black" stroke="black" points="182.15,-67.48 174.55,-60.1 175.89,-70.61 182.15,-67.48"/>
<g id="a_edge6&#45;headlabel"><a xlink:href="dir_000018_000020.html" target="_top" xlink:title="3">
<text text-anchor="middle" x="186.3" y="-66.93" font-family="Helvetica,sans-Serif" font-size="10.00">3</text>
</a>
</g>
</g>
<!-- dir_cd889f0c604574e2879acb22d641688c&#45;&gt;dir_aece132851e9183324b9b3740ef79635 -->
<g id="edge2" class="edge">
<title>dir_cd889f0c604574e2879acb22d641688c&#45;&gt;dir_aece132851e9183324b9b3740ef79635</title>
<path fill="none" stroke="black" d="M138.64,-59.95C123.8,-69.14 105.27,-80.62 89.25,-90.54"/>
<polygon fill="black" stroke="black" points="87.3,-87.63 80.64,-95.88 90.99,-93.59 87.3,-87.63"/>
<g id="a_edge2&#45;headlabel"><a xlink:href="dir_000020_000004.html" target="_top" xlink:title="3">
<text text-anchor="middle" x="88.86" y="-80.83" font-family="Helvetica,sans-Serif" font-size="10.00">3</text>
</a>
</g>
</g>
<!-- dir_49a979533d63e24ce790b97cafa96f1d -->
<g id="node5" class="node">
<title>dir_49a979533d63e24ce790b97cafa96f1d</title>
<g id="a_node5"><a xlink:href="dir_49a979533d63e24ce790b97cafa96f1d.html" target="_top" xlink:title="io">
<polygon fill="white" stroke="black" points="156,-132 102,-132 102,-96 156,-96 156,-132"/>
<text text-anchor="middle" x="129" y="-111.5" font-family="Helvetica,sans-Serif" font-size="10.00">io</text>
</a>
</g>
</g>
<!-- dir_49a979533d63e24ce790b97cafa96f1d&#45;&gt;dir_49c4dd39876428c8a6f54100703c6d1b -->
<g id="edge1" class="edge">
<title>dir_49a979533d63e24ce790b97cafa96f1d&#45;&gt;dir_49c4dd39876428c8a6f54100703c6d1b</title>
<path fill="none" stroke="black" d="M109.72,-95.7C100.08,-87.05 88.27,-76.45 77.77,-67.03"/>
<polygon fill="black" stroke="black" points="79.84,-64.18 70.06,-60.1 75.16,-69.39 79.84,-64.18"/>
<g id="a_edge1&#45;headlabel"><a xlink:href="dir_000021_000013.html" target="_top" xlink:title="3">
<text text-anchor="middle" x="84.41" y="-61.97" font-family="Helvetica,sans-Serif" font-size="10.00">3</text>
</a>
</g>
</g>
</g>
</svg>
