<?xml version="1.0" encoding="UTF-8" standalone="no"?>
<!DOCTYPE svg PUBLIC "-//W3C//DTD SVG 1.1//EN"
 "http://www.w3.org/Graphics/SVG/1.1/DTD/svg11.dtd">
<!-- Generated by graphviz version 2.43.0 (0)
 -->
<!-- Title: include/plssvm/backends/SYCL/hipSYCL Pages: 1 -->
<svg width="166pt" height="183pt"
 viewBox="0.00 0.00 166.00 183.00" xmlns="http://www.w3.org/2000/svg" xmlns:xlink="http://www.w3.org/1999/xlink">
<g id="graph0" class="graph" transform="scale(1 1) rotate(0) translate(4 179)">
<title>include/plssvm/backends/SYCL/hipSYCL</title>
<polygon fill="white" stroke="transparent" points="-4,4 -4,-179 162,-179 162,4 -4,4"/>
<g id="clust1" class="cluster">
<title>clusterdir_aeeba53c5fb17833c0f52606d68a5aa8</title>
<g id="a_clust1"><a xlink:href="dir_aeeba53c5fb17833c0f52606d68a5aa8.html" target="_top" xlink:title="SYCL">
<polygon fill="#ddddee" stroke="black" points="8,-8 8,-167 96,-167 96,-8 8,-8"/>
<text text-anchor="middle" x="52" y="-155" font-family="Helvetica,sans-Serif" font-size="10.00">SYCL</text>
</a>
</g>
</g>
<g id="clust2" class="cluster">
<title>clusterdir_3a7688c2fc227df78dfd3261942d02d2</title>
<g id="a_clust2"><a xlink:href="dir_3a7688c2fc227df78dfd3261942d02d2.html" target="_top">
<polygon fill="#eeeeff" stroke="black" points="16,-16 16,-140 88,-140 88,-16 16,-16"/>
</a>
</g>
</g>
<!-- dir_3a7688c2fc227df78dfd3261942d02d2 -->
<g id="node1" class="node">
<title>dir_3a7688c2fc227df78dfd3261942d02d2</title>
<text text-anchor="middle" x="52" y="-111.5" font-family="Helvetica,sans-Serif" font-size="10.00">hipSYCL</text>
</g>
<!-- dir_2e574549673191cbe15c56188cd8b9e0 -->
<g id="node2" class="node">
<title>dir_2e574549673191cbe15c56188cd8b9e0</title>
<g id="a_node2"><a xlink:href="dir_2e574549673191cbe15c56188cd8b9e0.html" target="_top" xlink:title="detail">
<polygon fill="white" stroke="black" points="79,-60 25,-60 25,-24 79,-24 79,-60"/>
<text text-anchor="middle" x="52" y="-39.5" font-family="Helvetica,sans-Serif" font-size="10.00">detail</text>
</a>
</g>
</g>
<!-- dir_3a7688c2fc227df78dfd3261942d02d2&#45;&gt;dir_2e574549673191cbe15c56188cd8b9e0 -->
<g id="edge1" class="edge">
<title>dir_3a7688c2fc227df78dfd3261942d02d2&#45;&gt;dir_2e574549673191cbe15c56188cd8b9e0</title>
<path fill="none" stroke="black" d="M52,-95.7C52,-87.98 52,-78.71 52,-70.11"/>
<polygon fill="black" stroke="black" points="55.5,-70.1 52,-60.1 48.5,-70.1 55.5,-70.1"/>
<g id="a_edge1&#45;headlabel"><a xlink:href="dir_000011_000017.html" target="_top" xlink:title="2">
<text text-anchor="middle" x="58.34" y="-71.2" font-family="Helvetica,sans-Serif" font-size="10.00">2</text>
</a>
</g>
</g>
<!-- dir_f7dfbd464fc0226e1f04610e75575ed1 -->
<g id="node3" class="node">
<title>dir_f7dfbd464fc0226e1f04610e75575ed1</title>
<g id="a_node3"><a xlink:href="dir_f7dfbd464fc0226e1f04610e75575ed1.html" target="_top" xlink:title="detail">
<polygon fill="white" stroke="red" points="158,-60 104,-60 104,-24 158,-24 158,-60"/>
<text text-anchor="middle" x="131" y="-39.5" font-family="Helvetica,sans-Serif" font-size="10.00">detail</text>
</a>
</g>
</g>
<!-- dir_3a7688c2fc227df78dfd3261942d02d2&#45;&gt;dir_f7dfbd464fc0226e1f04610e75575ed1 -->
<g id="edge2" class="edge">
<title>dir_3a7688c2fc227df78dfd3261942d02d2&#45;&gt;dir_f7dfbd464fc0226e1f04610e75575ed1</title>
<path fill="none" stroke="black" d="M71.53,-95.7C81.38,-86.97 93.49,-76.24 104.2,-66.75"/>
<polygon fill="black" stroke="black" points="106.53,-69.36 111.7,-60.1 101.89,-64.12 106.53,-69.36"/>
<g id="a_edge2&#45;headlabel"><a xlink:href="dir_000011_000018.html" target="_top" xlink:title="1">
<text text-anchor="middle" x="105.73" y="-71.36" font-family="Helvetica,sans-Serif" font-size="10.00">1</text>
</a>
</g>
</g>
</g>
</svg>
