<?xml version="1.0" encoding="UTF-8" standalone="no"?>
<!DOCTYPE svg PUBLIC "-//W3C//DTD SVG 1.1//EN"
 "http://www.w3.org/Graphics/SVG/1.1/DTD/svg11.dtd">
<!-- Generated by graphviz version 2.43.0 (0)
 -->
<!-- Title: include/plssvm/backends/CUDA Pages: 1 -->
<svg width="180pt" height="183pt"
 viewBox="0.00 0.00 180.00 183.00" xmlns="http://www.w3.org/2000/svg" xmlns:xlink="http://www.w3.org/1999/xlink">
<g id="graph0" class="graph" transform="scale(1 1) rotate(0) translate(4 179)">
<title>include/plssvm/backends/CUDA</title>
<polygon fill="white" stroke="transparent" points="-4,4 -4,-179 176,-179 176,4 -4,4"/>
<g id="clust1" class="cluster">
<title>clusterdir_aece132851e9183324b9b3740ef79635</title>
<g id="a_clust1"><a xlink:href="dir_aece132851e9183324b9b3740ef79635.html" target="_top" xlink:title="backends">
<polygon fill="#ddddee" stroke="black" points="8,-8 8,-167 94,-167 94,-8 8,-8"/>
<text text-anchor="middle" x="51" y="-155" font-family="Helvetica,sans-Serif" font-size="10.00">backends</text>
</a>
</g>
</g>
<g id="clust2" class="cluster">
<title>clusterdir_3b1acf17ef6b0d0bb2450c7474aff8a9</title>
<g id="a_clust2"><a xlink:href="dir_3b1acf17ef6b0d0bb2450c7474aff8a9.html" target="_top">
<polygon fill="#eeeeff" stroke="black" points="16,-16 16,-140 86,-140 86,-16 16,-16"/>
</a>
</g>
</g>
<!-- dir_3b1acf17ef6b0d0bb2450c7474aff8a9 -->
<g id="node1" class="node">
<title>dir_3b1acf17ef6b0d0bb2450c7474aff8a9</title>
<text text-anchor="middle" x="51" y="-111.5" font-family="Helvetica,sans-Serif" font-size="10.00">CUDA</text>
</g>
<!-- dir_64d7c5070ba2e23545d42d3cdff5de07 -->
<g id="node2" class="node">
<title>dir_64d7c5070ba2e23545d42d3cdff5de07</title>
<g id="a_node2"><a xlink:href="dir_64d7c5070ba2e23545d42d3cdff5de07.html" target="_top" xlink:title="detail">
<polygon fill="white" stroke="black" points="78,-60 24,-60 24,-24 78,-24 78,-60"/>
<text text-anchor="middle" x="51" y="-39.5" font-family="Helvetica,sans-Serif" font-size="10.00">detail</text>
</a>
</g>
</g>
<!-- dir_3b1acf17ef6b0d0bb2450c7474aff8a9&#45;&gt;dir_64d7c5070ba2e23545d42d3cdff5de07 -->
<g id="edge2" class="edge">
<title>dir_3b1acf17ef6b0d0bb2450c7474aff8a9&#45;&gt;dir_64d7c5070ba2e23545d42d3cdff5de07</title>
<path fill="none" stroke="black" d="M51,-95.7C51,-87.98 51,-78.71 51,-70.11"/>
<polygon fill="black" stroke="black" points="54.5,-70.1 51,-60.1 47.5,-70.1 54.5,-70.1"/>
<g id="a_edge2&#45;headlabel"><a xlink:href="dir_000005_000012.html" target="_top" xlink:title="1">
<text text-anchor="middle" x="57.34" y="-71.2" font-family="Helvetica,sans-Serif" font-size="10.00">1</text>
</a>
</g>
</g>
<!-- dir_49c4dd39876428c8a6f54100703c6d1b -->
<g id="node3" class="node">
<title>dir_49c4dd39876428c8a6f54100703c6d1b</title>
<g id="a_node3"><a xlink:href="dir_49c4dd39876428c8a6f54100703c6d1b.html" target="_top" xlink:title="exceptions">
<polygon fill="none" stroke="black" points="172,-60 102,-60 102,-24 172,-24 172,-60"/>
<text text-anchor="middle" x="137" y="-39.5" font-family="Helvetica,sans-Serif" font-size="10.00">exceptions</text>
</a>
</g>
</g>
<!-- dir_3b1acf17ef6b0d0bb2450c7474aff8a9&#45;&gt;dir_49c4dd39876428c8a6f54100703c6d1b -->
<g id="edge1" class="edge">
<title>dir_3b1acf17ef6b0d0bb2450c7474aff8a9&#45;&gt;dir_49c4dd39876428c8a6f54100703c6d1b</title>
<path fill="none" stroke="black" d="M72.26,-95.7C83.09,-86.88 96.42,-76.03 108.16,-66.47"/>
<polygon fill="black" stroke="black" points="110.44,-69.13 115.99,-60.1 106.02,-63.7 110.44,-69.13"/>
<g id="a_edge1&#45;headlabel"><a xlink:href="dir_000005_000013.html" target="_top" xlink:title="2">
<text text-anchor="middle" x="109.44" y="-71.1" font-family="Helvetica,sans-Serif" font-size="10.00">2</text>
</a>
</g>
</g>
</g>
</svg>
