<?xml version="1.0" encoding="UTF-8" standalone="no"?>
<!DOCTYPE svg PUBLIC "-//W3C//DTD SVG 1.1//EN"
 "http://www.w3.org/Graphics/SVG/1.1/DTD/svg11.dtd">
<!-- Generated by graphviz version 2.43.0 (0)
 -->
<!-- Title: include/plssvm Pages: 1 -->
<svg width="202pt" height="255pt"
 viewBox="0.00 0.00 202.00 255.00" xmlns="http://www.w3.org/2000/svg" xmlns:xlink="http://www.w3.org/1999/xlink">
<g id="graph0" class="graph" transform="scale(1 1) rotate(0) translate(4 251)">
<title>include/plssvm</title>
<polygon fill="white" stroke="transparent" points="-4,4 -4,-251 198,-251 198,4 -4,4"/>
<g id="clust1" class="cluster">
<title>clusterdir_d44c64559bbebec7f509842c48db8b23</title>
<g id="a_clust1"><a xlink:href="dir_d44c64559bbebec7f509842c48db8b23.html" target="_top" xlink:title="include">
<polygon fill="#ddddee" stroke="black" points="8,-8 8,-239 186,-239 186,-8 8,-8"/>
<text text-anchor="middle" x="97" y="-227" font-family="Helvetica,sans-Serif" font-size="10.00">include</text>
</a>
</g>
</g>
<g id="clust2" class="cluster">
<title>clusterdir_9696d1624c88fbb4b2358edab2255cb6</title>
<g id="a_clust2"><a xlink:href="dir_9696d1624c88fbb4b2358edab2255cb6.html" target="_top">
<polygon fill="#eeeeff" stroke="black" points="16,-16 16,-212 178,-212 178,-16 16,-16"/>
</a>
</g>
</g>
<!-- dir_9696d1624c88fbb4b2358edab2255cb6 -->
<g id="node1" class="node">
<title>dir_9696d1624c88fbb4b2358edab2255cb6</title>
<text text-anchor="middle" x="143" y="-183.5" font-family="Helvetica,sans-Serif" font-size="10.00">plssvm</text>
</g>
<!-- dir_0c7fd7149695622632720efada9226a2 -->
<g id="node5" class="node">
<title>dir_0c7fd7149695622632720efada9226a2</title>
<g id="a_node5"><a xlink:href="dir_0c7fd7149695622632720efada9226a2.html" target="_top" xlink:title="version">
<polygon fill="white" stroke="red" points="170,-132 116,-132 116,-96 170,-96 170,-132"/>
<text text-anchor="middle" x="143" y="-111.5" font-family="Helvetica,sans-Serif" font-size="10.00">version</text>
</a>
</g>
</g>
<!-- dir_9696d1624c88fbb4b2358edab2255cb6&#45;&gt;dir_0c7fd7149695622632720efada9226a2 -->
<g id="edge1" class="edge">
<title>dir_9696d1624c88fbb4b2358edab2255cb6&#45;&gt;dir_0c7fd7149695622632720efada9226a2</title>
<path fill="none" stroke="black" d="M143,-167.7C143,-159.98 143,-150.71 143,-142.11"/>
<polygon fill="black" stroke="black" points="146.5,-142.1 143,-132.1 139.5,-142.1 146.5,-142.1"/>
<g id="a_edge1&#45;headlabel"><a xlink:href="dir_000003_000022.html" target="_top" xlink:title="1">
<text text-anchor="middle" x="149.34" y="-143.2" font-family="Helvetica,sans-Serif" font-size="10.00">1</text>
</a>
</g>
</g>
<!-- dir_aece132851e9183324b9b3740ef79635 -->
<g id="node2" class="node">
<title>dir_aece132851e9183324b9b3740ef79635</title>
<g id="a_node2"><a xlink:href="dir_aece132851e9183324b9b3740ef79635.html" target="_top" xlink:title="backends">
<polygon fill="white" stroke="red" points="86,-204 24,-204 24,-168 86,-168 86,-204"/>
<text text-anchor="middle" x="55" y="-183.5" font-family="Helvetica,sans-Serif" font-size="10.00">backends</text>
</a>
</g>
</g>
<!-- dir_f7dfbd464fc0226e1f04610e75575ed1 -->
<g id="node3" class="node">
<title>dir_f7dfbd464fc0226e1f04610e75575ed1</title>
<g id="a_node3"><a xlink:href="dir_f7dfbd464fc0226e1f04610e75575ed1.html" target="_top" xlink:title="detail">
<polygon fill="white" stroke="red" points="78,-132 24,-132 24,-96 78,-96 78,-132"/>
<text text-anchor="middle" x="51" y="-111.5" font-family="Helvetica,sans-Serif" font-size="10.00">detail</text>
</a>
</g>
</g>
<!-- dir_aece132851e9183324b9b3740ef79635&#45;&gt;dir_f7dfbd464fc0226e1f04610e75575ed1 -->
<g id="edge2" class="edge">
<title>dir_aece132851e9183324b9b3740ef79635&#45;&gt;dir_f7dfbd464fc0226e1f04610e75575ed1</title>
<path fill="none" stroke="black" d="M48.1,-167.7C46.86,-159.98 46.1,-150.71 45.95,-142.11"/>
<polygon fill="black" stroke="black" points="49.45,-142.15 46.08,-132.1 42.45,-142.06 49.45,-142.15"/>
<g id="a_edge2&#45;headlabel"><a xlink:href="dir_000004_000018.html" target="_top" xlink:title="8">
<text text-anchor="middle" x="52.25" y="-143.28" font-family="Helvetica,sans-Serif" font-size="10.00">8</text>
</a>
</g>
</g>
<!-- dir_49c4dd39876428c8a6f54100703c6d1b -->
<g id="node4" class="node">
<title>dir_49c4dd39876428c8a6f54100703c6d1b</title>
<g id="a_node4"><a xlink:href="dir_49c4dd39876428c8a6f54100703c6d1b.html" target="_top" xlink:title="exceptions">
<polygon fill="white" stroke="black" points="113,-60 43,-60 43,-24 113,-24 113,-60"/>
<text text-anchor="middle" x="78" y="-39.5" font-family="Helvetica,sans-Serif" font-size="10.00">exceptions</text>
</a>
</g>
</g>
<!-- dir_aece132851e9183324b9b3740ef79635&#45;&gt;dir_49c4dd39876428c8a6f54100703c6d1b -->
<g id="edge3" class="edge">
<title>dir_aece132851e9183324b9b3740ef79635&#45;&gt;dir_49c4dd39876428c8a6f54100703c6d1b</title>
<path fill="none" stroke="black" d="M68.56,-167.97C75.56,-158.09 83.37,-145.05 87,-132 92.68,-111.61 89.76,-87.72 85.79,-69.82"/>
<polygon fill="black" stroke="black" points="89.18,-68.92 83.39,-60.05 82.38,-70.59 89.18,-68.92"/>
<g id="a_edge3&#45;headlabel"><a xlink:href="dir_000004_000013.html" target="_top" xlink:title="10">
<text text-anchor="middle" x="92.79" y="-69.24" font-family="Helvetica,sans-Serif" font-size="10.00">10</text>
</a>
</g>
</g>
<!-- dir_f7dfbd464fc0226e1f04610e75575ed1&#45;&gt;dir_aece132851e9183324b9b3740ef79635 -->
<g id="edge5" class="edge">
<title>dir_f7dfbd464fc0226e1f04610e75575ed1&#45;&gt;dir_aece132851e9183324b9b3740ef79635</title>
<path fill="none" stroke="black" d="M57.87,-132.1C59.12,-139.79 59.88,-149.05 60.04,-157.67"/>
<polygon fill="black" stroke="black" points="56.54,-157.66 59.93,-167.7 63.54,-157.74 56.54,-157.66"/>
<g id="a_edge5&#45;headlabel"><a xlink:href="dir_000018_000004.html" target="_top" xlink:title="3">
<text text-anchor="middle" x="53.74" y="-151.53" font-family="Helvetica,sans-Serif" font-size="10.00">3</text>
</a>
</g>
</g>
<!-- dir_f7dfbd464fc0226e1f04610e75575ed1&#45;&gt;dir_49c4dd39876428c8a6f54100703c6d1b -->
<g id="edge4" class="edge">
<title>dir_f7dfbd464fc0226e1f04610e75575ed1&#45;&gt;dir_49c4dd39876428c8a6f54100703c6d1b</title>
<path fill="none" stroke="black" d="M57.67,-95.7C60.71,-87.81 64.38,-78.3 67.76,-69.55"/>
<polygon fill="black" stroke="black" points="71.07,-70.69 71.4,-60.1 64.54,-68.17 71.07,-70.69"/>
<g id="a_edge4&#45;headlabel"><a xlink:href="dir_000018_000013.html" target="_top" xlink:title="4">
<text text-anchor="middle" x="72.42" y="-72.57" font-family="Helvetica,sans-Serif" font-size="10.00">4</text>
</a>
</g>
</g>
</g>
</svg>
