<?xml version="1.0" encoding="UTF-8" standalone="no"?>
<!DOCTYPE svg PUBLIC "-//W3C//DTD SVG 1.1//EN"
 "http://www.w3.org/Graphics/SVG/1.1/DTD/svg11.dtd">
<!-- Generated by graphviz version 2.43.0 (0)
 -->
<!-- Title: include/plssvm/backends/SYCL Pages: 1 -->
<svg width="310pt" height="231pt"
 viewBox="0.00 0.00 310.00 231.00" xmlns="http://www.w3.org/2000/svg" xmlns:xlink="http://www.w3.org/1999/xlink">
<g id="graph0" class="graph" transform="scale(1 1) rotate(0) translate(4 227)">
<title>include/plssvm/backends/SYCL</title>
<polygon fill="white" stroke="transparent" points="-4,4 -4,-227 306,-227 306,4 -4,4"/>
<g id="clust1" class="cluster">
<title>clusterdir_aece132851e9183324b9b3740ef79635</title>
<g id="a_clust1"><a xlink:href="dir_aece132851e9183324b9b3740ef79635.html" target="_top" xlink:title="backends">
<polygon fill="#ddddee" stroke="black" points="8,-56 8,-215 240,-215 240,-56 8,-56"/>
<text text-anchor="middle" x="124" y="-203" font-family="Helvetica,sans-Serif" font-size="10.00">backends</text>
</a>
</g>
</g>
<g id="clust2" class="cluster">
<title>clusterdir_aeeba53c5fb17833c0f52606d68a5aa8</title>
<g id="a_clust2"><a xlink:href="dir_aeeba53c5fb17833c0f52606d68a5aa8.html" target="_top">
<polygon fill="#eeeeff" stroke="black" points="16,-64 16,-188 232,-188 232,-64 16,-64"/>
</a>
</g>
</g>
<!-- dir_aeeba53c5fb17833c0f52606d68a5aa8 -->
<g id="node1" class="node">
<title>dir_aeeba53c5fb17833c0f52606d68a5aa8</title>
<text text-anchor="middle" x="51" y="-159.5" font-family="Helvetica,sans-Serif" font-size="10.00">SYCL</text>
</g>
<!-- dir_a961c9b5cb5cee6ff9544a511347539d -->
<g id="node2" class="node">
<title>dir_a961c9b5cb5cee6ff9544a511347539d</title>
<g id="a_node2"><a xlink:href="dir_a961c9b5cb5cee6ff9544a511347539d.html" target="_top" xlink:title="detail">
<polygon fill="white" stroke="black" points="78,-108 24,-108 24,-72 78,-72 78,-108"/>
<text text-anchor="middle" x="51" y="-87.5" font-family="Helvetica,sans-Serif" font-size="10.00">detail</text>
</a>
</g>
</g>
<!-- dir_aeeba53c5fb17833c0f52606d68a5aa8&#45;&gt;dir_a961c9b5cb5cee6ff9544a511347539d -->
<g id="edge4" class="edge">
<title>dir_aeeba53c5fb17833c0f52606d68a5aa8&#45;&gt;dir_a961c9b5cb5cee6ff9544a511347539d</title>
<path fill="none" stroke="black" d="M51,-143.7C51,-135.98 51,-126.71 51,-118.11"/>
<polygon fill="black" stroke="black" points="54.5,-118.1 51,-108.1 47.5,-118.1 54.5,-118.1"/>
<g id="a_edge4&#45;headlabel"><a xlink:href="dir_000009_000019.html" target="_top" xlink:title="3">
<text text-anchor="middle" x="57.34" y="-119.2" font-family="Helvetica,sans-Serif" font-size="10.00">3</text>
</a>
</g>
</g>
<!-- dir_49c4dd39876428c8a6f54100703c6d1b -->
<g id="node5" class="node">
<title>dir_49c4dd39876428c8a6f54100703c6d1b</title>
<g id="a_node5"><a xlink:href="dir_49c4dd39876428c8a6f54100703c6d1b.html" target="_top" xlink:title="exceptions">
<polygon fill="none" stroke="black" points="254,-36 184,-36 184,0 254,0 254,-36"/>
<text text-anchor="middle" x="219" y="-15.5" font-family="Helvetica,sans-Serif" font-size="10.00">exceptions</text>
</a>
</g>
</g>
<!-- dir_aeeba53c5fb17833c0f52606d68a5aa8&#45;&gt;dir_49c4dd39876428c8a6f54100703c6d1b -->
<g id="edge3" class="edge">
<title>dir_aeeba53c5fb17833c0f52606d68a5aa8&#45;&gt;dir_49c4dd39876428c8a6f54100703c6d1b</title>
<path fill="none" stroke="black" d="M71.26,-143.87C101.16,-118.6 157.18,-71.25 190.99,-42.68"/>
<polygon fill="black" stroke="black" points="193.29,-45.32 198.66,-36.19 188.77,-39.97 193.29,-45.32"/>
<g id="a_edge3&#45;headlabel"><a xlink:href="dir_000009_000013.html" target="_top" xlink:title="2">
<text text-anchor="middle" x="192.37" y="-47.31" font-family="Helvetica,sans-Serif" font-size="10.00">2</text>
</a>
</g>
</g>
<!-- dir_c423ce823275d5782ed54321539d9a6b -->
<g id="node3" class="node">
<title>dir_c423ce823275d5782ed54321539d9a6b</title>
<g id="a_node3"><a xlink:href="dir_c423ce823275d5782ed54321539d9a6b.html" target="_top" xlink:title="DPCPP">
<polygon fill="white" stroke="red" points="224,-180 170,-180 170,-144 224,-144 224,-180"/>
<text text-anchor="middle" x="197" y="-159.5" font-family="Helvetica,sans-Serif" font-size="10.00">DPCPP</text>
</a>
</g>
</g>
<!-- dir_f7dfbd464fc0226e1f04610e75575ed1 -->
<g id="node6" class="node">
<title>dir_f7dfbd464fc0226e1f04610e75575ed1</title>
<g id="a_node6"><a xlink:href="dir_f7dfbd464fc0226e1f04610e75575ed1.html" target="_top" xlink:title="detail">
<polygon fill="white" stroke="red" points="302,-108 248,-108 248,-72 302,-72 302,-108"/>
<text text-anchor="middle" x="275" y="-87.5" font-family="Helvetica,sans-Serif" font-size="10.00">detail</text>
</a>
</g>
</g>
<!-- dir_c423ce823275d5782ed54321539d9a6b&#45;&gt;dir_f7dfbd464fc0226e1f04610e75575ed1 -->
<g id="edge1" class="edge">
<title>dir_c423ce823275d5782ed54321539d9a6b&#45;&gt;dir_f7dfbd464fc0226e1f04610e75575ed1</title>
<path fill="none" stroke="black" d="M216.28,-143.7C225.92,-135.05 237.73,-124.45 248.23,-115.03"/>
<polygon fill="black" stroke="black" points="250.84,-117.39 255.94,-108.1 246.16,-112.18 250.84,-117.39"/>
<g id="a_edge1&#45;headlabel"><a xlink:href="dir_000010_000018.html" target="_top" xlink:title="1">
<text text-anchor="middle" x="250.06" y="-119.4" font-family="Helvetica,sans-Serif" font-size="10.00">1</text>
</a>
</g>
</g>
<!-- dir_3a7688c2fc227df78dfd3261942d02d2 -->
<g id="node4" class="node">
<title>dir_3a7688c2fc227df78dfd3261942d02d2</title>
<g id="a_node4"><a xlink:href="dir_3a7688c2fc227df78dfd3261942d02d2.html" target="_top" xlink:title="hipSYCL">
<polygon fill="white" stroke="red" points="151.5,-180 96.5,-180 96.5,-144 151.5,-144 151.5,-180"/>
<text text-anchor="middle" x="124" y="-159.5" font-family="Helvetica,sans-Serif" font-size="10.00">hipSYCL</text>
</a>
</g>
</g>
<!-- dir_3a7688c2fc227df78dfd3261942d02d2&#45;&gt;dir_f7dfbd464fc0226e1f04610e75575ed1 -->
<g id="edge2" class="edge">
<title>dir_3a7688c2fc227df78dfd3261942d02d2&#45;&gt;dir_f7dfbd464fc0226e1f04610e75575ed1</title>
<path fill="none" stroke="black" d="M151.7,-148.16C176.11,-136.84 211.86,-120.27 238.59,-107.88"/>
<polygon fill="black" stroke="black" points="240.39,-110.9 247.99,-103.52 237.44,-104.55 240.39,-110.9"/>
<g id="a_edge2&#45;headlabel"><a xlink:href="dir_000011_000018.html" target="_top" xlink:title="1">
<text text-anchor="middle" x="238.32" y="-112.49" font-family="Helvetica,sans-Serif" font-size="10.00">1</text>
</a>
</g>
</g>
<!-- dir_f7dfbd464fc0226e1f04610e75575ed1&#45;&gt;dir_49c4dd39876428c8a6f54100703c6d1b -->
<g id="edge5" class="edge">
<title>dir_f7dfbd464fc0226e1f04610e75575ed1&#45;&gt;dir_49c4dd39876428c8a6f54100703c6d1b</title>
<path fill="none" stroke="black" d="M261.16,-71.7C254.51,-63.39 246.42,-53.28 239.11,-44.14"/>
<polygon fill="black" stroke="black" points="241.66,-41.73 232.68,-36.1 236.2,-46.1 241.66,-41.73"/>
<g id="a_edge5&#45;headlabel"><a xlink:href="dir_000018_000013.html" target="_top" xlink:title="4">
<text text-anchor="middle" x="246.13" y="-40.26" font-family="Helvetica,sans-Serif" font-size="10.00">4</text>
</a>
</g>
</g>
</g>
</svg>
