<?xml version="1.0" encoding="UTF-8" standalone="no"?>
<!DOCTYPE svg PUBLIC "-//W3C//DTD SVG 1.1//EN"
 "http://www.w3.org/Graphics/SVG/1.1/DTD/svg11.dtd">
<!-- Generated by graphviz version 2.43.0 (0)
 -->
<!-- Title: include/plssvm/backends/OpenCL Pages: 1 -->
<svg width="121pt" height="303pt"
 viewBox="0.00 0.00 121.00 303.00" xmlns="http://www.w3.org/2000/svg" xmlns:xlink="http://www.w3.org/1999/xlink">
<g id="graph0" class="graph" transform="scale(1 1) rotate(0) translate(4 299)">
<title>include/plssvm/backends/OpenCL</title>
<polygon fill="white" stroke="transparent" points="-4,4 -4,-299 117,-299 117,4 -4,4"/>
<g id="clust1" class="cluster">
<title>clusterdir_aece132851e9183324b9b3740ef79635</title>
<g id="a_clust1"><a xlink:href="dir_aece132851e9183324b9b3740ef79635.html" target="_top" xlink:title="backends">
<polygon fill="#ddddee" stroke="black" points="8,-128 8,-287 94,-287 94,-128 8,-128"/>
<text text-anchor="middle" x="51" y="-275" font-family="Helvetica,sans-Serif" font-size="10.00">backends</text>
</a>
</g>
</g>
<g id="clust2" class="cluster">
<title>clusterdir_d7c00eaa22908fd671a35ffbda10ce1f</title>
<g id="a_clust2"><a xlink:href="dir_d7c00eaa22908fd671a35ffbda10ce1f.html" target="_top">
<polygon fill="#eeeeff" stroke="black" points="16,-136 16,-260 86,-260 86,-136 16,-136"/>
</a>
</g>
</g>
<!-- dir_d7c00eaa22908fd671a35ffbda10ce1f -->
<g id="node1" class="node">
<title>dir_d7c00eaa22908fd671a35ffbda10ce1f</title>
<text text-anchor="middle" x="51" y="-231.5" font-family="Helvetica,sans-Serif" font-size="10.00">OpenCL</text>
</g>
<!-- dir_26d9ce1ebc5b1115119c3c93b3a20999 -->
<g id="node2" class="node">
<title>dir_26d9ce1ebc5b1115119c3c93b3a20999</title>
<g id="a_node2"><a xlink:href="dir_26d9ce1ebc5b1115119c3c93b3a20999.html" target="_top" xlink:title="detail">
<polygon fill="white" stroke="black" points="78,-180 24,-180 24,-144 78,-144 78,-180"/>
<text text-anchor="middle" x="51" y="-159.5" font-family="Helvetica,sans-Serif" font-size="10.00">detail</text>
</a>
</g>
</g>
<!-- dir_d7c00eaa22908fd671a35ffbda10ce1f&#45;&gt;dir_26d9ce1ebc5b1115119c3c93b3a20999 -->
<g id="edge1" class="edge">
<title>dir_d7c00eaa22908fd671a35ffbda10ce1f&#45;&gt;dir_26d9ce1ebc5b1115119c3c93b3a20999</title>
<path fill="none" stroke="black" d="M51,-215.7C51,-207.98 51,-198.71 51,-190.11"/>
<polygon fill="black" stroke="black" points="54.5,-190.1 51,-180.1 47.5,-190.1 54.5,-190.1"/>
<g id="a_edge1&#45;headlabel"><a xlink:href="dir_000007_000015.html" target="_top" xlink:title="3">
<text text-anchor="middle" x="57.34" y="-191.2" font-family="Helvetica,sans-Serif" font-size="10.00">3</text>
</a>
</g>
</g>
<!-- dir_49c4dd39876428c8a6f54100703c6d1b -->
<g id="node3" class="node">
<title>dir_49c4dd39876428c8a6f54100703c6d1b</title>
<g id="a_node3"><a xlink:href="dir_49c4dd39876428c8a6f54100703c6d1b.html" target="_top" xlink:title="exceptions">
<polygon fill="none" stroke="black" points="113,-36 43,-36 43,0 113,0 113,-36"/>
<text text-anchor="middle" x="78" y="-15.5" font-family="Helvetica,sans-Serif" font-size="10.00">exceptions</text>
</a>
</g>
</g>
<!-- dir_d7c00eaa22908fd671a35ffbda10ce1f&#45;&gt;dir_49c4dd39876428c8a6f54100703c6d1b -->
<g id="edge2" class="edge">
<title>dir_d7c00eaa22908fd671a35ffbda10ce1f&#45;&gt;dir_49c4dd39876428c8a6f54100703c6d1b</title>
<path fill="none" stroke="black" d="M66.61,-215.77C74.37,-206.03 82.95,-193.18 87,-180 100.9,-134.8 92.54,-79.16 85.24,-46.53"/>
<polygon fill="black" stroke="black" points="88.55,-45.32 82.84,-36.4 81.74,-46.93 88.55,-45.32"/>
<g id="a_edge2&#45;headlabel"><a xlink:href="dir_000007_000013.html" target="_top" xlink:title="2">
<text text-anchor="middle" x="92.14" y="-45.66" font-family="Helvetica,sans-Serif" font-size="10.00">2</text>
</a>
</g>
</g>
<!-- dir_f7dfbd464fc0226e1f04610e75575ed1 -->
<g id="node4" class="node">
<title>dir_f7dfbd464fc0226e1f04610e75575ed1</title>
<g id="a_node4"><a xlink:href="dir_f7dfbd464fc0226e1f04610e75575ed1.html" target="_top" xlink:title="detail">
<polygon fill="white" stroke="red" points="78,-108 24,-108 24,-72 78,-72 78,-108"/>
<text text-anchor="middle" x="51" y="-87.5" font-family="Helvetica,sans-Serif" font-size="10.00">detail</text>
</a>
</g>
</g>
<!-- dir_26d9ce1ebc5b1115119c3c93b3a20999&#45;&gt;dir_f7dfbd464fc0226e1f04610e75575ed1 -->
<g id="edge3" class="edge">
<title>dir_26d9ce1ebc5b1115119c3c93b3a20999&#45;&gt;dir_f7dfbd464fc0226e1f04610e75575ed1</title>
<path fill="none" stroke="black" d="M51,-143.7C51,-135.98 51,-126.71 51,-118.11"/>
<polygon fill="black" stroke="black" points="54.5,-118.1 51,-108.1 47.5,-118.1 54.5,-118.1"/>
<g id="a_edge3&#45;headlabel"><a xlink:href="dir_000015_000018.html" target="_top" xlink:title="1">
<text text-anchor="middle" x="57.34" y="-119.2" font-family="Helvetica,sans-Serif" font-size="10.00">1</text>
</a>
</g>
</g>
<!-- dir_f7dfbd464fc0226e1f04610e75575ed1&#45;&gt;dir_49c4dd39876428c8a6f54100703c6d1b -->
<g id="edge4" class="edge">
<title>dir_f7dfbd464fc0226e1f04610e75575ed1&#45;&gt;dir_49c4dd39876428c8a6f54100703c6d1b</title>
<path fill="none" stroke="black" d="M57.67,-71.7C60.71,-63.81 64.38,-54.3 67.76,-45.55"/>
<polygon fill="black" stroke="black" points="71.07,-46.69 71.4,-36.1 64.54,-44.17 71.07,-46.69"/>
<g id="a_edge4&#45;headlabel"><a xlink:href="dir_000018_000013.html" target="_top" xlink:title="4">
<text text-anchor="middle" x="72.42" y="-48.57" font-family="Helvetica,sans-Serif" font-size="10.00">4</text>
</a>
</g>
</g>
</g>
</svg>
