<?xml version="1.0" encoding="UTF-8" standalone="no"?>
<!DOCTYPE svg PUBLIC "-//W3C//DTD SVG 1.1//EN"
 "http://www.w3.org/Graphics/SVG/1.1/DTD/svg11.dtd">
<!-- Generated by graphviz version 2.43.0 (0)
 -->
<!-- Title: include/plssvm/detail/io Pages: 1 -->
<svg width="94pt" height="151pt"
 viewBox="0.00 0.00 94.00 151.00" xmlns="http://www.w3.org/2000/svg" xmlns:xlink="http://www.w3.org/1999/xlink">
<g id="graph0" class="graph" transform="scale(1 1) rotate(0) translate(4 147)">
<title>include/plssvm/detail/io</title>
<polygon fill="white" stroke="transparent" points="-4,4 -4,-147 90,-147 90,4 -4,4"/>
<g id="clust1" class="cluster">
<title>clusterdir_f7dfbd464fc0226e1f04610e75575ed1</title>
<g id="a_clust1"><a xlink:href="dir_f7dfbd464fc0226e1f04610e75575ed1.html" target="_top" xlink:title="detail">
<polygon fill="#ddddee" stroke="black" points="8,-64 8,-135 78,-135 78,-64 8,-64"/>
<text text-anchor="middle" x="43" y="-123" font-family="Helvetica,sans-Serif" font-size="10.00">detail</text>
</a>
</g>
</g>
<!-- dir_49a979533d63e24ce790b97cafa96f1d -->
<g id="node1" class="node">
<title>dir_49a979533d63e24ce790b97cafa96f1d</title>
<g id="a_node1"><a xlink:href="dir_49a979533d63e24ce790b97cafa96f1d.html" target="_top" xlink:title="io">
<polygon fill="#eeeeff" stroke="black" points="70,-108 16,-108 16,-72 70,-72 70,-108"/>
<text text-anchor="middle" x="43" y="-87.5" font-family="Helvetica,sans-Serif" font-size="10.00">io</text>
</a>
</g>
</g>
<!-- dir_49c4dd39876428c8a6f54100703c6d1b -->
<g id="node2" class="node">
<title>dir_49c4dd39876428c8a6f54100703c6d1b</title>
<g id="a_node2"><a xlink:href="dir_49c4dd39876428c8a6f54100703c6d1b.html" target="_top" xlink:title="exceptions">
<polygon fill="none" stroke="black" points="78,-36 8,-36 8,0 78,0 78,-36"/>
<text text-anchor="middle" x="43" y="-15.5" font-family="Helvetica,sans-Serif" font-size="10.00">exceptions</text>
</a>
</g>
</g>
<!-- dir_49a979533d63e24ce790b97cafa96f1d&#45;&gt;dir_49c4dd39876428c8a6f54100703c6d1b -->
<g id="edge1" class="edge">
<title>dir_49a979533d63e24ce790b97cafa96f1d&#45;&gt;dir_49c4dd39876428c8a6f54100703c6d1b</title>
<path fill="none" stroke="black" d="M43,-71.7C43,-63.98 43,-54.71 43,-46.11"/>
<polygon fill="black" stroke="black" points="46.5,-46.1 43,-36.1 39.5,-46.1 46.5,-46.1"/>
<g id="a_edge1&#45;headlabel"><a xlink:href="dir_000021_000013.html" target="_top" xlink:title="3">
<text text-anchor="middle" x="49.34" y="-47.2" font-family="Helvetica,sans-Serif" font-size="10.00">3</text>
</a>
</g>
</g>
</g>
</svg>
