<?xml version="1.0" encoding="UTF-8" standalone="no"?>
<!DOCTYPE svg PUBLIC "-//W3C//DTD SVG 1.1//EN"
 "http://www.w3.org/Graphics/SVG/1.1/DTD/svg11.dtd">
<!-- Generated by graphviz version 2.43.0 (0)
 -->
<!-- Title: include/plssvm/backends/SYCL/DPCPP/detail/queue.hpp Pages: 1 -->
<svg width="528pt" height="184pt"
 viewBox="0.00 0.00 528.00 184.00" xmlns="http://www.w3.org/2000/svg" xmlns:xlink="http://www.w3.org/1999/xlink">
<g id="graph0" class="graph" transform="scale(1 1) rotate(0) translate(4 180)">
<title>include/plssvm/backends/SYCL/DPCPP/detail/queue.hpp</title>
<polygon fill="white" stroke="transparent" points="-4,4 -4,-180 524,-180 524,4 -4,4"/>
<!-- Node1 -->
<g id="node1" class="node">
<title>Node1</title>
<g id="a_node1"><a xlink:title="PImpl class used to hide the &quot;sycl/sycl.hpp&quot; header from the public interface.">
<polygon fill="#bfbfbf" stroke="black" points="139.5,-145.5 139.5,-175.5 302.5,-175.5 302.5,-145.5 139.5,-145.5"/>
<text text-anchor="start" x="147.5" y="-163.5" font-family="Helvetica,sans-Serif" font-size="10.00">include/plssvm/backends</text>
<text text-anchor="middle" x="221" y="-152.5" font-family="Helvetica,sans-Serif" font-size="10.00">/SYCL/DPCPP/detail/queue.hpp</text>
</a>
</g>
</g>
<!-- Node2 -->
<g id="node2" class="node">
<title>Node2</title>
<g id="a_node2"><a xlink:href="SYCL_2DPCPP_2detail_2device__ptr_8hpp.html" target="_top" xlink:title="Small wrapper around a SYCL device pointer for the DPC++ SYCL implementation.">
<polygon fill="white" stroke="black" points="0,-67.5 0,-108.5 144,-108.5 144,-67.5 0,-67.5"/>
<text text-anchor="start" x="8" y="-96.5" font-family="Helvetica,sans-Serif" font-size="10.00">include/plssvm/backends</text>
<text text-anchor="start" x="8" y="-85.5" font-family="Helvetica,sans-Serif" font-size="10.00">/SYCL/DPCPP/detail/device</text>
<text text-anchor="middle" x="72" y="-74.5" font-family="Helvetica,sans-Serif" font-size="10.00">_ptr.hpp</text>
</a>
</g>
</g>
<!-- Node1&#45;&gt;Node2 -->
<g id="edge1" class="edge">
<title>Node1&#45;&gt;Node2</title>
<path fill="none" stroke="midnightblue" d="M181.89,-141C160.79,-131.01 134.74,-118.69 113.31,-108.55"/>
<polygon fill="midnightblue" stroke="midnightblue" points="180.67,-144.29 191.21,-145.4 183.66,-137.96 180.67,-144.29"/>
</g>
<!-- Node3 -->
<g id="node3" class="node">
<title>Node3</title>
<g id="a_node3"><a xlink:href="backends_2SYCL_2DPCPP_2csvm_8hpp.html" target="_top" xlink:title="Defines a base C&#45;SVM used for the different SYCL backends using DPC++ as SYCL implementation.">
<polygon fill="white" stroke="black" points="52.5,-0.5 52.5,-30.5 191.5,-30.5 191.5,-0.5 52.5,-0.5"/>
<text text-anchor="start" x="60.5" y="-18.5" font-family="Helvetica,sans-Serif" font-size="10.00">include/plssvm/backends</text>
<text text-anchor="middle" x="122" y="-7.5" font-family="Helvetica,sans-Serif" font-size="10.00">/SYCL/DPCPP/csvm.hpp</text>
</a>
</g>
</g>
<!-- Node1&#45;&gt;Node3 -->
<g id="edge5" class="edge">
<title>Node1&#45;&gt;Node3</title>
<path fill="none" stroke="midnightblue" d="M205.25,-136.76C184.6,-106.93 148.98,-55.48 131.81,-30.68"/>
<polygon fill="midnightblue" stroke="midnightblue" points="202.58,-139.04 211.15,-145.27 208.33,-135.05 202.58,-139.04"/>
</g>
<!-- Node4 -->
<g id="node4" class="node">
<title>Node4</title>
<g id="a_node4"><a xlink:href="DPCPP_2detail_2queue__impl_8hpp.html" target="_top" xlink:title="PImpl implementation encapsulating a single SYCL queue.">
<polygon fill="white" stroke="black" points="200,-67.5 200,-108.5 342,-108.5 342,-67.5 200,-67.5"/>
<text text-anchor="start" x="208" y="-96.5" font-family="Helvetica,sans-Serif" font-size="10.00">include/plssvm/backends</text>
<text text-anchor="start" x="208" y="-85.5" font-family="Helvetica,sans-Serif" font-size="10.00">/SYCL/DPCPP/detail/queue</text>
<text text-anchor="middle" x="271" y="-74.5" font-family="Helvetica,sans-Serif" font-size="10.00">_impl.hpp</text>
</a>
</g>
</g>
<!-- Node1&#45;&gt;Node4 -->
<g id="edge3" class="edge">
<title>Node1&#45;&gt;Node4</title>
<path fill="none" stroke="midnightblue" d="M236.97,-136.98C243.45,-127.85 250.86,-117.4 257.11,-108.59"/>
<polygon fill="midnightblue" stroke="midnightblue" points="234.05,-135.05 231.12,-145.23 239.76,-139.1 234.05,-135.05"/>
</g>
<!-- Node5 -->
<g id="node5" class="node">
<title>Node5</title>
<g id="a_node5"><a xlink:href="backends_2SYCL_2DPCPP_2detail_2utility_8hpp.html" target="_top" xlink:title="Utility functions specific to the SYCL backend using DPC++ as SYCL implementation.">
<polygon fill="white" stroke="black" points="360,-73 360,-103 520,-103 520,-73 360,-73"/>
<text text-anchor="start" x="368" y="-91" font-family="Helvetica,sans-Serif" font-size="10.00">include/plssvm/backends</text>
<text text-anchor="middle" x="440" y="-80" font-family="Helvetica,sans-Serif" font-size="10.00">/SYCL/DPCPP/detail/utility.hpp</text>
</a>
</g>
</g>
<!-- Node1&#45;&gt;Node5 -->
<g id="edge4" class="edge">
<title>Node1&#45;&gt;Node5</title>
<path fill="none" stroke="midnightblue" d="M274.25,-142.36C311.65,-130.32 361.06,-114.41 396.18,-103.11"/>
<polygon fill="midnightblue" stroke="midnightblue" points="272.98,-139.09 264.53,-145.49 275.12,-145.75 272.98,-139.09"/>
</g>
<!-- Node2&#45;&gt;Node3 -->
<g id="edge2" class="edge">
<title>Node2&#45;&gt;Node3</title>
<path fill="none" stroke="midnightblue" d="M91.76,-59.14C98.62,-49.47 106.02,-39.02 111.79,-30.89"/>
<polygon fill="midnightblue" stroke="midnightblue" points="88.86,-57.18 85.93,-67.36 94.57,-61.23 88.86,-57.18"/>
</g>
</g>
</svg>
