<?xml version="1.0" encoding="UTF-8" standalone="no"?>
<!DOCTYPE svg PUBLIC "-//W3C//DTD SVG 1.1//EN"
 "http://www.w3.org/Graphics/SVG/1.1/DTD/svg11.dtd">
<!-- Generated by graphviz version 2.43.0 (0)
 -->
<!-- Title: include/plssvm/exceptions/exceptions.hpp Pages: 1 -->
<svg width="2447pt" height="754pt"
 viewBox="0.00 0.00 2447.00 754.00" xmlns="http://www.w3.org/2000/svg" xmlns:xlink="http://www.w3.org/1999/xlink">
<g id="graph0" class="graph" transform="scale(1 1) rotate(0) translate(4 750)">
<title>include/plssvm/exceptions/exceptions.hpp</title>
<polygon fill="white" stroke="transparent" points="-4,4 -4,-750 2443,-750 2443,4 -4,4"/>
<!-- Node1 -->
<g id="node1" class="node">
<title>Node1</title>
<g id="a_node1"><a xlink:title="Implements custom exception classes derived from std::runtime_error including source location informa...">
<polygon fill="#bfbfbf" stroke="black" points="760.5,-715.5 760.5,-745.5 906.5,-745.5 906.5,-715.5 760.5,-715.5"/>
<text text-anchor="start" x="768.5" y="-733.5" font-family="Helvetica,sans-Serif" font-size="10.00">include/plssvm/exceptions</text>
<text text-anchor="middle" x="833.5" y="-722.5" font-family="Helvetica,sans-Serif" font-size="10.00">/exceptions.hpp</text>
</a>
</g>
</g>
<!-- Node2 -->
<g id="node2" class="node">
<title>Node2</title>
<g id="a_node2"><a xlink:href="backends_2CUDA_2exceptions_8hpp.html" target="_top" xlink:title="Implements custom exception classes specific to the CUDA backend.">
<polygon fill="white" stroke="black" points="0,-648.5 0,-678.5 139,-678.5 139,-648.5 0,-648.5"/>
<text text-anchor="start" x="8" y="-666.5" font-family="Helvetica,sans-Serif" font-size="10.00">include/plssvm/backends</text>
<text text-anchor="middle" x="69.5" y="-655.5" font-family="Helvetica,sans-Serif" font-size="10.00">/CUDA/exceptions.hpp</text>
</a>
</g>
</g>
<!-- Node1&#45;&gt;Node2 -->
<g id="edge1" class="edge">
<title>Node1&#45;&gt;Node2</title>
<path fill="none" stroke="midnightblue" d="M750.16,-726.33C620.75,-720.75 363.85,-706.99 147.5,-679 144.77,-678.65 141.99,-678.26 139.18,-677.85"/>
<polygon fill="midnightblue" stroke="midnightblue" points="750.24,-729.84 760.38,-726.77 750.54,-722.85 750.24,-729.84"/>
</g>
<!-- Node3 -->
<g id="node3" class="node">
<title>Node3</title>
<g id="a_node3"><a xlink:href="backends_2HIP_2exceptions_8hpp.html" target="_top" xlink:title="Implements custom exception classes specific to the HIP backend.">
<polygon fill="white" stroke="black" points="157,-648.5 157,-678.5 296,-678.5 296,-648.5 157,-648.5"/>
<text text-anchor="start" x="165" y="-666.5" font-family="Helvetica,sans-Serif" font-size="10.00">include/plssvm/backends</text>
<text text-anchor="middle" x="226.5" y="-655.5" font-family="Helvetica,sans-Serif" font-size="10.00">/HIP/exceptions.hpp</text>
</a>
</g>
</g>
<!-- Node1&#45;&gt;Node3 -->
<g id="edge2" class="edge">
<title>Node1&#45;&gt;Node3</title>
<path fill="none" stroke="midnightblue" d="M749.92,-723.82C645.43,-716.19 461.22,-701 304.5,-679 301.77,-678.62 298.99,-678.21 296.19,-677.77"/>
<polygon fill="midnightblue" stroke="midnightblue" points="749.87,-727.33 760.09,-724.56 750.37,-720.34 749.87,-727.33"/>
</g>
<!-- Node4 -->
<g id="node4" class="node">
<title>Node4</title>
<g id="a_node4"><a xlink:href="backends_2OpenCL_2exceptions_8hpp.html" target="_top" xlink:title="Implements custom exception classes specific to the OpenCL backend.">
<polygon fill="white" stroke="black" points="314,-648.5 314,-678.5 453,-678.5 453,-648.5 314,-648.5"/>
<text text-anchor="start" x="322" y="-666.5" font-family="Helvetica,sans-Serif" font-size="10.00">include/plssvm/backends</text>
<text text-anchor="middle" x="383.5" y="-655.5" font-family="Helvetica,sans-Serif" font-size="10.00">/OpenCL/exceptions.hpp</text>
</a>
</g>
</g>
<!-- Node1&#45;&gt;Node4 -->
<g id="edge3" class="edge">
<title>Node1&#45;&gt;Node4</title>
<path fill="none" stroke="midnightblue" d="M750.36,-719.39C674.85,-709.94 560.5,-694.91 461.5,-679 458.78,-678.56 456.01,-678.11 453.21,-677.63"/>
<polygon fill="midnightblue" stroke="midnightblue" points="749.93,-722.87 760.29,-720.63 750.8,-715.92 749.93,-722.87"/>
</g>
<!-- Node5 -->
<g id="node5" class="node">
<title>Node5</title>
<g id="a_node5"><a xlink:href="backends_2OpenMP_2exceptions_8hpp.html" target="_top" xlink:title="Implements custom exception classes specific to the OpenMP backend.">
<polygon fill="white" stroke="black" points="471,-648.5 471,-678.5 610,-678.5 610,-648.5 471,-648.5"/>
<text text-anchor="start" x="479" y="-666.5" font-family="Helvetica,sans-Serif" font-size="10.00">include/plssvm/backends</text>
<text text-anchor="middle" x="540.5" y="-655.5" font-family="Helvetica,sans-Serif" font-size="10.00">/OpenMP/exceptions.hpp</text>
</a>
</g>
</g>
<!-- Node1&#45;&gt;Node5 -->
<g id="edge4" class="edge">
<title>Node1&#45;&gt;Node5</title>
<path fill="none" stroke="midnightblue" d="M760.24,-713.25C712.13,-702.58 649.83,-688.75 603.85,-678.55"/>
<polygon fill="midnightblue" stroke="midnightblue" points="759.76,-716.73 770.28,-715.48 761.28,-709.89 759.76,-716.73"/>
</g>
<!-- Node6 -->
<g id="node6" class="node">
<title>Node6</title>
<g id="a_node6"><a xlink:href="backends_2SYCL_2exceptions_8hpp.html" target="_top" xlink:title="Implements custom exception classes specific to the SYCL backend.">
<polygon fill="white" stroke="black" points="628,-648.5 628,-678.5 767,-678.5 767,-648.5 628,-648.5"/>
<text text-anchor="start" x="636" y="-666.5" font-family="Helvetica,sans-Serif" font-size="10.00">include/plssvm/backends</text>
<text text-anchor="middle" x="697.5" y="-655.5" font-family="Helvetica,sans-Serif" font-size="10.00">/SYCL/exceptions.hpp</text>
</a>
</g>
</g>
<!-- Node1&#45;&gt;Node6 -->
<g id="edge5" class="edge">
<title>Node1&#45;&gt;Node6</title>
<path fill="none" stroke="midnightblue" d="M794.78,-710.99C773.22,-700.69 746.81,-688.07 726.95,-678.58"/>
<polygon fill="midnightblue" stroke="midnightblue" points="793.46,-714.24 803.99,-715.4 796.48,-707.93 793.46,-714.24"/>
</g>
<!-- Node7 -->
<g id="node7" class="node">
<title>Node7</title>
<g id="a_node7"><a xlink:href="core_8hpp.html" target="_top" xlink:title="Core header including all other necessary headers.">
<polygon fill="white" stroke="black" points="933,-6 933,-25 1068,-25 1068,-6 933,-6"/>
<text text-anchor="middle" x="1000.5" y="-13" font-family="Helvetica,sans-Serif" font-size="10.00">include/plssvm/core.hpp</text>
</a>
</g>
</g>
<!-- Node1&#45;&gt;Node7 -->
<g id="edge6" class="edge">
<title>Node1&#45;&gt;Node7</title>
<path fill="none" stroke="midnightblue" d="M824.23,-705.82C803.96,-651.85 757.5,-515.19 757.5,-396.5 757.5,-396.5 757.5,-396.5 757.5,-143 757.5,-63.57 860.91,-33.94 932.81,-22.94"/>
<polygon fill="midnightblue" stroke="midnightblue" points="821.08,-707.38 827.91,-715.48 827.62,-704.89 821.08,-707.38"/>
</g>
<!-- Node8 -->
<g id="node8" class="node">
<title>Node8</title>
<g id="a_node8"><a xlink:href="csvm_8hpp.html" target="_top" xlink:title="Defines the base class for all C&#45;SVM backends and implements the functionality shared by all of them.">
<polygon fill="white" stroke="black" points="1457.5,-134.5 1457.5,-153.5 1597.5,-153.5 1597.5,-134.5 1457.5,-134.5"/>
<text text-anchor="middle" x="1527.5" y="-141.5" font-family="Helvetica,sans-Serif" font-size="10.00">include/plssvm/csvm.hpp</text>
</a>
</g>
</g>
<!-- Node1&#45;&gt;Node8 -->
<g id="edge7" class="edge">
<title>Node1&#45;&gt;Node8</title>
<path fill="none" stroke="midnightblue" d="M917.08,-723.31C1052.65,-710.95 1305.5,-677.21 1305.5,-597.5 1305.5,-597.5 1305.5,-597.5 1305.5,-461.5 1305.5,-314.51 1467.97,-187.39 1514.93,-153.71"/>
<polygon fill="midnightblue" stroke="midnightblue" points="916.38,-719.86 906.73,-724.24 917,-726.83 916.38,-719.86"/>
</g>
<!-- Node16 -->
<g id="node16" class="node">
<title>Node16</title>
<g id="a_node16"><a xlink:href="csvm__factory_8hpp.html" target="_top" xlink:title="Factory function for constructing a new C&#45;SVM based on the provided plssvm::backend_type and potentia...">
<polygon fill="white" stroke="black" points="941,-67.5 941,-97.5 1060,-97.5 1060,-67.5 941,-67.5"/>
<text text-anchor="start" x="949" y="-85.5" font-family="Helvetica,sans-Serif" font-size="10.00">include/plssvm/csvm</text>
<text text-anchor="middle" x="1000.5" y="-74.5" font-family="Helvetica,sans-Serif" font-size="10.00">_factory.hpp</text>
</a>
</g>
</g>
<!-- Node1&#45;&gt;Node16 -->
<g id="edge18" class="edge">
<title>Node1&#45;&gt;Node16</title>
<path fill="none" stroke="midnightblue" d="M833.5,-704.99C833.5,-678.49 833.5,-635 833.5,-597.5 833.5,-597.5 833.5,-597.5 833.5,-260.5 833.5,-181.07 923.56,-122.85 971.41,-97.52"/>
<polygon fill="midnightblue" stroke="midnightblue" points="830,-705.24 833.5,-715.24 837,-705.24 830,-705.24"/>
</g>
<!-- Node17 -->
<g id="node17" class="node">
<title>Node17</title>
<g id="a_node17"><a xlink:href="data__set_8hpp.html" target="_top" xlink:title="Implements a data set class encapsulating all data points, features, and potential labels.">
<polygon fill="white" stroke="black" points="1032,-313.5 1032,-343.5 1147,-343.5 1147,-313.5 1032,-313.5"/>
<text text-anchor="start" x="1040" y="-331.5" font-family="Helvetica,sans-Serif" font-size="10.00">include/plssvm/data</text>
<text text-anchor="middle" x="1089.5" y="-320.5" font-family="Helvetica,sans-Serif" font-size="10.00">_set.hpp</text>
</a>
</g>
</g>
<!-- Node1&#45;&gt;Node17 -->
<g id="edge19" class="edge">
<title>Node1&#45;&gt;Node17</title>
<path fill="none" stroke="midnightblue" d="M867.5,-709.95C881.22,-701.31 896.77,-690.5 909.5,-679 995.24,-601.5 1030.13,-584.72 1074.5,-478 1093.7,-431.82 1092.48,-370.87 1090.71,-343.66"/>
<polygon fill="midnightblue" stroke="midnightblue" points="865.48,-707.08 858.8,-715.3 869.15,-713.04 865.48,-707.08"/>
</g>
<!-- Node21 -->
<g id="node21" class="node">
<title>Node21</title>
<g id="a_node21"><a xlink:href="arff__parsing_8hpp.html" target="_top" xlink:title="Implements parsing functions for the ARFF file format.">
<polygon fill="white" stroke="black" points="1080,-514.5 1080,-544.5 1201,-544.5 1201,-514.5 1080,-514.5"/>
<text text-anchor="start" x="1088" y="-532.5" font-family="Helvetica,sans-Serif" font-size="10.00">include/plssvm/detail</text>
<text text-anchor="middle" x="1140.5" y="-521.5" font-family="Helvetica,sans-Serif" font-size="10.00">/io/arff_parsing.hpp</text>
</a>
</g>
</g>
<!-- Node1&#45;&gt;Node21 -->
<g id="edge28" class="edge">
<title>Node1&#45;&gt;Node21</title>
<path fill="none" stroke="midnightblue" d="M916.81,-719.03C973.53,-710.49 1042.36,-696.91 1065.5,-679 1110.72,-643.99 1130.86,-574.3 1137.66,-544.52"/>
<polygon fill="midnightblue" stroke="midnightblue" points="916.11,-715.59 906.73,-720.51 917.13,-722.52 916.11,-715.59"/>
</g>
<!-- Node22 -->
<g id="node22" class="node">
<title>Node22</title>
<g id="a_node22"><a xlink:href="libsvm__parsing_8hpp.html" target="_top" xlink:title="Implements parsing functions for the LIBSVM file format.">
<polygon fill="white" stroke="black" points="862,-380.5 862,-410.5 989,-410.5 989,-380.5 862,-380.5"/>
<text text-anchor="start" x="870" y="-398.5" font-family="Helvetica,sans-Serif" font-size="10.00">include/plssvm/detail</text>
<text text-anchor="middle" x="925.5" y="-387.5" font-family="Helvetica,sans-Serif" font-size="10.00">/io/libsvm_parsing.hpp</text>
</a>
</g>
</g>
<!-- Node1&#45;&gt;Node22 -->
<g id="edge30" class="edge">
<title>Node1&#45;&gt;Node22</title>
<path fill="none" stroke="midnightblue" d="M844.65,-705.86C855.87,-679.89 871.5,-636.66 871.5,-597.5 871.5,-597.5 871.5,-597.5 871.5,-528.5 871.5,-491.4 874.43,-480.9 889.5,-447 895.45,-433.62 905.24,-420.2 913.11,-410.57"/>
<polygon fill="midnightblue" stroke="midnightblue" points="841.35,-704.68 840.47,-715.24 847.74,-707.53 841.35,-704.68"/>
</g>
<!-- Node23 -->
<g id="node23" class="node">
<title>Node23</title>
<g id="a_node23"><a xlink:href="scaling__factors__parsing_8hpp.html" target="_top" xlink:title="Implements parsing functions for the scaling factor file parsing.">
<polygon fill="white" stroke="black" points="899,-447.5 899,-477.5 1066,-477.5 1066,-447.5 899,-447.5"/>
<text text-anchor="start" x="907" y="-465.5" font-family="Helvetica,sans-Serif" font-size="10.00">include/plssvm/detail</text>
<text text-anchor="middle" x="982.5" y="-454.5" font-family="Helvetica,sans-Serif" font-size="10.00">/io/scaling_factors_parsing.hpp</text>
</a>
</g>
</g>
<!-- Node1&#45;&gt;Node23 -->
<g id="edge33" class="edge">
<title>Node1&#45;&gt;Node23</title>
<path fill="none" stroke="midnightblue" d="M858.6,-708.73C867.86,-700.2 877.94,-689.79 885.5,-679 933.79,-610.13 966.94,-513.37 978.23,-477.55"/>
<polygon fill="midnightblue" stroke="midnightblue" points="856.22,-706.17 851.08,-715.43 860.87,-711.39 856.22,-706.17"/>
</g>
<!-- Node24 -->
<g id="node24" class="node">
<title>Node24</title>
<g id="a_node24"><a xlink:href="kernel__function__types_8hpp.html" target="_top" xlink:title="Defines an enumeration holding all possible kernel function types.">
<polygon fill="white" stroke="black" points="1758,-648.5 1758,-678.5 1881,-678.5 1881,-648.5 1758,-648.5"/>
<text text-anchor="start" x="1766" y="-666.5" font-family="Helvetica,sans-Serif" font-size="10.00">include/plssvm/kernel</text>
<text text-anchor="middle" x="1819.5" y="-655.5" font-family="Helvetica,sans-Serif" font-size="10.00">_function_types.hpp</text>
</a>
</g>
</g>
<!-- Node1&#45;&gt;Node24 -->
<g id="edge35" class="edge">
<title>Node1&#45;&gt;Node24</title>
<path fill="none" stroke="midnightblue" d="M916.93,-724C1110.75,-711.22 1587.85,-679.77 1757.99,-668.55"/>
<polygon fill="midnightblue" stroke="midnightblue" points="916.55,-720.52 906.8,-724.67 917.01,-727.5 916.55,-720.52"/>
</g>
<!-- Node8&#45;&gt;Node7 -->
<g id="edge15" class="edge">
<title>Node8&#45;&gt;Node7</title>
<path fill="none" stroke="midnightblue" d="M1491.33,-131.27C1441.21,-115.3 1347.65,-86.47 1266.5,-67 1193.25,-49.43 1107.48,-34.07 1053.56,-25.03"/>
<polygon fill="midnightblue" stroke="midnightblue" points="1490.46,-134.67 1501.05,-134.38 1492.59,-128 1490.46,-134.67"/>
</g>
<!-- Node9 -->
<g id="node9" class="node">
<title>Node9</title>
<g id="a_node9"><a xlink:href="gpu__csvm_8hpp.html" target="_top" xlink:title="Defines the base class for all C&#45;SVM backends using a GPU. Used for code duplication reduction.">
<polygon fill="white" stroke="black" points="1880,-67.5 1880,-97.5 2019,-97.5 2019,-67.5 1880,-67.5"/>
<text text-anchor="start" x="1888" y="-85.5" font-family="Helvetica,sans-Serif" font-size="10.00">include/plssvm/backends</text>
<text text-anchor="middle" x="1949.5" y="-74.5" font-family="Helvetica,sans-Serif" font-size="10.00">/gpu_csvm.hpp</text>
</a>
</g>
</g>
<!-- Node8&#45;&gt;Node9 -->
<g id="edge8" class="edge">
<title>Node8&#45;&gt;Node9</title>
<path fill="none" stroke="midnightblue" d="M1598.21,-133.03C1676.46,-122 1801.77,-104.33 1879.67,-93.35"/>
<polygon fill="midnightblue" stroke="midnightblue" points="1597.38,-129.61 1587.96,-134.48 1598.35,-136.54 1597.38,-129.61"/>
</g>
<!-- Node15 -->
<g id="node15" class="node">
<title>Node15</title>
<g id="a_node15"><a xlink:href="backends_2OpenMP_2csvm_8hpp.html" target="_top" xlink:title="Defines a C&#45;SVM using the OpenMP backend.">
<polygon fill="white" stroke="black" points="1576,-67.5 1576,-97.5 1715,-97.5 1715,-67.5 1576,-67.5"/>
<text text-anchor="start" x="1584" y="-85.5" font-family="Helvetica,sans-Serif" font-size="10.00">include/plssvm/backends</text>
<text text-anchor="middle" x="1645.5" y="-74.5" font-family="Helvetica,sans-Serif" font-size="10.00">/OpenMP/csvm.hpp</text>
</a>
</g>
</g>
<!-- Node8&#45;&gt;Node15 -->
<g id="edge14" class="edge">
<title>Node8&#45;&gt;Node15</title>
<path fill="none" stroke="midnightblue" d="M1553.4,-129.94C1572.43,-120.35 1598.23,-107.33 1617.69,-97.52"/>
<polygon fill="midnightblue" stroke="midnightblue" points="1551.76,-126.85 1544.41,-134.48 1554.91,-133.1 1551.76,-126.85"/>
</g>
<!-- Node8&#45;&gt;Node16 -->
<g id="edge16" class="edge">
<title>Node8&#45;&gt;Node16</title>
<path fill="none" stroke="midnightblue" d="M1447.19,-133.93C1340.65,-121.9 1155.02,-100.95 1060.1,-90.23"/>
<polygon fill="midnightblue" stroke="midnightblue" points="1446.92,-137.42 1457.25,-135.07 1447.7,-130.47 1446.92,-137.42"/>
</g>
<!-- Node10 -->
<g id="node10" class="node">
<title>Node10</title>
<g id="a_node10"><a xlink:href="backends_2CUDA_2csvm_8hpp.html" target="_top" xlink:title="Defines a C&#45;SVM using the CUDA backend.">
<polygon fill="white" stroke="black" points="1829,-0.5 1829,-30.5 1968,-30.5 1968,-0.5 1829,-0.5"/>
<text text-anchor="start" x="1837" y="-18.5" font-family="Helvetica,sans-Serif" font-size="10.00">include/plssvm/backends</text>
<text text-anchor="middle" x="1898.5" y="-7.5" font-family="Helvetica,sans-Serif" font-size="10.00">/CUDA/csvm.hpp</text>
</a>
</g>
</g>
<!-- Node9&#45;&gt;Node10 -->
<g id="edge9" class="edge">
<title>Node9&#45;&gt;Node10</title>
<path fill="none" stroke="midnightblue" d="M1932.2,-59.45C1924.71,-49.9 1916.16,-39 1909.54,-30.58"/>
<polygon fill="midnightblue" stroke="midnightblue" points="1929.51,-61.69 1938.43,-67.4 1935.01,-57.37 1929.51,-61.69"/>
</g>
<!-- Node11 -->
<g id="node11" class="node">
<title>Node11</title>
<g id="a_node11"><a xlink:href="backends_2HIP_2csvm_8hpp.html" target="_top" xlink:title="Defines a C&#45;SVM using the HIP backend.">
<polygon fill="white" stroke="black" points="1986,-0.5 1986,-30.5 2125,-30.5 2125,-0.5 1986,-0.5"/>
<text text-anchor="start" x="1994" y="-18.5" font-family="Helvetica,sans-Serif" font-size="10.00">include/plssvm/backends</text>
<text text-anchor="middle" x="2055.5" y="-7.5" font-family="Helvetica,sans-Serif" font-size="10.00">/HIP/csvm.hpp</text>
</a>
</g>
</g>
<!-- Node9&#45;&gt;Node11 -->
<g id="edge10" class="edge">
<title>Node9&#45;&gt;Node11</title>
<path fill="none" stroke="midnightblue" d="M1981.28,-62.02C1997.77,-51.9 2017.55,-39.77 2032.54,-30.58"/>
<polygon fill="midnightblue" stroke="midnightblue" points="1979.2,-59.18 1972.5,-67.4 1982.85,-65.15 1979.2,-59.18"/>
</g>
<!-- Node12 -->
<g id="node12" class="node">
<title>Node12</title>
<g id="a_node12"><a xlink:href="backends_2OpenCL_2csvm_8hpp.html" target="_top" xlink:title="Defines a C&#45;SVM using the OpenCL backend.">
<polygon fill="white" stroke="black" points="2143,-0.5 2143,-30.5 2282,-30.5 2282,-0.5 2143,-0.5"/>
<text text-anchor="start" x="2151" y="-18.5" font-family="Helvetica,sans-Serif" font-size="10.00">include/plssvm/backends</text>
<text text-anchor="middle" x="2212.5" y="-7.5" font-family="Helvetica,sans-Serif" font-size="10.00">/OpenCL/csvm.hpp</text>
</a>
</g>
</g>
<!-- Node9&#45;&gt;Node12 -->
<g id="edge11" class="edge">
<title>Node9&#45;&gt;Node12</title>
<path fill="none" stroke="midnightblue" d="M2016.05,-65.05C2059.05,-54.43 2114.42,-40.74 2155.41,-30.61"/>
<polygon fill="midnightblue" stroke="midnightblue" points="2015.11,-61.68 2006.24,-67.48 2016.79,-68.47 2015.11,-61.68"/>
</g>
<!-- Node13 -->
<g id="node13" class="node">
<title>Node13</title>
<g id="a_node13"><a xlink:href="backends_2SYCL_2DPCPP_2csvm_8hpp.html" target="_top" xlink:title="Defines a base C&#45;SVM used for the different SYCL backends using DPC++ as SYCL implementation.">
<polygon fill="white" stroke="black" points="2300,-0.5 2300,-30.5 2439,-30.5 2439,-0.5 2300,-0.5"/>
<text text-anchor="start" x="2308" y="-18.5" font-family="Helvetica,sans-Serif" font-size="10.00">include/plssvm/backends</text>
<text text-anchor="middle" x="2369.5" y="-7.5" font-family="Helvetica,sans-Serif" font-size="10.00">/SYCL/DPCPP/csvm.hpp</text>
</a>
</g>
</g>
<!-- Node9&#45;&gt;Node13 -->
<g id="edge12" class="edge">
<title>Node9&#45;&gt;Node13</title>
<path fill="none" stroke="midnightblue" d="M2029.04,-70.61C2098.44,-60.9 2201.78,-45.96 2291.5,-31 2294.22,-30.55 2296.99,-30.08 2299.78,-29.59"/>
<polygon fill="midnightblue" stroke="midnightblue" points="2028.47,-67.15 2019.05,-72 2029.44,-74.09 2028.47,-67.15"/>
</g>
<!-- Node14 -->
<g id="node14" class="node">
<title>Node14</title>
<g id="a_node14"><a xlink:href="backends_2SYCL_2hipSYCL_2csvm_8hpp.html" target="_top" xlink:title="Defines a base C&#45;SVM used for the different SYCL backends using hipSYCL as SYCL implementation.">
<polygon fill="white" stroke="black" points="1672,-0.5 1672,-30.5 1811,-30.5 1811,-0.5 1672,-0.5"/>
<text text-anchor="start" x="1680" y="-18.5" font-family="Helvetica,sans-Serif" font-size="10.00">include/plssvm/backends</text>
<text text-anchor="middle" x="1741.5" y="-7.5" font-family="Helvetica,sans-Serif" font-size="10.00">/SYCL/hipSYCL/csvm.hpp</text>
</a>
</g>
</g>
<!-- Node9&#45;&gt;Node14 -->
<g id="edge13" class="edge">
<title>Node9&#45;&gt;Node14</title>
<path fill="none" stroke="midnightblue" d="M1894.92,-64.44C1861.2,-53.91 1818.46,-40.55 1786.65,-30.61"/>
<polygon fill="midnightblue" stroke="midnightblue" points="1894.03,-67.83 1904.62,-67.48 1896.12,-61.15 1894.03,-67.83"/>
</g>
<!-- Node16&#45;&gt;Node7 -->
<g id="edge17" class="edge">
<title>Node16&#45;&gt;Node7</title>
<path fill="none" stroke="midnightblue" d="M1000.5,-57.25C1000.5,-46.02 1000.5,-33.38 1000.5,-25.19"/>
<polygon fill="midnightblue" stroke="midnightblue" points="997,-57.4 1000.5,-67.4 1004,-57.4 997,-57.4"/>
</g>
<!-- Node17&#45;&gt;Node7 -->
<g id="edge20" class="edge">
<title>Node17&#45;&gt;Node7</title>
<path fill="none" stroke="midnightblue" d="M1021.87,-317.31C957.86,-303.37 871.5,-271.51 871.5,-201 871.5,-201 871.5,-201 871.5,-143 871.5,-82.93 943.69,-41.95 980.06,-25.1"/>
<polygon fill="midnightblue" stroke="midnightblue" points="1021.44,-320.79 1031.94,-319.39 1022.86,-313.94 1021.44,-320.79"/>
</g>
<!-- Node17&#45;&gt;Node8 -->
<g id="edge21" class="edge">
<title>Node17&#45;&gt;Node8</title>
<path fill="none" stroke="midnightblue" d="M1031.29,-308.95C1016.77,-301.41 1002.95,-291.05 994.5,-277 987.4,-265.19 985.85,-256.73 994.5,-246 1051.62,-175.15 1326.23,-153.71 1457.42,-147.46"/>
<polygon fill="midnightblue" stroke="midnightblue" points="1029.85,-312.14 1040.38,-313.28 1032.86,-305.82 1029.85,-312.14"/>
</g>
<!-- Node18 -->
<g id="node18" class="node">
<title>Node18</title>
<g id="a_node18"><a xlink:href="data__set__variants_8hpp.html" target="_top" xlink:title="Implements utility functions to create a data set based on runtime parameters.">
<polygon fill="white" stroke="black" points="1013.5,-246.5 1013.5,-276.5 1165.5,-276.5 1165.5,-246.5 1013.5,-246.5"/>
<text text-anchor="start" x="1021.5" y="-264.5" font-family="Helvetica,sans-Serif" font-size="10.00">include/plssvm/detail</text>
<text text-anchor="middle" x="1089.5" y="-253.5" font-family="Helvetica,sans-Serif" font-size="10.00">/cmd/data_set_variants.hpp</text>
</a>
</g>
</g>
<!-- Node17&#45;&gt;Node18 -->
<g id="edge22" class="edge">
<title>Node17&#45;&gt;Node18</title>
<path fill="none" stroke="midnightblue" d="M1089.5,-303.11C1089.5,-294.15 1089.5,-284.32 1089.5,-276.58"/>
<polygon fill="midnightblue" stroke="midnightblue" points="1086,-303.4 1089.5,-313.4 1093,-303.4 1086,-303.4"/>
</g>
<!-- Node19 -->
<g id="node19" class="node">
<title>Node19</title>
<g id="a_node19"><a xlink:href="libsvm__model__parsing_8hpp.html" target="_top" xlink:title="Implements parsing functions for the LIBSVM model file.">
<polygon fill="white" stroke="black" points="1184,-246.5 1184,-276.5 1347,-276.5 1347,-246.5 1184,-246.5"/>
<text text-anchor="start" x="1192" y="-264.5" font-family="Helvetica,sans-Serif" font-size="10.00">include/plssvm/detail</text>
<text text-anchor="middle" x="1265.5" y="-253.5" font-family="Helvetica,sans-Serif" font-size="10.00">/io/libsvm_model_parsing.hpp</text>
</a>
</g>
</g>
<!-- Node17&#45;&gt;Node19 -->
<g id="edge23" class="edge">
<title>Node17&#45;&gt;Node19</title>
<path fill="none" stroke="midnightblue" d="M1137.38,-309.82C1165.67,-299.37 1200.99,-286.32 1227.39,-276.58"/>
<polygon fill="midnightblue" stroke="midnightblue" points="1135.86,-306.65 1127.69,-313.4 1138.28,-313.21 1135.86,-306.65"/>
</g>
<!-- Node20 -->
<g id="node20" class="node">
<title>Node20</title>
<g id="a_node20"><a xlink:href="model_8hpp.html" target="_top" xlink:title="Implements a model class encapsulating the results of a SVM fit call.">
<polygon fill="white" stroke="black" points="1262,-190.5 1262,-209.5 1407,-209.5 1407,-190.5 1262,-190.5"/>
<text text-anchor="middle" x="1334.5" y="-197.5" font-family="Helvetica,sans-Serif" font-size="10.00">include/plssvm/model.hpp</text>
</a>
</g>
</g>
<!-- Node17&#45;&gt;Node20 -->
<g id="edge27" class="edge">
<title>Node17&#45;&gt;Node20</title>
<path fill="none" stroke="midnightblue" d="M1046.91,-308.74C1016.58,-292.82 984.46,-268.96 1004.5,-246 1037.2,-208.54 1174.93,-201.1 1261.79,-200.26"/>
<polygon fill="midnightblue" stroke="midnightblue" points="1045.7,-312.05 1056.21,-313.42 1048.85,-305.8 1045.7,-312.05"/>
</g>
<!-- Node19&#45;&gt;Node20 -->
<g id="edge24" class="edge">
<title>Node19&#45;&gt;Node20</title>
<path fill="none" stroke="midnightblue" d="M1289.74,-239.6C1301.66,-229.32 1315.39,-217.48 1324.46,-209.66"/>
<polygon fill="midnightblue" stroke="midnightblue" points="1287.14,-237.22 1281.85,-246.4 1291.71,-242.52 1287.14,-237.22"/>
</g>
<!-- Node20&#45;&gt;Node7 -->
<g id="edge25" class="edge">
<title>Node20&#45;&gt;Node7</title>
<path fill="none" stroke="midnightblue" d="M1309.69,-185.44C1244.45,-149.79 1069.44,-54.17 1016.13,-25.04"/>
<polygon fill="midnightblue" stroke="midnightblue" points="1308.38,-188.72 1318.84,-190.44 1311.74,-182.58 1308.38,-188.72"/>
</g>
<!-- Node20&#45;&gt;Node8 -->
<g id="edge26" class="edge">
<title>Node20&#45;&gt;Node8</title>
<path fill="none" stroke="midnightblue" d="M1374.89,-187.7C1411.32,-177.51 1464.09,-162.74 1497.06,-153.52"/>
<polygon fill="midnightblue" stroke="midnightblue" points="1373.77,-184.38 1365.08,-190.44 1375.65,-191.12 1373.77,-184.38"/>
</g>
<!-- Node21&#45;&gt;Node17 -->
<g id="edge29" class="edge">
<title>Node21&#45;&gt;Node17</title>
<path fill="none" stroke="midnightblue" d="M1136.06,-504.22C1130.43,-474.62 1119.95,-423.21 1107.5,-380 1103.94,-367.66 1098.99,-353.95 1095.18,-343.93"/>
<polygon fill="midnightblue" stroke="midnightblue" points="1132.69,-505.25 1137.98,-514.43 1139.57,-503.96 1132.69,-505.25"/>
</g>
<!-- Node22&#45;&gt;Node17 -->
<g id="edge31" class="edge">
<title>Node22&#45;&gt;Node17</title>
<path fill="none" stroke="midnightblue" d="M970.46,-376.68C996.76,-366.26 1029.5,-353.28 1053.98,-343.58"/>
<polygon fill="midnightblue" stroke="midnightblue" points="969.09,-373.46 961.09,-380.4 971.67,-379.97 969.09,-373.46"/>
</g>
<!-- Node22&#45;&gt;Node20 -->
<g id="edge32" class="edge">
<title>Node22&#45;&gt;Node20</title>
<path fill="none" stroke="midnightblue" d="M929.38,-370.27C936.16,-336.5 953.57,-276.08 994.5,-246 1035.7,-215.72 1174.66,-205.82 1261.65,-202.58"/>
<polygon fill="midnightblue" stroke="midnightblue" points="925.92,-369.75 927.54,-380.22 932.8,-371.02 925.92,-369.75"/>
</g>
<!-- Node23&#45;&gt;Node17 -->
<g id="edge34" class="edge">
<title>Node23&#45;&gt;Node17</title>
<path fill="none" stroke="midnightblue" d="M1000.3,-439.54C1022.42,-412.25 1059.52,-366.48 1078.13,-343.52"/>
<polygon fill="midnightblue" stroke="midnightblue" points="997.53,-437.4 993.95,-447.37 1002.97,-441.81 997.53,-437.4"/>
</g>
<!-- Node24&#45;&gt;Node7 -->
<g id="edge37" class="edge">
<title>Node24&#45;&gt;Node7</title>
<path fill="none" stroke="midnightblue" d="M1747.69,-659.34C1514.81,-647.15 795.5,-593.55 795.5,-396.5 795.5,-396.5 795.5,-396.5 795.5,-143 795.5,-70.75 888.85,-38.41 949.56,-25.01"/>
<polygon fill="midnightblue" stroke="midnightblue" points="1747.58,-662.84 1757.75,-659.85 1747.94,-655.84 1747.58,-662.84"/>
</g>
<!-- Node24&#45;&gt;Node8 -->
<g id="edge38" class="edge">
<title>Node24&#45;&gt;Node8</title>
<path fill="none" stroke="midnightblue" d="M1819.5,-637.99C1819.5,-611.49 1819.5,-568 1819.5,-530.5 1819.5,-530.5 1819.5,-530.5 1819.5,-327.5 1819.5,-216.31 1665.36,-170.35 1581.06,-153.53"/>
<polygon fill="midnightblue" stroke="midnightblue" points="1816,-638.24 1819.5,-648.24 1823,-638.24 1816,-638.24"/>
</g>
<!-- Node25 -->
<g id="node25" class="node">
<title>Node25</title>
<g id="a_node25"><a xlink:href="backends_2OpenCL_2detail_2utility_8hpp.html" target="_top" xlink:title="Utility functions specific to the OpenCL backend.">
<polygon fill="white" stroke="black" points="2032,-581.5 2032,-611.5 2171,-611.5 2171,-581.5 2032,-581.5"/>
<text text-anchor="start" x="2040" y="-599.5" font-family="Helvetica,sans-Serif" font-size="10.00">include/plssvm/backends</text>
<text text-anchor="middle" x="2101.5" y="-588.5" font-family="Helvetica,sans-Serif" font-size="10.00">/OpenCL/detail/utility.hpp</text>
</a>
</g>
</g>
<!-- Node24&#45;&gt;Node25 -->
<g id="edge36" class="edge">
<title>Node24&#45;&gt;Node25</title>
<path fill="none" stroke="midnightblue" d="M1890.28,-646.19C1936.46,-635.54 1996.14,-621.78 2040.28,-611.61"/>
<polygon fill="midnightblue" stroke="midnightblue" points="1889.3,-642.82 1880.34,-648.48 1890.87,-649.64 1889.3,-642.82"/>
</g>
<!-- Node26 -->
<g id="node26" class="node">
<title>Node26</title>
<g id="a_node26"><a xlink:href="parameter_8hpp.html" target="_top" xlink:title="Implements the parameter class encapsulating all important C&#45;SVM parameters.">
<polygon fill="white" stroke="black" points="1849.5,-587 1849.5,-606 2013.5,-606 2013.5,-587 1849.5,-587"/>
<text text-anchor="middle" x="1931.5" y="-594" font-family="Helvetica,sans-Serif" font-size="10.00">include/plssvm/parameter.hpp</text>
</a>
</g>
</g>
<!-- Node24&#45;&gt;Node26 -->
<g id="edge39" class="edge">
<title>Node24&#45;&gt;Node26</title>
<path fill="none" stroke="midnightblue" d="M1852.57,-643.31C1873.91,-630.93 1900.61,-615.43 1916.84,-606.01"/>
<polygon fill="midnightblue" stroke="midnightblue" points="1850.69,-640.35 1843.8,-648.4 1854.21,-646.4 1850.69,-640.35"/>
</g>
<!-- Node26&#45;&gt;Node7 -->
<g id="edge47" class="edge">
<title>Node26&#45;&gt;Node7</title>
<path fill="none" stroke="midnightblue" d="M1931.96,-576.72C1932.55,-551.12 1933.5,-503.85 1933.5,-463.5 1933.5,-463.5 1933.5,-463.5 1933.5,-327.5 1933.5,-179.07 1859.58,-128.54 1724.5,-67 1665.74,-40.23 1236.82,-23.95 1068.26,-18.53"/>
<polygon fill="midnightblue" stroke="midnightblue" points="1928.46,-576.77 1931.72,-586.85 1935.46,-576.94 1928.46,-576.77"/>
</g>
<!-- Node26&#45;&gt;Node8 -->
<g id="edge48" class="edge">
<title>Node26&#45;&gt;Node8</title>
<path fill="none" stroke="midnightblue" d="M1912.09,-580.07C1901.69,-570.88 1889.42,-558.41 1881.5,-545 1862.3,-512.49 1857.5,-501.26 1857.5,-463.5 1857.5,-463.5 1857.5,-463.5 1857.5,-327.5 1857.5,-260.46 1851.92,-226.2 1795.5,-190 1763.54,-169.49 1665.78,-156.98 1597.62,-150.52"/>
<polygon fill="midnightblue" stroke="midnightblue" points="1910.02,-582.9 1919.91,-586.69 1914.54,-577.56 1910.02,-582.9"/>
</g>
<!-- Node26&#45;&gt;Node9 -->
<g id="edge41" class="edge">
<title>Node26&#45;&gt;Node9</title>
<path fill="none" stroke="midnightblue" d="M1952.16,-580.63C1963.48,-571.51 1976.91,-558.93 1985.5,-545 2005.32,-512.86 2009.5,-501.26 2009.5,-463.5 2009.5,-463.5 2009.5,-463.5 2009.5,-199 2009.5,-158.55 1980.17,-118.2 1962.52,-97.58"/>
<polygon fill="midnightblue" stroke="midnightblue" points="1949.82,-578.02 1944.04,-586.9 1954.09,-583.56 1949.82,-578.02"/>
</g>
<!-- Node26&#45;&gt;Node10 -->
<g id="edge40" class="edge">
<title>Node26&#45;&gt;Node10</title>
<path fill="none" stroke="midnightblue" d="M1958.59,-582.17C1974.41,-573.34 1993.87,-560.53 2007.5,-545 2034.11,-514.67 2047.5,-503.85 2047.5,-463.5 2047.5,-463.5 2047.5,-463.5 2047.5,-143 2047.5,-108.18 2051.53,-93.12 2028.5,-67 2012.89,-49.29 1990.31,-37.75 1968.34,-30.24"/>
<polygon fill="midnightblue" stroke="midnightblue" points="1956.93,-579.09 1949.77,-586.91 1960.23,-585.26 1956.93,-579.09"/>
</g>
<!-- Node26&#45;&gt;Node11 -->
<g id="edge42" class="edge">
<title>Node26&#45;&gt;Node11</title>
<path fill="none" stroke="midnightblue" d="M1966.8,-583.21C2012.26,-564.87 2085.5,-525.67 2085.5,-463.5 2085.5,-463.5 2085.5,-463.5 2085.5,-143 2085.5,-101.24 2069.83,-53.78 2061.14,-30.66"/>
<polygon fill="midnightblue" stroke="midnightblue" points="1965.33,-580.03 1957.28,-586.91 1967.86,-586.55 1965.33,-580.03"/>
</g>
<!-- Node26&#45;&gt;Node12 -->
<g id="edge43" class="edge">
<title>Node26&#45;&gt;Node12</title>
<path fill="none" stroke="midnightblue" d="M1970.13,-583.92C2040.53,-561.66 2182.5,-510.9 2182.5,-463.5 2182.5,-463.5 2182.5,-463.5 2182.5,-143 2182.5,-101.24 2198.17,-53.78 2206.86,-30.66"/>
<polygon fill="midnightblue" stroke="midnightblue" points="1968.79,-580.67 1960.29,-587 1970.88,-587.36 1968.79,-580.67"/>
</g>
<!-- Node26&#45;&gt;Node13 -->
<g id="edge45" class="edge">
<title>Node26&#45;&gt;Node13</title>
<path fill="none" stroke="midnightblue" d="M1993.21,-585.16C2093.18,-566.65 2279.5,-524.02 2279.5,-463.5 2279.5,-463.5 2279.5,-463.5 2279.5,-143 2279.5,-94.75 2323.5,-52.13 2349.97,-30.85"/>
<polygon fill="midnightblue" stroke="midnightblue" points="1992.43,-581.75 1983.22,-586.98 1993.69,-588.63 1992.43,-581.75"/>
</g>
<!-- Node26&#45;&gt;Node14 -->
<g id="edge46" class="edge">
<title>Node26&#45;&gt;Node14</title>
<path fill="none" stroke="midnightblue" d="M1940.63,-577.55C1952.43,-552.63 1971.5,-505.82 1971.5,-463.5 1971.5,-463.5 1971.5,-463.5 1971.5,-327.5 1971.5,-195.21 1923.79,-157.71 1827.5,-67 1811.49,-51.92 1790.2,-39.38 1772.81,-30.56"/>
<polygon fill="midnightblue" stroke="midnightblue" points="1937.34,-576.29 1936.09,-586.81 1943.63,-579.37 1937.34,-576.29"/>
</g>
<!-- Node26&#45;&gt;Node15 -->
<g id="edge44" class="edge">
<title>Node26&#45;&gt;Node15</title>
<path fill="none" stroke="midnightblue" d="M1923.29,-577.45C1912.66,-552.42 1895.5,-505.48 1895.5,-463.5 1895.5,-463.5 1895.5,-463.5 1895.5,-327.5 1895.5,-208.33 1748.21,-128.34 1679.74,-97.6"/>
<polygon fill="midnightblue" stroke="midnightblue" points="1920.15,-579.01 1927.37,-586.76 1926.56,-576.2 1920.15,-579.01"/>
</g>
<!-- Node26&#45;&gt;Node19 -->
<g id="edge65" class="edge">
<title>Node26&#45;&gt;Node19</title>
<path fill="none" stroke="midnightblue" d="M1839.27,-591.9C1689.5,-585.37 1406.16,-569.89 1367.5,-545 1272.8,-484.02 1265.29,-324.83 1265.26,-276.57"/>
<polygon fill="midnightblue" stroke="midnightblue" points="1839.24,-595.4 1849.38,-592.34 1839.54,-588.41 1839.24,-595.4"/>
</g>
<!-- Node26&#45;&gt;Node20 -->
<g id="edge66" class="edge">
<title>Node26&#45;&gt;Node20</title>
<path fill="none" stroke="midnightblue" d="M1838.83,-594.81C1726.74,-592.3 1546.23,-582.36 1491.5,-545 1371.07,-462.8 1414.94,-379.58 1356.5,-246 1350.85,-233.09 1343.54,-218.5 1338.94,-209.53"/>
<polygon fill="midnightblue" stroke="midnightblue" points="1839.05,-598.32 1849.12,-595.03 1839.2,-591.32 1839.05,-598.32"/>
</g>
<!-- Node27 -->
<g id="node27" class="node">
<title>Node27</title>
<g id="a_node27"><a xlink:href="parser__train_8hpp.html" target="_top" xlink:title="Implements a class encapsulating all necessary parameters for training the C&#45;SVM possibly provided th...">
<polygon fill="white" stroke="black" points="1500,-514.5 1500,-544.5 1623,-544.5 1623,-514.5 1500,-514.5"/>
<text text-anchor="start" x="1508" y="-532.5" font-family="Helvetica,sans-Serif" font-size="10.00">include/plssvm/detail</text>
<text text-anchor="middle" x="1561.5" y="-521.5" font-family="Helvetica,sans-Serif" font-size="10.00">/cmd/parser_train.hpp</text>
</a>
</g>
</g>
<!-- Node26&#45;&gt;Node27 -->
<g id="edge49" class="edge">
<title>Node26&#45;&gt;Node27</title>
<path fill="none" stroke="midnightblue" d="M1872.61,-585.15C1804.44,-573.18 1692.7,-553.55 1623.32,-541.36"/>
<polygon fill="midnightblue" stroke="midnightblue" points="1872.29,-588.65 1882.75,-586.94 1873.5,-581.76 1872.29,-588.65"/>
</g>
<!-- Node27&#45;&gt;Node18 -->
<g id="edge50" class="edge">
<title>Node27&#45;&gt;Node18</title>
<path fill="none" stroke="midnightblue" d="M1527.74,-509.47C1437.72,-458.74 1193.45,-321.08 1114.48,-276.58"/>
<polygon fill="midnightblue" stroke="midnightblue" points="1526.03,-512.53 1536.46,-514.39 1529.46,-506.43 1526.03,-512.53"/>
</g>
<!-- Node28 -->
<g id="node28" class="node">
<title>Node28</title>
<g id="a_node28"><a xlink:href="performance__tracker_8hpp.html" target="_top" xlink:title="Defines a performance tracker which can dump performance information in a YAML file.">
<polygon fill="white" stroke="black" points="1491,-447.5 1491,-477.5 1632,-477.5 1632,-447.5 1491,-447.5"/>
<text text-anchor="start" x="1499" y="-465.5" font-family="Helvetica,sans-Serif" font-size="10.00">include/plssvm/detail</text>
<text text-anchor="middle" x="1561.5" y="-454.5" font-family="Helvetica,sans-Serif" font-size="10.00">/performance_tracker.hpp</text>
</a>
</g>
</g>
<!-- Node27&#45;&gt;Node28 -->
<g id="edge51" class="edge">
<title>Node27&#45;&gt;Node28</title>
<path fill="none" stroke="midnightblue" d="M1561.5,-504.11C1561.5,-495.15 1561.5,-485.32 1561.5,-477.58"/>
<polygon fill="midnightblue" stroke="midnightblue" points="1558,-504.4 1561.5,-514.4 1565,-504.4 1558,-504.4"/>
</g>
<!-- Node28&#45;&gt;Node8 -->
<g id="edge53" class="edge">
<title>Node28&#45;&gt;Node8</title>
<path fill="none" stroke="midnightblue" d="M1573.66,-438.33C1586.07,-412.51 1603.5,-369.16 1603.5,-329.5 1603.5,-329.5 1603.5,-329.5 1603.5,-260.5 1603.5,-213.69 1559.4,-171.18 1538.39,-153.58"/>
<polygon fill="midnightblue" stroke="midnightblue" points="1570.51,-436.81 1569.2,-447.32 1576.78,-439.92 1570.51,-436.81"/>
</g>
<!-- Node28&#45;&gt;Node9 -->
<g id="edge52" class="edge">
<title>Node28&#45;&gt;Node9</title>
<path fill="none" stroke="midnightblue" d="M1601.65,-443.02C1644.12,-422.38 1711.86,-386.25 1762.5,-344 1847.93,-272.72 1870.35,-250.63 1925.5,-154 1935.88,-135.81 1942.73,-112.41 1946.37,-97.68"/>
<polygon fill="midnightblue" stroke="midnightblue" points="1599.97,-439.95 1592.47,-447.43 1603,-446.26 1599.97,-439.95"/>
</g>
<!-- Node28&#45;&gt;Node17 -->
<g id="edge54" class="edge">
<title>Node28&#45;&gt;Node17</title>
<path fill="none" stroke="midnightblue" d="M1501.8,-444.8C1407.91,-418.55 1227.44,-368.08 1139.76,-343.56"/>
<polygon fill="midnightblue" stroke="midnightblue" points="1500.86,-448.18 1511.43,-447.5 1502.75,-441.43 1500.86,-448.18"/>
</g>
<!-- Node28&#45;&gt;Node20 -->
<g id="edge64" class="edge">
<title>Node28&#45;&gt;Node20</title>
<path fill="none" stroke="midnightblue" d="M1495.47,-443.76C1477.3,-436.17 1458.92,-425.59 1445.5,-411 1393.07,-354.01 1433.62,-309.65 1389.5,-246 1378.82,-230.59 1361.43,-217.61 1349.07,-209.62"/>
<polygon fill="midnightblue" stroke="midnightblue" points="1494.34,-447.07 1504.93,-447.45 1496.89,-440.55 1494.34,-447.07"/>
</g>
<!-- Node29 -->
<g id="node29" class="node">
<title>Node29</title>
<g id="a_node29"><a xlink:href="layout_8hpp.html" target="_top" xlink:title="Defines functions to convert 2D vectors to 1D SoA or AoS vectors.">
<polygon fill="white" stroke="black" points="1632,-313.5 1632,-343.5 1753,-343.5 1753,-313.5 1632,-313.5"/>
<text text-anchor="start" x="1640" y="-331.5" font-family="Helvetica,sans-Serif" font-size="10.00">include/plssvm/detail</text>
<text text-anchor="middle" x="1692.5" y="-320.5" font-family="Helvetica,sans-Serif" font-size="10.00">/layout.hpp</text>
</a>
</g>
</g>
<!-- Node28&#45;&gt;Node29 -->
<g id="edge55" class="edge">
<title>Node28&#45;&gt;Node29</title>
<path fill="none" stroke="midnightblue" d="M1585.69,-440.57C1595.72,-431.66 1607.37,-421.03 1617.5,-411 1640.46,-388.27 1665.58,-360.28 1680.14,-343.71"/>
<polygon fill="midnightblue" stroke="midnightblue" points="1583.23,-438.07 1578.04,-447.3 1587.86,-443.32 1583.23,-438.07"/>
</g>
<!-- Node30 -->
<g id="node30" class="node">
<title>Node30</title>
<g id="a_node30"><a xlink:href="logger_8hpp.html" target="_top" xlink:title="Defines a simple logging function.">
<polygon fill="white" stroke="black" points="1454,-380.5 1454,-410.5 1575,-410.5 1575,-380.5 1454,-380.5"/>
<text text-anchor="start" x="1462" y="-398.5" font-family="Helvetica,sans-Serif" font-size="10.00">include/plssvm/detail</text>
<text text-anchor="middle" x="1514.5" y="-387.5" font-family="Helvetica,sans-Serif" font-size="10.00">/logger.hpp</text>
</a>
</g>
</g>
<!-- Node28&#45;&gt;Node30 -->
<g id="edge57" class="edge">
<title>Node28&#45;&gt;Node30</title>
<path fill="none" stroke="midnightblue" d="M1545.34,-439.16C1538.49,-429.68 1530.71,-418.92 1524.68,-410.58"/>
<polygon fill="midnightblue" stroke="midnightblue" points="1542.61,-441.34 1551.3,-447.4 1548.28,-437.24 1542.61,-441.34"/>
</g>
<!-- Node29&#45;&gt;Node9 -->
<g id="edge56" class="edge">
<title>Node29&#45;&gt;Node9</title>
<path fill="none" stroke="midnightblue" d="M1710.33,-305.47C1724.8,-288.28 1746.21,-264.33 1767.5,-246 1822.8,-198.39 1852.33,-206.03 1903.5,-154 1920.31,-136.91 1934.46,-112.78 1942.46,-97.65"/>
<polygon fill="midnightblue" stroke="midnightblue" points="1707.52,-303.38 1703.82,-313.31 1712.9,-307.85 1707.52,-303.38"/>
</g>
<!-- Node30&#45;&gt;Node8 -->
<g id="edge59" class="edge">
<title>Node30&#45;&gt;Node8</title>
<path fill="none" stroke="midnightblue" d="M1515.76,-370.36C1518.56,-316.56 1525.22,-188.81 1527.03,-153.93"/>
<polygon fill="midnightblue" stroke="midnightblue" points="1512.26,-370.2 1515.24,-380.37 1519.25,-370.57 1512.26,-370.2"/>
</g>
<!-- Node30&#45;&gt;Node9 -->
<g id="edge58" class="edge">
<title>Node30&#45;&gt;Node9</title>
<path fill="none" stroke="midnightblue" d="M1534.39,-373.05C1550.8,-355.9 1575.11,-331.71 1598.5,-313 1713.35,-221.13 1865.49,-131.35 1924.57,-97.56"/>
<polygon fill="midnightblue" stroke="midnightblue" points="1531.77,-370.72 1527.44,-380.39 1536.86,-375.54 1531.77,-370.72"/>
</g>
<!-- Node30&#45;&gt;Node17 -->
<g id="edge60" class="edge">
<title>Node30&#45;&gt;Node17</title>
<path fill="none" stroke="midnightblue" d="M1443.49,-383.64C1360.32,-370.92 1224.17,-350.1 1147.21,-338.33"/>
<polygon fill="midnightblue" stroke="midnightblue" points="1443.19,-387.13 1453.61,-385.19 1444.25,-380.22 1443.19,-387.13"/>
</g>
<!-- Node30&#45;&gt;Node19 -->
<g id="edge61" class="edge">
<title>Node30&#45;&gt;Node19</title>
<path fill="none" stroke="midnightblue" d="M1478.91,-375.63C1428.37,-348.84 1336.94,-300.37 1291.96,-276.52"/>
<polygon fill="midnightblue" stroke="midnightblue" points="1477.38,-378.78 1487.85,-380.37 1480.66,-372.6 1477.38,-378.78"/>
</g>
<!-- Node30&#45;&gt;Node20 -->
<g id="edge63" class="edge">
<title>Node30&#45;&gt;Node20</title>
<path fill="none" stroke="midnightblue" d="M1505.83,-370.98C1493.02,-339.05 1466.32,-281.86 1427.5,-246 1408.79,-228.72 1382.22,-216.76 1362.27,-209.54"/>
<polygon fill="midnightblue" stroke="midnightblue" points="1502.6,-372.35 1509.49,-380.4 1509.13,-369.81 1502.6,-372.35"/>
</g>
<!-- Node30&#45;&gt;Node29 -->
<g id="edge62" class="edge">
<title>Node30&#45;&gt;Node29</title>
<path fill="none" stroke="midnightblue" d="M1562.55,-376.96C1591.22,-366.48 1627.14,-353.37 1653.95,-343.58"/>
<polygon fill="midnightblue" stroke="midnightblue" points="1561.32,-373.68 1553.12,-380.4 1563.72,-380.25 1561.32,-373.68"/>
</g>
</g>
</svg>
