<?xml version="1.0" encoding="UTF-8" standalone="no"?>
<!DOCTYPE svg PUBLIC "-//W3C//DTD SVG 1.1//EN"
 "http://www.w3.org/Graphics/SVG/1.1/DTD/svg11.dtd">
<!-- Generated by graphviz version 2.43.0 (0)
 -->
<!-- Title: include/plssvm/file_format_types.hpp Pages: 1 -->
<!--zoomable 620 -->
<svg id="main" version="1.1" xmlns="http://www.w3.org/2000/svg" xmlns:xlink="http://www.w3.org/1999/xlink" xml:space="preserve" onload="init(evt)">
<style type="text/css"><![CDATA[
.edge:hover path { stroke: red; }
.edge:hover polygon { stroke: red; fill: red; }
]]></style>
<script type="text/javascript"><![CDATA[
var edges = document.getElementsByTagName('g');
if (edges && edges.length) {
  for (var i=0;i<edges.length;i++) {
    if (edges[i].id.substr(0,4)=='edge') {
      edges[i].setAttribute('class','edge');
    }
  }
}
]]></script>
        <defs>
                <circle id="rim" cx="0" cy="0" r="7"/>
                <circle id="rim2" cx="0" cy="0" r="3.5"/>
                <g id="zoomPlus">
                        <use xlink:href="#rim" fill="#404040">
                                <set attributeName="fill" to="#808080" begin="zoomplus.mouseover" end="zoomplus.mouseout"/>
                        </use>
                        <path d="M-4,0h8M0,-4v8" fill="none" stroke="white" stroke-width="1.5" pointer-events="none"/>
                </g>
                <g id="zoomMin">
                        <use xlink:href="#rim" fill="#404040">
                                <set attributeName="fill" to="#808080" begin="zoomminus.mouseover" end="zoomminus.mouseout"/>
                        </use>
                        <path d="M-4,0h8" fill="none" stroke="white" stroke-width="1.5" pointer-events="none"/>
                </g>
                <g id="dirArrow">
                        <path fill="none" stroke="white" stroke-width="1.5" d="M0,-3.0v7 M-2.5,-0.5L0,-3.0L2.5,-0.5"/>
                </g>
               <g id="resetDef">
                       <use xlink:href="#rim2" fill="#404040">
                               <set attributeName="fill" to="#808080" begin="reset.mouseover" end="reset.mouseout"/>
                       </use>
               </g>
        </defs>

<script type="text/javascript">
var viewWidth = 1121;
var viewHeight = 620;
var sectionId = 'dynsection-0';
</script>
<script xlink:href="svgpan.js"/>
<svg id="graph" class="graph">
<g id="viewport">
<title>include/plssvm/file_format_types.hpp</title>
<polygon fill="white" stroke="transparent" points="-4,4 -4,-616 1116.5,-616 1116.5,4 -4,4"/>
<!-- Node1 -->
<g id="node1" class="node">
<title>Node1</title>
<g id="a_node1"><a xlink:title="Defines an enumeration holding all supported file formats.">
<polygon fill="#bfbfbf" stroke="black" points="156,-581.5 156,-611.5 264,-611.5 264,-581.5 156,-581.5"/>
<text text-anchor="start" x="164" y="-599.5" font-family="Helvetica,sans-Serif" font-size="10.00">include/plssvm/file</text>
<text text-anchor="middle" x="210" y="-588.5" font-family="Helvetica,sans-Serif" font-size="10.00">_format_types.hpp</text>
</a>
</g>
</g>
<!-- Node2 -->
<g id="node2" class="node">
<title>Node2</title>
<g id="a_node2"><a xlink:href="data__set_8hpp.html" target="_top" xlink:title="Implements a data set class encapsulating all data points, features, and potential labels.">
<polygon fill="white" stroke="black" points="198.5,-313.5 198.5,-343.5 313.5,-343.5 313.5,-313.5 198.5,-313.5"/>
<text text-anchor="start" x="206.5" y="-331.5" font-family="Helvetica,sans-Serif" font-size="10.00">include/plssvm/data</text>
<text text-anchor="middle" x="256" y="-320.5" font-family="Helvetica,sans-Serif" font-size="10.00">_set.hpp</text>
</a>
</g>
</g>
<!-- Node1&#45;&gt;Node2 -->
<g id="edge1" class="edge">
<title>Node1&#45;&gt;Node2</title>
<path fill="none" stroke="midnightblue" d="M224.87,-572.41C229.53,-564.09 234.2,-554.42 237,-545 258.82,-471.75 257.95,-378.78 256.68,-343.73"/>
<polygon fill="midnightblue" stroke="midnightblue" points="221.77,-570.77 219.69,-581.16 227.8,-574.33 221.77,-570.77"/>
</g>
<!-- Node16 -->
<g id="node16" class="node">
<title>Node16</title>
<g id="a_node16"><a xlink:href="parser__scale_8hpp.html" target="_top" xlink:title="Implements a class encapsulating all necessary parameters for scaling a data set possibly provided th...">
<polygon fill="white" stroke="black" points="102,-514.5 102,-544.5 228,-544.5 228,-514.5 102,-514.5"/>
<text text-anchor="start" x="110" y="-532.5" font-family="Helvetica,sans-Serif" font-size="10.00">include/plssvm/detail</text>
<text text-anchor="middle" x="165" y="-521.5" font-family="Helvetica,sans-Serif" font-size="10.00">/cmd/parser_scale.hpp</text>
</a>
</g>
</g>
<!-- Node1&#45;&gt;Node16 -->
<g id="edge20" class="edge">
<title>Node1&#45;&gt;Node16</title>
<path fill="none" stroke="midnightblue" d="M194.53,-573.16C187.97,-563.68 180.52,-552.92 174.75,-544.58"/>
<polygon fill="midnightblue" stroke="midnightblue" points="191.67,-575.17 200.24,-581.4 197.42,-571.18 191.67,-575.17"/>
</g>
<!-- Node3 -->
<g id="node3" class="node">
<title>Node3</title>
<g id="a_node3"><a xlink:href="core_8hpp.html" target="_top" xlink:title="Core header including all other necessary headers.">
<polygon fill="white" stroke="black" points="192.5,-6 192.5,-25 327.5,-25 327.5,-6 192.5,-6"/>
<text text-anchor="middle" x="260" y="-13" font-family="Helvetica,sans-Serif" font-size="10.00">include/plssvm/core.hpp</text>
</a>
</g>
</g>
<!-- Node2&#45;&gt;Node3 -->
<g id="edge2" class="edge">
<title>Node2&#45;&gt;Node3</title>
<path fill="none" stroke="midnightblue" d="M233.04,-305.91C210.67,-282.44 180,-242.66 180,-201 180,-201 180,-201 180,-143 180,-91.55 227.86,-44.01 249.54,-25.11"/>
<polygon fill="midnightblue" stroke="midnightblue" points="230.74,-308.57 240.25,-313.23 235.72,-303.65 230.74,-308.57"/>
</g>
<!-- Node4 -->
<g id="node4" class="node">
<title>Node4</title>
<g id="a_node4"><a xlink:href="csvm_8hpp.html" target="_top" xlink:title="Defines the base class for all C&#45;SVM backends and implements the functionality shared by all of them.">
<polygon fill="white" stroke="black" points="437,-134.5 437,-153.5 577,-153.5 577,-134.5 437,-134.5"/>
<text text-anchor="middle" x="507" y="-141.5" font-family="Helvetica,sans-Serif" font-size="10.00">include/plssvm/csvm.hpp</text>
</a>
</g>
</g>
<!-- Node2&#45;&gt;Node4 -->
<g id="edge3" class="edge">
<title>Node2&#45;&gt;Node4</title>
<path fill="none" stroke="midnightblue" d="M250.61,-303.23C248.11,-286.32 247.33,-263.73 256,-246 273.81,-209.58 291.56,-207.77 328,-190 365.73,-171.6 411.72,-160.25 447.63,-153.55"/>
<polygon fill="midnightblue" stroke="midnightblue" points="247.22,-304.17 252.42,-313.4 254.11,-302.94 247.22,-304.17"/>
</g>
<!-- Node13 -->
<g id="node13" class="node">
<title>Node13</title>
<g id="a_node13"><a xlink:href="data__set__variants_8hpp.html" target="_top" xlink:title="Implements utility functions to create a data set based on runtime parameters.">
<polygon fill="white" stroke="black" points="0,-246.5 0,-276.5 152,-276.5 152,-246.5 0,-246.5"/>
<text text-anchor="start" x="8" y="-264.5" font-family="Helvetica,sans-Serif" font-size="10.00">include/plssvm/detail</text>
<text text-anchor="middle" x="76" y="-253.5" font-family="Helvetica,sans-Serif" font-size="10.00">/cmd/data_set_variants.hpp</text>
</a>
</g>
</g>
<!-- Node2&#45;&gt;Node13 -->
<g id="edge14" class="edge">
<title>Node2&#45;&gt;Node13</title>
<path fill="none" stroke="midnightblue" d="M207.41,-309.96C178.42,-299.48 142.09,-286.37 114.98,-276.58"/>
<polygon fill="midnightblue" stroke="midnightblue" points="206.35,-313.29 216.94,-313.4 208.73,-306.71 206.35,-313.29"/>
</g>
<!-- Node14 -->
<g id="node14" class="node">
<title>Node14</title>
<g id="a_node14"><a xlink:href="libsvm__model__parsing_8hpp.html" target="_top" xlink:title="Implements parsing functions for the LIBSVM model file.">
<polygon fill="white" stroke="black" points="284.5,-246.5 284.5,-276.5 447.5,-276.5 447.5,-246.5 284.5,-246.5"/>
<text text-anchor="start" x="292.5" y="-264.5" font-family="Helvetica,sans-Serif" font-size="10.00">include/plssvm/detail</text>
<text text-anchor="middle" x="366" y="-253.5" font-family="Helvetica,sans-Serif" font-size="10.00">/io/libsvm_model_parsing.hpp</text>
</a>
</g>
</g>
<!-- Node2&#45;&gt;Node14 -->
<g id="edge15" class="edge">
<title>Node2&#45;&gt;Node14</title>
<path fill="none" stroke="midnightblue" d="M288.5,-308.3C305.71,-298.12 326.48,-285.85 342.18,-276.58"/>
<polygon fill="midnightblue" stroke="midnightblue" points="286.7,-305.3 279.87,-313.4 290.26,-311.32 286.7,-305.3"/>
</g>
<!-- Node15 -->
<g id="node15" class="node">
<title>Node15</title>
<g id="a_node15"><a xlink:href="model_8hpp.html" target="_top" xlink:title="Implements a model class encapsulating the results of a SVM fit call.">
<polygon fill="white" stroke="black" points="336.5,-190.5 336.5,-209.5 481.5,-209.5 481.5,-190.5 336.5,-190.5"/>
<text text-anchor="middle" x="409" y="-197.5" font-family="Helvetica,sans-Serif" font-size="10.00">include/plssvm/model.hpp</text>
</a>
</g>
</g>
<!-- Node2&#45;&gt;Node15 -->
<g id="edge19" class="edge">
<title>Node2&#45;&gt;Node15</title>
<path fill="none" stroke="midnightblue" d="M255.99,-303.2C257.26,-285.29 261.82,-261.45 276,-246 293.55,-226.87 319.52,-215.87 343.86,-209.55"/>
<polygon fill="midnightblue" stroke="midnightblue" points="252.49,-303.07 255.57,-313.21 259.49,-303.37 252.49,-303.07"/>
</g>
<!-- Node4&#45;&gt;Node3 -->
<g id="edge11" class="edge">
<title>Node4&#45;&gt;Node3</title>
<path fill="none" stroke="midnightblue" d="M538.84,-129.94C552.24,-122.67 566.45,-112.17 574,-98 580.48,-85.84 582.98,-77.45 574,-67 539.28,-26.6 389.52,-39.93 337,-31 326.27,-29.18 314.73,-27.08 303.93,-25.05"/>
<polygon fill="midnightblue" stroke="midnightblue" points="537.17,-126.87 529.79,-134.47 540.3,-133.13 537.17,-126.87"/>
</g>
<!-- Node5 -->
<g id="node5" class="node">
<title>Node5</title>
<g id="a_node5"><a xlink:href="gpu__csvm_8hpp.html" target="_top" xlink:title="Defines the base class for all C&#45;SVM backends using a GPU. Used for code duplication reduction.">
<polygon fill="white" stroke="black" points="647.5,-67.5 647.5,-97.5 786.5,-97.5 786.5,-67.5 647.5,-67.5"/>
<text text-anchor="start" x="655.5" y="-85.5" font-family="Helvetica,sans-Serif" font-size="10.00">include/plssvm/backends</text>
<text text-anchor="middle" x="717" y="-74.5" font-family="Helvetica,sans-Serif" font-size="10.00">/gpu_csvm.hpp</text>
</a>
</g>
</g>
<!-- Node4&#45;&gt;Node5 -->
<g id="edge4" class="edge">
<title>Node4&#45;&gt;Node5</title>
<path fill="none" stroke="midnightblue" d="M546.76,-131.73C581.03,-122.02 630.67,-107.96 667.51,-97.52"/>
<polygon fill="midnightblue" stroke="midnightblue" points="545.76,-128.38 537.09,-134.48 547.66,-135.12 545.76,-128.38"/>
</g>
<!-- Node11 -->
<g id="node11" class="node">
<title>Node11</title>
<g id="a_node11"><a xlink:href="backends_2OpenMP_2csvm_8hpp.html" target="_top" xlink:title="Defines a C&#45;SVM using the OpenMP backend.">
<polygon fill="white" stroke="black" points="425.5,-67.5 425.5,-97.5 564.5,-97.5 564.5,-67.5 425.5,-67.5"/>
<text text-anchor="start" x="433.5" y="-85.5" font-family="Helvetica,sans-Serif" font-size="10.00">include/plssvm/backends</text>
<text text-anchor="middle" x="495" y="-74.5" font-family="Helvetica,sans-Serif" font-size="10.00">/OpenMP/csvm.hpp</text>
</a>
</g>
</g>
<!-- Node4&#45;&gt;Node11 -->
<g id="edge10" class="edge">
<title>Node4&#45;&gt;Node11</title>
<path fill="none" stroke="midnightblue" d="M503.27,-124.53C501.52,-115.81 499.45,-105.59 497.83,-97.52"/>
<polygon fill="midnightblue" stroke="midnightblue" points="499.87,-125.36 505.28,-134.48 506.73,-123.98 499.87,-125.36"/>
</g>
<!-- Node12 -->
<g id="node12" class="node">
<title>Node12</title>
<g id="a_node12"><a xlink:href="csvm__factory_8hpp.html" target="_top" xlink:title="Factory function for constructing a new C&#45;SVM based on the provided plssvm::backend_type and potentia...">
<polygon fill="white" stroke="black" points="288.5,-67.5 288.5,-97.5 407.5,-97.5 407.5,-67.5 288.5,-67.5"/>
<text text-anchor="start" x="296.5" y="-85.5" font-family="Helvetica,sans-Serif" font-size="10.00">include/plssvm/csvm</text>
<text text-anchor="middle" x="348" y="-74.5" font-family="Helvetica,sans-Serif" font-size="10.00">_factory.hpp</text>
</a>
</g>
</g>
<!-- Node4&#45;&gt;Node12 -->
<g id="edge12" class="edge">
<title>Node4&#45;&gt;Node12</title>
<path fill="none" stroke="midnightblue" d="M474.53,-130.85C448.7,-121.18 412.53,-107.65 385.47,-97.52"/>
<polygon fill="midnightblue" stroke="midnightblue" points="473.63,-134.25 484.22,-134.48 476.08,-127.69 473.63,-134.25"/>
</g>
<!-- Node6 -->
<g id="node6" class="node">
<title>Node6</title>
<g id="a_node6"><a xlink:href="backends_2CUDA_2csvm_8hpp.html" target="_top" xlink:title="Defines a C&#45;SVM using the CUDA backend.">
<polygon fill="white" stroke="black" points="973.5,-0.5 973.5,-30.5 1112.5,-30.5 1112.5,-0.5 973.5,-0.5"/>
<text text-anchor="start" x="981.5" y="-18.5" font-family="Helvetica,sans-Serif" font-size="10.00">include/plssvm/backends</text>
<text text-anchor="middle" x="1043" y="-7.5" font-family="Helvetica,sans-Serif" font-size="10.00">/CUDA/csvm.hpp</text>
</a>
</g>
</g>
<!-- Node5&#45;&gt;Node6 -->
<g id="edge5" class="edge">
<title>Node5&#45;&gt;Node6</title>
<path fill="none" stroke="midnightblue" d="M796.43,-65.66C850.51,-54.88 921.4,-40.74 973.29,-30.4"/>
<polygon fill="midnightblue" stroke="midnightblue" points="795.66,-62.25 786.54,-67.64 797.03,-69.11 795.66,-62.25"/>
</g>
<!-- Node7 -->
<g id="node7" class="node">
<title>Node7</title>
<g id="a_node7"><a xlink:href="backends_2HIP_2csvm_8hpp.html" target="_top" xlink:title="Defines a C&#45;SVM using the HIP backend.">
<polygon fill="white" stroke="black" points="345.5,-0.5 345.5,-30.5 484.5,-30.5 484.5,-0.5 345.5,-0.5"/>
<text text-anchor="start" x="353.5" y="-18.5" font-family="Helvetica,sans-Serif" font-size="10.00">include/plssvm/backends</text>
<text text-anchor="middle" x="415" y="-7.5" font-family="Helvetica,sans-Serif" font-size="10.00">/HIP/csvm.hpp</text>
</a>
</g>
</g>
<!-- Node5&#45;&gt;Node7 -->
<g id="edge6" class="edge">
<title>Node5&#45;&gt;Node7</title>
<path fill="none" stroke="midnightblue" d="M641.8,-65.32C592.17,-54.63 527.78,-40.77 480.3,-30.55"/>
<polygon fill="midnightblue" stroke="midnightblue" points="641.33,-68.79 651.84,-67.48 642.8,-61.95 641.33,-68.79"/>
</g>
<!-- Node8 -->
<g id="node8" class="node">
<title>Node8</title>
<g id="a_node8"><a xlink:href="backends_2OpenCL_2csvm_8hpp.html" target="_top" xlink:title="Defines a C&#45;SVM using the OpenCL backend.">
<polygon fill="white" stroke="black" points="502.5,-0.5 502.5,-30.5 641.5,-30.5 641.5,-0.5 502.5,-0.5"/>
<text text-anchor="start" x="510.5" y="-18.5" font-family="Helvetica,sans-Serif" font-size="10.00">include/plssvm/backends</text>
<text text-anchor="middle" x="572" y="-7.5" font-family="Helvetica,sans-Serif" font-size="10.00">/OpenCL/csvm.hpp</text>
</a>
</g>
</g>
<!-- Node5&#45;&gt;Node8 -->
<g id="edge7" class="edge">
<title>Node5&#45;&gt;Node8</title>
<path fill="none" stroke="midnightblue" d="M676.33,-63.27C653.24,-52.92 624.76,-40.15 603.4,-30.58"/>
<polygon fill="midnightblue" stroke="midnightblue" points="674.98,-66.5 685.54,-67.4 677.84,-60.11 674.98,-66.5"/>
</g>
<!-- Node9 -->
<g id="node9" class="node">
<title>Node9</title>
<g id="a_node9"><a xlink:href="backends_2SYCL_2hipSYCL_2csvm_8hpp.html" target="_top" xlink:title="Defines a base C&#45;SVM used for the different SYCL backends using hipSYCL as SYCL implementation.">
<polygon fill="white" stroke="black" points="659.5,-0.5 659.5,-30.5 798.5,-30.5 798.5,-0.5 659.5,-0.5"/>
<text text-anchor="start" x="667.5" y="-18.5" font-family="Helvetica,sans-Serif" font-size="10.00">include/plssvm/backends</text>
<text text-anchor="middle" x="729" y="-7.5" font-family="Helvetica,sans-Serif" font-size="10.00">/SYCL/hipSYCL/csvm.hpp</text>
</a>
</g>
</g>
<!-- Node5&#45;&gt;Node9 -->
<g id="edge8" class="edge">
<title>Node5&#45;&gt;Node9</title>
<path fill="none" stroke="midnightblue" d="M721.45,-57.4C723.12,-48.37 724.96,-38.41 726.4,-30.58"/>
<polygon fill="midnightblue" stroke="midnightblue" points="717.98,-56.93 719.6,-67.4 724.86,-58.2 717.98,-56.93"/>
</g>
<!-- Node10 -->
<g id="node10" class="node">
<title>Node10</title>
<g id="a_node10"><a xlink:href="backends_2SYCL_2DPCPP_2csvm_8hpp.html" target="_top" xlink:title="Defines a base C&#45;SVM used for the different SYCL backends using DPC++ as SYCL implementation.">
<polygon fill="white" stroke="black" points="816.5,-0.5 816.5,-30.5 955.5,-30.5 955.5,-0.5 816.5,-0.5"/>
<text text-anchor="start" x="824.5" y="-18.5" font-family="Helvetica,sans-Serif" font-size="10.00">include/plssvm/backends</text>
<text text-anchor="middle" x="886" y="-7.5" font-family="Helvetica,sans-Serif" font-size="10.00">/SYCL/DPCPP/csvm.hpp</text>
</a>
</g>
</g>
<!-- Node5&#45;&gt;Node10 -->
<g id="edge9" class="edge">
<title>Node5&#45;&gt;Node10</title>
<path fill="none" stroke="midnightblue" d="M763.33,-63.68C790.43,-53.26 824.17,-40.28 849.4,-30.58"/>
<polygon fill="midnightblue" stroke="midnightblue" points="761.75,-60.54 753.67,-67.4 764.26,-67.07 761.75,-60.54"/>
</g>
<!-- Node12&#45;&gt;Node3 -->
<g id="edge13" class="edge">
<title>Node12&#45;&gt;Node3</title>
<path fill="none" stroke="midnightblue" d="M320.66,-61.31C304.14,-49.1 283.93,-34.18 271.52,-25.01"/>
<polygon fill="midnightblue" stroke="midnightblue" points="318.78,-64.27 328.91,-67.4 322.94,-58.64 318.78,-64.27"/>
</g>
<!-- Node14&#45;&gt;Node15 -->
<g id="edge16" class="edge">
<title>Node14&#45;&gt;Node15</title>
<path fill="none" stroke="midnightblue" d="M382.19,-238.1C389.35,-228.19 397.36,-217.11 402.74,-209.66"/>
<polygon fill="midnightblue" stroke="midnightblue" points="379.21,-236.24 376.19,-246.4 384.88,-240.34 379.21,-236.24"/>
</g>
<!-- Node15&#45;&gt;Node3 -->
<g id="edge17" class="edge">
<title>Node15&#45;&gt;Node3</title>
<path fill="none" stroke="midnightblue" d="M382.86,-185.58C353.29,-169.03 305.91,-138.1 280,-98 264.9,-74.63 261.2,-40.76 260.29,-25.07"/>
<polygon fill="midnightblue" stroke="midnightblue" points="381.32,-188.73 391.78,-190.44 384.67,-182.59 381.32,-188.73"/>
</g>
<!-- Node15&#45;&gt;Node4 -->
<g id="edge18" class="edge">
<title>Node15&#45;&gt;Node4</title>
<path fill="none" stroke="midnightblue" d="M433.59,-185.45C451.68,-175.48 475.73,-162.23 491.29,-153.65"/>
<polygon fill="midnightblue" stroke="midnightblue" points="431.81,-182.43 424.75,-190.32 435.19,-188.56 431.81,-182.43"/>
</g>
<!-- Node16&#45;&gt;Node13 -->
<g id="edge21" class="edge">
<title>Node16&#45;&gt;Node13</title>
<path fill="none" stroke="midnightblue" d="M156.94,-504.41C138.77,-450.12 95.11,-319.61 80.7,-276.55"/>
<polygon fill="midnightblue" stroke="midnightblue" points="153.72,-505.83 160.21,-514.2 160.36,-503.6 153.72,-505.83"/>
</g>
<!-- Node17 -->
<g id="node17" class="node">
<title>Node17</title>
<g id="a_node17"><a xlink:href="performance__tracker_8hpp.html" target="_top" xlink:title="Defines a performance tracker which can dump performance information in a YAML file.">
<polygon fill="white" stroke="black" points="445.5,-447.5 445.5,-477.5 586.5,-477.5 586.5,-447.5 445.5,-447.5"/>
<text text-anchor="start" x="453.5" y="-465.5" font-family="Helvetica,sans-Serif" font-size="10.00">include/plssvm/detail</text>
<text text-anchor="middle" x="516" y="-454.5" font-family="Helvetica,sans-Serif" font-size="10.00">/performance_tracker.hpp</text>
</a>
</g>
</g>
<!-- Node16&#45;&gt;Node17 -->
<g id="edge22" class="edge">
<title>Node16&#45;&gt;Node17</title>
<path fill="none" stroke="midnightblue" d="M238.07,-514.97C298.91,-503.7 385.01,-487.76 445.2,-476.61"/>
<polygon fill="midnightblue" stroke="midnightblue" points="237.35,-511.54 228.16,-516.8 238.63,-518.42 237.35,-511.54"/>
</g>
<!-- Node17&#45;&gt;Node2 -->
<g id="edge25" class="edge">
<title>Node17&#45;&gt;Node2</title>
<path fill="none" stroke="midnightblue" d="M477.48,-442.87C458.08,-433.43 434.24,-421.72 413,-411 366.94,-387.76 313.72,-359.92 282.57,-343.53"/>
<polygon fill="midnightblue" stroke="midnightblue" points="476.09,-446.09 486.61,-447.31 479.15,-439.79 476.09,-446.09"/>
</g>
<!-- Node17&#45;&gt;Node4 -->
<g id="edge24" class="edge">
<title>Node17&#45;&gt;Node4</title>
<path fill="none" stroke="midnightblue" d="M555.97,-442.12C567.83,-434.23 579.41,-423.88 586,-411 592.28,-398.73 587.83,-393.66 586,-380 574.34,-293.23 568.4,-270.51 534,-190 528.27,-176.59 519.16,-162.37 513.13,-153.58"/>
<polygon fill="midnightblue" stroke="midnightblue" points="554.02,-439.21 547.34,-447.44 557.69,-445.17 554.02,-439.21"/>
</g>
<!-- Node17&#45;&gt;Node5 -->
<g id="edge23" class="edge">
<title>Node17&#45;&gt;Node5</title>
<path fill="none" stroke="midnightblue" d="M596.58,-458.25C682.39,-449.95 806,-421.95 806,-329.5 806,-329.5 806,-329.5 806,-199 806,-154.7 764.41,-116.99 738.09,-97.57"/>
<polygon fill="midnightblue" stroke="midnightblue" points="596.22,-454.76 586.57,-459.14 596.84,-461.74 596.22,-454.76"/>
</g>
<!-- Node17&#45;&gt;Node15 -->
<g id="edge35" class="edge">
<title>Node17&#45;&gt;Node15</title>
<path fill="none" stroke="midnightblue" d="M476.59,-442.01C464.9,-434.11 453.49,-423.78 447,-411 413.76,-345.48 486.21,-313.41 457,-246 450.19,-230.28 434.88,-217.53 423.37,-209.67"/>
<polygon fill="midnightblue" stroke="midnightblue" points="474.76,-444.99 485.09,-447.34 478.48,-439.06 474.76,-444.99"/>
</g>
<!-- Node18 -->
<g id="node18" class="node">
<title>Node18</title>
<g id="a_node18"><a xlink:href="layout_8hpp.html" target="_top" xlink:title="Defines functions to convert 2D vectors to 1D SoA or AoS vectors.">
<polygon fill="white" stroke="black" points="656.5,-313.5 656.5,-343.5 777.5,-343.5 777.5,-313.5 656.5,-313.5"/>
<text text-anchor="start" x="664.5" y="-331.5" font-family="Helvetica,sans-Serif" font-size="10.00">include/plssvm/detail</text>
<text text-anchor="middle" x="717" y="-320.5" font-family="Helvetica,sans-Serif" font-size="10.00">/layout.hpp</text>
</a>
</g>
</g>
<!-- Node17&#45;&gt;Node18 -->
<g id="edge26" class="edge">
<title>Node17&#45;&gt;Node18</title>
<path fill="none" stroke="midnightblue" d="M558.87,-443.27C577.86,-434.49 600.12,-423.23 619,-411 650.76,-390.43 683.82,-360.98 702.27,-343.68"/>
<polygon fill="midnightblue" stroke="midnightblue" points="557.22,-440.17 549.56,-447.49 560.11,-446.55 557.22,-440.17"/>
</g>
<!-- Node19 -->
<g id="node19" class="node">
<title>Node19</title>
<g id="a_node19"><a xlink:href="logger_8hpp.html" target="_top" xlink:title="Defines a simple logging function.">
<polygon fill="white" stroke="black" points="455.5,-380.5 455.5,-410.5 576.5,-410.5 576.5,-380.5 455.5,-380.5"/>
<text text-anchor="start" x="463.5" y="-398.5" font-family="Helvetica,sans-Serif" font-size="10.00">include/plssvm/detail</text>
<text text-anchor="middle" x="516" y="-387.5" font-family="Helvetica,sans-Serif" font-size="10.00">/logger.hpp</text>
</a>
</g>
</g>
<!-- Node17&#45;&gt;Node19 -->
<g id="edge28" class="edge">
<title>Node17&#45;&gt;Node19</title>
<path fill="none" stroke="midnightblue" d="M516,-437.11C516,-428.15 516,-418.32 516,-410.58"/>
<polygon fill="midnightblue" stroke="midnightblue" points="512.5,-437.4 516,-447.4 519.5,-437.4 512.5,-437.4"/>
</g>
<!-- Node18&#45;&gt;Node5 -->
<g id="edge27" class="edge">
<title>Node18&#45;&gt;Node5</title>
<path fill="none" stroke="midnightblue" d="M717,-303.01C717,-252.44 717,-137.85 717,-97.71"/>
<polygon fill="midnightblue" stroke="midnightblue" points="713.5,-303.33 717,-313.33 720.5,-303.33 713.5,-303.33"/>
</g>
<!-- Node19&#45;&gt;Node2 -->
<g id="edge31" class="edge">
<title>Node19&#45;&gt;Node2</title>
<path fill="none" stroke="midnightblue" d="M449.94,-377.98C407.47,-367.37 352.88,-353.72 312.44,-343.61"/>
<polygon fill="midnightblue" stroke="midnightblue" points="449.35,-381.45 459.9,-380.48 451.05,-374.66 449.35,-381.45"/>
</g>
<!-- Node19&#45;&gt;Node4 -->
<g id="edge30" class="edge">
<title>Node19&#45;&gt;Node4</title>
<path fill="none" stroke="midnightblue" d="M524.11,-370.38C526.51,-362.12 528.81,-352.75 530,-344 539.99,-270.6 517.43,-181.58 509.57,-153.74"/>
<polygon fill="midnightblue" stroke="midnightblue" points="520.71,-369.54 521.1,-380.13 527.4,-371.61 520.71,-369.54"/>
</g>
<!-- Node19&#45;&gt;Node5 -->
<g id="edge29" class="edge">
<title>Node19&#45;&gt;Node5</title>
<path fill="none" stroke="midnightblue" d="M548.81,-374.84C581.86,-352.25 628,-311.88 628,-262.5 628,-262.5 628,-262.5 628,-199 628,-154.7 669.59,-116.99 695.91,-97.57"/>
<polygon fill="midnightblue" stroke="midnightblue" points="546.71,-372.02 540.3,-380.46 550.57,-377.86 546.71,-372.02"/>
</g>
<!-- Node19&#45;&gt;Node14 -->
<g id="edge32" class="edge">
<title>Node19&#45;&gt;Node14</title>
<path fill="none" stroke="midnightblue" d="M492.24,-373.59C461.39,-346.44 408.36,-299.78 381.94,-276.52"/>
<polygon fill="midnightblue" stroke="midnightblue" points="490.13,-376.39 499.95,-380.37 494.75,-371.14 490.13,-376.39"/>
</g>
<!-- Node19&#45;&gt;Node15 -->
<g id="edge34" class="edge">
<title>Node19&#45;&gt;Node15</title>
<path fill="none" stroke="midnightblue" d="M517.83,-370.21C518.94,-338.65 516.47,-283.2 490,-246 477.31,-228.17 455.25,-216.59 437.35,-209.64"/>
<polygon fill="midnightblue" stroke="midnightblue" points="514.32,-370.14 517.32,-380.31 521.32,-370.5 514.32,-370.14"/>
</g>
<!-- Node19&#45;&gt;Node18 -->
<g id="edge33" class="edge">
<title>Node19&#45;&gt;Node18</title>
<path fill="none" stroke="midnightblue" d="M569.41,-377.23C601.93,-366.71 642.94,-353.45 673.47,-343.58"/>
<polygon fill="midnightblue" stroke="midnightblue" points="568.05,-373.99 559.61,-380.4 570.21,-380.65 568.05,-373.99"/>
</g>
</g>
</svg>
        <g id="navigator" transform="translate(0 0)" fill="#404254">
                <rect fill="#f2f5e9" fill-opacity="0.5" stroke="#606060" stroke-width=".5" x="0" y="0" width="60" height="60"/>
                <use id="zoomplus" xlink:href="#zoomPlus" x="17" y="9" onmousedown="handleZoom(evt,'in')"/>
                <use id="zoomminus" xlink:href="#zoomMin" x="42" y="9" onmousedown="handleZoom(evt,'out')"/>
                <use id="reset" xlink:href="#resetDef" x="30" y="36" onmousedown="handleReset()"/>
                <g id="arrowUp" xlink:href="#dirArrow" transform="translate(30 24)" onmousedown="handlePan(0,-1)">
                  <use xlink:href="#rim" fill="#404040">
                        <set attributeName="fill" to="#808080" begin="arrowUp.mouseover" end="arrowUp.mouseout"/>
                  </use>
                  <path fill="none" stroke="white" stroke-width="1.5" d="M0,-3.0v7 M-2.5,-0.5L0,-3.0L2.5,-0.5"/>
                </g>
                <g id="arrowRight" xlink:href="#dirArrow" transform="rotate(90) translate(36 -43)" onmousedown="handlePan(1,0)">
                  <use xlink:href="#rim" fill="#404040">
                        <set attributeName="fill" to="#808080" begin="arrowRight.mouseover" end="arrowRight.mouseout"/>
                  </use>
                  <path fill="none" stroke="white" stroke-width="1.5" d="M0,-3.0v7 M-2.5,-0.5L0,-3.0L2.5,-0.5"/>
                </g>
                <g id="arrowDown" xlink:href="#dirArrow" transform="rotate(180) translate(-30 -48)" onmousedown="handlePan(0,1)">
                  <use xlink:href="#rim" fill="#404040">
                        <set attributeName="fill" to="#808080" begin="arrowDown.mouseover" end="arrowDown.mouseout"/>
                  </use>
                  <path fill="none" stroke="white" stroke-width="1.5" d="M0,-3.0v7 M-2.5,-0.5L0,-3.0L2.5,-0.5"/>
                </g>
                <g id="arrowLeft" xlink:href="#dirArrow" transform="rotate(270) translate(-36 17)" onmousedown="handlePan(-1,0)">
                  <use xlink:href="#rim" fill="#404040">
                        <set attributeName="fill" to="#808080" begin="arrowLeft.mouseover" end="arrowLeft.mouseout"/>
                  </use>
                  <path fill="none" stroke="white" stroke-width="1.5" d="M0,-3.0v7 M-2.5,-0.5L0,-3.0L2.5,-0.5"/>
                </g>
        </g>
        <svg viewBox="0 0 15 15" width="100%" height="30px" preserveAspectRatio="xMaxYMin meet">
         <g id="arrow_out" transform="scale(0.3 0.3)">
          <a xlink:href="file__format__types_8hpp__dep__incl_org.svg" target="_base">
           <rect id="button" ry="5" rx="5" y="6" x="6" height="38" width="38"
                fill="#f2f5e9" fill-opacity="0.5" stroke="#606060" stroke-width="1.0"/>
           <path id="arrow"
             d="M 11.500037,31.436501 C 11.940474,20.09759 22.043105,11.32322 32.158766,21.979434 L 37.068811,17.246167 C 37.068811,17.246167 37.088388,32 37.088388,32 L 22.160133,31.978069 C 22.160133,31.978069 26.997745,27.140456 26.997745,27.140456 C 18.528582,18.264221 13.291696,25.230495 11.500037,31.436501 z"
             style="fill:#404040;"/>
          </a>
         </g>
        </svg>
</svg>
