<?xml version="1.0" encoding="UTF-8" standalone="no"?>
<!DOCTYPE svg PUBLIC "-//W3C//DTD SVG 1.1//EN"
 "http://www.w3.org/Graphics/SVG/1.1/DTD/svg11.dtd">
<!-- Generated by graphviz version 2.43.0 (0)
 -->
<!-- Title: include/plssvm/backends/gpu_csvm.hpp Pages: 1 -->
<svg width="775pt" height="106pt"
 viewBox="0.00 0.00 775.00 106.00" xmlns="http://www.w3.org/2000/svg" xmlns:xlink="http://www.w3.org/1999/xlink">
<g id="graph0" class="graph" transform="scale(1 1) rotate(0) translate(4 102)">
<title>include/plssvm/backends/gpu_csvm.hpp</title>
<polygon fill="white" stroke="transparent" points="-4,4 -4,-102 771,-102 771,4 -4,4"/>
<!-- Node1 -->
<g id="node1" class="node">
<title>Node1</title>
<g id="a_node1"><a xlink:title="Defines the base class for all C&#45;SVM backends using a GPU. Used for code duplication reduction.">
<polygon fill="#bfbfbf" stroke="black" points="314,-67.5 314,-97.5 453,-97.5 453,-67.5 314,-67.5"/>
<text text-anchor="start" x="322" y="-85.5" font-family="Helvetica,sans-Serif" font-size="10.00">include/plssvm/backends</text>
<text text-anchor="middle" x="383.5" y="-74.5" font-family="Helvetica,sans-Serif" font-size="10.00">/gpu_csvm.hpp</text>
</a>
</g>
</g>
<!-- Node2 -->
<g id="node2" class="node">
<title>Node2</title>
<g id="a_node2"><a xlink:href="backends_2CUDA_2csvm_8hpp.html" target="_top" xlink:title="Defines a C&#45;SVM using the CUDA backend.">
<polygon fill="white" stroke="black" points="0,-0.5 0,-30.5 139,-30.5 139,-0.5 0,-0.5"/>
<text text-anchor="start" x="8" y="-18.5" font-family="Helvetica,sans-Serif" font-size="10.00">include/plssvm/backends</text>
<text text-anchor="middle" x="69.5" y="-7.5" font-family="Helvetica,sans-Serif" font-size="10.00">/CUDA/csvm.hpp</text>
</a>
</g>
</g>
<!-- Node1&#45;&gt;Node2 -->
<g id="edge1" class="edge">
<title>Node1&#45;&gt;Node2</title>
<path fill="none" stroke="midnightblue" d="M305.64,-65.38C253.99,-54.69 186.87,-40.8 137.4,-30.55"/>
<polygon fill="midnightblue" stroke="midnightblue" points="305.25,-68.88 315.75,-67.48 306.67,-62.02 305.25,-68.88"/>
</g>
<!-- Node3 -->
<g id="node3" class="node">
<title>Node3</title>
<g id="a_node3"><a xlink:href="backends_2HIP_2csvm_8hpp.html" target="_top" xlink:title="Defines a C&#45;SVM using the HIP backend.">
<polygon fill="white" stroke="black" points="157,-0.5 157,-30.5 296,-30.5 296,-0.5 157,-0.5"/>
<text text-anchor="start" x="165" y="-18.5" font-family="Helvetica,sans-Serif" font-size="10.00">include/plssvm/backends</text>
<text text-anchor="middle" x="226.5" y="-7.5" font-family="Helvetica,sans-Serif" font-size="10.00">/HIP/csvm.hpp</text>
</a>
</g>
</g>
<!-- Node1&#45;&gt;Node3 -->
<g id="edge2" class="edge">
<title>Node1&#45;&gt;Node3</title>
<path fill="none" stroke="midnightblue" d="M340.13,-63.54C315.01,-53.14 283.84,-40.24 260.5,-30.58"/>
<polygon fill="midnightblue" stroke="midnightblue" points="338.86,-66.8 349.43,-67.4 341.53,-60.34 338.86,-66.8"/>
</g>
<!-- Node4 -->
<g id="node4" class="node">
<title>Node4</title>
<g id="a_node4"><a xlink:href="backends_2OpenCL_2csvm_8hpp.html" target="_top" xlink:title="Defines a C&#45;SVM using the OpenCL backend.">
<polygon fill="white" stroke="black" points="314,-0.5 314,-30.5 453,-30.5 453,-0.5 314,-0.5"/>
<text text-anchor="start" x="322" y="-18.5" font-family="Helvetica,sans-Serif" font-size="10.00">include/plssvm/backends</text>
<text text-anchor="middle" x="383.5" y="-7.5" font-family="Helvetica,sans-Serif" font-size="10.00">/OpenCL/csvm.hpp</text>
</a>
</g>
</g>
<!-- Node1&#45;&gt;Node4 -->
<g id="edge3" class="edge">
<title>Node1&#45;&gt;Node4</title>
<path fill="none" stroke="midnightblue" d="M383.5,-57.11C383.5,-48.15 383.5,-38.32 383.5,-30.58"/>
<polygon fill="midnightblue" stroke="midnightblue" points="380,-57.4 383.5,-67.4 387,-57.4 380,-57.4"/>
</g>
<!-- Node5 -->
<g id="node5" class="node">
<title>Node5</title>
<g id="a_node5"><a xlink:href="backends_2SYCL_2hipSYCL_2csvm_8hpp.html" target="_top" xlink:title="Defines a base C&#45;SVM used for the different SYCL backends using hipSYCL as SYCL implementation.">
<polygon fill="white" stroke="black" points="471,-0.5 471,-30.5 610,-30.5 610,-0.5 471,-0.5"/>
<text text-anchor="start" x="479" y="-18.5" font-family="Helvetica,sans-Serif" font-size="10.00">include/plssvm/backends</text>
<text text-anchor="middle" x="540.5" y="-7.5" font-family="Helvetica,sans-Serif" font-size="10.00">/SYCL/hipSYCL/csvm.hpp</text>
</a>
</g>
</g>
<!-- Node1&#45;&gt;Node5 -->
<g id="edge4" class="edge">
<title>Node1&#45;&gt;Node5</title>
<path fill="none" stroke="midnightblue" d="M426.87,-63.54C451.99,-53.14 483.16,-40.24 506.5,-30.58"/>
<polygon fill="midnightblue" stroke="midnightblue" points="425.47,-60.34 417.57,-67.4 428.14,-66.8 425.47,-60.34"/>
</g>
<!-- Node6 -->
<g id="node6" class="node">
<title>Node6</title>
<g id="a_node6"><a xlink:href="backends_2SYCL_2DPCPP_2csvm_8hpp.html" target="_top" xlink:title="Defines a base C&#45;SVM used for the different SYCL backends using DPC++ as SYCL implementation.">
<polygon fill="white" stroke="black" points="628,-0.5 628,-30.5 767,-30.5 767,-0.5 628,-0.5"/>
<text text-anchor="start" x="636" y="-18.5" font-family="Helvetica,sans-Serif" font-size="10.00">include/plssvm/backends</text>
<text text-anchor="middle" x="697.5" y="-7.5" font-family="Helvetica,sans-Serif" font-size="10.00">/SYCL/DPCPP/csvm.hpp</text>
</a>
</g>
</g>
<!-- Node1&#45;&gt;Node6 -->
<g id="edge5" class="edge">
<title>Node1&#45;&gt;Node6</title>
<path fill="none" stroke="midnightblue" d="M461.36,-65.38C513.01,-54.69 580.13,-40.8 629.6,-30.55"/>
<polygon fill="midnightblue" stroke="midnightblue" points="460.33,-62.02 451.25,-67.48 461.75,-68.88 460.33,-62.02"/>
</g>
</g>
</svg>
