<?xml version="1.0" encoding="UTF-8" standalone="no"?>
<!DOCTYPE svg PUBLIC "-//W3C//DTD SVG 1.1//EN"
 "http://www.w3.org/Graphics/SVG/1.1/DTD/svg11.dtd">
<!-- Generated by graphviz version 2.43.0 (0)
 -->
<!-- Title: include/plssvm/backends/gpu_device_ptr.hpp Pages: 1 -->
<svg width="825pt" height="184pt"
 viewBox="0.00 0.00 825.00 184.00" xmlns="http://www.w3.org/2000/svg" xmlns:xlink="http://www.w3.org/1999/xlink">
<g id="graph0" class="graph" transform="scale(1 1) rotate(0) translate(4 180)">
<title>include/plssvm/backends/gpu_device_ptr.hpp</title>
<polygon fill="white" stroke="transparent" points="-4,4 -4,-180 821,-180 821,4 -4,4"/>
<!-- Node1 -->
<g id="node1" class="node">
<title>Node1</title>
<g id="a_node1"><a xlink:title="Defines the base class for all C&#45;SVM backends using a GPU. Used for code duplication reduction.">
<polygon fill="#bfbfbf" stroke="black" points="347.5,-145.5 347.5,-175.5 486.5,-175.5 486.5,-145.5 347.5,-145.5"/>
<text text-anchor="start" x="355.5" y="-163.5" font-family="Helvetica,sans-Serif" font-size="10.00">include/plssvm/backends</text>
<text text-anchor="middle" x="417" y="-152.5" font-family="Helvetica,sans-Serif" font-size="10.00">/gpu_device_ptr.hpp</text>
</a>
</g>
</g>
<!-- Node2 -->
<g id="node2" class="node">
<title>Node2</title>
<g id="a_node2"><a xlink:href="device__ptr_8cuh.html" target="_top" xlink:title="Small wrapper around a CUDA device pointer.">
<polygon fill="white" stroke="black" points="0,-73 0,-103 152,-103 152,-73 0,-73"/>
<text text-anchor="start" x="8" y="-91" font-family="Helvetica,sans-Serif" font-size="10.00">include/plssvm/backends</text>
<text text-anchor="middle" x="76" y="-80" font-family="Helvetica,sans-Serif" font-size="10.00">/CUDA/detail/device_ptr.cuh</text>
</a>
</g>
</g>
<!-- Node1&#45;&gt;Node2 -->
<g id="edge1" class="edge">
<title>Node1&#45;&gt;Node2</title>
<path fill="none" stroke="midnightblue" d="M337.42,-144.57C286.81,-134.89 219.94,-121.74 161,-109 152.41,-107.14 143.34,-105.1 134.46,-103.05"/>
<polygon fill="midnightblue" stroke="midnightblue" points="336.84,-148.03 347.32,-146.46 338.15,-141.15 336.84,-148.03"/>
</g>
<!-- Node4 -->
<g id="node4" class="node">
<title>Node4</title>
<g id="a_node4"><a xlink:href="device__ptr_8hip_8hpp.html" target="_top" xlink:title="Small wrapper around a HIP device pointer.">
<polygon fill="white" stroke="black" points="170.5,-73 170.5,-103 329.5,-103 329.5,-73 170.5,-73"/>
<text text-anchor="start" x="178.5" y="-91" font-family="Helvetica,sans-Serif" font-size="10.00">include/plssvm/backends</text>
<text text-anchor="middle" x="250" y="-80" font-family="Helvetica,sans-Serif" font-size="10.00">/HIP/detail/device_ptr.hip.hpp</text>
</a>
</g>
</g>
<!-- Node1&#45;&gt;Node4 -->
<g id="edge3" class="edge">
<title>Node1&#45;&gt;Node4</title>
<path fill="none" stroke="midnightblue" d="M374.36,-141.5C346.07,-129.56 309.49,-114.11 283.34,-103.07"/>
<polygon fill="midnightblue" stroke="midnightblue" points="373.03,-144.74 383.61,-145.4 375.75,-138.29 373.03,-144.74"/>
</g>
<!-- Node6 -->
<g id="node6" class="node">
<title>Node6</title>
<g id="a_node6"><a xlink:href="OpenCL_2detail_2device__ptr_8hpp.html" target="_top" xlink:title="Small wrapper around a OpenCL device pointer.">
<polygon fill="white" stroke="black" points="347.5,-67.5 347.5,-108.5 486.5,-108.5 486.5,-67.5 347.5,-67.5"/>
<text text-anchor="start" x="355.5" y="-96.5" font-family="Helvetica,sans-Serif" font-size="10.00">include/plssvm/backends</text>
<text text-anchor="start" x="355.5" y="-85.5" font-family="Helvetica,sans-Serif" font-size="10.00">/OpenCL/detail/device</text>
<text text-anchor="middle" x="417" y="-74.5" font-family="Helvetica,sans-Serif" font-size="10.00">_ptr.hpp</text>
</a>
</g>
</g>
<!-- Node1&#45;&gt;Node6 -->
<g id="edge5" class="edge">
<title>Node1&#45;&gt;Node6</title>
<path fill="none" stroke="midnightblue" d="M417,-134.98C417,-126.35 417,-116.76 417,-108.59"/>
<polygon fill="midnightblue" stroke="midnightblue" points="413.5,-135.23 417,-145.23 420.5,-135.23 413.5,-135.23"/>
</g>
<!-- Node8 -->
<g id="node8" class="node">
<title>Node8</title>
<g id="a_node8"><a xlink:href="SYCL_2DPCPP_2detail_2device__ptr_8hpp.html" target="_top" xlink:title="Small wrapper around a SYCL device pointer for the DPC++ SYCL implementation.">
<polygon fill="white" stroke="black" points="505,-67.5 505,-108.5 649,-108.5 649,-67.5 505,-67.5"/>
<text text-anchor="start" x="513" y="-96.5" font-family="Helvetica,sans-Serif" font-size="10.00">include/plssvm/backends</text>
<text text-anchor="start" x="513" y="-85.5" font-family="Helvetica,sans-Serif" font-size="10.00">/SYCL/DPCPP/detail/device</text>
<text text-anchor="middle" x="577" y="-74.5" font-family="Helvetica,sans-Serif" font-size="10.00">_ptr.hpp</text>
</a>
</g>
</g>
<!-- Node1&#45;&gt;Node8 -->
<g id="edge7" class="edge">
<title>Node1&#45;&gt;Node8</title>
<path fill="none" stroke="midnightblue" d="M458.39,-141.26C481.16,-131.23 509.42,-118.78 532.64,-108.55"/>
<polygon fill="midnightblue" stroke="midnightblue" points="456.73,-138.17 448.99,-145.4 459.56,-144.57 456.73,-138.17"/>
</g>
<!-- Node10 -->
<g id="node10" class="node">
<title>Node10</title>
<g id="a_node10"><a xlink:href="SYCL_2hipSYCL_2detail_2device__ptr_8hpp.html" target="_top" xlink:title="Small wrapper around a SYCL device pointer for the hipSYCL SYCL implementation.">
<polygon fill="white" stroke="black" points="667,-67.5 667,-108.5 817,-108.5 817,-67.5 667,-67.5"/>
<text text-anchor="start" x="675" y="-96.5" font-family="Helvetica,sans-Serif" font-size="10.00">include/plssvm/backends</text>
<text text-anchor="start" x="675" y="-85.5" font-family="Helvetica,sans-Serif" font-size="10.00">/SYCL/hipSYCL/detail/device</text>
<text text-anchor="middle" x="742" y="-74.5" font-family="Helvetica,sans-Serif" font-size="10.00">_ptr.hpp</text>
</a>
</g>
</g>
<!-- Node1&#45;&gt;Node10 -->
<g id="edge9" class="edge">
<title>Node1&#45;&gt;Node10</title>
<path fill="none" stroke="midnightblue" d="M496.28,-143.45C543.34,-133.79 604.16,-121.05 658,-109 660.93,-108.35 663.91,-107.67 666.92,-106.98"/>
<polygon fill="midnightblue" stroke="midnightblue" points="495.54,-140.03 486.45,-145.47 496.95,-146.89 495.54,-140.03"/>
</g>
<!-- Node3 -->
<g id="node3" class="node">
<title>Node3</title>
<g id="a_node3"><a xlink:href="backends_2CUDA_2csvm_8hpp.html" target="_top" xlink:title="Defines a C&#45;SVM using the CUDA backend.">
<polygon fill="white" stroke="black" points="6.5,-0.5 6.5,-30.5 145.5,-30.5 145.5,-0.5 6.5,-0.5"/>
<text text-anchor="start" x="14.5" y="-18.5" font-family="Helvetica,sans-Serif" font-size="10.00">include/plssvm/backends</text>
<text text-anchor="middle" x="76" y="-7.5" font-family="Helvetica,sans-Serif" font-size="10.00">/CUDA/csvm.hpp</text>
</a>
</g>
</g>
<!-- Node2&#45;&gt;Node3 -->
<g id="edge2" class="edge">
<title>Node2&#45;&gt;Node3</title>
<path fill="none" stroke="midnightblue" d="M76,-62.73C76,-52.07 76,-39.91 76,-30.75"/>
<polygon fill="midnightblue" stroke="midnightblue" points="72.5,-62.73 76,-72.73 79.5,-62.73 72.5,-62.73"/>
</g>
<!-- Node5 -->
<g id="node5" class="node">
<title>Node5</title>
<g id="a_node5"><a xlink:href="backends_2HIP_2csvm_8hpp.html" target="_top" xlink:title="Defines a C&#45;SVM using the HIP backend.">
<polygon fill="white" stroke="black" points="180.5,-0.5 180.5,-30.5 319.5,-30.5 319.5,-0.5 180.5,-0.5"/>
<text text-anchor="start" x="188.5" y="-18.5" font-family="Helvetica,sans-Serif" font-size="10.00">include/plssvm/backends</text>
<text text-anchor="middle" x="250" y="-7.5" font-family="Helvetica,sans-Serif" font-size="10.00">/HIP/csvm.hpp</text>
</a>
</g>
</g>
<!-- Node4&#45;&gt;Node5 -->
<g id="edge4" class="edge">
<title>Node4&#45;&gt;Node5</title>
<path fill="none" stroke="midnightblue" d="M250,-62.73C250,-52.07 250,-39.91 250,-30.75"/>
<polygon fill="midnightblue" stroke="midnightblue" points="246.5,-62.73 250,-72.73 253.5,-62.73 246.5,-62.73"/>
</g>
<!-- Node7 -->
<g id="node7" class="node">
<title>Node7</title>
<g id="a_node7"><a xlink:href="backends_2OpenCL_2csvm_8hpp.html" target="_top" xlink:title="Defines a C&#45;SVM using the OpenCL backend.">
<polygon fill="white" stroke="black" points="347.5,-0.5 347.5,-30.5 486.5,-30.5 486.5,-0.5 347.5,-0.5"/>
<text text-anchor="start" x="355.5" y="-18.5" font-family="Helvetica,sans-Serif" font-size="10.00">include/plssvm/backends</text>
<text text-anchor="middle" x="417" y="-7.5" font-family="Helvetica,sans-Serif" font-size="10.00">/OpenCL/csvm.hpp</text>
</a>
</g>
</g>
<!-- Node6&#45;&gt;Node7 -->
<g id="edge6" class="edge">
<title>Node6&#45;&gt;Node7</title>
<path fill="none" stroke="midnightblue" d="M417,-57.08C417,-48.01 417,-38.45 417,-30.89"/>
<polygon fill="midnightblue" stroke="midnightblue" points="413.5,-57.36 417,-67.36 420.5,-57.36 413.5,-57.36"/>
</g>
<!-- Node9 -->
<g id="node9" class="node">
<title>Node9</title>
<g id="a_node9"><a xlink:href="backends_2SYCL_2DPCPP_2csvm_8hpp.html" target="_top" xlink:title="Defines a base C&#45;SVM used for the different SYCL backends using DPC++ as SYCL implementation.">
<polygon fill="white" stroke="black" points="507.5,-0.5 507.5,-30.5 646.5,-30.5 646.5,-0.5 507.5,-0.5"/>
<text text-anchor="start" x="515.5" y="-18.5" font-family="Helvetica,sans-Serif" font-size="10.00">include/plssvm/backends</text>
<text text-anchor="middle" x="577" y="-7.5" font-family="Helvetica,sans-Serif" font-size="10.00">/SYCL/DPCPP/csvm.hpp</text>
</a>
</g>
</g>
<!-- Node8&#45;&gt;Node9 -->
<g id="edge8" class="edge">
<title>Node8&#45;&gt;Node9</title>
<path fill="none" stroke="midnightblue" d="M577,-57.08C577,-48.01 577,-38.45 577,-30.89"/>
<polygon fill="midnightblue" stroke="midnightblue" points="573.5,-57.36 577,-67.36 580.5,-57.36 573.5,-57.36"/>
</g>
<!-- Node11 -->
<g id="node11" class="node">
<title>Node11</title>
<g id="a_node11"><a xlink:href="backends_2SYCL_2hipSYCL_2csvm_8hpp.html" target="_top" xlink:title="Defines a base C&#45;SVM used for the different SYCL backends using hipSYCL as SYCL implementation.">
<polygon fill="white" stroke="black" points="672.5,-0.5 672.5,-30.5 811.5,-30.5 811.5,-0.5 672.5,-0.5"/>
<text text-anchor="start" x="680.5" y="-18.5" font-family="Helvetica,sans-Serif" font-size="10.00">include/plssvm/backends</text>
<text text-anchor="middle" x="742" y="-7.5" font-family="Helvetica,sans-Serif" font-size="10.00">/SYCL/hipSYCL/csvm.hpp</text>
</a>
</g>
</g>
<!-- Node10&#45;&gt;Node11 -->
<g id="edge10" class="edge">
<title>Node10&#45;&gt;Node11</title>
<path fill="none" stroke="midnightblue" d="M742,-57.08C742,-48.01 742,-38.45 742,-30.89"/>
<polygon fill="midnightblue" stroke="midnightblue" points="738.5,-57.36 742,-67.36 745.5,-57.36 738.5,-57.36"/>
</g>
</g>
</svg>
