<?xml version="1.0" encoding="UTF-8" standalone="no"?>
<!DOCTYPE svg PUBLIC "-//W3C//DTD SVG 1.1//EN"
 "http://www.w3.org/Graphics/SVG/1.1/DTD/svg11.dtd">
<!-- Generated by graphviz version 2.43.0 (0)
 -->
<!-- Title: include/plssvm/backends/SYCL/hipSYCL/detail/queue.hpp Pages: 1 -->
<svg width="546pt" height="184pt"
 viewBox="0.00 0.00 546.00 184.00" xmlns="http://www.w3.org/2000/svg" xmlns:xlink="http://www.w3.org/1999/xlink">
<g id="graph0" class="graph" transform="scale(1 1) rotate(0) translate(4 180)">
<title>include/plssvm/backends/SYCL/hipSYCL/detail/queue.hpp</title>
<polygon fill="white" stroke="transparent" points="-4,4 -4,-180 542,-180 542,4 -4,4"/>
<!-- Node1 -->
<g id="node1" class="node">
<title>Node1</title>
<g id="a_node1"><a xlink:title="PImpl class used to hide the &quot;sycl/sycl.hpp&quot; header from the public interface.">
<polygon fill="#bfbfbf" stroke="black" points="144.5,-145.5 144.5,-175.5 313.5,-175.5 313.5,-145.5 144.5,-145.5"/>
<text text-anchor="start" x="152.5" y="-163.5" font-family="Helvetica,sans-Serif" font-size="10.00">include/plssvm/backends</text>
<text text-anchor="middle" x="229" y="-152.5" font-family="Helvetica,sans-Serif" font-size="10.00">/SYCL/hipSYCL/detail/queue.hpp</text>
</a>
</g>
</g>
<!-- Node2 -->
<g id="node2" class="node">
<title>Node2</title>
<g id="a_node2"><a xlink:href="SYCL_2hipSYCL_2detail_2device__ptr_8hpp.html" target="_top" xlink:title="Small wrapper around a SYCL device pointer for the hipSYCL SYCL implementation.">
<polygon fill="white" stroke="black" points="0,-67.5 0,-108.5 150,-108.5 150,-67.5 0,-67.5"/>
<text text-anchor="start" x="8" y="-96.5" font-family="Helvetica,sans-Serif" font-size="10.00">include/plssvm/backends</text>
<text text-anchor="start" x="8" y="-85.5" font-family="Helvetica,sans-Serif" font-size="10.00">/SYCL/hipSYCL/detail/device</text>
<text text-anchor="middle" x="75" y="-74.5" font-family="Helvetica,sans-Serif" font-size="10.00">_ptr.hpp</text>
</a>
</g>
</g>
<!-- Node1&#45;&gt;Node2 -->
<g id="edge1" class="edge">
<title>Node1&#45;&gt;Node2</title>
<path fill="none" stroke="midnightblue" d="M188.87,-141.13C167.01,-131.12 139.95,-118.73 117.7,-108.55"/>
<polygon fill="midnightblue" stroke="midnightblue" points="187.66,-144.42 198.21,-145.4 190.57,-138.06 187.66,-144.42"/>
</g>
<!-- Node3 -->
<g id="node3" class="node">
<title>Node3</title>
<g id="a_node3"><a xlink:href="backends_2SYCL_2hipSYCL_2csvm_8hpp.html" target="_top" xlink:title="Defines a base C&#45;SVM used for the different SYCL backends using hipSYCL as SYCL implementation.">
<polygon fill="white" stroke="black" points="56.5,-0.5 56.5,-30.5 195.5,-30.5 195.5,-0.5 56.5,-0.5"/>
<text text-anchor="start" x="64.5" y="-18.5" font-family="Helvetica,sans-Serif" font-size="10.00">include/plssvm/backends</text>
<text text-anchor="middle" x="126" y="-7.5" font-family="Helvetica,sans-Serif" font-size="10.00">/SYCL/hipSYCL/csvm.hpp</text>
</a>
</g>
</g>
<!-- Node1&#45;&gt;Node3 -->
<g id="edge3" class="edge">
<title>Node1&#45;&gt;Node3</title>
<path fill="none" stroke="midnightblue" d="M212.89,-137.14C191.45,-107.37 154.15,-55.58 136.21,-30.68"/>
<polygon fill="midnightblue" stroke="midnightblue" points="210.06,-139.2 218.75,-145.27 215.74,-135.11 210.06,-139.2"/>
</g>
<!-- Node4 -->
<g id="node4" class="node">
<title>Node4</title>
<g id="a_node4"><a xlink:href="hipSYCL_2detail_2queue__impl_8hpp.html" target="_top" xlink:title="PImpl implementation encapsulating a single SYCL queue.">
<polygon fill="white" stroke="black" points="206,-67.5 206,-108.5 354,-108.5 354,-67.5 206,-67.5"/>
<text text-anchor="start" x="214" y="-96.5" font-family="Helvetica,sans-Serif" font-size="10.00">include/plssvm/backends</text>
<text text-anchor="start" x="214" y="-85.5" font-family="Helvetica,sans-Serif" font-size="10.00">/SYCL/hipSYCL/detail/queue</text>
<text text-anchor="middle" x="280" y="-74.5" font-family="Helvetica,sans-Serif" font-size="10.00">_impl.hpp</text>
</a>
</g>
</g>
<!-- Node1&#45;&gt;Node4 -->
<g id="edge4" class="edge">
<title>Node1&#45;&gt;Node4</title>
<path fill="none" stroke="midnightblue" d="M245.29,-136.98C251.9,-127.85 259.46,-117.4 265.83,-108.59"/>
<polygon fill="midnightblue" stroke="midnightblue" points="242.35,-135.08 239.32,-145.23 248.02,-139.18 242.35,-135.08"/>
</g>
<!-- Node5 -->
<g id="node5" class="node">
<title>Node5</title>
<g id="a_node5"><a xlink:href="backends_2SYCL_2hipSYCL_2detail_2utility_8hpp.html" target="_top" xlink:title="Utility functions specific to the SYCL backend using hipSYCL as SYCL implementation.">
<polygon fill="white" stroke="black" points="372,-73 372,-103 538,-103 538,-73 372,-73"/>
<text text-anchor="start" x="380" y="-91" font-family="Helvetica,sans-Serif" font-size="10.00">include/plssvm/backends</text>
<text text-anchor="middle" x="455" y="-80" font-family="Helvetica,sans-Serif" font-size="10.00">/SYCL/hipSYCL/detail/utility.hpp</text>
</a>
</g>
</g>
<!-- Node1&#45;&gt;Node5 -->
<g id="edge5" class="edge">
<title>Node1&#45;&gt;Node5</title>
<path fill="none" stroke="midnightblue" d="M283.95,-142.36C322.54,-130.32 373.54,-114.41 409.78,-103.11"/>
<polygon fill="midnightblue" stroke="midnightblue" points="282.42,-139.17 273.92,-145.49 284.51,-145.85 282.42,-139.17"/>
</g>
<!-- Node2&#45;&gt;Node3 -->
<g id="edge2" class="edge">
<title>Node2&#45;&gt;Node3</title>
<path fill="none" stroke="midnightblue" d="M95.15,-59.14C102.15,-49.47 109.71,-39.02 115.59,-30.89"/>
<polygon fill="midnightblue" stroke="midnightblue" points="92.23,-57.21 89.21,-67.36 97.9,-61.31 92.23,-57.21"/>
</g>
</g>
</svg>
