<?xml version="1.0" encoding="UTF-8" standalone="no"?>
<!DOCTYPE svg PUBLIC "-//W3C//DTD SVG 1.1//EN"
 "http://www.w3.org/Graphics/SVG/1.1/DTD/svg11.dtd">
<!-- Generated by graphviz version 2.43.0 (0)
 -->
<!-- Title: include/plssvm/backends/SYCL/hipSYCL/detail/queue.hpp Pages: 1 -->
<svg width="555pt" height="184pt"
 viewBox="0.00 0.00 554.50 184.00" xmlns="http://www.w3.org/2000/svg" xmlns:xlink="http://www.w3.org/1999/xlink">
<g id="graph0" class="graph" transform="scale(1 1) rotate(0) translate(4 180)">
<title>include/plssvm/backends/SYCL/hipSYCL/detail/queue.hpp</title>
<polygon fill="white" stroke="transparent" points="-4,4 -4,-180 550.5,-180 550.5,4 -4,4"/>
<!-- Node1 -->
<g id="node1" class="node">
<title>Node1</title>
<g id="a_node1"><a xlink:title="PImpl class used to hide the &quot;sycl/sycl.hpp&quot; header from the public interface.">
<polygon fill="#bfbfbf" stroke="black" points="120,-145.5 120,-175.5 289,-175.5 289,-145.5 120,-145.5"/>
<text text-anchor="start" x="128" y="-163.5" font-family="Helvetica,sans-Serif" font-size="10.00">include/plssvm/backends</text>
<text text-anchor="middle" x="204.5" y="-152.5" font-family="Helvetica,sans-Serif" font-size="10.00">/SYCL/hipSYCL/detail/queue.hpp</text>
</a>
</g>
</g>
<!-- Node2 -->
<g id="node2" class="node">
<title>Node2</title>
<g id="a_node2"><a xlink:href="backends_2SYCL_2hipSYCL_2csvm_8hpp.html" target="_top" xlink:title="Defines a base C&#45;SVM used for the different SYCL backends using hipSYCL as SYCL implementation.">
<polygon fill="white" stroke="black" points="0,-0.5 0,-30.5 139,-30.5 139,-0.5 0,-0.5"/>
<text text-anchor="start" x="8" y="-18.5" font-family="Helvetica,sans-Serif" font-size="10.00">include/plssvm/backends</text>
<text text-anchor="middle" x="69.5" y="-7.5" font-family="Helvetica,sans-Serif" font-size="10.00">/SYCL/hipSYCL/csvm.hpp</text>
</a>
</g>
</g>
<!-- Node1&#45;&gt;Node2 -->
<g id="edge1" class="edge">
<title>Node1&#45;&gt;Node2</title>
<path fill="none" stroke="midnightblue" d="M110.01,-152.18C82.23,-145.09 54.7,-132.17 37.5,-109 19.57,-84.85 41.73,-49.88 57.12,-30.59"/>
<polygon fill="midnightblue" stroke="midnightblue" points="109.3,-155.61 119.83,-154.45 110.88,-148.79 109.3,-155.61"/>
</g>
<!-- Node3 -->
<g id="node3" class="node">
<title>Node3</title>
<g id="a_node3"><a xlink:href="SYCL_2hipSYCL_2detail_2device__ptr_8hpp.html" target="_top" xlink:title="Small wrapper around a SYCL device pointer for the hipSYCL SYCL implementation.">
<polygon fill="white" stroke="black" points="46.5,-67.5 46.5,-108.5 196.5,-108.5 196.5,-67.5 46.5,-67.5"/>
<text text-anchor="start" x="54.5" y="-96.5" font-family="Helvetica,sans-Serif" font-size="10.00">include/plssvm/backends</text>
<text text-anchor="start" x="54.5" y="-85.5" font-family="Helvetica,sans-Serif" font-size="10.00">/SYCL/hipSYCL/detail/device</text>
<text text-anchor="middle" x="121.5" y="-74.5" font-family="Helvetica,sans-Serif" font-size="10.00">_ptr.hpp</text>
</a>
</g>
</g>
<!-- Node1&#45;&gt;Node3 -->
<g id="edge2" class="edge">
<title>Node1&#45;&gt;Node3</title>
<path fill="none" stroke="midnightblue" d="M179.96,-138.66C168.76,-129.15 155.57,-117.94 144.56,-108.59"/>
<polygon fill="midnightblue" stroke="midnightblue" points="177.82,-141.43 187.7,-145.23 182.35,-136.09 177.82,-141.43"/>
</g>
<!-- Node4 -->
<g id="node4" class="node">
<title>Node4</title>
<g id="a_node4"><a xlink:href="hipSYCL_2detail_2queue__impl_8hpp.html" target="_top" xlink:title="PImpl implementation encapsulating a single SYCL queue.">
<polygon fill="white" stroke="black" points="214.5,-67.5 214.5,-108.5 362.5,-108.5 362.5,-67.5 214.5,-67.5"/>
<text text-anchor="start" x="222.5" y="-96.5" font-family="Helvetica,sans-Serif" font-size="10.00">include/plssvm/backends</text>
<text text-anchor="start" x="222.5" y="-85.5" font-family="Helvetica,sans-Serif" font-size="10.00">/SYCL/hipSYCL/detail/queue</text>
<text text-anchor="middle" x="288.5" y="-74.5" font-family="Helvetica,sans-Serif" font-size="10.00">_impl.hpp</text>
</a>
</g>
</g>
<!-- Node1&#45;&gt;Node4 -->
<g id="edge4" class="edge">
<title>Node1&#45;&gt;Node4</title>
<path fill="none" stroke="midnightblue" d="M229.33,-138.66C240.67,-129.15 254.01,-117.94 265.16,-108.59"/>
<polygon fill="midnightblue" stroke="midnightblue" points="226.91,-136.12 221.5,-145.23 231.41,-141.49 226.91,-136.12"/>
</g>
<!-- Node5 -->
<g id="node5" class="node">
<title>Node5</title>
<g id="a_node5"><a xlink:href="backends_2SYCL_2hipSYCL_2detail_2utility_8hpp.html" target="_top" xlink:title="Utility functions specific to the SYCL backend using hipSYCL as SYCL implementation.">
<polygon fill="white" stroke="black" points="380.5,-73 380.5,-103 546.5,-103 546.5,-73 380.5,-73"/>
<text text-anchor="start" x="388.5" y="-91" font-family="Helvetica,sans-Serif" font-size="10.00">include/plssvm/backends</text>
<text text-anchor="middle" x="463.5" y="-80" font-family="Helvetica,sans-Serif" font-size="10.00">/SYCL/hipSYCL/detail/utility.hpp</text>
</a>
</g>
</g>
<!-- Node1&#45;&gt;Node5 -->
<g id="edge5" class="edge">
<title>Node1&#45;&gt;Node5</title>
<path fill="none" stroke="midnightblue" d="M265.79,-142.82C310.21,-130.73 369.61,-114.56 411.67,-103.11"/>
<polygon fill="midnightblue" stroke="midnightblue" points="264.71,-139.48 255.98,-145.49 266.55,-146.24 264.71,-139.48"/>
</g>
<!-- Node3&#45;&gt;Node2 -->
<g id="edge3" class="edge">
<title>Node3&#45;&gt;Node2</title>
<path fill="none" stroke="midnightblue" d="M100.95,-59.14C93.82,-49.47 86.11,-39.02 80.12,-30.89"/>
<polygon fill="midnightblue" stroke="midnightblue" points="98.26,-61.39 107.02,-67.36 103.9,-57.24 98.26,-61.39"/>
</g>
</g>
</svg>
