<?xml version="1.0" encoding="UTF-8" standalone="no"?>
<!DOCTYPE svg PUBLIC "-//W3C//DTD SVG 1.1//EN"
 "http://www.w3.org/Graphics/SVG/1.1/DTD/svg11.dtd">
<!-- Generated by graphviz version 2.43.0 (0)
 -->
<!-- Title: include/plssvm/backends/SYCL/implementation_type.hpp Pages: 1 -->
<!--zoomable 687 -->
<svg id="main" version="1.1" xmlns="http://www.w3.org/2000/svg" xmlns:xlink="http://www.w3.org/1999/xlink" xml:space="preserve" onload="init(evt)">
<style type="text/css"><![CDATA[
.edge:hover path { stroke: red; }
.edge:hover polygon { stroke: red; fill: red; }
]]></style>
<script type="text/javascript"><![CDATA[
var edges = document.getElementsByTagName('g');
if (edges && edges.length) {
  for (var i=0;i<edges.length;i++) {
    if (edges[i].id.substr(0,4)=='edge') {
      edges[i].setAttribute('class','edge');
    }
  }
}
]]></script>
        <defs>
                <circle id="rim" cx="0" cy="0" r="7"/>
                <circle id="rim2" cx="0" cy="0" r="3.5"/>
                <g id="zoomPlus">
                        <use xlink:href="#rim" fill="#404040">
                                <set attributeName="fill" to="#808080" begin="zoomplus.mouseover" end="zoomplus.mouseout"/>
                        </use>
                        <path d="M-4,0h8M0,-4v8" fill="none" stroke="white" stroke-width="1.5" pointer-events="none"/>
                </g>
                <g id="zoomMin">
                        <use xlink:href="#rim" fill="#404040">
                                <set attributeName="fill" to="#808080" begin="zoomminus.mouseover" end="zoomminus.mouseout"/>
                        </use>
                        <path d="M-4,0h8" fill="none" stroke="white" stroke-width="1.5" pointer-events="none"/>
                </g>
                <g id="dirArrow">
                        <path fill="none" stroke="white" stroke-width="1.5" d="M0,-3.0v7 M-2.5,-0.5L0,-3.0L2.5,-0.5"/>
                </g>
               <g id="resetDef">
                       <use xlink:href="#rim2" fill="#404040">
                               <set attributeName="fill" to="#808080" begin="reset.mouseover" end="reset.mouseout"/>
                       </use>
               </g>
        </defs>

<script type="text/javascript">
var viewWidth = 1146;
var viewHeight = 687;
var sectionId = 'dynsection-0';
</script>
<script xlink:href="svgpan.js"/>
<svg id="graph" class="graph">
<g id="viewport">
<title>include/plssvm/backends/SYCL/implementation_type.hpp</title>
<polygon fill="white" stroke="transparent" points="-4,4 -4,-683 1141.5,-683 1141.5,4 -4,4"/>
<!-- Node1 -->
<g id="node1" class="node">
<title>Node1</title>
<g id="a_node1"><a xlink:title="Defines an enumeration holding all possible SYCL implementations.">
<polygon fill="#bfbfbf" stroke="black" points="719.5,-648.5 719.5,-678.5 891.5,-678.5 891.5,-648.5 719.5,-648.5"/>
<text text-anchor="start" x="727.5" y="-666.5" font-family="Helvetica,sans-Serif" font-size="10.00">include/plssvm/backends</text>
<text text-anchor="middle" x="805.5" y="-655.5" font-family="Helvetica,sans-Serif" font-size="10.00">/SYCL/implementation_type.hpp</text>
</a>
</g>
</g>
<!-- Node2 -->
<g id="node2" class="node">
<title>Node2</title>
<g id="a_node2"><a xlink:href="backend__types_8hpp.html" target="_top" xlink:title="Defines an enumeration holding all possible backends. Can also include backends not available on the ...">
<polygon fill="white" stroke="black" points="738.5,-581.5 738.5,-611.5 872.5,-611.5 872.5,-581.5 738.5,-581.5"/>
<text text-anchor="start" x="746.5" y="-599.5" font-family="Helvetica,sans-Serif" font-size="10.00">include/plssvm/backend</text>
<text text-anchor="middle" x="805.5" y="-588.5" font-family="Helvetica,sans-Serif" font-size="10.00">_types.hpp</text>
</a>
</g>
</g>
<!-- Node1&#45;&gt;Node2 -->
<g id="edge1" class="edge">
<title>Node1&#45;&gt;Node2</title>
<path fill="none" stroke="midnightblue" d="M805.5,-638.11C805.5,-629.15 805.5,-619.32 805.5,-611.58"/>
<polygon fill="midnightblue" stroke="midnightblue" points="802,-638.4 805.5,-648.4 809,-638.4 802,-638.4"/>
</g>
<!-- Node3 -->
<g id="node3" class="node">
<title>Node3</title>
<g id="a_node3"><a xlink:href="core_8hpp.html" target="_top" xlink:title="Core header including all other necessary headers.">
<polygon fill="white" stroke="black" points="805,-6 805,-25 940,-25 940,-6 805,-6"/>
<text text-anchor="middle" x="872.5" y="-13" font-family="Helvetica,sans-Serif" font-size="10.00">include/plssvm/core.hpp</text>
</a>
</g>
</g>
<!-- Node1&#45;&gt;Node3 -->
<g id="edge41" class="edge">
<title>Node1&#45;&gt;Node3</title>
<path fill="none" stroke="midnightblue" d="M889.54,-646.36C987.89,-625.02 1137.5,-583.8 1137.5,-530.5 1137.5,-530.5 1137.5,-530.5 1137.5,-143 1137.5,-55.57 1018.57,-28.51 940.06,-20.17"/>
<polygon fill="midnightblue" stroke="midnightblue" points="888.64,-642.98 879.59,-648.49 890.11,-649.82 888.64,-642.98"/>
</g>
<!-- Node4 -->
<g id="node4" class="node">
<title>Node4</title>
<g id="a_node4"><a xlink:href="csvm__factory_8hpp.html" target="_top" xlink:title="Factory function for constructing a new C&#45;SVM based on the provided plssvm::backend_type and potentia...">
<polygon fill="white" stroke="black" points="471,-67.5 471,-97.5 590,-97.5 590,-67.5 471,-67.5"/>
<text text-anchor="start" x="479" y="-85.5" font-family="Helvetica,sans-Serif" font-size="10.00">include/plssvm/csvm</text>
<text text-anchor="middle" x="530.5" y="-74.5" font-family="Helvetica,sans-Serif" font-size="10.00">_factory.hpp</text>
</a>
</g>
</g>
<!-- Node1&#45;&gt;Node4 -->
<g id="edge42" class="edge">
<title>Node1&#45;&gt;Node4</title>
<path fill="none" stroke="midnightblue" d="M709.16,-660.17C544.73,-653.54 227.5,-628.11 227.5,-530.5 227.5,-530.5 227.5,-530.5 227.5,-199 227.5,-172.36 393.09,-121.99 479.44,-97.53"/>
<polygon fill="midnightblue" stroke="midnightblue" points="709.15,-663.67 719.28,-660.56 709.42,-656.67 709.15,-663.67"/>
</g>
<!-- Node5 -->
<g id="node5" class="node">
<title>Node5</title>
<g id="a_node5"><a xlink:href="parser__predict_8hpp.html" target="_top" xlink:title="Implements a class encapsulating all necessary parameters for predicting using the C&#45;SVM possibly pro...">
<polygon fill="white" stroke="black" points="654.5,-514.5 654.5,-544.5 788.5,-544.5 788.5,-514.5 654.5,-514.5"/>
<text text-anchor="start" x="662.5" y="-532.5" font-family="Helvetica,sans-Serif" font-size="10.00">include/plssvm/detail</text>
<text text-anchor="middle" x="721.5" y="-521.5" font-family="Helvetica,sans-Serif" font-size="10.00">/cmd/parser_predict.hpp</text>
</a>
</g>
</g>
<!-- Node1&#45;&gt;Node5 -->
<g id="edge43" class="edge">
<title>Node1&#45;&gt;Node5</title>
<path fill="none" stroke="midnightblue" d="M763,-643.42C750.16,-635.54 737.39,-625.13 729.5,-612 716.98,-591.16 717.62,-561.8 719.42,-544.6"/>
<polygon fill="midnightblue" stroke="midnightblue" points="761.42,-646.55 771.84,-648.47 764.89,-640.47 761.42,-646.55"/>
</g>
<!-- Node21 -->
<g id="node21" class="node">
<title>Node21</title>
<g id="a_node21"><a xlink:href="parser__train_8hpp.html" target="_top" xlink:title="Implements a class encapsulating all necessary parameters for training the C&#45;SVM possibly provided th...">
<polygon fill="white" stroke="black" points="828,-514.5 828,-544.5 951,-544.5 951,-514.5 828,-514.5"/>
<text text-anchor="start" x="836" y="-532.5" font-family="Helvetica,sans-Serif" font-size="10.00">include/plssvm/detail</text>
<text text-anchor="middle" x="889.5" y="-521.5" font-family="Helvetica,sans-Serif" font-size="10.00">/cmd/parser_train.hpp</text>
</a>
</g>
</g>
<!-- Node1&#45;&gt;Node21 -->
<g id="edge44" class="edge">
<title>Node1&#45;&gt;Node21</title>
<path fill="none" stroke="midnightblue" d="M848,-643.42C860.84,-635.54 873.61,-625.13 881.5,-612 894.02,-591.16 893.38,-561.8 891.58,-544.6"/>
<polygon fill="midnightblue" stroke="midnightblue" points="846.11,-640.47 839.16,-648.47 849.58,-646.55 846.11,-640.47"/>
</g>
<!-- Node2&#45;&gt;Node3 -->
<g id="edge2" class="edge">
<title>Node2&#45;&gt;Node3</title>
<path fill="none" stroke="midnightblue" d="M882.72,-593.02C969.82,-585.62 1099.5,-558.63 1099.5,-463.5 1099.5,-463.5 1099.5,-463.5 1099.5,-143 1099.5,-68.9 1006.05,-37.81 939.07,-25.04"/>
<polygon fill="midnightblue" stroke="midnightblue" points="882.28,-589.55 872.58,-593.81 882.82,-596.53 882.28,-589.55"/>
</g>
<!-- Node2&#45;&gt;Node4 -->
<g id="edge3" class="edge">
<title>Node2&#45;&gt;Node4</title>
<path fill="none" stroke="midnightblue" d="M728.02,-591.16C587.15,-581.15 303.5,-550.21 303.5,-463.5 303.5,-463.5 303.5,-463.5 303.5,-394.5 303.5,-255.46 453.36,-137.05 509.55,-97.54"/>
<polygon fill="midnightblue" stroke="midnightblue" points="728.1,-594.68 738.32,-591.88 728.58,-587.69 728.1,-594.68"/>
</g>
<!-- Node2&#45;&gt;Node5 -->
<g id="edge5" class="edge">
<title>Node2&#45;&gt;Node5</title>
<path fill="none" stroke="midnightblue" d="M779.22,-575.17C766.38,-565.23 751.24,-553.51 739.69,-544.58"/>
<polygon fill="midnightblue" stroke="midnightblue" points="777.22,-578.04 787.27,-581.4 781.51,-572.51 777.22,-578.04"/>
</g>
<!-- Node2&#45;&gt;Node21 -->
<g id="edge38" class="edge">
<title>Node2&#45;&gt;Node21</title>
<path fill="none" stroke="midnightblue" d="M831.78,-575.17C844.62,-565.23 859.76,-553.51 871.31,-544.58"/>
<polygon fill="midnightblue" stroke="midnightblue" points="829.49,-572.51 823.73,-581.4 833.78,-578.04 829.49,-572.51"/>
</g>
<!-- Node4&#45;&gt;Node3 -->
<g id="edge4" class="edge">
<title>Node4&#45;&gt;Node3</title>
<path fill="none" stroke="midnightblue" d="M600.12,-67.84C601.59,-67.56 603.05,-67.28 604.5,-67 682.38,-52.03 773.08,-35.03 826.48,-25.07"/>
<polygon fill="midnightblue" stroke="midnightblue" points="599.42,-64.41 590.27,-69.75 600.75,-71.29 599.42,-64.41"/>
</g>
<!-- Node6 -->
<g id="node6" class="node">
<title>Node6</title>
<g id="a_node6"><a xlink:href="data__set__variants_8hpp.html" target="_top" xlink:title="Implements utility functions to create a data set based on runtime parameters.">
<polygon fill="white" stroke="black" points="919.5,-246.5 919.5,-276.5 1071.5,-276.5 1071.5,-246.5 919.5,-246.5"/>
<text text-anchor="start" x="927.5" y="-264.5" font-family="Helvetica,sans-Serif" font-size="10.00">include/plssvm/detail</text>
<text text-anchor="middle" x="995.5" y="-253.5" font-family="Helvetica,sans-Serif" font-size="10.00">/cmd/data_set_variants.hpp</text>
</a>
</g>
</g>
<!-- Node5&#45;&gt;Node6 -->
<g id="edge6" class="edge">
<title>Node5&#45;&gt;Node6</title>
<path fill="none" stroke="midnightblue" d="M743.59,-507.06C797.74,-454.49 935.93,-320.33 981.03,-276.55"/>
<polygon fill="midnightblue" stroke="midnightblue" points="740.97,-504.72 736.23,-514.2 745.84,-509.74 740.97,-504.72"/>
</g>
<!-- Node7 -->
<g id="node7" class="node">
<title>Node7</title>
<g id="a_node7"><a xlink:href="performance__tracker_8hpp.html" target="_top" xlink:title="Defines a performance tracker which can dump performance information in a YAML file.">
<polygon fill="white" stroke="black" points="578,-447.5 578,-477.5 719,-477.5 719,-447.5 578,-447.5"/>
<text text-anchor="start" x="586" y="-465.5" font-family="Helvetica,sans-Serif" font-size="10.00">include/plssvm/detail</text>
<text text-anchor="middle" x="648.5" y="-454.5" font-family="Helvetica,sans-Serif" font-size="10.00">/performance_tracker.hpp</text>
</a>
</g>
</g>
<!-- Node5&#45;&gt;Node7 -->
<g id="edge7" class="edge">
<title>Node5&#45;&gt;Node7</title>
<path fill="none" stroke="midnightblue" d="M698.03,-507.6C687,-497.78 674.16,-486.34 664.31,-477.58"/>
<polygon fill="midnightblue" stroke="midnightblue" points="695.86,-510.36 705.66,-514.4 700.52,-505.13 695.86,-510.36"/>
</g>
<!-- Node8 -->
<g id="node8" class="node">
<title>Node8</title>
<g id="a_node8"><a xlink:href="gpu__csvm_8hpp.html" target="_top" xlink:title="Defines the base class for all C&#45;SVM backends using a GPU. Used for code duplication reduction.">
<polygon fill="white" stroke="black" points="314,-67.5 314,-97.5 453,-97.5 453,-67.5 314,-67.5"/>
<text text-anchor="start" x="322" y="-85.5" font-family="Helvetica,sans-Serif" font-size="10.00">include/plssvm/backends</text>
<text text-anchor="middle" x="383.5" y="-74.5" font-family="Helvetica,sans-Serif" font-size="10.00">/gpu_csvm.hpp</text>
</a>
</g>
</g>
<!-- Node7&#45;&gt;Node8 -->
<g id="edge8" class="edge">
<title>Node7&#45;&gt;Node8</title>
<path fill="none" stroke="midnightblue" d="M567.85,-450.33C455.5,-432.48 265.5,-392.91 265.5,-329.5 265.5,-329.5 265.5,-329.5 265.5,-199 265.5,-150.41 317.23,-115.53 352.19,-97.51"/>
<polygon fill="midnightblue" stroke="midnightblue" points="567.38,-453.8 577.81,-451.89 568.47,-446.89 567.38,-453.8"/>
</g>
<!-- Node14 -->
<g id="node14" class="node">
<title>Node14</title>
<g id="a_node14"><a xlink:href="csvm_8hpp.html" target="_top" xlink:title="Defines the base class for all C&#45;SVM backends and implements the functionality shared by all of them.">
<polygon fill="white" stroke="black" points="487.5,-134.5 487.5,-153.5 627.5,-153.5 627.5,-134.5 487.5,-134.5"/>
<text text-anchor="middle" x="557.5" y="-141.5" font-family="Helvetica,sans-Serif" font-size="10.00">include/plssvm/csvm.hpp</text>
</a>
</g>
</g>
<!-- Node7&#45;&gt;Node14 -->
<g id="edge14" class="edge">
<title>Node7&#45;&gt;Node14</title>
<path fill="none" stroke="midnightblue" d="M583.95,-444.02C563.9,-436.3 542.8,-425.57 526.5,-411 495.65,-383.43 481.5,-370.88 481.5,-329.5 481.5,-329.5 481.5,-329.5 481.5,-260.5 481.5,-213.69 525.6,-171.18 546.61,-153.58"/>
<polygon fill="midnightblue" stroke="midnightblue" points="582.78,-447.32 593.37,-447.46 585.18,-440.74 582.78,-447.32"/>
</g>
<!-- Node16 -->
<g id="node16" class="node">
<title>Node16</title>
<g id="a_node16"><a xlink:href="data__set_8hpp.html" target="_top" xlink:title="Implements a data set class encapsulating all data points, features, and potential labels.">
<polygon fill="white" stroke="black" points="662,-313.5 662,-343.5 777,-343.5 777,-313.5 662,-313.5"/>
<text text-anchor="start" x="670" y="-331.5" font-family="Helvetica,sans-Serif" font-size="10.00">include/plssvm/data</text>
<text text-anchor="middle" x="719.5" y="-320.5" font-family="Helvetica,sans-Serif" font-size="10.00">_set.hpp</text>
</a>
</g>
</g>
<!-- Node7&#45;&gt;Node16 -->
<g id="edge19" class="edge">
<title>Node7&#45;&gt;Node16</title>
<path fill="none" stroke="midnightblue" d="M660.88,-438.48C675.62,-411.07 699.77,-366.19 711.96,-343.52"/>
<polygon fill="midnightblue" stroke="midnightblue" points="657.75,-436.91 656.1,-447.37 663.92,-440.22 657.75,-436.91"/>
</g>
<!-- Node18 -->
<g id="node18" class="node">
<title>Node18</title>
<g id="a_node18"><a xlink:href="model_8hpp.html" target="_top" xlink:title="Implements a model class encapsulating the results of a SVM fit call.">
<polygon fill="white" stroke="black" points="676,-190.5 676,-209.5 821,-209.5 821,-190.5 676,-190.5"/>
<text text-anchor="middle" x="748.5" y="-197.5" font-family="Helvetica,sans-Serif" font-size="10.00">include/plssvm/model.hpp</text>
</a>
</g>
</g>
<!-- Node7&#45;&gt;Node18 -->
<g id="edge37" class="edge">
<title>Node7&#45;&gt;Node18</title>
<path fill="none" stroke="midnightblue" d="M679.75,-441.71C710.61,-420.76 757.3,-385.09 786.5,-344 812.6,-307.27 833.27,-285.99 812.5,-246 803.61,-228.88 784.89,-216.91 769.98,-209.64"/>
<polygon fill="midnightblue" stroke="midnightblue" points="677.49,-439.01 671.11,-447.47 681.37,-444.84 677.49,-439.01"/>
</g>
<!-- Node19 -->
<g id="node19" class="node">
<title>Node19</title>
<g id="a_node19"><a xlink:href="layout_8hpp.html" target="_top" xlink:title="Defines functions to convert 2D vectors to 1D SoA or AoS vectors.">
<polygon fill="white" stroke="black" points="332,-313.5 332,-343.5 453,-343.5 453,-313.5 332,-313.5"/>
<text text-anchor="start" x="340" y="-331.5" font-family="Helvetica,sans-Serif" font-size="10.00">include/plssvm/detail</text>
<text text-anchor="middle" x="392.5" y="-320.5" font-family="Helvetica,sans-Serif" font-size="10.00">/layout.hpp</text>
</a>
</g>
</g>
<!-- Node7&#45;&gt;Node19 -->
<g id="edge28" class="edge">
<title>Node7&#45;&gt;Node19</title>
<path fill="none" stroke="midnightblue" d="M567.77,-448.99C534.97,-441.43 497.76,-429.53 467.5,-411 438.8,-393.43 414.29,-361.79 401.66,-343.54"/>
<polygon fill="midnightblue" stroke="midnightblue" points="567.27,-452.46 577.79,-451.2 568.78,-445.63 567.27,-452.46"/>
</g>
<!-- Node20 -->
<g id="node20" class="node">
<title>Node20</title>
<g id="a_node20"><a xlink:href="logger_8hpp.html" target="_top" xlink:title="Defines a simple logging function.">
<polygon fill="white" stroke="black" points="535,-380.5 535,-410.5 656,-410.5 656,-380.5 535,-380.5"/>
<text text-anchor="start" x="543" y="-398.5" font-family="Helvetica,sans-Serif" font-size="10.00">include/plssvm/detail</text>
<text text-anchor="middle" x="595.5" y="-387.5" font-family="Helvetica,sans-Serif" font-size="10.00">/logger.hpp</text>
</a>
</g>
</g>
<!-- Node7&#45;&gt;Node20 -->
<g id="edge30" class="edge">
<title>Node7&#45;&gt;Node20</title>
<path fill="none" stroke="midnightblue" d="M630.52,-439.45C622.73,-429.9 613.85,-419 606.98,-410.58"/>
<polygon fill="midnightblue" stroke="midnightblue" points="627.97,-441.86 637,-447.4 633.39,-437.43 627.97,-441.86"/>
</g>
<!-- Node9 -->
<g id="node9" class="node">
<title>Node9</title>
<g id="a_node9"><a xlink:href="backends_2CUDA_2csvm_8hpp.html" target="_top" xlink:title="Defines a C&#45;SVM using the CUDA backend.">
<polygon fill="white" stroke="black" points="0,-0.5 0,-30.5 139,-30.5 139,-0.5 0,-0.5"/>
<text text-anchor="start" x="8" y="-18.5" font-family="Helvetica,sans-Serif" font-size="10.00">include/plssvm/backends</text>
<text text-anchor="middle" x="69.5" y="-7.5" font-family="Helvetica,sans-Serif" font-size="10.00">/CUDA/csvm.hpp</text>
</a>
</g>
</g>
<!-- Node8&#45;&gt;Node9 -->
<g id="edge9" class="edge">
<title>Node8&#45;&gt;Node9</title>
<path fill="none" stroke="midnightblue" d="M305.64,-65.38C253.99,-54.69 186.87,-40.8 137.4,-30.55"/>
<polygon fill="midnightblue" stroke="midnightblue" points="305.25,-68.88 315.75,-67.48 306.67,-62.02 305.25,-68.88"/>
</g>
<!-- Node10 -->
<g id="node10" class="node">
<title>Node10</title>
<g id="a_node10"><a xlink:href="backends_2HIP_2csvm_8hpp.html" target="_top" xlink:title="Defines a C&#45;SVM using the HIP backend.">
<polygon fill="white" stroke="black" points="157,-0.5 157,-30.5 296,-30.5 296,-0.5 157,-0.5"/>
<text text-anchor="start" x="165" y="-18.5" font-family="Helvetica,sans-Serif" font-size="10.00">include/plssvm/backends</text>
<text text-anchor="middle" x="226.5" y="-7.5" font-family="Helvetica,sans-Serif" font-size="10.00">/HIP/csvm.hpp</text>
</a>
</g>
</g>
<!-- Node8&#45;&gt;Node10 -->
<g id="edge10" class="edge">
<title>Node8&#45;&gt;Node10</title>
<path fill="none" stroke="midnightblue" d="M340.13,-63.54C315.01,-53.14 283.84,-40.24 260.5,-30.58"/>
<polygon fill="midnightblue" stroke="midnightblue" points="338.86,-66.8 349.43,-67.4 341.53,-60.34 338.86,-66.8"/>
</g>
<!-- Node11 -->
<g id="node11" class="node">
<title>Node11</title>
<g id="a_node11"><a xlink:href="backends_2OpenCL_2csvm_8hpp.html" target="_top" xlink:title="Defines a C&#45;SVM using the OpenCL backend.">
<polygon fill="white" stroke="black" points="314,-0.5 314,-30.5 453,-30.5 453,-0.5 314,-0.5"/>
<text text-anchor="start" x="322" y="-18.5" font-family="Helvetica,sans-Serif" font-size="10.00">include/plssvm/backends</text>
<text text-anchor="middle" x="383.5" y="-7.5" font-family="Helvetica,sans-Serif" font-size="10.00">/OpenCL/csvm.hpp</text>
</a>
</g>
</g>
<!-- Node8&#45;&gt;Node11 -->
<g id="edge11" class="edge">
<title>Node8&#45;&gt;Node11</title>
<path fill="none" stroke="midnightblue" d="M383.5,-57.11C383.5,-48.15 383.5,-38.32 383.5,-30.58"/>
<polygon fill="midnightblue" stroke="midnightblue" points="380,-57.4 383.5,-67.4 387,-57.4 380,-57.4"/>
</g>
<!-- Node12 -->
<g id="node12" class="node">
<title>Node12</title>
<g id="a_node12"><a xlink:href="backends_2SYCL_2hipSYCL_2csvm_8hpp.html" target="_top" xlink:title="Defines a base C&#45;SVM used for the different SYCL backends using hipSYCL as SYCL implementation.">
<polygon fill="white" stroke="black" points="471,-0.5 471,-30.5 610,-30.5 610,-0.5 471,-0.5"/>
<text text-anchor="start" x="479" y="-18.5" font-family="Helvetica,sans-Serif" font-size="10.00">include/plssvm/backends</text>
<text text-anchor="middle" x="540.5" y="-7.5" font-family="Helvetica,sans-Serif" font-size="10.00">/SYCL/hipSYCL/csvm.hpp</text>
</a>
</g>
</g>
<!-- Node8&#45;&gt;Node12 -->
<g id="edge12" class="edge">
<title>Node8&#45;&gt;Node12</title>
<path fill="none" stroke="midnightblue" d="M426.87,-63.54C451.99,-53.14 483.16,-40.24 506.5,-30.58"/>
<polygon fill="midnightblue" stroke="midnightblue" points="425.47,-60.34 417.57,-67.4 428.14,-66.8 425.47,-60.34"/>
</g>
<!-- Node13 -->
<g id="node13" class="node">
<title>Node13</title>
<g id="a_node13"><a xlink:href="backends_2SYCL_2DPCPP_2csvm_8hpp.html" target="_top" xlink:title="Defines a base C&#45;SVM used for the different SYCL backends using DPC++ as SYCL implementation.">
<polygon fill="white" stroke="black" points="628,-0.5 628,-30.5 767,-30.5 767,-0.5 628,-0.5"/>
<text text-anchor="start" x="636" y="-18.5" font-family="Helvetica,sans-Serif" font-size="10.00">include/plssvm/backends</text>
<text text-anchor="middle" x="697.5" y="-7.5" font-family="Helvetica,sans-Serif" font-size="10.00">/SYCL/DPCPP/csvm.hpp</text>
</a>
</g>
</g>
<!-- Node8&#45;&gt;Node13 -->
<g id="edge13" class="edge">
<title>Node8&#45;&gt;Node13</title>
<path fill="none" stroke="midnightblue" d="M461.36,-65.38C513.01,-54.69 580.13,-40.8 629.6,-30.55"/>
<polygon fill="midnightblue" stroke="midnightblue" points="460.33,-62.02 451.25,-67.48 461.75,-68.88 460.33,-62.02"/>
</g>
<!-- Node14&#45;&gt;Node3 -->
<g id="edge17" class="edge">
<title>Node14&#45;&gt;Node3</title>
<path fill="none" stroke="midnightblue" d="M572.53,-127.01C591.55,-107.11 623.64,-74.79 638.5,-67 668.91,-51.05 757.56,-34.65 816.6,-25.03"/>
<polygon fill="midnightblue" stroke="midnightblue" points="569.83,-124.77 565.49,-134.43 574.91,-129.58 569.83,-124.77"/>
</g>
<!-- Node14&#45;&gt;Node4 -->
<g id="edge18" class="edge">
<title>Node14&#45;&gt;Node4</title>
<path fill="none" stroke="midnightblue" d="M549.38,-125.1C545.37,-116.27 540.6,-105.77 536.86,-97.52"/>
<polygon fill="midnightblue" stroke="midnightblue" points="546.31,-126.82 553.63,-134.48 552.69,-123.92 546.31,-126.82"/>
</g>
<!-- Node14&#45;&gt;Node8 -->
<g id="edge15" class="edge">
<title>Node14&#45;&gt;Node8</title>
<path fill="none" stroke="midnightblue" d="M523.08,-131.23C494.75,-121.54 454.51,-107.78 424.51,-97.52"/>
<polygon fill="midnightblue" stroke="midnightblue" points="521.98,-134.55 532.57,-134.48 524.24,-127.93 521.98,-134.55"/>
</g>
<!-- Node15 -->
<g id="node15" class="node">
<title>Node15</title>
<g id="a_node15"><a xlink:href="backends_2OpenMP_2csvm_8hpp.html" target="_top" xlink:title="Defines a C&#45;SVM using the OpenMP backend.">
<polygon fill="white" stroke="black" points="647,-67.5 647,-97.5 786,-97.5 786,-67.5 647,-67.5"/>
<text text-anchor="start" x="655" y="-85.5" font-family="Helvetica,sans-Serif" font-size="10.00">include/plssvm/backends</text>
<text text-anchor="middle" x="716.5" y="-74.5" font-family="Helvetica,sans-Serif" font-size="10.00">/OpenMP/csvm.hpp</text>
</a>
</g>
</g>
<!-- Node14&#45;&gt;Node15 -->
<g id="edge16" class="edge">
<title>Node14&#45;&gt;Node15</title>
<path fill="none" stroke="midnightblue" d="M589.97,-130.85C615.8,-121.18 651.97,-107.65 679.03,-97.52"/>
<polygon fill="midnightblue" stroke="midnightblue" points="588.42,-127.69 580.28,-134.48 590.87,-134.25 588.42,-127.69"/>
</g>
<!-- Node16&#45;&gt;Node3 -->
<g id="edge20" class="edge">
<title>Node16&#45;&gt;Node3</title>
<path fill="none" stroke="midnightblue" d="M780.81,-310.02C830.21,-291.74 891.5,-257.64 891.5,-201 891.5,-201 891.5,-201 891.5,-143 891.5,-98.14 879.67,-45.31 874.68,-25.02"/>
<polygon fill="midnightblue" stroke="midnightblue" points="779.36,-306.82 771.11,-313.47 781.7,-313.42 779.36,-306.82"/>
</g>
<!-- Node16&#45;&gt;Node6 -->
<g id="edge22" class="edge">
<title>Node16&#45;&gt;Node6</title>
<path fill="none" stroke="midnightblue" d="M786.8,-311.65C832.29,-300.94 891.83,-286.92 935.67,-276.59"/>
<polygon fill="midnightblue" stroke="midnightblue" points="785.95,-308.25 777.02,-313.95 787.56,-315.07 785.95,-308.25"/>
</g>
<!-- Node16&#45;&gt;Node14 -->
<g id="edge21" class="edge">
<title>Node16&#45;&gt;Node14</title>
<path fill="none" stroke="midnightblue" d="M664.39,-309.39C647.06,-301.59 628.95,-290.97 615.5,-277 579.56,-239.67 563.82,-176.41 559.11,-153.55"/>
<polygon fill="midnightblue" stroke="midnightblue" points="663.34,-312.75 673.91,-313.45 666.08,-306.31 663.34,-312.75"/>
</g>
<!-- Node17 -->
<g id="node17" class="node">
<title>Node17</title>
<g id="a_node17"><a xlink:href="libsvm__model__parsing_8hpp.html" target="_top" xlink:title="Implements parsing functions for the LIBSVM model file.">
<polygon fill="white" stroke="black" points="624,-246.5 624,-276.5 787,-276.5 787,-246.5 624,-246.5"/>
<text text-anchor="start" x="632" y="-264.5" font-family="Helvetica,sans-Serif" font-size="10.00">include/plssvm/detail</text>
<text text-anchor="middle" x="705.5" y="-253.5" font-family="Helvetica,sans-Serif" font-size="10.00">/io/libsvm_model_parsing.hpp</text>
</a>
</g>
</g>
<!-- Node16&#45;&gt;Node17 -->
<g id="edge23" class="edge">
<title>Node16&#45;&gt;Node17</title>
<path fill="none" stroke="midnightblue" d="M714.31,-303.4C712.36,-294.37 710.22,-284.41 708.53,-276.58"/>
<polygon fill="midnightblue" stroke="midnightblue" points="710.94,-304.36 716.46,-313.4 717.78,-302.88 710.94,-304.36"/>
</g>
<!-- Node16&#45;&gt;Node18 -->
<g id="edge27" class="edge">
<title>Node16&#45;&gt;Node18</title>
<path fill="none" stroke="midnightblue" d="M764.3,-308.37C777.02,-300.6 789.34,-290.26 796.5,-277 803.05,-264.88 801.98,-258.64 796.5,-246 789.69,-230.28 774.38,-217.53 762.87,-209.67"/>
<polygon fill="midnightblue" stroke="midnightblue" points="762.48,-305.38 755.49,-313.35 765.92,-311.48 762.48,-305.38"/>
</g>
<!-- Node17&#45;&gt;Node18 -->
<g id="edge24" class="edge">
<title>Node17&#45;&gt;Node18</title>
<path fill="none" stroke="midnightblue" d="M721.69,-238.1C728.85,-228.19 736.86,-217.11 742.24,-209.66"/>
<polygon fill="midnightblue" stroke="midnightblue" points="718.71,-236.24 715.69,-246.4 724.38,-240.34 718.71,-236.24"/>
</g>
<!-- Node18&#45;&gt;Node3 -->
<g id="edge25" class="edge">
<title>Node18&#45;&gt;Node3</title>
<path fill="none" stroke="midnightblue" d="M760.26,-181.7C786.14,-143.6 847.31,-53.57 866.58,-25.21"/>
<polygon fill="midnightblue" stroke="midnightblue" points="757.21,-179.96 754.48,-190.2 763,-183.89 757.21,-179.96"/>
</g>
<!-- Node18&#45;&gt;Node14 -->
<g id="edge26" class="edge">
<title>Node18&#45;&gt;Node14</title>
<path fill="none" stroke="midnightblue" d="M708.53,-187.7C672.48,-177.51 620.26,-162.74 587.62,-153.52"/>
<polygon fill="midnightblue" stroke="midnightblue" points="707.66,-191.09 718.24,-190.44 709.56,-184.35 707.66,-191.09"/>
</g>
<!-- Node19&#45;&gt;Node8 -->
<g id="edge29" class="edge">
<title>Node19&#45;&gt;Node8</title>
<path fill="none" stroke="midnightblue" d="M391.61,-303.33C389.75,-252.92 385.51,-137.94 384.02,-97.71"/>
<polygon fill="midnightblue" stroke="midnightblue" points="388.11,-303.46 391.98,-313.33 395.11,-303.2 388.11,-303.46"/>
</g>
<!-- Node20&#45;&gt;Node8 -->
<g id="edge31" class="edge">
<title>Node20&#45;&gt;Node8</title>
<path fill="none" stroke="midnightblue" d="M580.07,-371.86C538.83,-311.36 426.9,-147.16 393.22,-97.75"/>
<polygon fill="midnightblue" stroke="midnightblue" points="577.32,-374.04 585.84,-380.33 583.1,-370.09 577.32,-374.04"/>
</g>
<!-- Node20&#45;&gt;Node14 -->
<g id="edge32" class="edge">
<title>Node20&#45;&gt;Node14</title>
<path fill="none" stroke="midnightblue" d="M590.54,-370.5C588.87,-362.13 587.04,-352.66 585.5,-344 574.98,-284.64 572.4,-269.76 564.5,-210 561.85,-189.97 559.5,-166.37 558.32,-153.85"/>
<polygon fill="midnightblue" stroke="midnightblue" points="587.13,-371.27 592.55,-380.38 593.99,-369.88 587.13,-371.27"/>
</g>
<!-- Node20&#45;&gt;Node16 -->
<g id="edge33" class="edge">
<title>Node20&#45;&gt;Node16</title>
<path fill="none" stroke="midnightblue" d="M631.34,-375.71C650.89,-365.46 674.7,-352.98 692.65,-343.58"/>
<polygon fill="midnightblue" stroke="midnightblue" points="629.64,-372.65 622.41,-380.4 632.89,-378.85 629.64,-372.65"/>
</g>
<!-- Node20&#45;&gt;Node17 -->
<g id="edge34" class="edge">
<title>Node20&#45;&gt;Node17</title>
<path fill="none" stroke="midnightblue" d="M610.07,-371.75C621.22,-354.93 637.37,-331.79 653.5,-313 664.65,-300.01 678.63,-286.57 689.28,-276.82"/>
<polygon fill="midnightblue" stroke="midnightblue" points="606.97,-370.09 604.42,-380.38 612.83,-373.93 606.97,-370.09"/>
</g>
<!-- Node20&#45;&gt;Node18 -->
<g id="edge36" class="edge">
<title>Node20&#45;&gt;Node18</title>
<path fill="none" stroke="midnightblue" d="M591.57,-370.04C587.84,-337.84 586.5,-281.2 615.5,-246 631.23,-226.91 655.4,-215.88 678.84,-209.52"/>
<polygon fill="midnightblue" stroke="midnightblue" points="588.15,-370.89 592.94,-380.34 595.09,-369.96 588.15,-370.89"/>
</g>
<!-- Node20&#45;&gt;Node19 -->
<g id="edge35" class="edge">
<title>Node20&#45;&gt;Node19</title>
<path fill="none" stroke="midnightblue" d="M541.56,-377.23C508.72,-366.71 467.3,-353.45 436.46,-343.58"/>
<polygon fill="midnightblue" stroke="midnightblue" points="540.86,-380.68 551.45,-380.4 543,-374.01 540.86,-380.68"/>
</g>
<!-- Node21&#45;&gt;Node6 -->
<g id="edge39" class="edge">
<title>Node21&#45;&gt;Node6</title>
<path fill="none" stroke="midnightblue" d="M905.81,-506.2C911.59,-497.66 917.81,-487.65 922.5,-478 957.75,-405.53 983.17,-311.72 992.05,-276.59"/>
<polygon fill="midnightblue" stroke="midnightblue" points="902.88,-504.28 900.04,-514.49 908.63,-508.28 902.88,-504.28"/>
</g>
<!-- Node21&#45;&gt;Node7 -->
<g id="edge40" class="edge">
<title>Node21&#45;&gt;Node7</title>
<path fill="none" stroke="midnightblue" d="M827.77,-511.85C788.47,-501.25 738.14,-487.68 700.82,-477.61"/>
<polygon fill="midnightblue" stroke="midnightblue" points="826.94,-515.25 837.5,-514.48 828.76,-508.49 826.94,-515.25"/>
</g>
</g>
</svg>
        <g id="navigator" transform="translate(0 0)" fill="#404254">
                <rect fill="#f2f5e9" fill-opacity="0.5" stroke="#606060" stroke-width=".5" x="0" y="0" width="60" height="60"/>
                <use id="zoomplus" xlink:href="#zoomPlus" x="17" y="9" onmousedown="handleZoom(evt,'in')"/>
                <use id="zoomminus" xlink:href="#zoomMin" x="42" y="9" onmousedown="handleZoom(evt,'out')"/>
                <use id="reset" xlink:href="#resetDef" x="30" y="36" onmousedown="handleReset()"/>
                <g id="arrowUp" xlink:href="#dirArrow" transform="translate(30 24)" onmousedown="handlePan(0,-1)">
                  <use xlink:href="#rim" fill="#404040">
                        <set attributeName="fill" to="#808080" begin="arrowUp.mouseover" end="arrowUp.mouseout"/>
                  </use>
                  <path fill="none" stroke="white" stroke-width="1.5" d="M0,-3.0v7 M-2.5,-0.5L0,-3.0L2.5,-0.5"/>
                </g>
                <g id="arrowRight" xlink:href="#dirArrow" transform="rotate(90) translate(36 -43)" onmousedown="handlePan(1,0)">
                  <use xlink:href="#rim" fill="#404040">
                        <set attributeName="fill" to="#808080" begin="arrowRight.mouseover" end="arrowRight.mouseout"/>
                  </use>
                  <path fill="none" stroke="white" stroke-width="1.5" d="M0,-3.0v7 M-2.5,-0.5L0,-3.0L2.5,-0.5"/>
                </g>
                <g id="arrowDown" xlink:href="#dirArrow" transform="rotate(180) translate(-30 -48)" onmousedown="handlePan(0,1)">
                  <use xlink:href="#rim" fill="#404040">
                        <set attributeName="fill" to="#808080" begin="arrowDown.mouseover" end="arrowDown.mouseout"/>
                  </use>
                  <path fill="none" stroke="white" stroke-width="1.5" d="M0,-3.0v7 M-2.5,-0.5L0,-3.0L2.5,-0.5"/>
                </g>
                <g id="arrowLeft" xlink:href="#dirArrow" transform="rotate(270) translate(-36 17)" onmousedown="handlePan(-1,0)">
                  <use xlink:href="#rim" fill="#404040">
                        <set attributeName="fill" to="#808080" begin="arrowLeft.mouseover" end="arrowLeft.mouseout"/>
                  </use>
                  <path fill="none" stroke="white" stroke-width="1.5" d="M0,-3.0v7 M-2.5,-0.5L0,-3.0L2.5,-0.5"/>
                </g>
        </g>
        <svg viewBox="0 0 15 15" width="100%" height="30px" preserveAspectRatio="xMaxYMin meet">
         <g id="arrow_out" transform="scale(0.3 0.3)">
          <a xlink:href="implementation__type_8hpp__dep__incl_org.svg" target="_base">
           <rect id="button" ry="5" rx="5" y="6" x="6" height="38" width="38"
                fill="#f2f5e9" fill-opacity="0.5" stroke="#606060" stroke-width="1.0"/>
           <path id="arrow"
             d="M 11.500037,31.436501 C 11.940474,20.09759 22.043105,11.32322 32.158766,21.979434 L 37.068811,17.246167 C 37.068811,17.246167 37.088388,32 37.088388,32 L 22.160133,31.978069 C 22.160133,31.978069 26.997745,27.140456 26.997745,27.140456 C 18.528582,18.264221 13.291696,25.230495 11.500037,31.436501 z"
             style="fill:#404040;"/>
          </a>
         </g>
        </svg>
</svg>
