<?xml version="1.0" encoding="UTF-8" standalone="no"?>
<!DOCTYPE svg PUBLIC "-//W3C//DTD SVG 1.1//EN"
 "http://www.w3.org/Graphics/SVG/1.1/DTD/svg11.dtd">
<!-- Generated by graphviz version 2.43.0 (0)
 -->
<!-- Title: Graphical Class Hierarchy Pages: 1 -->
<svg width="296pt" height="39pt"
 viewBox="0.00 0.00 296.00 39.00" xmlns="http://www.w3.org/2000/svg" xmlns:xlink="http://www.w3.org/1999/xlink">
<g id="graph0" class="graph" transform="scale(1 1) rotate(0) translate(4 35)">
<title>Graphical Class Hierarchy</title>
<polygon fill="white" stroke="transparent" points="-4,4 -4,-35 292,-35 292,4 -4,4"/>
<!-- Node19 -->
<g id="node1" class="node">
<title>Node19</title>
<g id="a_node1"><a xlink:title=" ">
<polygon fill="white" stroke="#bfbfbf" points="0,-0.5 0,-30.5 122,-30.5 122,-0.5 0,-0.5"/>
<text text-anchor="start" x="8" y="-18.5" font-family="Helvetica,sans-Serif" font-size="10.00">detail::csvm_backend</text>
<text text-anchor="middle" x="61" y="-7.5" font-family="Helvetica,sans-Serif" font-size="10.00">_exists</text>
</a>
</g>
</g>
<!-- Node0 -->
<g id="node2" class="node">
<title>Node0</title>
<g id="a_node2"><a xlink:href="structplssvm_1_1csvm__backend__exists.html" target="_top" xlink:title="Sets the value of the value member to true if T is a C&#45;SVM using an available backend....">
<polygon fill="white" stroke="black" points="158,-0.5 158,-30.5 288,-30.5 288,-0.5 158,-0.5"/>
<text text-anchor="start" x="166" y="-18.5" font-family="Helvetica,sans-Serif" font-size="10.00">plssvm::csvm_backend</text>
<text text-anchor="middle" x="223" y="-7.5" font-family="Helvetica,sans-Serif" font-size="10.00">_exists&lt; T &gt;</text>
</a>
</g>
</g>
<!-- Node19&#45;&gt;Node0 -->
<g id="edge1" class="edge">
<title>Node19&#45;&gt;Node0</title>
<path fill="none" stroke="midnightblue" d="M132.31,-15.5C140.82,-15.5 149.47,-15.5 157.88,-15.5"/>
<polygon fill="midnightblue" stroke="midnightblue" points="132.03,-12 122.03,-15.5 132.03,-19 132.03,-12"/>
</g>
</g>
</svg>
