<?xml version="1.0" encoding="UTF-8" standalone="no"?>
<!DOCTYPE svg PUBLIC "-//W3C//DTD SVG 1.1//EN"
 "http://www.w3.org/Graphics/SVG/1.1/DTD/svg11.dtd">
<!-- Generated by graphviz version 2.43.0 (0)
 -->
<!-- Title: Graphical Class Hierarchy Pages: 1 -->
<svg width="248pt" height="39pt"
 viewBox="0.00 0.00 248.00 39.00" xmlns="http://www.w3.org/2000/svg" xmlns:xlink="http://www.w3.org/1999/xlink">
<g id="graph0" class="graph" transform="scale(1 1) rotate(0) translate(4 35)">
<title>Graphical Class Hierarchy</title>
<polygon fill="white" stroke="transparent" points="-4,4 -4,-35 244,-35 244,4 -4,4"/>
<!-- Node75 -->
<g id="node1" class="node">
<title>Node75</title>
<g id="a_node1"><a xlink:title=" ">
<polygon fill="white" stroke="#bfbfbf" points="0,-0.5 0,-30.5 98,-30.5 98,-0.5 0,-0.5"/>
<text text-anchor="start" x="8" y="-18.5" font-family="Helvetica,sans-Serif" font-size="10.00">detail::is_default</text>
<text text-anchor="middle" x="49" y="-7.5" font-family="Helvetica,sans-Serif" font-size="10.00">_value</text>
</a>
</g>
</g>
<!-- Node0 -->
<g id="node2" class="node">
<title>Node0</title>
<g id="a_node2"><a xlink:href="structplssvm_1_1is__default__value.html" target="_top" xlink:title="Test whether the given type T is of type plssvm::default_value ignoring all top&#45;level const,...">
<polygon fill="white" stroke="black" points="134,-0.5 134,-30.5 240,-30.5 240,-0.5 134,-0.5"/>
<text text-anchor="start" x="142" y="-18.5" font-family="Helvetica,sans-Serif" font-size="10.00">plssvm::is_default</text>
<text text-anchor="middle" x="187" y="-7.5" font-family="Helvetica,sans-Serif" font-size="10.00">_value&lt; T &gt;</text>
</a>
</g>
</g>
<!-- Node75&#45;&gt;Node0 -->
<g id="edge1" class="edge">
<title>Node75&#45;&gt;Node0</title>
<path fill="none" stroke="midnightblue" d="M108.43,-15.5C116.82,-15.5 125.41,-15.5 133.67,-15.5"/>
<polygon fill="midnightblue" stroke="midnightblue" points="108.33,-12 98.33,-15.5 108.33,-19 108.33,-12"/>
</g>
</g>
</svg>
