<?xml version="1.0" encoding="UTF-8" standalone="no"?>
<!DOCTYPE svg PUBLIC "-//W3C//DTD SVG 1.1//EN"
 "http://www.w3.org/Graphics/SVG/1.1/DTD/svg11.dtd">
<!-- Generated by graphviz version 2.43.0 (0)
 -->
<!-- Title: Graphical Class Hierarchy Pages: 1 -->
<svg width="257pt" height="50pt"
 viewBox="0.00 0.00 257.00 50.00" xmlns="http://www.w3.org/2000/svg" xmlns:xlink="http://www.w3.org/1999/xlink">
<g id="graph0" class="graph" transform="scale(1 1) rotate(0) translate(4 46)">
<title>Graphical Class Hierarchy</title>
<polygon fill="white" stroke="transparent" points="-4,4 -4,-46 253,-46 253,4 -4,4"/>
<!-- Node39 -->
<g id="node1" class="node">
<title>Node39</title>
<g id="a_node1"><a xlink:title=" ">
<polygon fill="white" stroke="#bfbfbf" points="0,-11.5 0,-30.5 91,-30.5 91,-11.5 0,-11.5"/>
<text text-anchor="middle" x="45.5" y="-18.5" font-family="Helvetica,sans-Serif" font-size="10.00">std::disjunction</text>
</a>
</g>
</g>
<!-- Node0 -->
<g id="node2" class="node">
<title>Node0</title>
<g id="a_node2"><a xlink:href="structplssvm_1_1detail_1_1type__list__contains_3_01T_00_01std_1_1tuple_3_01Types_8_8_8_01_4_01_4.html" target="_top" xlink:title="Checks whether the type T is present in the tuple Types.">
<polygon fill="white" stroke="black" points="127,-0.5 127,-41.5 249,-41.5 249,-0.5 127,-0.5"/>
<text text-anchor="start" x="135" y="-29.5" font-family="Helvetica,sans-Serif" font-size="10.00">plssvm::detail::type</text>
<text text-anchor="start" x="135" y="-18.5" font-family="Helvetica,sans-Serif" font-size="10.00">_list_contains&lt; T, std</text>
<text text-anchor="middle" x="188" y="-7.5" font-family="Helvetica,sans-Serif" font-size="10.00">::tuple&lt; Types... &gt; &gt;</text>
</a>
</g>
</g>
<!-- Node39&#45;&gt;Node0 -->
<g id="edge1" class="edge">
<title>Node39&#45;&gt;Node0</title>
<path fill="none" stroke="midnightblue" d="M101.38,-21C109.77,-21 118.46,-21 126.95,-21"/>
<polygon fill="midnightblue" stroke="midnightblue" points="101.34,-17.5 91.34,-21 101.34,-24.5 101.34,-17.5"/>
</g>
</g>
</svg>
