<?xml version="1.0" encoding="UTF-8" standalone="no"?>
<!DOCTYPE svg PUBLIC "-//W3C//DTD SVG 1.1//EN"
 "http://www.w3.org/Graphics/SVG/1.1/DTD/svg11.dtd">
<!-- Generated by graphviz version 2.43.0 (0)
 -->
<!-- Title: Graphical Class Hierarchy Pages: 1 -->
<svg width="307pt" height="88pt"
 viewBox="0.00 0.00 307.00 88.00" xmlns="http://www.w3.org/2000/svg" xmlns:xlink="http://www.w3.org/1999/xlink">
<g id="graph0" class="graph" transform="scale(1 1) rotate(0) translate(4 84)">
<title>Graphical Class Hierarchy</title>
<polygon fill="white" stroke="transparent" points="-4,4 -4,-84 303,-84 303,4 -4,4"/>
<!-- Node0 -->
<g id="node1" class="node">
<title>Node0</title>
<g id="a_node1"><a xlink:href="classplssvm_1_1detail_1_1gpu__device__ptr.html" target="_top" xlink:title=" ">
<polygon fill="white" stroke="black" points="0,-24.5 0,-54.5 137,-54.5 137,-24.5 0,-24.5"/>
<text text-anchor="start" x="8" y="-42.5" font-family="Helvetica,sans-Serif" font-size="10.00">plssvm::detail::gpu</text>
<text text-anchor="middle" x="68.5" y="-31.5" font-family="Helvetica,sans-Serif" font-size="10.00">_device_ptr&lt; T, queue &gt;</text>
</a>
</g>
</g>
<!-- Node1 -->
<g id="node2" class="node">
<title>Node1</title>
<g id="a_node2"><a xlink:href="classplssvm_1_1dpcpp_1_1detail_1_1device__ptr.html" target="_top" xlink:title="Small wrapper class around a DPC++ device pointer together with commonly used device functions.">
<polygon fill="white" stroke="black" points="175.5,-49.5 175.5,-79.5 296.5,-79.5 296.5,-49.5 175.5,-49.5"/>
<text text-anchor="start" x="183.5" y="-67.5" font-family="Helvetica,sans-Serif" font-size="10.00">plssvm::dpcpp::detail</text>
<text text-anchor="middle" x="236" y="-56.5" font-family="Helvetica,sans-Serif" font-size="10.00">::device_ptr&lt; T &gt;</text>
</a>
</g>
</g>
<!-- Node0&#45;&gt;Node1 -->
<g id="edge1" class="edge">
<title>Node0&#45;&gt;Node1</title>
<path fill="none" stroke="midnightblue" d="M147.4,-51.27C156.77,-52.68 166.22,-54.11 175.27,-55.48"/>
<polygon fill="midnightblue" stroke="midnightblue" points="147.7,-47.77 137.29,-49.74 146.66,-54.7 147.7,-47.77"/>
</g>
<!-- Node2 -->
<g id="node3" class="node">
<title>Node2</title>
<g id="a_node3"><a xlink:href="classplssvm_1_1hipsycl_1_1detail_1_1device__ptr.html" target="_top" xlink:title="Small wrapper class around a hipSYCL device pointer together with commonly used device functions.">
<polygon fill="white" stroke="black" points="173,-0.5 173,-30.5 299,-30.5 299,-0.5 173,-0.5"/>
<text text-anchor="start" x="181" y="-18.5" font-family="Helvetica,sans-Serif" font-size="10.00">plssvm::hipsycl::detail</text>
<text text-anchor="middle" x="236" y="-7.5" font-family="Helvetica,sans-Serif" font-size="10.00">::device_ptr&lt; T &gt;</text>
</a>
</g>
</g>
<!-- Node0&#45;&gt;Node2 -->
<g id="edge2" class="edge">
<title>Node0&#45;&gt;Node2</title>
<path fill="none" stroke="midnightblue" d="M147.31,-28.22C155.89,-26.97 164.55,-25.72 172.9,-24.51"/>
<polygon fill="midnightblue" stroke="midnightblue" points="146.69,-24.77 137.29,-29.67 147.69,-31.7 146.69,-24.77"/>
</g>
</g>
</svg>
