<?xml version="1.0" encoding="UTF-8" standalone="no"?>
<!DOCTYPE svg PUBLIC "-//W3C//DTD SVG 1.1//EN"
 "http://www.w3.org/Graphics/SVG/1.1/DTD/svg11.dtd">
<!-- Generated by graphviz version 2.43.0 (0)
 -->
<!-- Title: Graphical Class Hierarchy Pages: 1 -->
<svg width="279pt" height="88pt"
 viewBox="0.00 0.00 279.00 88.00" xmlns="http://www.w3.org/2000/svg" xmlns:xlink="http://www.w3.org/1999/xlink">
<g id="graph0" class="graph" transform="scale(1 1) rotate(0) translate(4 84)">
<title>Graphical Class Hierarchy</title>
<polygon fill="white" stroke="transparent" points="-4,4 -4,-84 275,-84 275,4 -4,4"/>
<!-- Node0 -->
<g id="node1" class="node">
<title>Node0</title>
<g id="a_node1"><a xlink:href="classplssvm_1_1detail_1_1gpu__device__ptr.html" target="_top" xlink:title=" ">
<polygon fill="white" stroke="black" points="0,-24.5 0,-54.5 120,-54.5 120,-24.5 0,-24.5"/>
<text text-anchor="start" x="8" y="-42.5" font-family="Helvetica,sans-Serif" font-size="10.00">plssvm::detail::gpu</text>
<text text-anchor="middle" x="60" y="-31.5" font-family="Helvetica,sans-Serif" font-size="10.00">_device_ptr&lt; T, int &gt;</text>
</a>
</g>
</g>
<!-- Node1 -->
<g id="node2" class="node">
<title>Node1</title>
<g id="a_node2"><a xlink:href="classplssvm_1_1cuda_1_1detail_1_1device__ptr.html" target="_top" xlink:title="Small wrapper class around a CUDA device pointer together with commonly used device functions.">
<polygon fill="white" stroke="black" points="156,-49.5 156,-79.5 271,-79.5 271,-49.5 156,-49.5"/>
<text text-anchor="start" x="164" y="-67.5" font-family="Helvetica,sans-Serif" font-size="10.00">plssvm::cuda::detail</text>
<text text-anchor="middle" x="213.5" y="-56.5" font-family="Helvetica,sans-Serif" font-size="10.00">::device_ptr&lt; T &gt;</text>
</a>
</g>
</g>
<!-- Node0&#45;&gt;Node1 -->
<g id="edge1" class="edge">
<title>Node0&#45;&gt;Node1</title>
<path fill="none" stroke="midnightblue" d="M130.07,-50.9C138.71,-52.32 147.47,-53.77 155.89,-55.16"/>
<polygon fill="midnightblue" stroke="midnightblue" points="130.44,-47.41 120.01,-49.24 129.3,-54.32 130.44,-47.41"/>
</g>
<!-- Node2 -->
<g id="node3" class="node">
<title>Node2</title>
<g id="a_node3"><a xlink:href="classplssvm_1_1hip_1_1detail_1_1device__ptr.html" target="_top" xlink:title="Small wrapper class around a HIP device pointer together with commonly used device functions.">
<polygon fill="white" stroke="black" points="160,-0.5 160,-30.5 267,-30.5 267,-0.5 160,-0.5"/>
<text text-anchor="start" x="168" y="-18.5" font-family="Helvetica,sans-Serif" font-size="10.00">plssvm::hip::detail</text>
<text text-anchor="middle" x="213.5" y="-7.5" font-family="Helvetica,sans-Serif" font-size="10.00">::device_ptr&lt; T &gt;</text>
</a>
</g>
</g>
<!-- Node0&#45;&gt;Node2 -->
<g id="edge2" class="edge">
<title>Node0&#45;&gt;Node2</title>
<path fill="none" stroke="midnightblue" d="M129.96,-28.58C139.99,-26.99 150.18,-25.37 159.82,-23.85"/>
<polygon fill="midnightblue" stroke="midnightblue" points="129.34,-25.13 120.01,-30.15 130.43,-32.04 129.34,-25.13"/>
</g>
</g>
</svg>
