<?xml version="1.0" encoding="UTF-8" standalone="no"?>
<!DOCTYPE svg PUBLIC "-//W3C//DTD SVG 1.1//EN"
 "http://www.w3.org/Graphics/SVG/1.1/DTD/svg11.dtd">
<!-- Generated by graphviz version 2.43.0 (0)
 -->
<!-- Title: Graphical Class Hierarchy Pages: 1 -->
<svg width="442pt" height="747pt"
 viewBox="0.00 0.00 442.00 747.00" xmlns="http://www.w3.org/2000/svg" xmlns:xlink="http://www.w3.org/1999/xlink">
<g id="graph0" class="graph" transform="scale(1 1) rotate(0) translate(4 743)">
<title>Graphical Class Hierarchy</title>
<polygon fill="white" stroke="transparent" points="-4,4 -4,-743 438,-743 438,4 -4,4"/>
<!-- Node44 -->
<g id="node1" class="node">
<title>Node44</title>
<g id="a_node1"><a xlink:title=" ">
<polygon fill="white" stroke="#bfbfbf" points="0,-349 0,-368 89,-368 89,-349 0,-349"/>
<text text-anchor="middle" x="44.5" y="-356" font-family="Helvetica,sans-Serif" font-size="10.00">std::false_type</text>
</a>
</g>
</g>
<!-- Node0 -->
<g id="node2" class="node">
<title>Node0</title>
<g id="a_node2"><a xlink:href="structplssvm_1_1detail_1_1impl_1_1is__tracking__entry.html" target="_top" xlink:title=" ">
<polygon fill="white" stroke="black" points="140.5,-686.5 140.5,-738.5 261.5,-738.5 261.5,-686.5 140.5,-686.5"/>
<text text-anchor="start" x="148.5" y="-726.5" font-family="Helvetica,sans-Serif" font-size="10.00">plssvm::detail::impl</text>
<text text-anchor="start" x="148.5" y="-715.5" font-family="Helvetica,sans-Serif" font-size="10.00">::is_tracking_entry&lt;</text>
<text text-anchor="start" x="148.5" y="-704.5" font-family="Helvetica,sans-Serif" font-size="10.00"> detail::remove_cvref</text>
<text text-anchor="middle" x="201" y="-693.5" font-family="Helvetica,sans-Serif" font-size="10.00">_t&lt; T &gt; &gt;</text>
</a>
</g>
</g>
<!-- Node44&#45;&gt;Node0 -->
<g id="edge1" class="edge">
<title>Node44&#45;&gt;Node0</title>
<path fill="none" stroke="midnightblue" d="M44.87,-378.47C44.22,-432.91 49.59,-585.99 125,-677.5 129.29,-682.71 134.54,-687.19 140.24,-691.03"/>
<polygon fill="midnightblue" stroke="midnightblue" points="48.38,-378.21 45.09,-368.14 41.38,-378.06 48.38,-378.21"/>
</g>
<!-- Node47 -->
<g id="node4" class="node">
<title>Node47</title>
<g id="a_node4"><a xlink:href="structplssvm_1_1detail_1_1impl_1_1is__tracking__entry.html" target="_top" xlink:title="Sets the value to false since it isn&#39;t a tracking entry.">
<polygon fill="white" stroke="black" points="133.5,-637.5 133.5,-667.5 268.5,-667.5 268.5,-637.5 133.5,-637.5"/>
<text text-anchor="start" x="141.5" y="-655.5" font-family="Helvetica,sans-Serif" font-size="10.00">plssvm::detail::impl</text>
<text text-anchor="middle" x="201" y="-644.5" font-family="Helvetica,sans-Serif" font-size="10.00">::is_tracking_entry&lt; T &gt;</text>
</a>
</g>
</g>
<!-- Node44&#45;&gt;Node47 -->
<g id="edge3" class="edge">
<title>Node44&#45;&gt;Node47</title>
<path fill="none" stroke="midnightblue" d="M45.38,-378.47C46.21,-427.91 55.29,-557.15 125,-628.5 128.34,-631.92 132.18,-634.86 136.3,-637.38"/>
<polygon fill="midnightblue" stroke="midnightblue" points="48.88,-378.17 45.32,-368.19 41.88,-378.21 48.88,-378.17"/>
</g>
<!-- Node48 -->
<g id="node5" class="node">
<title>Node48</title>
<g id="a_node5"><a xlink:href="structplssvm_1_1detail_1_1is__array.html" target="_top" xlink:title="Type trait to check whether T is a std::array.">
<polygon fill="white" stroke="black" points="151,-588.5 151,-618.5 251,-618.5 251,-588.5 151,-588.5"/>
<text text-anchor="start" x="159" y="-606.5" font-family="Helvetica,sans-Serif" font-size="10.00">plssvm::detail::is</text>
<text text-anchor="middle" x="201" y="-595.5" font-family="Helvetica,sans-Serif" font-size="10.00">_array&lt; T &gt;</text>
</a>
</g>
</g>
<!-- Node44&#45;&gt;Node48 -->
<g id="edge4" class="edge">
<title>Node44&#45;&gt;Node48</title>
<path fill="none" stroke="midnightblue" d="M46.9,-378.25C51,-421.1 66.68,-523.22 125,-579.5 132.18,-586.43 141.37,-591.36 150.83,-594.87"/>
<polygon fill="midnightblue" stroke="midnightblue" points="50.37,-377.72 46.04,-368.05 43.39,-378.3 50.37,-377.72"/>
</g>
<!-- Node49 -->
<g id="node6" class="node">
<title>Node49</title>
<g id="a_node6"><a xlink:href="structplssvm_1_1detail_1_1is__deque.html" target="_top" xlink:title="Type trait to check whether T is a std::deque.">
<polygon fill="white" stroke="black" points="151,-539.5 151,-569.5 251,-569.5 251,-539.5 151,-539.5"/>
<text text-anchor="start" x="159" y="-557.5" font-family="Helvetica,sans-Serif" font-size="10.00">plssvm::detail::is</text>
<text text-anchor="middle" x="201" y="-546.5" font-family="Helvetica,sans-Serif" font-size="10.00">_deque&lt; T &gt;</text>
</a>
</g>
</g>
<!-- Node44&#45;&gt;Node49 -->
<g id="edge5" class="edge">
<title>Node44&#45;&gt;Node49</title>
<path fill="none" stroke="midnightblue" d="M49.24,-378.43C56.97,-414.1 78.07,-489.02 125,-530.5 132.38,-537.02 141.54,-541.77 150.89,-545.23"/>
<polygon fill="midnightblue" stroke="midnightblue" points="52.61,-377.42 47.18,-368.31 45.75,-378.81 52.61,-377.42"/>
</g>
<!-- Node50 -->
<g id="node7" class="node">
<title>Node50</title>
<g id="a_node7"><a xlink:href="structplssvm_1_1detail_1_1is__forward__list.html" target="_top" xlink:title="Type trait to check whether T is a std::forward_list.">
<polygon fill="white" stroke="black" points="147,-490.5 147,-520.5 255,-520.5 255,-490.5 147,-490.5"/>
<text text-anchor="start" x="155" y="-508.5" font-family="Helvetica,sans-Serif" font-size="10.00">plssvm::detail::is</text>
<text text-anchor="middle" x="201" y="-497.5" font-family="Helvetica,sans-Serif" font-size="10.00">_forward_list&lt; T &gt;</text>
</a>
</g>
</g>
<!-- Node44&#45;&gt;Node50 -->
<g id="edge6" class="edge">
<title>Node44&#45;&gt;Node50</title>
<path fill="none" stroke="midnightblue" d="M52.9,-377.59C64.33,-404.61 88.82,-453.8 125,-481.5 131.51,-486.49 139.09,-490.45 146.88,-493.61"/>
<polygon fill="midnightblue" stroke="midnightblue" points="56.05,-376.04 49.04,-368.1 49.57,-378.68 56.05,-376.04"/>
</g>
<!-- Node51 -->
<g id="node8" class="node">
<title>Node51</title>
<g id="a_node8"><a xlink:href="structplssvm_1_1detail_1_1is__list.html" target="_top" xlink:title="Type trait to check whether T is a std::list.">
<polygon fill="white" stroke="black" points="151,-441.5 151,-471.5 251,-471.5 251,-441.5 151,-441.5"/>
<text text-anchor="start" x="159" y="-459.5" font-family="Helvetica,sans-Serif" font-size="10.00">plssvm::detail::is</text>
<text text-anchor="middle" x="201" y="-448.5" font-family="Helvetica,sans-Serif" font-size="10.00">_list&lt; T &gt;</text>
</a>
</g>
</g>
<!-- Node44&#45;&gt;Node51 -->
<g id="edge7" class="edge">
<title>Node44&#45;&gt;Node51</title>
<path fill="none" stroke="midnightblue" d="M60.12,-375.99C74.91,-392.67 99.23,-417.41 125,-432.5 132.9,-437.13 141.81,-440.98 150.65,-444.14"/>
<polygon fill="midnightblue" stroke="midnightblue" points="62.48,-373.37 53.29,-368.1 57.19,-377.95 62.48,-373.37"/>
</g>
<!-- Node52 -->
<g id="node9" class="node">
<title>Node52</title>
<g id="a_node9"><a xlink:href="structplssvm_1_1detail_1_1is__map.html" target="_top" xlink:title="Type trait to check whether T is a std::map.">
<polygon fill="white" stroke="black" points="151,-392.5 151,-422.5 251,-422.5 251,-392.5 151,-392.5"/>
<text text-anchor="start" x="159" y="-410.5" font-family="Helvetica,sans-Serif" font-size="10.00">plssvm::detail::is</text>
<text text-anchor="middle" x="201" y="-399.5" font-family="Helvetica,sans-Serif" font-size="10.00">_map&lt; T &gt;</text>
</a>
</g>
</g>
<!-- Node44&#45;&gt;Node52 -->
<g id="edge8" class="edge">
<title>Node44&#45;&gt;Node52</title>
<path fill="none" stroke="midnightblue" d="M85.33,-371.13C105.86,-377.64 131.05,-385.63 152.59,-392.46"/>
<polygon fill="midnightblue" stroke="midnightblue" points="86.25,-367.75 75.66,-368.06 84.13,-374.42 86.25,-367.75"/>
</g>
<!-- Node53 -->
<g id="node10" class="node">
<title>Node53</title>
<g id="a_node10"><a xlink:href="structplssvm_1_1detail_1_1is__multimap.html" target="_top" xlink:title="Type trait to check whether T is a std::multimap.">
<polygon fill="white" stroke="black" points="151,-343.5 151,-373.5 251,-373.5 251,-343.5 151,-343.5"/>
<text text-anchor="start" x="159" y="-361.5" font-family="Helvetica,sans-Serif" font-size="10.00">plssvm::detail::is</text>
<text text-anchor="middle" x="201" y="-350.5" font-family="Helvetica,sans-Serif" font-size="10.00">_multimap&lt; T &gt;</text>
</a>
</g>
</g>
<!-- Node44&#45;&gt;Node53 -->
<g id="edge9" class="edge">
<title>Node44&#45;&gt;Node53</title>
<path fill="none" stroke="midnightblue" d="M99.52,-358.5C116.22,-358.5 134.52,-358.5 150.87,-358.5"/>
<polygon fill="midnightblue" stroke="midnightblue" points="99.36,-355 89.36,-358.5 99.36,-362 99.36,-355"/>
</g>
<!-- Node54 -->
<g id="node11" class="node">
<title>Node54</title>
<g id="a_node11"><a xlink:href="structplssvm_1_1detail_1_1is__multiset.html" target="_top" xlink:title="Type trait to check whether T is a std::multiset.">
<polygon fill="white" stroke="black" points="151,-294.5 151,-324.5 251,-324.5 251,-294.5 151,-294.5"/>
<text text-anchor="start" x="159" y="-312.5" font-family="Helvetica,sans-Serif" font-size="10.00">plssvm::detail::is</text>
<text text-anchor="middle" x="201" y="-301.5" font-family="Helvetica,sans-Serif" font-size="10.00">_multiset&lt; T &gt;</text>
</a>
</g>
</g>
<!-- Node44&#45;&gt;Node54 -->
<g id="edge10" class="edge">
<title>Node44&#45;&gt;Node54</title>
<path fill="none" stroke="midnightblue" d="M85.33,-345.87C105.86,-339.36 131.05,-331.37 152.59,-324.54"/>
<polygon fill="midnightblue" stroke="midnightblue" points="84.13,-342.58 75.66,-348.94 86.25,-349.25 84.13,-342.58"/>
</g>
<!-- Node55 -->
<g id="node12" class="node">
<title>Node55</title>
<g id="a_node12"><a xlink:href="structplssvm_1_1detail_1_1is__set.html" target="_top" xlink:title="Type trait to check whether T is a std::set.">
<polygon fill="white" stroke="black" points="151,-245.5 151,-275.5 251,-275.5 251,-245.5 151,-245.5"/>
<text text-anchor="start" x="159" y="-263.5" font-family="Helvetica,sans-Serif" font-size="10.00">plssvm::detail::is</text>
<text text-anchor="middle" x="201" y="-252.5" font-family="Helvetica,sans-Serif" font-size="10.00">_set&lt; T &gt;</text>
</a>
</g>
</g>
<!-- Node44&#45;&gt;Node55 -->
<g id="edge11" class="edge">
<title>Node44&#45;&gt;Node55</title>
<path fill="none" stroke="midnightblue" d="M60.69,-340.79C75.59,-324.41 99.7,-300.4 125,-285.5 132.92,-280.83 141.84,-276.9 150.68,-273.63"/>
<polygon fill="midnightblue" stroke="midnightblue" points="57.8,-338.77 53.78,-348.58 63.03,-343.42 57.8,-338.77"/>
</g>
<!-- Node56 -->
<g id="node13" class="node">
<title>Node56</title>
<g id="a_node13"><a xlink:href="structplssvm_1_1detail_1_1is__unordered__map.html" target="_top" xlink:title="Type trait to check whether T is a std::unordered_map.">
<polygon fill="white" stroke="black" points="137.5,-196.5 137.5,-226.5 264.5,-226.5 264.5,-196.5 137.5,-196.5"/>
<text text-anchor="start" x="145.5" y="-214.5" font-family="Helvetica,sans-Serif" font-size="10.00">plssvm::detail::is</text>
<text text-anchor="middle" x="201" y="-203.5" font-family="Helvetica,sans-Serif" font-size="10.00">_unordered_map&lt; T &gt;</text>
</a>
</g>
</g>
<!-- Node44&#45;&gt;Node56 -->
<g id="edge12" class="edge">
<title>Node44&#45;&gt;Node56</title>
<path fill="none" stroke="midnightblue" d="M53.16,-339.23C64.77,-312.42 89.32,-264.05 125,-236.5 130,-232.64 135.62,-229.36 141.48,-226.58"/>
<polygon fill="midnightblue" stroke="midnightblue" points="49.84,-338.09 49.22,-348.67 56.3,-340.79 49.84,-338.09"/>
</g>
<!-- Node57 -->
<g id="node14" class="node">
<title>Node57</title>
<g id="a_node14"><a xlink:href="structplssvm_1_1detail_1_1is__unordered__multimap.html" target="_top" xlink:title="Type trait to check whether T is a std::unordered_multimap.">
<polygon fill="white" stroke="black" points="125,-147.5 125,-177.5 277,-177.5 277,-147.5 125,-147.5"/>
<text text-anchor="start" x="133" y="-165.5" font-family="Helvetica,sans-Serif" font-size="10.00">plssvm::detail::is</text>
<text text-anchor="middle" x="201" y="-154.5" font-family="Helvetica,sans-Serif" font-size="10.00">_unordered_multimap&lt; T &gt;</text>
</a>
</g>
</g>
<!-- Node44&#45;&gt;Node57 -->
<g id="edge13" class="edge">
<title>Node44&#45;&gt;Node57</title>
<path fill="none" stroke="midnightblue" d="M49.32,-338.74C57.19,-303.36 78.5,-229.01 125,-187.5 129.3,-183.66 134.21,-180.41 139.41,-177.66"/>
<polygon fill="midnightblue" stroke="midnightblue" points="45.85,-338.27 47.23,-348.77 52.7,-339.7 45.85,-338.27"/>
</g>
<!-- Node58 -->
<g id="node15" class="node">
<title>Node58</title>
<g id="a_node15"><a xlink:href="structplssvm_1_1detail_1_1is__unordered__multiset.html" target="_top" xlink:title="Type trait to check whether T is a std::unordered_multiset.">
<polygon fill="white" stroke="black" points="128,-98.5 128,-128.5 274,-128.5 274,-98.5 128,-98.5"/>
<text text-anchor="start" x="136" y="-116.5" font-family="Helvetica,sans-Serif" font-size="10.00">plssvm::detail::is</text>
<text text-anchor="middle" x="201" y="-105.5" font-family="Helvetica,sans-Serif" font-size="10.00">_unordered_multiset&lt; T &gt;</text>
</a>
</g>
</g>
<!-- Node44&#45;&gt;Node58 -->
<g id="edge14" class="edge">
<title>Node44&#45;&gt;Node58</title>
<path fill="none" stroke="midnightblue" d="M47.01,-338.57C51.31,-295.83 67.35,-194.72 125,-138.5 128.93,-134.67 133.46,-131.42 138.32,-128.67"/>
<polygon fill="midnightblue" stroke="midnightblue" points="43.52,-338.28 46.12,-348.55 50.49,-338.9 43.52,-338.28"/>
</g>
<!-- Node59 -->
<g id="node16" class="node">
<title>Node59</title>
<g id="a_node16"><a xlink:href="structplssvm_1_1detail_1_1is__unordered__set.html" target="_top" xlink:title="Type trait to check whether T is a std::unordered_set.">
<polygon fill="white" stroke="black" points="141,-49.5 141,-79.5 261,-79.5 261,-49.5 141,-49.5"/>
<text text-anchor="start" x="149" y="-67.5" font-family="Helvetica,sans-Serif" font-size="10.00">plssvm::detail::is</text>
<text text-anchor="middle" x="201" y="-56.5" font-family="Helvetica,sans-Serif" font-size="10.00">_unordered_set&lt; T &gt;</text>
</a>
</g>
</g>
<!-- Node44&#45;&gt;Node59 -->
<g id="edge15" class="edge">
<title>Node44&#45;&gt;Node59</title>
<path fill="none" stroke="midnightblue" d="M45.46,-338.65C46.46,-289.51 55.93,-160.99 125,-89.5 129.58,-84.76 135.08,-80.92 140.99,-77.81"/>
<polygon fill="midnightblue" stroke="midnightblue" points="41.96,-338.84 45.36,-348.87 48.96,-338.91 41.96,-338.84"/>
</g>
<!-- Node60 -->
<g id="node17" class="node">
<title>Node60</title>
<g id="a_node17"><a xlink:href="structplssvm_1_1detail_1_1is__vector.html" target="_top" xlink:title="Type trait to check whether T is a std::vector.">
<polygon fill="white" stroke="black" points="151,-0.5 151,-30.5 251,-30.5 251,-0.5 151,-0.5"/>
<text text-anchor="start" x="159" y="-18.5" font-family="Helvetica,sans-Serif" font-size="10.00">plssvm::detail::is</text>
<text text-anchor="middle" x="201" y="-7.5" font-family="Helvetica,sans-Serif" font-size="10.00">_vector&lt; T &gt;</text>
</a>
</g>
</g>
<!-- Node44&#45;&gt;Node60 -->
<g id="edge16" class="edge">
<title>Node44&#45;&gt;Node60</title>
<path fill="none" stroke="midnightblue" d="M47.96,-338.56C56.07,-275.99 83.78,-85.02 125,-40.5 131.9,-33.05 141.08,-27.82 150.64,-24.14"/>
<polygon fill="midnightblue" stroke="midnightblue" points="44.47,-338.33 46.68,-348.69 51.41,-339.21 44.47,-338.33"/>
</g>
<!-- Node1 -->
<g id="node3" class="node">
<title>Node1</title>
<g id="a_node3"><a xlink:href="structplssvm_1_1detail_1_1is__tracking__entry.html" target="_top" xlink:title="Check whether T is a tracking entry. Ignores all top&#45;level const, volatile, and reference qualifiers.">
<polygon fill="white" stroke="black" points="313,-697.5 313,-727.5 434,-727.5 434,-697.5 313,-697.5"/>
<text text-anchor="start" x="321" y="-715.5" font-family="Helvetica,sans-Serif" font-size="10.00">plssvm::detail::is</text>
<text text-anchor="middle" x="373.5" y="-704.5" font-family="Helvetica,sans-Serif" font-size="10.00">_tracking_entry&lt; T &gt;</text>
</a>
</g>
</g>
<!-- Node0&#45;&gt;Node1 -->
<g id="edge2" class="edge">
<title>Node0&#45;&gt;Node1</title>
<path fill="none" stroke="midnightblue" d="M271.91,-712.5C285.52,-712.5 299.66,-712.5 312.9,-712.5"/>
<polygon fill="midnightblue" stroke="midnightblue" points="271.63,-709 261.63,-712.5 271.63,-716 271.63,-709"/>
</g>
</g>
</svg>
