<?xml version="1.0" encoding="UTF-8" standalone="no"?>
<!DOCTYPE svg PUBLIC "-//W3C//DTD SVG 1.1//EN"
 "http://www.w3.org/Graphics/SVG/1.1/DTD/svg11.dtd">
<!-- Generated by graphviz version 2.43.0 (0)
 -->
<!-- Title: Graphical Class Hierarchy Pages: 1 -->
<svg width="282pt" height="1193pt"
 viewBox="0.00 0.00 282.00 1193.00" xmlns="http://www.w3.org/2000/svg" xmlns:xlink="http://www.w3.org/1999/xlink">
<g id="graph0" class="graph" transform="scale(1 1) rotate(0) translate(4 1189)">
<title>Graphical Class Hierarchy</title>
<polygon fill="white" stroke="transparent" points="-4,4 -4,-1189 278,-1189 278,4 -4,4"/>
<!-- Node116 -->
<g id="node1" class="node">
<title>Node116</title>
<g id="a_node1"><a xlink:title=" ">
<polygon fill="white" stroke="#bfbfbf" points="0,-596.5 0,-615.5 84,-615.5 84,-596.5 0,-596.5"/>
<text text-anchor="middle" x="42" y="-603.5" font-family="Helvetica,sans-Serif" font-size="10.00">std::true_type</text>
</a>
</g>
</g>
<!-- Node0 -->
<g id="node2" class="node">
<title>Node0</title>
<g id="a_node2"><a xlink:href="structplssvm_1_1detail_1_1csvm__backend__exists_3_01cuda_1_1csvm_01_4.html" target="_top" xlink:title="Sets the value to true since C&#45;SVMs using the CUDA backend are available.">
<polygon fill="white" stroke="black" points="131.5,-1143.5 131.5,-1184.5 262.5,-1184.5 262.5,-1143.5 131.5,-1143.5"/>
<text text-anchor="start" x="139.5" y="-1172.5" font-family="Helvetica,sans-Serif" font-size="10.00">plssvm::detail::csvm</text>
<text text-anchor="start" x="139.5" y="-1161.5" font-family="Helvetica,sans-Serif" font-size="10.00">_backend_exists&lt; cuda</text>
<text text-anchor="middle" x="197" y="-1150.5" font-family="Helvetica,sans-Serif" font-size="10.00">::csvm &gt;</text>
</a>
</g>
</g>
<!-- Node116&#45;&gt;Node0 -->
<g id="edge1" class="edge">
<title>Node116&#45;&gt;Node0</title>
<path fill="none" stroke="midnightblue" d="M43.31,-625.75C45.02,-711.75 55.8,-1052.94 120,-1134 123.26,-1138.11 127.16,-1141.67 131.46,-1144.73"/>
<polygon fill="midnightblue" stroke="midnightblue" points="46.8,-625.49 43.12,-615.55 39.8,-625.62 46.8,-625.49"/>
</g>
<!-- Node118 -->
<g id="node3" class="node">
<title>Node118</title>
<g id="a_node3"><a xlink:href="structplssvm_1_1detail_1_1csvm__backend__exists_3_01dpcpp_1_1csvm_01_4.html" target="_top" xlink:title="Sets the value to true since C&#45;SVMs using the SYCL backend with DPC++ as SYCL implementation are avai...">
<polygon fill="white" stroke="black" points="128.5,-1083.5 128.5,-1124.5 265.5,-1124.5 265.5,-1083.5 128.5,-1083.5"/>
<text text-anchor="start" x="136.5" y="-1112.5" font-family="Helvetica,sans-Serif" font-size="10.00">plssvm::detail::csvm</text>
<text text-anchor="start" x="136.5" y="-1101.5" font-family="Helvetica,sans-Serif" font-size="10.00">_backend_exists&lt; dpcpp</text>
<text text-anchor="middle" x="197" y="-1090.5" font-family="Helvetica,sans-Serif" font-size="10.00">::csvm &gt;</text>
</a>
</g>
</g>
<!-- Node116&#45;&gt;Node118 -->
<g id="edge2" class="edge">
<title>Node116&#45;&gt;Node118</title>
<path fill="none" stroke="midnightblue" d="M43.71,-625.75C46.97,-705.52 62.83,-1003.15 120,-1074 122.85,-1077.53 126.18,-1080.65 129.81,-1083.4"/>
<polygon fill="midnightblue" stroke="midnightblue" points="47.21,-625.47 43.32,-615.61 40.21,-625.74 47.21,-625.47"/>
</g>
<!-- Node119 -->
<g id="node4" class="node">
<title>Node119</title>
<g id="a_node4"><a xlink:href="structplssvm_1_1detail_1_1csvm__backend__exists_3_01hip_1_1csvm_01_4.html" target="_top" xlink:title="Sets the value to true since C&#45;SVMs using the HIP backend are available.">
<polygon fill="white" stroke="black" points="135.5,-1023.5 135.5,-1064.5 258.5,-1064.5 258.5,-1023.5 135.5,-1023.5"/>
<text text-anchor="start" x="143.5" y="-1052.5" font-family="Helvetica,sans-Serif" font-size="10.00">plssvm::detail::csvm</text>
<text text-anchor="start" x="143.5" y="-1041.5" font-family="Helvetica,sans-Serif" font-size="10.00">_backend_exists&lt; hip</text>
<text text-anchor="middle" x="197" y="-1030.5" font-family="Helvetica,sans-Serif" font-size="10.00">::csvm &gt;</text>
</a>
</g>
</g>
<!-- Node116&#45;&gt;Node119 -->
<g id="edge3" class="edge">
<title>Node116&#45;&gt;Node119</title>
<path fill="none" stroke="midnightblue" d="M44.26,-625.97C49.24,-699.41 69.87,-953.35 120,-1014 124.25,-1019.14 129.5,-1023.4 135.24,-1026.94"/>
<polygon fill="midnightblue" stroke="midnightblue" points="47.73,-625.54 43.59,-615.79 40.75,-626 47.73,-625.54"/>
</g>
<!-- Node120 -->
<g id="node5" class="node">
<title>Node120</title>
<g id="a_node5"><a xlink:href="structplssvm_1_1detail_1_1csvm__backend__exists_3_01hipsycl_1_1csvm_01_4.html" target="_top" xlink:title="Sets the value to true since C&#45;SVMs using the SYCL backend with hipSYCL as SYCL implementation are av...">
<polygon fill="white" stroke="black" points="125.5,-963.5 125.5,-1004.5 268.5,-1004.5 268.5,-963.5 125.5,-963.5"/>
<text text-anchor="start" x="133.5" y="-992.5" font-family="Helvetica,sans-Serif" font-size="10.00">plssvm::detail::csvm</text>
<text text-anchor="start" x="133.5" y="-981.5" font-family="Helvetica,sans-Serif" font-size="10.00">_backend_exists&lt; hipsycl</text>
<text text-anchor="middle" x="197" y="-970.5" font-family="Helvetica,sans-Serif" font-size="10.00">::csvm &gt;</text>
</a>
</g>
</g>
<!-- Node116&#45;&gt;Node120 -->
<g id="edge4" class="edge">
<title>Node116&#45;&gt;Node120</title>
<path fill="none" stroke="midnightblue" d="M44.96,-625.95C51.84,-692.16 76.81,-903.37 120,-954 123.04,-957.56 126.56,-960.7 130.38,-963.47"/>
<polygon fill="midnightblue" stroke="midnightblue" points="48.41,-625.25 43.92,-615.65 41.45,-625.95 48.41,-625.25"/>
</g>
<!-- Node121 -->
<g id="node6" class="node">
<title>Node121</title>
<g id="a_node6"><a xlink:href="structplssvm_1_1detail_1_1csvm__backend__exists_3_01opencl_1_1csvm_01_4.html" target="_top" xlink:title="Sets the value to true since C&#45;SVMs using the OpenCL backend are available.">
<polygon fill="white" stroke="black" points="127,-903.5 127,-944.5 267,-944.5 267,-903.5 127,-903.5"/>
<text text-anchor="start" x="135" y="-932.5" font-family="Helvetica,sans-Serif" font-size="10.00">plssvm::detail::csvm</text>
<text text-anchor="start" x="135" y="-921.5" font-family="Helvetica,sans-Serif" font-size="10.00">_backend_exists&lt; opencl</text>
<text text-anchor="middle" x="197" y="-910.5" font-family="Helvetica,sans-Serif" font-size="10.00">::csvm &gt;</text>
</a>
</g>
</g>
<!-- Node116&#45;&gt;Node121 -->
<g id="edge5" class="edge">
<title>Node116&#45;&gt;Node121</title>
<path fill="none" stroke="midnightblue" d="M42.54,-625.94C42.46,-677.1 49.23,-814.61 120,-894 123.11,-897.49 126.69,-900.59 130.55,-903.32"/>
<polygon fill="midnightblue" stroke="midnightblue" points="46.05,-625.66 42.66,-615.62 39.05,-625.58 46.05,-625.66"/>
</g>
<!-- Node122 -->
<g id="node7" class="node">
<title>Node122</title>
<g id="a_node7"><a xlink:href="structplssvm_1_1detail_1_1csvm__backend__exists_3_01openmp_1_1csvm_01_4.html" target="_top" xlink:title="Sets the value to true since C&#45;SVMs using the OpenMP backend are available.">
<polygon fill="white" stroke="black" points="123,-843.5 123,-884.5 271,-884.5 271,-843.5 123,-843.5"/>
<text text-anchor="start" x="131" y="-872.5" font-family="Helvetica,sans-Serif" font-size="10.00">plssvm::detail::csvm</text>
<text text-anchor="start" x="131" y="-861.5" font-family="Helvetica,sans-Serif" font-size="10.00">_backend_exists&lt; openmp</text>
<text text-anchor="middle" x="197" y="-850.5" font-family="Helvetica,sans-Serif" font-size="10.00">::csvm &gt;</text>
</a>
</g>
</g>
<!-- Node116&#45;&gt;Node122 -->
<g id="edge6" class="edge">
<title>Node116&#45;&gt;Node122</title>
<path fill="none" stroke="midnightblue" d="M44.22,-625.79C47.93,-669.19 62.65,-773.69 120,-834 123.32,-837.49 127.1,-840.59 131.16,-843.33"/>
<polygon fill="midnightblue" stroke="midnightblue" points="47.7,-625.4 43.47,-615.69 40.72,-625.92 47.7,-625.4"/>
</g>
<!-- Node123 -->
<g id="node8" class="node">
<title>Node123</title>
<g id="a_node8"><a xlink:href="structplssvm_1_1detail_1_1impl_1_1is__tracking__entry_3_01tracking__entry_3_01T_01_4_01_4.html" target="_top" xlink:title="Sets the value to true since it is a tracking entry.">
<polygon fill="white" stroke="black" points="132,-783.5 132,-824.5 262,-824.5 262,-783.5 132,-783.5"/>
<text text-anchor="start" x="140" y="-812.5" font-family="Helvetica,sans-Serif" font-size="10.00">plssvm::detail::impl</text>
<text text-anchor="start" x="140" y="-801.5" font-family="Helvetica,sans-Serif" font-size="10.00">::is_tracking_entry&lt;</text>
<text text-anchor="middle" x="197" y="-790.5" font-family="Helvetica,sans-Serif" font-size="10.00"> tracking_entry&lt; T &gt; &gt;</text>
</a>
</g>
</g>
<!-- Node116&#45;&gt;Node123 -->
<g id="edge7" class="edge">
<title>Node116&#45;&gt;Node123</title>
<path fill="none" stroke="midnightblue" d="M46.96,-625.66C54.88,-660.22 75.87,-732.18 120,-774 123.71,-777.51 127.87,-780.63 132.3,-783.4"/>
<polygon fill="midnightblue" stroke="midnightblue" points="50.37,-624.87 44.83,-615.83 43.52,-626.35 50.37,-624.87"/>
</g>
<!-- Node124 -->
<g id="node9" class="node">
<title>Node124</title>
<g id="a_node9"><a xlink:href="structplssvm_1_1detail_1_1is__array_3_01std_1_1array_3_01T_00_01I_01_4_01_4.html" target="_top" xlink:title="Type trait to check whether T is a std::array.">
<polygon fill="white" stroke="black" points="140.5,-723.5 140.5,-764.5 253.5,-764.5 253.5,-723.5 140.5,-723.5"/>
<text text-anchor="start" x="148.5" y="-752.5" font-family="Helvetica,sans-Serif" font-size="10.00">plssvm::detail::is</text>
<text text-anchor="start" x="148.5" y="-741.5" font-family="Helvetica,sans-Serif" font-size="10.00">_array&lt; std::array&lt;</text>
<text text-anchor="middle" x="197" y="-730.5" font-family="Helvetica,sans-Serif" font-size="10.00"> T, I &gt; &gt;</text>
</a>
</g>
</g>
<!-- Node116&#45;&gt;Node124 -->
<g id="edge8" class="edge">
<title>Node116&#45;&gt;Node124</title>
<path fill="none" stroke="midnightblue" d="M52.08,-624.85C64.42,-648.65 88.57,-689.42 120,-714 126.15,-718.81 133.16,-722.93 140.38,-726.45"/>
<polygon fill="midnightblue" stroke="midnightblue" points="55.15,-623.16 47.54,-615.79 48.89,-626.3 55.15,-623.16"/>
</g>
<!-- Node125 -->
<g id="node10" class="node">
<title>Node125</title>
<g id="a_node10"><a xlink:href="structplssvm_1_1detail_1_1is__deque_3_01std_1_1deque_3_01T_01_4_01_4.html" target="_top" xlink:title="Type trait to check whether T is a std::deque.">
<polygon fill="white" stroke="black" points="120,-674 120,-704 274,-704 274,-674 120,-674"/>
<text text-anchor="start" x="128" y="-692" font-family="Helvetica,sans-Serif" font-size="10.00">plssvm::detail::is</text>
<text text-anchor="middle" x="197" y="-681" font-family="Helvetica,sans-Serif" font-size="10.00">_deque&lt; std::deque&lt; T &gt; &gt;</text>
</a>
</g>
</g>
<!-- Node116&#45;&gt;Node125 -->
<g id="edge9" class="edge">
<title>Node116&#45;&gt;Node125</title>
<path fill="none" stroke="midnightblue" d="M61.61,-622.8C76.51,-635.54 98.43,-652.72 120,-664 127.14,-667.73 134.95,-671.06 142.75,-673.97"/>
<polygon fill="midnightblue" stroke="midnightblue" points="63.53,-619.83 53.7,-615.89 58.93,-625.1 63.53,-619.83"/>
</g>
<!-- Node126 -->
<g id="node11" class="node">
<title>Node126</title>
<g id="a_node11"><a xlink:href="structplssvm_1_1detail_1_1is__forward__list_3_01std_1_1forward__list_3_01T_01_4_01_4.html" target="_top" xlink:title="Type trait to check whether T is a std::forward_list.">
<polygon fill="white" stroke="black" points="140,-613.5 140,-654.5 254,-654.5 254,-613.5 140,-613.5"/>
<text text-anchor="start" x="148" y="-642.5" font-family="Helvetica,sans-Serif" font-size="10.00">plssvm::detail::is</text>
<text text-anchor="start" x="148" y="-631.5" font-family="Helvetica,sans-Serif" font-size="10.00">_forward_list&lt; std::</text>
<text text-anchor="middle" x="197" y="-620.5" font-family="Helvetica,sans-Serif" font-size="10.00">forward_list&lt; T &gt; &gt;</text>
</a>
</g>
</g>
<!-- Node116&#45;&gt;Node126 -->
<g id="edge10" class="edge">
<title>Node116&#45;&gt;Node126</title>
<path fill="none" stroke="midnightblue" d="M93.95,-615.32C108.7,-618.02 124.88,-620.99 139.93,-623.74"/>
<polygon fill="midnightblue" stroke="midnightblue" points="94.47,-611.86 84,-613.5 93.21,-618.75 94.47,-611.86"/>
</g>
<!-- Node127 -->
<g id="node12" class="node">
<title>Node127</title>
<g id="a_node12"><a xlink:href="structplssvm_1_1detail_1_1is__list_3_01std_1_1list_3_01T_01_4_01_4.html" target="_top" xlink:title="Type trait to check whether T is a std::list.">
<polygon fill="white" stroke="black" points="135,-564 135,-594 259,-594 259,-564 135,-564"/>
<text text-anchor="start" x="143" y="-582" font-family="Helvetica,sans-Serif" font-size="10.00">plssvm::detail::is</text>
<text text-anchor="middle" x="197" y="-571" font-family="Helvetica,sans-Serif" font-size="10.00">_list&lt; std::list&lt; T &gt; &gt;</text>
</a>
</g>
</g>
<!-- Node116&#45;&gt;Node127 -->
<g id="edge11" class="edge">
<title>Node116&#45;&gt;Node127</title>
<path fill="none" stroke="midnightblue" d="M94.16,-596.97C107.17,-594.68 121.28,-592.19 134.73,-589.81"/>
<polygon fill="midnightblue" stroke="midnightblue" points="93.24,-593.58 84,-598.76 94.46,-600.47 93.24,-593.58"/>
</g>
<!-- Node128 -->
<g id="node13" class="node">
<title>Node128</title>
<g id="a_node13"><a xlink:href="structplssvm_1_1detail_1_1is__map_3_01std_1_1map_3_01Key_00_01T_01_4_01_4.html" target="_top" xlink:title="Type trait to check whether T is a std::map.">
<polygon fill="white" stroke="black" points="132,-503.5 132,-544.5 262,-544.5 262,-503.5 132,-503.5"/>
<text text-anchor="start" x="140" y="-532.5" font-family="Helvetica,sans-Serif" font-size="10.00">plssvm::detail::is</text>
<text text-anchor="start" x="140" y="-521.5" font-family="Helvetica,sans-Serif" font-size="10.00">_map&lt; std::map&lt; Key,</text>
<text text-anchor="middle" x="197" y="-510.5" font-family="Helvetica,sans-Serif" font-size="10.00"> T &gt; &gt;</text>
</a>
</g>
</g>
<!-- Node116&#45;&gt;Node128 -->
<g id="edge12" class="edge">
<title>Node116&#45;&gt;Node128</title>
<path fill="none" stroke="midnightblue" d="M64.01,-590.44C79.11,-579.68 100.21,-565.46 120,-555 126.93,-551.34 134.39,-547.82 141.83,-544.55"/>
<polygon fill="midnightblue" stroke="midnightblue" points="61.92,-587.63 55.86,-596.33 66.02,-593.31 61.92,-587.63"/>
</g>
<!-- Node129 -->
<g id="node14" class="node">
<title>Node129</title>
<g id="a_node14"><a xlink:href="structplssvm_1_1detail_1_1is__multimap_3_01std_1_1multimap_3_01Key_00_01T_01_4_01_4.html" target="_top" xlink:title="Type trait to check whether T is a std::multimap.">
<polygon fill="white" stroke="black" points="122.5,-443.5 122.5,-484.5 271.5,-484.5 271.5,-443.5 122.5,-443.5"/>
<text text-anchor="start" x="130.5" y="-472.5" font-family="Helvetica,sans-Serif" font-size="10.00">plssvm::detail::is</text>
<text text-anchor="start" x="130.5" y="-461.5" font-family="Helvetica,sans-Serif" font-size="10.00">_multimap&lt; std::multimap</text>
<text text-anchor="middle" x="197" y="-450.5" font-family="Helvetica,sans-Serif" font-size="10.00">&lt; Key, T &gt; &gt;</text>
</a>
</g>
</g>
<!-- Node116&#45;&gt;Node129 -->
<g id="edge13" class="edge">
<title>Node116&#45;&gt;Node129</title>
<path fill="none" stroke="midnightblue" d="M51.54,-587.18C63.57,-562.61 87.69,-519.72 120,-494 124.33,-490.55 129.1,-487.46 134.08,-484.7"/>
<polygon fill="midnightblue" stroke="midnightblue" points="48.25,-585.95 47.14,-596.49 54.58,-588.94 48.25,-585.95"/>
</g>
<!-- Node130 -->
<g id="node15" class="node">
<title>Node130</title>
<g id="a_node15"><a xlink:href="structplssvm_1_1detail_1_1is__multiset_3_01std_1_1multiset_3_01T_01_4_01_4.html" target="_top" xlink:title="Type trait to check whether T is a std::multiset.">
<polygon fill="white" stroke="black" points="129.5,-383.5 129.5,-424.5 264.5,-424.5 264.5,-383.5 129.5,-383.5"/>
<text text-anchor="start" x="137.5" y="-412.5" font-family="Helvetica,sans-Serif" font-size="10.00">plssvm::detail::is</text>
<text text-anchor="start" x="137.5" y="-401.5" font-family="Helvetica,sans-Serif" font-size="10.00">_multiset&lt; std::multiset</text>
<text text-anchor="middle" x="197" y="-390.5" font-family="Helvetica,sans-Serif" font-size="10.00">&lt; T &gt; &gt;</text>
</a>
</g>
</g>
<!-- Node116&#45;&gt;Node130 -->
<g id="edge14" class="edge">
<title>Node116&#45;&gt;Node130</title>
<path fill="none" stroke="midnightblue" d="M46.71,-586.38C54.33,-551.2 74.97,-477.05 120,-434 123.69,-430.47 127.85,-427.34 132.26,-424.57"/>
<polygon fill="midnightblue" stroke="midnightblue" points="43.24,-585.85 44.68,-596.35 50.1,-587.25 43.24,-585.85"/>
</g>
<!-- Node131 -->
<g id="node16" class="node">
<title>Node131</title>
<g id="a_node16"><a xlink:href="structplssvm_1_1detail_1_1is__set_3_01std_1_1set_3_01T_01_4_01_4.html" target="_top" xlink:title="Type trait to check whether T is a std::set.">
<polygon fill="white" stroke="black" points="135,-334 135,-364 259,-364 259,-334 135,-334"/>
<text text-anchor="start" x="143" y="-352" font-family="Helvetica,sans-Serif" font-size="10.00">plssvm::detail::is</text>
<text text-anchor="middle" x="197" y="-341" font-family="Helvetica,sans-Serif" font-size="10.00">_set&lt; std::set&lt; T &gt; &gt;</text>
</a>
</g>
</g>
<!-- Node116&#45;&gt;Node131 -->
<g id="edge15" class="edge">
<title>Node116&#45;&gt;Node131</title>
<path fill="none" stroke="midnightblue" d="M43.83,-585.91C46.76,-541.42 60.02,-433.82 120,-374 124.33,-369.68 129.41,-366.11 134.87,-363.16"/>
<polygon fill="midnightblue" stroke="midnightblue" points="40.33,-585.84 43.28,-596.02 47.32,-586.22 40.33,-585.84"/>
</g>
<!-- Node132 -->
<g id="node17" class="node">
<title>Node132</title>
<g id="a_node17"><a xlink:href="structplssvm_1_1detail_1_1is__unordered__map_3_01std_1_1unordered__map_3_01Key_00_01T_01_4_01_4.html" target="_top" xlink:title="Type trait to check whether T is a std::unordered_map.">
<polygon fill="white" stroke="black" points="131.5,-263 131.5,-315 262.5,-315 262.5,-263 131.5,-263"/>
<text text-anchor="start" x="139.5" y="-303" font-family="Helvetica,sans-Serif" font-size="10.00">plssvm::detail::is</text>
<text text-anchor="start" x="139.5" y="-292" font-family="Helvetica,sans-Serif" font-size="10.00">_unordered_map&lt; std</text>
<text text-anchor="start" x="139.5" y="-281" font-family="Helvetica,sans-Serif" font-size="10.00">::unordered_map&lt; Key,</text>
<text text-anchor="middle" x="197" y="-270" font-family="Helvetica,sans-Serif" font-size="10.00"> T &gt; &gt;</text>
</a>
</g>
</g>
<!-- Node116&#45;&gt;Node132 -->
<g id="edge16" class="edge">
<title>Node116&#45;&gt;Node132</title>
<path fill="none" stroke="midnightblue" d="M43.02,-586.47C44.07,-536.88 53.35,-404.46 120,-325 123.28,-321.08 127.09,-317.57 131.22,-314.41"/>
<polygon fill="midnightblue" stroke="midnightblue" points="39.52,-586.44 42.9,-596.48 46.52,-586.52 39.52,-586.44"/>
</g>
<!-- Node133 -->
<g id="node18" class="node">
<title>Node133</title>
<g id="a_node18"><a xlink:href="structplssvm_1_1detail_1_1is__unordered__multimap_3_01std_1_1unordered__multimap_3_01Key_00_01T_01_4_01_4.html" target="_top" xlink:title="Type trait to check whether T is a std::unordered_multimap.">
<polygon fill="white" stroke="black" points="121.5,-192 121.5,-244 272.5,-244 272.5,-192 121.5,-192"/>
<text text-anchor="start" x="129.5" y="-232" font-family="Helvetica,sans-Serif" font-size="10.00">plssvm::detail::is</text>
<text text-anchor="start" x="129.5" y="-221" font-family="Helvetica,sans-Serif" font-size="10.00">_unordered_multimap</text>
<text text-anchor="start" x="129.5" y="-210" font-family="Helvetica,sans-Serif" font-size="10.00">&lt; std::unordered_multimap</text>
<text text-anchor="middle" x="197" y="-199" font-family="Helvetica,sans-Serif" font-size="10.00">&lt; Key, T &gt; &gt;</text>
</a>
</g>
</g>
<!-- Node116&#45;&gt;Node133 -->
<g id="edge17" class="edge">
<title>Node116&#45;&gt;Node133</title>
<path fill="none" stroke="midnightblue" d="M45.06,-585.94C52.26,-519.31 78.12,-306.65 120,-254 122.91,-250.34 126.28,-247.04 129.95,-244.05"/>
<polygon fill="midnightblue" stroke="midnightblue" points="41.54,-585.98 43.97,-596.29 48.5,-586.71 41.54,-585.98"/>
</g>
<!-- Node134 -->
<g id="node19" class="node">
<title>Node134</title>
<g id="a_node19"><a xlink:href="structplssvm_1_1detail_1_1is__unordered__multiset_3_01std_1_1unordered__multiset_3_01T_01_4_01_4.html" target="_top" xlink:title="Type trait to check whether T is a std::unordered_multiset.">
<polygon fill="white" stroke="black" points="125,-121 125,-173 269,-173 269,-121 125,-121"/>
<text text-anchor="start" x="133" y="-161" font-family="Helvetica,sans-Serif" font-size="10.00">plssvm::detail::is</text>
<text text-anchor="start" x="133" y="-150" font-family="Helvetica,sans-Serif" font-size="10.00">_unordered_multiset</text>
<text text-anchor="start" x="133" y="-139" font-family="Helvetica,sans-Serif" font-size="10.00">&lt; std::unordered_multiset</text>
<text text-anchor="middle" x="197" y="-128" font-family="Helvetica,sans-Serif" font-size="10.00">&lt; T &gt; &gt;</text>
</a>
</g>
</g>
<!-- Node116&#45;&gt;Node134 -->
<g id="edge18" class="edge">
<title>Node116&#45;&gt;Node134</title>
<path fill="none" stroke="midnightblue" d="M44.26,-585.9C49.31,-510.82 70.31,-247.8 120,-183 122.75,-179.41 125.96,-176.16 129.46,-173.22"/>
<polygon fill="midnightblue" stroke="midnightblue" points="40.74,-586.07 43.58,-596.28 47.72,-586.53 40.74,-586.07"/>
</g>
<!-- Node135 -->
<g id="node20" class="node">
<title>Node135</title>
<g id="a_node20"><a xlink:href="structplssvm_1_1detail_1_1is__unordered__set_3_01std_1_1unordered__set_3_01T_01_4_01_4.html" target="_top" xlink:title="Type trait to check whether T is a std::unordered_set.">
<polygon fill="white" stroke="black" points="131,-60.5 131,-101.5 263,-101.5 263,-60.5 131,-60.5"/>
<text text-anchor="start" x="139" y="-89.5" font-family="Helvetica,sans-Serif" font-size="10.00">plssvm::detail::is</text>
<text text-anchor="start" x="139" y="-78.5" font-family="Helvetica,sans-Serif" font-size="10.00">_unordered_set&lt; std</text>
<text text-anchor="middle" x="197" y="-67.5" font-family="Helvetica,sans-Serif" font-size="10.00">::unordered_set&lt; T &gt; &gt;</text>
</a>
</g>
</g>
<!-- Node116&#45;&gt;Node135 -->
<g id="edge19" class="edge">
<title>Node116&#45;&gt;Node135</title>
<path fill="none" stroke="midnightblue" d="M43.55,-586.23C46.21,-503.73 60.23,-187.59 120,-112 123.09,-108.09 126.76,-104.67 130.79,-101.67"/>
<polygon fill="midnightblue" stroke="midnightblue" points="40.05,-586.18 43.25,-596.28 47.05,-586.39 40.05,-586.18"/>
</g>
<!-- Node136 -->
<g id="node21" class="node">
<title>Node136</title>
<g id="a_node21"><a xlink:href="structplssvm_1_1detail_1_1is__vector_3_01std_1_1vector_3_01T_01_4_01_4.html" target="_top" xlink:title="Type trait to check whether T is a std::vector.">
<polygon fill="white" stroke="black" points="139,-0.5 139,-41.5 255,-41.5 255,-0.5 139,-0.5"/>
<text text-anchor="start" x="147" y="-29.5" font-family="Helvetica,sans-Serif" font-size="10.00">plssvm::detail::is</text>
<text text-anchor="start" x="147" y="-18.5" font-family="Helvetica,sans-Serif" font-size="10.00">_vector&lt; std::vector</text>
<text text-anchor="middle" x="197" y="-7.5" font-family="Helvetica,sans-Serif" font-size="10.00">&lt; T &gt; &gt;</text>
</a>
</g>
</g>
<!-- Node116&#45;&gt;Node136 -->
<g id="edge20" class="edge">
<title>Node116&#45;&gt;Node136</title>
<path fill="none" stroke="midnightblue" d="M43.15,-586.37C44.2,-497.89 52.6,-136.71 120,-51 125,-44.64 131.54,-39.63 138.69,-35.68"/>
<polygon fill="midnightblue" stroke="midnightblue" points="39.65,-586.36 43.05,-596.39 46.65,-586.43 39.65,-586.36"/>
</g>
</g>
</svg>
