<?xml version="1.0" encoding="UTF-8" standalone="no"?>
<!DOCTYPE svg PUBLIC "-//W3C//DTD SVG 1.1//EN"
 "http://www.w3.org/Graphics/SVG/1.1/DTD/svg11.dtd">
<!-- Generated by graphviz version 2.43.0 (0)
 -->
<!-- Title: Graphical Class Hierarchy Pages: 1 -->
<svg width="618pt" height="617pt"
 viewBox="0.00 0.00 618.00 617.00" xmlns="http://www.w3.org/2000/svg" xmlns:xlink="http://www.w3.org/1999/xlink">
<g id="graph0" class="graph" transform="scale(1 1) rotate(0) translate(4 613)">
<title>Graphical Class Hierarchy</title>
<polygon fill="white" stroke="transparent" points="-4,4 -4,-613 614,-613 614,4 -4,4"/>
<!-- Node94 -->
<g id="node1" class="node">
<title>Node94</title>
<g id="a_node1"><a xlink:title=" ">
<polygon fill="white" stroke="#bfbfbf" points="0,-300 0,-319 104,-319 104,-300 0,-300"/>
<text text-anchor="middle" x="52" y="-307" font-family="Helvetica,sans-Serif" font-size="10.00">std::runtime_error</text>
</a>
</g>
</g>
<!-- Node0 -->
<g id="node2" class="node">
<title>Node0</title>
<g id="a_node2"><a xlink:href="classplssvm_1_1exception.html" target="_top" xlink:title="Base class for all custom exception types. Forwards its message to std::runtime_error and saves the e...">
<polygon fill="white" stroke="black" points="140,-300 140,-319 246,-319 246,-300 140,-300"/>
<text text-anchor="middle" x="193" y="-307" font-family="Helvetica,sans-Serif" font-size="10.00">plssvm::exception</text>
</a>
</g>
</g>
<!-- Node94&#45;&gt;Node0 -->
<g id="edge1" class="edge">
<title>Node94&#45;&gt;Node0</title>
<path fill="none" stroke="midnightblue" d="M114.57,-309.5C123.03,-309.5 131.65,-309.5 139.92,-309.5"/>
<polygon fill="midnightblue" stroke="midnightblue" points="114.36,-306 104.36,-309.5 114.36,-313 114.36,-306"/>
</g>
<!-- Node1 -->
<g id="node3" class="node">
<title>Node1</title>
<g id="a_node3"><a xlink:href="classplssvm_1_1cuda_1_1backend__exception.html" target="_top" xlink:title="Exception type thrown if a problem with the CUDA backend occurs.">
<polygon fill="white" stroke="black" points="294.5,-578.5 294.5,-608.5 422.5,-608.5 422.5,-578.5 294.5,-578.5"/>
<text text-anchor="start" x="302.5" y="-596.5" font-family="Helvetica,sans-Serif" font-size="10.00">plssvm::cuda::backend</text>
<text text-anchor="middle" x="358.5" y="-585.5" font-family="Helvetica,sans-Serif" font-size="10.00">_exception</text>
</a>
</g>
</g>
<!-- Node0&#45;&gt;Node1 -->
<g id="edge2" class="edge">
<title>Node0&#45;&gt;Node1</title>
<path fill="none" stroke="midnightblue" d="M194.94,-329.3C198.29,-377.23 213.49,-500.52 282,-568.5 285.92,-572.39 290.46,-575.68 295.33,-578.45"/>
<polygon fill="midnightblue" stroke="midnightblue" points="198.42,-328.83 194.33,-319.06 191.43,-329.25 198.42,-328.83"/>
</g>
<!-- Node2 -->
<g id="node4" class="node">
<title>Node2</title>
<g id="a_node4"><a xlink:href="classplssvm_1_1data__set__exception.html" target="_top" xlink:title="Exception type thrown if a data_set is used inappropriately.">
<polygon fill="white" stroke="black" points="282,-540 282,-559 435,-559 435,-540 282,-540"/>
<text text-anchor="middle" x="358.5" y="-547" font-family="Helvetica,sans-Serif" font-size="10.00">plssvm::data_set_exception</text>
</a>
</g>
</g>
<!-- Node0&#45;&gt;Node2 -->
<g id="edge3" class="edge">
<title>Node0&#45;&gt;Node2</title>
<path fill="none" stroke="midnightblue" d="M195.93,-329.31C201.25,-372.64 220.11,-476.31 282,-530.5 286.37,-534.33 291.41,-537.41 296.76,-539.88"/>
<polygon fill="midnightblue" stroke="midnightblue" points="199.39,-328.77 194.81,-319.21 192.44,-329.54 199.39,-328.77"/>
</g>
<!-- Node3 -->
<g id="node5" class="node">
<title>Node3</title>
<g id="a_node5"><a xlink:href="classplssvm_1_1file__not__found__exception.html" target="_top" xlink:title="Exception type thrown if the provided file couldn&#39;t be found.">
<polygon fill="white" stroke="black" points="295,-490.5 295,-520.5 422,-520.5 422,-490.5 295,-490.5"/>
<text text-anchor="start" x="303" y="-508.5" font-family="Helvetica,sans-Serif" font-size="10.00">plssvm::file_not_found</text>
<text text-anchor="middle" x="358.5" y="-497.5" font-family="Helvetica,sans-Serif" font-size="10.00">_exception</text>
</a>
</g>
</g>
<!-- Node0&#45;&gt;Node3 -->
<g id="edge4" class="edge">
<title>Node0&#45;&gt;Node3</title>
<path fill="none" stroke="midnightblue" d="M198.78,-329.47C208.35,-365.2 233.27,-440.22 282,-481.5 286.09,-484.97 290.69,-487.94 295.55,-490.48"/>
<polygon fill="midnightblue" stroke="midnightblue" points="202.06,-328.16 196.2,-319.33 195.27,-329.89 202.06,-328.16"/>
</g>
<!-- Node4 -->
<g id="node6" class="node">
<title>Node4</title>
<g id="a_node6"><a xlink:href="classplssvm_1_1file__reader__exception.html" target="_top" xlink:title="Exception type thrown if the file_reader is used inappropriately (e.g., if two files should be opened...">
<polygon fill="white" stroke="black" points="303.5,-441.5 303.5,-471.5 413.5,-471.5 413.5,-441.5 303.5,-441.5"/>
<text text-anchor="start" x="311.5" y="-459.5" font-family="Helvetica,sans-Serif" font-size="10.00">plssvm::file_reader</text>
<text text-anchor="middle" x="358.5" y="-448.5" font-family="Helvetica,sans-Serif" font-size="10.00">_exception</text>
</a>
</g>
</g>
<!-- Node0&#45;&gt;Node4 -->
<g id="edge5" class="edge">
<title>Node0&#45;&gt;Node4</title>
<path fill="none" stroke="midnightblue" d="M202.56,-328.23C215.8,-355.18 243.78,-404.7 282,-432.5 288.45,-437.19 295.86,-440.99 303.45,-444.06"/>
<polygon fill="midnightblue" stroke="midnightblue" points="205.67,-326.63 198.21,-319.1 199.35,-329.64 205.67,-326.63"/>
</g>
<!-- Node5 -->
<g id="node7" class="node">
<title>Node5</title>
<g id="a_node7"><a xlink:href="classplssvm_1_1gpu__device__ptr__exception.html" target="_top" xlink:title="Exception type thrown if an error in the generic plssvm::detail::gpu_device_ptr occurred.">
<polygon fill="white" stroke="black" points="302,-392.5 302,-422.5 415,-422.5 415,-392.5 302,-392.5"/>
<text text-anchor="start" x="310" y="-410.5" font-family="Helvetica,sans-Serif" font-size="10.00">plssvm::gpu_device</text>
<text text-anchor="middle" x="358.5" y="-399.5" font-family="Helvetica,sans-Serif" font-size="10.00">_ptr_exception</text>
</a>
</g>
</g>
<!-- Node0&#45;&gt;Node5 -->
<g id="edge6" class="edge">
<title>Node0&#45;&gt;Node5</title>
<path fill="none" stroke="midnightblue" d="M210.09,-326.46C226.7,-343.09 254.05,-368.11 282,-383.5 288.14,-386.88 294.84,-389.87 301.62,-392.49"/>
<polygon fill="midnightblue" stroke="midnightblue" points="212.34,-323.76 202.85,-319.05 207.34,-328.65 212.34,-323.76"/>
</g>
<!-- Node6 -->
<g id="node8" class="node">
<title>Node6</title>
<g id="a_node8"><a xlink:href="classplssvm_1_1hip_1_1backend__exception.html" target="_top" xlink:title="Exception type thrown if a problem with the HIP backend occurs.">
<polygon fill="white" stroke="black" points="299,-343.5 299,-373.5 418,-373.5 418,-343.5 299,-343.5"/>
<text text-anchor="start" x="307" y="-361.5" font-family="Helvetica,sans-Serif" font-size="10.00">plssvm::hip::backend</text>
<text text-anchor="middle" x="358.5" y="-350.5" font-family="Helvetica,sans-Serif" font-size="10.00">_exception</text>
</a>
</g>
</g>
<!-- Node0&#45;&gt;Node6 -->
<g id="edge7" class="edge">
<title>Node0&#45;&gt;Node6</title>
<path fill="none" stroke="midnightblue" d="M235.56,-321.95C257.4,-328.5 284.33,-336.57 307.33,-343.46"/>
<polygon fill="midnightblue" stroke="midnightblue" points="236.5,-318.58 225.91,-319.06 234.49,-325.29 236.5,-318.58"/>
</g>
<!-- Node7 -->
<g id="node9" class="node">
<title>Node7</title>
<g id="a_node9"><a xlink:href="classplssvm_1_1invalid__file__format__exception.html" target="_top" xlink:title="Exception type thrown if the provided file has an invalid format for the selected parser (e....">
<polygon fill="white" stroke="black" points="303,-294.5 303,-324.5 414,-324.5 414,-294.5 303,-294.5"/>
<text text-anchor="start" x="311" y="-312.5" font-family="Helvetica,sans-Serif" font-size="10.00">plssvm::invalid_file</text>
<text text-anchor="middle" x="358.5" y="-301.5" font-family="Helvetica,sans-Serif" font-size="10.00">_format_exception</text>
</a>
</g>
</g>
<!-- Node0&#45;&gt;Node7 -->
<g id="edge8" class="edge">
<title>Node0&#45;&gt;Node7</title>
<path fill="none" stroke="midnightblue" d="M256.59,-309.5C271.88,-309.5 288.12,-309.5 303,-309.5"/>
<polygon fill="midnightblue" stroke="midnightblue" points="256.18,-306 246.18,-309.5 256.18,-313 256.18,-306"/>
</g>
<!-- Node8 -->
<g id="node10" class="node">
<title>Node8</title>
<g id="a_node10"><a xlink:href="classplssvm_1_1invalid__parameter__exception.html" target="_top" xlink:title="Exception type thrown if the provided parameter is invalid.">
<polygon fill="white" stroke="black" points="285,-245.5 285,-275.5 432,-275.5 432,-245.5 285,-245.5"/>
<text text-anchor="start" x="293" y="-263.5" font-family="Helvetica,sans-Serif" font-size="10.00">plssvm::invalid_parameter</text>
<text text-anchor="middle" x="358.5" y="-252.5" font-family="Helvetica,sans-Serif" font-size="10.00">_exception</text>
</a>
</g>
</g>
<!-- Node0&#45;&gt;Node8 -->
<g id="edge9" class="edge">
<title>Node0&#45;&gt;Node8</title>
<path fill="none" stroke="midnightblue" d="M235.56,-297.05C257.4,-290.5 284.33,-282.43 307.33,-275.54"/>
<polygon fill="midnightblue" stroke="midnightblue" points="234.49,-293.71 225.91,-299.94 236.5,-300.42 234.49,-293.71"/>
</g>
<!-- Node9 -->
<g id="node11" class="node">
<title>Node9</title>
<g id="a_node11"><a xlink:href="classplssvm_1_1opencl_1_1backend__exception.html" target="_top" xlink:title="Exception type thrown if a problem with the OpenCL backend occurs.">
<polygon fill="white" stroke="black" points="290,-196.5 290,-226.5 427,-226.5 427,-196.5 290,-196.5"/>
<text text-anchor="start" x="298" y="-214.5" font-family="Helvetica,sans-Serif" font-size="10.00">plssvm::opencl::backend</text>
<text text-anchor="middle" x="358.5" y="-203.5" font-family="Helvetica,sans-Serif" font-size="10.00">_exception</text>
</a>
</g>
</g>
<!-- Node0&#45;&gt;Node9 -->
<g id="edge10" class="edge">
<title>Node0&#45;&gt;Node9</title>
<path fill="none" stroke="midnightblue" d="M210.72,-292.32C227.43,-275.99 254.55,-251.72 282,-236.5 288.76,-232.75 296.18,-229.45 303.64,-226.57"/>
<polygon fill="midnightblue" stroke="midnightblue" points="208,-290.09 203.39,-299.63 212.94,-295.05 208,-290.09"/>
</g>
<!-- Node10 -->
<g id="node12" class="node">
<title>Node10</title>
<g id="a_node12"><a xlink:href="classplssvm_1_1openmp_1_1backend__exception.html" target="_top" xlink:title="Exception type thrown if a problem with the OpenMP backend occurs.">
<polygon fill="white" stroke="black" points="286.5,-147.5 286.5,-177.5 430.5,-177.5 430.5,-147.5 286.5,-147.5"/>
<text text-anchor="start" x="294.5" y="-165.5" font-family="Helvetica,sans-Serif" font-size="10.00">plssvm::openmp::backend</text>
<text text-anchor="middle" x="358.5" y="-154.5" font-family="Helvetica,sans-Serif" font-size="10.00">_exception</text>
</a>
</g>
</g>
<!-- Node0&#45;&gt;Node10 -->
<g id="edge11" class="edge">
<title>Node0&#45;&gt;Node10</title>
<path fill="none" stroke="midnightblue" d="M202.84,-290.58C216.26,-263.84 244.28,-215.17 282,-187.5 287.23,-183.66 293.09,-180.39 299.16,-177.61"/>
<polygon fill="midnightblue" stroke="midnightblue" points="199.64,-289.15 198.42,-299.67 205.94,-292.21 199.64,-289.15"/>
</g>
<!-- Node11 -->
<g id="node13" class="node">
<title>Node11</title>
<g id="a_node13"><a xlink:href="classplssvm_1_1sycl_1_1backend__exception.html" target="_top" xlink:title="Exception type thrown if a problem with the SYCL backend occurs.">
<polygon fill="white" stroke="black" points="296.5,-98.5 296.5,-128.5 420.5,-128.5 420.5,-98.5 296.5,-98.5"/>
<text text-anchor="start" x="304.5" y="-116.5" font-family="Helvetica,sans-Serif" font-size="10.00">plssvm::sycl::backend</text>
<text text-anchor="middle" x="358.5" y="-105.5" font-family="Helvetica,sans-Serif" font-size="10.00">_exception</text>
</a>
</g>
</g>
<!-- Node0&#45;&gt;Node11 -->
<g id="edge12" class="edge">
<title>Node0&#45;&gt;Node11</title>
<path fill="none" stroke="midnightblue" d="M198.86,-289.71C208.57,-254.27 233.69,-179.82 282,-138.5 286.51,-134.64 291.64,-131.37 297.04,-128.61"/>
<polygon fill="midnightblue" stroke="midnightblue" points="195.38,-289.19 196.24,-299.75 202.15,-290.96 195.38,-289.19"/>
</g>
<!-- Node14 -->
<g id="node16" class="node">
<title>Node14</title>
<g id="a_node16"><a xlink:href="classplssvm_1_1unsupported__backend__exception.html" target="_top" xlink:title="Exception type thrown if the requested backend is not supported on the target machine.">
<polygon fill="white" stroke="black" points="299,-49.5 299,-79.5 418,-79.5 418,-49.5 299,-49.5"/>
<text text-anchor="start" x="307" y="-67.5" font-family="Helvetica,sans-Serif" font-size="10.00">plssvm::unsupported</text>
<text text-anchor="middle" x="358.5" y="-56.5" font-family="Helvetica,sans-Serif" font-size="10.00">_backend_exception</text>
</a>
</g>
</g>
<!-- Node0&#45;&gt;Node14 -->
<g id="edge15" class="edge">
<title>Node0&#45;&gt;Node14</title>
<path fill="none" stroke="midnightblue" d="M196.18,-289.97C202,-247.19 221.8,-144.56 282,-88.5 286.93,-83.91 292.74,-80.19 298.91,-77.19"/>
<polygon fill="midnightblue" stroke="midnightblue" points="192.71,-289.57 194.94,-299.93 199.65,-290.44 192.71,-289.57"/>
</g>
<!-- Node15 -->
<g id="node17" class="node">
<title>Node15</title>
<g id="a_node17"><a xlink:href="classplssvm_1_1unsupported__kernel__type__exception.html" target="_top" xlink:title="Exception type thrown if the requested kernel type is not supported.">
<polygon fill="white" stroke="black" points="292.5,-0.5 292.5,-30.5 424.5,-30.5 424.5,-0.5 292.5,-0.5"/>
<text text-anchor="start" x="300.5" y="-18.5" font-family="Helvetica,sans-Serif" font-size="10.00">plssvm::unsupported</text>
<text text-anchor="middle" x="358.5" y="-7.5" font-family="Helvetica,sans-Serif" font-size="10.00">_kernel_type_exception</text>
</a>
</g>
</g>
<!-- Node0&#45;&gt;Node15 -->
<g id="edge16" class="edge">
<title>Node0&#45;&gt;Node15</title>
<path fill="none" stroke="midnightblue" d="M194.56,-289.79C197.05,-240.46 210.43,-110.55 282,-39.5 285.42,-36.11 289.31,-33.2 293.49,-30.69"/>
<polygon fill="midnightblue" stroke="midnightblue" points="191.06,-289.65 194.16,-299.78 198.06,-289.93 191.06,-289.65"/>
</g>
<!-- Node12 -->
<g id="node14" class="node">
<title>Node12</title>
<g id="a_node14"><a xlink:href="classplssvm_1_1dpcpp_1_1backend__exception.html" target="_top" xlink:title="Exception type thrown if a problem with the DPC++ SYCL backend occurs.">
<polygon fill="white" stroke="black" points="473.5,-122.5 473.5,-152.5 607.5,-152.5 607.5,-122.5 473.5,-122.5"/>
<text text-anchor="start" x="481.5" y="-140.5" font-family="Helvetica,sans-Serif" font-size="10.00">plssvm::dpcpp::backend</text>
<text text-anchor="middle" x="540.5" y="-129.5" font-family="Helvetica,sans-Serif" font-size="10.00">_exception</text>
</a>
</g>
</g>
<!-- Node11&#45;&gt;Node12 -->
<g id="edge13" class="edge">
<title>Node11&#45;&gt;Node12</title>
<path fill="none" stroke="midnightblue" d="M430.76,-123C444.76,-124.87 459.4,-126.82 473.24,-128.67"/>
<polygon fill="midnightblue" stroke="midnightblue" points="431.07,-119.51 420.69,-121.66 430.14,-126.45 431.07,-119.51"/>
</g>
<!-- Node13 -->
<g id="node15" class="node">
<title>Node13</title>
<g id="a_node15"><a xlink:href="classplssvm_1_1hipsycl_1_1backend__exception.html" target="_top" xlink:title="Exception type thrown if a problem with the hipSYCL SYCL backend occurs.">
<polygon fill="white" stroke="black" points="471,-73.5 471,-103.5 610,-103.5 610,-73.5 471,-73.5"/>
<text text-anchor="start" x="479" y="-91.5" font-family="Helvetica,sans-Serif" font-size="10.00">plssvm::hipsycl::backend</text>
<text text-anchor="middle" x="540.5" y="-80.5" font-family="Helvetica,sans-Serif" font-size="10.00">_exception</text>
</a>
</g>
</g>
<!-- Node11&#45;&gt;Node13 -->
<g id="edge14" class="edge">
<title>Node11&#45;&gt;Node13</title>
<path fill="none" stroke="midnightblue" d="M430.65,-103.62C443.85,-101.78 457.62,-99.87 470.74,-98.05"/>
<polygon fill="midnightblue" stroke="midnightblue" points="430.11,-100.16 420.69,-105 431.08,-107.09 430.11,-100.16"/>
</g>
</g>
</svg>
