<?xml version="1.0" encoding="UTF-8" standalone="no"?>
<!DOCTYPE svg PUBLIC "-//W3C//DTD SVG 1.1//EN"
 "http://www.w3.org/Graphics/SVG/1.1/DTD/svg11.dtd">
<!-- Generated by graphviz version 2.43.0 (0)
 -->
<!-- Title: include/plssvm/backends/OpenCL/detail/kernel.hpp Pages: 1 -->
<svg width="353pt" height="262pt"
 viewBox="0.00 0.00 353.00 262.00" xmlns="http://www.w3.org/2000/svg" xmlns:xlink="http://www.w3.org/1999/xlink">
<g id="graph0" class="graph" transform="scale(1 1) rotate(0) translate(4 258)">
<title>include/plssvm/backends/OpenCL/detail/kernel.hpp</title>
<polygon fill="white" stroke="transparent" points="-4,4 -4,-258 349,-258 349,4 -4,4"/>
<!-- Node1 -->
<g id="node1" class="node">
<title>Node1</title>
<g id="a_node1"><a xlink:title="Defines a very small RAII wrapper around a cl_kernel.">
<polygon fill="#bfbfbf" stroke="black" points="125.5,-223.5 125.5,-253.5 267.5,-253.5 267.5,-223.5 125.5,-223.5"/>
<text text-anchor="start" x="133.5" y="-241.5" font-family="Helvetica,sans-Serif" font-size="10.00">include/plssvm/backends</text>
<text text-anchor="middle" x="196.5" y="-230.5" font-family="Helvetica,sans-Serif" font-size="10.00">/OpenCL/detail/kernel.hpp</text>
</a>
</g>
</g>
<!-- Node2 -->
<g id="node2" class="node">
<title>Node2</title>
<g id="a_node2"><a xlink:href="command__queue_8hpp.html" target="_top" xlink:title="Defines a very small RAII wrapper around a cl_command_queue including information about its associate...">
<polygon fill="white" stroke="black" points="77.5,-145.5 77.5,-186.5 217.5,-186.5 217.5,-145.5 77.5,-145.5"/>
<text text-anchor="start" x="85.5" y="-174.5" font-family="Helvetica,sans-Serif" font-size="10.00">include/plssvm/backends</text>
<text text-anchor="start" x="85.5" y="-163.5" font-family="Helvetica,sans-Serif" font-size="10.00">/OpenCL/detail/command</text>
<text text-anchor="middle" x="147.5" y="-152.5" font-family="Helvetica,sans-Serif" font-size="10.00">_queue.hpp</text>
</a>
</g>
</g>
<!-- Node1&#45;&gt;Node2 -->
<g id="edge1" class="edge">
<title>Node1&#45;&gt;Node2</title>
<path fill="none" stroke="midnightblue" d="M180.85,-214.98C174.5,-205.85 167.24,-195.4 161.11,-186.59"/>
<polygon fill="midnightblue" stroke="midnightblue" points="178,-217.02 186.58,-223.23 183.75,-213.02 178,-217.02"/>
</g>
<!-- Node5 -->
<g id="node5" class="node">
<title>Node5</title>
<g id="a_node5"><a xlink:href="backends_2OpenCL_2detail_2utility_8hpp.html" target="_top" xlink:title="Utility functions specific to the OpenCL backend.">
<polygon fill="white" stroke="black" points="206,-73 206,-103 345,-103 345,-73 206,-73"/>
<text text-anchor="start" x="214" y="-91" font-family="Helvetica,sans-Serif" font-size="10.00">include/plssvm/backends</text>
<text text-anchor="middle" x="275.5" y="-80" font-family="Helvetica,sans-Serif" font-size="10.00">/OpenCL/detail/utility.hpp</text>
</a>
</g>
</g>
<!-- Node1&#45;&gt;Node5 -->
<g id="edge6" class="edge">
<title>Node1&#45;&gt;Node5</title>
<path fill="none" stroke="midnightblue" d="M210.69,-214.41C215.81,-205.87 221.55,-196.07 226.5,-187 242.55,-157.62 259.69,-122.32 268.84,-103.12"/>
<polygon fill="midnightblue" stroke="midnightblue" points="207.63,-212.71 205.45,-223.08 213.62,-216.33 207.63,-212.71"/>
</g>
<!-- Node3 -->
<g id="node3" class="node">
<title>Node3</title>
<g id="a_node3"><a xlink:href="backends_2OpenCL_2csvm_8hpp.html" target="_top" xlink:title="Defines a C&#45;SVM using the OpenCL backend.">
<polygon fill="white" stroke="black" points="0,-0.5 0,-30.5 139,-30.5 139,-0.5 0,-0.5"/>
<text text-anchor="start" x="8" y="-18.5" font-family="Helvetica,sans-Serif" font-size="10.00">include/plssvm/backends</text>
<text text-anchor="middle" x="69.5" y="-7.5" font-family="Helvetica,sans-Serif" font-size="10.00">/OpenCL/csvm.hpp</text>
</a>
</g>
</g>
<!-- Node2&#45;&gt;Node3 -->
<g id="edge2" class="edge">
<title>Node2&#45;&gt;Node3</title>
<path fill="none" stroke="midnightblue" d="M73.57,-140.53C60.01,-132.62 47.6,-122.32 39.5,-109 24.07,-83.61 44.03,-49.41 58.02,-30.52"/>
<polygon fill="midnightblue" stroke="midnightblue" points="72.15,-143.74 82.62,-145.39 75.46,-137.57 72.15,-143.74"/>
</g>
<!-- Node4 -->
<g id="node4" class="node">
<title>Node4</title>
<g id="a_node4"><a xlink:href="OpenCL_2detail_2device__ptr_8hpp.html" target="_top" xlink:title="Small wrapper around a OpenCL device pointer.">
<polygon fill="white" stroke="black" points="49,-67.5 49,-108.5 188,-108.5 188,-67.5 49,-67.5"/>
<text text-anchor="start" x="57" y="-96.5" font-family="Helvetica,sans-Serif" font-size="10.00">include/plssvm/backends</text>
<text text-anchor="start" x="57" y="-85.5" font-family="Helvetica,sans-Serif" font-size="10.00">/OpenCL/detail/device</text>
<text text-anchor="middle" x="118.5" y="-74.5" font-family="Helvetica,sans-Serif" font-size="10.00">_ptr.hpp</text>
</a>
</g>
</g>
<!-- Node2&#45;&gt;Node4 -->
<g id="edge3" class="edge">
<title>Node2&#45;&gt;Node4</title>
<path fill="none" stroke="midnightblue" d="M136.39,-135.88C132.89,-126.72 129.12,-116.83 125.94,-108.51"/>
<polygon fill="midnightblue" stroke="midnightblue" points="133.2,-137.33 140.03,-145.43 139.74,-134.84 133.2,-137.33"/>
</g>
<!-- Node2&#45;&gt;Node5 -->
<g id="edge5" class="edge">
<title>Node2&#45;&gt;Node5</title>
<path fill="none" stroke="midnightblue" d="M189.08,-140.31C209.75,-128.04 234,-113.64 251.54,-103.23"/>
<polygon fill="midnightblue" stroke="midnightblue" points="187.27,-137.31 180.46,-145.43 190.85,-143.33 187.27,-137.31"/>
</g>
<!-- Node4&#45;&gt;Node3 -->
<g id="edge4" class="edge">
<title>Node4&#45;&gt;Node3</title>
<path fill="none" stroke="midnightblue" d="M99.14,-59.14C92.42,-49.47 85.16,-39.02 79.5,-30.89"/>
<polygon fill="midnightblue" stroke="midnightblue" points="96.27,-61.15 104.85,-67.36 102.02,-57.15 96.27,-61.15"/>
</g>
</g>
</svg>
