<?xml version="1.0" encoding="UTF-8" standalone="no"?>
<!DOCTYPE svg PUBLIC "-//W3C//DTD SVG 1.1//EN"
 "http://www.w3.org/Graphics/SVG/1.1/DTD/svg11.dtd">
<!-- Generated by graphviz version 2.43.0 (0)
 -->
<!-- Title: include/plssvm/backends/SYCL/kernel_invocation_type.hpp Pages: 1 -->
<!--zoomable 631 -->
<svg id="main" version="1.1" xmlns="http://www.w3.org/2000/svg" xmlns:xlink="http://www.w3.org/1999/xlink" xml:space="preserve" onload="init(evt)">
<style type="text/css"><![CDATA[
.edge:hover path { stroke: red; }
.edge:hover polygon { stroke: red; fill: red; }
]]></style>
<script type="text/javascript"><![CDATA[
var edges = document.getElementsByTagName('g');
if (edges && edges.length) {
  for (var i=0;i<edges.length;i++) {
    if (edges[i].id.substr(0,4)=='edge') {
      edges[i].setAttribute('class','edge');
    }
  }
}
]]></script>
        <defs>
                <circle id="rim" cx="0" cy="0" r="7"/>
                <circle id="rim2" cx="0" cy="0" r="3.5"/>
                <g id="zoomPlus">
                        <use xlink:href="#rim" fill="#404040">
                                <set attributeName="fill" to="#808080" begin="zoomplus.mouseover" end="zoomplus.mouseout"/>
                        </use>
                        <path d="M-4,0h8M0,-4v8" fill="none" stroke="white" stroke-width="1.5" pointer-events="none"/>
                </g>
                <g id="zoomMin">
                        <use xlink:href="#rim" fill="#404040">
                                <set attributeName="fill" to="#808080" begin="zoomminus.mouseover" end="zoomminus.mouseout"/>
                        </use>
                        <path d="M-4,0h8" fill="none" stroke="white" stroke-width="1.5" pointer-events="none"/>
                </g>
                <g id="dirArrow">
                        <path fill="none" stroke="white" stroke-width="1.5" d="M0,-3.0v7 M-2.5,-0.5L0,-3.0L2.5,-0.5"/>
                </g>
               <g id="resetDef">
                       <use xlink:href="#rim2" fill="#404040">
                               <set attributeName="fill" to="#808080" begin="reset.mouseover" end="reset.mouseout"/>
                       </use>
               </g>
        </defs>

<script type="text/javascript">
var viewWidth = 1099;
var viewHeight = 631;
var sectionId = 'dynsection-0';
</script>
<script xlink:href="svgpan.js"/>
<svg id="graph" class="graph">
<g id="viewport">
<title>include/plssvm/backends/SYCL/kernel_invocation_type.hpp</title>
<polygon fill="white" stroke="transparent" points="-4,4 -4,-627 1094.93,-627 1094.93,4 -4,4"/>
<!-- Node1 -->
<g id="node1" class="node">
<title>Node1</title>
<g id="a_node1"><a xlink:title="Defines an enumeration holding all possible SYCL kernel invocation types.">
<polygon fill="#bfbfbf" stroke="black" points="176,-581.5 176,-622.5 315,-622.5 315,-581.5 176,-581.5"/>
<text text-anchor="start" x="184" y="-610.5" font-family="Helvetica,sans-Serif" font-size="10.00">include/plssvm/backends</text>
<text text-anchor="start" x="184" y="-599.5" font-family="Helvetica,sans-Serif" font-size="10.00">/SYCL/kernel_invocation</text>
<text text-anchor="middle" x="245.5" y="-588.5" font-family="Helvetica,sans-Serif" font-size="10.00">_type.hpp</text>
</a>
</g>
</g>
<!-- Node2 -->
<g id="node2" class="node">
<title>Node2</title>
<g id="a_node2"><a xlink:href="backends_2SYCL_2DPCPP_2csvm_8hpp.html" target="_top" xlink:title="Defines a base C&#45;SVM used for the different SYCL backends using DPC++ as SYCL implementation.">
<polygon fill="white" stroke="black" points="0,-0.5 0,-30.5 139,-30.5 139,-0.5 0,-0.5"/>
<text text-anchor="start" x="8" y="-18.5" font-family="Helvetica,sans-Serif" font-size="10.00">include/plssvm/backends</text>
<text text-anchor="middle" x="69.5" y="-7.5" font-family="Helvetica,sans-Serif" font-size="10.00">/SYCL/DPCPP/csvm.hpp</text>
</a>
</g>
</g>
<!-- Node1&#45;&gt;Node2 -->
<g id="edge1" class="edge">
<title>Node1&#45;&gt;Node2</title>
<path fill="none" stroke="midnightblue" d="M204.6,-575.58C171.2,-551.32 129.5,-511.44 129.5,-463.5 129.5,-463.5 129.5,-463.5 129.5,-143 129.5,-98.52 98.84,-52.99 81.35,-30.64"/>
<polygon fill="midnightblue" stroke="midnightblue" points="202.69,-578.51 212.88,-581.4 206.71,-572.78 202.69,-578.51"/>
</g>
<!-- Node3 -->
<g id="node3" class="node">
<title>Node3</title>
<g id="a_node3"><a xlink:href="backends_2SYCL_2hipSYCL_2csvm_8hpp.html" target="_top" xlink:title="Defines a base C&#45;SVM used for the different SYCL backends using hipSYCL as SYCL implementation.">
<polygon fill="white" stroke="black" points="157,-0.5 157,-30.5 296,-30.5 296,-0.5 157,-0.5"/>
<text text-anchor="start" x="165" y="-18.5" font-family="Helvetica,sans-Serif" font-size="10.00">include/plssvm/backends</text>
<text text-anchor="middle" x="226.5" y="-7.5" font-family="Helvetica,sans-Serif" font-size="10.00">/SYCL/hipSYCL/csvm.hpp</text>
</a>
</g>
</g>
<!-- Node1&#45;&gt;Node3 -->
<g id="edge2" class="edge">
<title>Node1&#45;&gt;Node3</title>
<path fill="none" stroke="midnightblue" d="M238.98,-571.22C233.48,-543.48 226.5,-500.89 226.5,-463.5 226.5,-463.5 226.5,-463.5 226.5,-143 226.5,-102.15 226.5,-53.88 226.5,-30.54"/>
<polygon fill="midnightblue" stroke="midnightblue" points="235.56,-571.98 241,-581.08 242.42,-570.58 235.56,-571.98"/>
</g>
<!-- Node4 -->
<g id="node4" class="node">
<title>Node4</title>
<g id="a_node4"><a xlink:href="core_8hpp.html" target="_top" xlink:title="Core header including all other necessary headers.">
<polygon fill="white" stroke="black" points="785,-6 785,-25 920,-25 920,-6 785,-6"/>
<text text-anchor="middle" x="852.5" y="-13" font-family="Helvetica,sans-Serif" font-size="10.00">include/plssvm/core.hpp</text>
</a>
</g>
</g>
<!-- Node1&#45;&gt;Node4 -->
<g id="edge3" class="edge">
<title>Node1&#45;&gt;Node4</title>
<path fill="none" stroke="midnightblue" d="M252.02,-571.22C257.52,-543.48 264.5,-500.89 264.5,-463.5 264.5,-463.5 264.5,-463.5 264.5,-260.5 264.5,-224.4 492.11,-80.73 525.5,-67 629.73,-24.13 665.34,-49.57 776.5,-31 787.23,-29.21 798.78,-27.1 809.56,-25.05"/>
<polygon fill="midnightblue" stroke="midnightblue" points="248.58,-570.58 250,-581.08 255.44,-571.98 248.58,-570.58"/>
</g>
<!-- Node5 -->
<g id="node5" class="node">
<title>Node5</title>
<g id="a_node5"><a xlink:href="parser__train_8hpp.html" target="_top" xlink:title="Implements a class encapsulating all necessary parameters for training the C&#45;SVM possibly provided th...">
<polygon fill="white" stroke="black" points="501,-514.5 501,-544.5 624,-544.5 624,-514.5 501,-514.5"/>
<text text-anchor="start" x="509" y="-532.5" font-family="Helvetica,sans-Serif" font-size="10.00">include/plssvm/detail</text>
<text text-anchor="middle" x="562.5" y="-521.5" font-family="Helvetica,sans-Serif" font-size="10.00">/cmd/parser_train.hpp</text>
</a>
</g>
</g>
<!-- Node1&#45;&gt;Node5 -->
<g id="edge4" class="edge">
<title>Node1&#45;&gt;Node5</title>
<path fill="none" stroke="midnightblue" d="M325.03,-583.31C379.51,-571.2 450.69,-555.37 500.87,-544.21"/>
<polygon fill="midnightblue" stroke="midnightblue" points="324.07,-579.94 315.07,-585.53 325.59,-586.77 324.07,-579.94"/>
</g>
<!-- Node6 -->
<g id="node6" class="node">
<title>Node6</title>
<g id="a_node6"><a xlink:href="data__set__variants_8hpp.html" target="_top" xlink:title="Implements utility functions to create a data set based on runtime parameters.">
<polygon fill="white" stroke="black" points="918.5,-246.5 918.5,-276.5 1070.5,-276.5 1070.5,-246.5 918.5,-246.5"/>
<text text-anchor="start" x="926.5" y="-264.5" font-family="Helvetica,sans-Serif" font-size="10.00">include/plssvm/detail</text>
<text text-anchor="middle" x="994.5" y="-253.5" font-family="Helvetica,sans-Serif" font-size="10.00">/cmd/data_set_variants.hpp</text>
</a>
</g>
</g>
<!-- Node5&#45;&gt;Node6 -->
<g id="edge5" class="edge">
<title>Node5&#45;&gt;Node6</title>
<path fill="none" stroke="midnightblue" d="M610.94,-510.87C683.81,-482.86 823.8,-423.17 924.5,-344 949.72,-324.17 972.65,-294.2 984.98,-276.66"/>
<polygon fill="midnightblue" stroke="midnightblue" points="609.64,-507.62 601.54,-514.45 612.13,-514.16 609.64,-507.62"/>
</g>
<!-- Node7 -->
<g id="node7" class="node">
<title>Node7</title>
<g id="a_node7"><a xlink:href="performance__tracker_8hpp.html" target="_top" xlink:title="Defines a performance tracker which can dump performance information in a YAML file.">
<polygon fill="white" stroke="black" points="492,-447.5 492,-477.5 633,-477.5 633,-447.5 492,-447.5"/>
<text text-anchor="start" x="500" y="-465.5" font-family="Helvetica,sans-Serif" font-size="10.00">include/plssvm/detail</text>
<text text-anchor="middle" x="562.5" y="-454.5" font-family="Helvetica,sans-Serif" font-size="10.00">/performance_tracker.hpp</text>
</a>
</g>
</g>
<!-- Node5&#45;&gt;Node7 -->
<g id="edge6" class="edge">
<title>Node5&#45;&gt;Node7</title>
<path fill="none" stroke="midnightblue" d="M562.5,-504.11C562.5,-495.15 562.5,-485.32 562.5,-477.58"/>
<polygon fill="midnightblue" stroke="midnightblue" points="559,-504.4 562.5,-514.4 566,-504.4 559,-504.4"/>
</g>
<!-- Node8 -->
<g id="node8" class="node">
<title>Node8</title>
<g id="a_node8"><a xlink:href="gpu__csvm_8hpp.html" target="_top" xlink:title="Defines the base class for all C&#45;SVM backends using a GPU. Used for code duplication reduction.">
<polygon fill="white" stroke="black" points="314,-67.5 314,-97.5 453,-97.5 453,-67.5 314,-67.5"/>
<text text-anchor="start" x="322" y="-85.5" font-family="Helvetica,sans-Serif" font-size="10.00">include/plssvm/backends</text>
<text text-anchor="middle" x="383.5" y="-74.5" font-family="Helvetica,sans-Serif" font-size="10.00">/gpu_csvm.hpp</text>
</a>
</g>
</g>
<!-- Node7&#45;&gt;Node8 -->
<g id="edge7" class="edge">
<title>Node7&#45;&gt;Node8</title>
<path fill="none" stroke="midnightblue" d="M481.69,-454.13C405.36,-442.21 302.5,-411.01 302.5,-329.5 302.5,-329.5 302.5,-329.5 302.5,-199 302.5,-155.89 340.79,-117.47 364.71,-97.66"/>
<polygon fill="midnightblue" stroke="midnightblue" points="481.39,-457.63 491.8,-455.63 482.42,-450.7 481.39,-457.63"/>
</g>
<!-- Node12 -->
<g id="node12" class="node">
<title>Node12</title>
<g id="a_node12"><a xlink:href="csvm_8hpp.html" target="_top" xlink:title="Defines the base class for all C&#45;SVM backends and implements the functionality shared by all of them.">
<polygon fill="white" stroke="black" points="700.5,-134.5 700.5,-153.5 840.5,-153.5 840.5,-134.5 700.5,-134.5"/>
<text text-anchor="middle" x="770.5" y="-141.5" font-family="Helvetica,sans-Serif" font-size="10.00">include/plssvm/csvm.hpp</text>
</a>
</g>
</g>
<!-- Node7&#45;&gt;Node12 -->
<g id="edge13" class="edge">
<title>Node7&#45;&gt;Node12</title>
<path fill="none" stroke="midnightblue" d="M643.35,-460.49C763.25,-454.03 984.27,-421.91 1079.5,-277 1139.09,-186.32 948.97,-157.73 840.54,-148.87"/>
<polygon fill="midnightblue" stroke="midnightblue" points="642.95,-457.01 633.13,-460.99 643.29,-464 642.95,-457.01"/>
</g>
<!-- Node15 -->
<g id="node15" class="node">
<title>Node15</title>
<g id="a_node15"><a xlink:href="data__set_8hpp.html" target="_top" xlink:title="Implements a data set class encapsulating all data points, features, and potential labels.">
<polygon fill="white" stroke="black" points="800,-313.5 800,-343.5 915,-343.5 915,-313.5 800,-313.5"/>
<text text-anchor="start" x="808" y="-331.5" font-family="Helvetica,sans-Serif" font-size="10.00">include/plssvm/data</text>
<text text-anchor="middle" x="857.5" y="-320.5" font-family="Helvetica,sans-Serif" font-size="10.00">_set.hpp</text>
</a>
</g>
</g>
<!-- Node7&#45;&gt;Node15 -->
<g id="edge19" class="edge">
<title>Node7&#45;&gt;Node15</title>
<path fill="none" stroke="midnightblue" d="M604.09,-443.37C625.97,-433.8 653.21,-421.83 677.5,-411 729.98,-387.6 790.84,-359.93 826.65,-343.6"/>
<polygon fill="midnightblue" stroke="midnightblue" points="602.53,-440.24 594.76,-447.45 605.33,-446.65 602.53,-440.24"/>
</g>
<!-- Node17 -->
<g id="node17" class="node">
<title>Node17</title>
<g id="a_node17"><a xlink:href="model_8hpp.html" target="_top" xlink:title="Implements a model class encapsulating the results of a SVM fit call.">
<polygon fill="white" stroke="black" points="539,-190.5 539,-209.5 684,-209.5 684,-190.5 539,-190.5"/>
<text text-anchor="middle" x="611.5" y="-197.5" font-family="Helvetica,sans-Serif" font-size="10.00">include/plssvm/model.hpp</text>
</a>
</g>
</g>
<!-- Node7&#45;&gt;Node17 -->
<g id="edge37" class="edge">
<title>Node7&#45;&gt;Node17</title>
<path fill="none" stroke="midnightblue" d="M548.72,-438.08C544.58,-429.81 540.59,-420.26 538.5,-411 535.47,-397.56 537.08,-393.7 538.5,-380 544.76,-319.48 537.56,-299.52 566.5,-246 574.59,-231.03 589.23,-217.79 599.62,-209.61"/>
<polygon fill="midnightblue" stroke="midnightblue" points="545.74,-439.93 553.54,-447.1 551.92,-436.63 545.74,-439.93"/>
</g>
<!-- Node18 -->
<g id="node18" class="node">
<title>Node18</title>
<g id="a_node18"><a xlink:href="layout_8hpp.html" target="_top" xlink:title="Defines functions to convert 2D vectors to 1D SoA or AoS vectors.">
<polygon fill="white" stroke="black" points="331,-313.5 331,-343.5 452,-343.5 452,-313.5 331,-313.5"/>
<text text-anchor="start" x="339" y="-331.5" font-family="Helvetica,sans-Serif" font-size="10.00">include/plssvm/detail</text>
<text text-anchor="middle" x="391.5" y="-320.5" font-family="Helvetica,sans-Serif" font-size="10.00">/layout.hpp</text>
</a>
</g>
</g>
<!-- Node7&#45;&gt;Node18 -->
<g id="edge28" class="edge">
<title>Node7&#45;&gt;Node18</title>
<path fill="none" stroke="midnightblue" d="M535.86,-440.94C500.76,-413.84 439.92,-366.88 409.67,-343.52"/>
<polygon fill="midnightblue" stroke="midnightblue" points="534.15,-444.03 544.2,-447.37 538.42,-438.49 534.15,-444.03"/>
</g>
<!-- Node19 -->
<g id="node19" class="node">
<title>Node19</title>
<g id="a_node19"><a xlink:href="logger_8hpp.html" target="_top" xlink:title="Defines a simple logging function.">
<polygon fill="white" stroke="black" points="547,-380.5 547,-410.5 668,-410.5 668,-380.5 547,-380.5"/>
<text text-anchor="start" x="555" y="-398.5" font-family="Helvetica,sans-Serif" font-size="10.00">include/plssvm/detail</text>
<text text-anchor="middle" x="607.5" y="-387.5" font-family="Helvetica,sans-Serif" font-size="10.00">/logger.hpp</text>
</a>
</g>
</g>
<!-- Node7&#45;&gt;Node19 -->
<g id="edge30" class="edge">
<title>Node7&#45;&gt;Node19</title>
<path fill="none" stroke="midnightblue" d="M577.97,-439.16C584.53,-429.68 591.98,-418.92 597.75,-410.58"/>
<polygon fill="midnightblue" stroke="midnightblue" points="575.08,-437.18 572.26,-447.4 580.83,-441.17 575.08,-437.18"/>
</g>
<!-- Node8&#45;&gt;Node2 -->
<g id="edge11" class="edge">
<title>Node8&#45;&gt;Node2</title>
<path fill="none" stroke="midnightblue" d="M305.64,-65.38C253.99,-54.69 186.87,-40.8 137.4,-30.55"/>
<polygon fill="midnightblue" stroke="midnightblue" points="305.25,-68.88 315.75,-67.48 306.67,-62.02 305.25,-68.88"/>
</g>
<!-- Node8&#45;&gt;Node3 -->
<g id="edge12" class="edge">
<title>Node8&#45;&gt;Node3</title>
<path fill="none" stroke="midnightblue" d="M340.13,-63.54C315.01,-53.14 283.84,-40.24 260.5,-30.58"/>
<polygon fill="midnightblue" stroke="midnightblue" points="338.86,-66.8 349.43,-67.4 341.53,-60.34 338.86,-66.8"/>
</g>
<!-- Node9 -->
<g id="node9" class="node">
<title>Node9</title>
<g id="a_node9"><a xlink:href="backends_2CUDA_2csvm_8hpp.html" target="_top" xlink:title="Defines a C&#45;SVM using the CUDA backend.">
<polygon fill="white" stroke="black" points="314,-0.5 314,-30.5 453,-30.5 453,-0.5 314,-0.5"/>
<text text-anchor="start" x="322" y="-18.5" font-family="Helvetica,sans-Serif" font-size="10.00">include/plssvm/backends</text>
<text text-anchor="middle" x="383.5" y="-7.5" font-family="Helvetica,sans-Serif" font-size="10.00">/CUDA/csvm.hpp</text>
</a>
</g>
</g>
<!-- Node8&#45;&gt;Node9 -->
<g id="edge8" class="edge">
<title>Node8&#45;&gt;Node9</title>
<path fill="none" stroke="midnightblue" d="M383.5,-57.11C383.5,-48.15 383.5,-38.32 383.5,-30.58"/>
<polygon fill="midnightblue" stroke="midnightblue" points="380,-57.4 383.5,-67.4 387,-57.4 380,-57.4"/>
</g>
<!-- Node10 -->
<g id="node10" class="node">
<title>Node10</title>
<g id="a_node10"><a xlink:href="backends_2HIP_2csvm_8hpp.html" target="_top" xlink:title="Defines a C&#45;SVM using the HIP backend.">
<polygon fill="white" stroke="black" points="471,-0.5 471,-30.5 610,-30.5 610,-0.5 471,-0.5"/>
<text text-anchor="start" x="479" y="-18.5" font-family="Helvetica,sans-Serif" font-size="10.00">include/plssvm/backends</text>
<text text-anchor="middle" x="540.5" y="-7.5" font-family="Helvetica,sans-Serif" font-size="10.00">/HIP/csvm.hpp</text>
</a>
</g>
</g>
<!-- Node8&#45;&gt;Node10 -->
<g id="edge9" class="edge">
<title>Node8&#45;&gt;Node10</title>
<path fill="none" stroke="midnightblue" d="M426.87,-63.54C451.99,-53.14 483.16,-40.24 506.5,-30.58"/>
<polygon fill="midnightblue" stroke="midnightblue" points="425.47,-60.34 417.57,-67.4 428.14,-66.8 425.47,-60.34"/>
</g>
<!-- Node11 -->
<g id="node11" class="node">
<title>Node11</title>
<g id="a_node11"><a xlink:href="backends_2OpenCL_2csvm_8hpp.html" target="_top" xlink:title="Defines a C&#45;SVM using the OpenCL backend.">
<polygon fill="white" stroke="black" points="628,-0.5 628,-30.5 767,-30.5 767,-0.5 628,-0.5"/>
<text text-anchor="start" x="636" y="-18.5" font-family="Helvetica,sans-Serif" font-size="10.00">include/plssvm/backends</text>
<text text-anchor="middle" x="697.5" y="-7.5" font-family="Helvetica,sans-Serif" font-size="10.00">/OpenCL/csvm.hpp</text>
</a>
</g>
</g>
<!-- Node8&#45;&gt;Node11 -->
<g id="edge10" class="edge">
<title>Node8&#45;&gt;Node11</title>
<path fill="none" stroke="midnightblue" d="M461.36,-65.38C513.01,-54.69 580.13,-40.8 629.6,-30.55"/>
<polygon fill="midnightblue" stroke="midnightblue" points="460.33,-62.02 451.25,-67.48 461.75,-68.88 460.33,-62.02"/>
</g>
<!-- Node12&#45;&gt;Node4 -->
<g id="edge16" class="edge">
<title>Node12&#45;&gt;Node4</title>
<path fill="none" stroke="midnightblue" d="M797.9,-129.42C810.54,-121.82 824.66,-111.21 833.5,-98 848.93,-74.94 851.91,-40.92 852.43,-25.13"/>
<polygon fill="midnightblue" stroke="midnightblue" points="796.05,-126.44 789.06,-134.4 799.49,-132.54 796.05,-126.44"/>
</g>
<!-- Node12&#45;&gt;Node8 -->
<g id="edge14" class="edge">
<title>Node12&#45;&gt;Node8</title>
<path fill="none" stroke="midnightblue" d="M705.04,-132.94C635.13,-122.19 524.77,-105.22 453.25,-94.22"/>
<polygon fill="midnightblue" stroke="midnightblue" points="704.64,-136.41 715.05,-134.48 705.7,-129.5 704.64,-136.41"/>
</g>
<!-- Node13 -->
<g id="node13" class="node">
<title>Node13</title>
<g id="a_node13"><a xlink:href="backends_2OpenMP_2csvm_8hpp.html" target="_top" xlink:title="Defines a C&#45;SVM using the OpenMP backend.">
<polygon fill="white" stroke="black" points="548,-67.5 548,-97.5 687,-97.5 687,-67.5 548,-67.5"/>
<text text-anchor="start" x="556" y="-85.5" font-family="Helvetica,sans-Serif" font-size="10.00">include/plssvm/backends</text>
<text text-anchor="middle" x="617.5" y="-74.5" font-family="Helvetica,sans-Serif" font-size="10.00">/OpenMP/csvm.hpp</text>
</a>
</g>
</g>
<!-- Node12&#45;&gt;Node13 -->
<g id="edge15" class="edge">
<title>Node12&#45;&gt;Node13</title>
<path fill="none" stroke="midnightblue" d="M739.25,-130.85C714.4,-121.18 679.59,-107.65 653.56,-97.52"/>
<polygon fill="midnightblue" stroke="midnightblue" points="737.99,-134.11 748.58,-134.48 740.53,-127.59 737.99,-134.11"/>
</g>
<!-- Node14 -->
<g id="node14" class="node">
<title>Node14</title>
<g id="a_node14"><a xlink:href="csvm__factory_8hpp.html" target="_top" xlink:title="Factory function for constructing a new C&#45;SVM based on the provided plssvm::backend_type and potentia...">
<polygon fill="white" stroke="black" points="705,-67.5 705,-97.5 824,-97.5 824,-67.5 705,-67.5"/>
<text text-anchor="start" x="713" y="-85.5" font-family="Helvetica,sans-Serif" font-size="10.00">include/plssvm/csvm</text>
<text text-anchor="middle" x="764.5" y="-74.5" font-family="Helvetica,sans-Serif" font-size="10.00">_factory.hpp</text>
</a>
</g>
</g>
<!-- Node12&#45;&gt;Node14 -->
<g id="edge17" class="edge">
<title>Node12&#45;&gt;Node14</title>
<path fill="none" stroke="midnightblue" d="M768.61,-124.23C767.74,-115.59 766.72,-105.5 765.91,-97.52"/>
<polygon fill="midnightblue" stroke="midnightblue" points="765.15,-124.88 769.64,-134.48 772.12,-124.17 765.15,-124.88"/>
</g>
<!-- Node14&#45;&gt;Node4 -->
<g id="edge18" class="edge">
<title>Node14&#45;&gt;Node4</title>
<path fill="none" stroke="midnightblue" d="M791.84,-61.31C808.36,-49.1 828.57,-34.18 840.98,-25.01"/>
<polygon fill="midnightblue" stroke="midnightblue" points="789.56,-58.64 783.59,-67.4 793.72,-64.27 789.56,-58.64"/>
</g>
<!-- Node15&#45;&gt;Node4 -->
<g id="edge20" class="edge">
<title>Node15&#45;&gt;Node4</title>
<path fill="none" stroke="midnightblue" d="M867.47,-304.01C877.19,-278.96 890.5,-237.9 890.5,-201 890.5,-201 890.5,-201 890.5,-143 890.5,-96.91 867.07,-45.21 857.01,-25.13"/>
<polygon fill="midnightblue" stroke="midnightblue" points="864.18,-302.81 863.71,-313.4 870.68,-305.42 864.18,-302.81"/>
</g>
<!-- Node15&#45;&gt;Node6 -->
<g id="edge22" class="edge">
<title>Node15&#45;&gt;Node6</title>
<path fill="none" stroke="midnightblue" d="M896.51,-308.99C918.22,-298.69 944.83,-286.07 964.83,-276.58"/>
<polygon fill="midnightblue" stroke="midnightblue" points="894.76,-305.95 887.23,-313.4 897.76,-312.27 894.76,-305.95"/>
</g>
<!-- Node15&#45;&gt;Node12 -->
<g id="edge21" class="edge">
<title>Node15&#45;&gt;Node12</title>
<path fill="none" stroke="midnightblue" d="M846.45,-304.32C827.03,-263.58 787.62,-180.92 774.7,-153.82"/>
<polygon fill="midnightblue" stroke="midnightblue" points="843.36,-305.96 850.82,-313.48 849.67,-302.95 843.36,-305.96"/>
</g>
<!-- Node16 -->
<g id="node16" class="node">
<title>Node16</title>
<g id="a_node16"><a xlink:href="libsvm__model__parsing_8hpp.html" target="_top" xlink:title="Implements parsing functions for the LIBSVM model file.">
<polygon fill="white" stroke="black" points="585,-246.5 585,-276.5 748,-276.5 748,-246.5 585,-246.5"/>
<text text-anchor="start" x="593" y="-264.5" font-family="Helvetica,sans-Serif" font-size="10.00">include/plssvm/detail</text>
<text text-anchor="middle" x="666.5" y="-253.5" font-family="Helvetica,sans-Serif" font-size="10.00">/io/libsvm_model_parsing.hpp</text>
</a>
</g>
</g>
<!-- Node15&#45;&gt;Node16 -->
<g id="edge23" class="edge">
<title>Node15&#45;&gt;Node16</title>
<path fill="none" stroke="midnightblue" d="M806.35,-310.09C775.51,-299.6 736.75,-286.41 707.86,-276.58"/>
<polygon fill="midnightblue" stroke="midnightblue" points="805.46,-313.49 816.06,-313.4 807.72,-306.86 805.46,-313.49"/>
</g>
<!-- Node15&#45;&gt;Node17 -->
<g id="edge27" class="edge">
<title>Node15&#45;&gt;Node17</title>
<path fill="none" stroke="midnightblue" d="M836.61,-306.36C817.5,-288.1 787.7,-262.16 757.5,-246 724.76,-228.48 684.17,-216.66 654.1,-209.55"/>
<polygon fill="midnightblue" stroke="midnightblue" points="834.26,-308.96 843.87,-313.43 839.14,-303.95 834.26,-308.96"/>
</g>
<!-- Node16&#45;&gt;Node17 -->
<g id="edge24" class="edge">
<title>Node16&#45;&gt;Node17</title>
<path fill="none" stroke="midnightblue" d="M646.63,-239C637.25,-228.86 626.6,-217.33 619.5,-209.66"/>
<polygon fill="midnightblue" stroke="midnightblue" points="644.11,-241.43 653.47,-246.4 649.25,-236.68 644.11,-241.43"/>
</g>
<!-- Node17&#45;&gt;Node4 -->
<g id="edge25" class="edge">
<title>Node17&#45;&gt;Node4</title>
<path fill="none" stroke="midnightblue" d="M591.68,-183.65C560.46,-157.67 506.5,-104.2 538.5,-67 573.38,-26.45 723.77,-40.01 776.5,-31 787.09,-29.19 798.49,-27.09 809.15,-25.07"/>
<polygon fill="midnightblue" stroke="midnightblue" points="589.82,-186.65 599.79,-190.22 594.22,-181.21 589.82,-186.65"/>
</g>
<!-- Node17&#45;&gt;Node12 -->
<g id="edge26" class="edge">
<title>Node17&#45;&gt;Node12</title>
<path fill="none" stroke="midnightblue" d="M646.33,-187.17C676.27,-177 718.72,-162.59 745.42,-153.52"/>
<polygon fill="midnightblue" stroke="midnightblue" points="645.04,-183.91 636.69,-190.44 647.29,-190.54 645.04,-183.91"/>
</g>
<!-- Node18&#45;&gt;Node8 -->
<g id="edge29" class="edge">
<title>Node18&#45;&gt;Node8</title>
<path fill="none" stroke="midnightblue" d="M390.71,-303.33C389.05,-252.92 385.28,-137.94 383.97,-97.71"/>
<polygon fill="midnightblue" stroke="midnightblue" points="387.21,-303.45 391.04,-313.33 394.21,-303.22 387.21,-303.45"/>
</g>
<!-- Node19&#45;&gt;Node8 -->
<g id="edge31" class="edge">
<title>Node19&#45;&gt;Node8</title>
<path fill="none" stroke="midnightblue" d="M591.06,-372.16C584.63,-363.39 577.2,-353.24 570.5,-344 502.52,-250.26 421.56,-136.88 393.59,-97.65"/>
<polygon fill="midnightblue" stroke="midnightblue" points="588.36,-374.39 597.1,-380.38 594,-370.25 588.36,-374.39"/>
</g>
<!-- Node19&#45;&gt;Node12 -->
<g id="edge32" class="edge">
<title>Node19&#45;&gt;Node12</title>
<path fill="none" stroke="midnightblue" d="M646.56,-375.62C682.06,-356.19 732.58,-322.38 757.5,-277 780.22,-235.62 774.89,-175.87 771.86,-153.7"/>
<polygon fill="midnightblue" stroke="midnightblue" points="644.61,-372.69 637.43,-380.48 647.91,-378.87 644.61,-372.69"/>
</g>
<!-- Node19&#45;&gt;Node15 -->
<g id="edge33" class="edge">
<title>Node19&#45;&gt;Node15</title>
<path fill="none" stroke="midnightblue" d="M671.28,-377.92C712.08,-367.31 764.43,-353.7 803.23,-343.61"/>
<polygon fill="midnightblue" stroke="midnightblue" points="670.24,-374.57 661.44,-380.48 672,-381.35 670.24,-374.57"/>
</g>
<!-- Node19&#45;&gt;Node16 -->
<g id="edge34" class="edge">
<title>Node19&#45;&gt;Node16</title>
<path fill="none" stroke="midnightblue" d="M617.95,-371.12C630.21,-343.68 650.15,-299.09 660.23,-276.52"/>
<polygon fill="midnightblue" stroke="midnightblue" points="614.7,-369.82 613.81,-380.37 621.09,-372.67 614.7,-369.82"/>
</g>
<!-- Node19&#45;&gt;Node17 -->
<g id="edge36" class="edge">
<title>Node19&#45;&gt;Node17</title>
<path fill="none" stroke="midnightblue" d="M595.05,-371.13C580.96,-341.46 561.76,-288.97 576.5,-246 581.51,-231.4 593.41,-217.88 601.94,-209.55"/>
<polygon fill="midnightblue" stroke="midnightblue" points="592,-372.86 599.58,-380.27 598.28,-369.75 592,-372.86"/>
</g>
<!-- Node19&#45;&gt;Node18 -->
<g id="edge35" class="edge">
<title>Node19&#45;&gt;Node18</title>
<path fill="none" stroke="midnightblue" d="M551.27,-377.58C516.19,-367.02 471.56,-353.59 438.39,-343.61"/>
<polygon fill="midnightblue" stroke="midnightblue" points="550.31,-380.95 560.9,-380.48 552.33,-374.24 550.31,-380.95"/>
</g>
</g>
</svg>
        <g id="navigator" transform="translate(0 0)" fill="#404254">
                <rect fill="#f2f5e9" fill-opacity="0.5" stroke="#606060" stroke-width=".5" x="0" y="0" width="60" height="60"/>
                <use id="zoomplus" xlink:href="#zoomPlus" x="17" y="9" onmousedown="handleZoom(evt,'in')"/>
                <use id="zoomminus" xlink:href="#zoomMin" x="42" y="9" onmousedown="handleZoom(evt,'out')"/>
                <use id="reset" xlink:href="#resetDef" x="30" y="36" onmousedown="handleReset()"/>
                <g id="arrowUp" xlink:href="#dirArrow" transform="translate(30 24)" onmousedown="handlePan(0,-1)">
                  <use xlink:href="#rim" fill="#404040">
                        <set attributeName="fill" to="#808080" begin="arrowUp.mouseover" end="arrowUp.mouseout"/>
                  </use>
                  <path fill="none" stroke="white" stroke-width="1.5" d="M0,-3.0v7 M-2.5,-0.5L0,-3.0L2.5,-0.5"/>
                </g>
                <g id="arrowRight" xlink:href="#dirArrow" transform="rotate(90) translate(36 -43)" onmousedown="handlePan(1,0)">
                  <use xlink:href="#rim" fill="#404040">
                        <set attributeName="fill" to="#808080" begin="arrowRight.mouseover" end="arrowRight.mouseout"/>
                  </use>
                  <path fill="none" stroke="white" stroke-width="1.5" d="M0,-3.0v7 M-2.5,-0.5L0,-3.0L2.5,-0.5"/>
                </g>
                <g id="arrowDown" xlink:href="#dirArrow" transform="rotate(180) translate(-30 -48)" onmousedown="handlePan(0,1)">
                  <use xlink:href="#rim" fill="#404040">
                        <set attributeName="fill" to="#808080" begin="arrowDown.mouseover" end="arrowDown.mouseout"/>
                  </use>
                  <path fill="none" stroke="white" stroke-width="1.5" d="M0,-3.0v7 M-2.5,-0.5L0,-3.0L2.5,-0.5"/>
                </g>
                <g id="arrowLeft" xlink:href="#dirArrow" transform="rotate(270) translate(-36 17)" onmousedown="handlePan(-1,0)">
                  <use xlink:href="#rim" fill="#404040">
                        <set attributeName="fill" to="#808080" begin="arrowLeft.mouseover" end="arrowLeft.mouseout"/>
                  </use>
                  <path fill="none" stroke="white" stroke-width="1.5" d="M0,-3.0v7 M-2.5,-0.5L0,-3.0L2.5,-0.5"/>
                </g>
        </g>
        <svg viewBox="0 0 15 15" width="100%" height="30px" preserveAspectRatio="xMaxYMin meet">
         <g id="arrow_out" transform="scale(0.3 0.3)">
          <a xlink:href="kernel__invocation__type_8hpp__dep__incl_org.svg" target="_base">
           <rect id="button" ry="5" rx="5" y="6" x="6" height="38" width="38"
                fill="#f2f5e9" fill-opacity="0.5" stroke="#606060" stroke-width="1.0"/>
           <path id="arrow"
             d="M 11.500037,31.436501 C 11.940474,20.09759 22.043105,11.32322 32.158766,21.979434 L 37.068811,17.246167 C 37.068811,17.246167 37.088388,32 37.088388,32 L 22.160133,31.978069 C 22.160133,31.978069 26.997745,27.140456 26.997745,27.140456 C 18.528582,18.264221 13.291696,25.230495 11.500037,31.436501 z"
             style="fill:#404040;"/>
          </a>
         </g>
        </svg>
</svg>
