<?xml version="1.0" encoding="UTF-8" standalone="no"?>
<!DOCTYPE svg PUBLIC "-//W3C//DTD SVG 1.1//EN"
 "http://www.w3.org/Graphics/SVG/1.1/DTD/svg11.dtd">
<!-- Generated by graphviz version 2.43.0 (0)
 -->
<!-- Title: include/plssvm/kernel_function_types.hpp Pages: 1 -->
<!--zoomable 687 -->
<svg id="main" version="1.1" xmlns="http://www.w3.org/2000/svg" xmlns:xlink="http://www.w3.org/1999/xlink" xml:space="preserve" onload="init(evt)">
<style type="text/css"><![CDATA[
.edge:hover path { stroke: red; }
.edge:hover polygon { stroke: red; fill: red; }
]]></style>
<script type="text/javascript"><![CDATA[
var edges = document.getElementsByTagName('g');
if (edges && edges.length) {
  for (var i=0;i<edges.length;i++) {
    if (edges[i].id.substr(0,4)=='edge') {
      edges[i].setAttribute('class','edge');
    }
  }
}
]]></script>
        <defs>
                <circle id="rim" cx="0" cy="0" r="7"/>
                <circle id="rim2" cx="0" cy="0" r="3.5"/>
                <g id="zoomPlus">
                        <use xlink:href="#rim" fill="#404040">
                                <set attributeName="fill" to="#808080" begin="zoomplus.mouseover" end="zoomplus.mouseout"/>
                        </use>
                        <path d="M-4,0h8M0,-4v8" fill="none" stroke="white" stroke-width="1.5" pointer-events="none"/>
                </g>
                <g id="zoomMin">
                        <use xlink:href="#rim" fill="#404040">
                                <set attributeName="fill" to="#808080" begin="zoomminus.mouseover" end="zoomminus.mouseout"/>
                        </use>
                        <path d="M-4,0h8" fill="none" stroke="white" stroke-width="1.5" pointer-events="none"/>
                </g>
                <g id="dirArrow">
                        <path fill="none" stroke="white" stroke-width="1.5" d="M0,-3.0v7 M-2.5,-0.5L0,-3.0L2.5,-0.5"/>
                </g>
               <g id="resetDef">
                       <use xlink:href="#rim2" fill="#404040">
                               <set attributeName="fill" to="#808080" begin="reset.mouseover" end="reset.mouseout"/>
                       </use>
               </g>
        </defs>

<script type="text/javascript">
var viewWidth = 1454;
var viewHeight = 687;
var sectionId = 'dynsection-0';
</script>
<script xlink:href="svgpan.js"/>
<svg id="graph" class="graph">
<g id="viewport">
<title>include/plssvm/kernel_function_types.hpp</title>
<polygon fill="white" stroke="transparent" points="-4,4 -4,-683 1449.5,-683 1449.5,4 -4,4"/>
<!-- Node1 -->
<g id="node1" class="node">
<title>Node1</title>
<g id="a_node1"><a xlink:title="Defines an enumeration holding all possible kernel function types.">
<polygon fill="#bfbfbf" stroke="black" points="878,-648.5 878,-678.5 1001,-678.5 1001,-648.5 878,-648.5"/>
<text text-anchor="start" x="886" y="-666.5" font-family="Helvetica,sans-Serif" font-size="10.00">include/plssvm/kernel</text>
<text text-anchor="middle" x="939.5" y="-655.5" font-family="Helvetica,sans-Serif" font-size="10.00">_function_types.hpp</text>
</a>
</g>
</g>
<!-- Node2 -->
<g id="node2" class="node">
<title>Node2</title>
<g id="a_node2"><a xlink:href="backends_2OpenCL_2detail_2utility_8hpp.html" target="_top" xlink:title="Utility functions specific to the OpenCL backend.">
<polygon fill="white" stroke="black" points="213,-581.5 213,-611.5 352,-611.5 352,-581.5 213,-581.5"/>
<text text-anchor="start" x="221" y="-599.5" font-family="Helvetica,sans-Serif" font-size="10.00">include/plssvm/backends</text>
<text text-anchor="middle" x="282.5" y="-588.5" font-family="Helvetica,sans-Serif" font-size="10.00">/OpenCL/detail/utility.hpp</text>
</a>
</g>
</g>
<!-- Node1&#45;&gt;Node2 -->
<g id="edge1" class="edge">
<title>Node1&#45;&gt;Node2</title>
<path fill="none" stroke="midnightblue" d="M867.42,-658.4C757.82,-651.66 542.82,-636.51 361.5,-612 358.46,-611.59 355.36,-611.14 352.23,-610.67"/>
<polygon fill="midnightblue" stroke="midnightblue" points="867.5,-661.91 877.7,-659.02 867.93,-654.92 867.5,-661.91"/>
</g>
<!-- Node3 -->
<g id="node3" class="node">
<title>Node3</title>
<g id="a_node3"><a xlink:href="core_8hpp.html" target="_top" xlink:title="Core header including all other necessary headers.">
<polygon fill="white" stroke="black" points="1034,-6 1034,-25 1169,-25 1169,-6 1034,-6"/>
<text text-anchor="middle" x="1101.5" y="-13" font-family="Helvetica,sans-Serif" font-size="10.00">include/plssvm/core.hpp</text>
</a>
</g>
</g>
<!-- Node1&#45;&gt;Node3 -->
<g id="edge2" class="edge">
<title>Node1&#45;&gt;Node3</title>
<path fill="none" stroke="midnightblue" d="M1011.16,-658.36C1111.17,-651.77 1286.93,-637.02 1345.5,-612 1398.22,-589.47 1445.5,-587.84 1445.5,-530.5 1445.5,-530.5 1445.5,-530.5 1445.5,-143 1445.5,-91.32 1403.95,-89.64 1357.5,-67 1297.84,-37.92 1222.63,-25.59 1169.2,-20.35"/>
<polygon fill="midnightblue" stroke="midnightblue" points="1010.88,-654.87 1001.13,-659.01 1011.34,-661.85 1010.88,-654.87"/>
</g>
<!-- Node4 -->
<g id="node4" class="node">
<title>Node4</title>
<g id="a_node4"><a xlink:href="csvm_8hpp.html" target="_top" xlink:title="Defines the base class for all C&#45;SVM backends and implements the functionality shared by all of them.">
<polygon fill="white" stroke="black" points="719.5,-134.5 719.5,-153.5 859.5,-153.5 859.5,-134.5 719.5,-134.5"/>
<text text-anchor="middle" x="789.5" y="-141.5" font-family="Helvetica,sans-Serif" font-size="10.00">include/plssvm/csvm.hpp</text>
</a>
</g>
</g>
<!-- Node1&#45;&gt;Node4 -->
<g id="edge3" class="edge">
<title>Node1&#45;&gt;Node4</title>
<path fill="none" stroke="midnightblue" d="M1011.13,-657.2C1142.25,-645.53 1407.5,-611.85 1407.5,-530.5 1407.5,-530.5 1407.5,-530.5 1407.5,-327.5 1407.5,-277.67 1374.25,-269.85 1330.5,-246 1177.41,-162.53 967.65,-146.74 859.82,-144.55"/>
<polygon fill="midnightblue" stroke="midnightblue" points="1010.82,-653.72 1001.16,-658.07 1011.43,-660.69 1010.82,-653.72"/>
</g>
<!-- Node13 -->
<g id="node13" class="node">
<title>Node13</title>
<g id="a_node13"><a xlink:href="parameter_8hpp.html" target="_top" xlink:title="Implements the parameter class encapsulating all important C&#45;SVM parameters.">
<polygon fill="white" stroke="black" points="370.5,-587 370.5,-606 534.5,-606 534.5,-587 370.5,-587"/>
<text text-anchor="middle" x="452.5" y="-594" font-family="Helvetica,sans-Serif" font-size="10.00">include/plssvm/parameter.hpp</text>
</a>
</g>
</g>
<!-- Node1&#45;&gt;Node13 -->
<g id="edge14" class="edge">
<title>Node1&#45;&gt;Node13</title>
<path fill="none" stroke="midnightblue" d="M867.74,-652.92C772.86,-640.26 607.13,-618.14 516.38,-606.03"/>
<polygon fill="midnightblue" stroke="midnightblue" points="867.45,-656.41 877.82,-654.27 868.37,-649.48 867.45,-656.41"/>
</g>
<!-- Node4&#45;&gt;Node3 -->
<g id="edge11" class="edge">
<title>Node4&#45;&gt;Node3</title>
<path fill="none" stroke="midnightblue" d="M808.39,-128.27C831.02,-111.27 870.63,-83.56 908.5,-67 955.15,-46.61 1011.86,-32.98 1051.7,-25.08"/>
<polygon fill="midnightblue" stroke="midnightblue" points="806.15,-125.57 800.32,-134.42 810.4,-131.14 806.15,-125.57"/>
</g>
<!-- Node5 -->
<g id="node5" class="node">
<title>Node5</title>
<g id="a_node5"><a xlink:href="gpu__csvm_8hpp.html" target="_top" xlink:title="Defines the base class for all C&#45;SVM backends using a GPU. Used for code duplication reduction.">
<polygon fill="white" stroke="black" points="459,-67.5 459,-97.5 598,-97.5 598,-67.5 459,-67.5"/>
<text text-anchor="start" x="467" y="-85.5" font-family="Helvetica,sans-Serif" font-size="10.00">include/plssvm/backends</text>
<text text-anchor="middle" x="528.5" y="-74.5" font-family="Helvetica,sans-Serif" font-size="10.00">/gpu_csvm.hpp</text>
</a>
</g>
</g>
<!-- Node4&#45;&gt;Node5 -->
<g id="edge4" class="edge">
<title>Node4&#45;&gt;Node5</title>
<path fill="none" stroke="midnightblue" d="M742.26,-132.23C699.61,-122.51 636.58,-108.14 590.01,-97.52"/>
<polygon fill="midnightblue" stroke="midnightblue" points="741.58,-135.66 752.11,-134.48 743.13,-128.84 741.58,-135.66"/>
</g>
<!-- Node11 -->
<g id="node11" class="node">
<title>Node11</title>
<g id="a_node11"><a xlink:href="backends_2OpenMP_2csvm_8hpp.html" target="_top" xlink:title="Defines a C&#45;SVM using the OpenMP backend.">
<polygon fill="white" stroke="black" points="669,-67.5 669,-97.5 808,-97.5 808,-67.5 669,-67.5"/>
<text text-anchor="start" x="677" y="-85.5" font-family="Helvetica,sans-Serif" font-size="10.00">include/plssvm/backends</text>
<text text-anchor="middle" x="738.5" y="-74.5" font-family="Helvetica,sans-Serif" font-size="10.00">/OpenMP/csvm.hpp</text>
</a>
</g>
</g>
<!-- Node4&#45;&gt;Node11 -->
<g id="edge10" class="edge">
<title>Node4&#45;&gt;Node11</title>
<path fill="none" stroke="midnightblue" d="M775.62,-126.81C767.77,-117.65 758.05,-106.3 750.52,-97.52"/>
<polygon fill="midnightblue" stroke="midnightblue" points="773.03,-129.16 782.19,-134.48 778.34,-124.6 773.03,-129.16"/>
</g>
<!-- Node12 -->
<g id="node12" class="node">
<title>Node12</title>
<g id="a_node12"><a xlink:href="csvm__factory_8hpp.html" target="_top" xlink:title="Factory function for constructing a new C&#45;SVM based on the provided plssvm::backend_type and potentia...">
<polygon fill="white" stroke="black" points="918,-67.5 918,-97.5 1037,-97.5 1037,-67.5 918,-67.5"/>
<text text-anchor="start" x="926" y="-85.5" font-family="Helvetica,sans-Serif" font-size="10.00">include/plssvm/csvm</text>
<text text-anchor="middle" x="977.5" y="-74.5" font-family="Helvetica,sans-Serif" font-size="10.00">_factory.hpp</text>
</a>
</g>
</g>
<!-- Node4&#45;&gt;Node12 -->
<g id="edge12" class="edge">
<title>Node4&#45;&gt;Node12</title>
<path fill="none" stroke="midnightblue" d="M826.29,-131.36C856.92,-121.66 900.64,-107.83 933.19,-97.52"/>
<polygon fill="midnightblue" stroke="midnightblue" points="824.91,-128.12 816.44,-134.48 827.03,-134.79 824.91,-128.12"/>
</g>
<!-- Node6 -->
<g id="node6" class="node">
<title>Node6</title>
<g id="a_node6"><a xlink:href="backends_2CUDA_2csvm_8hpp.html" target="_top" xlink:title="Defines a C&#45;SVM using the CUDA backend.">
<polygon fill="white" stroke="black" points="0,-0.5 0,-30.5 139,-30.5 139,-0.5 0,-0.5"/>
<text text-anchor="start" x="8" y="-18.5" font-family="Helvetica,sans-Serif" font-size="10.00">include/plssvm/backends</text>
<text text-anchor="middle" x="69.5" y="-7.5" font-family="Helvetica,sans-Serif" font-size="10.00">/CUDA/csvm.hpp</text>
</a>
</g>
</g>
<!-- Node5&#45;&gt;Node6 -->
<g id="edge5" class="edge">
<title>Node5&#45;&gt;Node6</title>
<path fill="none" stroke="midnightblue" d="M448.68,-72.15C371.48,-62.81 251.24,-47.51 147.5,-31 144.78,-30.57 142.01,-30.11 139.21,-29.64"/>
<polygon fill="midnightblue" stroke="midnightblue" points="448.47,-75.65 458.82,-73.37 449.31,-68.7 448.47,-75.65"/>
</g>
<!-- Node7 -->
<g id="node7" class="node">
<title>Node7</title>
<g id="a_node7"><a xlink:href="backends_2HIP_2csvm_8hpp.html" target="_top" xlink:title="Defines a C&#45;SVM using the HIP backend.">
<polygon fill="white" stroke="black" points="157,-0.5 157,-30.5 296,-30.5 296,-0.5 157,-0.5"/>
<text text-anchor="start" x="165" y="-18.5" font-family="Helvetica,sans-Serif" font-size="10.00">include/plssvm/backends</text>
<text text-anchor="middle" x="226.5" y="-7.5" font-family="Helvetica,sans-Serif" font-size="10.00">/HIP/csvm.hpp</text>
</a>
</g>
</g>
<!-- Node5&#45;&gt;Node7 -->
<g id="edge6" class="edge">
<title>Node5&#45;&gt;Node7</title>
<path fill="none" stroke="midnightblue" d="M453.3,-65.32C403.67,-54.63 339.28,-40.77 291.8,-30.55"/>
<polygon fill="midnightblue" stroke="midnightblue" points="452.83,-68.79 463.34,-67.48 454.3,-61.95 452.83,-68.79"/>
</g>
<!-- Node8 -->
<g id="node8" class="node">
<title>Node8</title>
<g id="a_node8"><a xlink:href="backends_2OpenCL_2csvm_8hpp.html" target="_top" xlink:title="Defines a C&#45;SVM using the OpenCL backend.">
<polygon fill="white" stroke="black" points="314,-0.5 314,-30.5 453,-30.5 453,-0.5 314,-0.5"/>
<text text-anchor="start" x="322" y="-18.5" font-family="Helvetica,sans-Serif" font-size="10.00">include/plssvm/backends</text>
<text text-anchor="middle" x="383.5" y="-7.5" font-family="Helvetica,sans-Serif" font-size="10.00">/OpenCL/csvm.hpp</text>
</a>
</g>
</g>
<!-- Node5&#45;&gt;Node8 -->
<g id="edge7" class="edge">
<title>Node5&#45;&gt;Node8</title>
<path fill="none" stroke="midnightblue" d="M487.83,-63.27C464.74,-52.92 436.26,-40.15 414.9,-30.58"/>
<polygon fill="midnightblue" stroke="midnightblue" points="486.48,-66.5 497.04,-67.4 489.34,-60.11 486.48,-66.5"/>
</g>
<!-- Node9 -->
<g id="node9" class="node">
<title>Node9</title>
<g id="a_node9"><a xlink:href="backends_2SYCL_2DPCPP_2csvm_8hpp.html" target="_top" xlink:title="Defines a base C&#45;SVM used for the different SYCL backends using DPC++ as SYCL implementation.">
<polygon fill="white" stroke="black" points="471,-0.5 471,-30.5 610,-30.5 610,-0.5 471,-0.5"/>
<text text-anchor="start" x="479" y="-18.5" font-family="Helvetica,sans-Serif" font-size="10.00">include/plssvm/backends</text>
<text text-anchor="middle" x="540.5" y="-7.5" font-family="Helvetica,sans-Serif" font-size="10.00">/SYCL/DPCPP/csvm.hpp</text>
</a>
</g>
</g>
<!-- Node5&#45;&gt;Node9 -->
<g id="edge8" class="edge">
<title>Node5&#45;&gt;Node9</title>
<path fill="none" stroke="midnightblue" d="M532.95,-57.4C534.62,-48.37 536.46,-38.41 537.9,-30.58"/>
<polygon fill="midnightblue" stroke="midnightblue" points="529.48,-56.93 531.1,-67.4 536.36,-58.2 529.48,-56.93"/>
</g>
<!-- Node10 -->
<g id="node10" class="node">
<title>Node10</title>
<g id="a_node10"><a xlink:href="backends_2SYCL_2hipSYCL_2csvm_8hpp.html" target="_top" xlink:title="Defines a base C&#45;SVM used for the different SYCL backends using hipSYCL as SYCL implementation.">
<polygon fill="white" stroke="black" points="628,-0.5 628,-30.5 767,-30.5 767,-0.5 628,-0.5"/>
<text text-anchor="start" x="636" y="-18.5" font-family="Helvetica,sans-Serif" font-size="10.00">include/plssvm/backends</text>
<text text-anchor="middle" x="697.5" y="-7.5" font-family="Helvetica,sans-Serif" font-size="10.00">/SYCL/hipSYCL/csvm.hpp</text>
</a>
</g>
</g>
<!-- Node5&#45;&gt;Node10 -->
<g id="edge9" class="edge">
<title>Node5&#45;&gt;Node10</title>
<path fill="none" stroke="midnightblue" d="M574.83,-63.68C601.93,-53.26 635.67,-40.28 660.9,-30.58"/>
<polygon fill="midnightblue" stroke="midnightblue" points="573.25,-60.54 565.17,-67.4 575.76,-67.07 573.25,-60.54"/>
</g>
<!-- Node12&#45;&gt;Node3 -->
<g id="edge13" class="edge">
<title>Node12&#45;&gt;Node3</title>
<path fill="none" stroke="midnightblue" d="M1013.48,-62.64C1037.21,-50.2 1067.14,-34.51 1085.27,-25.01"/>
<polygon fill="midnightblue" stroke="midnightblue" points="1011.64,-59.65 1004.41,-67.4 1014.89,-65.85 1011.64,-59.65"/>
</g>
<!-- Node13&#45;&gt;Node3 -->
<g id="edge22" class="edge">
<title>Node13&#45;&gt;Node3</title>
<path fill="none" stroke="midnightblue" d="M544.87,-593.88C749.71,-589.74 1229.22,-576.75 1295.5,-545 1339.62,-523.86 1369.5,-512.43 1369.5,-463.5 1369.5,-463.5 1369.5,-463.5 1369.5,-143 1369.5,-54.51 1248.52,-27.82 1169.13,-19.84"/>
<polygon fill="midnightblue" stroke="midnightblue" points="544.66,-590.39 534.73,-594.09 544.8,-597.39 544.66,-590.39"/>
</g>
<!-- Node13&#45;&gt;Node4 -->
<g id="edge23" class="edge">
<title>Node13&#45;&gt;Node4</title>
<path fill="none" stroke="midnightblue" d="M456.9,-576.84C462.52,-551.38 471.5,-504.26 471.5,-463.5 471.5,-463.5 471.5,-463.5 471.5,-327.5 471.5,-213.24 627.84,-169.49 721.28,-153.54"/>
<polygon fill="midnightblue" stroke="midnightblue" points="453.42,-576.39 454.61,-586.91 460.24,-577.94 453.42,-576.39"/>
</g>
<!-- Node13&#45;&gt;Node5 -->
<g id="edge16" class="edge">
<title>Node13&#45;&gt;Node5</title>
<path fill="none" stroke="midnightblue" d="M406.08,-583.7C384.32,-575.99 359.68,-563.76 343.5,-545 318.84,-516.41 319.5,-501.26 319.5,-463.5 319.5,-463.5 319.5,-463.5 319.5,-260.5 319.5,-173.84 425.43,-120.86 486.46,-97.53"/>
<polygon fill="midnightblue" stroke="midnightblue" points="405.24,-587.11 415.84,-586.93 407.44,-580.47 405.24,-587.11"/>
</g>
<!-- Node13&#45;&gt;Node6 -->
<g id="edge15" class="edge">
<title>Node13&#45;&gt;Node6</title>
<path fill="none" stroke="midnightblue" d="M383.78,-585.13C343.85,-577.44 293.33,-564.79 251.5,-545 196.5,-518.98 141.5,-524.35 141.5,-463.5 141.5,-463.5 141.5,-463.5 141.5,-143 141.5,-97.01 105.11,-52.47 84.07,-30.57"/>
<polygon fill="midnightblue" stroke="midnightblue" points="383.22,-588.59 393.7,-586.98 384.51,-581.7 383.22,-588.59"/>
</g>
<!-- Node13&#45;&gt;Node7 -->
<g id="edge17" class="edge">
<title>Node13&#45;&gt;Node7</title>
<path fill="none" stroke="midnightblue" d="M380.27,-584.64C349.91,-577.31 315.65,-565.13 289.5,-545 255.64,-518.94 238.5,-506.23 238.5,-463.5 238.5,-463.5 238.5,-463.5 238.5,-143 238.5,-102.19 232.23,-54.3 228.76,-30.88"/>
<polygon fill="midnightblue" stroke="midnightblue" points="379.87,-588.13 390.4,-586.94 381.42,-581.31 379.87,-588.13"/>
</g>
<!-- Node13&#45;&gt;Node8 -->
<g id="edge18" class="edge">
<title>Node13&#45;&gt;Node8</title>
<path fill="none" stroke="midnightblue" d="M397,-584.31C371.24,-576.78 341.69,-564.54 320.5,-545 290.98,-517.78 281.5,-503.66 281.5,-463.5 281.5,-463.5 281.5,-463.5 281.5,-143 281.5,-92.78 330.81,-51.24 360.86,-30.59"/>
<polygon fill="midnightblue" stroke="midnightblue" points="396.1,-587.69 406.67,-586.97 397.95,-580.94 396.1,-587.69"/>
</g>
<!-- Node13&#45;&gt;Node9 -->
<g id="edge20" class="edge">
<title>Node13&#45;&gt;Node9</title>
<path fill="none" stroke="midnightblue" d="M425.27,-581.98C410.36,-573.3 392.7,-560.71 381.5,-545 359.58,-514.26 357.5,-501.26 357.5,-463.5 357.5,-463.5 357.5,-463.5 357.5,-143 357.5,-107.58 356.47,-92.07 381.5,-67 395.26,-53.22 438.45,-39.98 476.35,-30.51"/>
<polygon fill="midnightblue" stroke="midnightblue" points="423.66,-585.09 434.11,-586.87 427.05,-578.97 423.66,-585.09"/>
</g>
<!-- Node13&#45;&gt;Node10 -->
<g id="edge21" class="edge">
<title>Node13&#45;&gt;Node10</title>
<path fill="none" stroke="midnightblue" d="M439.69,-578.35C422.89,-554.1 395.5,-507.79 395.5,-463.5 395.5,-463.5 395.5,-463.5 395.5,-143 395.5,-101.56 414.77,-89.6 449.5,-67 457.06,-62.08 557.01,-42.68 627.68,-29.41"/>
<polygon fill="midnightblue" stroke="midnightblue" points="437.07,-580.7 445.74,-586.79 442.76,-576.62 437.07,-580.7"/>
</g>
<!-- Node13&#45;&gt;Node11 -->
<g id="edge19" class="edge">
<title>Node13&#45;&gt;Node11</title>
<path fill="none" stroke="midnightblue" d="M448.1,-576.84C442.48,-551.38 433.5,-504.26 433.5,-463.5 433.5,-463.5 433.5,-463.5 433.5,-327.5 433.5,-197.81 603.72,-125.72 689.83,-97.54"/>
<polygon fill="midnightblue" stroke="midnightblue" points="444.76,-577.94 450.39,-586.91 451.58,-576.39 444.76,-577.94"/>
</g>
<!-- Node14 -->
<g id="node14" class="node">
<title>Node14</title>
<g id="a_node14"><a xlink:href="parser__train_8hpp.html" target="_top" xlink:title="Implements a class encapsulating all necessary parameters for training the C&#45;SVM possibly provided th...">
<polygon fill="white" stroke="black" points="671,-514.5 671,-544.5 794,-544.5 794,-514.5 671,-514.5"/>
<text text-anchor="start" x="679" y="-532.5" font-family="Helvetica,sans-Serif" font-size="10.00">include/plssvm/detail</text>
<text text-anchor="middle" x="732.5" y="-521.5" font-family="Helvetica,sans-Serif" font-size="10.00">/cmd/parser_train.hpp</text>
</a>
</g>
</g>
<!-- Node13&#45;&gt;Node14 -->
<g id="edge24" class="edge">
<title>Node13&#45;&gt;Node14</title>
<path fill="none" stroke="midnightblue" d="M499.38,-584.62C546.76,-573.62 620.18,-556.58 671.94,-544.56"/>
<polygon fill="midnightblue" stroke="midnightblue" points="498.34,-581.26 489.39,-586.94 499.93,-588.08 498.34,-581.26"/>
</g>
<!-- Node18 -->
<g id="node18" class="node">
<title>Node18</title>
<g id="a_node18"><a xlink:href="libsvm__model__parsing_8hpp.html" target="_top" xlink:title="Implements parsing functions for the LIBSVM model file.">
<polygon fill="white" stroke="black" points="932,-246.5 932,-276.5 1095,-276.5 1095,-246.5 932,-246.5"/>
<text text-anchor="start" x="940" y="-264.5" font-family="Helvetica,sans-Serif" font-size="10.00">include/plssvm/detail</text>
<text text-anchor="middle" x="1013.5" y="-253.5" font-family="Helvetica,sans-Serif" font-size="10.00">/io/libsvm_model_parsing.hpp</text>
</a>
</g>
</g>
<!-- Node13&#45;&gt;Node18 -->
<g id="edge48" class="edge">
<title>Node13&#45;&gt;Node18</title>
<path fill="none" stroke="midnightblue" d="M545.01,-595.67C747.01,-595.2 1213.97,-589.27 1269.5,-545 1299.03,-521.46 1293.5,-501.26 1293.5,-463.5 1293.5,-463.5 1293.5,-463.5 1293.5,-394.5 1293.5,-345.33 1150.42,-299 1068.82,-276.58"/>
<polygon fill="midnightblue" stroke="midnightblue" points="544.71,-592.17 534.72,-595.69 544.72,-599.17 544.71,-592.17"/>
</g>
<!-- Node19 -->
<g id="node19" class="node">
<title>Node19</title>
<g id="a_node19"><a xlink:href="model_8hpp.html" target="_top" xlink:title="Implements a model class encapsulating the results of a SVM fit call.">
<polygon fill="white" stroke="black" points="856,-190.5 856,-209.5 1001,-209.5 1001,-190.5 856,-190.5"/>
<text text-anchor="middle" x="928.5" y="-197.5" font-family="Helvetica,sans-Serif" font-size="10.00">include/plssvm/model.hpp</text>
</a>
</g>
</g>
<!-- Node13&#45;&gt;Node19 -->
<g id="edge49" class="edge">
<title>Node13&#45;&gt;Node19</title>
<path fill="none" stroke="midnightblue" d="M544.73,-595.26C731.61,-589.02 1150.91,-544.46 1312.5,-277 1319.62,-265.21 1321.66,-256.29 1312.5,-246 1292.2,-223.18 1106.68,-210.06 1001.12,-204.39"/>
<polygon fill="midnightblue" stroke="midnightblue" points="544.54,-591.76 534.65,-595.56 544.76,-598.76 544.54,-591.76"/>
</g>
<!-- Node15 -->
<g id="node15" class="node">
<title>Node15</title>
<g id="a_node15"><a xlink:href="data__set__variants_8hpp.html" target="_top" xlink:title="Implements utility functions to create a data set based on runtime parameters.">
<polygon fill="white" stroke="black" points="1151.5,-246.5 1151.5,-276.5 1303.5,-276.5 1303.5,-246.5 1151.5,-246.5"/>
<text text-anchor="start" x="1159.5" y="-264.5" font-family="Helvetica,sans-Serif" font-size="10.00">include/plssvm/detail</text>
<text text-anchor="middle" x="1227.5" y="-253.5" font-family="Helvetica,sans-Serif" font-size="10.00">/cmd/data_set_variants.hpp</text>
</a>
</g>
</g>
<!-- Node14&#45;&gt;Node15 -->
<g id="edge25" class="edge">
<title>Node14&#45;&gt;Node15</title>
<path fill="none" stroke="midnightblue" d="M767.62,-509.63C861.79,-459.02 1118.41,-321.12 1201.3,-276.58"/>
<polygon fill="midnightblue" stroke="midnightblue" points="765.92,-506.57 758.76,-514.39 769.23,-512.74 765.92,-506.57"/>
</g>
<!-- Node16 -->
<g id="node16" class="node">
<title>Node16</title>
<g id="a_node16"><a xlink:href="performance__tracker_8hpp.html" target="_top" xlink:title="Defines a performance tracker which can dump performance information in a YAML file.">
<polygon fill="white" stroke="black" points="662,-447.5 662,-477.5 803,-477.5 803,-447.5 662,-447.5"/>
<text text-anchor="start" x="670" y="-465.5" font-family="Helvetica,sans-Serif" font-size="10.00">include/plssvm/detail</text>
<text text-anchor="middle" x="732.5" y="-454.5" font-family="Helvetica,sans-Serif" font-size="10.00">/performance_tracker.hpp</text>
</a>
</g>
</g>
<!-- Node14&#45;&gt;Node16 -->
<g id="edge26" class="edge">
<title>Node14&#45;&gt;Node16</title>
<path fill="none" stroke="midnightblue" d="M732.5,-504.11C732.5,-495.15 732.5,-485.32 732.5,-477.58"/>
<polygon fill="midnightblue" stroke="midnightblue" points="729,-504.4 732.5,-514.4 736,-504.4 729,-504.4"/>
</g>
<!-- Node16&#45;&gt;Node4 -->
<g id="edge28" class="edge">
<title>Node16&#45;&gt;Node4</title>
<path fill="none" stroke="midnightblue" d="M717.73,-438.47C713.19,-430.15 708.79,-420.47 706.5,-411 703.26,-397.61 704.17,-393.58 706.5,-380 722.29,-287.88 770.52,-183.91 785.21,-153.67"/>
<polygon fill="midnightblue" stroke="midnightblue" points="714.75,-440.32 722.8,-447.21 720.8,-436.8 714.75,-440.32"/>
</g>
<!-- Node16&#45;&gt;Node5 -->
<g id="edge27" class="edge">
<title>Node16&#45;&gt;Node5</title>
<path fill="none" stroke="midnightblue" d="M651.83,-447.66C587.99,-431.54 509.5,-397.83 509.5,-329.5 509.5,-329.5 509.5,-329.5 509.5,-199 509.5,-162.01 519.1,-119.24 524.66,-97.6"/>
<polygon fill="midnightblue" stroke="midnightblue" points="651.4,-451.16 661.94,-450.1 653.04,-444.35 651.4,-451.16"/>
</g>
<!-- Node17 -->
<g id="node17" class="node">
<title>Node17</title>
<g id="a_node17"><a xlink:href="data__set_8hpp.html" target="_top" xlink:title="Implements a data set class encapsulating all data points, features, and potential labels.">
<polygon fill="white" stroke="black" points="932,-313.5 932,-343.5 1047,-343.5 1047,-313.5 932,-313.5"/>
<text text-anchor="start" x="940" y="-331.5" font-family="Helvetica,sans-Serif" font-size="10.00">include/plssvm/data</text>
<text text-anchor="middle" x="989.5" y="-320.5" font-family="Helvetica,sans-Serif" font-size="10.00">_set.hpp</text>
</a>
</g>
</g>
<!-- Node16&#45;&gt;Node17 -->
<g id="edge29" class="edge">
<title>Node16&#45;&gt;Node17</title>
<path fill="none" stroke="midnightblue" d="M795.45,-444.54C822.15,-436.18 853.13,-424.87 879.5,-411 915.89,-391.86 953.33,-361.37 973.78,-343.61"/>
<polygon fill="midnightblue" stroke="midnightblue" points="794.36,-441.22 785.82,-447.49 796.41,-447.91 794.36,-441.22"/>
</g>
<!-- Node16&#45;&gt;Node19 -->
<g id="edge47" class="edge">
<title>Node16&#45;&gt;Node19</title>
<path fill="none" stroke="midnightblue" d="M794.9,-443.67C813.06,-436.01 831.71,-425.41 845.5,-411 860.65,-395.18 912.61,-246.92 925.56,-209.53"/>
<polygon fill="midnightblue" stroke="midnightblue" points="793.47,-440.47 785.47,-447.41 796.05,-446.97 793.47,-440.47"/>
</g>
<!-- Node20 -->
<g id="node20" class="node">
<title>Node20</title>
<g id="a_node20"><a xlink:href="layout_8hpp.html" target="_top" xlink:title="Defines functions to convert 2D vectors to 1D SoA or AoS vectors.">
<polygon fill="white" stroke="black" points="538,-313.5 538,-343.5 659,-343.5 659,-313.5 538,-313.5"/>
<text text-anchor="start" x="546" y="-331.5" font-family="Helvetica,sans-Serif" font-size="10.00">include/plssvm/detail</text>
<text text-anchor="middle" x="598.5" y="-320.5" font-family="Helvetica,sans-Serif" font-size="10.00">/layout.hpp</text>
</a>
</g>
</g>
<!-- Node16&#45;&gt;Node20 -->
<g id="edge38" class="edge">
<title>Node16&#45;&gt;Node20</title>
<path fill="none" stroke="midnightblue" d="M707.22,-441C696.56,-432.06 684.17,-421.29 673.5,-411 650.11,-388.44 624.92,-360.15 610.5,-343.52"/>
<polygon fill="midnightblue" stroke="midnightblue" points="705.05,-443.75 714.99,-447.44 709.52,-438.36 705.05,-443.75"/>
</g>
<!-- Node21 -->
<g id="node21" class="node">
<title>Node21</title>
<g id="a_node21"><a xlink:href="logger_8hpp.html" target="_top" xlink:title="Defines a simple logging function.">
<polygon fill="white" stroke="black" points="716,-380.5 716,-410.5 837,-410.5 837,-380.5 716,-380.5"/>
<text text-anchor="start" x="724" y="-398.5" font-family="Helvetica,sans-Serif" font-size="10.00">include/plssvm/detail</text>
<text text-anchor="middle" x="776.5" y="-387.5" font-family="Helvetica,sans-Serif" font-size="10.00">/logger.hpp</text>
</a>
</g>
</g>
<!-- Node16&#45;&gt;Node21 -->
<g id="edge40" class="edge">
<title>Node16&#45;&gt;Node21</title>
<path fill="none" stroke="midnightblue" d="M747.82,-438.87C754.19,-429.46 761.38,-418.83 766.97,-410.58"/>
<polygon fill="midnightblue" stroke="midnightblue" points="744.75,-437.15 742.05,-447.4 750.55,-441.08 744.75,-437.15"/>
</g>
<!-- Node17&#45;&gt;Node3 -->
<g id="edge30" class="edge">
<title>Node17&#45;&gt;Node3</title>
<path fill="none" stroke="midnightblue" d="M1056.29,-309.58C1073.75,-302.04 1091.12,-291.53 1103.5,-277 1126.15,-250.41 1123.5,-235.93 1123.5,-201 1123.5,-201 1123.5,-201 1123.5,-143 1123.5,-97.97 1109.8,-45.24 1104.02,-25"/>
<polygon fill="midnightblue" stroke="midnightblue" points="1054.58,-306.49 1046.61,-313.47 1057.19,-312.99 1054.58,-306.49"/>
</g>
<!-- Node17&#45;&gt;Node4 -->
<g id="edge31" class="edge">
<title>Node17&#45;&gt;Node4</title>
<path fill="none" stroke="midnightblue" d="M956.97,-307.91C943.13,-299.06 927.08,-288.11 913.5,-277 863.62,-236.17 814.11,-176.09 796.36,-153.77"/>
<polygon fill="midnightblue" stroke="midnightblue" points="955.38,-311.04 965.71,-313.4 959.1,-305.11 955.38,-311.04"/>
</g>
<!-- Node17&#45;&gt;Node15 -->
<g id="edge32" class="edge">
<title>Node17&#45;&gt;Node15</title>
<path fill="none" stroke="midnightblue" d="M1050.96,-310.71C1089.69,-300.14 1139.13,-286.63 1175.83,-276.61"/>
<polygon fill="midnightblue" stroke="midnightblue" points="1049.57,-307.46 1040.85,-313.48 1051.42,-314.22 1049.57,-307.46"/>
</g>
<!-- Node17&#45;&gt;Node18 -->
<g id="edge33" class="edge">
<title>Node17&#45;&gt;Node18</title>
<path fill="none" stroke="midnightblue" d="M998.18,-303.99C1001.57,-294.8 1005.35,-284.58 1008.3,-276.58"/>
<polygon fill="midnightblue" stroke="midnightblue" points="994.89,-302.8 994.71,-313.4 1001.45,-305.23 994.89,-302.8"/>
</g>
<!-- Node17&#45;&gt;Node19 -->
<g id="edge37" class="edge">
<title>Node17&#45;&gt;Node19</title>
<path fill="none" stroke="midnightblue" d="M951.16,-307.75C939.82,-299.83 928.77,-289.57 922.5,-277 911.4,-254.73 919.84,-224.18 925.11,-209.52"/>
<polygon fill="midnightblue" stroke="midnightblue" points="949.52,-310.85 959.81,-313.34 953.31,-304.97 949.52,-310.85"/>
</g>
<!-- Node18&#45;&gt;Node19 -->
<g id="edge34" class="edge">
<title>Node18&#45;&gt;Node19</title>
<path fill="none" stroke="midnightblue" d="M984.9,-240.48C969.93,-230 952.37,-217.71 940.87,-209.66"/>
<polygon fill="midnightblue" stroke="midnightblue" points="983.16,-243.53 993.36,-246.4 987.17,-237.8 983.16,-243.53"/>
</g>
<!-- Node19&#45;&gt;Node3 -->
<g id="edge35" class="edge">
<title>Node19&#45;&gt;Node3</title>
<path fill="none" stroke="midnightblue" d="M948.51,-184.3C972.97,-165.76 1014.89,-132.18 1045.5,-98 1067.26,-73.7 1087.57,-40.58 1096.59,-25.11"/>
<polygon fill="midnightblue" stroke="midnightblue" points="946.24,-181.62 940.34,-190.42 950.44,-187.22 946.24,-181.62"/>
</g>
<!-- Node19&#45;&gt;Node4 -->
<g id="edge36" class="edge">
<title>Node19&#45;&gt;Node4</title>
<path fill="none" stroke="midnightblue" d="M897.02,-186.77C870.91,-176.63 834.46,-162.47 811.42,-153.52"/>
<polygon fill="midnightblue" stroke="midnightblue" points="895.89,-190.08 906.48,-190.44 898.42,-183.56 895.89,-190.08"/>
</g>
<!-- Node20&#45;&gt;Node5 -->
<g id="edge39" class="edge">
<title>Node20&#45;&gt;Node5</title>
<path fill="none" stroke="midnightblue" d="M591.66,-303.65C577.24,-253.41 544.14,-138.02 532.58,-97.71"/>
<polygon fill="midnightblue" stroke="midnightblue" points="588.31,-304.68 594.43,-313.33 595.04,-302.75 588.31,-304.68"/>
</g>
<!-- Node21&#45;&gt;Node4 -->
<g id="edge42" class="edge">
<title>Node21&#45;&gt;Node4</title>
<path fill="none" stroke="midnightblue" d="M777.76,-370.36C780.56,-316.56 787.22,-188.81 789.03,-153.93"/>
<polygon fill="midnightblue" stroke="midnightblue" points="774.26,-370.2 777.24,-380.37 781.25,-370.57 774.26,-370.2"/>
</g>
<!-- Node21&#45;&gt;Node5 -->
<g id="edge41" class="edge">
<title>Node21&#45;&gt;Node5</title>
<path fill="none" stroke="midnightblue" d="M758.74,-372.23C710.74,-312.03 579.35,-147.26 539.87,-97.75"/>
<polygon fill="midnightblue" stroke="midnightblue" points="756.23,-374.69 765.2,-380.33 761.7,-370.33 756.23,-374.69"/>
</g>
<!-- Node21&#45;&gt;Node17 -->
<g id="edge43" class="edge">
<title>Node21&#45;&gt;Node17</title>
<path fill="none" stroke="midnightblue" d="M832.39,-377.44C866.92,-366.91 910.69,-353.55 943.26,-343.61"/>
<polygon fill="midnightblue" stroke="midnightblue" points="831,-374.21 822.46,-380.48 833.04,-380.9 831,-374.21"/>
</g>
<!-- Node21&#45;&gt;Node18 -->
<g id="edge44" class="edge">
<title>Node21&#45;&gt;Node18</title>
<path fill="none" stroke="midnightblue" d="M810.62,-375.42C840.2,-358.89 884.16,-334.34 922.5,-313 944.6,-300.7 969.75,-286.75 987.99,-276.63"/>
<polygon fill="midnightblue" stroke="midnightblue" points="808.57,-372.56 801.55,-380.49 811.99,-378.67 808.57,-372.56"/>
</g>
<!-- Node21&#45;&gt;Node19 -->
<g id="edge46" class="edge">
<title>Node21&#45;&gt;Node19</title>
<path fill="none" stroke="midnightblue" d="M783.84,-370.47C794.49,-338.82 816.83,-282.86 851.5,-246 867.09,-229.42 890.17,-217.04 906.99,-209.51"/>
<polygon fill="midnightblue" stroke="midnightblue" points="780.43,-369.62 780.67,-380.21 787.09,-371.78 780.43,-369.62"/>
</g>
<!-- Node21&#45;&gt;Node20 -->
<g id="edge45" class="edge">
<title>Node21&#45;&gt;Node20</title>
<path fill="none" stroke="midnightblue" d="M728.45,-376.96C699.78,-366.48 663.86,-353.37 637.05,-343.58"/>
<polygon fill="midnightblue" stroke="midnightblue" points="727.28,-380.25 737.88,-380.4 729.68,-373.68 727.28,-380.25"/>
</g>
</g>
</svg>
        <g id="navigator" transform="translate(0 0)" fill="#404254">
                <rect fill="#f2f5e9" fill-opacity="0.5" stroke="#606060" stroke-width=".5" x="0" y="0" width="60" height="60"/>
                <use id="zoomplus" xlink:href="#zoomPlus" x="17" y="9" onmousedown="handleZoom(evt,'in')"/>
                <use id="zoomminus" xlink:href="#zoomMin" x="42" y="9" onmousedown="handleZoom(evt,'out')"/>
                <use id="reset" xlink:href="#resetDef" x="30" y="36" onmousedown="handleReset()"/>
                <g id="arrowUp" xlink:href="#dirArrow" transform="translate(30 24)" onmousedown="handlePan(0,-1)">
                  <use xlink:href="#rim" fill="#404040">
                        <set attributeName="fill" to="#808080" begin="arrowUp.mouseover" end="arrowUp.mouseout"/>
                  </use>
                  <path fill="none" stroke="white" stroke-width="1.5" d="M0,-3.0v7 M-2.5,-0.5L0,-3.0L2.5,-0.5"/>
                </g>
                <g id="arrowRight" xlink:href="#dirArrow" transform="rotate(90) translate(36 -43)" onmousedown="handlePan(1,0)">
                  <use xlink:href="#rim" fill="#404040">
                        <set attributeName="fill" to="#808080" begin="arrowRight.mouseover" end="arrowRight.mouseout"/>
                  </use>
                  <path fill="none" stroke="white" stroke-width="1.5" d="M0,-3.0v7 M-2.5,-0.5L0,-3.0L2.5,-0.5"/>
                </g>
                <g id="arrowDown" xlink:href="#dirArrow" transform="rotate(180) translate(-30 -48)" onmousedown="handlePan(0,1)">
                  <use xlink:href="#rim" fill="#404040">
                        <set attributeName="fill" to="#808080" begin="arrowDown.mouseover" end="arrowDown.mouseout"/>
                  </use>
                  <path fill="none" stroke="white" stroke-width="1.5" d="M0,-3.0v7 M-2.5,-0.5L0,-3.0L2.5,-0.5"/>
                </g>
                <g id="arrowLeft" xlink:href="#dirArrow" transform="rotate(270) translate(-36 17)" onmousedown="handlePan(-1,0)">
                  <use xlink:href="#rim" fill="#404040">
                        <set attributeName="fill" to="#808080" begin="arrowLeft.mouseover" end="arrowLeft.mouseout"/>
                  </use>
                  <path fill="none" stroke="white" stroke-width="1.5" d="M0,-3.0v7 M-2.5,-0.5L0,-3.0L2.5,-0.5"/>
                </g>
        </g>
        <svg viewBox="0 0 15 15" width="100%" height="30px" preserveAspectRatio="xMaxYMin meet">
         <g id="arrow_out" transform="scale(0.3 0.3)">
          <a xlink:href="kernel__function__types_8hpp__dep__incl_org.svg" target="_base">
           <rect id="button" ry="5" rx="5" y="6" x="6" height="38" width="38"
                fill="#f2f5e9" fill-opacity="0.5" stroke="#606060" stroke-width="1.0"/>
           <path id="arrow"
             d="M 11.500037,31.436501 C 11.940474,20.09759 22.043105,11.32322 32.158766,21.979434 L 37.068811,17.246167 C 37.068811,17.246167 37.088388,32 37.088388,32 L 22.160133,31.978069 C 22.160133,31.978069 26.997745,27.140456 26.997745,27.140456 C 18.528582,18.264221 13.291696,25.230495 11.500037,31.436501 z"
             style="fill:#404040;"/>
          </a>
         </g>
        </svg>
</svg>
