<?xml version="1.0" encoding="UTF-8" standalone="no"?>
<!DOCTYPE svg PUBLIC "-//W3C//DTD SVG 1.1//EN"
 "http://www.w3.org/Graphics/SVG/1.1/DTD/svg11.dtd">
<!-- Generated by graphviz version 2.43.0 (0)
 -->
<!-- Title: include/plssvm/detail/io/libsvm_parsing.hpp Pages: 1 -->
<svg width="1281pt" height="419pt"
 viewBox="0.00 0.00 1281.00 419.00" xmlns="http://www.w3.org/2000/svg" xmlns:xlink="http://www.w3.org/1999/xlink">
<g id="graph0" class="graph" transform="scale(1 1) rotate(0) translate(4 415)">
<title>include/plssvm/detail/io/libsvm_parsing.hpp</title>
<polygon fill="white" stroke="transparent" points="-4,4 -4,-415 1277,-415 1277,4 -4,4"/>
<!-- Node1 -->
<g id="node1" class="node">
<title>Node1</title>
<g id="a_node1"><a xlink:title="Implements parsing functions for the LIBSVM file format.">
<polygon fill="#bfbfbf" stroke="black" points="0,-380.5 0,-410.5 127,-410.5 127,-380.5 0,-380.5"/>
<text text-anchor="start" x="8" y="-398.5" font-family="Helvetica,sans-Serif" font-size="10.00">include/plssvm/detail</text>
<text text-anchor="middle" x="63.5" y="-387.5" font-family="Helvetica,sans-Serif" font-size="10.00">/io/libsvm_parsing.hpp</text>
</a>
</g>
</g>
<!-- Node2 -->
<g id="node2" class="node">
<title>Node2</title>
<g id="a_node2"><a xlink:href="data__set_8hpp.html" target="_top" xlink:title="Implements a data set class encapsulating all data points, features, and potential labels.">
<polygon fill="white" stroke="black" points="165,-313.5 165,-343.5 280,-343.5 280,-313.5 165,-313.5"/>
<text text-anchor="start" x="173" y="-331.5" font-family="Helvetica,sans-Serif" font-size="10.00">include/plssvm/data</text>
<text text-anchor="middle" x="222.5" y="-320.5" font-family="Helvetica,sans-Serif" font-size="10.00">_set.hpp</text>
</a>
</g>
</g>
<!-- Node1&#45;&gt;Node2 -->
<g id="edge1" class="edge">
<title>Node1&#45;&gt;Node2</title>
<path fill="none" stroke="midnightblue" d="M107.42,-376.54C132.87,-366.14 164.43,-353.24 188.07,-343.58"/>
<polygon fill="midnightblue" stroke="midnightblue" points="105.93,-373.37 98,-380.4 108.58,-379.85 105.93,-373.37"/>
</g>
<!-- Node15 -->
<g id="node15" class="node">
<title>Node15</title>
<g id="a_node15"><a xlink:href="model_8hpp.html" target="_top" xlink:title="Implements a model class encapsulating the results of a SVM fit call.">
<polygon fill="white" stroke="black" points="238,-190.5 238,-209.5 383,-209.5 383,-190.5 238,-190.5"/>
<text text-anchor="middle" x="310.5" y="-197.5" font-family="Helvetica,sans-Serif" font-size="10.00">include/plssvm/model.hpp</text>
</a>
</g>
</g>
<!-- Node1&#45;&gt;Node15 -->
<g id="edge20" class="edge">
<title>Node1&#45;&gt;Node15</title>
<path fill="none" stroke="midnightblue" d="M49.22,-371.23C31.6,-339.2 7.42,-281.45 37.5,-246 62.75,-216.24 165.95,-206.13 237.96,-202.72"/>
<polygon fill="midnightblue" stroke="midnightblue" points="46.41,-373.36 54.41,-380.3 52.48,-369.88 46.41,-373.36"/>
</g>
<!-- Node3 -->
<g id="node3" class="node">
<title>Node3</title>
<g id="a_node3"><a xlink:href="core_8hpp.html" target="_top" xlink:title="Core header including all other necessary headers.">
<polygon fill="white" stroke="black" points="353,-6 353,-25 488,-25 488,-6 353,-6"/>
<text text-anchor="middle" x="420.5" y="-13" font-family="Helvetica,sans-Serif" font-size="10.00">include/plssvm/core.hpp</text>
</a>
</g>
</g>
<!-- Node2&#45;&gt;Node3 -->
<g id="edge2" class="edge">
<title>Node2&#45;&gt;Node3</title>
<path fill="none" stroke="midnightblue" d="M290.33,-324.2C327.54,-318.88 371.82,-306.24 400.5,-277 424.96,-252.07 420.5,-235.93 420.5,-201 420.5,-201 420.5,-201 420.5,-143 420.5,-98.64 420.5,-45.52 420.5,-25.09"/>
<polygon fill="midnightblue" stroke="midnightblue" points="289.52,-320.78 280.04,-325.52 290.4,-327.72 289.52,-320.78"/>
</g>
<!-- Node4 -->
<g id="node4" class="node">
<title>Node4</title>
<g id="a_node4"><a xlink:href="csvm_8hpp.html" target="_top" xlink:title="Defines the base class for all C&#45;SVM backends and implements the functionality shared by all of them.">
<polygon fill="white" stroke="black" points="497.5,-134.5 497.5,-153.5 637.5,-153.5 637.5,-134.5 497.5,-134.5"/>
<text text-anchor="middle" x="567.5" y="-141.5" font-family="Helvetica,sans-Serif" font-size="10.00">include/plssvm/csvm.hpp</text>
</a>
</g>
</g>
<!-- Node2&#45;&gt;Node4 -->
<g id="edge3" class="edge">
<title>Node2&#45;&gt;Node4</title>
<path fill="none" stroke="midnightblue" d="M289.91,-320.96C333.36,-314.52 389.87,-301.83 434.5,-277 493.63,-244.1 544.47,-177.52 561.46,-153.71"/>
<polygon fill="midnightblue" stroke="midnightblue" points="289.42,-317.5 280.01,-322.36 290.4,-324.43 289.42,-317.5"/>
</g>
<!-- Node13 -->
<g id="node13" class="node">
<title>Node13</title>
<g id="a_node13"><a xlink:href="data__set__variants_8hpp.html" target="_top" xlink:title="Implements utility functions to create a data set based on runtime parameters.">
<polygon fill="white" stroke="black" points="58.5,-246.5 58.5,-276.5 210.5,-276.5 210.5,-246.5 58.5,-246.5"/>
<text text-anchor="start" x="66.5" y="-264.5" font-family="Helvetica,sans-Serif" font-size="10.00">include/plssvm/detail</text>
<text text-anchor="middle" x="134.5" y="-253.5" font-family="Helvetica,sans-Serif" font-size="10.00">/cmd/data_set_variants.hpp</text>
</a>
</g>
</g>
<!-- Node2&#45;&gt;Node13 -->
<g id="edge14" class="edge">
<title>Node2&#45;&gt;Node13</title>
<path fill="none" stroke="midnightblue" d="M195.36,-307.45C181.82,-297.45 165.77,-285.6 153.56,-276.58"/>
<polygon fill="midnightblue" stroke="midnightblue" points="193.28,-310.27 203.41,-313.4 197.44,-304.64 193.28,-310.27"/>
</g>
<!-- Node14 -->
<g id="node14" class="node">
<title>Node14</title>
<g id="a_node14"><a xlink:href="libsvm__model__parsing_8hpp.html" target="_top" xlink:title="Implements parsing functions for the LIBSVM model file.">
<polygon fill="white" stroke="black" points="229,-246.5 229,-276.5 392,-276.5 392,-246.5 229,-246.5"/>
<text text-anchor="start" x="237" y="-264.5" font-family="Helvetica,sans-Serif" font-size="10.00">include/plssvm/detail</text>
<text text-anchor="middle" x="310.5" y="-253.5" font-family="Helvetica,sans-Serif" font-size="10.00">/io/libsvm_model_parsing.hpp</text>
</a>
</g>
</g>
<!-- Node2&#45;&gt;Node14 -->
<g id="edge15" class="edge">
<title>Node2&#45;&gt;Node14</title>
<path fill="none" stroke="midnightblue" d="M249.64,-307.45C263.18,-297.45 279.23,-285.6 291.44,-276.58"/>
<polygon fill="midnightblue" stroke="midnightblue" points="247.56,-304.64 241.59,-313.4 251.72,-310.27 247.56,-304.64"/>
</g>
<!-- Node2&#45;&gt;Node15 -->
<g id="edge19" class="edge">
<title>Node2&#45;&gt;Node15</title>
<path fill="none" stroke="midnightblue" d="M154.52,-319.06C92.4,-308.59 15.06,-286.89 49.5,-246 73.2,-217.87 169.23,-207.32 237.92,-203.37"/>
<polygon fill="midnightblue" stroke="midnightblue" points="154.31,-322.57 164.74,-320.7 155.42,-315.66 154.31,-322.57"/>
</g>
<!-- Node4&#45;&gt;Node3 -->
<g id="edge11" class="edge">
<title>Node4&#45;&gt;Node3</title>
<path fill="none" stroke="midnightblue" d="M582.74,-126.62C596.02,-110.3 611.18,-85.13 597.5,-67 589.05,-55.81 509,-36.23 459.49,-25.02"/>
<polygon fill="midnightblue" stroke="midnightblue" points="580.02,-124.41 576.13,-134.27 585.31,-128.99 580.02,-124.41"/>
</g>
<!-- Node5 -->
<g id="node5" class="node">
<title>Node5</title>
<g id="a_node5"><a xlink:href="gpu__csvm_8hpp.html" target="_top" xlink:title="Defines the base class for all C&#45;SVM backends using a GPU. Used for code duplication reduction.">
<polygon fill="white" stroke="black" points="801,-67.5 801,-97.5 940,-97.5 940,-67.5 801,-67.5"/>
<text text-anchor="start" x="809" y="-85.5" font-family="Helvetica,sans-Serif" font-size="10.00">include/plssvm/backends</text>
<text text-anchor="middle" x="870.5" y="-74.5" font-family="Helvetica,sans-Serif" font-size="10.00">/gpu_csvm.hpp</text>
</a>
</g>
</g>
<!-- Node4&#45;&gt;Node5 -->
<g id="edge4" class="edge">
<title>Node4&#45;&gt;Node5</title>
<path fill="none" stroke="midnightblue" d="M620.89,-132.52C670.94,-122.69 746.08,-107.93 800.83,-97.18"/>
<polygon fill="midnightblue" stroke="midnightblue" points="620.05,-129.11 610.91,-134.48 621.4,-135.98 620.05,-129.11"/>
</g>
<!-- Node11 -->
<g id="node11" class="node">
<title>Node11</title>
<g id="a_node11"><a xlink:href="backends_2OpenMP_2csvm_8hpp.html" target="_top" xlink:title="Defines a C&#45;SVM using the OpenMP backend.">
<polygon fill="white" stroke="black" points="449,-67.5 449,-97.5 588,-97.5 588,-67.5 449,-67.5"/>
<text text-anchor="start" x="457" y="-85.5" font-family="Helvetica,sans-Serif" font-size="10.00">include/plssvm/backends</text>
<text text-anchor="middle" x="518.5" y="-74.5" font-family="Helvetica,sans-Serif" font-size="10.00">/OpenMP/csvm.hpp</text>
</a>
</g>
</g>
<!-- Node4&#45;&gt;Node11 -->
<g id="edge10" class="edge">
<title>Node4&#45;&gt;Node11</title>
<path fill="none" stroke="midnightblue" d="M553.94,-126.53C546.43,-117.42 537.21,-106.21 530.05,-97.52"/>
<polygon fill="midnightblue" stroke="midnightblue" points="551.42,-128.98 560.48,-134.48 556.82,-124.53 551.42,-128.98"/>
</g>
<!-- Node12 -->
<g id="node12" class="node">
<title>Node12</title>
<g id="a_node12"><a xlink:href="csvm__factory_8hpp.html" target="_top" xlink:title="Factory function for constructing a new C&#45;SVM based on the provided plssvm::backend_type and potentia...">
<polygon fill="white" stroke="black" points="645,-67.5 645,-97.5 764,-97.5 764,-67.5 645,-67.5"/>
<text text-anchor="start" x="653" y="-85.5" font-family="Helvetica,sans-Serif" font-size="10.00">include/plssvm/csvm</text>
<text text-anchor="middle" x="704.5" y="-74.5" font-family="Helvetica,sans-Serif" font-size="10.00">_factory.hpp</text>
</a>
</g>
</g>
<!-- Node4&#45;&gt;Node12 -->
<g id="edge12" class="edge">
<title>Node4&#45;&gt;Node12</title>
<path fill="none" stroke="midnightblue" d="M596.37,-130.46C618.56,-120.82 649.21,-107.51 672.21,-97.52"/>
<polygon fill="midnightblue" stroke="midnightblue" points="594.91,-127.28 587.13,-134.48 597.7,-133.7 594.91,-127.28"/>
</g>
<!-- Node6 -->
<g id="node6" class="node">
<title>Node6</title>
<g id="a_node6"><a xlink:href="backends_2CUDA_2csvm_8hpp.html" target="_top" xlink:title="Defines a C&#45;SVM using the CUDA backend.">
<polygon fill="white" stroke="black" points="977,-0.5 977,-30.5 1116,-30.5 1116,-0.5 977,-0.5"/>
<text text-anchor="start" x="985" y="-18.5" font-family="Helvetica,sans-Serif" font-size="10.00">include/plssvm/backends</text>
<text text-anchor="middle" x="1046.5" y="-7.5" font-family="Helvetica,sans-Serif" font-size="10.00">/CUDA/csvm.hpp</text>
</a>
</g>
</g>
<!-- Node5&#45;&gt;Node6 -->
<g id="edge5" class="edge">
<title>Node5&#45;&gt;Node6</title>
<path fill="none" stroke="midnightblue" d="M918.38,-63.82C946.67,-53.37 981.99,-40.32 1008.39,-30.58"/>
<polygon fill="midnightblue" stroke="midnightblue" points="916.86,-60.65 908.69,-67.4 919.28,-67.21 916.86,-60.65"/>
</g>
<!-- Node7 -->
<g id="node7" class="node">
<title>Node7</title>
<g id="a_node7"><a xlink:href="backends_2HIP_2csvm_8hpp.html" target="_top" xlink:title="Defines a C&#45;SVM using the HIP backend.">
<polygon fill="white" stroke="black" points="1134,-0.5 1134,-30.5 1273,-30.5 1273,-0.5 1134,-0.5"/>
<text text-anchor="start" x="1142" y="-18.5" font-family="Helvetica,sans-Serif" font-size="10.00">include/plssvm/backends</text>
<text text-anchor="middle" x="1203.5" y="-7.5" font-family="Helvetica,sans-Serif" font-size="10.00">/HIP/csvm.hpp</text>
</a>
</g>
</g>
<!-- Node5&#45;&gt;Node7 -->
<g id="edge6" class="edge">
<title>Node5&#45;&gt;Node7</title>
<path fill="none" stroke="midnightblue" d="M950.18,-65.95C1006.11,-55.03 1080.19,-40.57 1133.78,-30.11"/>
<polygon fill="midnightblue" stroke="midnightblue" points="949.45,-62.52 940.31,-67.87 950.79,-69.39 949.45,-62.52"/>
</g>
<!-- Node8 -->
<g id="node8" class="node">
<title>Node8</title>
<g id="a_node8"><a xlink:href="backends_2OpenCL_2csvm_8hpp.html" target="_top" xlink:title="Defines a C&#45;SVM using the OpenCL backend.">
<polygon fill="white" stroke="black" points="506,-0.5 506,-30.5 645,-30.5 645,-0.5 506,-0.5"/>
<text text-anchor="start" x="514" y="-18.5" font-family="Helvetica,sans-Serif" font-size="10.00">include/plssvm/backends</text>
<text text-anchor="middle" x="575.5" y="-7.5" font-family="Helvetica,sans-Serif" font-size="10.00">/OpenCL/csvm.hpp</text>
</a>
</g>
</g>
<!-- Node5&#45;&gt;Node8 -->
<g id="edge7" class="edge">
<title>Node5&#45;&gt;Node8</title>
<path fill="none" stroke="midnightblue" d="M797.05,-65.32C748.56,-54.63 685.67,-40.77 639.29,-30.55"/>
<polygon fill="midnightblue" stroke="midnightblue" points="796.33,-68.74 806.85,-67.48 797.84,-61.91 796.33,-68.74"/>
</g>
<!-- Node9 -->
<g id="node9" class="node">
<title>Node9</title>
<g id="a_node9"><a xlink:href="backends_2SYCL_2hipSYCL_2csvm_8hpp.html" target="_top" xlink:title="Defines a base C&#45;SVM used for the different SYCL backends using hipSYCL as SYCL implementation.">
<polygon fill="white" stroke="black" points="663,-0.5 663,-30.5 802,-30.5 802,-0.5 663,-0.5"/>
<text text-anchor="start" x="671" y="-18.5" font-family="Helvetica,sans-Serif" font-size="10.00">include/plssvm/backends</text>
<text text-anchor="middle" x="732.5" y="-7.5" font-family="Helvetica,sans-Serif" font-size="10.00">/SYCL/hipSYCL/csvm.hpp</text>
</a>
</g>
</g>
<!-- Node5&#45;&gt;Node9 -->
<g id="edge8" class="edge">
<title>Node5&#45;&gt;Node9</title>
<path fill="none" stroke="midnightblue" d="M831.5,-63.13C809.57,-52.8 782.63,-40.11 762.39,-30.58"/>
<polygon fill="midnightblue" stroke="midnightblue" points="830.02,-66.3 840.56,-67.4 833,-59.97 830.02,-66.3"/>
</g>
<!-- Node10 -->
<g id="node10" class="node">
<title>Node10</title>
<g id="a_node10"><a xlink:href="backends_2SYCL_2DPCPP_2csvm_8hpp.html" target="_top" xlink:title="Defines a base C&#45;SVM used for the different SYCL backends using DPC++ as SYCL implementation.">
<polygon fill="white" stroke="black" points="820,-0.5 820,-30.5 959,-30.5 959,-0.5 820,-0.5"/>
<text text-anchor="start" x="828" y="-18.5" font-family="Helvetica,sans-Serif" font-size="10.00">include/plssvm/backends</text>
<text text-anchor="middle" x="889.5" y="-7.5" font-family="Helvetica,sans-Serif" font-size="10.00">/SYCL/DPCPP/csvm.hpp</text>
</a>
</g>
</g>
<!-- Node5&#45;&gt;Node10 -->
<g id="edge9" class="edge">
<title>Node5&#45;&gt;Node10</title>
<path fill="none" stroke="midnightblue" d="M877.46,-57.7C880.12,-48.59 883.07,-38.49 885.39,-30.58"/>
<polygon fill="midnightblue" stroke="midnightblue" points="874.07,-56.82 874.62,-67.4 880.79,-58.78 874.07,-56.82"/>
</g>
<!-- Node12&#45;&gt;Node3 -->
<g id="edge13" class="edge">
<title>Node12&#45;&gt;Node3</title>
<path fill="none" stroke="midnightblue" d="M635.13,-65.62C579.23,-52.83 502.79,-35.33 457.83,-25.04"/>
<polygon fill="midnightblue" stroke="midnightblue" points="634.44,-69.05 644.96,-67.87 636,-62.23 634.44,-69.05"/>
</g>
<!-- Node14&#45;&gt;Node15 -->
<g id="edge16" class="edge">
<title>Node14&#45;&gt;Node15</title>
<path fill="none" stroke="midnightblue" d="M310.5,-236.29C310.5,-226.86 310.5,-216.65 310.5,-209.66"/>
<polygon fill="midnightblue" stroke="midnightblue" points="307,-236.4 310.5,-246.4 314,-236.4 307,-236.4"/>
</g>
<!-- Node15&#45;&gt;Node3 -->
<g id="edge17" class="edge">
<title>Node15&#45;&gt;Node3</title>
<path fill="none" stroke="midnightblue" d="M321.22,-181.21C344.35,-142.83 398.23,-53.45 415.25,-25.21"/>
<polygon fill="midnightblue" stroke="midnightblue" points="317.97,-179.83 315.81,-190.2 323.97,-183.44 317.97,-179.83"/>
</g>
<!-- Node15&#45;&gt;Node4 -->
<g id="edge18" class="edge">
<title>Node15&#45;&gt;Node4</title>
<path fill="none" stroke="midnightblue" d="M361.21,-188.35C409.78,-178.14 482.12,-162.94 526.97,-153.52"/>
<polygon fill="midnightblue" stroke="midnightblue" points="360.29,-184.96 351.22,-190.44 361.73,-191.81 360.29,-184.96"/>
</g>
</g>
</svg>
