<?xml version="1.0" encoding="UTF-8" standalone="no"?>
<!DOCTYPE svg PUBLIC "-//W3C//DTD SVG 1.1//EN"
 "http://www.w3.org/Graphics/SVG/1.1/DTD/svg11.dtd">
<!-- Generated by graphviz version 2.43.0 (0)
 -->
<!-- Title: include/plssvm/detail/logger.hpp Pages: 1 -->
<!--zoomable 430 -->
<svg id="main" version="1.1" xmlns="http://www.w3.org/2000/svg" xmlns:xlink="http://www.w3.org/1999/xlink" xml:space="preserve" onload="init(evt)">
<style type="text/css"><![CDATA[
.edge:hover path { stroke: red; }
.edge:hover polygon { stroke: red; fill: red; }
]]></style>
<script type="text/javascript"><![CDATA[
var edges = document.getElementsByTagName('g');
if (edges && edges.length) {
  for (var i=0;i<edges.length;i++) {
    if (edges[i].id.substr(0,4)=='edge') {
      edges[i].setAttribute('class','edge');
    }
  }
}
]]></script>
        <defs>
                <circle id="rim" cx="0" cy="0" r="7"/>
                <circle id="rim2" cx="0" cy="0" r="3.5"/>
                <g id="zoomPlus">
                        <use xlink:href="#rim" fill="#404040">
                                <set attributeName="fill" to="#808080" begin="zoomplus.mouseover" end="zoomplus.mouseout"/>
                        </use>
                        <path d="M-4,0h8M0,-4v8" fill="none" stroke="white" stroke-width="1.5" pointer-events="none"/>
                </g>
                <g id="zoomMin">
                        <use xlink:href="#rim" fill="#404040">
                                <set attributeName="fill" to="#808080" begin="zoomminus.mouseover" end="zoomminus.mouseout"/>
                        </use>
                        <path d="M-4,0h8" fill="none" stroke="white" stroke-width="1.5" pointer-events="none"/>
                </g>
                <g id="dirArrow">
                        <path fill="none" stroke="white" stroke-width="1.5" d="M0,-3.0v7 M-2.5,-0.5L0,-3.0L2.5,-0.5"/>
                </g>
               <g id="resetDef">
                       <use xlink:href="#rim2" fill="#404040">
                               <set attributeName="fill" to="#808080" begin="reset.mouseover" end="reset.mouseout"/>
                       </use>
               </g>
        </defs>

<script type="text/javascript">
var viewWidth = 1102;
var viewHeight = 430;
var sectionId = 'dynsection-0';
</script>
<script xlink:href="svgpan.js"/>
<svg id="graph" class="graph">
<g id="viewport">
<title>include/plssvm/detail/logger.hpp</title>
<polygon fill="white" stroke="transparent" points="-4,4 -4,-426 1098.26,-426 1098.26,4 -4,4"/>
<!-- Node1 -->
<g id="node1" class="node">
<title>Node1</title>
<g id="a_node1"><a xlink:title="Defines a simple logging function.">
<polygon fill="#bfbfbf" stroke="black" points="326.26,-391.5 326.26,-421.5 447.26,-421.5 447.26,-391.5 326.26,-391.5"/>
<text text-anchor="start" x="334.26" y="-409.5" font-family="Helvetica,sans-Serif" font-size="10.00">include/plssvm/detail</text>
<text text-anchor="middle" x="386.76" y="-398.5" font-family="Helvetica,sans-Serif" font-size="10.00">/logger.hpp</text>
</a>
</g>
</g>
<!-- Node2 -->
<g id="node2" class="node">
<title>Node2</title>
<g id="a_node2"><a xlink:href="gpu__csvm_8hpp.html" target="_top" xlink:title="Defines the base class for all C&#45;SVM backends using a GPU. Used for code duplication reduction.">
<polygon fill="white" stroke="black" points="603.26,-67.5 603.26,-97.5 742.26,-97.5 742.26,-67.5 603.26,-67.5"/>
<text text-anchor="start" x="611.26" y="-85.5" font-family="Helvetica,sans-Serif" font-size="10.00">include/plssvm/backends</text>
<text text-anchor="middle" x="672.76" y="-74.5" font-family="Helvetica,sans-Serif" font-size="10.00">/gpu_csvm.hpp</text>
</a>
</g>
</g>
<!-- Node1&#45;&gt;Node2 -->
<g id="edge1" class="edge">
<title>Node1&#45;&gt;Node2</title>
<path fill="none" stroke="midnightblue" d="M457.61,-402.58C542.02,-394.87 671.76,-367.69 671.76,-273.5 671.76,-273.5 671.76,-273.5 671.76,-204.5 671.76,-165.85 672.28,-120.25 672.57,-97.66"/>
<polygon fill="midnightblue" stroke="midnightblue" points="457.22,-399.1 447.55,-403.43 457.81,-406.08 457.22,-399.1"/>
</g>
<!-- Node8 -->
<g id="node8" class="node">
<title>Node8</title>
<g id="a_node8"><a xlink:href="csvm_8hpp.html" target="_top" xlink:title="Defines the base class for all C&#45;SVM backends and implements the functionality shared by all of them.">
<polygon fill="white" stroke="black" points="406.76,-134.5 406.76,-153.5 546.76,-153.5 546.76,-134.5 406.76,-134.5"/>
<text text-anchor="middle" x="476.76" y="-141.5" font-family="Helvetica,sans-Serif" font-size="10.00">include/plssvm/csvm.hpp</text>
</a>
</g>
</g>
<!-- Node1&#45;&gt;Node8 -->
<g id="edge7" class="edge">
<title>Node1&#45;&gt;Node8</title>
<path fill="none" stroke="midnightblue" d="M408.71,-383.79C429.3,-361.81 458.8,-325.75 471.76,-288 488.37,-239.6 481.49,-176.5 478.16,-153.69"/>
<polygon fill="midnightblue" stroke="midnightblue" points="405.97,-381.59 401.57,-391.23 411.02,-386.43 405.97,-381.59"/>
</g>
<!-- Node12 -->
<g id="node12" class="node">
<title>Node12</title>
<g id="a_node12"><a xlink:href="data__set_8hpp.html" target="_top" xlink:title="Implements a data set class encapsulating all data points, features, and potential labels.">
<polygon fill="white" stroke="black" points="206.26,-324.5 206.26,-354.5 321.26,-354.5 321.26,-324.5 206.26,-324.5"/>
<text text-anchor="start" x="214.26" y="-342.5" font-family="Helvetica,sans-Serif" font-size="10.00">include/plssvm/data</text>
<text text-anchor="middle" x="263.76" y="-331.5" font-family="Helvetica,sans-Serif" font-size="10.00">_set.hpp</text>
</a>
</g>
</g>
<!-- Node1&#45;&gt;Node12 -->
<g id="edge13" class="edge">
<title>Node1&#45;&gt;Node12</title>
<path fill="none" stroke="midnightblue" d="M351.21,-386.71C331.81,-376.46 308.2,-363.98 290.4,-354.58"/>
<polygon fill="midnightblue" stroke="midnightblue" points="349.6,-389.82 360.07,-391.4 352.87,-383.63 349.6,-389.82"/>
</g>
<!-- Node14 -->
<g id="node14" class="node">
<title>Node14</title>
<g id="a_node14"><a xlink:href="libsvm__model__parsing_8hpp.html" target="_top" xlink:title="Implements parsing functions for the LIBSVM model file.">
<polygon fill="white" stroke="black" points="15.26,-257.5 15.26,-287.5 178.26,-287.5 178.26,-257.5 15.26,-257.5"/>
<text text-anchor="start" x="23.26" y="-275.5" font-family="Helvetica,sans-Serif" font-size="10.00">include/plssvm/detail</text>
<text text-anchor="middle" x="96.76" y="-264.5" font-family="Helvetica,sans-Serif" font-size="10.00">/io/libsvm_model_parsing.hpp</text>
</a>
</g>
</g>
<!-- Node1&#45;&gt;Node14 -->
<g id="edge22" class="edge">
<title>Node1&#45;&gt;Node14</title>
<path fill="none" stroke="midnightblue" d="M316.01,-394.12C279.1,-386.38 234,-374 196.76,-355 162.05,-337.29 128.33,-306 110.28,-287.78"/>
<polygon fill="midnightblue" stroke="midnightblue" points="315.7,-397.63 326.19,-396.19 317.09,-390.77 315.7,-397.63"/>
</g>
<!-- Node15 -->
<g id="node15" class="node">
<title>Node15</title>
<g id="a_node15"><a xlink:href="model_8hpp.html" target="_top" xlink:title="Implements a model class encapsulating the results of a SVM fit call.">
<polygon fill="white" stroke="black" points="71.26,-196 71.26,-215 216.26,-215 216.26,-196 71.26,-196"/>
<text text-anchor="middle" x="143.76" y="-203" font-family="Helvetica,sans-Serif" font-size="10.00">include/plssvm/model.hpp</text>
</a>
</g>
</g>
<!-- Node1&#45;&gt;Node15 -->
<g id="edge25" class="edge">
<title>Node1&#45;&gt;Node15</title>
<path fill="none" stroke="midnightblue" d="M316.12,-394.71C215.51,-377.63 39.33,-340.8 5.76,-288 -19.09,-248.9 46.76,-226.19 95.84,-215.08"/>
<polygon fill="midnightblue" stroke="midnightblue" points="315.77,-398.2 326.21,-396.4 316.93,-391.29 315.77,-398.2"/>
</g>
<!-- Node16 -->
<g id="node16" class="node">
<title>Node16</title>
<g id="a_node16"><a xlink:href="layout_8hpp.html" target="_top" xlink:title="Defines functions to convert 2D vectors to 1D SoA or AoS vectors.">
<polygon fill="white" stroke="black" points="521.26,-190.5 521.26,-220.5 642.26,-220.5 642.26,-190.5 521.26,-190.5"/>
<text text-anchor="start" x="529.26" y="-208.5" font-family="Helvetica,sans-Serif" font-size="10.00">include/plssvm/detail</text>
<text text-anchor="middle" x="581.76" y="-197.5" font-family="Helvetica,sans-Serif" font-size="10.00">/layout.hpp</text>
</a>
</g>
</g>
<!-- Node1&#45;&gt;Node16 -->
<g id="edge23" class="edge">
<title>Node1&#45;&gt;Node16</title>
<path fill="none" stroke="midnightblue" d="M449.43,-387.89C468.83,-380.16 489.19,-369.46 504.76,-355 546.47,-316.27 569.45,-249.8 577.93,-220.77"/>
<polygon fill="midnightblue" stroke="midnightblue" points="448.12,-384.64 440,-391.45 450.59,-391.19 448.12,-384.64"/>
</g>
<!-- Node3 -->
<g id="node3" class="node">
<title>Node3</title>
<g id="a_node3"><a xlink:href="backends_2CUDA_2csvm_8hpp.html" target="_top" xlink:title="Defines a C&#45;SVM using the CUDA backend.">
<polygon fill="white" stroke="black" points="641.26,-0.5 641.26,-30.5 780.26,-30.5 780.26,-0.5 641.26,-0.5"/>
<text text-anchor="start" x="649.26" y="-18.5" font-family="Helvetica,sans-Serif" font-size="10.00">include/plssvm/backends</text>
<text text-anchor="middle" x="710.76" y="-7.5" font-family="Helvetica,sans-Serif" font-size="10.00">/CUDA/csvm.hpp</text>
</a>
</g>
</g>
<!-- Node2&#45;&gt;Node3 -->
<g id="edge2" class="edge">
<title>Node2&#45;&gt;Node3</title>
<path fill="none" stroke="midnightblue" d="M686.16,-58.58C691.62,-49.24 697.75,-38.75 702.53,-30.58"/>
<polygon fill="midnightblue" stroke="midnightblue" points="683.03,-57 681.01,-67.4 689.08,-60.53 683.03,-57"/>
</g>
<!-- Node4 -->
<g id="node4" class="node">
<title>Node4</title>
<g id="a_node4"><a xlink:href="backends_2HIP_2csvm_8hpp.html" target="_top" xlink:title="Defines a C&#45;SVM using the HIP backend.">
<polygon fill="white" stroke="black" points="798.26,-0.5 798.26,-30.5 937.26,-30.5 937.26,-0.5 798.26,-0.5"/>
<text text-anchor="start" x="806.26" y="-18.5" font-family="Helvetica,sans-Serif" font-size="10.00">include/plssvm/backends</text>
<text text-anchor="middle" x="867.76" y="-7.5" font-family="Helvetica,sans-Serif" font-size="10.00">/HIP/csvm.hpp</text>
</a>
</g>
</g>
<!-- Node2&#45;&gt;Node4 -->
<g id="edge3" class="edge">
<title>Node2&#45;&gt;Node4</title>
<path fill="none" stroke="midnightblue" d="M724.58,-64.23C756.12,-53.71 795.91,-40.45 825.53,-30.58"/>
<polygon fill="midnightblue" stroke="midnightblue" points="723.45,-60.91 715.07,-67.4 725.67,-67.55 723.45,-60.91"/>
</g>
<!-- Node5 -->
<g id="node5" class="node">
<title>Node5</title>
<g id="a_node5"><a xlink:href="backends_2OpenCL_2csvm_8hpp.html" target="_top" xlink:title="Defines a C&#45;SVM using the OpenCL backend.">
<polygon fill="white" stroke="black" points="955.26,-0.5 955.26,-30.5 1094.26,-30.5 1094.26,-0.5 955.26,-0.5"/>
<text text-anchor="start" x="963.26" y="-18.5" font-family="Helvetica,sans-Serif" font-size="10.00">include/plssvm/backends</text>
<text text-anchor="middle" x="1024.76" y="-7.5" font-family="Helvetica,sans-Serif" font-size="10.00">/OpenCL/csvm.hpp</text>
</a>
</g>
</g>
<!-- Node2&#45;&gt;Node5 -->
<g id="edge4" class="edge">
<title>Node2&#45;&gt;Node5</title>
<path fill="none" stroke="midnightblue" d="M752.28,-66.88C806.98,-56.81 881.28,-43.12 946.76,-31 949.47,-30.5 952.23,-29.99 955.02,-29.47"/>
<polygon fill="midnightblue" stroke="midnightblue" points="751.51,-63.46 742.31,-68.71 752.77,-70.35 751.51,-63.46"/>
</g>
<!-- Node6 -->
<g id="node6" class="node">
<title>Node6</title>
<g id="a_node6"><a xlink:href="backends_2SYCL_2hipSYCL_2csvm_8hpp.html" target="_top" xlink:title="Defines a base C&#45;SVM used for the different SYCL backends using hipSYCL as SYCL implementation.">
<polygon fill="white" stroke="black" points="327.26,-0.5 327.26,-30.5 466.26,-30.5 466.26,-0.5 327.26,-0.5"/>
<text text-anchor="start" x="335.26" y="-18.5" font-family="Helvetica,sans-Serif" font-size="10.00">include/plssvm/backends</text>
<text text-anchor="middle" x="396.76" y="-7.5" font-family="Helvetica,sans-Serif" font-size="10.00">/SYCL/hipSYCL/csvm.hpp</text>
</a>
</g>
</g>
<!-- Node2&#45;&gt;Node6 -->
<g id="edge5" class="edge">
<title>Node2&#45;&gt;Node6</title>
<path fill="none" stroke="midnightblue" d="M603.2,-65.12C558.04,-54.48 499.78,-40.76 456.68,-30.61"/>
<polygon fill="midnightblue" stroke="midnightblue" points="602.68,-68.59 613.21,-67.48 604.28,-61.78 602.68,-68.59"/>
</g>
<!-- Node7 -->
<g id="node7" class="node">
<title>Node7</title>
<g id="a_node7"><a xlink:href="backends_2SYCL_2DPCPP_2csvm_8hpp.html" target="_top" xlink:title="Defines a base C&#45;SVM used for the different SYCL backends using DPC++ as SYCL implementation.">
<polygon fill="white" stroke="black" points="484.26,-0.5 484.26,-30.5 623.26,-30.5 623.26,-0.5 484.26,-0.5"/>
<text text-anchor="start" x="492.26" y="-18.5" font-family="Helvetica,sans-Serif" font-size="10.00">include/plssvm/backends</text>
<text text-anchor="middle" x="553.76" y="-7.5" font-family="Helvetica,sans-Serif" font-size="10.00">/SYCL/DPCPP/csvm.hpp</text>
</a>
</g>
</g>
<!-- Node2&#45;&gt;Node7 -->
<g id="edge6" class="edge">
<title>Node2&#45;&gt;Node7</title>
<path fill="none" stroke="midnightblue" d="M638.11,-62.57C619.39,-52.35 596.67,-39.94 579.53,-30.58"/>
<polygon fill="midnightblue" stroke="midnightblue" points="636.49,-65.67 646.94,-67.4 639.84,-59.53 636.49,-65.67"/>
</g>
<!-- Node8&#45;&gt;Node2 -->
<g id="edge8" class="edge">
<title>Node8&#45;&gt;Node2</title>
<path fill="none" stroke="midnightblue" d="M514.7,-131.48C546.66,-121.78 592.48,-107.87 626.57,-97.52"/>
<polygon fill="midnightblue" stroke="midnightblue" points="513.4,-128.22 504.84,-134.48 515.43,-134.92 513.4,-128.22"/>
</g>
<!-- Node9 -->
<g id="node9" class="node">
<title>Node9</title>
<g id="a_node9"><a xlink:href="backends_2OpenMP_2csvm_8hpp.html" target="_top" xlink:title="Defines a C&#45;SVM using the OpenMP backend.">
<polygon fill="white" stroke="black" points="407.26,-67.5 407.26,-97.5 546.26,-97.5 546.26,-67.5 407.26,-67.5"/>
<text text-anchor="start" x="415.26" y="-85.5" font-family="Helvetica,sans-Serif" font-size="10.00">include/plssvm/backends</text>
<text text-anchor="middle" x="476.76" y="-74.5" font-family="Helvetica,sans-Serif" font-size="10.00">/OpenMP/csvm.hpp</text>
</a>
</g>
</g>
<!-- Node8&#45;&gt;Node9 -->
<g id="edge9" class="edge">
<title>Node8&#45;&gt;Node9</title>
<path fill="none" stroke="midnightblue" d="M476.76,-124.23C476.76,-115.59 476.76,-105.5 476.76,-97.52"/>
<polygon fill="midnightblue" stroke="midnightblue" points="473.26,-124.48 476.76,-134.48 480.26,-124.48 473.26,-124.48"/>
</g>
<!-- Node10 -->
<g id="node10" class="node">
<title>Node10</title>
<g id="a_node10"><a xlink:href="core_8hpp.html" target="_top" xlink:title="Core header including all other necessary headers.">
<polygon fill="white" stroke="black" points="174.26,-6 174.26,-25 309.26,-25 309.26,-6 174.26,-6"/>
<text text-anchor="middle" x="241.76" y="-13" font-family="Helvetica,sans-Serif" font-size="10.00">include/plssvm/core.hpp</text>
</a>
</g>
</g>
<!-- Node8&#45;&gt;Node10 -->
<g id="edge10" class="edge">
<title>Node8&#45;&gt;Node10</title>
<path fill="none" stroke="midnightblue" d="M515.14,-130.5C530.27,-123.48 546.08,-113.02 554.76,-98 561.65,-86.07 563.74,-77.45 554.76,-67 520.04,-26.6 370.27,-39.99 317.76,-31 307.17,-29.19 295.78,-27.09 285.12,-25.06"/>
<polygon fill="midnightblue" stroke="midnightblue" points="513.71,-127.31 505.88,-134.44 516.45,-133.75 513.71,-127.31"/>
</g>
<!-- Node11 -->
<g id="node11" class="node">
<title>Node11</title>
<g id="a_node11"><a xlink:href="csvm__factory_8hpp.html" target="_top" xlink:title="Factory function for constructing a new C&#45;SVM based on the provided plssvm::backend_type and potentia...">
<polygon fill="white" stroke="black" points="270.26,-67.5 270.26,-97.5 389.26,-97.5 389.26,-67.5 270.26,-67.5"/>
<text text-anchor="start" x="278.26" y="-85.5" font-family="Helvetica,sans-Serif" font-size="10.00">include/plssvm/csvm</text>
<text text-anchor="middle" x="329.76" y="-74.5" font-family="Helvetica,sans-Serif" font-size="10.00">_factory.hpp</text>
</a>
</g>
</g>
<!-- Node8&#45;&gt;Node11 -->
<g id="edge11" class="edge">
<title>Node8&#45;&gt;Node11</title>
<path fill="none" stroke="midnightblue" d="M446.42,-130.72C422.56,-121.06 389.31,-107.6 364.41,-97.52"/>
<polygon fill="midnightblue" stroke="midnightblue" points="445.12,-133.97 455.7,-134.48 447.74,-127.48 445.12,-133.97"/>
</g>
<!-- Node11&#45;&gt;Node10 -->
<g id="edge12" class="edge">
<title>Node11&#45;&gt;Node10</title>
<path fill="none" stroke="midnightblue" d="M302.42,-61.31C285.9,-49.1 265.69,-34.18 253.28,-25.01"/>
<polygon fill="midnightblue" stroke="midnightblue" points="300.54,-64.27 310.67,-67.4 304.7,-58.64 300.54,-64.27"/>
</g>
<!-- Node12&#45;&gt;Node8 -->
<g id="edge15" class="edge">
<title>Node12&#45;&gt;Node8</title>
<path fill="none" stroke="midnightblue" d="M270.92,-314.49C277.01,-297.08 287.12,-273.73 301.76,-257 346.54,-205.83 420.26,-169.29 456.02,-153.58"/>
<polygon fill="midnightblue" stroke="midnightblue" points="267.44,-313.87 267.64,-324.46 274.09,-316.05 267.44,-313.87"/>
</g>
<!-- Node12&#45;&gt;Node10 -->
<g id="edge14" class="edge">
<title>Node12&#45;&gt;Node10</title>
<path fill="none" stroke="midnightblue" d="M262.08,-313.91C257.54,-247.46 245.18,-66.48 242.34,-25.03"/>
<polygon fill="midnightblue" stroke="midnightblue" points="258.61,-314.51 262.79,-324.25 265.6,-314.03 258.61,-314.51"/>
</g>
<!-- Node13 -->
<g id="node13" class="node">
<title>Node13</title>
<g id="a_node13"><a xlink:href="data__set__variants_8hpp.html" target="_top" xlink:title="Implements utility functions to create a data set based on runtime parameters.">
<polygon fill="white" stroke="black" points="310.76,-257.5 310.76,-287.5 462.76,-287.5 462.76,-257.5 310.76,-257.5"/>
<text text-anchor="start" x="318.76" y="-275.5" font-family="Helvetica,sans-Serif" font-size="10.00">include/plssvm/detail</text>
<text text-anchor="middle" x="386.76" y="-264.5" font-family="Helvetica,sans-Serif" font-size="10.00">/cmd/data_set_variants.hpp</text>
</a>
</g>
</g>
<!-- Node12&#45;&gt;Node13 -->
<g id="edge16" class="edge">
<title>Node12&#45;&gt;Node13</title>
<path fill="none" stroke="midnightblue" d="M299.31,-319.71C318.71,-309.46 342.33,-296.98 360.12,-287.58"/>
<polygon fill="midnightblue" stroke="midnightblue" points="297.66,-316.63 290.45,-324.4 300.93,-322.82 297.66,-316.63"/>
</g>
<!-- Node12&#45;&gt;Node14 -->
<g id="edge17" class="edge">
<title>Node12&#45;&gt;Node14</title>
<path fill="none" stroke="midnightblue" d="M217.98,-320.68C191.2,-310.26 157.86,-297.28 132.93,-287.58"/>
<polygon fill="midnightblue" stroke="midnightblue" points="216.94,-324.03 227.52,-324.4 219.48,-317.51 216.94,-324.03"/>
</g>
<!-- Node12&#45;&gt;Node15 -->
<g id="edge21" class="edge">
<title>Node12&#45;&gt;Node15</title>
<path fill="none" stroke="midnightblue" d="M243.89,-316.64C216.94,-287 170.06,-235.43 151.58,-215.1"/>
<polygon fill="midnightblue" stroke="midnightblue" points="241.6,-319.33 250.92,-324.37 246.78,-314.62 241.6,-319.33"/>
</g>
<!-- Node14&#45;&gt;Node15 -->
<g id="edge18" class="edge">
<title>Node14&#45;&gt;Node15</title>
<path fill="none" stroke="midnightblue" d="M113.05,-248.97C121.47,-237.33 131.25,-223.8 137.47,-215.19"/>
<polygon fill="midnightblue" stroke="midnightblue" points="109.98,-247.24 106.96,-257.4 115.66,-251.34 109.98,-247.24"/>
</g>
<!-- Node15&#45;&gt;Node8 -->
<g id="edge20" class="edge">
<title>Node15&#45;&gt;Node8</title>
<path fill="none" stroke="midnightblue" d="M201.47,-194.19C265.94,-182.67 369.09,-164.24 429.14,-153.51"/>
<polygon fill="midnightblue" stroke="midnightblue" points="200.7,-190.77 191.47,-195.98 201.93,-197.66 200.7,-190.77"/>
</g>
<!-- Node15&#45;&gt;Node10 -->
<g id="edge19" class="edge">
<title>Node15&#45;&gt;Node10</title>
<path fill="none" stroke="midnightblue" d="M152.88,-187.01C173.32,-147.79 222.21,-54 237.27,-25.12"/>
<polygon fill="midnightblue" stroke="midnightblue" points="149.75,-185.45 148.23,-195.93 155.95,-188.68 149.75,-185.45"/>
</g>
<!-- Node16&#45;&gt;Node2 -->
<g id="edge24" class="edge">
<title>Node16&#45;&gt;Node2</title>
<path fill="none" stroke="midnightblue" d="M598.62,-182.08C617.14,-157.46 646.32,-118.66 661.98,-97.84"/>
<polygon fill="midnightblue" stroke="midnightblue" points="595.77,-180.05 592.56,-190.14 601.37,-184.26 595.77,-180.05"/>
</g>
</g>
</svg>
        <g id="navigator" transform="translate(0 0)" fill="#404254">
                <rect fill="#f2f5e9" fill-opacity="0.5" stroke="#606060" stroke-width=".5" x="0" y="0" width="60" height="60"/>
                <use id="zoomplus" xlink:href="#zoomPlus" x="17" y="9" onmousedown="handleZoom(evt,'in')"/>
                <use id="zoomminus" xlink:href="#zoomMin" x="42" y="9" onmousedown="handleZoom(evt,'out')"/>
                <use id="reset" xlink:href="#resetDef" x="30" y="36" onmousedown="handleReset()"/>
                <g id="arrowUp" xlink:href="#dirArrow" transform="translate(30 24)" onmousedown="handlePan(0,-1)">
                  <use xlink:href="#rim" fill="#404040">
                        <set attributeName="fill" to="#808080" begin="arrowUp.mouseover" end="arrowUp.mouseout"/>
                  </use>
                  <path fill="none" stroke="white" stroke-width="1.5" d="M0,-3.0v7 M-2.5,-0.5L0,-3.0L2.5,-0.5"/>
                </g>
                <g id="arrowRight" xlink:href="#dirArrow" transform="rotate(90) translate(36 -43)" onmousedown="handlePan(1,0)">
                  <use xlink:href="#rim" fill="#404040">
                        <set attributeName="fill" to="#808080" begin="arrowRight.mouseover" end="arrowRight.mouseout"/>
                  </use>
                  <path fill="none" stroke="white" stroke-width="1.5" d="M0,-3.0v7 M-2.5,-0.5L0,-3.0L2.5,-0.5"/>
                </g>
                <g id="arrowDown" xlink:href="#dirArrow" transform="rotate(180) translate(-30 -48)" onmousedown="handlePan(0,1)">
                  <use xlink:href="#rim" fill="#404040">
                        <set attributeName="fill" to="#808080" begin="arrowDown.mouseover" end="arrowDown.mouseout"/>
                  </use>
                  <path fill="none" stroke="white" stroke-width="1.5" d="M0,-3.0v7 M-2.5,-0.5L0,-3.0L2.5,-0.5"/>
                </g>
                <g id="arrowLeft" xlink:href="#dirArrow" transform="rotate(270) translate(-36 17)" onmousedown="handlePan(-1,0)">
                  <use xlink:href="#rim" fill="#404040">
                        <set attributeName="fill" to="#808080" begin="arrowLeft.mouseover" end="arrowLeft.mouseout"/>
                  </use>
                  <path fill="none" stroke="white" stroke-width="1.5" d="M0,-3.0v7 M-2.5,-0.5L0,-3.0L2.5,-0.5"/>
                </g>
        </g>
        <svg viewBox="0 0 15 15" width="100%" height="30px" preserveAspectRatio="xMaxYMin meet">
         <g id="arrow_out" transform="scale(0.3 0.3)">
          <a xlink:href="logger_8hpp__dep__incl_org.svg" target="_base">
           <rect id="button" ry="5" rx="5" y="6" x="6" height="38" width="38"
                fill="#f2f5e9" fill-opacity="0.5" stroke="#606060" stroke-width="1.0"/>
           <path id="arrow"
             d="M 11.500037,31.436501 C 11.940474,20.09759 22.043105,11.32322 32.158766,21.979434 L 37.068811,17.246167 C 37.068811,17.246167 37.088388,32 37.088388,32 L 22.160133,31.978069 C 22.160133,31.978069 26.997745,27.140456 26.997745,27.140456 C 18.528582,18.264221 13.291696,25.230495 11.500037,31.436501 z"
             style="fill:#404040;"/>
          </a>
         </g>
        </svg>
</svg>
