<?xml version="1.0" encoding="UTF-8" standalone="no"?>
<!DOCTYPE svg PUBLIC "-//W3C//DTD SVG 1.1//EN"
 "http://www.w3.org/Graphics/SVG/1.1/DTD/svg11.dtd">
<!-- Generated by graphviz version 2.43.0 (0)
 -->
<!-- Title: include/plssvm/detail/operators.hpp Pages: 1 -->
<svg width="1474pt" height="754pt"
 viewBox="0.00 0.00 1473.50 754.00" xmlns="http://www.w3.org/2000/svg" xmlns:xlink="http://www.w3.org/1999/xlink">
<g id="graph0" class="graph" transform="scale(1 1) rotate(0) translate(4 750)">
<title>include/plssvm/detail/operators.hpp</title>
<polygon fill="white" stroke="transparent" points="-4,4 -4,-750 1469.5,-750 1469.5,4 -4,4"/>
<!-- Node1 -->
<g id="node1" class="node">
<title>Node1</title>
<g id="a_node1"><a xlink:title="Defines (arithmetic) functions on std::vector and scalars.">
<polygon fill="#bfbfbf" stroke="black" points="1273,-715.5 1273,-745.5 1394,-745.5 1394,-715.5 1273,-715.5"/>
<text text-anchor="start" x="1281" y="-733.5" font-family="Helvetica,sans-Serif" font-size="10.00">include/plssvm/detail</text>
<text text-anchor="middle" x="1333.5" y="-722.5" font-family="Helvetica,sans-Serif" font-size="10.00">/operators.hpp</text>
</a>
</g>
</g>
<!-- Node2 -->
<g id="node2" class="node">
<title>Node2</title>
<g id="a_node2"><a xlink:href="csvm_8hpp.html" target="_top" xlink:title="Defines the base class for all C&#45;SVM backends and implements the functionality shared by all of them.">
<polygon fill="white" stroke="black" points="1167.5,-134.5 1167.5,-153.5 1307.5,-153.5 1307.5,-134.5 1167.5,-134.5"/>
<text text-anchor="middle" x="1237.5" y="-141.5" font-family="Helvetica,sans-Serif" font-size="10.00">include/plssvm/csvm.hpp</text>
</a>
</g>
</g>
<!-- Node1&#45;&gt;Node2 -->
<g id="edge1" class="edge">
<title>Node1&#45;&gt;Node2</title>
<path fill="none" stroke="midnightblue" d="M1373.48,-710.6C1412.33,-689.14 1465.5,-650.16 1465.5,-597.5 1465.5,-597.5 1465.5,-597.5 1465.5,-461.5 1465.5,-326.14 1433.31,-274.42 1327.5,-190 1307.15,-173.77 1280,-161.19 1260.86,-153.51"/>
<polygon fill="midnightblue" stroke="midnightblue" points="1371.62,-707.63 1364.45,-715.42 1374.92,-713.8 1371.62,-707.63"/>
</g>
<!-- Node12 -->
<g id="node12" class="node">
<title>Node12</title>
<g id="a_node12"><a xlink:href="arff__parsing_8hpp.html" target="_top" xlink:title="Implements parsing functions for the ARFF file format.">
<polygon fill="white" stroke="black" points="1202,-514.5 1202,-544.5 1323,-544.5 1323,-514.5 1202,-514.5"/>
<text text-anchor="start" x="1210" y="-532.5" font-family="Helvetica,sans-Serif" font-size="10.00">include/plssvm/detail</text>
<text text-anchor="middle" x="1262.5" y="-521.5" font-family="Helvetica,sans-Serif" font-size="10.00">/io/arff_parsing.hpp</text>
</a>
</g>
</g>
<!-- Node1&#45;&gt;Node12 -->
<g id="edge12" class="edge">
<title>Node1&#45;&gt;Node12</title>
<path fill="none" stroke="midnightblue" d="M1299.71,-709.95C1269.21,-689.94 1226.99,-655.63 1212.5,-612 1208.16,-598.92 1207.26,-593.74 1212.5,-581 1218.55,-566.28 1231.2,-553.57 1242.26,-544.59"/>
<polygon fill="midnightblue" stroke="midnightblue" points="1298.04,-713.04 1308.36,-715.45 1301.8,-707.13 1298.04,-713.04"/>
</g>
<!-- Node17 -->
<g id="node17" class="node">
<title>Node17</title>
<g id="a_node17"><a xlink:href="kernel__function__types_8hpp.html" target="_top" xlink:title="Defines an enumeration holding all possible kernel function types.">
<polygon fill="white" stroke="black" points="1272,-648.5 1272,-678.5 1395,-678.5 1395,-648.5 1272,-648.5"/>
<text text-anchor="start" x="1280" y="-666.5" font-family="Helvetica,sans-Serif" font-size="10.00">include/plssvm/kernel</text>
<text text-anchor="middle" x="1333.5" y="-655.5" font-family="Helvetica,sans-Serif" font-size="10.00">_function_types.hpp</text>
</a>
</g>
</g>
<!-- Node1&#45;&gt;Node17 -->
<g id="edge22" class="edge">
<title>Node1&#45;&gt;Node17</title>
<path fill="none" stroke="midnightblue" d="M1333.5,-705.11C1333.5,-696.15 1333.5,-686.32 1333.5,-678.58"/>
<polygon fill="midnightblue" stroke="midnightblue" points="1330,-705.4 1333.5,-715.4 1337,-705.4 1330,-705.4"/>
</g>
<!-- Node3 -->
<g id="node3" class="node">
<title>Node3</title>
<g id="a_node3"><a xlink:href="gpu__csvm_8hpp.html" target="_top" xlink:title="Defines the base class for all C&#45;SVM backends using a GPU. Used for code duplication reduction.">
<polygon fill="white" stroke="black" points="436,-67.5 436,-97.5 575,-97.5 575,-67.5 436,-67.5"/>
<text text-anchor="start" x="444" y="-85.5" font-family="Helvetica,sans-Serif" font-size="10.00">include/plssvm/backends</text>
<text text-anchor="middle" x="505.5" y="-74.5" font-family="Helvetica,sans-Serif" font-size="10.00">/gpu_csvm.hpp</text>
</a>
</g>
</g>
<!-- Node2&#45;&gt;Node3 -->
<g id="edge2" class="edge">
<title>Node2&#45;&gt;Node3</title>
<path fill="none" stroke="midnightblue" d="M1157.19,-136.47C1012.76,-124.73 711.54,-100.25 575.21,-89.17"/>
<polygon fill="midnightblue" stroke="midnightblue" points="1157.06,-139.97 1167.31,-137.29 1157.63,-133 1157.06,-139.97"/>
</g>
<!-- Node9 -->
<g id="node9" class="node">
<title>Node9</title>
<g id="a_node9"><a xlink:href="backends_2OpenMP_2csvm_8hpp.html" target="_top" xlink:title="Defines a C&#45;SVM using the OpenMP backend.">
<polygon fill="white" stroke="black" points="1033,-67.5 1033,-97.5 1172,-97.5 1172,-67.5 1033,-67.5"/>
<text text-anchor="start" x="1041" y="-85.5" font-family="Helvetica,sans-Serif" font-size="10.00">include/plssvm/backends</text>
<text text-anchor="middle" x="1102.5" y="-74.5" font-family="Helvetica,sans-Serif" font-size="10.00">/OpenMP/csvm.hpp</text>
</a>
</g>
</g>
<!-- Node2&#45;&gt;Node9 -->
<g id="edge8" class="edge">
<title>Node2&#45;&gt;Node9</title>
<path fill="none" stroke="midnightblue" d="M1208.75,-130.33C1186.91,-120.7 1156.88,-107.47 1134.32,-97.52"/>
<polygon fill="midnightblue" stroke="midnightblue" points="1207.6,-133.64 1218.16,-134.48 1210.42,-127.24 1207.6,-133.64"/>
</g>
<!-- Node10 -->
<g id="node10" class="node">
<title>Node10</title>
<g id="a_node10"><a xlink:href="core_8hpp.html" target="_top" xlink:title="Core header including all other necessary headers.">
<polygon fill="white" stroke="black" points="1189,-6 1189,-25 1324,-25 1324,-6 1189,-6"/>
<text text-anchor="middle" x="1256.5" y="-13" font-family="Helvetica,sans-Serif" font-size="10.00">include/plssvm/core.hpp</text>
</a>
</g>
</g>
<!-- Node2&#45;&gt;Node10 -->
<g id="edge9" class="edge">
<title>Node2&#45;&gt;Node10</title>
<path fill="none" stroke="midnightblue" d="M1232.92,-124.54C1229.8,-109 1226.99,-86.29 1231.5,-67 1235.16,-51.38 1244.39,-35.05 1250.55,-25.33"/>
<polygon fill="midnightblue" stroke="midnightblue" points="1229.54,-125.45 1235.14,-134.44 1236.37,-123.91 1229.54,-125.45"/>
</g>
<!-- Node11 -->
<g id="node11" class="node">
<title>Node11</title>
<g id="a_node11"><a xlink:href="csvm__factory_8hpp.html" target="_top" xlink:title="Factory function for constructing a new C&#45;SVM based on the provided plssvm::backend_type and potentia...">
<polygon fill="white" stroke="black" points="1241,-67.5 1241,-97.5 1360,-97.5 1360,-67.5 1241,-67.5"/>
<text text-anchor="start" x="1249" y="-85.5" font-family="Helvetica,sans-Serif" font-size="10.00">include/plssvm/csvm</text>
<text text-anchor="middle" x="1300.5" y="-74.5" font-family="Helvetica,sans-Serif" font-size="10.00">_factory.hpp</text>
</a>
</g>
</g>
<!-- Node2&#45;&gt;Node11 -->
<g id="edge10" class="edge">
<title>Node2&#45;&gt;Node11</title>
<path fill="none" stroke="midnightblue" d="M1254.05,-127.37C1263.85,-118.11 1276.17,-106.48 1285.65,-97.52"/>
<polygon fill="midnightblue" stroke="midnightblue" points="1251.39,-125.06 1246.53,-134.48 1256.2,-130.15 1251.39,-125.06"/>
</g>
<!-- Node4 -->
<g id="node4" class="node">
<title>Node4</title>
<g id="a_node4"><a xlink:href="backends_2CUDA_2csvm_8hpp.html" target="_top" xlink:title="Defines a C&#45;SVM using the CUDA backend.">
<polygon fill="white" stroke="black" points="0,-0.5 0,-30.5 139,-30.5 139,-0.5 0,-0.5"/>
<text text-anchor="start" x="8" y="-18.5" font-family="Helvetica,sans-Serif" font-size="10.00">include/plssvm/backends</text>
<text text-anchor="middle" x="69.5" y="-7.5" font-family="Helvetica,sans-Serif" font-size="10.00">/CUDA/csvm.hpp</text>
</a>
</g>
</g>
<!-- Node3&#45;&gt;Node4 -->
<g id="edge3" class="edge">
<title>Node3&#45;&gt;Node4</title>
<path fill="none" stroke="midnightblue" d="M425.73,-71.26C353.08,-61.7 242.9,-46.59 147.5,-31 144.78,-30.56 142.01,-30.09 139.21,-29.62"/>
<polygon fill="midnightblue" stroke="midnightblue" points="425.36,-74.74 435.73,-72.57 426.27,-67.8 425.36,-74.74"/>
</g>
<!-- Node5 -->
<g id="node5" class="node">
<title>Node5</title>
<g id="a_node5"><a xlink:href="backends_2HIP_2csvm_8hpp.html" target="_top" xlink:title="Defines a C&#45;SVM using the HIP backend.">
<polygon fill="white" stroke="black" points="157,-0.5 157,-30.5 296,-30.5 296,-0.5 157,-0.5"/>
<text text-anchor="start" x="165" y="-18.5" font-family="Helvetica,sans-Serif" font-size="10.00">include/plssvm/backends</text>
<text text-anchor="middle" x="226.5" y="-7.5" font-family="Helvetica,sans-Serif" font-size="10.00">/HIP/csvm.hpp</text>
</a>
</g>
</g>
<!-- Node3&#45;&gt;Node5 -->
<g id="edge4" class="edge">
<title>Node3&#45;&gt;Node5</title>
<path fill="none" stroke="midnightblue" d="M435.47,-65.19C389.78,-54.54 330.73,-40.78 287.07,-30.61"/>
<polygon fill="midnightblue" stroke="midnightblue" points="434.77,-68.62 445.3,-67.48 436.36,-61.8 434.77,-68.62"/>
</g>
<!-- Node6 -->
<g id="node6" class="node">
<title>Node6</title>
<g id="a_node6"><a xlink:href="backends_2OpenCL_2csvm_8hpp.html" target="_top" xlink:title="Defines a C&#45;SVM using the OpenCL backend.">
<polygon fill="white" stroke="black" points="314,-0.5 314,-30.5 453,-30.5 453,-0.5 314,-0.5"/>
<text text-anchor="start" x="322" y="-18.5" font-family="Helvetica,sans-Serif" font-size="10.00">include/plssvm/backends</text>
<text text-anchor="middle" x="383.5" y="-7.5" font-family="Helvetica,sans-Serif" font-size="10.00">/OpenCL/csvm.hpp</text>
</a>
</g>
</g>
<!-- Node3&#45;&gt;Node6 -->
<g id="edge5" class="edge">
<title>Node3&#45;&gt;Node6</title>
<path fill="none" stroke="midnightblue" d="M469.98,-62.57C450.79,-52.35 427.5,-39.94 409.92,-30.58"/>
<polygon fill="midnightblue" stroke="midnightblue" points="468.56,-65.78 479.03,-67.4 471.85,-59.6 468.56,-65.78"/>
</g>
<!-- Node7 -->
<g id="node7" class="node">
<title>Node7</title>
<g id="a_node7"><a xlink:href="backends_2SYCL_2hipSYCL_2csvm_8hpp.html" target="_top" xlink:title="Defines a base C&#45;SVM used for the different SYCL backends using hipSYCL as SYCL implementation.">
<polygon fill="white" stroke="black" points="471,-0.5 471,-30.5 610,-30.5 610,-0.5 471,-0.5"/>
<text text-anchor="start" x="479" y="-18.5" font-family="Helvetica,sans-Serif" font-size="10.00">include/plssvm/backends</text>
<text text-anchor="middle" x="540.5" y="-7.5" font-family="Helvetica,sans-Serif" font-size="10.00">/SYCL/hipSYCL/csvm.hpp</text>
</a>
</g>
</g>
<!-- Node3&#45;&gt;Node7 -->
<g id="edge6" class="edge">
<title>Node3&#45;&gt;Node7</title>
<path fill="none" stroke="midnightblue" d="M517.84,-58.58C522.87,-49.24 528.52,-38.75 532.92,-30.58"/>
<polygon fill="midnightblue" stroke="midnightblue" points="514.75,-56.93 513.09,-67.4 520.92,-60.25 514.75,-56.93"/>
</g>
<!-- Node8 -->
<g id="node8" class="node">
<title>Node8</title>
<g id="a_node8"><a xlink:href="backends_2SYCL_2DPCPP_2csvm_8hpp.html" target="_top" xlink:title="Defines a base C&#45;SVM used for the different SYCL backends using DPC++ as SYCL implementation.">
<polygon fill="white" stroke="black" points="628,-0.5 628,-30.5 767,-30.5 767,-0.5 628,-0.5"/>
<text text-anchor="start" x="636" y="-18.5" font-family="Helvetica,sans-Serif" font-size="10.00">include/plssvm/backends</text>
<text text-anchor="middle" x="697.5" y="-7.5" font-family="Helvetica,sans-Serif" font-size="10.00">/SYCL/DPCPP/csvm.hpp</text>
</a>
</g>
</g>
<!-- Node3&#45;&gt;Node8 -->
<g id="edge7" class="edge">
<title>Node3&#45;&gt;Node8</title>
<path fill="none" stroke="midnightblue" d="M556.92,-64.09C587.92,-53.6 626.88,-40.41 655.92,-30.58"/>
<polygon fill="midnightblue" stroke="midnightblue" points="555.51,-60.87 547.16,-67.4 557.76,-67.5 555.51,-60.87"/>
</g>
<!-- Node11&#45;&gt;Node10 -->
<g id="edge11" class="edge">
<title>Node11&#45;&gt;Node10</title>
<path fill="none" stroke="midnightblue" d="M1285.25,-58.97C1277.37,-47.33 1268.21,-33.8 1262.39,-25.19"/>
<polygon fill="midnightblue" stroke="midnightblue" points="1282.45,-61.08 1290.95,-67.4 1288.25,-57.15 1282.45,-61.08"/>
</g>
<!-- Node13 -->
<g id="node13" class="node">
<title>Node13</title>
<g id="a_node13"><a xlink:href="data__set_8hpp.html" target="_top" xlink:title="Implements a data set class encapsulating all data points, features, and potential labels.">
<polygon fill="white" stroke="black" points="950,-313.5 950,-343.5 1065,-343.5 1065,-313.5 950,-313.5"/>
<text text-anchor="start" x="958" y="-331.5" font-family="Helvetica,sans-Serif" font-size="10.00">include/plssvm/data</text>
<text text-anchor="middle" x="1007.5" y="-320.5" font-family="Helvetica,sans-Serif" font-size="10.00">_set.hpp</text>
</a>
</g>
</g>
<!-- Node12&#45;&gt;Node13 -->
<g id="edge13" class="edge">
<title>Node12&#45;&gt;Node13</title>
<path fill="none" stroke="midnightblue" d="M1236.09,-507.89C1184.19,-467.39 1070.07,-378.33 1025.67,-343.68"/>
<polygon fill="midnightblue" stroke="midnightblue" points="1234.12,-510.8 1244.16,-514.19 1238.43,-505.28 1234.12,-510.8"/>
</g>
<!-- Node13&#45;&gt;Node2 -->
<g id="edge15" class="edge">
<title>Node13&#45;&gt;Node2</title>
<path fill="none" stroke="midnightblue" d="M1015.06,-303.64C1021.62,-286 1032.6,-262.3 1048.5,-246 1095.52,-197.8 1170.53,-167.27 1210.45,-153.52"/>
<polygon fill="midnightblue" stroke="midnightblue" points="1011.7,-302.64 1011.7,-313.23 1018.31,-304.95 1011.7,-302.64"/>
</g>
<!-- Node13&#45;&gt;Node10 -->
<g id="edge14" class="edge">
<title>Node13&#45;&gt;Node10</title>
<path fill="none" stroke="midnightblue" d="M1002.6,-303.31C997.9,-277.93 991.5,-236.83 991.5,-201 991.5,-201 991.5,-201 991.5,-143 991.5,-106.35 995.3,-90.41 1023.5,-67 1048.34,-46.38 1129.43,-32.14 1188.99,-24.16"/>
<polygon fill="midnightblue" stroke="midnightblue" points="999.17,-303.99 1004.49,-313.16 1006.04,-302.68 999.17,-303.99"/>
</g>
<!-- Node14 -->
<g id="node14" class="node">
<title>Node14</title>
<g id="a_node14"><a xlink:href="data__set__variants_8hpp.html" target="_top" xlink:title="Implements utility functions to create a data set based on runtime parameters.">
<polygon fill="white" stroke="black" points="1057.5,-246.5 1057.5,-276.5 1209.5,-276.5 1209.5,-246.5 1057.5,-246.5"/>
<text text-anchor="start" x="1065.5" y="-264.5" font-family="Helvetica,sans-Serif" font-size="10.00">include/plssvm/detail</text>
<text text-anchor="middle" x="1133.5" y="-253.5" font-family="Helvetica,sans-Serif" font-size="10.00">/cmd/data_set_variants.hpp</text>
</a>
</g>
</g>
<!-- Node13&#45;&gt;Node14 -->
<g id="edge16" class="edge">
<title>Node13&#45;&gt;Node14</title>
<path fill="none" stroke="midnightblue" d="M1043.92,-308.71C1063.79,-298.46 1087.98,-285.98 1106.21,-276.58"/>
<polygon fill="midnightblue" stroke="midnightblue" points="1042.12,-305.7 1034.84,-313.4 1045.33,-311.92 1042.12,-305.7"/>
</g>
<!-- Node15 -->
<g id="node15" class="node">
<title>Node15</title>
<g id="a_node15"><a xlink:href="libsvm__model__parsing_8hpp.html" target="_top" xlink:title="Implements parsing functions for the LIBSVM model file.">
<polygon fill="white" stroke="black" points="724,-246.5 724,-276.5 887,-276.5 887,-246.5 724,-246.5"/>
<text text-anchor="start" x="732" y="-264.5" font-family="Helvetica,sans-Serif" font-size="10.00">include/plssvm/detail</text>
<text text-anchor="middle" x="805.5" y="-253.5" font-family="Helvetica,sans-Serif" font-size="10.00">/io/libsvm_model_parsing.hpp</text>
</a>
</g>
</g>
<!-- Node13&#45;&gt;Node15 -->
<g id="edge17" class="edge">
<title>Node13&#45;&gt;Node15</title>
<path fill="none" stroke="midnightblue" d="M953.82,-310.23C921.15,-299.71 879.93,-286.45 849.25,-276.58"/>
<polygon fill="midnightblue" stroke="midnightblue" points="953.08,-313.66 963.67,-313.4 955.22,-307 953.08,-313.66"/>
</g>
<!-- Node16 -->
<g id="node16" class="node">
<title>Node16</title>
<g id="a_node16"><a xlink:href="model_8hpp.html" target="_top" xlink:title="Implements a model class encapsulating the results of a SVM fit call.">
<polygon fill="white" stroke="black" points="733,-190.5 733,-209.5 878,-209.5 878,-190.5 733,-190.5"/>
<text text-anchor="middle" x="805.5" y="-197.5" font-family="Helvetica,sans-Serif" font-size="10.00">include/plssvm/model.hpp</text>
</a>
</g>
</g>
<!-- Node13&#45;&gt;Node16 -->
<g id="edge21" class="edge">
<title>Node13&#45;&gt;Node16</title>
<path fill="none" stroke="midnightblue" d="M990.98,-305.23C976.52,-287.11 954.03,-261.99 929.5,-246 902.64,-228.49 868.07,-216.67 842.26,-209.56"/>
<polygon fill="midnightblue" stroke="midnightblue" points="988.5,-307.75 997.41,-313.5 994.03,-303.46 988.5,-307.75"/>
</g>
<!-- Node15&#45;&gt;Node16 -->
<g id="edge18" class="edge">
<title>Node15&#45;&gt;Node16</title>
<path fill="none" stroke="midnightblue" d="M805.5,-236.29C805.5,-226.86 805.5,-216.65 805.5,-209.66"/>
<polygon fill="midnightblue" stroke="midnightblue" points="802,-236.4 805.5,-246.4 809,-236.4 802,-236.4"/>
</g>
<!-- Node16&#45;&gt;Node2 -->
<g id="edge20" class="edge">
<title>Node16&#45;&gt;Node2</title>
<path fill="none" stroke="midnightblue" d="M884.16,-189.17C965.73,-178.97 1091.93,-163.2 1169.37,-153.52"/>
<polygon fill="midnightblue" stroke="midnightblue" points="883.44,-185.73 873.95,-190.44 884.31,-192.68 883.44,-185.73"/>
</g>
<!-- Node16&#45;&gt;Node10 -->
<g id="edge19" class="edge">
<title>Node16&#45;&gt;Node10</title>
<path fill="none" stroke="midnightblue" d="M821.17,-182.67C849.49,-154.22 912.34,-95.85 977.5,-67 1045.58,-36.86 1130.6,-24.7 1188.78,-19.81"/>
<polygon fill="midnightblue" stroke="midnightblue" points="818.32,-180.57 813.82,-190.16 823.32,-185.47 818.32,-180.57"/>
</g>
<!-- Node17&#45;&gt;Node2 -->
<g id="edge25" class="edge">
<title>Node17&#45;&gt;Node2</title>
<path fill="none" stroke="midnightblue" d="M1351.94,-640.5C1358.28,-632.03 1364.92,-621.98 1369.5,-612 1385.05,-578.1 1389.5,-567.8 1389.5,-530.5 1389.5,-530.5 1389.5,-530.5 1389.5,-394.5 1389.5,-296.24 1367.89,-265.91 1305.5,-190 1292.2,-173.81 1271.55,-161.3 1256.49,-153.63"/>
<polygon fill="midnightblue" stroke="midnightblue" points="1349.18,-638.35 1345.79,-648.39 1354.7,-642.65 1349.18,-638.35"/>
</g>
<!-- Node17&#45;&gt;Node10 -->
<g id="edge24" class="edge">
<title>Node17&#45;&gt;Node10</title>
<path fill="none" stroke="midnightblue" d="M1360.82,-641.8C1388.57,-618.21 1427.5,-576.85 1427.5,-530.5 1427.5,-530.5 1427.5,-530.5 1427.5,-461.5 1427.5,-371.46 1465.5,-352.54 1465.5,-262.5 1465.5,-262.5 1465.5,-262.5 1465.5,-143 1465.5,-70.37 1371.98,-38.3 1310.05,-25.03"/>
<polygon fill="midnightblue" stroke="midnightblue" points="1358.47,-639.2 1352.98,-648.26 1362.92,-644.61 1358.47,-639.2"/>
</g>
<!-- Node18 -->
<g id="node18" class="node">
<title>Node18</title>
<g id="a_node18"><a xlink:href="backends_2OpenCL_2detail_2utility_8hpp.html" target="_top" xlink:title="Utility functions specific to the OpenCL backend.">
<polygon fill="white" stroke="black" points="1222,-581.5 1222,-611.5 1361,-611.5 1361,-581.5 1222,-581.5"/>
<text text-anchor="start" x="1230" y="-599.5" font-family="Helvetica,sans-Serif" font-size="10.00">include/plssvm/backends</text>
<text text-anchor="middle" x="1291.5" y="-588.5" font-family="Helvetica,sans-Serif" font-size="10.00">/OpenCL/detail/utility.hpp</text>
</a>
</g>
</g>
<!-- Node17&#45;&gt;Node18 -->
<g id="edge23" class="edge">
<title>Node17&#45;&gt;Node18</title>
<path fill="none" stroke="midnightblue" d="M1318.88,-639.87C1312.8,-630.46 1305.93,-619.83 1300.6,-611.58"/>
<polygon fill="midnightblue" stroke="midnightblue" points="1316.02,-641.9 1324.39,-648.4 1321.9,-638.1 1316.02,-641.9"/>
</g>
<!-- Node19 -->
<g id="node19" class="node">
<title>Node19</title>
<g id="a_node19"><a xlink:href="parameter_8hpp.html" target="_top" xlink:title="Implements the parameter class encapsulating all important C&#45;SVM parameters.">
<polygon fill="white" stroke="black" points="423.5,-587 423.5,-606 587.5,-606 587.5,-587 423.5,-587"/>
<text text-anchor="middle" x="505.5" y="-594" font-family="Helvetica,sans-Serif" font-size="10.00">include/plssvm/parameter.hpp</text>
</a>
</g>
</g>
<!-- Node17&#45;&gt;Node19 -->
<g id="edge26" class="edge">
<title>Node17&#45;&gt;Node19</title>
<path fill="none" stroke="midnightblue" d="M1261.7,-656.86C1108.34,-644.82 749.6,-616.66 587.54,-603.94"/>
<polygon fill="midnightblue" stroke="midnightblue" points="1261.7,-660.37 1271.94,-657.67 1262.25,-653.4 1261.7,-660.37"/>
</g>
<!-- Node19&#45;&gt;Node2 -->
<g id="edge35" class="edge">
<title>Node19&#45;&gt;Node2</title>
<path fill="none" stroke="midnightblue" d="M597.61,-590.06C710.93,-582.54 896.31,-567.32 961.5,-545 1135.05,-485.59 1313.5,-512.93 1313.5,-329.5 1313.5,-329.5 1313.5,-329.5 1313.5,-260.5 1313.5,-213.69 1269.4,-171.18 1248.39,-153.58"/>
<polygon fill="midnightblue" stroke="midnightblue" points="597.3,-586.57 587.55,-590.72 597.76,-593.56 597.3,-586.57"/>
</g>
<!-- Node19&#45;&gt;Node3 -->
<g id="edge28" class="edge">
<title>Node19&#45;&gt;Node3</title>
<path fill="none" stroke="midnightblue" d="M469.58,-582.99C451.01,-574.83 429.38,-562.42 415.5,-545 391.97,-515.47 391.5,-501.26 391.5,-463.5 391.5,-463.5 391.5,-463.5 391.5,-260.5 391.5,-189.96 456.29,-125.18 488.19,-97.57"/>
<polygon fill="midnightblue" stroke="midnightblue" points="468.38,-586.28 478.96,-586.87 471.06,-579.81 468.38,-586.28"/>
</g>
<!-- Node19&#45;&gt;Node4 -->
<g id="edge27" class="edge">
<title>Node19&#45;&gt;Node4</title>
<path fill="none" stroke="midnightblue" d="M434.12,-585.4C324.81,-567.9 128.5,-527.55 128.5,-463.5 128.5,-463.5 128.5,-463.5 128.5,-143 128.5,-98.65 98.35,-53.07 81.16,-30.67"/>
<polygon fill="midnightblue" stroke="midnightblue" points="433.67,-588.87 444.09,-586.97 434.76,-581.96 433.67,-588.87"/>
</g>
<!-- Node19&#45;&gt;Node5 -->
<g id="edge29" class="edge">
<title>Node19&#45;&gt;Node5</title>
<path fill="none" stroke="midnightblue" d="M417.75,-585.09C346.06,-571.11 256.5,-538.62 256.5,-463.5 256.5,-463.5 256.5,-463.5 256.5,-143 256.5,-101.24 240.83,-53.78 232.14,-30.66"/>
<polygon fill="midnightblue" stroke="midnightblue" points="417.27,-588.56 427.74,-586.94 418.54,-581.68 417.27,-588.56"/>
</g>
<!-- Node19&#45;&gt;Node6 -->
<g id="edge30" class="edge">
<title>Node19&#45;&gt;Node6</title>
<path fill="none" stroke="midnightblue" d="M462.11,-583.76C439.43,-575.84 412.53,-563.41 393.5,-545 364.51,-516.94 353.5,-503.85 353.5,-463.5 353.5,-463.5 353.5,-463.5 353.5,-143 353.5,-101.24 369.17,-53.78 377.86,-30.66"/>
<polygon fill="midnightblue" stroke="midnightblue" points="461.26,-587.17 471.85,-586.99 463.46,-580.52 461.26,-587.17"/>
</g>
<!-- Node19&#45;&gt;Node7 -->
<g id="edge32" class="edge">
<title>Node19&#45;&gt;Node7</title>
<path fill="none" stroke="midnightblue" d="M485.62,-580.48C474.72,-571.32 461.79,-558.74 453.5,-545 433.98,-512.68 429.5,-501.26 429.5,-463.5 429.5,-463.5 429.5,-463.5 429.5,-260.5 429.5,-174.49 379.59,-139.09 426.5,-67 437.83,-49.58 456.7,-38.13 475.85,-30.61"/>
<polygon fill="midnightblue" stroke="midnightblue" points="483.46,-583.24 493.44,-586.79 487.85,-577.79 483.46,-583.24"/>
</g>
<!-- Node19&#45;&gt;Node8 -->
<g id="edge33" class="edge">
<title>Node19&#45;&gt;Node8</title>
<path fill="none" stroke="midnightblue" d="M496.83,-577.5C485.61,-552.52 467.5,-505.65 467.5,-463.5 467.5,-463.5 467.5,-463.5 467.5,-260.5 467.5,-199.08 623.75,-73.15 678.68,-30.77"/>
<polygon fill="midnightblue" stroke="midnightblue" points="493.76,-579.19 501.14,-586.79 500.11,-576.24 493.76,-579.19"/>
</g>
<!-- Node19&#45;&gt;Node9 -->
<g id="edge31" class="edge">
<title>Node19&#45;&gt;Node9</title>
<path fill="none" stroke="midnightblue" d="M505.5,-576.72C505.5,-551.12 505.5,-503.84 505.5,-463.5 505.5,-463.5 505.5,-463.5 505.5,-327.5 505.5,-214.69 875.37,-128.3 1032.85,-96.63"/>
<polygon fill="midnightblue" stroke="midnightblue" points="502,-576.85 505.5,-586.85 509,-576.85 502,-576.85"/>
</g>
<!-- Node19&#45;&gt;Node10 -->
<g id="edge34" class="edge">
<title>Node19&#45;&gt;Node10</title>
<path fill="none" stroke="midnightblue" d="M597.74,-595.92C801.48,-595.98 1276.25,-591.12 1331.5,-545 1360.13,-521.1 1351.5,-500.8 1351.5,-463.5 1351.5,-463.5 1351.5,-463.5 1351.5,-394.5 1351.5,-302.1 1427.5,-293.4 1427.5,-201 1427.5,-201 1427.5,-201 1427.5,-143 1427.5,-75.42 1340.12,-39.82 1290.28,-25.01"/>
<polygon fill="midnightblue" stroke="midnightblue" points="597.66,-592.42 587.66,-595.91 597.66,-599.42 597.66,-592.42"/>
</g>
<!-- Node19&#45;&gt;Node15 -->
<g id="edge52" class="edge">
<title>Node19&#45;&gt;Node15</title>
<path fill="none" stroke="midnightblue" d="M522.4,-579.62C532.7,-569.8 546.05,-556.86 557.5,-545 641.21,-458.31 661.1,-435.53 739.5,-344 759.4,-320.77 781.6,-292.93 794.52,-276.53"/>
<polygon fill="midnightblue" stroke="midnightblue" points="519.74,-577.32 514.88,-586.74 524.55,-582.4 519.74,-577.32"/>
</g>
<!-- Node19&#45;&gt;Node16 -->
<g id="edge53" class="edge">
<title>Node19&#45;&gt;Node16</title>
<path fill="none" stroke="midnightblue" d="M514.17,-577.5C525.39,-552.52 543.5,-505.65 543.5,-463.5 543.5,-463.5 543.5,-463.5 543.5,-394.5 543.5,-283.53 697.47,-228.98 769.35,-209.57"/>
<polygon fill="midnightblue" stroke="midnightblue" points="510.89,-576.24 509.86,-586.79 517.24,-579.19 510.89,-576.24"/>
</g>
<!-- Node20 -->
<g id="node20" class="node">
<title>Node20</title>
<g id="a_node20"><a xlink:href="parser__train_8hpp.html" target="_top" xlink:title="Implements a class encapsulating all necessary parameters for training the C&#45;SVM possibly provided th...">
<polygon fill="white" stroke="black" points="830,-514.5 830,-544.5 953,-544.5 953,-514.5 830,-514.5"/>
<text text-anchor="start" x="838" y="-532.5" font-family="Helvetica,sans-Serif" font-size="10.00">include/plssvm/detail</text>
<text text-anchor="middle" x="891.5" y="-521.5" font-family="Helvetica,sans-Serif" font-size="10.00">/cmd/parser_train.hpp</text>
</a>
</g>
</g>
<!-- Node19&#45;&gt;Node20 -->
<g id="edge36" class="edge">
<title>Node19&#45;&gt;Node20</title>
<path fill="none" stroke="midnightblue" d="M566.63,-585.21C638.58,-573.09 757.42,-553.08 829.68,-540.91"/>
<polygon fill="midnightblue" stroke="midnightblue" points="565.64,-581.82 556.36,-586.94 566.8,-588.73 565.64,-581.82"/>
</g>
<!-- Node20&#45;&gt;Node14 -->
<g id="edge37" class="edge">
<title>Node20&#45;&gt;Node14</title>
<path fill="none" stroke="midnightblue" d="M927.4,-509.17C941.62,-500.62 957.61,-489.82 970.5,-478 1041.55,-412.85 1103.57,-313.43 1125.27,-276.74"/>
<polygon fill="midnightblue" stroke="midnightblue" points="925.24,-506.38 918.37,-514.45 928.77,-512.42 925.24,-506.38"/>
</g>
<!-- Node21 -->
<g id="node21" class="node">
<title>Node21</title>
<g id="a_node21"><a xlink:href="performance__tracker_8hpp.html" target="_top" xlink:title="Defines a performance tracker which can dump performance information in a YAML file.">
<polygon fill="white" stroke="black" points="821,-447.5 821,-477.5 962,-477.5 962,-447.5 821,-447.5"/>
<text text-anchor="start" x="829" y="-465.5" font-family="Helvetica,sans-Serif" font-size="10.00">include/plssvm/detail</text>
<text text-anchor="middle" x="891.5" y="-454.5" font-family="Helvetica,sans-Serif" font-size="10.00">/performance_tracker.hpp</text>
</a>
</g>
</g>
<!-- Node20&#45;&gt;Node21 -->
<g id="edge38" class="edge">
<title>Node20&#45;&gt;Node21</title>
<path fill="none" stroke="midnightblue" d="M891.5,-504.11C891.5,-495.15 891.5,-485.32 891.5,-477.58"/>
<polygon fill="midnightblue" stroke="midnightblue" points="888,-504.4 891.5,-514.4 895,-504.4 888,-504.4"/>
</g>
<!-- Node21&#45;&gt;Node2 -->
<g id="edge40" class="edge">
<title>Node21&#45;&gt;Node2</title>
<path fill="none" stroke="midnightblue" d="M952.02,-444.45C1012.07,-425.75 1105.09,-391.91 1175.5,-344 1209.8,-320.66 1220.78,-313.5 1240.5,-277 1255,-250.15 1252.15,-240.33 1255.5,-210 1256.48,-201.16 1257.18,-198.73 1255.5,-190 1252.95,-176.78 1246.56,-162.51 1242.12,-153.66"/>
<polygon fill="midnightblue" stroke="midnightblue" points="950.84,-441.15 942.3,-447.43 952.89,-447.84 950.84,-441.15"/>
</g>
<!-- Node21&#45;&gt;Node3 -->
<g id="edge39" class="edge">
<title>Node21&#45;&gt;Node3</title>
<path fill="none" stroke="midnightblue" d="M810.88,-447.99C745.88,-433.1 656.38,-402.96 600.5,-344 530.46,-270.1 511.31,-140.5 506.76,-97.68"/>
<polygon fill="midnightblue" stroke="midnightblue" points="810.17,-451.42 820.69,-450.16 811.68,-444.58 810.17,-451.42"/>
</g>
<!-- Node21&#45;&gt;Node13 -->
<g id="edge41" class="edge">
<title>Node21&#45;&gt;Node13</title>
<path fill="none" stroke="midnightblue" d="M951.21,-443.29C967.16,-435.7 982.89,-425.24 993.5,-411 1008.26,-391.2 1009.51,-361.22 1008.73,-343.67"/>
<polygon fill="midnightblue" stroke="midnightblue" points="949.57,-440.19 941.83,-447.43 952.39,-446.59 949.57,-440.19"/>
</g>
<!-- Node21&#45;&gt;Node16 -->
<g id="edge51" class="edge">
<title>Node21&#45;&gt;Node16</title>
<path fill="none" stroke="midnightblue" d="M869.33,-440.23C823.66,-396.18 722.68,-297.34 714.5,-277 709.36,-264.22 707.23,-257.7 714.5,-246 726.12,-227.28 748.09,-216.12 767.53,-209.59"/>
<polygon fill="midnightblue" stroke="midnightblue" points="867.04,-442.89 876.67,-447.3 871.89,-437.85 867.04,-442.89"/>
</g>
<!-- Node22 -->
<g id="node22" class="node">
<title>Node22</title>
<g id="a_node22"><a xlink:href="layout_8hpp.html" target="_top" xlink:title="Defines functions to convert 2D vectors to 1D SoA or AoS vectors.">
<polygon fill="white" stroke="black" points="610,-313.5 610,-343.5 731,-343.5 731,-313.5 610,-313.5"/>
<text text-anchor="start" x="618" y="-331.5" font-family="Helvetica,sans-Serif" font-size="10.00">include/plssvm/detail</text>
<text text-anchor="middle" x="670.5" y="-320.5" font-family="Helvetica,sans-Serif" font-size="10.00">/layout.hpp</text>
</a>
</g>
</g>
<!-- Node21&#45;&gt;Node22 -->
<g id="edge42" class="edge">
<title>Node21&#45;&gt;Node22</title>
<path fill="none" stroke="midnightblue" d="M859.07,-442.13C814.04,-415.24 733.66,-367.22 693.98,-343.52"/>
<polygon fill="midnightblue" stroke="midnightblue" points="857.47,-445.25 867.85,-447.37 861.06,-439.24 857.47,-445.25"/>
</g>
<!-- Node23 -->
<g id="node23" class="node">
<title>Node23</title>
<g id="a_node23"><a xlink:href="logger_8hpp.html" target="_top" xlink:title="Defines a simple logging function.">
<polygon fill="white" stroke="black" points="864,-380.5 864,-410.5 985,-410.5 985,-380.5 864,-380.5"/>
<text text-anchor="start" x="872" y="-398.5" font-family="Helvetica,sans-Serif" font-size="10.00">include/plssvm/detail</text>
<text text-anchor="middle" x="924.5" y="-387.5" font-family="Helvetica,sans-Serif" font-size="10.00">/logger.hpp</text>
</a>
</g>
</g>
<!-- Node21&#45;&gt;Node23 -->
<g id="edge44" class="edge">
<title>Node21&#45;&gt;Node23</title>
<path fill="none" stroke="midnightblue" d="M903.29,-438.28C907.99,-429.02 913.25,-418.66 917.35,-410.58"/>
<polygon fill="midnightblue" stroke="midnightblue" points="900.07,-436.89 898.66,-447.4 906.31,-440.06 900.07,-436.89"/>
</g>
<!-- Node22&#45;&gt;Node3 -->
<g id="edge43" class="edge">
<title>Node22&#45;&gt;Node3</title>
<path fill="none" stroke="midnightblue" d="M655.21,-304.89C621.71,-255.34 542.6,-138.36 515.11,-97.71"/>
<polygon fill="midnightblue" stroke="midnightblue" points="652.41,-307 660.92,-313.33 658.21,-303.08 652.41,-307"/>
</g>
<!-- Node23&#45;&gt;Node2 -->
<g id="edge46" class="edge">
<title>Node23&#45;&gt;Node2</title>
<path fill="none" stroke="midnightblue" d="M995.19,-387.1C1064.08,-375.83 1165.91,-347.57 1218.5,-277 1247,-238.76 1241.94,-176.59 1238.87,-153.76"/>
<polygon fill="midnightblue" stroke="midnightblue" points="994.62,-383.65 985.28,-388.64 995.69,-390.56 994.62,-383.65"/>
</g>
<!-- Node23&#45;&gt;Node3 -->
<g id="edge45" class="edge">
<title>Node23&#45;&gt;Node3</title>
<path fill="none" stroke="midnightblue" d="M885.17,-376.03C841.67,-354.82 770.35,-317.66 714.5,-277 638.99,-222.03 629.12,-197.36 560.5,-134 547.17,-121.69 531.97,-107.74 520.93,-97.63"/>
<polygon fill="midnightblue" stroke="midnightblue" points="883.76,-379.24 894.28,-380.44 886.81,-372.94 883.76,-379.24"/>
</g>
<!-- Node23&#45;&gt;Node13 -->
<g id="edge47" class="edge">
<title>Node23&#45;&gt;Node13</title>
<path fill="none" stroke="midnightblue" d="M950.46,-374.17C963.15,-364.23 978.11,-352.51 989.53,-343.58"/>
<polygon fill="midnightblue" stroke="midnightblue" points="948.22,-371.47 942.51,-380.4 952.54,-376.99 948.22,-371.47"/>
</g>
<!-- Node23&#45;&gt;Node15 -->
<g id="edge48" class="edge">
<title>Node23&#45;&gt;Node15</title>
<path fill="none" stroke="midnightblue" d="M905.02,-372.9C880.46,-345.65 838.93,-299.58 818.14,-276.52"/>
<polygon fill="midnightblue" stroke="midnightblue" points="902.47,-375.29 911.76,-380.37 907.67,-370.6 902.47,-375.29"/>
</g>
<!-- Node23&#45;&gt;Node16 -->
<g id="edge50" class="edge">
<title>Node23&#45;&gt;Node16</title>
<path fill="none" stroke="midnightblue" d="M925.99,-369.99C926.63,-338.19 923.23,-282.48 895.5,-246 881.54,-227.64 858.05,-216.25 838.57,-209.52"/>
<polygon fill="midnightblue" stroke="midnightblue" points="922.48,-370.05 925.63,-380.17 929.48,-370.3 922.48,-370.05"/>
</g>
<!-- Node23&#45;&gt;Node22 -->
<g id="edge49" class="edge">
<title>Node23&#45;&gt;Node22</title>
<path fill="none" stroke="midnightblue" d="M859.96,-377.98C818.47,-367.37 765.14,-353.72 725.64,-343.61"/>
<polygon fill="midnightblue" stroke="midnightblue" points="859.14,-381.39 869.7,-380.48 860.88,-374.61 859.14,-381.39"/>
</g>
</g>
</svg>
