<?xml version="1.0" encoding="UTF-8" standalone="no"?>
<!DOCTYPE svg PUBLIC "-//W3C//DTD SVG 1.1//EN"
 "http://www.w3.org/Graphics/SVG/1.1/DTD/svg11.dtd">
<!-- Generated by graphviz version 2.43.0 (0)
 -->
<!-- Title: include/plssvm/parameter.hpp Pages: 1 -->
<!--zoomable 609 -->
<svg id="main" version="1.1" xmlns="http://www.w3.org/2000/svg" xmlns:xlink="http://www.w3.org/1999/xlink" xml:space="preserve" onload="init(evt)">
<style type="text/css"><![CDATA[
.edge:hover path { stroke: red; }
.edge:hover polygon { stroke: red; fill: red; }
]]></style>
<script type="text/javascript"><![CDATA[
var edges = document.getElementsByTagName('g');
if (edges && edges.length) {
  for (var i=0;i<edges.length;i++) {
    if (edges[i].id.substr(0,4)=='edge') {
      edges[i].setAttribute('class','edge');
    }
  }
}
]]></script>
        <defs>
                <circle id="rim" cx="0" cy="0" r="7"/>
                <circle id="rim2" cx="0" cy="0" r="3.5"/>
                <g id="zoomPlus">
                        <use xlink:href="#rim" fill="#404040">
                                <set attributeName="fill" to="#808080" begin="zoomplus.mouseover" end="zoomplus.mouseout"/>
                        </use>
                        <path d="M-4,0h8M0,-4v8" fill="none" stroke="white" stroke-width="1.5" pointer-events="none"/>
                </g>
                <g id="zoomMin">
                        <use xlink:href="#rim" fill="#404040">
                                <set attributeName="fill" to="#808080" begin="zoomminus.mouseover" end="zoomminus.mouseout"/>
                        </use>
                        <path d="M-4,0h8" fill="none" stroke="white" stroke-width="1.5" pointer-events="none"/>
                </g>
                <g id="dirArrow">
                        <path fill="none" stroke="white" stroke-width="1.5" d="M0,-3.0v7 M-2.5,-0.5L0,-3.0L2.5,-0.5"/>
                </g>
               <g id="resetDef">
                       <use xlink:href="#rim2" fill="#404040">
                               <set attributeName="fill" to="#808080" begin="reset.mouseover" end="reset.mouseout"/>
                       </use>
               </g>
        </defs>

<script type="text/javascript">
var viewWidth = 1462;
var viewHeight = 609;
var sectionId = 'dynsection-0';
</script>
<script xlink:href="svgpan.js"/>
<svg id="graph" class="graph">
<g id="viewport">
<title>include/plssvm/parameter.hpp</title>
<polygon fill="white" stroke="transparent" points="-4,4 -4,-605 1457.5,-605 1457.5,4 -4,4"/>
<!-- Node1 -->
<g id="node1" class="node">
<title>Node1</title>
<g id="a_node1"><a xlink:title="Implements the parameter class encapsulating all important C&#45;SVM parameters.">
<polygon fill="#bfbfbf" stroke="black" points="885,-581.5 885,-600.5 1049,-600.5 1049,-581.5 885,-581.5"/>
<text text-anchor="middle" x="967" y="-588.5" font-family="Helvetica,sans-Serif" font-size="10.00">include/plssvm/parameter.hpp</text>
</a>
</g>
</g>
<!-- Node2 -->
<g id="node2" class="node">
<title>Node2</title>
<g id="a_node2"><a xlink:href="backends_2CUDA_2csvm_8hpp.html" target="_top" xlink:title="Defines a C&#45;SVM using the CUDA backend.">
<polygon fill="white" stroke="black" points="686.5,-0.5 686.5,-30.5 825.5,-30.5 825.5,-0.5 686.5,-0.5"/>
<text text-anchor="start" x="694.5" y="-18.5" font-family="Helvetica,sans-Serif" font-size="10.00">include/plssvm/backends</text>
<text text-anchor="middle" x="756" y="-7.5" font-family="Helvetica,sans-Serif" font-size="10.00">/CUDA/csvm.hpp</text>
</a>
</g>
</g>
<!-- Node1&#45;&gt;Node2 -->
<g id="edge1" class="edge">
<title>Node1&#45;&gt;Node2</title>
<path fill="none" stroke="midnightblue" d="M965.67,-571.35C961.48,-518.79 946.25,-365.47 904,-246 895.03,-220.63 894.06,-213.52 881,-190 845.85,-126.71 791.72,-59.17 767.92,-30.58"/>
<polygon fill="midnightblue" stroke="midnightblue" points="962.19,-571.79 966.44,-581.49 969.17,-571.26 962.19,-571.79"/>
</g>
<!-- Node3 -->
<g id="node3" class="node">
<title>Node3</title>
<g id="a_node3"><a xlink:href="gpu__csvm_8hpp.html" target="_top" xlink:title="Defines the base class for all C&#45;SVM backends using a GPU. Used for code duplication reduction.">
<polygon fill="white" stroke="black" points="894.5,-67.5 894.5,-97.5 1033.5,-97.5 1033.5,-67.5 894.5,-67.5"/>
<text text-anchor="start" x="902.5" y="-85.5" font-family="Helvetica,sans-Serif" font-size="10.00">include/plssvm/backends</text>
<text text-anchor="middle" x="964" y="-74.5" font-family="Helvetica,sans-Serif" font-size="10.00">/gpu_csvm.hpp</text>
</a>
</g>
</g>
<!-- Node1&#45;&gt;Node3 -->
<g id="edge2" class="edge">
<title>Node1&#45;&gt;Node3</title>
<path fill="none" stroke="midnightblue" d="M1001.6,-576.92C1015.51,-569.75 1030.11,-559.34 1038,-545 1044.64,-532.93 1038.38,-527.77 1038,-514 1034.89,-402.09 1024,-374.45 1024,-262.5 1024,-262.5 1024,-262.5 1024,-199 1024,-158.55 994.67,-118.2 977.02,-97.58"/>
<polygon fill="midnightblue" stroke="midnightblue" points="999.71,-573.94 992.16,-581.38 1002.7,-580.27 999.71,-573.94"/>
</g>
<!-- Node4 -->
<g id="node4" class="node">
<title>Node4</title>
<g id="a_node4"><a xlink:href="backends_2HIP_2csvm_8hpp.html" target="_top" xlink:title="Defines a C&#45;SVM using the HIP backend.">
<polygon fill="white" stroke="black" points="843.5,-0.5 843.5,-30.5 982.5,-30.5 982.5,-0.5 843.5,-0.5"/>
<text text-anchor="start" x="851.5" y="-18.5" font-family="Helvetica,sans-Serif" font-size="10.00">include/plssvm/backends</text>
<text text-anchor="middle" x="913" y="-7.5" font-family="Helvetica,sans-Serif" font-size="10.00">/HIP/csvm.hpp</text>
</a>
</g>
</g>
<!-- Node1&#45;&gt;Node4 -->
<g id="edge8" class="edge">
<title>Node1&#45;&gt;Node4</title>
<path fill="none" stroke="midnightblue" d="M976.17,-571.94C999.99,-523.3 1062,-384.94 1062,-262.5 1062,-262.5 1062,-262.5 1062,-143 1062,-108.18 1066.03,-93.12 1043,-67 1027.39,-49.29 1004.81,-37.75 982.84,-30.24"/>
<polygon fill="midnightblue" stroke="midnightblue" points="972.91,-570.65 971.58,-581.16 979.17,-573.77 972.91,-570.65"/>
</g>
<!-- Node5 -->
<g id="node5" class="node">
<title>Node5</title>
<g id="a_node5"><a xlink:href="backends_2OpenCL_2csvm_8hpp.html" target="_top" xlink:title="Defines a C&#45;SVM using the OpenCL backend.">
<polygon fill="white" stroke="black" points="1000.5,-0.5 1000.5,-30.5 1139.5,-30.5 1139.5,-0.5 1000.5,-0.5"/>
<text text-anchor="start" x="1008.5" y="-18.5" font-family="Helvetica,sans-Serif" font-size="10.00">include/plssvm/backends</text>
<text text-anchor="middle" x="1070" y="-7.5" font-family="Helvetica,sans-Serif" font-size="10.00">/OpenCL/csvm.hpp</text>
</a>
</g>
</g>
<!-- Node1&#45;&gt;Node5 -->
<g id="edge9" class="edge">
<title>Node1&#45;&gt;Node5</title>
<path fill="none" stroke="midnightblue" d="M1001.16,-577.47C1018.2,-569.98 1038.26,-559.14 1053,-545 1083.17,-516.05 1100,-505.31 1100,-463.5 1100,-463.5 1100,-463.5 1100,-143 1100,-101.24 1084.33,-53.78 1075.64,-30.66"/>
<polygon fill="midnightblue" stroke="midnightblue" points="999.42,-574.41 991.54,-581.5 1002.12,-580.87 999.42,-574.41"/>
</g>
<!-- Node6 -->
<g id="node6" class="node">
<title>Node6</title>
<g id="a_node6"><a xlink:href="backends_2SYCL_2DPCPP_2csvm_8hpp.html" target="_top" xlink:title="Defines a base C&#45;SVM used for the different SYCL backends using DPC++ as SYCL implementation.">
<polygon fill="white" stroke="black" points="1157.5,-0.5 1157.5,-30.5 1296.5,-30.5 1296.5,-0.5 1157.5,-0.5"/>
<text text-anchor="start" x="1165.5" y="-18.5" font-family="Helvetica,sans-Serif" font-size="10.00">include/plssvm/backends</text>
<text text-anchor="middle" x="1227" y="-7.5" font-family="Helvetica,sans-Serif" font-size="10.00">/SYCL/DPCPP/csvm.hpp</text>
</a>
</g>
</g>
<!-- Node1&#45;&gt;Node6 -->
<g id="edge11" class="edge">
<title>Node1&#45;&gt;Node6</title>
<path fill="none" stroke="midnightblue" d="M1046.1,-579.46C1112.64,-565.63 1197,-534.15 1197,-463.5 1197,-463.5 1197,-463.5 1197,-143 1197,-101.24 1212.67,-53.78 1221.36,-30.66"/>
<polygon fill="midnightblue" stroke="midnightblue" points="1045.14,-576.08 1036.01,-581.46 1046.5,-582.95 1045.14,-576.08"/>
</g>
<!-- Node7 -->
<g id="node7" class="node">
<title>Node7</title>
<g id="a_node7"><a xlink:href="backends_2SYCL_2hipSYCL_2csvm_8hpp.html" target="_top" xlink:title="Defines a base C&#45;SVM used for the different SYCL backends using hipSYCL as SYCL implementation.">
<polygon fill="white" stroke="black" points="1314.5,-0.5 1314.5,-30.5 1453.5,-30.5 1453.5,-0.5 1314.5,-0.5"/>
<text text-anchor="start" x="1322.5" y="-18.5" font-family="Helvetica,sans-Serif" font-size="10.00">include/plssvm/backends</text>
<text text-anchor="middle" x="1384" y="-7.5" font-family="Helvetica,sans-Serif" font-size="10.00">/SYCL/hipSYCL/csvm.hpp</text>
</a>
</g>
</g>
<!-- Node1&#45;&gt;Node7 -->
<g id="edge12" class="edge">
<title>Node1&#45;&gt;Node7</title>
<path fill="none" stroke="midnightblue" d="M1037.06,-579.83C1141.27,-562.71 1325,-523.95 1325,-463.5 1325,-463.5 1325,-463.5 1325,-143 1325,-98.65 1355.15,-53.07 1372.34,-30.67"/>
<polygon fill="midnightblue" stroke="midnightblue" points="1036.23,-576.42 1026.92,-581.47 1037.35,-583.33 1036.23,-576.42"/>
</g>
<!-- Node8 -->
<g id="node8" class="node">
<title>Node8</title>
<g id="a_node8"><a xlink:href="backends_2OpenMP_2csvm_8hpp.html" target="_top" xlink:title="Defines a C&#45;SVM using the OpenMP backend.">
<polygon fill="white" stroke="black" points="642.5,-67.5 642.5,-97.5 781.5,-97.5 781.5,-67.5 642.5,-67.5"/>
<text text-anchor="start" x="650.5" y="-85.5" font-family="Helvetica,sans-Serif" font-size="10.00">include/plssvm/backends</text>
<text text-anchor="middle" x="712" y="-74.5" font-family="Helvetica,sans-Serif" font-size="10.00">/OpenMP/csvm.hpp</text>
</a>
</g>
</g>
<!-- Node1&#45;&gt;Node8 -->
<g id="edge10" class="edge">
<title>Node1&#45;&gt;Node8</title>
<path fill="none" stroke="midnightblue" d="M968.39,-571.07C971.47,-515.96 973.82,-352.75 904,-246 859.3,-177.66 777.45,-122.45 736.58,-97.66"/>
<polygon fill="midnightblue" stroke="midnightblue" points="964.87,-571.19 967.72,-581.39 971.86,-571.64 964.87,-571.19"/>
</g>
<!-- Node9 -->
<g id="node9" class="node">
<title>Node9</title>
<g id="a_node9"><a xlink:href="core_8hpp.html" target="_top" xlink:title="Core header including all other necessary headers.">
<polygon fill="white" stroke="black" points="272.5,-6 272.5,-25 407.5,-25 407.5,-6 272.5,-6"/>
<text text-anchor="middle" x="340" y="-13" font-family="Helvetica,sans-Serif" font-size="10.00">include/plssvm/core.hpp</text>
</a>
</g>
</g>
<!-- Node1&#45;&gt;Node9 -->
<g id="edge13" class="edge">
<title>Node1&#45;&gt;Node9</title>
<path fill="none" stroke="midnightblue" d="M874.86,-590C657.8,-589.37 127.22,-583.82 57,-545 18.31,-523.62 0,-507.7 0,-463.5 0,-463.5 0,-463.5 0,-143 0,-82.7 190.26,-41.83 286.13,-25.06"/>
<polygon fill="midnightblue" stroke="midnightblue" points="874.95,-593.51 884.96,-590.03 874.97,-586.51 874.95,-593.51"/>
</g>
<!-- Node10 -->
<g id="node10" class="node">
<title>Node10</title>
<g id="a_node10"><a xlink:href="csvm_8hpp.html" target="_top" xlink:title="Defines the base class for all C&#45;SVM backends and implements the functionality shared by all of them.">
<polygon fill="white" stroke="black" points="488,-134.5 488,-153.5 628,-153.5 628,-134.5 488,-134.5"/>
<text text-anchor="middle" x="558" y="-141.5" font-family="Helvetica,sans-Serif" font-size="10.00">include/plssvm/csvm.hpp</text>
</a>
</g>
</g>
<!-- Node1&#45;&gt;Node10 -->
<g id="edge14" class="edge">
<title>Node1&#45;&gt;Node10</title>
<path fill="none" stroke="midnightblue" d="M952.66,-573.39C946.23,-565.26 938.99,-555.07 934,-545 917.25,-511.16 910,-501.26 910,-463.5 910,-463.5 910,-463.5 910,-327.5 910,-201.87 731.11,-162.61 628.39,-150.43"/>
<polygon fill="midnightblue" stroke="midnightblue" points="950.12,-575.8 959.18,-581.3 955.52,-571.35 950.12,-575.8"/>
</g>
<!-- Node12 -->
<g id="node12" class="node">
<title>Node12</title>
<g id="a_node12"><a xlink:href="parser__train_8hpp.html" target="_top" xlink:title="Implements a class encapsulating all necessary parameters for training the C&#45;SVM possibly provided th...">
<polygon fill="white" stroke="black" points="588.5,-514.5 588.5,-544.5 711.5,-544.5 711.5,-514.5 588.5,-514.5"/>
<text text-anchor="start" x="596.5" y="-532.5" font-family="Helvetica,sans-Serif" font-size="10.00">include/plssvm/detail</text>
<text text-anchor="middle" x="650" y="-521.5" font-family="Helvetica,sans-Serif" font-size="10.00">/cmd/parser_train.hpp</text>
</a>
</g>
</g>
<!-- Node1&#45;&gt;Node12 -->
<g id="edge20" class="edge">
<title>Node1&#45;&gt;Node12</title>
<path fill="none" stroke="midnightblue" d="M911.51,-579.59C855.64,-569.1 769.64,-552.96 711.67,-542.07"/>
<polygon fill="midnightblue" stroke="midnightblue" points="911.11,-583.07 921.58,-581.48 912.4,-576.19 911.11,-583.07"/>
</g>
<!-- Node16 -->
<g id="node16" class="node">
<title>Node16</title>
<g id="a_node16"><a xlink:href="libsvm__model__parsing_8hpp.html" target="_top" xlink:title="Implements parsing functions for the LIBSVM model file.">
<polygon fill="white" stroke="black" points="104.5,-246.5 104.5,-276.5 267.5,-276.5 267.5,-246.5 104.5,-246.5"/>
<text text-anchor="start" x="112.5" y="-264.5" font-family="Helvetica,sans-Serif" font-size="10.00">include/plssvm/detail</text>
<text text-anchor="middle" x="186" y="-253.5" font-family="Helvetica,sans-Serif" font-size="10.00">/io/libsvm_model_parsing.hpp</text>
</a>
</g>
</g>
<!-- Node1&#45;&gt;Node16 -->
<g id="edge44" class="edge">
<title>Node1&#45;&gt;Node16</title>
<path fill="none" stroke="midnightblue" d="M874.55,-585.85C653.77,-574.72 114,-539.72 114,-463.5 114,-463.5 114,-463.5 114,-394.5 114,-346.47 151.2,-299.29 172.12,-276.55"/>
<polygon fill="midnightblue" stroke="midnightblue" points="874.66,-589.36 884.82,-586.37 875.01,-582.37 874.66,-589.36"/>
</g>
<!-- Node17 -->
<g id="node17" class="node">
<title>Node17</title>
<g id="a_node17"><a xlink:href="model_8hpp.html" target="_top" xlink:title="Implements a model class encapsulating the results of a SVM fit call.">
<polygon fill="white" stroke="black" points="267.5,-190.5 267.5,-209.5 412.5,-209.5 412.5,-190.5 267.5,-190.5"/>
<text text-anchor="middle" x="340" y="-197.5" font-family="Helvetica,sans-Serif" font-size="10.00">include/plssvm/model.hpp</text>
</a>
</g>
</g>
<!-- Node1&#45;&gt;Node17 -->
<g id="edge45" class="edge">
<title>Node1&#45;&gt;Node17</title>
<path fill="none" stroke="midnightblue" d="M874.91,-588.71C702.69,-585.59 338.23,-575.51 216,-545 131.58,-523.93 38,-550.51 38,-463.5 38,-463.5 38,-463.5 38,-327.5 38,-285.69 50.76,-269.99 85,-246 113.81,-225.81 202.69,-213.49 267.44,-206.96"/>
<polygon fill="midnightblue" stroke="midnightblue" points="874.91,-592.21 884.97,-588.89 875.03,-585.21 874.91,-592.21"/>
</g>
<!-- Node3&#45;&gt;Node2 -->
<g id="edge3" class="edge">
<title>Node3&#45;&gt;Node2</title>
<path fill="none" stroke="midnightblue" d="M909.42,-64.44C875.7,-53.91 832.96,-40.55 801.15,-30.61"/>
<polygon fill="midnightblue" stroke="midnightblue" points="908.53,-67.83 919.12,-67.48 910.62,-61.15 908.53,-67.83"/>
</g>
<!-- Node3&#45;&gt;Node4 -->
<g id="edge4" class="edge">
<title>Node3&#45;&gt;Node4</title>
<path fill="none" stroke="midnightblue" d="M946.7,-59.45C939.21,-49.9 930.66,-39 924.04,-30.58"/>
<polygon fill="midnightblue" stroke="midnightblue" points="944.01,-61.69 952.93,-67.4 949.51,-57.37 944.01,-61.69"/>
</g>
<!-- Node3&#45;&gt;Node5 -->
<g id="edge5" class="edge">
<title>Node3&#45;&gt;Node5</title>
<path fill="none" stroke="midnightblue" d="M995.78,-62.02C1012.27,-51.9 1032.05,-39.77 1047.04,-30.58"/>
<polygon fill="midnightblue" stroke="midnightblue" points="993.7,-59.18 987,-67.4 997.35,-65.15 993.7,-59.18"/>
</g>
<!-- Node3&#45;&gt;Node6 -->
<g id="edge6" class="edge">
<title>Node3&#45;&gt;Node6</title>
<path fill="none" stroke="midnightblue" d="M1030.55,-65.05C1073.55,-54.43 1128.92,-40.74 1169.91,-30.61"/>
<polygon fill="midnightblue" stroke="midnightblue" points="1029.61,-61.68 1020.74,-67.48 1031.29,-68.47 1029.61,-61.68"/>
</g>
<!-- Node3&#45;&gt;Node7 -->
<g id="edge7" class="edge">
<title>Node3&#45;&gt;Node7</title>
<path fill="none" stroke="midnightblue" d="M1043.54,-70.61C1112.94,-60.9 1216.28,-45.96 1306,-31 1308.72,-30.55 1311.49,-30.08 1314.28,-29.59"/>
<polygon fill="midnightblue" stroke="midnightblue" points="1042.97,-67.15 1033.55,-72 1043.94,-74.09 1042.97,-67.15"/>
</g>
<!-- Node10&#45;&gt;Node3 -->
<g id="edge15" class="edge">
<title>Node10&#45;&gt;Node3</title>
<path fill="none" stroke="midnightblue" d="M626.38,-132.98C700.87,-122.06 819.39,-104.69 894.37,-93.7"/>
<polygon fill="midnightblue" stroke="midnightblue" points="625.56,-129.56 616.17,-134.48 626.57,-136.49 625.56,-129.56"/>
</g>
<!-- Node10&#45;&gt;Node8 -->
<g id="edge16" class="edge">
<title>Node10&#45;&gt;Node8</title>
<path fill="none" stroke="midnightblue" d="M589.45,-130.85C614.47,-121.18 649.5,-107.65 675.71,-97.52"/>
<polygon fill="midnightblue" stroke="midnightblue" points="588.13,-127.61 580.06,-134.48 590.65,-134.14 588.13,-127.61"/>
</g>
<!-- Node10&#45;&gt;Node9 -->
<g id="edge17" class="edge">
<title>Node10&#45;&gt;Node9</title>
<path fill="none" stroke="midnightblue" d="M553.33,-124.2C548.06,-106.89 537.82,-81.72 520,-67 488.47,-40.96 444.37,-28.32 407.72,-22.2"/>
<polygon fill="midnightblue" stroke="midnightblue" points="550.07,-125.55 556.1,-134.26 556.81,-123.69 550.07,-125.55"/>
</g>
<!-- Node11 -->
<g id="node11" class="node">
<title>Node11</title>
<g id="a_node11"><a xlink:href="csvm__factory_8hpp.html" target="_top" xlink:title="Factory function for constructing a new C&#45;SVM based on the provided plssvm::backend_type and potentia...">
<polygon fill="white" stroke="black" points="392.5,-67.5 392.5,-97.5 511.5,-97.5 511.5,-67.5 392.5,-67.5"/>
<text text-anchor="start" x="400.5" y="-85.5" font-family="Helvetica,sans-Serif" font-size="10.00">include/plssvm/csvm</text>
<text text-anchor="middle" x="452" y="-74.5" font-family="Helvetica,sans-Serif" font-size="10.00">_factory.hpp</text>
</a>
</g>
</g>
<!-- Node10&#45;&gt;Node11 -->
<g id="edge18" class="edge">
<title>Node10&#45;&gt;Node11</title>
<path fill="none" stroke="midnightblue" d="M534.02,-129.54C517.01,-119.99 494.22,-107.2 476.98,-97.52"/>
<polygon fill="midnightblue" stroke="midnightblue" points="532.38,-132.63 542.81,-134.48 535.81,-126.53 532.38,-132.63"/>
</g>
<!-- Node11&#45;&gt;Node9 -->
<g id="edge19" class="edge">
<title>Node11&#45;&gt;Node9</title>
<path fill="none" stroke="midnightblue" d="M418.93,-62.31C397.59,-49.93 370.89,-34.43 354.66,-25.01"/>
<polygon fill="midnightblue" stroke="midnightblue" points="417.29,-65.4 427.7,-67.4 420.81,-59.35 417.29,-65.4"/>
</g>
<!-- Node13 -->
<g id="node13" class="node">
<title>Node13</title>
<g id="a_node13"><a xlink:href="data__set__variants_8hpp.html" target="_top" xlink:title="Implements utility functions to create a data set based on runtime parameters.">
<polygon fill="white" stroke="black" points="400,-246.5 400,-276.5 552,-276.5 552,-246.5 400,-246.5"/>
<text text-anchor="start" x="408" y="-264.5" font-family="Helvetica,sans-Serif" font-size="10.00">include/plssvm/detail</text>
<text text-anchor="middle" x="476" y="-253.5" font-family="Helvetica,sans-Serif" font-size="10.00">/cmd/data_set_variants.hpp</text>
</a>
</g>
</g>
<!-- Node12&#45;&gt;Node13 -->
<g id="edge21" class="edge">
<title>Node12&#45;&gt;Node13</title>
<path fill="none" stroke="midnightblue" d="M610.86,-509.36C596.76,-501.12 581.5,-490.48 570,-478 512.88,-416.02 486.75,-313.81 478.78,-276.6"/>
<polygon fill="midnightblue" stroke="midnightblue" points="609.48,-512.6 619.91,-514.43 612.9,-506.49 609.48,-512.6"/>
</g>
<!-- Node14 -->
<g id="node14" class="node">
<title>Node14</title>
<g id="a_node14"><a xlink:href="performance__tracker_8hpp.html" target="_top" xlink:title="Defines a performance tracker which can dump performance information in a YAML file.">
<polygon fill="white" stroke="black" points="579.5,-447.5 579.5,-477.5 720.5,-477.5 720.5,-447.5 579.5,-447.5"/>
<text text-anchor="start" x="587.5" y="-465.5" font-family="Helvetica,sans-Serif" font-size="10.00">include/plssvm/detail</text>
<text text-anchor="middle" x="650" y="-454.5" font-family="Helvetica,sans-Serif" font-size="10.00">/performance_tracker.hpp</text>
</a>
</g>
</g>
<!-- Node12&#45;&gt;Node14 -->
<g id="edge22" class="edge">
<title>Node12&#45;&gt;Node14</title>
<path fill="none" stroke="midnightblue" d="M650,-504.11C650,-495.15 650,-485.32 650,-477.58"/>
<polygon fill="midnightblue" stroke="midnightblue" points="646.5,-504.4 650,-514.4 653.5,-504.4 646.5,-504.4"/>
</g>
<!-- Node14&#45;&gt;Node3 -->
<g id="edge23" class="edge">
<title>Node14&#45;&gt;Node3</title>
<path fill="none" stroke="midnightblue" d="M698.45,-443.72C743.5,-425.01 809.82,-391.64 852,-344 920.85,-266.23 952.29,-139.69 961.22,-97.61"/>
<polygon fill="midnightblue" stroke="midnightblue" points="697.13,-440.48 689.18,-447.48 699.76,-446.96 697.13,-440.48"/>
</g>
<!-- Node14&#45;&gt;Node10 -->
<g id="edge24" class="edge">
<title>Node14&#45;&gt;Node10</title>
<path fill="none" stroke="midnightblue" d="M662.74,-438.4C675.74,-412.64 694,-369.34 694,-329.5 694,-329.5 694,-329.5 694,-260.5 694,-203.19 622.98,-168.39 583.58,-153.5"/>
<polygon fill="midnightblue" stroke="midnightblue" points="659.59,-436.88 658.07,-447.37 665.79,-440.12 659.59,-436.88"/>
</g>
<!-- Node15 -->
<g id="node15" class="node">
<title>Node15</title>
<g id="a_node15"><a xlink:href="data__set_8hpp.html" target="_top" xlink:title="Implements a data set class encapsulating all data points, features, and potential labels.">
<polygon fill="white" stroke="black" points="314.5,-313.5 314.5,-343.5 429.5,-343.5 429.5,-313.5 314.5,-313.5"/>
<text text-anchor="start" x="322.5" y="-331.5" font-family="Helvetica,sans-Serif" font-size="10.00">include/plssvm/data</text>
<text text-anchor="middle" x="372" y="-320.5" font-family="Helvetica,sans-Serif" font-size="10.00">_set.hpp</text>
</a>
</g>
</g>
<!-- Node14&#45;&gt;Node15 -->
<g id="edge25" class="edge">
<title>Node14&#45;&gt;Node15</title>
<path fill="none" stroke="midnightblue" d="M607.29,-443.35C585.53,-433.95 558.73,-422.13 535,-411 486.74,-388.35 431.39,-360.21 399.2,-343.62"/>
<polygon fill="midnightblue" stroke="midnightblue" points="606.02,-446.61 616.59,-447.35 608.79,-440.18 606.02,-446.61"/>
</g>
<!-- Node14&#45;&gt;Node17 -->
<g id="edge43" class="edge">
<title>Node14&#45;&gt;Node17</title>
<path fill="none" stroke="midnightblue" d="M569.52,-447.29C428.74,-420.53 147.67,-358 95,-277 87.49,-265.45 86.18,-256.59 95,-246 116.63,-220.04 203.12,-209.01 267.25,-204.35"/>
<polygon fill="midnightblue" stroke="midnightblue" points="568.94,-450.74 579.41,-449.15 570.23,-443.86 568.94,-450.74"/>
</g>
<!-- Node18 -->
<g id="node18" class="node">
<title>Node18</title>
<g id="a_node18"><a xlink:href="layout_8hpp.html" target="_top" xlink:title="Defines functions to convert 2D vectors to 1D SoA or AoS vectors.">
<polygon fill="white" stroke="black" points="722.5,-313.5 722.5,-343.5 843.5,-343.5 843.5,-313.5 722.5,-313.5"/>
<text text-anchor="start" x="730.5" y="-331.5" font-family="Helvetica,sans-Serif" font-size="10.00">include/plssvm/detail</text>
<text text-anchor="middle" x="783" y="-320.5" font-family="Helvetica,sans-Serif" font-size="10.00">/layout.hpp</text>
</a>
</g>
</g>
<!-- Node14&#45;&gt;Node18 -->
<g id="edge34" class="edge">
<title>Node14&#45;&gt;Node18</title>
<path fill="none" stroke="midnightblue" d="M675.12,-440.68C685.53,-431.79 697.58,-421.14 708,-411 731.15,-388.47 756.22,-360.41 770.71,-343.78"/>
<polygon fill="midnightblue" stroke="midnightblue" points="672.56,-438.26 667.19,-447.39 677.09,-443.6 672.56,-438.26"/>
</g>
<!-- Node19 -->
<g id="node19" class="node">
<title>Node19</title>
<g id="a_node19"><a xlink:href="logger_8hpp.html" target="_top" xlink:title="Defines a simple logging function.">
<polygon fill="white" stroke="black" points="544.5,-380.5 544.5,-410.5 665.5,-410.5 665.5,-380.5 544.5,-380.5"/>
<text text-anchor="start" x="552.5" y="-398.5" font-family="Helvetica,sans-Serif" font-size="10.00">include/plssvm/detail</text>
<text text-anchor="middle" x="605" y="-387.5" font-family="Helvetica,sans-Serif" font-size="10.00">/logger.hpp</text>
</a>
</g>
</g>
<!-- Node14&#45;&gt;Node19 -->
<g id="edge36" class="edge">
<title>Node14&#45;&gt;Node19</title>
<path fill="none" stroke="midnightblue" d="M634.53,-439.16C627.97,-429.68 620.52,-418.92 614.75,-410.58"/>
<polygon fill="midnightblue" stroke="midnightblue" points="631.67,-441.17 640.24,-447.4 637.42,-437.18 631.67,-441.17"/>
</g>
<!-- Node15&#45;&gt;Node9 -->
<g id="edge26" class="edge">
<title>Node15&#45;&gt;Node9</title>
<path fill="none" stroke="midnightblue" d="M342.4,-307.56C314.64,-286.88 274.93,-251.77 258,-210 228.94,-138.32 304.25,-52.66 330.99,-25.33"/>
<polygon fill="midnightblue" stroke="midnightblue" points="340.45,-310.46 350.6,-313.5 344.56,-304.79 340.45,-310.46"/>
</g>
<!-- Node15&#45;&gt;Node10 -->
<g id="edge27" class="edge">
<title>Node15&#45;&gt;Node10</title>
<path fill="none" stroke="midnightblue" d="M372.77,-303.01C374.42,-285.65 378.96,-262.59 391,-246 426.63,-196.92 494.08,-167.1 531.43,-153.59"/>
<polygon fill="midnightblue" stroke="midnightblue" points="369.24,-303.25 372.05,-313.47 376.23,-303.73 369.24,-303.25"/>
</g>
<!-- Node15&#45;&gt;Node13 -->
<g id="edge28" class="edge">
<title>Node15&#45;&gt;Node13</title>
<path fill="none" stroke="midnightblue" d="M403.18,-308.02C419.36,-297.9 438.77,-285.77 453.48,-276.58"/>
<polygon fill="midnightblue" stroke="midnightblue" points="401.19,-305.13 394.57,-313.4 404.9,-311.06 401.19,-305.13"/>
</g>
<!-- Node15&#45;&gt;Node16 -->
<g id="edge29" class="edge">
<title>Node15&#45;&gt;Node16</title>
<path fill="none" stroke="midnightblue" d="M322.19,-310.09C292.16,-299.6 254.41,-286.41 226.28,-276.58"/>
<polygon fill="midnightblue" stroke="midnightblue" points="321.05,-313.4 331.64,-313.4 323.36,-306.79 321.05,-313.4"/>
</g>
<!-- Node15&#45;&gt;Node17 -->
<g id="edge33" class="edge">
<title>Node15&#45;&gt;Node17</title>
<path fill="none" stroke="midnightblue" d="M365.15,-303.52C362.81,-295.14 360.23,-285.67 358,-277 351.79,-252.84 345.21,-224.15 342,-209.92"/>
<polygon fill="midnightblue" stroke="midnightblue" points="361.85,-304.71 367.93,-313.39 368.59,-302.81 361.85,-304.71"/>
</g>
<!-- Node16&#45;&gt;Node17 -->
<g id="edge30" class="edge">
<title>Node16&#45;&gt;Node17</title>
<path fill="none" stroke="midnightblue" d="M232.18,-242.66C260.42,-231.75 295.29,-218.27 317.59,-209.66"/>
<polygon fill="midnightblue" stroke="midnightblue" points="230.56,-239.53 222.5,-246.4 233.09,-246.06 230.56,-239.53"/>
</g>
<!-- Node17&#45;&gt;Node9 -->
<g id="edge31" class="edge">
<title>Node17&#45;&gt;Node9</title>
<path fill="none" stroke="midnightblue" d="M340,-179.72C340,-140.56 340,-53.09 340,-25.21"/>
<polygon fill="midnightblue" stroke="midnightblue" points="336.5,-180.2 340,-190.2 343.5,-180.2 336.5,-180.2"/>
</g>
<!-- Node17&#45;&gt;Node10 -->
<g id="edge32" class="edge">
<title>Node17&#45;&gt;Node10</title>
<path fill="none" stroke="midnightblue" d="M384.31,-188.02C425.49,-177.82 485.97,-162.84 523.62,-153.52"/>
<polygon fill="midnightblue" stroke="midnightblue" points="383.41,-184.64 374.54,-190.44 385.09,-191.44 383.41,-184.64"/>
</g>
<!-- Node18&#45;&gt;Node3 -->
<g id="edge35" class="edge">
<title>Node18&#45;&gt;Node3</title>
<path fill="none" stroke="midnightblue" d="M799.54,-305.2C836.17,-255.83 923.24,-138.44 953.46,-97.71"/>
<polygon fill="midnightblue" stroke="midnightblue" points="796.66,-303.21 793.51,-313.33 802.28,-307.38 796.66,-303.21"/>
</g>
<!-- Node19&#45;&gt;Node3 -->
<g id="edge37" class="edge">
<title>Node19&#45;&gt;Node3</title>
<path fill="none" stroke="midnightblue" d="M619.82,-371.58C634.87,-346.03 656,-302.98 656,-262.5 656,-262.5 656,-262.5 656,-199 656,-148.39 803.65,-112.49 894.49,-95.2"/>
<polygon fill="midnightblue" stroke="midnightblue" points="616.8,-369.8 614.59,-380.16 622.78,-373.44 616.8,-369.8"/>
</g>
<!-- Node19&#45;&gt;Node10 -->
<g id="edge38" class="edge">
<title>Node19&#45;&gt;Node10</title>
<path fill="none" stroke="midnightblue" d="M606.2,-370.03C606.63,-353.79 606.5,-332.04 604,-313 595.78,-250.33 570.32,-178.01 561.25,-153.57"/>
<polygon fill="midnightblue" stroke="midnightblue" points="602.69,-370.18 605.84,-380.29 609.69,-370.42 602.69,-370.18"/>
</g>
<!-- Node19&#45;&gt;Node15 -->
<g id="edge39" class="edge">
<title>Node19&#45;&gt;Node15</title>
<path fill="none" stroke="midnightblue" d="M544.83,-377.71C506.92,-367.14 458.51,-353.63 422.58,-343.61"/>
<polygon fill="midnightblue" stroke="midnightblue" points="544.16,-381.16 554.73,-380.48 546.04,-374.42 544.16,-381.16"/>
</g>
<!-- Node19&#45;&gt;Node16 -->
<g id="edge40" class="edge">
<title>Node19&#45;&gt;Node16</title>
<path fill="none" stroke="midnightblue" d="M534.18,-391.2C471.86,-386.3 379.69,-374.15 305,-344 264.13,-327.5 223.21,-295.17 201.63,-276.57"/>
<polygon fill="midnightblue" stroke="midnightblue" points="534.07,-394.7 544.3,-391.95 534.59,-387.72 534.07,-394.7"/>
</g>
<!-- Node19&#45;&gt;Node17 -->
<g id="edge42" class="edge">
<title>Node19&#45;&gt;Node17</title>
<path fill="none" stroke="midnightblue" d="M605.04,-369.99C603.69,-336.83 596.09,-278.15 561,-246 539.53,-226.32 468.4,-214.32 412.56,-207.72"/>
<polygon fill="midnightblue" stroke="midnightblue" points="601.55,-370.26 605.29,-380.18 608.54,-370.09 601.55,-370.26"/>
</g>
<!-- Node19&#45;&gt;Node18 -->
<g id="edge41" class="edge">
<title>Node19&#45;&gt;Node18</title>
<path fill="none" stroke="midnightblue" d="M653.05,-376.96C681.72,-366.48 717.64,-353.37 744.45,-343.58"/>
<polygon fill="midnightblue" stroke="midnightblue" points="651.82,-373.68 643.62,-380.4 654.22,-380.25 651.82,-373.68"/>
</g>
</g>
</svg>
        <g id="navigator" transform="translate(0 0)" fill="#404254">
                <rect fill="#f2f5e9" fill-opacity="0.5" stroke="#606060" stroke-width=".5" x="0" y="0" width="60" height="60"/>
                <use id="zoomplus" xlink:href="#zoomPlus" x="17" y="9" onmousedown="handleZoom(evt,'in')"/>
                <use id="zoomminus" xlink:href="#zoomMin" x="42" y="9" onmousedown="handleZoom(evt,'out')"/>
                <use id="reset" xlink:href="#resetDef" x="30" y="36" onmousedown="handleReset()"/>
                <g id="arrowUp" xlink:href="#dirArrow" transform="translate(30 24)" onmousedown="handlePan(0,-1)">
                  <use xlink:href="#rim" fill="#404040">
                        <set attributeName="fill" to="#808080" begin="arrowUp.mouseover" end="arrowUp.mouseout"/>
                  </use>
                  <path fill="none" stroke="white" stroke-width="1.5" d="M0,-3.0v7 M-2.5,-0.5L0,-3.0L2.5,-0.5"/>
                </g>
                <g id="arrowRight" xlink:href="#dirArrow" transform="rotate(90) translate(36 -43)" onmousedown="handlePan(1,0)">
                  <use xlink:href="#rim" fill="#404040">
                        <set attributeName="fill" to="#808080" begin="arrowRight.mouseover" end="arrowRight.mouseout"/>
                  </use>
                  <path fill="none" stroke="white" stroke-width="1.5" d="M0,-3.0v7 M-2.5,-0.5L0,-3.0L2.5,-0.5"/>
                </g>
                <g id="arrowDown" xlink:href="#dirArrow" transform="rotate(180) translate(-30 -48)" onmousedown="handlePan(0,1)">
                  <use xlink:href="#rim" fill="#404040">
                        <set attributeName="fill" to="#808080" begin="arrowDown.mouseover" end="arrowDown.mouseout"/>
                  </use>
                  <path fill="none" stroke="white" stroke-width="1.5" d="M0,-3.0v7 M-2.5,-0.5L0,-3.0L2.5,-0.5"/>
                </g>
                <g id="arrowLeft" xlink:href="#dirArrow" transform="rotate(270) translate(-36 17)" onmousedown="handlePan(-1,0)">
                  <use xlink:href="#rim" fill="#404040">
                        <set attributeName="fill" to="#808080" begin="arrowLeft.mouseover" end="arrowLeft.mouseout"/>
                  </use>
                  <path fill="none" stroke="white" stroke-width="1.5" d="M0,-3.0v7 M-2.5,-0.5L0,-3.0L2.5,-0.5"/>
                </g>
        </g>
        <svg viewBox="0 0 15 15" width="100%" height="30px" preserveAspectRatio="xMaxYMin meet">
         <g id="arrow_out" transform="scale(0.3 0.3)">
          <a xlink:href="parameter_8hpp__dep__incl_org.svg" target="_base">
           <rect id="button" ry="5" rx="5" y="6" x="6" height="38" width="38"
                fill="#f2f5e9" fill-opacity="0.5" stroke="#606060" stroke-width="1.0"/>
           <path id="arrow"
             d="M 11.500037,31.436501 C 11.940474,20.09759 22.043105,11.32322 32.158766,21.979434 L 37.068811,17.246167 C 37.068811,17.246167 37.088388,32 37.088388,32 L 22.160133,31.978069 C 22.160133,31.978069 26.997745,27.140456 26.997745,27.140456 C 18.528582,18.264221 13.291696,25.230495 11.500037,31.436501 z"
             style="fill:#404040;"/>
          </a>
         </g>
        </svg>
</svg>
