<?xml version="1.0" encoding="UTF-8" standalone="no"?>
<!DOCTYPE svg PUBLIC "-//W3C//DTD SVG 1.1//EN"
 "http://www.w3.org/Graphics/SVG/1.1/DTD/svg11.dtd">
<!-- Generated by graphviz version 2.43.0 (0)
 -->
<!-- Title: include/plssvm/detail/cmd/parser_scale.hpp Pages: 1 -->
<svg width="1128pt" height="553pt"
 viewBox="0.00 0.00 1127.50 553.00" xmlns="http://www.w3.org/2000/svg" xmlns:xlink="http://www.w3.org/1999/xlink">
<g id="graph0" class="graph" transform="scale(1 1) rotate(0) translate(4 549)">
<title>include/plssvm/detail/cmd/parser_scale.hpp</title>
<polygon fill="white" stroke="transparent" points="-4,4 -4,-549 1123.5,-549 1123.5,4 -4,4"/>
<!-- Node1 -->
<g id="node1" class="node">
<title>Node1</title>
<g id="a_node1"><a xlink:title="Implements a class encapsulating all necessary parameters for scaling a data set possibly provided th...">
<polygon fill="#bfbfbf" stroke="black" points="227,-514.5 227,-544.5 353,-544.5 353,-514.5 227,-514.5"/>
<text text-anchor="start" x="235" y="-532.5" font-family="Helvetica,sans-Serif" font-size="10.00">include/plssvm/detail</text>
<text text-anchor="middle" x="290" y="-521.5" font-family="Helvetica,sans-Serif" font-size="10.00">/cmd/parser_scale.hpp</text>
</a>
</g>
</g>
<!-- Node2 -->
<g id="node2" class="node">
<title>Node2</title>
<g id="a_node2"><a xlink:href="data__set__variants_8hpp.html" target="_top" xlink:title="Implements utility functions to create a data set based on runtime parameters.">
<polygon fill="white" stroke="black" points="0,-246.5 0,-276.5 152,-276.5 152,-246.5 0,-246.5"/>
<text text-anchor="start" x="8" y="-264.5" font-family="Helvetica,sans-Serif" font-size="10.00">include/plssvm/detail</text>
<text text-anchor="middle" x="76" y="-253.5" font-family="Helvetica,sans-Serif" font-size="10.00">/cmd/data_set_variants.hpp</text>
</a>
</g>
</g>
<!-- Node1&#45;&gt;Node2 -->
<g id="edge1" class="edge">
<title>Node1&#45;&gt;Node2</title>
<path fill="none" stroke="midnightblue" d="M272.22,-506.41C229.57,-453.39 122.38,-320.15 87.3,-276.55"/>
<polygon fill="midnightblue" stroke="midnightblue" points="269.5,-508.6 278.49,-514.2 274.95,-504.21 269.5,-508.6"/>
</g>
<!-- Node3 -->
<g id="node3" class="node">
<title>Node3</title>
<g id="a_node3"><a xlink:href="performance__tracker_8hpp.html" target="_top" xlink:title="Defines a performance tracker which can dump performance information in a YAML file.">
<polygon fill="white" stroke="black" points="455.5,-447.5 455.5,-477.5 596.5,-477.5 596.5,-447.5 455.5,-447.5"/>
<text text-anchor="start" x="463.5" y="-465.5" font-family="Helvetica,sans-Serif" font-size="10.00">include/plssvm/detail</text>
<text text-anchor="middle" x="526" y="-454.5" font-family="Helvetica,sans-Serif" font-size="10.00">/performance_tracker.hpp</text>
</a>
</g>
</g>
<!-- Node1&#45;&gt;Node3 -->
<g id="edge2" class="edge">
<title>Node1&#45;&gt;Node3</title>
<path fill="none" stroke="midnightblue" d="M350.94,-511.71C389.35,-501.14 438.37,-487.63 474.77,-477.61"/>
<polygon fill="midnightblue" stroke="midnightblue" points="349.63,-508.45 340.92,-514.48 351.49,-515.19 349.63,-508.45"/>
</g>
<!-- Node4 -->
<g id="node4" class="node">
<title>Node4</title>
<g id="a_node4"><a xlink:href="gpu__csvm_8hpp.html" target="_top" xlink:title="Defines the base class for all C&#45;SVM backends using a GPU. Used for code duplication reduction.">
<polygon fill="white" stroke="black" points="647.5,-67.5 647.5,-97.5 786.5,-97.5 786.5,-67.5 647.5,-67.5"/>
<text text-anchor="start" x="655.5" y="-85.5" font-family="Helvetica,sans-Serif" font-size="10.00">include/plssvm/backends</text>
<text text-anchor="middle" x="717" y="-74.5" font-family="Helvetica,sans-Serif" font-size="10.00">/gpu_csvm.hpp</text>
</a>
</g>
</g>
<!-- Node3&#45;&gt;Node4 -->
<g id="edge3" class="edge">
<title>Node3&#45;&gt;Node4</title>
<path fill="none" stroke="midnightblue" d="M606.82,-456.95C689.52,-447.42 806,-418.24 806,-329.5 806,-329.5 806,-329.5 806,-199 806,-154.7 764.41,-116.99 738.09,-97.57"/>
<polygon fill="midnightblue" stroke="midnightblue" points="606.22,-453.5 596.66,-458.05 606.97,-460.46 606.22,-453.5"/>
</g>
<!-- Node10 -->
<g id="node10" class="node">
<title>Node10</title>
<g id="a_node10"><a xlink:href="csvm_8hpp.html" target="_top" xlink:title="Defines the base class for all C&#45;SVM backends and implements the functionality shared by all of them.">
<polygon fill="white" stroke="black" points="462,-134.5 462,-153.5 602,-153.5 602,-134.5 462,-134.5"/>
<text text-anchor="middle" x="532" y="-141.5" font-family="Helvetica,sans-Serif" font-size="10.00">include/plssvm/csvm.hpp</text>
</a>
</g>
</g>
<!-- Node3&#45;&gt;Node10 -->
<g id="edge9" class="edge">
<title>Node3&#45;&gt;Node10</title>
<path fill="none" stroke="midnightblue" d="M565.41,-442.01C577.1,-434.11 588.51,-423.78 595,-411 642.24,-317.89 561.76,-188.36 538.19,-153.78"/>
<polygon fill="midnightblue" stroke="midnightblue" points="563.52,-439.06 556.91,-447.34 567.24,-444.99 563.52,-439.06"/>
</g>
<!-- Node14 -->
<g id="node14" class="node">
<title>Node14</title>
<g id="a_node14"><a xlink:href="data__set_8hpp.html" target="_top" xlink:title="Implements a data set class encapsulating all data points, features, and potential labels.">
<polygon fill="white" stroke="black" points="155.5,-313.5 155.5,-343.5 270.5,-343.5 270.5,-313.5 155.5,-313.5"/>
<text text-anchor="start" x="163.5" y="-331.5" font-family="Helvetica,sans-Serif" font-size="10.00">include/plssvm/data</text>
<text text-anchor="middle" x="213" y="-320.5" font-family="Helvetica,sans-Serif" font-size="10.00">_set.hpp</text>
</a>
</g>
</g>
<!-- Node3&#45;&gt;Node14 -->
<g id="edge15" class="edge">
<title>Node3&#45;&gt;Node14</title>
<path fill="none" stroke="midnightblue" d="M445.38,-457.39C396.24,-451.9 333.74,-439.36 285,-411 256.28,-394.29 233.02,-362.04 221.28,-343.51"/>
<polygon fill="midnightblue" stroke="midnightblue" points="445.03,-460.88 455.34,-458.43 445.75,-453.91 445.03,-460.88"/>
</g>
<!-- Node16 -->
<g id="node16" class="node">
<title>Node16</title>
<g id="a_node16"><a xlink:href="model_8hpp.html" target="_top" xlink:title="Implements a model class encapsulating the results of a SVM fit call.">
<polygon fill="white" stroke="black" points="289.5,-190.5 289.5,-209.5 434.5,-209.5 434.5,-190.5 289.5,-190.5"/>
<text text-anchor="middle" x="362" y="-197.5" font-family="Helvetica,sans-Serif" font-size="10.00">include/plssvm/model.hpp</text>
</a>
</g>
</g>
<!-- Node3&#45;&gt;Node16 -->
<g id="edge33" class="edge">
<title>Node3&#45;&gt;Node16</title>
<path fill="none" stroke="midnightblue" d="M487.9,-442.55C436.53,-414.53 347.52,-356.66 313,-277 307.52,-264.36 307.46,-258.61 313,-246 319.97,-230.14 335.59,-217.42 347.34,-209.6"/>
<polygon fill="midnightblue" stroke="midnightblue" points="486.56,-445.8 497.03,-447.43 489.86,-439.63 486.56,-445.8"/>
</g>
<!-- Node17 -->
<g id="node17" class="node">
<title>Node17</title>
<g id="a_node17"><a xlink:href="layout_8hpp.html" target="_top" xlink:title="Defines functions to convert 2D vectors to 1D SoA or AoS vectors.">
<polygon fill="white" stroke="black" points="656.5,-313.5 656.5,-343.5 777.5,-343.5 777.5,-313.5 656.5,-313.5"/>
<text text-anchor="start" x="664.5" y="-331.5" font-family="Helvetica,sans-Serif" font-size="10.00">include/plssvm/detail</text>
<text text-anchor="middle" x="717" y="-320.5" font-family="Helvetica,sans-Serif" font-size="10.00">/layout.hpp</text>
</a>
</g>
</g>
<!-- Node3&#45;&gt;Node17 -->
<g id="edge24" class="edge">
<title>Node3&#45;&gt;Node17</title>
<path fill="none" stroke="midnightblue" d="M579.16,-443.76C599.81,-435.52 623,-424.53 642,-411 669.1,-391.71 693.82,-361.27 707.01,-343.56"/>
<polygon fill="midnightblue" stroke="midnightblue" points="577.64,-440.59 569.58,-447.46 580.17,-447.12 577.64,-440.59"/>
</g>
<!-- Node18 -->
<g id="node18" class="node">
<title>Node18</title>
<g id="a_node18"><a xlink:href="logger_8hpp.html" target="_top" xlink:title="Defines a simple logging function.">
<polygon fill="white" stroke="black" points="465.5,-380.5 465.5,-410.5 586.5,-410.5 586.5,-380.5 465.5,-380.5"/>
<text text-anchor="start" x="473.5" y="-398.5" font-family="Helvetica,sans-Serif" font-size="10.00">include/plssvm/detail</text>
<text text-anchor="middle" x="526" y="-387.5" font-family="Helvetica,sans-Serif" font-size="10.00">/logger.hpp</text>
</a>
</g>
</g>
<!-- Node3&#45;&gt;Node18 -->
<g id="edge26" class="edge">
<title>Node3&#45;&gt;Node18</title>
<path fill="none" stroke="midnightblue" d="M526,-437.11C526,-428.15 526,-418.32 526,-410.58"/>
<polygon fill="midnightblue" stroke="midnightblue" points="522.5,-437.4 526,-447.4 529.5,-437.4 522.5,-437.4"/>
</g>
<!-- Node5 -->
<g id="node5" class="node">
<title>Node5</title>
<g id="a_node5"><a xlink:href="backends_2CUDA_2csvm_8hpp.html" target="_top" xlink:title="Defines a C&#45;SVM using the CUDA backend.">
<polygon fill="white" stroke="black" points="980.5,-0.5 980.5,-30.5 1119.5,-30.5 1119.5,-0.5 980.5,-0.5"/>
<text text-anchor="start" x="988.5" y="-18.5" font-family="Helvetica,sans-Serif" font-size="10.00">include/plssvm/backends</text>
<text text-anchor="middle" x="1050" y="-7.5" font-family="Helvetica,sans-Serif" font-size="10.00">/CUDA/csvm.hpp</text>
</a>
</g>
</g>
<!-- Node4&#45;&gt;Node5 -->
<g id="edge4" class="edge">
<title>Node4&#45;&gt;Node5</title>
<path fill="none" stroke="midnightblue" d="M796.68,-65.95C852.61,-55.03 926.69,-40.57 980.28,-30.11"/>
<polygon fill="midnightblue" stroke="midnightblue" points="795.95,-62.52 786.81,-67.87 797.29,-69.39 795.95,-62.52"/>
</g>
<!-- Node6 -->
<g id="node6" class="node">
<title>Node6</title>
<g id="a_node6"><a xlink:href="backends_2HIP_2csvm_8hpp.html" target="_top" xlink:title="Defines a C&#45;SVM using the HIP backend.">
<polygon fill="white" stroke="black" points="352.5,-0.5 352.5,-30.5 491.5,-30.5 491.5,-0.5 352.5,-0.5"/>
<text text-anchor="start" x="360.5" y="-18.5" font-family="Helvetica,sans-Serif" font-size="10.00">include/plssvm/backends</text>
<text text-anchor="middle" x="422" y="-7.5" font-family="Helvetica,sans-Serif" font-size="10.00">/HIP/csvm.hpp</text>
</a>
</g>
</g>
<!-- Node4&#45;&gt;Node6 -->
<g id="edge5" class="edge">
<title>Node4&#45;&gt;Node6</title>
<path fill="none" stroke="midnightblue" d="M643.55,-65.32C595.06,-54.63 532.17,-40.77 485.79,-30.55"/>
<polygon fill="midnightblue" stroke="midnightblue" points="642.83,-68.74 653.35,-67.48 644.34,-61.91 642.83,-68.74"/>
</g>
<!-- Node7 -->
<g id="node7" class="node">
<title>Node7</title>
<g id="a_node7"><a xlink:href="backends_2OpenCL_2csvm_8hpp.html" target="_top" xlink:title="Defines a C&#45;SVM using the OpenCL backend.">
<polygon fill="white" stroke="black" points="509.5,-0.5 509.5,-30.5 648.5,-30.5 648.5,-0.5 509.5,-0.5"/>
<text text-anchor="start" x="517.5" y="-18.5" font-family="Helvetica,sans-Serif" font-size="10.00">include/plssvm/backends</text>
<text text-anchor="middle" x="579" y="-7.5" font-family="Helvetica,sans-Serif" font-size="10.00">/OpenCL/csvm.hpp</text>
</a>
</g>
</g>
<!-- Node4&#45;&gt;Node7 -->
<g id="edge6" class="edge">
<title>Node4&#45;&gt;Node7</title>
<path fill="none" stroke="midnightblue" d="M678,-63.13C656.07,-52.8 629.13,-40.11 608.89,-30.58"/>
<polygon fill="midnightblue" stroke="midnightblue" points="676.52,-66.3 687.06,-67.4 679.5,-59.97 676.52,-66.3"/>
</g>
<!-- Node8 -->
<g id="node8" class="node">
<title>Node8</title>
<g id="a_node8"><a xlink:href="backends_2SYCL_2hipSYCL_2csvm_8hpp.html" target="_top" xlink:title="Defines a base C&#45;SVM used for the different SYCL backends using hipSYCL as SYCL implementation.">
<polygon fill="white" stroke="black" points="666.5,-0.5 666.5,-30.5 805.5,-30.5 805.5,-0.5 666.5,-0.5"/>
<text text-anchor="start" x="674.5" y="-18.5" font-family="Helvetica,sans-Serif" font-size="10.00">include/plssvm/backends</text>
<text text-anchor="middle" x="736" y="-7.5" font-family="Helvetica,sans-Serif" font-size="10.00">/SYCL/hipSYCL/csvm.hpp</text>
</a>
</g>
</g>
<!-- Node4&#45;&gt;Node8 -->
<g id="edge7" class="edge">
<title>Node4&#45;&gt;Node8</title>
<path fill="none" stroke="midnightblue" d="M723.96,-57.7C726.62,-48.59 729.57,-38.49 731.89,-30.58"/>
<polygon fill="midnightblue" stroke="midnightblue" points="720.57,-56.82 721.12,-67.4 727.29,-58.78 720.57,-56.82"/>
</g>
<!-- Node9 -->
<g id="node9" class="node">
<title>Node9</title>
<g id="a_node9"><a xlink:href="backends_2SYCL_2DPCPP_2csvm_8hpp.html" target="_top" xlink:title="Defines a base C&#45;SVM used for the different SYCL backends using DPC++ as SYCL implementation.">
<polygon fill="white" stroke="black" points="823.5,-0.5 823.5,-30.5 962.5,-30.5 962.5,-0.5 823.5,-0.5"/>
<text text-anchor="start" x="831.5" y="-18.5" font-family="Helvetica,sans-Serif" font-size="10.00">include/plssvm/backends</text>
<text text-anchor="middle" x="893" y="-7.5" font-family="Helvetica,sans-Serif" font-size="10.00">/SYCL/DPCPP/csvm.hpp</text>
</a>
</g>
</g>
<!-- Node4&#45;&gt;Node9 -->
<g id="edge8" class="edge">
<title>Node4&#45;&gt;Node9</title>
<path fill="none" stroke="midnightblue" d="M764.88,-63.82C793.17,-53.37 828.49,-40.32 854.89,-30.58"/>
<polygon fill="midnightblue" stroke="midnightblue" points="763.36,-60.65 755.19,-67.4 765.78,-67.21 763.36,-60.65"/>
</g>
<!-- Node10&#45;&gt;Node4 -->
<g id="edge10" class="edge">
<title>Node10&#45;&gt;Node4</title>
<path fill="none" stroke="midnightblue" d="M568.2,-131.36C598.35,-121.66 641.36,-107.83 673.4,-97.52"/>
<polygon fill="midnightblue" stroke="midnightblue" points="566.95,-128.08 558.51,-134.48 569.1,-134.75 566.95,-128.08"/>
</g>
<!-- Node11 -->
<g id="node11" class="node">
<title>Node11</title>
<g id="a_node11"><a xlink:href="backends_2OpenMP_2csvm_8hpp.html" target="_top" xlink:title="Defines a C&#45;SVM using the OpenMP backend.">
<polygon fill="white" stroke="black" points="295.5,-67.5 295.5,-97.5 434.5,-97.5 434.5,-67.5 295.5,-67.5"/>
<text text-anchor="start" x="303.5" y="-85.5" font-family="Helvetica,sans-Serif" font-size="10.00">include/plssvm/backends</text>
<text text-anchor="middle" x="365" y="-74.5" font-family="Helvetica,sans-Serif" font-size="10.00">/OpenMP/csvm.hpp</text>
</a>
</g>
</g>
<!-- Node10&#45;&gt;Node11 -->
<g id="edge11" class="edge">
<title>Node10&#45;&gt;Node11</title>
<path fill="none" stroke="midnightblue" d="M498.61,-131.1C471.44,-121.42 433.03,-107.74 404.36,-97.52"/>
<polygon fill="midnightblue" stroke="midnightblue" points="497.48,-134.42 508.07,-134.48 499.83,-127.82 497.48,-134.42"/>
</g>
<!-- Node12 -->
<g id="node12" class="node">
<title>Node12</title>
<g id="a_node12"><a xlink:href="core_8hpp.html" target="_top" xlink:title="Core header including all other necessary headers.">
<polygon fill="white" stroke="black" points="199.5,-6 199.5,-25 334.5,-25 334.5,-6 199.5,-6"/>
<text text-anchor="middle" x="267" y="-13" font-family="Helvetica,sans-Serif" font-size="10.00">include/plssvm/core.hpp</text>
</a>
</g>
</g>
<!-- Node10&#45;&gt;Node12 -->
<g id="edge12" class="edge">
<title>Node10&#45;&gt;Node12</title>
<path fill="none" stroke="midnightblue" d="M552.43,-128.27C572.14,-112.3 596.73,-86.47 580,-67 545.28,-26.6 395.51,-39.99 343,-31 332.41,-29.19 321.01,-27.09 310.35,-25.06"/>
<polygon fill="midnightblue" stroke="midnightblue" points="550.18,-125.59 544.41,-134.47 554.46,-131.12 550.18,-125.59"/>
</g>
<!-- Node13 -->
<g id="node13" class="node">
<title>Node13</title>
<g id="a_node13"><a xlink:href="csvm__factory_8hpp.html" target="_top" xlink:title="Factory function for constructing a new C&#45;SVM based on the provided plssvm::backend_type and potentia...">
<polygon fill="white" stroke="black" points="452.5,-67.5 452.5,-97.5 571.5,-97.5 571.5,-67.5 452.5,-67.5"/>
<text text-anchor="start" x="460.5" y="-85.5" font-family="Helvetica,sans-Serif" font-size="10.00">include/plssvm/csvm</text>
<text text-anchor="middle" x="512" y="-74.5" font-family="Helvetica,sans-Serif" font-size="10.00">_factory.hpp</text>
</a>
</g>
</g>
<!-- Node10&#45;&gt;Node13 -->
<g id="edge13" class="edge">
<title>Node10&#45;&gt;Node13</title>
<path fill="none" stroke="midnightblue" d="M525.89,-124.82C522.94,-116.04 519.45,-105.68 516.71,-97.52"/>
<polygon fill="midnightblue" stroke="midnightblue" points="522.63,-126.11 529.13,-134.48 529.27,-123.88 522.63,-126.11"/>
</g>
<!-- Node13&#45;&gt;Node12 -->
<g id="edge14" class="edge">
<title>Node13&#45;&gt;Node12</title>
<path fill="none" stroke="midnightblue" d="M449.47,-64.91C401.49,-52.18 337.21,-35.13 299.15,-25.03"/>
<polygon fill="midnightblue" stroke="midnightblue" points="448.58,-68.29 459.14,-67.48 450.37,-61.53 448.58,-68.29"/>
</g>
<!-- Node14&#45;&gt;Node2 -->
<g id="edge18" class="edge">
<title>Node14&#45;&gt;Node2</title>
<path fill="none" stroke="midnightblue" d="M173.99,-308.99C152.28,-298.69 125.67,-286.07 105.67,-276.58"/>
<polygon fill="midnightblue" stroke="midnightblue" points="172.74,-312.27 183.27,-313.4 175.74,-305.95 172.74,-312.27"/>
</g>
<!-- Node14&#45;&gt;Node10 -->
<g id="edge17" class="edge">
<title>Node14&#45;&gt;Node10</title>
<path fill="none" stroke="midnightblue" d="M217.23,-303.4C224.22,-271.56 241.43,-216.44 280,-190 308.91,-170.18 397.88,-157.7 461.91,-151.04"/>
<polygon fill="midnightblue" stroke="midnightblue" points="213.8,-302.73 215.24,-313.23 220.66,-304.13 213.8,-302.73"/>
</g>
<!-- Node14&#45;&gt;Node12 -->
<g id="edge16" class="edge">
<title>Node14&#45;&gt;Node12</title>
<path fill="none" stroke="midnightblue" d="M203.03,-304.01C193.31,-278.96 180,-237.9 180,-201 180,-201 180,-201 180,-143 180,-90.49 231.52,-43.89 255.27,-25.19"/>
<polygon fill="midnightblue" stroke="midnightblue" points="199.82,-305.42 206.79,-313.4 206.32,-302.81 199.82,-305.42"/>
</g>
<!-- Node15 -->
<g id="node15" class="node">
<title>Node15</title>
<g id="a_node15"><a xlink:href="libsvm__model__parsing_8hpp.html" target="_top" xlink:title="Implements parsing functions for the LIBSVM model file.">
<polygon fill="white" stroke="black" points="322.5,-246.5 322.5,-276.5 485.5,-276.5 485.5,-246.5 322.5,-246.5"/>
<text text-anchor="start" x="330.5" y="-264.5" font-family="Helvetica,sans-Serif" font-size="10.00">include/plssvm/detail</text>
<text text-anchor="middle" x="404" y="-253.5" font-family="Helvetica,sans-Serif" font-size="10.00">/io/libsvm_model_parsing.hpp</text>
</a>
</g>
</g>
<!-- Node14&#45;&gt;Node15 -->
<g id="edge19" class="edge">
<title>Node14&#45;&gt;Node15</title>
<path fill="none" stroke="midnightblue" d="M264.15,-310.09C294.99,-299.6 333.75,-286.41 362.64,-276.58"/>
<polygon fill="midnightblue" stroke="midnightblue" points="262.78,-306.86 254.44,-313.4 265.04,-313.49 262.78,-306.86"/>
</g>
<!-- Node14&#45;&gt;Node16 -->
<g id="edge23" class="edge">
<title>Node14&#45;&gt;Node16</title>
<path fill="none" stroke="midnightblue" d="M227.96,-304.91C240.4,-287.33 259.35,-263.13 280,-246 298.88,-230.35 324.01,-217.5 341.46,-209.6"/>
<polygon fill="midnightblue" stroke="midnightblue" points="224.88,-303.21 222.07,-313.43 230.64,-307.19 224.88,-303.21"/>
</g>
<!-- Node15&#45;&gt;Node16 -->
<g id="edge20" class="edge">
<title>Node15&#45;&gt;Node16</title>
<path fill="none" stroke="midnightblue" d="M388.19,-238.1C381.19,-228.19 373.37,-217.11 368.11,-209.66"/>
<polygon fill="midnightblue" stroke="midnightblue" points="385.42,-240.25 394.05,-246.4 391.14,-236.21 385.42,-240.25"/>
</g>
<!-- Node16&#45;&gt;Node10 -->
<g id="edge22" class="edge">
<title>Node16&#45;&gt;Node10</title>
<path fill="none" stroke="midnightblue" d="M398.82,-187.3C430.85,-177.13 476.52,-162.62 505.19,-153.52"/>
<polygon fill="midnightblue" stroke="midnightblue" points="397.41,-184.08 388.94,-190.44 399.53,-190.75 397.41,-184.08"/>
</g>
<!-- Node16&#45;&gt;Node12 -->
<g id="edge21" class="edge">
<title>Node16&#45;&gt;Node12</title>
<path fill="none" stroke="midnightblue" d="M346.53,-182.99C329.21,-164.17 301.54,-131.25 286,-98 274.44,-73.25 269.61,-40.9 267.86,-25.46"/>
<polygon fill="midnightblue" stroke="midnightblue" points="344.07,-185.48 353.47,-190.38 349.17,-180.69 344.07,-185.48"/>
</g>
<!-- Node17&#45;&gt;Node4 -->
<g id="edge25" class="edge">
<title>Node17&#45;&gt;Node4</title>
<path fill="none" stroke="midnightblue" d="M717,-303.01C717,-252.44 717,-137.85 717,-97.71"/>
<polygon fill="midnightblue" stroke="midnightblue" points="713.5,-303.33 717,-313.33 720.5,-303.33 713.5,-303.33"/>
</g>
<!-- Node18&#45;&gt;Node4 -->
<g id="edge27" class="edge">
<title>Node18&#45;&gt;Node4</title>
<path fill="none" stroke="midnightblue" d="M540.13,-371.49C577.47,-310.69 677.96,-147.06 708.25,-97.75"/>
<polygon fill="midnightblue" stroke="midnightblue" points="536.95,-369.98 534.7,-380.33 542.92,-373.64 536.95,-369.98"/>
</g>
<!-- Node18&#45;&gt;Node10 -->
<g id="edge28" class="edge">
<title>Node18&#45;&gt;Node10</title>
<path fill="none" stroke="midnightblue" d="M532.96,-370.31C535.01,-362.04 536.98,-352.68 538,-344 546.57,-270.88 536.72,-181.67 533.18,-153.77"/>
<polygon fill="midnightblue" stroke="midnightblue" points="529.55,-369.51 530.38,-380.08 536.32,-371.3 529.55,-369.51"/>
</g>
<!-- Node18&#45;&gt;Node14 -->
<g id="edge29" class="edge">
<title>Node18&#45;&gt;Node14</title>
<path fill="none" stroke="midnightblue" d="M455.47,-379.85C399.69,-368.27 322.78,-352.3 270.65,-341.47"/>
<polygon fill="midnightblue" stroke="midnightblue" points="454.78,-383.28 465.28,-381.89 456.2,-376.43 454.78,-383.28"/>
</g>
<!-- Node18&#45;&gt;Node15 -->
<g id="edge30" class="edge">
<title>Node18&#45;&gt;Node15</title>
<path fill="none" stroke="midnightblue" d="M506.03,-372.9C480.85,-345.65 438.27,-299.58 416.96,-276.52"/>
<polygon fill="midnightblue" stroke="midnightblue" points="503.59,-375.41 512.94,-380.37 508.73,-370.65 503.59,-375.41"/>
</g>
<!-- Node18&#45;&gt;Node16 -->
<g id="edge32" class="edge">
<title>Node18&#45;&gt;Node16</title>
<path fill="none" stroke="midnightblue" d="M527.63,-369.84C528.38,-337.42 524.74,-280.54 494,-246 477.02,-226.92 451.62,-215.92 427.62,-209.59"/>
<polygon fill="midnightblue" stroke="midnightblue" points="524.12,-370.08 527.21,-380.22 531.11,-370.36 524.12,-370.08"/>
</g>
<!-- Node18&#45;&gt;Node17 -->
<g id="edge31" class="edge">
<title>Node18&#45;&gt;Node17</title>
<path fill="none" stroke="midnightblue" d="M577.15,-377.09C607.99,-366.6 646.75,-353.41 675.64,-343.58"/>
<polygon fill="midnightblue" stroke="midnightblue" points="575.78,-373.86 567.44,-380.4 578.04,-380.49 575.78,-373.86"/>
</g>
</g>
</svg>
