<?xml version="1.0" encoding="UTF-8" standalone="no"?>
<!DOCTYPE svg PUBLIC "-//W3C//DTD SVG 1.1//EN"
 "http://www.w3.org/Graphics/SVG/1.1/DTD/svg11.dtd">
<!-- Generated by graphviz version 2.43.0 (0)
 -->
<!-- Title: include/plssvm/detail/performance_tracker.hpp Pages: 1 -->
<svg width="1078pt" height="486pt"
 viewBox="0.00 0.00 1077.50 486.00" xmlns="http://www.w3.org/2000/svg" xmlns:xlink="http://www.w3.org/1999/xlink">
<g id="graph0" class="graph" transform="scale(1 1) rotate(0) translate(4 482)">
<title>include/plssvm/detail/performance_tracker.hpp</title>
<polygon fill="white" stroke="transparent" points="-4,4 -4,-482 1073.5,-482 1073.5,4 -4,4"/>
<!-- Node1 -->
<g id="node1" class="node">
<title>Node1</title>
<g id="a_node1"><a xlink:title="Defines a performance tracker which can dump performance information in a YAML file.">
<polygon fill="#bfbfbf" stroke="black" points="502.5,-447.5 502.5,-477.5 643.5,-477.5 643.5,-447.5 502.5,-447.5"/>
<text text-anchor="start" x="510.5" y="-465.5" font-family="Helvetica,sans-Serif" font-size="10.00">include/plssvm/detail</text>
<text text-anchor="middle" x="573" y="-454.5" font-family="Helvetica,sans-Serif" font-size="10.00">/performance_tracker.hpp</text>
</a>
</g>
</g>
<!-- Node2 -->
<g id="node2" class="node">
<title>Node2</title>
<g id="a_node2"><a xlink:href="gpu__csvm_8hpp.html" target="_top" xlink:title="Defines the base class for all C&#45;SVM backends using a GPU. Used for code duplication reduction.">
<polygon fill="white" stroke="black" points="616.5,-67.5 616.5,-97.5 755.5,-97.5 755.5,-67.5 616.5,-67.5"/>
<text text-anchor="start" x="624.5" y="-85.5" font-family="Helvetica,sans-Serif" font-size="10.00">include/plssvm/backends</text>
<text text-anchor="middle" x="686" y="-74.5" font-family="Helvetica,sans-Serif" font-size="10.00">/gpu_csvm.hpp</text>
</a>
</g>
</g>
<!-- Node1&#45;&gt;Node2 -->
<g id="edge1" class="edge">
<title>Node1&#45;&gt;Node2</title>
<path fill="none" stroke="midnightblue" d="M653.67,-447.66C717.51,-431.54 796,-397.83 796,-329.5 796,-329.5 796,-329.5 796,-199 796,-151.65 746.92,-116.02 714.33,-97.58"/>
<polygon fill="midnightblue" stroke="midnightblue" points="652.46,-444.35 643.56,-450.1 654.1,-451.16 652.46,-444.35"/>
</g>
<!-- Node8 -->
<g id="node8" class="node">
<title>Node8</title>
<g id="a_node8"><a xlink:href="csvm_8hpp.html" target="_top" xlink:title="Defines the base class for all C&#45;SVM backends and implements the functionality shared by all of them.">
<polygon fill="white" stroke="black" points="353,-134.5 353,-153.5 493,-153.5 493,-134.5 353,-134.5"/>
<text text-anchor="middle" x="423" y="-141.5" font-family="Helvetica,sans-Serif" font-size="10.00">include/plssvm/csvm.hpp</text>
</a>
</g>
</g>
<!-- Node1&#45;&gt;Node8 -->
<g id="edge7" class="edge">
<title>Node1&#45;&gt;Node8</title>
<path fill="none" stroke="midnightblue" d="M587.21,-438.41C591.57,-430.08 595.8,-420.41 598,-411 601.14,-397.58 601.21,-393.4 598,-380 575.5,-285.96 561,-257.75 492,-190 476.39,-174.67 454.79,-161.59 439.94,-153.55"/>
<polygon fill="midnightblue" stroke="midnightblue" points="584.15,-436.72 582.33,-447.15 590.26,-440.13 584.15,-436.72"/>
</g>
<!-- Node12 -->
<g id="node12" class="node">
<title>Node12</title>
<g id="a_node12"><a xlink:href="data__set_8hpp.html" target="_top" xlink:title="Implements a data set class encapsulating all data points, features, and potential labels.">
<polygon fill="white" stroke="black" points="226.5,-313.5 226.5,-343.5 341.5,-343.5 341.5,-313.5 226.5,-313.5"/>
<text text-anchor="start" x="234.5" y="-331.5" font-family="Helvetica,sans-Serif" font-size="10.00">include/plssvm/data</text>
<text text-anchor="middle" x="284" y="-320.5" font-family="Helvetica,sans-Serif" font-size="10.00">_set.hpp</text>
</a>
</g>
</g>
<!-- Node1&#45;&gt;Node12 -->
<g id="edge13" class="edge">
<title>Node1&#45;&gt;Node12</title>
<path fill="none" stroke="midnightblue" d="M531.27,-443.24C509.66,-433.72 482.86,-421.84 459,-411 407.74,-387.71 348.39,-359.89 313.65,-343.51"/>
<polygon fill="midnightblue" stroke="midnightblue" points="529.93,-446.47 540.5,-447.3 532.75,-440.07 529.93,-446.47"/>
</g>
<!-- Node15 -->
<g id="node15" class="node">
<title>Node15</title>
<g id="a_node15"><a xlink:href="model_8hpp.html" target="_top" xlink:title="Implements a model class encapsulating the results of a SVM fit call.">
<polygon fill="white" stroke="black" points="110.5,-190.5 110.5,-209.5 255.5,-209.5 255.5,-190.5 110.5,-190.5"/>
<text text-anchor="middle" x="183" y="-197.5" font-family="Helvetica,sans-Serif" font-size="10.00">include/plssvm/model.hpp</text>
</a>
</g>
</g>
<!-- Node1&#45;&gt;Node15 -->
<g id="edge31" class="edge">
<title>Node1&#45;&gt;Node15</title>
<path fill="none" stroke="midnightblue" d="M492.3,-459.09C377.34,-450.67 170.96,-415.88 86,-277 78.81,-265.25 78.59,-257.61 86,-246 98.09,-227.07 120.42,-215.98 140.61,-209.55"/>
<polygon fill="midnightblue" stroke="midnightblue" points="492.24,-462.59 502.45,-459.78 492.71,-455.61 492.24,-462.59"/>
</g>
<!-- Node16 -->
<g id="node16" class="node">
<title>Node16</title>
<g id="a_node16"><a xlink:href="layout_8hpp.html" target="_top" xlink:title="Defines functions to convert 2D vectors to 1D SoA or AoS vectors.">
<polygon fill="white" stroke="black" points="646.5,-313.5 646.5,-343.5 767.5,-343.5 767.5,-313.5 646.5,-313.5"/>
<text text-anchor="start" x="654.5" y="-331.5" font-family="Helvetica,sans-Serif" font-size="10.00">include/plssvm/detail</text>
<text text-anchor="middle" x="707" y="-320.5" font-family="Helvetica,sans-Serif" font-size="10.00">/layout.hpp</text>
</a>
</g>
</g>
<!-- Node1&#45;&gt;Node16 -->
<g id="edge22" class="edge">
<title>Node1&#45;&gt;Node16</title>
<path fill="none" stroke="midnightblue" d="M598.28,-441C608.94,-432.06 621.33,-421.29 632,-411 655.39,-388.44 680.58,-360.15 695,-343.52"/>
<polygon fill="midnightblue" stroke="midnightblue" points="595.98,-438.36 590.51,-447.44 600.45,-443.75 595.98,-438.36"/>
</g>
<!-- Node17 -->
<g id="node17" class="node">
<title>Node17</title>
<g id="a_node17"><a xlink:href="logger_8hpp.html" target="_top" xlink:title="Defines a simple logging function.">
<polygon fill="white" stroke="black" points="468.5,-380.5 468.5,-410.5 589.5,-410.5 589.5,-380.5 468.5,-380.5"/>
<text text-anchor="start" x="476.5" y="-398.5" font-family="Helvetica,sans-Serif" font-size="10.00">include/plssvm/detail</text>
<text text-anchor="middle" x="529" y="-387.5" font-family="Helvetica,sans-Serif" font-size="10.00">/logger.hpp</text>
</a>
</g>
</g>
<!-- Node1&#45;&gt;Node17 -->
<g id="edge24" class="edge">
<title>Node1&#45;&gt;Node17</title>
<path fill="none" stroke="midnightblue" d="M557.68,-438.87C551.31,-429.46 544.12,-418.83 538.53,-410.58"/>
<polygon fill="midnightblue" stroke="midnightblue" points="554.95,-441.08 563.45,-447.4 560.75,-437.15 554.95,-441.08"/>
</g>
<!-- Node3 -->
<g id="node3" class="node">
<title>Node3</title>
<g id="a_node3"><a xlink:href="backends_2CUDA_2csvm_8hpp.html" target="_top" xlink:title="Defines a C&#45;SVM using the CUDA backend.">
<polygon fill="white" stroke="black" points="302.5,-0.5 302.5,-30.5 441.5,-30.5 441.5,-0.5 302.5,-0.5"/>
<text text-anchor="start" x="310.5" y="-18.5" font-family="Helvetica,sans-Serif" font-size="10.00">include/plssvm/backends</text>
<text text-anchor="middle" x="372" y="-7.5" font-family="Helvetica,sans-Serif" font-size="10.00">/CUDA/csvm.hpp</text>
</a>
</g>
</g>
<!-- Node2&#45;&gt;Node3 -->
<g id="edge2" class="edge">
<title>Node2&#45;&gt;Node3</title>
<path fill="none" stroke="midnightblue" d="M608.14,-65.38C556.49,-54.69 489.37,-40.8 439.9,-30.55"/>
<polygon fill="midnightblue" stroke="midnightblue" points="607.75,-68.88 618.25,-67.48 609.17,-62.02 607.75,-68.88"/>
</g>
<!-- Node4 -->
<g id="node4" class="node">
<title>Node4</title>
<g id="a_node4"><a xlink:href="backends_2HIP_2csvm_8hpp.html" target="_top" xlink:title="Defines a C&#45;SVM using the HIP backend.">
<polygon fill="white" stroke="black" points="459.5,-0.5 459.5,-30.5 598.5,-30.5 598.5,-0.5 459.5,-0.5"/>
<text text-anchor="start" x="467.5" y="-18.5" font-family="Helvetica,sans-Serif" font-size="10.00">include/plssvm/backends</text>
<text text-anchor="middle" x="529" y="-7.5" font-family="Helvetica,sans-Serif" font-size="10.00">/HIP/csvm.hpp</text>
</a>
</g>
</g>
<!-- Node2&#45;&gt;Node4 -->
<g id="edge3" class="edge">
<title>Node2&#45;&gt;Node4</title>
<path fill="none" stroke="midnightblue" d="M642.63,-63.54C617.51,-53.14 586.34,-40.24 563,-30.58"/>
<polygon fill="midnightblue" stroke="midnightblue" points="641.36,-66.8 651.93,-67.4 644.03,-60.34 641.36,-66.8"/>
</g>
<!-- Node5 -->
<g id="node5" class="node">
<title>Node5</title>
<g id="a_node5"><a xlink:href="backends_2OpenCL_2csvm_8hpp.html" target="_top" xlink:title="Defines a C&#45;SVM using the OpenCL backend.">
<polygon fill="white" stroke="black" points="616.5,-0.5 616.5,-30.5 755.5,-30.5 755.5,-0.5 616.5,-0.5"/>
<text text-anchor="start" x="624.5" y="-18.5" font-family="Helvetica,sans-Serif" font-size="10.00">include/plssvm/backends</text>
<text text-anchor="middle" x="686" y="-7.5" font-family="Helvetica,sans-Serif" font-size="10.00">/OpenCL/csvm.hpp</text>
</a>
</g>
</g>
<!-- Node2&#45;&gt;Node5 -->
<g id="edge4" class="edge">
<title>Node2&#45;&gt;Node5</title>
<path fill="none" stroke="midnightblue" d="M686,-57.11C686,-48.15 686,-38.32 686,-30.58"/>
<polygon fill="midnightblue" stroke="midnightblue" points="682.5,-57.4 686,-67.4 689.5,-57.4 682.5,-57.4"/>
</g>
<!-- Node6 -->
<g id="node6" class="node">
<title>Node6</title>
<g id="a_node6"><a xlink:href="backends_2SYCL_2hipSYCL_2csvm_8hpp.html" target="_top" xlink:title="Defines a base C&#45;SVM used for the different SYCL backends using hipSYCL as SYCL implementation.">
<polygon fill="white" stroke="black" points="773.5,-0.5 773.5,-30.5 912.5,-30.5 912.5,-0.5 773.5,-0.5"/>
<text text-anchor="start" x="781.5" y="-18.5" font-family="Helvetica,sans-Serif" font-size="10.00">include/plssvm/backends</text>
<text text-anchor="middle" x="843" y="-7.5" font-family="Helvetica,sans-Serif" font-size="10.00">/SYCL/hipSYCL/csvm.hpp</text>
</a>
</g>
</g>
<!-- Node2&#45;&gt;Node6 -->
<g id="edge5" class="edge">
<title>Node2&#45;&gt;Node6</title>
<path fill="none" stroke="midnightblue" d="M729.37,-63.54C754.49,-53.14 785.66,-40.24 809,-30.58"/>
<polygon fill="midnightblue" stroke="midnightblue" points="727.97,-60.34 720.07,-67.4 730.64,-66.8 727.97,-60.34"/>
</g>
<!-- Node7 -->
<g id="node7" class="node">
<title>Node7</title>
<g id="a_node7"><a xlink:href="backends_2SYCL_2DPCPP_2csvm_8hpp.html" target="_top" xlink:title="Defines a base C&#45;SVM used for the different SYCL backends using DPC++ as SYCL implementation.">
<polygon fill="white" stroke="black" points="930.5,-0.5 930.5,-30.5 1069.5,-30.5 1069.5,-0.5 930.5,-0.5"/>
<text text-anchor="start" x="938.5" y="-18.5" font-family="Helvetica,sans-Serif" font-size="10.00">include/plssvm/backends</text>
<text text-anchor="middle" x="1000" y="-7.5" font-family="Helvetica,sans-Serif" font-size="10.00">/SYCL/DPCPP/csvm.hpp</text>
</a>
</g>
</g>
<!-- Node2&#45;&gt;Node7 -->
<g id="edge6" class="edge">
<title>Node2&#45;&gt;Node7</title>
<path fill="none" stroke="midnightblue" d="M763.86,-65.38C815.51,-54.69 882.63,-40.8 932.1,-30.55"/>
<polygon fill="midnightblue" stroke="midnightblue" points="762.83,-62.02 753.75,-67.48 764.25,-68.88 762.83,-62.02"/>
</g>
<!-- Node8&#45;&gt;Node2 -->
<g id="edge8" class="edge">
<title>Node8&#45;&gt;Node2</title>
<path fill="none" stroke="midnightblue" d="M470.6,-132.23C513.58,-122.51 577.09,-108.14 624.02,-97.52"/>
<polygon fill="midnightblue" stroke="midnightblue" points="469.66,-128.85 460.68,-134.48 471.21,-135.68 469.66,-128.85"/>
</g>
<!-- Node9 -->
<g id="node9" class="node">
<title>Node9</title>
<g id="a_node9"><a xlink:href="backends_2OpenMP_2csvm_8hpp.html" target="_top" xlink:title="Defines a C&#45;SVM using the OpenMP backend.">
<polygon fill="white" stroke="black" points="211.5,-67.5 211.5,-97.5 350.5,-97.5 350.5,-67.5 211.5,-67.5"/>
<text text-anchor="start" x="219.5" y="-85.5" font-family="Helvetica,sans-Serif" font-size="10.00">include/plssvm/backends</text>
<text text-anchor="middle" x="281" y="-74.5" font-family="Helvetica,sans-Serif" font-size="10.00">/OpenMP/csvm.hpp</text>
</a>
</g>
</g>
<!-- Node8&#45;&gt;Node9 -->
<g id="edge9" class="edge">
<title>Node8&#45;&gt;Node9</title>
<path fill="none" stroke="midnightblue" d="M393.38,-130.59C370.36,-120.94 338.41,-107.56 314.47,-97.52"/>
<polygon fill="midnightblue" stroke="midnightblue" points="392.08,-133.84 402.65,-134.48 394.78,-127.38 392.08,-133.84"/>
</g>
<!-- Node10 -->
<g id="node10" class="node">
<title>Node10</title>
<g id="a_node10"><a xlink:href="core_8hpp.html" target="_top" xlink:title="Core header including all other necessary headers.">
<polygon fill="white" stroke="black" points="122.5,-6 122.5,-25 257.5,-25 257.5,-6 122.5,-6"/>
<text text-anchor="middle" x="190" y="-13" font-family="Helvetica,sans-Serif" font-size="10.00">include/plssvm/core.hpp</text>
</a>
</g>
</g>
<!-- Node8&#45;&gt;Node10 -->
<g id="edge10" class="edge">
<title>Node8&#45;&gt;Node10</title>
<path fill="none" stroke="midnightblue" d="M412.73,-125.71C401.58,-108.42 382.24,-82.25 359,-67 325.33,-44.91 281.66,-32.19 247.15,-25.04"/>
<polygon fill="midnightblue" stroke="midnightblue" points="409.8,-127.63 418.05,-134.28 415.75,-123.94 409.8,-127.63"/>
</g>
<!-- Node11 -->
<g id="node11" class="node">
<title>Node11</title>
<g id="a_node11"><a xlink:href="csvm__factory_8hpp.html" target="_top" xlink:title="Factory function for constructing a new C&#45;SVM based on the provided plssvm::backend_type and potentia...">
<polygon fill="white" stroke="black" points="407.5,-67.5 407.5,-97.5 526.5,-97.5 526.5,-67.5 407.5,-67.5"/>
<text text-anchor="start" x="415.5" y="-85.5" font-family="Helvetica,sans-Serif" font-size="10.00">include/plssvm/csvm</text>
<text text-anchor="middle" x="467" y="-74.5" font-family="Helvetica,sans-Serif" font-size="10.00">_factory.hpp</text>
</a>
</g>
</g>
<!-- Node8&#45;&gt;Node11 -->
<g id="edge11" class="edge">
<title>Node8&#45;&gt;Node11</title>
<path fill="none" stroke="midnightblue" d="M435.39,-126.25C442.09,-117.19 450.27,-106.12 456.63,-97.52"/>
<polygon fill="midnightblue" stroke="midnightblue" points="432.44,-124.35 429.3,-134.48 438.06,-128.52 432.44,-124.35"/>
</g>
<!-- Node11&#45;&gt;Node10 -->
<g id="edge12" class="edge">
<title>Node11&#45;&gt;Node10</title>
<path fill="none" stroke="midnightblue" d="M397.32,-65.15C342.96,-52.39 269.65,-35.19 226.35,-25.03"/>
<polygon fill="midnightblue" stroke="midnightblue" points="396.7,-68.6 407.24,-67.48 398.3,-61.78 396.7,-68.6"/>
</g>
<!-- Node12&#45;&gt;Node8 -->
<g id="edge15" class="edge">
<title>Node12&#45;&gt;Node8</title>
<path fill="none" stroke="midnightblue" d="M285.64,-302.94C287.72,-285.91 292.41,-263.27 303,-246 329.62,-202.59 381.38,-168.71 407.35,-153.6"/>
<polygon fill="midnightblue" stroke="midnightblue" points="282.13,-302.92 284.62,-313.22 289.09,-303.61 282.13,-302.92"/>
</g>
<!-- Node12&#45;&gt;Node10 -->
<g id="edge14" class="edge">
<title>Node12&#45;&gt;Node10</title>
<path fill="none" stroke="midnightblue" d="M216.19,-325.85C132.18,-319.79 0,-295.27 0,-201 0,-201 0,-201 0,-143 0,-72.66 91.34,-39.05 147.36,-25.05"/>
<polygon fill="midnightblue" stroke="midnightblue" points="215.98,-329.35 226.19,-326.51 216.43,-322.36 215.98,-329.35"/>
</g>
<!-- Node13 -->
<g id="node13" class="node">
<title>Node13</title>
<g id="a_node13"><a xlink:href="data__set__variants_8hpp.html" target="_top" xlink:title="Implements utility functions to create a data set based on runtime parameters.">
<polygon fill="white" stroke="black" points="104,-246.5 104,-276.5 256,-276.5 256,-246.5 104,-246.5"/>
<text text-anchor="start" x="112" y="-264.5" font-family="Helvetica,sans-Serif" font-size="10.00">include/plssvm/detail</text>
<text text-anchor="middle" x="180" y="-253.5" font-family="Helvetica,sans-Serif" font-size="10.00">/cmd/data_set_variants.hpp</text>
</a>
</g>
</g>
<!-- Node12&#45;&gt;Node13 -->
<g id="edge16" class="edge">
<title>Node12&#45;&gt;Node13</title>
<path fill="none" stroke="midnightblue" d="M252.82,-308.02C236.64,-297.9 217.23,-285.77 202.52,-276.58"/>
<polygon fill="midnightblue" stroke="midnightblue" points="251.1,-311.06 261.43,-313.4 254.81,-305.13 251.1,-311.06"/>
</g>
<!-- Node14 -->
<g id="node14" class="node">
<title>Node14</title>
<g id="a_node14"><a xlink:href="libsvm__model__parsing_8hpp.html" target="_top" xlink:title="Implements parsing functions for the LIBSVM model file.">
<polygon fill="white" stroke="black" points="312.5,-246.5 312.5,-276.5 475.5,-276.5 475.5,-246.5 312.5,-246.5"/>
<text text-anchor="start" x="320.5" y="-264.5" font-family="Helvetica,sans-Serif" font-size="10.00">include/plssvm/detail</text>
<text text-anchor="middle" x="394" y="-253.5" font-family="Helvetica,sans-Serif" font-size="10.00">/io/libsvm_model_parsing.hpp</text>
</a>
</g>
</g>
<!-- Node12&#45;&gt;Node14 -->
<g id="edge17" class="edge">
<title>Node12&#45;&gt;Node14</title>
<path fill="none" stroke="midnightblue" d="M316.5,-308.3C333.71,-298.12 354.48,-285.85 370.18,-276.58"/>
<polygon fill="midnightblue" stroke="midnightblue" points="314.7,-305.3 307.87,-313.4 318.26,-311.32 314.7,-305.3"/>
</g>
<!-- Node12&#45;&gt;Node15 -->
<g id="edge21" class="edge">
<title>Node12&#45;&gt;Node15</title>
<path fill="none" stroke="midnightblue" d="M216.38,-318.22C168.4,-310.08 109.97,-296.49 95,-277 86.61,-266.07 87.81,-257.75 95,-246 106.37,-227.41 128.12,-216.19 147.15,-209.6"/>
<polygon fill="midnightblue" stroke="midnightblue" points="216.01,-321.7 226.44,-319.87 217.14,-314.79 216.01,-321.7"/>
</g>
<!-- Node14&#45;&gt;Node15 -->
<g id="edge18" class="edge">
<title>Node14&#45;&gt;Node15</title>
<path fill="none" stroke="midnightblue" d="M334.46,-243.71C294.92,-232.56 244.67,-218.39 213.17,-209.51"/>
<polygon fill="midnightblue" stroke="midnightblue" points="333.69,-247.13 344.26,-246.47 335.59,-240.39 333.69,-247.13"/>
</g>
<!-- Node15&#45;&gt;Node8 -->
<g id="edge20" class="edge">
<title>Node15&#45;&gt;Node8</title>
<path fill="none" stroke="midnightblue" d="M230.92,-188.22C276.27,-178.01 343.44,-162.9 385.15,-153.52"/>
<polygon fill="midnightblue" stroke="midnightblue" points="230.02,-184.83 221.03,-190.44 231.55,-191.66 230.02,-184.83"/>
</g>
<!-- Node15&#45;&gt;Node10 -->
<g id="edge19" class="edge">
<title>Node15&#45;&gt;Node10</title>
<path fill="none" stroke="midnightblue" d="M183.74,-179.72C185.24,-140.56 188.6,-53.09 189.67,-25.21"/>
<polygon fill="midnightblue" stroke="midnightblue" points="180.22,-180.07 183.34,-190.2 187.22,-180.34 180.22,-180.07"/>
</g>
<!-- Node16&#45;&gt;Node2 -->
<g id="edge23" class="edge">
<title>Node16&#45;&gt;Node2</title>
<path fill="none" stroke="midnightblue" d="M704.92,-303.33C700.58,-252.92 690.69,-137.94 687.22,-97.71"/>
<polygon fill="midnightblue" stroke="midnightblue" points="701.44,-303.66 705.78,-313.33 708.41,-303.06 701.44,-303.66"/>
</g>
<!-- Node17&#45;&gt;Node2 -->
<g id="edge25" class="edge">
<title>Node17&#45;&gt;Node2</title>
<path fill="none" stroke="midnightblue" d="M540.81,-371.11C571.65,-310.01 653.96,-146.96 678.8,-97.75"/>
<polygon fill="midnightblue" stroke="midnightblue" points="537.54,-369.82 536.15,-380.33 543.78,-372.98 537.54,-369.82"/>
</g>
<!-- Node17&#45;&gt;Node8 -->
<g id="edge26" class="edge">
<title>Node17&#45;&gt;Node8</title>
<path fill="none" stroke="midnightblue" d="M530.94,-370.21C532.31,-339.45 531.01,-285.69 510,-246 489.32,-206.93 451.07,-169.94 432.98,-153.67"/>
<polygon fill="midnightblue" stroke="midnightblue" points="527.43,-370.24 530.35,-380.43 534.42,-370.65 527.43,-370.24"/>
</g>
<!-- Node17&#45;&gt;Node12 -->
<g id="edge27" class="edge">
<title>Node17&#45;&gt;Node12</title>
<path fill="none" stroke="midnightblue" d="M466.24,-377.85C426.3,-367.25 375.13,-353.68 337.19,-343.61"/>
<polygon fill="midnightblue" stroke="midnightblue" points="465.58,-381.29 476.14,-380.48 467.37,-374.53 465.58,-381.29"/>
</g>
<!-- Node17&#45;&gt;Node14 -->
<g id="edge28" class="edge">
<title>Node17&#45;&gt;Node14</title>
<path fill="none" stroke="midnightblue" d="M507.26,-373.25C479.44,-346.04 432.02,-299.68 408.34,-276.52"/>
<polygon fill="midnightblue" stroke="midnightblue" points="504.96,-375.89 514.55,-380.37 509.85,-370.88 504.96,-375.89"/>
</g>
<!-- Node17&#45;&gt;Node15 -->
<g id="edge30" class="edge">
<title>Node17&#45;&gt;Node15</title>
<path fill="none" stroke="midnightblue" d="M529.12,-370.21C527.86,-336.82 520.26,-277.33 484,-246 450.76,-217.29 333.75,-206.89 255.79,-203.13"/>
<polygon fill="midnightblue" stroke="midnightblue" points="525.62,-370.53 529.33,-380.46 532.62,-370.38 525.62,-370.53"/>
</g>
<!-- Node17&#45;&gt;Node16 -->
<g id="edge29" class="edge">
<title>Node17&#45;&gt;Node16</title>
<path fill="none" stroke="midnightblue" d="M577.05,-376.96C605.72,-366.48 641.64,-353.37 668.45,-343.58"/>
<polygon fill="midnightblue" stroke="midnightblue" points="575.82,-373.68 567.62,-380.4 578.22,-380.25 575.82,-373.68"/>
</g>
</g>
</svg>
