<?xml version="1.0" encoding="UTF-8" standalone="no"?>
<!DOCTYPE svg PUBLIC "-//W3C//DTD SVG 1.1//EN"
 "http://www.w3.org/Graphics/SVG/1.1/DTD/svg11.dtd">
<!-- Generated by graphviz version 2.43.0 (0)
 -->
<!-- Title: include/plssvm/detail/io/scaling_factors_parsing.hpp Pages: 1 -->
<svg width="1115pt" height="419pt"
 viewBox="0.00 0.00 1114.50 419.00" xmlns="http://www.w3.org/2000/svg" xmlns:xlink="http://www.w3.org/1999/xlink">
<g id="graph0" class="graph" transform="scale(1 1) rotate(0) translate(4 415)">
<title>include/plssvm/detail/io/scaling_factors_parsing.hpp</title>
<polygon fill="white" stroke="transparent" points="-4,4 -4,-415 1110.5,-415 1110.5,4 -4,4"/>
<!-- Node1 -->
<g id="node1" class="node">
<title>Node1</title>
<g id="a_node1"><a xlink:title="Implements parsing functions for the scaling factor file parsing.">
<polygon fill="#bfbfbf" stroke="black" points="733,-380.5 733,-410.5 900,-410.5 900,-380.5 733,-380.5"/>
<text text-anchor="start" x="741" y="-398.5" font-family="Helvetica,sans-Serif" font-size="10.00">include/plssvm/detail</text>
<text text-anchor="middle" x="816.5" y="-387.5" font-family="Helvetica,sans-Serif" font-size="10.00">/io/scaling_factors_parsing.hpp</text>
</a>
</g>
</g>
<!-- Node2 -->
<g id="node2" class="node">
<title>Node2</title>
<g id="a_node2"><a xlink:href="data__set_8hpp.html" target="_top" xlink:title="Implements a data set class encapsulating all data points, features, and potential labels.">
<polygon fill="white" stroke="black" points="759,-313.5 759,-343.5 874,-343.5 874,-313.5 759,-313.5"/>
<text text-anchor="start" x="767" y="-331.5" font-family="Helvetica,sans-Serif" font-size="10.00">include/plssvm/data</text>
<text text-anchor="middle" x="816.5" y="-320.5" font-family="Helvetica,sans-Serif" font-size="10.00">_set.hpp</text>
</a>
</g>
</g>
<!-- Node1&#45;&gt;Node2 -->
<g id="edge1" class="edge">
<title>Node1&#45;&gt;Node2</title>
<path fill="none" stroke="midnightblue" d="M816.5,-370.11C816.5,-361.15 816.5,-351.32 816.5,-343.58"/>
<polygon fill="midnightblue" stroke="midnightblue" points="813,-370.4 816.5,-380.4 820,-370.4 813,-370.4"/>
</g>
<!-- Node3 -->
<g id="node3" class="node">
<title>Node3</title>
<g id="a_node3"><a xlink:href="core_8hpp.html" target="_top" xlink:title="Core header including all other necessary headers.">
<polygon fill="white" stroke="black" points="785,-6 785,-25 920,-25 920,-6 785,-6"/>
<text text-anchor="middle" x="852.5" y="-13" font-family="Helvetica,sans-Serif" font-size="10.00">include/plssvm/core.hpp</text>
</a>
</g>
</g>
<!-- Node2&#45;&gt;Node3 -->
<g id="edge2" class="edge">
<title>Node2&#45;&gt;Node3</title>
<path fill="none" stroke="midnightblue" d="M866.69,-308.92C881.75,-301.13 897.02,-290.65 907.5,-277 928.7,-249.38 926.5,-235.82 926.5,-201 926.5,-201 926.5,-201 926.5,-143 926.5,-92.62 882.23,-44.5 862.17,-25.28"/>
<polygon fill="midnightblue" stroke="midnightblue" points="864.87,-305.91 857.39,-313.42 867.92,-312.21 864.87,-305.91"/>
</g>
<!-- Node4 -->
<g id="node4" class="node">
<title>Node4</title>
<g id="a_node4"><a xlink:href="csvm_8hpp.html" target="_top" xlink:title="Defines the base class for all C&#45;SVM backends and implements the functionality shared by all of them.">
<polygon fill="white" stroke="black" points="622.5,-134.5 622.5,-153.5 762.5,-153.5 762.5,-134.5 622.5,-134.5"/>
<text text-anchor="middle" x="692.5" y="-141.5" font-family="Helvetica,sans-Serif" font-size="10.00">include/plssvm/csvm.hpp</text>
</a>
</g>
</g>
<!-- Node2&#45;&gt;Node4 -->
<g id="edge3" class="edge">
<title>Node2&#45;&gt;Node4</title>
<path fill="none" stroke="midnightblue" d="M758.68,-309.31C742.83,-301.69 727.1,-291.2 716.5,-277 687.79,-238.56 689.74,-176.51 691.6,-153.74"/>
<polygon fill="midnightblue" stroke="midnightblue" points="757.44,-312.59 768,-313.47 760.3,-306.19 757.44,-312.59"/>
</g>
<!-- Node13 -->
<g id="node13" class="node">
<title>Node13</title>
<g id="a_node13"><a xlink:href="data__set__variants_8hpp.html" target="_top" xlink:title="Implements utility functions to create a data set based on runtime parameters.">
<polygon fill="white" stroke="black" points="954.5,-246.5 954.5,-276.5 1106.5,-276.5 1106.5,-246.5 954.5,-246.5"/>
<text text-anchor="start" x="962.5" y="-264.5" font-family="Helvetica,sans-Serif" font-size="10.00">include/plssvm/detail</text>
<text text-anchor="middle" x="1030.5" y="-253.5" font-family="Helvetica,sans-Serif" font-size="10.00">/cmd/data_set_variants.hpp</text>
</a>
</g>
</g>
<!-- Node2&#45;&gt;Node13 -->
<g id="edge14" class="edge">
<title>Node2&#45;&gt;Node13</title>
<path fill="none" stroke="midnightblue" d="M872.65,-310.44C907.34,-299.91 951.32,-286.55 984.04,-276.61"/>
<polygon fill="midnightblue" stroke="midnightblue" points="871.22,-307.22 862.67,-313.48 873.26,-313.92 871.22,-307.22"/>
</g>
<!-- Node14 -->
<g id="node14" class="node">
<title>Node14</title>
<g id="a_node14"><a xlink:href="libsvm__model__parsing_8hpp.html" target="_top" xlink:title="Implements parsing functions for the LIBSVM model file.">
<polygon fill="white" stroke="black" points="735,-246.5 735,-276.5 898,-276.5 898,-246.5 735,-246.5"/>
<text text-anchor="start" x="743" y="-264.5" font-family="Helvetica,sans-Serif" font-size="10.00">include/plssvm/detail</text>
<text text-anchor="middle" x="816.5" y="-253.5" font-family="Helvetica,sans-Serif" font-size="10.00">/io/libsvm_model_parsing.hpp</text>
</a>
</g>
</g>
<!-- Node2&#45;&gt;Node14 -->
<g id="edge15" class="edge">
<title>Node2&#45;&gt;Node14</title>
<path fill="none" stroke="midnightblue" d="M816.5,-303.11C816.5,-294.15 816.5,-284.32 816.5,-276.58"/>
<polygon fill="midnightblue" stroke="midnightblue" points="813,-303.4 816.5,-313.4 820,-303.4 813,-303.4"/>
</g>
<!-- Node15 -->
<g id="node15" class="node">
<title>Node15</title>
<g id="a_node15"><a xlink:href="model_8hpp.html" target="_top" xlink:title="Implements a model class encapsulating the results of a SVM fit call.">
<polygon fill="white" stroke="black" points="721,-190.5 721,-209.5 866,-209.5 866,-190.5 721,-190.5"/>
<text text-anchor="middle" x="793.5" y="-197.5" font-family="Helvetica,sans-Serif" font-size="10.00">include/plssvm/model.hpp</text>
</a>
</g>
</g>
<!-- Node2&#45;&gt;Node15 -->
<g id="edge19" class="edge">
<title>Node2&#45;&gt;Node15</title>
<path fill="none" stroke="midnightblue" d="M761.46,-308.86C747.27,-301.28 733.7,-290.92 725.5,-277 718.51,-265.13 718.98,-258.14 725.5,-246 734.88,-228.54 754.34,-216.72 770.05,-209.59"/>
<polygon fill="midnightblue" stroke="midnightblue" points="760.31,-312.2 770.83,-313.46 763.39,-305.91 760.31,-312.2"/>
</g>
<!-- Node4&#45;&gt;Node3 -->
<g id="edge11" class="edge">
<title>Node4&#45;&gt;Node3</title>
<path fill="none" stroke="midnightblue" d="M732.89,-131.17C753.15,-123.86 777.21,-112.98 795.5,-98 821.15,-77 840.39,-41.65 848.4,-25.3"/>
<polygon fill="midnightblue" stroke="midnightblue" points="731.61,-127.91 723.29,-134.47 733.89,-134.53 731.61,-127.91"/>
</g>
<!-- Node5 -->
<g id="node5" class="node">
<title>Node5</title>
<g id="a_node5"><a xlink:href="gpu__csvm_8hpp.html" target="_top" xlink:title="Defines the base class for all C&#45;SVM backends using a GPU. Used for code duplication reduction.">
<polygon fill="white" stroke="black" points="334,-67.5 334,-97.5 473,-97.5 473,-67.5 334,-67.5"/>
<text text-anchor="start" x="342" y="-85.5" font-family="Helvetica,sans-Serif" font-size="10.00">include/plssvm/backends</text>
<text text-anchor="middle" x="403.5" y="-74.5" font-family="Helvetica,sans-Serif" font-size="10.00">/gpu_csvm.hpp</text>
</a>
</g>
</g>
<!-- Node4&#45;&gt;Node5 -->
<g id="edge4" class="edge">
<title>Node4&#45;&gt;Node5</title>
<path fill="none" stroke="midnightblue" d="M641.08,-132.41C593.85,-122.69 523.51,-108.21 471.61,-97.52"/>
<polygon fill="midnightblue" stroke="midnightblue" points="640.59,-135.89 651.09,-134.48 642,-129.03 640.59,-135.89"/>
</g>
<!-- Node11 -->
<g id="node11" class="node">
<title>Node11</title>
<g id="a_node11"><a xlink:href="backends_2OpenMP_2csvm_8hpp.html" target="_top" xlink:title="Defines a C&#45;SVM using the OpenMP backend.">
<polygon fill="white" stroke="black" points="647,-67.5 647,-97.5 786,-97.5 786,-67.5 647,-67.5"/>
<text text-anchor="start" x="655" y="-85.5" font-family="Helvetica,sans-Serif" font-size="10.00">include/plssvm/backends</text>
<text text-anchor="middle" x="716.5" y="-74.5" font-family="Helvetica,sans-Serif" font-size="10.00">/OpenMP/csvm.hpp</text>
</a>
</g>
</g>
<!-- Node4&#45;&gt;Node11 -->
<g id="edge10" class="edge">
<title>Node4&#45;&gt;Node11</title>
<path fill="none" stroke="midnightblue" d="M699.72,-125.1C703.28,-116.27 707.52,-105.77 710.84,-97.52"/>
<polygon fill="midnightblue" stroke="midnightblue" points="696.43,-123.89 695.94,-134.48 702.93,-126.51 696.43,-123.89"/>
</g>
<!-- Node12 -->
<g id="node12" class="node">
<title>Node12</title>
<g id="a_node12"><a xlink:href="csvm__factory_8hpp.html" target="_top" xlink:title="Factory function for constructing a new C&#45;SVM based on the provided plssvm::backend_type and potentia...">
<polygon fill="white" stroke="black" points="510,-67.5 510,-97.5 629,-97.5 629,-67.5 510,-67.5"/>
<text text-anchor="start" x="518" y="-85.5" font-family="Helvetica,sans-Serif" font-size="10.00">include/plssvm/csvm</text>
<text text-anchor="middle" x="569.5" y="-74.5" font-family="Helvetica,sans-Serif" font-size="10.00">_factory.hpp</text>
</a>
</g>
</g>
<!-- Node4&#45;&gt;Node12 -->
<g id="edge12" class="edge">
<title>Node4&#45;&gt;Node12</title>
<path fill="none" stroke="midnightblue" d="M665.77,-130.07C645.92,-120.47 618.86,-107.38 598.49,-97.52"/>
<polygon fill="midnightblue" stroke="midnightblue" points="664.35,-133.27 674.88,-134.48 667.4,-126.97 664.35,-133.27"/>
</g>
<!-- Node6 -->
<g id="node6" class="node">
<title>Node6</title>
<g id="a_node6"><a xlink:href="backends_2CUDA_2csvm_8hpp.html" target="_top" xlink:title="Defines a C&#45;SVM using the CUDA backend.">
<polygon fill="white" stroke="black" points="0,-0.5 0,-30.5 139,-30.5 139,-0.5 0,-0.5"/>
<text text-anchor="start" x="8" y="-18.5" font-family="Helvetica,sans-Serif" font-size="10.00">include/plssvm/backends</text>
<text text-anchor="middle" x="69.5" y="-7.5" font-family="Helvetica,sans-Serif" font-size="10.00">/CUDA/csvm.hpp</text>
</a>
</g>
</g>
<!-- Node5&#45;&gt;Node6 -->
<g id="edge5" class="edge">
<title>Node5&#45;&gt;Node6</title>
<path fill="none" stroke="midnightblue" d="M323.96,-66.02C267.67,-55.07 192.92,-40.52 139.02,-30.03"/>
<polygon fill="midnightblue" stroke="midnightblue" points="323.4,-69.48 333.89,-67.95 324.74,-62.61 323.4,-69.48"/>
</g>
<!-- Node7 -->
<g id="node7" class="node">
<title>Node7</title>
<g id="a_node7"><a xlink:href="backends_2HIP_2csvm_8hpp.html" target="_top" xlink:title="Defines a C&#45;SVM using the HIP backend.">
<polygon fill="white" stroke="black" points="157,-0.5 157,-30.5 296,-30.5 296,-0.5 157,-0.5"/>
<text text-anchor="start" x="165" y="-18.5" font-family="Helvetica,sans-Serif" font-size="10.00">include/plssvm/backends</text>
<text text-anchor="middle" x="226.5" y="-7.5" font-family="Helvetica,sans-Serif" font-size="10.00">/HIP/csvm.hpp</text>
</a>
</g>
</g>
<!-- Node5&#45;&gt;Node7 -->
<g id="edge6" class="edge">
<title>Node5&#45;&gt;Node7</title>
<path fill="none" stroke="midnightblue" d="M355.35,-63.82C326.9,-53.37 291.37,-40.32 264.83,-30.58"/>
<polygon fill="midnightblue" stroke="midnightblue" points="354.5,-67.23 365.09,-67.4 356.91,-60.66 354.5,-67.23"/>
</g>
<!-- Node8 -->
<g id="node8" class="node">
<title>Node8</title>
<g id="a_node8"><a xlink:href="backends_2OpenCL_2csvm_8hpp.html" target="_top" xlink:title="Defines a C&#45;SVM using the OpenCL backend.">
<polygon fill="white" stroke="black" points="314,-0.5 314,-30.5 453,-30.5 453,-0.5 314,-0.5"/>
<text text-anchor="start" x="322" y="-18.5" font-family="Helvetica,sans-Serif" font-size="10.00">include/plssvm/backends</text>
<text text-anchor="middle" x="383.5" y="-7.5" font-family="Helvetica,sans-Serif" font-size="10.00">/OpenCL/csvm.hpp</text>
</a>
</g>
</g>
<!-- Node5&#45;&gt;Node8 -->
<g id="edge7" class="edge">
<title>Node5&#45;&gt;Node8</title>
<path fill="none" stroke="midnightblue" d="M396.18,-57.7C393.37,-48.59 390.27,-38.49 387.83,-30.58"/>
<polygon fill="midnightblue" stroke="midnightblue" points="392.87,-58.87 399.16,-67.4 399.56,-56.81 392.87,-58.87"/>
</g>
<!-- Node9 -->
<g id="node9" class="node">
<title>Node9</title>
<g id="a_node9"><a xlink:href="backends_2SYCL_2DPCPP_2csvm_8hpp.html" target="_top" xlink:title="Defines a base C&#45;SVM used for the different SYCL backends using DPC++ as SYCL implementation.">
<polygon fill="white" stroke="black" points="471,-0.5 471,-30.5 610,-30.5 610,-0.5 471,-0.5"/>
<text text-anchor="start" x="479" y="-18.5" font-family="Helvetica,sans-Serif" font-size="10.00">include/plssvm/backends</text>
<text text-anchor="middle" x="540.5" y="-7.5" font-family="Helvetica,sans-Serif" font-size="10.00">/SYCL/DPCPP/csvm.hpp</text>
</a>
</g>
</g>
<!-- Node5&#45;&gt;Node9 -->
<g id="edge8" class="edge">
<title>Node5&#45;&gt;Node9</title>
<path fill="none" stroke="midnightblue" d="M442.51,-62.99C464.22,-52.69 490.83,-40.07 510.83,-30.58"/>
<polygon fill="midnightblue" stroke="midnightblue" points="440.76,-59.95 433.23,-67.4 443.76,-66.27 440.76,-59.95"/>
</g>
<!-- Node10 -->
<g id="node10" class="node">
<title>Node10</title>
<g id="a_node10"><a xlink:href="backends_2SYCL_2hipSYCL_2csvm_8hpp.html" target="_top" xlink:title="Defines a base C&#45;SVM used for the different SYCL backends using hipSYCL as SYCL implementation.">
<polygon fill="white" stroke="black" points="628,-0.5 628,-30.5 767,-30.5 767,-0.5 628,-0.5"/>
<text text-anchor="start" x="636" y="-18.5" font-family="Helvetica,sans-Serif" font-size="10.00">include/plssvm/backends</text>
<text text-anchor="middle" x="697.5" y="-7.5" font-family="Helvetica,sans-Serif" font-size="10.00">/SYCL/hipSYCL/csvm.hpp</text>
</a>
</g>
</g>
<!-- Node5&#45;&gt;Node10 -->
<g id="edge9" class="edge">
<title>Node5&#45;&gt;Node10</title>
<path fill="none" stroke="midnightblue" d="M476.7,-65.32C525.02,-54.63 587.7,-40.77 633.93,-30.55"/>
<polygon fill="midnightblue" stroke="midnightblue" points="475.94,-61.9 466.93,-67.48 477.45,-68.73 475.94,-61.9"/>
</g>
<!-- Node12&#45;&gt;Node3 -->
<g id="edge13" class="edge">
<title>Node12&#45;&gt;Node3</title>
<path fill="none" stroke="midnightblue" d="M638.97,-65.54C694.68,-52.75 770.7,-35.29 815.4,-25.02"/>
<polygon fill="midnightblue" stroke="midnightblue" points="638.13,-62.14 629.17,-67.79 639.7,-68.97 638.13,-62.14"/>
</g>
<!-- Node14&#45;&gt;Node15 -->
<g id="edge16" class="edge">
<title>Node14&#45;&gt;Node15</title>
<path fill="none" stroke="midnightblue" d="M807.38,-236.9C803.67,-227.3 799.61,-216.81 796.85,-209.66"/>
<polygon fill="midnightblue" stroke="midnightblue" points="804.18,-238.33 811.05,-246.4 810.71,-235.81 804.18,-238.33"/>
</g>
<!-- Node15&#45;&gt;Node3 -->
<g id="edge17" class="edge">
<title>Node15&#45;&gt;Node3</title>
<path fill="none" stroke="midnightblue" d="M799.57,-180.22C812.15,-141.32 840.63,-53.21 849.68,-25.21"/>
<polygon fill="midnightblue" stroke="midnightblue" points="796.09,-179.61 796.35,-190.2 802.75,-181.76 796.09,-179.61"/>
</g>
<!-- Node15&#45;&gt;Node4 -->
<g id="edge18" class="edge">
<title>Node15&#45;&gt;Node4</title>
<path fill="none" stroke="midnightblue" d="M768.42,-185.59C749.74,-175.61 724.8,-162.27 708.69,-153.65"/>
<polygon fill="midnightblue" stroke="midnightblue" points="766.8,-188.7 777.27,-190.32 770.1,-182.52 766.8,-188.7"/>
</g>
</g>
</svg>
