<?xml version="1.0" encoding="UTF-8" standalone="no"?>
<!DOCTYPE svg PUBLIC "-//W3C//DTD SVG 1.1//EN"
 "http://www.w3.org/Graphics/SVG/1.1/DTD/svg11.dtd">
<!-- Generated by graphviz version 2.43.0 (0)
 -->
<!-- Title: include/plssvm/detail/string_utility.hpp Pages: 1 -->
<!--zoomable 553 -->
<svg id="main" version="1.1" xmlns="http://www.w3.org/2000/svg" xmlns:xlink="http://www.w3.org/1999/xlink" xml:space="preserve" onload="init(evt)">
<style type="text/css"><![CDATA[
.edge:hover path { stroke: red; }
.edge:hover polygon { stroke: red; fill: red; }
]]></style>
<script type="text/javascript"><![CDATA[
var edges = document.getElementsByTagName('g');
if (edges && edges.length) {
  for (var i=0;i<edges.length;i++) {
    if (edges[i].id.substr(0,4)=='edge') {
      edges[i].setAttribute('class','edge');
    }
  }
}
]]></script>
        <defs>
                <circle id="rim" cx="0" cy="0" r="7"/>
                <circle id="rim2" cx="0" cy="0" r="3.5"/>
                <g id="zoomPlus">
                        <use xlink:href="#rim" fill="#404040">
                                <set attributeName="fill" to="#808080" begin="zoomplus.mouseover" end="zoomplus.mouseout"/>
                        </use>
                        <path d="M-4,0h8M0,-4v8" fill="none" stroke="white" stroke-width="1.5" pointer-events="none"/>
                </g>
                <g id="zoomMin">
                        <use xlink:href="#rim" fill="#404040">
                                <set attributeName="fill" to="#808080" begin="zoomminus.mouseover" end="zoomminus.mouseout"/>
                        </use>
                        <path d="M-4,0h8" fill="none" stroke="white" stroke-width="1.5" pointer-events="none"/>
                </g>
                <g id="dirArrow">
                        <path fill="none" stroke="white" stroke-width="1.5" d="M0,-3.0v7 M-2.5,-0.5L0,-3.0L2.5,-0.5"/>
                </g>
               <g id="resetDef">
                       <use xlink:href="#rim2" fill="#404040">
                               <set attributeName="fill" to="#808080" begin="reset.mouseover" end="reset.mouseout"/>
                       </use>
               </g>
        </defs>

<script type="text/javascript">
var viewWidth = 1309;
var viewHeight = 553;
var sectionId = 'dynsection-0';
</script>
<script xlink:href="svgpan.js"/>
<svg id="graph" class="graph">
<g id="viewport">
<title>include/plssvm/detail/string_utility.hpp</title>
<polygon fill="white" stroke="transparent" points="-4,4 -4,-549 1305,-549 1305,4 -4,4"/>
<!-- Node1 -->
<g id="node1" class="node">
<title>Node1</title>
<g id="a_node1"><a xlink:title="Implements utility functions for string manipulation and querying.">
<polygon fill="#bfbfbf" stroke="black" points="268,-514.5 268,-544.5 389,-544.5 389,-514.5 268,-514.5"/>
<text text-anchor="start" x="276" y="-532.5" font-family="Helvetica,sans-Serif" font-size="10.00">include/plssvm/detail</text>
<text text-anchor="middle" x="328.5" y="-521.5" font-family="Helvetica,sans-Serif" font-size="10.00">/string_utility.hpp</text>
</a>
</g>
</g>
<!-- Node2 -->
<g id="node2" class="node">
<title>Node2</title>
<g id="a_node2"><a xlink:href="data__set_8hpp.html" target="_top" xlink:title="Implements a data set class encapsulating all data points, features, and potential labels.">
<polygon fill="white" stroke="black" points="310,-313.5 310,-343.5 425,-343.5 425,-313.5 310,-313.5"/>
<text text-anchor="start" x="318" y="-331.5" font-family="Helvetica,sans-Serif" font-size="10.00">include/plssvm/data</text>
<text text-anchor="middle" x="367.5" y="-320.5" font-family="Helvetica,sans-Serif" font-size="10.00">_set.hpp</text>
</a>
</g>
</g>
<!-- Node1&#45;&gt;Node2 -->
<g id="edge1" class="edge">
<title>Node1&#45;&gt;Node2</title>
<path fill="none" stroke="midnightblue" d="M363.47,-509.17C395.48,-489.28 440.76,-455.01 460.5,-411 466.14,-398.43 467.54,-391.84 460.5,-380 450.36,-362.95 432.22,-351.29 414.64,-343.52"/>
<polygon fill="midnightblue" stroke="midnightblue" points="361.58,-506.23 354.83,-514.4 365.2,-512.22 361.58,-506.23"/>
</g>
<!-- Node16 -->
<g id="node16" class="node">
<title>Node16</title>
<g id="a_node16"><a xlink:href="arff__parsing_8hpp.html" target="_top" xlink:title="Implements parsing functions for the ARFF file format.">
<polygon fill="white" stroke="black" points="145,-380.5 145,-410.5 266,-410.5 266,-380.5 145,-380.5"/>
<text text-anchor="start" x="153" y="-398.5" font-family="Helvetica,sans-Serif" font-size="10.00">include/plssvm/detail</text>
<text text-anchor="middle" x="205.5" y="-387.5" font-family="Helvetica,sans-Serif" font-size="10.00">/io/arff_parsing.hpp</text>
</a>
</g>
</g>
<!-- Node1&#45;&gt;Node16 -->
<g id="edge20" class="edge">
<title>Node1&#45;&gt;Node16</title>
<path fill="none" stroke="midnightblue" d="M318.45,-504.82C310.27,-487.45 297.48,-464.02 281.5,-447 267.62,-432.21 248.62,-419.59 233.09,-410.66"/>
<polygon fill="midnightblue" stroke="midnightblue" points="315.4,-506.58 322.72,-514.25 321.78,-503.69 315.4,-506.58"/>
</g>
<!-- Node17 -->
<g id="node17" class="node">
<title>Node17</title>
<g id="a_node17"><a xlink:href="scaling__factors__parsing_8hpp.html" target="_top" xlink:title="Implements parsing functions for the scaling factor file parsing.">
<polygon fill="white" stroke="black" points="284,-380.5 284,-410.5 451,-410.5 451,-380.5 284,-380.5"/>
<text text-anchor="start" x="292" y="-398.5" font-family="Helvetica,sans-Serif" font-size="10.00">include/plssvm/detail</text>
<text text-anchor="middle" x="367.5" y="-387.5" font-family="Helvetica,sans-Serif" font-size="10.00">/io/scaling_factors_parsing.hpp</text>
</a>
</g>
</g>
<!-- Node1&#45;&gt;Node17 -->
<g id="edge22" class="edge">
<title>Node1&#45;&gt;Node17</title>
<path fill="none" stroke="midnightblue" d="M335.52,-504.75C343.63,-477.29 356.72,-432.99 363.36,-410.52"/>
<polygon fill="midnightblue" stroke="midnightblue" points="332.15,-503.79 332.67,-514.37 338.86,-505.78 332.15,-503.79"/>
</g>
<!-- Node18 -->
<g id="node18" class="node">
<title>Node18</title>
<g id="a_node18"><a xlink:href="string__conversion_8hpp.html" target="_top" xlink:title="Implements a conversion function from a string to an arithmetic type.">
<polygon fill="white" stroke="black" points="146,-447.5 146,-477.5 273,-477.5 273,-447.5 146,-447.5"/>
<text text-anchor="start" x="154" y="-465.5" font-family="Helvetica,sans-Serif" font-size="10.00">include/plssvm/detail</text>
<text text-anchor="middle" x="209.5" y="-454.5" font-family="Helvetica,sans-Serif" font-size="10.00">/string_conversion.hpp</text>
</a>
</g>
</g>
<!-- Node1&#45;&gt;Node18 -->
<g id="edge24" class="edge">
<title>Node1&#45;&gt;Node18</title>
<path fill="none" stroke="midnightblue" d="M293.85,-509.57C275.13,-499.35 252.41,-486.94 235.27,-477.58"/>
<polygon fill="midnightblue" stroke="midnightblue" points="292.22,-512.67 302.68,-514.4 295.58,-506.53 292.22,-512.67"/>
</g>
<!-- Node3 -->
<g id="node3" class="node">
<title>Node3</title>
<g id="a_node3"><a xlink:href="core_8hpp.html" target="_top" xlink:title="Core header including all other necessary headers.">
<polygon fill="white" stroke="black" points="381,-6 381,-25 516,-25 516,-6 381,-6"/>
<text text-anchor="middle" x="448.5" y="-13" font-family="Helvetica,sans-Serif" font-size="10.00">include/plssvm/core.hpp</text>
</a>
</g>
</g>
<!-- Node2&#45;&gt;Node3 -->
<g id="edge2" class="edge">
<title>Node2&#45;&gt;Node3</title>
<path fill="none" stroke="midnightblue" d="M391.66,-306.51C415.53,-283.33 448.5,-243.59 448.5,-201 448.5,-201 448.5,-201 448.5,-143 448.5,-98.64 448.5,-45.52 448.5,-25.09"/>
<polygon fill="midnightblue" stroke="midnightblue" points="389.18,-304.05 384.28,-313.44 393.97,-309.15 389.18,-304.05"/>
</g>
<!-- Node4 -->
<g id="node4" class="node">
<title>Node4</title>
<g id="a_node4"><a xlink:href="csvm_8hpp.html" target="_top" xlink:title="Defines the base class for all C&#45;SVM backends and implements the functionality shared by all of them.">
<polygon fill="white" stroke="black" points="525.5,-134.5 525.5,-153.5 665.5,-153.5 665.5,-134.5 525.5,-134.5"/>
<text text-anchor="middle" x="595.5" y="-141.5" font-family="Helvetica,sans-Serif" font-size="10.00">include/plssvm/csvm.hpp</text>
</a>
</g>
</g>
<!-- Node2&#45;&gt;Node4 -->
<g id="edge3" class="edge">
<title>Node2&#45;&gt;Node4</title>
<path fill="none" stroke="midnightblue" d="M408.96,-308.78C426.21,-300.16 446.01,-289.15 462.5,-277 516.45,-237.24 569.69,-176 588.44,-153.59"/>
<polygon fill="midnightblue" stroke="midnightblue" points="407.13,-305.78 399.68,-313.31 410.2,-312.07 407.13,-305.78"/>
</g>
<!-- Node13 -->
<g id="node13" class="node">
<title>Node13</title>
<g id="a_node13"><a xlink:href="data__set__variants_8hpp.html" target="_top" xlink:title="Implements utility functions to create a data set based on runtime parameters.">
<polygon fill="white" stroke="black" points="48.5,-246.5 48.5,-276.5 200.5,-276.5 200.5,-246.5 48.5,-246.5"/>
<text text-anchor="start" x="56.5" y="-264.5" font-family="Helvetica,sans-Serif" font-size="10.00">include/plssvm/detail</text>
<text text-anchor="middle" x="124.5" y="-253.5" font-family="Helvetica,sans-Serif" font-size="10.00">/cmd/data_set_variants.hpp</text>
</a>
</g>
</g>
<!-- Node2&#45;&gt;Node13 -->
<g id="edge14" class="edge">
<title>Node2&#45;&gt;Node13</title>
<path fill="none" stroke="midnightblue" d="M305.25,-310.85C265.64,-300.25 214.89,-286.68 177.25,-276.61"/>
<polygon fill="midnightblue" stroke="midnightblue" points="304.51,-314.27 315.07,-313.48 306.32,-307.51 304.51,-314.27"/>
</g>
<!-- Node14 -->
<g id="node14" class="node">
<title>Node14</title>
<g id="a_node14"><a xlink:href="libsvm__model__parsing_8hpp.html" target="_top" xlink:title="Implements parsing functions for the LIBSVM model file.">
<polygon fill="white" stroke="black" points="219,-246.5 219,-276.5 382,-276.5 382,-246.5 219,-246.5"/>
<text text-anchor="start" x="227" y="-264.5" font-family="Helvetica,sans-Serif" font-size="10.00">include/plssvm/detail</text>
<text text-anchor="middle" x="300.5" y="-253.5" font-family="Helvetica,sans-Serif" font-size="10.00">/io/libsvm_model_parsing.hpp</text>
</a>
</g>
</g>
<!-- Node2&#45;&gt;Node14 -->
<g id="edge15" class="edge">
<title>Node2&#45;&gt;Node14</title>
<path fill="none" stroke="midnightblue" d="M345.66,-306.31C335.61,-296.56 323.96,-285.26 315.01,-276.58"/>
<polygon fill="midnightblue" stroke="midnightblue" points="343.35,-308.94 352.96,-313.4 348.22,-303.92 343.35,-308.94"/>
</g>
<!-- Node15 -->
<g id="node15" class="node">
<title>Node15</title>
<g id="a_node15"><a xlink:href="model_8hpp.html" target="_top" xlink:title="Implements a model class encapsulating the results of a SVM fit call.">
<polygon fill="white" stroke="black" points="275,-190.5 275,-209.5 420,-209.5 420,-190.5 275,-190.5"/>
<text text-anchor="middle" x="347.5" y="-197.5" font-family="Helvetica,sans-Serif" font-size="10.00">include/plssvm/model.hpp</text>
</a>
</g>
</g>
<!-- Node2&#45;&gt;Node15 -->
<g id="edge19" class="edge">
<title>Node2&#45;&gt;Node15</title>
<path fill="none" stroke="midnightblue" d="M382.54,-304.4C391.34,-287.85 399.32,-265.18 391.5,-246 385.23,-230.62 370.89,-217.64 360.28,-209.63"/>
<polygon fill="midnightblue" stroke="midnightblue" points="379.33,-302.95 377.37,-313.36 385.4,-306.44 379.33,-302.95"/>
</g>
<!-- Node4&#45;&gt;Node3 -->
<g id="edge11" class="edge">
<title>Node4&#45;&gt;Node3</title>
<path fill="none" stroke="midnightblue" d="M610.74,-126.62C624.02,-110.3 639.18,-85.13 625.5,-67 617.05,-55.81 537,-36.23 487.49,-25.02"/>
<polygon fill="midnightblue" stroke="midnightblue" points="608.02,-124.41 604.13,-134.27 613.31,-128.99 608.02,-124.41"/>
</g>
<!-- Node5 -->
<g id="node5" class="node">
<title>Node5</title>
<g id="a_node5"><a xlink:href="gpu__csvm_8hpp.html" target="_top" xlink:title="Defines the base class for all C&#45;SVM backends using a GPU. Used for code duplication reduction.">
<polygon fill="white" stroke="black" points="829,-67.5 829,-97.5 968,-97.5 968,-67.5 829,-67.5"/>
<text text-anchor="start" x="837" y="-85.5" font-family="Helvetica,sans-Serif" font-size="10.00">include/plssvm/backends</text>
<text text-anchor="middle" x="898.5" y="-74.5" font-family="Helvetica,sans-Serif" font-size="10.00">/gpu_csvm.hpp</text>
</a>
</g>
</g>
<!-- Node4&#45;&gt;Node5 -->
<g id="edge4" class="edge">
<title>Node4&#45;&gt;Node5</title>
<path fill="none" stroke="midnightblue" d="M648.89,-132.52C698.94,-122.69 774.08,-107.93 828.83,-97.18"/>
<polygon fill="midnightblue" stroke="midnightblue" points="648.05,-129.11 638.91,-134.48 649.4,-135.98 648.05,-129.11"/>
</g>
<!-- Node11 -->
<g id="node11" class="node">
<title>Node11</title>
<g id="a_node11"><a xlink:href="backends_2OpenMP_2csvm_8hpp.html" target="_top" xlink:title="Defines a C&#45;SVM using the OpenMP backend.">
<polygon fill="white" stroke="black" points="477,-67.5 477,-97.5 616,-97.5 616,-67.5 477,-67.5"/>
<text text-anchor="start" x="485" y="-85.5" font-family="Helvetica,sans-Serif" font-size="10.00">include/plssvm/backends</text>
<text text-anchor="middle" x="546.5" y="-74.5" font-family="Helvetica,sans-Serif" font-size="10.00">/OpenMP/csvm.hpp</text>
</a>
</g>
</g>
<!-- Node4&#45;&gt;Node11 -->
<g id="edge10" class="edge">
<title>Node4&#45;&gt;Node11</title>
<path fill="none" stroke="midnightblue" d="M581.94,-126.53C574.43,-117.42 565.21,-106.21 558.05,-97.52"/>
<polygon fill="midnightblue" stroke="midnightblue" points="579.42,-128.98 588.48,-134.48 584.82,-124.53 579.42,-128.98"/>
</g>
<!-- Node12 -->
<g id="node12" class="node">
<title>Node12</title>
<g id="a_node12"><a xlink:href="csvm__factory_8hpp.html" target="_top" xlink:title="Factory function for constructing a new C&#45;SVM based on the provided plssvm::backend_type and potentia...">
<polygon fill="white" stroke="black" points="673,-67.5 673,-97.5 792,-97.5 792,-67.5 673,-67.5"/>
<text text-anchor="start" x="681" y="-85.5" font-family="Helvetica,sans-Serif" font-size="10.00">include/plssvm/csvm</text>
<text text-anchor="middle" x="732.5" y="-74.5" font-family="Helvetica,sans-Serif" font-size="10.00">_factory.hpp</text>
</a>
</g>
</g>
<!-- Node4&#45;&gt;Node12 -->
<g id="edge12" class="edge">
<title>Node4&#45;&gt;Node12</title>
<path fill="none" stroke="midnightblue" d="M624.37,-130.46C646.56,-120.82 677.21,-107.51 700.21,-97.52"/>
<polygon fill="midnightblue" stroke="midnightblue" points="622.91,-127.28 615.13,-134.48 625.7,-133.7 622.91,-127.28"/>
</g>
<!-- Node6 -->
<g id="node6" class="node">
<title>Node6</title>
<g id="a_node6"><a xlink:href="backends_2CUDA_2csvm_8hpp.html" target="_top" xlink:title="Defines a C&#45;SVM using the CUDA backend.">
<polygon fill="white" stroke="black" points="1005,-0.5 1005,-30.5 1144,-30.5 1144,-0.5 1005,-0.5"/>
<text text-anchor="start" x="1013" y="-18.5" font-family="Helvetica,sans-Serif" font-size="10.00">include/plssvm/backends</text>
<text text-anchor="middle" x="1074.5" y="-7.5" font-family="Helvetica,sans-Serif" font-size="10.00">/CUDA/csvm.hpp</text>
</a>
</g>
</g>
<!-- Node5&#45;&gt;Node6 -->
<g id="edge5" class="edge">
<title>Node5&#45;&gt;Node6</title>
<path fill="none" stroke="midnightblue" d="M946.38,-63.82C974.67,-53.37 1009.99,-40.32 1036.39,-30.58"/>
<polygon fill="midnightblue" stroke="midnightblue" points="944.86,-60.65 936.69,-67.4 947.28,-67.21 944.86,-60.65"/>
</g>
<!-- Node7 -->
<g id="node7" class="node">
<title>Node7</title>
<g id="a_node7"><a xlink:href="backends_2HIP_2csvm_8hpp.html" target="_top" xlink:title="Defines a C&#45;SVM using the HIP backend.">
<polygon fill="white" stroke="black" points="1162,-0.5 1162,-30.5 1301,-30.5 1301,-0.5 1162,-0.5"/>
<text text-anchor="start" x="1170" y="-18.5" font-family="Helvetica,sans-Serif" font-size="10.00">include/plssvm/backends</text>
<text text-anchor="middle" x="1231.5" y="-7.5" font-family="Helvetica,sans-Serif" font-size="10.00">/HIP/csvm.hpp</text>
</a>
</g>
</g>
<!-- Node5&#45;&gt;Node7 -->
<g id="edge6" class="edge">
<title>Node5&#45;&gt;Node7</title>
<path fill="none" stroke="midnightblue" d="M978.18,-65.95C1034.11,-55.03 1108.19,-40.57 1161.78,-30.11"/>
<polygon fill="midnightblue" stroke="midnightblue" points="977.45,-62.52 968.31,-67.87 978.79,-69.39 977.45,-62.52"/>
</g>
<!-- Node8 -->
<g id="node8" class="node">
<title>Node8</title>
<g id="a_node8"><a xlink:href="backends_2OpenCL_2csvm_8hpp.html" target="_top" xlink:title="Defines a C&#45;SVM using the OpenCL backend.">
<polygon fill="white" stroke="black" points="534,-0.5 534,-30.5 673,-30.5 673,-0.5 534,-0.5"/>
<text text-anchor="start" x="542" y="-18.5" font-family="Helvetica,sans-Serif" font-size="10.00">include/plssvm/backends</text>
<text text-anchor="middle" x="603.5" y="-7.5" font-family="Helvetica,sans-Serif" font-size="10.00">/OpenCL/csvm.hpp</text>
</a>
</g>
</g>
<!-- Node5&#45;&gt;Node8 -->
<g id="edge7" class="edge">
<title>Node5&#45;&gt;Node8</title>
<path fill="none" stroke="midnightblue" d="M825.05,-65.32C776.56,-54.63 713.67,-40.77 667.29,-30.55"/>
<polygon fill="midnightblue" stroke="midnightblue" points="824.33,-68.74 834.85,-67.48 825.84,-61.91 824.33,-68.74"/>
</g>
<!-- Node9 -->
<g id="node9" class="node">
<title>Node9</title>
<g id="a_node9"><a xlink:href="backends_2SYCL_2DPCPP_2csvm_8hpp.html" target="_top" xlink:title="Defines a base C&#45;SVM used for the different SYCL backends using DPC++ as SYCL implementation.">
<polygon fill="white" stroke="black" points="691,-0.5 691,-30.5 830,-30.5 830,-0.5 691,-0.5"/>
<text text-anchor="start" x="699" y="-18.5" font-family="Helvetica,sans-Serif" font-size="10.00">include/plssvm/backends</text>
<text text-anchor="middle" x="760.5" y="-7.5" font-family="Helvetica,sans-Serif" font-size="10.00">/SYCL/DPCPP/csvm.hpp</text>
</a>
</g>
</g>
<!-- Node5&#45;&gt;Node9 -->
<g id="edge8" class="edge">
<title>Node5&#45;&gt;Node9</title>
<path fill="none" stroke="midnightblue" d="M859.5,-63.13C837.57,-52.8 810.63,-40.11 790.39,-30.58"/>
<polygon fill="midnightblue" stroke="midnightblue" points="858.02,-66.3 868.56,-67.4 861,-59.97 858.02,-66.3"/>
</g>
<!-- Node10 -->
<g id="node10" class="node">
<title>Node10</title>
<g id="a_node10"><a xlink:href="backends_2SYCL_2hipSYCL_2csvm_8hpp.html" target="_top" xlink:title="Defines a base C&#45;SVM used for the different SYCL backends using hipSYCL as SYCL implementation.">
<polygon fill="white" stroke="black" points="848,-0.5 848,-30.5 987,-30.5 987,-0.5 848,-0.5"/>
<text text-anchor="start" x="856" y="-18.5" font-family="Helvetica,sans-Serif" font-size="10.00">include/plssvm/backends</text>
<text text-anchor="middle" x="917.5" y="-7.5" font-family="Helvetica,sans-Serif" font-size="10.00">/SYCL/hipSYCL/csvm.hpp</text>
</a>
</g>
</g>
<!-- Node5&#45;&gt;Node10 -->
<g id="edge9" class="edge">
<title>Node5&#45;&gt;Node10</title>
<path fill="none" stroke="midnightblue" d="M905.46,-57.7C908.12,-48.59 911.07,-38.49 913.39,-30.58"/>
<polygon fill="midnightblue" stroke="midnightblue" points="902.07,-56.82 902.62,-67.4 908.79,-58.78 902.07,-56.82"/>
</g>
<!-- Node12&#45;&gt;Node3 -->
<g id="edge13" class="edge">
<title>Node12&#45;&gt;Node3</title>
<path fill="none" stroke="midnightblue" d="M663.13,-65.62C607.23,-52.83 530.79,-35.33 485.83,-25.04"/>
<polygon fill="midnightblue" stroke="midnightblue" points="662.44,-69.05 672.96,-67.87 664,-62.23 662.44,-69.05"/>
</g>
<!-- Node14&#45;&gt;Node15 -->
<g id="edge16" class="edge">
<title>Node14&#45;&gt;Node15</title>
<path fill="none" stroke="midnightblue" d="M317.95,-238.4C325.85,-228.41 334.72,-217.18 340.66,-209.66"/>
<polygon fill="midnightblue" stroke="midnightblue" points="315.09,-236.38 311.64,-246.4 320.58,-240.72 315.09,-236.38"/>
</g>
<!-- Node15&#45;&gt;Node3 -->
<g id="edge17" class="edge">
<title>Node15&#45;&gt;Node3</title>
<path fill="none" stroke="midnightblue" d="M357.34,-181.21C378.58,-142.83 428.05,-53.45 443.68,-25.21"/>
<polygon fill="midnightblue" stroke="midnightblue" points="354.15,-179.75 352.37,-190.2 360.28,-183.14 354.15,-179.75"/>
</g>
<!-- Node15&#45;&gt;Node4 -->
<g id="edge18" class="edge">
<title>Node15&#45;&gt;Node4</title>
<path fill="none" stroke="midnightblue" d="M396.73,-188.28C443.59,-178.08 513.2,-162.92 556.39,-153.52"/>
<polygon fill="midnightblue" stroke="midnightblue" points="395.82,-184.9 386.8,-190.44 397.31,-191.74 395.82,-184.9"/>
</g>
<!-- Node16&#45;&gt;Node2 -->
<g id="edge21" class="edge">
<title>Node16&#45;&gt;Node2</title>
<path fill="none" stroke="midnightblue" d="M250.25,-376.54C276.17,-366.14 308.34,-353.24 332.42,-343.58"/>
<polygon fill="midnightblue" stroke="midnightblue" points="248.63,-373.42 240.65,-380.4 251.24,-379.92 248.63,-373.42"/>
</g>
<!-- Node17&#45;&gt;Node2 -->
<g id="edge23" class="edge">
<title>Node17&#45;&gt;Node2</title>
<path fill="none" stroke="midnightblue" d="M367.5,-370.11C367.5,-361.15 367.5,-351.32 367.5,-343.58"/>
<polygon fill="midnightblue" stroke="midnightblue" points="364,-370.4 367.5,-380.4 371,-370.4 364,-370.4"/>
</g>
<!-- Node18&#45;&gt;Node16 -->
<g id="edge25" class="edge">
<title>Node18&#45;&gt;Node16</title>
<path fill="none" stroke="midnightblue" d="M208.02,-437.4C207.46,-428.37 206.85,-418.41 206.37,-410.58"/>
<polygon fill="midnightblue" stroke="midnightblue" points="204.52,-437.63 208.63,-447.4 211.51,-437.2 204.52,-437.63"/>
</g>
<!-- Node18&#45;&gt;Node17 -->
<g id="edge29" class="edge">
<title>Node18&#45;&gt;Node17</title>
<path fill="none" stroke="midnightblue" d="M253.15,-443.54C278.43,-433.14 309.8,-420.24 333.28,-410.58"/>
<polygon fill="midnightblue" stroke="midnightblue" points="251.7,-440.35 243.78,-447.4 254.36,-446.83 251.7,-440.35"/>
</g>
<!-- Node19 -->
<g id="node19" class="node">
<title>Node19</title>
<g id="a_node19"><a xlink:href="libsvm__parsing_8hpp.html" target="_top" xlink:title="Implements parsing functions for the LIBSVM file format.">
<polygon fill="white" stroke="black" points="0,-380.5 0,-410.5 127,-410.5 127,-380.5 0,-380.5"/>
<text text-anchor="start" x="8" y="-398.5" font-family="Helvetica,sans-Serif" font-size="10.00">include/plssvm/detail</text>
<text text-anchor="middle" x="63.5" y="-387.5" font-family="Helvetica,sans-Serif" font-size="10.00">/io/libsvm_parsing.hpp</text>
</a>
</g>
</g>
<!-- Node18&#45;&gt;Node19 -->
<g id="edge26" class="edge">
<title>Node18&#45;&gt;Node19</title>
<path fill="none" stroke="midnightblue" d="M168.55,-443.27C145.3,-432.92 116.63,-420.15 95.12,-410.58"/>
<polygon fill="midnightblue" stroke="midnightblue" points="167.26,-446.53 177.82,-447.4 170.11,-440.13 167.26,-446.53"/>
</g>
<!-- Node19&#45;&gt;Node2 -->
<g id="edge27" class="edge">
<title>Node19&#45;&gt;Node2</title>
<path fill="none" stroke="midnightblue" d="M137.25,-378.73C190.29,-367.39 260.81,-352.31 309.76,-341.85"/>
<polygon fill="midnightblue" stroke="midnightblue" points="136.28,-375.36 127.23,-380.87 137.74,-382.21 136.28,-375.36"/>
</g>
<!-- Node19&#45;&gt;Node15 -->
<g id="edge28" class="edge">
<title>Node19&#45;&gt;Node15</title>
<path fill="none" stroke="midnightblue" d="M49.6,-371.13C32.48,-338.98 9.16,-281.09 39.5,-246 69.32,-211.51 193.66,-202.93 274.95,-201.1"/>
<polygon fill="midnightblue" stroke="midnightblue" points="46.73,-373.19 54.65,-380.23 52.86,-369.79 46.73,-373.19"/>
</g>
</g>
</svg>
        <g id="navigator" transform="translate(0 0)" fill="#404254">
                <rect fill="#f2f5e9" fill-opacity="0.5" stroke="#606060" stroke-width=".5" x="0" y="0" width="60" height="60"/>
                <use id="zoomplus" xlink:href="#zoomPlus" x="17" y="9" onmousedown="handleZoom(evt,'in')"/>
                <use id="zoomminus" xlink:href="#zoomMin" x="42" y="9" onmousedown="handleZoom(evt,'out')"/>
                <use id="reset" xlink:href="#resetDef" x="30" y="36" onmousedown="handleReset()"/>
                <g id="arrowUp" xlink:href="#dirArrow" transform="translate(30 24)" onmousedown="handlePan(0,-1)">
                  <use xlink:href="#rim" fill="#404040">
                        <set attributeName="fill" to="#808080" begin="arrowUp.mouseover" end="arrowUp.mouseout"/>
                  </use>
                  <path fill="none" stroke="white" stroke-width="1.5" d="M0,-3.0v7 M-2.5,-0.5L0,-3.0L2.5,-0.5"/>
                </g>
                <g id="arrowRight" xlink:href="#dirArrow" transform="rotate(90) translate(36 -43)" onmousedown="handlePan(1,0)">
                  <use xlink:href="#rim" fill="#404040">
                        <set attributeName="fill" to="#808080" begin="arrowRight.mouseover" end="arrowRight.mouseout"/>
                  </use>
                  <path fill="none" stroke="white" stroke-width="1.5" d="M0,-3.0v7 M-2.5,-0.5L0,-3.0L2.5,-0.5"/>
                </g>
                <g id="arrowDown" xlink:href="#dirArrow" transform="rotate(180) translate(-30 -48)" onmousedown="handlePan(0,1)">
                  <use xlink:href="#rim" fill="#404040">
                        <set attributeName="fill" to="#808080" begin="arrowDown.mouseover" end="arrowDown.mouseout"/>
                  </use>
                  <path fill="none" stroke="white" stroke-width="1.5" d="M0,-3.0v7 M-2.5,-0.5L0,-3.0L2.5,-0.5"/>
                </g>
                <g id="arrowLeft" xlink:href="#dirArrow" transform="rotate(270) translate(-36 17)" onmousedown="handlePan(-1,0)">
                  <use xlink:href="#rim" fill="#404040">
                        <set attributeName="fill" to="#808080" begin="arrowLeft.mouseover" end="arrowLeft.mouseout"/>
                  </use>
                  <path fill="none" stroke="white" stroke-width="1.5" d="M0,-3.0v7 M-2.5,-0.5L0,-3.0L2.5,-0.5"/>
                </g>
        </g>
        <svg viewBox="0 0 15 15" width="100%" height="30px" preserveAspectRatio="xMaxYMin meet">
         <g id="arrow_out" transform="scale(0.3 0.3)">
          <a xlink:href="string__utility_8hpp__dep__incl_org.svg" target="_base">
           <rect id="button" ry="5" rx="5" y="6" x="6" height="38" width="38"
                fill="#f2f5e9" fill-opacity="0.5" stroke="#606060" stroke-width="1.0"/>
           <path id="arrow"
             d="M 11.500037,31.436501 C 11.940474,20.09759 22.043105,11.32322 32.158766,21.979434 L 37.068811,17.246167 C 37.068811,17.246167 37.088388,32 37.088388,32 L 22.160133,31.978069 C 22.160133,31.978069 26.997745,27.140456 26.997745,27.140456 C 18.528582,18.264221 13.291696,25.230495 11.500037,31.436501 z"
             style="fill:#404040;"/>
          </a>
         </g>
        </svg>
</svg>
