<?xml version="1.0" encoding="UTF-8" standalone="no"?>
<!DOCTYPE svg PUBLIC "-//W3C//DTD SVG 1.1//EN"
 "http://www.w3.org/Graphics/SVG/1.1/DTD/svg11.dtd">
<!-- Generated by graphviz version 2.43.0 (0)
 -->
<!-- Title: include/plssvm/detail/string_conversion.hpp Pages: 1 -->
<svg width="1281pt" height="486pt"
 viewBox="0.00 0.00 1280.76 486.00" xmlns="http://www.w3.org/2000/svg" xmlns:xlink="http://www.w3.org/1999/xlink">
<g id="graph0" class="graph" transform="scale(1 1) rotate(0) translate(4 482)">
<title>include/plssvm/detail/string_conversion.hpp</title>
<polygon fill="white" stroke="transparent" points="-4,4 -4,-482 1276.76,-482 1276.76,4 -4,4"/>
<!-- Node1 -->
<g id="node1" class="node">
<title>Node1</title>
<g id="a_node1"><a xlink:title="Implements a conversion function from a string to an arithmetic type.">
<polygon fill="#bfbfbf" stroke="black" points="206.76,-447.5 206.76,-477.5 333.76,-477.5 333.76,-447.5 206.76,-447.5"/>
<text text-anchor="start" x="214.76" y="-465.5" font-family="Helvetica,sans-Serif" font-size="10.00">include/plssvm/detail</text>
<text text-anchor="middle" x="270.26" y="-454.5" font-family="Helvetica,sans-Serif" font-size="10.00">/string_conversion.hpp</text>
</a>
</g>
</g>
<!-- Node2 -->
<g id="node2" class="node">
<title>Node2</title>
<g id="a_node2"><a xlink:href="arff__parsing_8hpp.html" target="_top" xlink:title="Implements parsing functions for the ARFF file format.">
<polygon fill="white" stroke="black" points="371.76,-380.5 371.76,-410.5 492.76,-410.5 492.76,-380.5 371.76,-380.5"/>
<text text-anchor="start" x="379.76" y="-398.5" font-family="Helvetica,sans-Serif" font-size="10.00">include/plssvm/detail</text>
<text text-anchor="middle" x="432.26" y="-387.5" font-family="Helvetica,sans-Serif" font-size="10.00">/io/arff_parsing.hpp</text>
</a>
</g>
</g>
<!-- Node1&#45;&gt;Node2 -->
<g id="edge1" class="edge">
<title>Node1&#45;&gt;Node2</title>
<path fill="none" stroke="midnightblue" d="M315.01,-443.54C340.93,-433.14 373.09,-420.24 397.17,-410.58"/>
<polygon fill="midnightblue" stroke="midnightblue" points="313.38,-440.42 305.41,-447.4 315.99,-446.92 313.38,-440.42"/>
</g>
<!-- Node17 -->
<g id="node17" class="node">
<title>Node17</title>
<g id="a_node17"><a xlink:href="libsvm__parsing_8hpp.html" target="_top" xlink:title="Implements parsing functions for the LIBSVM file format.">
<polygon fill="white" stroke="black" points="41.76,-380.5 41.76,-410.5 168.76,-410.5 168.76,-380.5 41.76,-380.5"/>
<text text-anchor="start" x="49.76" y="-398.5" font-family="Helvetica,sans-Serif" font-size="10.00">include/plssvm/detail</text>
<text text-anchor="middle" x="105.26" y="-387.5" font-family="Helvetica,sans-Serif" font-size="10.00">/io/libsvm_parsing.hpp</text>
</a>
</g>
</g>
<!-- Node1&#45;&gt;Node17 -->
<g id="edge21" class="edge">
<title>Node1&#45;&gt;Node17</title>
<path fill="none" stroke="midnightblue" d="M225.02,-443.68C198.56,-433.26 165.62,-420.28 140.99,-410.58"/>
<polygon fill="midnightblue" stroke="midnightblue" points="223.87,-446.99 234.45,-447.4 226.43,-440.47 223.87,-446.99"/>
</g>
<!-- Node18 -->
<g id="node18" class="node">
<title>Node18</title>
<g id="a_node18"><a xlink:href="scaling__factors__parsing_8hpp.html" target="_top" xlink:title="Implements parsing functions for the scaling factor file parsing.">
<polygon fill="white" stroke="black" points="186.76,-380.5 186.76,-410.5 353.76,-410.5 353.76,-380.5 186.76,-380.5"/>
<text text-anchor="start" x="194.76" y="-398.5" font-family="Helvetica,sans-Serif" font-size="10.00">include/plssvm/detail</text>
<text text-anchor="middle" x="270.26" y="-387.5" font-family="Helvetica,sans-Serif" font-size="10.00">/io/scaling_factors_parsing.hpp</text>
</a>
</g>
</g>
<!-- Node1&#45;&gt;Node18 -->
<g id="edge24" class="edge">
<title>Node1&#45;&gt;Node18</title>
<path fill="none" stroke="midnightblue" d="M270.26,-437.11C270.26,-428.15 270.26,-418.32 270.26,-410.58"/>
<polygon fill="midnightblue" stroke="midnightblue" points="266.76,-437.4 270.26,-447.4 273.76,-437.4 266.76,-437.4"/>
</g>
<!-- Node3 -->
<g id="node3" class="node">
<title>Node3</title>
<g id="a_node3"><a xlink:href="data__set_8hpp.html" target="_top" xlink:title="Implements a data set class encapsulating all data points, features, and potential labels.">
<polygon fill="white" stroke="black" points="269.76,-313.5 269.76,-343.5 384.76,-343.5 384.76,-313.5 269.76,-313.5"/>
<text text-anchor="start" x="277.76" y="-331.5" font-family="Helvetica,sans-Serif" font-size="10.00">include/plssvm/data</text>
<text text-anchor="middle" x="327.26" y="-320.5" font-family="Helvetica,sans-Serif" font-size="10.00">_set.hpp</text>
</a>
</g>
</g>
<!-- Node2&#45;&gt;Node3 -->
<g id="edge2" class="edge">
<title>Node2&#45;&gt;Node3</title>
<path fill="none" stroke="midnightblue" d="M400.78,-375.02C384.44,-364.9 364.84,-352.77 349.99,-343.58"/>
<polygon fill="midnightblue" stroke="midnightblue" points="399.13,-378.11 409.47,-380.4 402.81,-372.16 399.13,-378.11"/>
</g>
<!-- Node4 -->
<g id="node4" class="node">
<title>Node4</title>
<g id="a_node4"><a xlink:href="core_8hpp.html" target="_top" xlink:title="Core header including all other necessary headers.">
<polygon fill="white" stroke="black" points="352.76,-6 352.76,-25 487.76,-25 487.76,-6 352.76,-6"/>
<text text-anchor="middle" x="420.26" y="-13" font-family="Helvetica,sans-Serif" font-size="10.00">include/plssvm/core.hpp</text>
</a>
</g>
</g>
<!-- Node3&#45;&gt;Node4 -->
<g id="edge3" class="edge">
<title>Node3&#45;&gt;Node4</title>
<path fill="none" stroke="midnightblue" d="M355.55,-306.81C382.91,-284.19 420.26,-245.22 420.26,-201 420.26,-201 420.26,-201 420.26,-143 420.26,-98.64 420.26,-45.52 420.26,-25.09"/>
<polygon fill="midnightblue" stroke="midnightblue" points="353.06,-304.32 347.43,-313.29 357.43,-309.79 353.06,-304.32"/>
</g>
<!-- Node5 -->
<g id="node5" class="node">
<title>Node5</title>
<g id="a_node5"><a xlink:href="csvm_8hpp.html" target="_top" xlink:title="Defines the base class for all C&#45;SVM backends and implements the functionality shared by all of them.">
<polygon fill="white" stroke="black" points="497.26,-134.5 497.26,-153.5 637.26,-153.5 637.26,-134.5 497.26,-134.5"/>
<text text-anchor="middle" x="567.26" y="-141.5" font-family="Helvetica,sans-Serif" font-size="10.00">include/plssvm/csvm.hpp</text>
</a>
</g>
</g>
<!-- Node3&#45;&gt;Node5 -->
<g id="edge4" class="edge">
<title>Node3&#45;&gt;Node5</title>
<path fill="none" stroke="midnightblue" d="M374.14,-309.51C393.57,-301.03 415.82,-289.92 434.26,-277 489.13,-238.54 541.81,-176.5 560.3,-153.74"/>
<polygon fill="midnightblue" stroke="midnightblue" points="372.69,-306.33 364.86,-313.46 375.43,-312.77 372.69,-306.33"/>
</g>
<!-- Node14 -->
<g id="node14" class="node">
<title>Node14</title>
<g id="a_node14"><a xlink:href="data__set__variants_8hpp.html" target="_top" xlink:title="Implements utility functions to create a data set based on runtime parameters.">
<polygon fill="white" stroke="black" points="20.26,-246.5 20.26,-276.5 172.26,-276.5 172.26,-246.5 20.26,-246.5"/>
<text text-anchor="start" x="28.26" y="-264.5" font-family="Helvetica,sans-Serif" font-size="10.00">include/plssvm/detail</text>
<text text-anchor="middle" x="96.26" y="-253.5" font-family="Helvetica,sans-Serif" font-size="10.00">/cmd/data_set_variants.hpp</text>
</a>
</g>
</g>
<!-- Node3&#45;&gt;Node14 -->
<g id="edge15" class="edge">
<title>Node3&#45;&gt;Node14</title>
<path fill="none" stroke="midnightblue" d="M267.6,-310.71C230.01,-300.14 182.03,-286.63 146.4,-276.61"/>
<polygon fill="midnightblue" stroke="midnightblue" points="266.84,-314.14 277.42,-313.48 268.74,-307.4 266.84,-314.14"/>
</g>
<!-- Node15 -->
<g id="node15" class="node">
<title>Node15</title>
<g id="a_node15"><a xlink:href="libsvm__model__parsing_8hpp.html" target="_top" xlink:title="Implements parsing functions for the LIBSVM model file.">
<polygon fill="white" stroke="black" points="190.76,-246.5 190.76,-276.5 353.76,-276.5 353.76,-246.5 190.76,-246.5"/>
<text text-anchor="start" x="198.76" y="-264.5" font-family="Helvetica,sans-Serif" font-size="10.00">include/plssvm/detail</text>
<text text-anchor="middle" x="272.26" y="-253.5" font-family="Helvetica,sans-Serif" font-size="10.00">/io/libsvm_model_parsing.hpp</text>
</a>
</g>
</g>
<!-- Node3&#45;&gt;Node15 -->
<g id="edge16" class="edge">
<title>Node3&#45;&gt;Node15</title>
<path fill="none" stroke="midnightblue" d="M308.84,-305.74C300.7,-296.12 291.37,-285.09 284.17,-276.58"/>
<polygon fill="midnightblue" stroke="midnightblue" points="306.19,-308.02 315.32,-313.4 311.53,-303.5 306.19,-308.02"/>
</g>
<!-- Node16 -->
<g id="node16" class="node">
<title>Node16</title>
<g id="a_node16"><a xlink:href="model_8hpp.html" target="_top" xlink:title="Implements a model class encapsulating the results of a SVM fit call.">
<polygon fill="white" stroke="black" points="246.76,-190.5 246.76,-209.5 391.76,-209.5 391.76,-190.5 246.76,-190.5"/>
<text text-anchor="middle" x="319.26" y="-197.5" font-family="Helvetica,sans-Serif" font-size="10.00">include/plssvm/model.hpp</text>
</a>
</g>
</g>
<!-- Node3&#45;&gt;Node16 -->
<g id="edge20" class="edge">
<title>Node3&#45;&gt;Node16</title>
<path fill="none" stroke="midnightblue" d="M347.52,-305.38C353.83,-297.1 359.99,-287.2 363.26,-277 367.45,-263.88 368.46,-258.76 363.26,-246 356.99,-230.62 342.65,-217.64 332.04,-209.63"/>
<polygon fill="midnightblue" stroke="midnightblue" points="344.6,-303.42 340.99,-313.39 350.03,-307.85 344.6,-303.42"/>
</g>
<!-- Node5&#45;&gt;Node4 -->
<g id="edge12" class="edge">
<title>Node5&#45;&gt;Node4</title>
<path fill="none" stroke="midnightblue" d="M582.49,-126.62C595.77,-110.3 610.93,-85.13 597.26,-67 588.81,-55.81 508.76,-36.23 459.25,-25.02"/>
<polygon fill="midnightblue" stroke="midnightblue" points="579.78,-124.41 575.88,-134.27 585.07,-128.99 579.78,-124.41"/>
</g>
<!-- Node6 -->
<g id="node6" class="node">
<title>Node6</title>
<g id="a_node6"><a xlink:href="gpu__csvm_8hpp.html" target="_top" xlink:title="Defines the base class for all C&#45;SVM backends using a GPU. Used for code duplication reduction.">
<polygon fill="white" stroke="black" points="800.76,-67.5 800.76,-97.5 939.76,-97.5 939.76,-67.5 800.76,-67.5"/>
<text text-anchor="start" x="808.76" y="-85.5" font-family="Helvetica,sans-Serif" font-size="10.00">include/plssvm/backends</text>
<text text-anchor="middle" x="870.26" y="-74.5" font-family="Helvetica,sans-Serif" font-size="10.00">/gpu_csvm.hpp</text>
</a>
</g>
</g>
<!-- Node5&#45;&gt;Node6 -->
<g id="edge5" class="edge">
<title>Node5&#45;&gt;Node6</title>
<path fill="none" stroke="midnightblue" d="M620.64,-132.52C670.7,-122.69 745.83,-107.93 800.59,-97.18"/>
<polygon fill="midnightblue" stroke="midnightblue" points="619.81,-129.11 610.67,-134.48 621.15,-135.98 619.81,-129.11"/>
</g>
<!-- Node12 -->
<g id="node12" class="node">
<title>Node12</title>
<g id="a_node12"><a xlink:href="backends_2OpenMP_2csvm_8hpp.html" target="_top" xlink:title="Defines a C&#45;SVM using the OpenMP backend.">
<polygon fill="white" stroke="black" points="448.76,-67.5 448.76,-97.5 587.76,-97.5 587.76,-67.5 448.76,-67.5"/>
<text text-anchor="start" x="456.76" y="-85.5" font-family="Helvetica,sans-Serif" font-size="10.00">include/plssvm/backends</text>
<text text-anchor="middle" x="518.26" y="-74.5" font-family="Helvetica,sans-Serif" font-size="10.00">/OpenMP/csvm.hpp</text>
</a>
</g>
</g>
<!-- Node5&#45;&gt;Node12 -->
<g id="edge11" class="edge">
<title>Node5&#45;&gt;Node12</title>
<path fill="none" stroke="midnightblue" d="M553.69,-126.53C546.19,-117.42 536.96,-106.21 529.8,-97.52"/>
<polygon fill="midnightblue" stroke="midnightblue" points="551.18,-128.98 560.23,-134.48 556.58,-124.53 551.18,-128.98"/>
</g>
<!-- Node13 -->
<g id="node13" class="node">
<title>Node13</title>
<g id="a_node13"><a xlink:href="csvm__factory_8hpp.html" target="_top" xlink:title="Factory function for constructing a new C&#45;SVM based on the provided plssvm::backend_type and potentia...">
<polygon fill="white" stroke="black" points="644.76,-67.5 644.76,-97.5 763.76,-97.5 763.76,-67.5 644.76,-67.5"/>
<text text-anchor="start" x="652.76" y="-85.5" font-family="Helvetica,sans-Serif" font-size="10.00">include/plssvm/csvm</text>
<text text-anchor="middle" x="704.26" y="-74.5" font-family="Helvetica,sans-Serif" font-size="10.00">_factory.hpp</text>
</a>
</g>
</g>
<!-- Node5&#45;&gt;Node13 -->
<g id="edge13" class="edge">
<title>Node5&#45;&gt;Node13</title>
<path fill="none" stroke="midnightblue" d="M596.13,-130.46C618.32,-120.82 648.97,-107.51 671.97,-97.52"/>
<polygon fill="midnightblue" stroke="midnightblue" points="594.66,-127.28 586.88,-134.48 597.45,-133.7 594.66,-127.28"/>
</g>
<!-- Node7 -->
<g id="node7" class="node">
<title>Node7</title>
<g id="a_node7"><a xlink:href="backends_2CUDA_2csvm_8hpp.html" target="_top" xlink:title="Defines a C&#45;SVM using the CUDA backend.">
<polygon fill="white" stroke="black" points="976.76,-0.5 976.76,-30.5 1115.76,-30.5 1115.76,-0.5 976.76,-0.5"/>
<text text-anchor="start" x="984.76" y="-18.5" font-family="Helvetica,sans-Serif" font-size="10.00">include/plssvm/backends</text>
<text text-anchor="middle" x="1046.26" y="-7.5" font-family="Helvetica,sans-Serif" font-size="10.00">/CUDA/csvm.hpp</text>
</a>
</g>
</g>
<!-- Node6&#45;&gt;Node7 -->
<g id="edge6" class="edge">
<title>Node6&#45;&gt;Node7</title>
<path fill="none" stroke="midnightblue" d="M918.13,-63.82C946.42,-53.37 981.75,-40.32 1008.14,-30.58"/>
<polygon fill="midnightblue" stroke="midnightblue" points="916.61,-60.65 908.44,-67.4 919.04,-67.21 916.61,-60.65"/>
</g>
<!-- Node8 -->
<g id="node8" class="node">
<title>Node8</title>
<g id="a_node8"><a xlink:href="backends_2HIP_2csvm_8hpp.html" target="_top" xlink:title="Defines a C&#45;SVM using the HIP backend.">
<polygon fill="white" stroke="black" points="1133.76,-0.5 1133.76,-30.5 1272.76,-30.5 1272.76,-0.5 1133.76,-0.5"/>
<text text-anchor="start" x="1141.76" y="-18.5" font-family="Helvetica,sans-Serif" font-size="10.00">include/plssvm/backends</text>
<text text-anchor="middle" x="1203.26" y="-7.5" font-family="Helvetica,sans-Serif" font-size="10.00">/HIP/csvm.hpp</text>
</a>
</g>
</g>
<!-- Node6&#45;&gt;Node8 -->
<g id="edge7" class="edge">
<title>Node6&#45;&gt;Node8</title>
<path fill="none" stroke="midnightblue" d="M949.93,-65.95C1005.87,-55.03 1079.95,-40.57 1133.54,-30.11"/>
<polygon fill="midnightblue" stroke="midnightblue" points="949.21,-62.52 940.06,-67.87 950.55,-69.39 949.21,-62.52"/>
</g>
<!-- Node9 -->
<g id="node9" class="node">
<title>Node9</title>
<g id="a_node9"><a xlink:href="backends_2OpenCL_2csvm_8hpp.html" target="_top" xlink:title="Defines a C&#45;SVM using the OpenCL backend.">
<polygon fill="white" stroke="black" points="505.76,-0.5 505.76,-30.5 644.76,-30.5 644.76,-0.5 505.76,-0.5"/>
<text text-anchor="start" x="513.76" y="-18.5" font-family="Helvetica,sans-Serif" font-size="10.00">include/plssvm/backends</text>
<text text-anchor="middle" x="575.26" y="-7.5" font-family="Helvetica,sans-Serif" font-size="10.00">/OpenCL/csvm.hpp</text>
</a>
</g>
</g>
<!-- Node6&#45;&gt;Node9 -->
<g id="edge8" class="edge">
<title>Node6&#45;&gt;Node9</title>
<path fill="none" stroke="midnightblue" d="M796.8,-65.32C748.32,-54.63 685.43,-40.77 639.04,-30.55"/>
<polygon fill="midnightblue" stroke="midnightblue" points="796.09,-68.74 806.61,-67.48 797.6,-61.91 796.09,-68.74"/>
</g>
<!-- Node10 -->
<g id="node10" class="node">
<title>Node10</title>
<g id="a_node10"><a xlink:href="backends_2SYCL_2hipSYCL_2csvm_8hpp.html" target="_top" xlink:title="Defines a base C&#45;SVM used for the different SYCL backends using hipSYCL as SYCL implementation.">
<polygon fill="white" stroke="black" points="662.76,-0.5 662.76,-30.5 801.76,-30.5 801.76,-0.5 662.76,-0.5"/>
<text text-anchor="start" x="670.76" y="-18.5" font-family="Helvetica,sans-Serif" font-size="10.00">include/plssvm/backends</text>
<text text-anchor="middle" x="732.26" y="-7.5" font-family="Helvetica,sans-Serif" font-size="10.00">/SYCL/hipSYCL/csvm.hpp</text>
</a>
</g>
</g>
<!-- Node6&#45;&gt;Node10 -->
<g id="edge9" class="edge">
<title>Node6&#45;&gt;Node10</title>
<path fill="none" stroke="midnightblue" d="M831.26,-63.13C809.33,-52.8 782.38,-40.11 762.14,-30.58"/>
<polygon fill="midnightblue" stroke="midnightblue" points="829.77,-66.3 840.31,-67.4 832.76,-59.97 829.77,-66.3"/>
</g>
<!-- Node11 -->
<g id="node11" class="node">
<title>Node11</title>
<g id="a_node11"><a xlink:href="backends_2SYCL_2DPCPP_2csvm_8hpp.html" target="_top" xlink:title="Defines a base C&#45;SVM used for the different SYCL backends using DPC++ as SYCL implementation.">
<polygon fill="white" stroke="black" points="819.76,-0.5 819.76,-30.5 958.76,-30.5 958.76,-0.5 819.76,-0.5"/>
<text text-anchor="start" x="827.76" y="-18.5" font-family="Helvetica,sans-Serif" font-size="10.00">include/plssvm/backends</text>
<text text-anchor="middle" x="889.26" y="-7.5" font-family="Helvetica,sans-Serif" font-size="10.00">/SYCL/DPCPP/csvm.hpp</text>
</a>
</g>
</g>
<!-- Node6&#45;&gt;Node11 -->
<g id="edge10" class="edge">
<title>Node6&#45;&gt;Node11</title>
<path fill="none" stroke="midnightblue" d="M877.21,-57.7C879.88,-48.59 882.83,-38.49 885.14,-30.58"/>
<polygon fill="midnightblue" stroke="midnightblue" points="873.82,-56.82 874.38,-67.4 880.54,-58.78 873.82,-56.82"/>
</g>
<!-- Node13&#45;&gt;Node4 -->
<g id="edge14" class="edge">
<title>Node13&#45;&gt;Node4</title>
<path fill="none" stroke="midnightblue" d="M634.88,-65.62C578.99,-52.83 502.54,-35.33 457.58,-25.04"/>
<polygon fill="midnightblue" stroke="midnightblue" points="634.19,-69.05 644.72,-67.87 635.75,-62.23 634.19,-69.05"/>
</g>
<!-- Node15&#45;&gt;Node16 -->
<g id="edge17" class="edge">
<title>Node15&#45;&gt;Node16</title>
<path fill="none" stroke="midnightblue" d="M289.71,-238.4C297.6,-228.41 306.47,-217.18 312.42,-209.66"/>
<polygon fill="midnightblue" stroke="midnightblue" points="286.85,-236.38 283.39,-246.4 292.34,-240.72 286.85,-236.38"/>
</g>
<!-- Node16&#45;&gt;Node4 -->
<g id="edge18" class="edge">
<title>Node16&#45;&gt;Node4</title>
<path fill="none" stroke="midnightblue" d="M329.1,-181.21C350.34,-142.83 399.8,-53.45 415.43,-25.21"/>
<polygon fill="midnightblue" stroke="midnightblue" points="325.91,-179.75 324.13,-190.2 332.03,-183.14 325.91,-179.75"/>
</g>
<!-- Node16&#45;&gt;Node5 -->
<g id="edge19" class="edge">
<title>Node16&#45;&gt;Node5</title>
<path fill="none" stroke="midnightblue" d="M368.48,-188.28C415.35,-178.08 484.95,-162.92 528.14,-153.52"/>
<polygon fill="midnightblue" stroke="midnightblue" points="367.58,-184.9 358.55,-190.44 369.07,-191.74 367.58,-184.9"/>
</g>
<!-- Node17&#45;&gt;Node3 -->
<g id="edge22" class="edge">
<title>Node17&#45;&gt;Node3</title>
<path fill="none" stroke="midnightblue" d="M163.04,-377.58C199.1,-367.02 244.97,-353.59 279.06,-343.61"/>
<polygon fill="midnightblue" stroke="midnightblue" points="161.77,-374.31 153.15,-380.48 163.73,-381.02 161.77,-374.31"/>
</g>
<!-- Node17&#45;&gt;Node16 -->
<g id="edge23" class="edge">
<title>Node17&#45;&gt;Node16</title>
<path fill="none" stroke="midnightblue" d="M76.06,-374.17C36.64,-344.31 -24.74,-287.63 11.26,-246 41.08,-211.51 165.41,-202.93 246.7,-201.1"/>
<polygon fill="midnightblue" stroke="midnightblue" points="74.45,-377.34 84.57,-380.47 78.61,-371.71 74.45,-377.34"/>
</g>
<!-- Node18&#45;&gt;Node3 -->
<g id="edge25" class="edge">
<title>Node18&#45;&gt;Node3</title>
<path fill="none" stroke="midnightblue" d="M289.34,-372.74C297.77,-363.12 307.45,-352.09 314.91,-343.58"/>
<polygon fill="midnightblue" stroke="midnightblue" points="286.59,-370.57 282.62,-380.4 291.85,-375.18 286.59,-370.57"/>
</g>
</g>
</svg>
