<?xml version="1.0" encoding="UTF-8" standalone="no"?>
<!DOCTYPE svg PUBLIC "-//W3C//DTD SVG 1.1//EN"
 "http://www.w3.org/Graphics/SVG/1.1/DTD/svg11.dtd">
<!-- Generated by graphviz version 2.43.0 (0)
 -->
<!-- Title: plssvm::detail::is_unordered_set&lt; std::unordered_set&lt; T &gt; &gt; Pages: 1 -->
<svg width="140pt" height="106pt"
 viewBox="0.00 0.00 140.00 106.00" xmlns="http://www.w3.org/2000/svg" xmlns:xlink="http://www.w3.org/1999/xlink">
<g id="graph0" class="graph" transform="scale(1 1) rotate(0) translate(4 102)">
<title>plssvm::detail::is_unordered_set&lt; std::unordered_set&lt; T &gt; &gt;</title>
<polygon fill="white" stroke="transparent" points="-4,4 -4,-102 136,-102 136,4 -4,4"/>
<!-- Node1 -->
<g id="node1" class="node">
<title>Node1</title>
<g id="a_node1"><a xlink:title="Type trait to check whether T is a std::unordered_set.">
<polygon fill="#bfbfbf" stroke="black" points="0,-0.5 0,-41.5 132,-41.5 132,-0.5 0,-0.5"/>
<text text-anchor="start" x="8" y="-29.5" font-family="Helvetica,sans-Serif" font-size="10.00">plssvm::detail::is</text>
<text text-anchor="start" x="8" y="-18.5" font-family="Helvetica,sans-Serif" font-size="10.00">_unordered_set&lt; std</text>
<text text-anchor="middle" x="66" y="-7.5" font-family="Helvetica,sans-Serif" font-size="10.00">::unordered_set&lt; T &gt; &gt;</text>
</a>
</g>
</g>
<!-- Node2 -->
<g id="node2" class="node">
<title>Node2</title>
<g id="a_node2"><a xlink:title=" ">
<polygon fill="white" stroke="#bfbfbf" points="24,-78.5 24,-97.5 108,-97.5 108,-78.5 24,-78.5"/>
<text text-anchor="middle" x="66" y="-85.5" font-family="Helvetica,sans-Serif" font-size="10.00">std::true_type</text>
</a>
</g>
</g>
<!-- Node2&#45;&gt;Node1 -->
<g id="edge1" class="edge">
<title>Node2&#45;&gt;Node1</title>
<path fill="none" stroke="midnightblue" d="M66,-68.04C66,-59.71 66,-49.94 66,-41.54"/>
<polygon fill="midnightblue" stroke="midnightblue" points="62.5,-68.23 66,-78.23 69.5,-68.23 62.5,-68.23"/>
</g>
</g>
</svg>
