<?xml version="1.0" encoding="UTF-8" standalone="no"?>
<!DOCTYPE svg PUBLIC "-//W3C//DTD SVG 1.1//EN"
 "http://www.w3.org/Graphics/SVG/1.1/DTD/svg11.dtd">
<!-- Generated by graphviz version 2.43.0 (0)
 -->
<!-- Title: plssvm::detail::parameter&lt; T &gt; Pages: 1 -->
<svg width="417pt" height="144pt"
 viewBox="0.00 0.00 417.00 144.00" xmlns="http://www.w3.org/2000/svg" xmlns:xlink="http://www.w3.org/1999/xlink">
<g id="graph0" class="graph" transform="scale(1 1) rotate(0) translate(4 140)">
<title>plssvm::detail::parameter&lt; T &gt;</title>
<polygon fill="white" stroke="transparent" points="-4,4 -4,-140 413,-140 413,4 -4,4"/>
<!-- Node1 -->
<g id="node1" class="node">
<title>Node1</title>
<g id="a_node1"><a xlink:title="Class for encapsulating all important C&#45;SVM parameters.">
<polygon fill="#bfbfbf" stroke="black" points="238,-62 238,-81 409,-81 409,-62 238,-62"/>
<text text-anchor="middle" x="323.5" y="-69" font-family="Helvetica,sans-Serif" font-size="10.00">plssvm::detail::parameter&lt; T &gt;</text>
</a>
</g>
</g>
<!-- Node2 -->
<g id="node2" class="node">
<title>Node2</title>
<g id="a_node2"><a xlink:href="classplssvm_1_1default__value.html" target="_top" xlink:title=" ">
<polygon fill="white" stroke="black" points="0,-105.5 0,-135.5 141,-135.5 141,-105.5 0,-105.5"/>
<text text-anchor="start" x="8" y="-123.5" font-family="Helvetica,sans-Serif" font-size="10.00">plssvm::default_value</text>
<text text-anchor="middle" x="70.5" y="-112.5" font-family="Helvetica,sans-Serif" font-size="10.00">&lt; kernel_function_type &gt;</text>
</a>
</g>
</g>
<!-- Node2&#45;&gt;Node1 -->
<g id="edge1" class="edge">
<title>Node2&#45;&gt;Node1</title>
<path fill="none" stroke="#9a32cd" stroke-dasharray="5,2" d="M151.13,-104.96C191.29,-97.12 238.72,-87.86 273.49,-81.07"/>
<polygon fill="#9a32cd" stroke="#9a32cd" points="150.23,-101.56 141.08,-106.92 151.57,-108.43 150.23,-101.56"/>
<text text-anchor="middle" x="189.5" y="-105.5" font-family="Helvetica,sans-Serif" font-size="10.00"> kernel_type</text>
</g>
<!-- Node3 -->
<g id="node3" class="node">
<title>Node3</title>
<g id="a_node3"><a xlink:href="classplssvm_1_1default__value.html" target="_top" xlink:title=" ">
<polygon fill="white" stroke="black" points="8,-56.5 8,-86.5 133,-86.5 133,-56.5 8,-56.5"/>
<text text-anchor="start" x="16" y="-74.5" font-family="Helvetica,sans-Serif" font-size="10.00">plssvm::default_value</text>
<text text-anchor="middle" x="70.5" y="-63.5" font-family="Helvetica,sans-Serif" font-size="10.00">&lt; int &gt;</text>
</a>
</g>
</g>
<!-- Node3&#45;&gt;Node1 -->
<g id="edge2" class="edge">
<title>Node3&#45;&gt;Node1</title>
<path fill="none" stroke="#9a32cd" stroke-dasharray="5,2" d="M143.42,-71.5C172.85,-71.5 207.13,-71.5 237.77,-71.5"/>
<polygon fill="#9a32cd" stroke="#9a32cd" points="143.22,-68 133.22,-71.5 143.22,-75 143.22,-68"/>
<text text-anchor="middle" x="189.5" y="-74.5" font-family="Helvetica,sans-Serif" font-size="10.00"> degree</text>
</g>
<!-- Node4 -->
<g id="node4" class="node">
<title>Node4</title>
<g id="a_node4"><a xlink:href="classplssvm_1_1default__value.html" target="_top" xlink:title=" ">
<polygon fill="white" stroke="black" points="8,-0.5 8,-30.5 133,-30.5 133,-0.5 8,-0.5"/>
<text text-anchor="start" x="16" y="-18.5" font-family="Helvetica,sans-Serif" font-size="10.00">plssvm::default_value</text>
<text text-anchor="middle" x="70.5" y="-7.5" font-family="Helvetica,sans-Serif" font-size="10.00">&lt; real_type &gt;</text>
</a>
</g>
</g>
<!-- Node4&#45;&gt;Node1 -->
<g id="edge3" class="edge">
<title>Node4&#45;&gt;Node1</title>
<path fill="none" stroke="#9a32cd" stroke-dasharray="5,2" d="M143.08,-21.45C167.68,-24.34 195.24,-28.52 220,-34.5 248.51,-41.38 280.07,-53.49 300.54,-61.98"/>
<polygon fill="#9a32cd" stroke="#9a32cd" points="143.43,-17.97 133.1,-20.33 142.65,-24.92 143.43,-17.97"/>
<text text-anchor="middle" x="189.5" y="-59.5" font-family="Helvetica,sans-Serif" font-size="10.00"> coef0</text>
<text text-anchor="middle" x="189.5" y="-48.5" font-family="Helvetica,sans-Serif" font-size="10.00">cost</text>
<text text-anchor="middle" x="189.5" y="-37.5" font-family="Helvetica,sans-Serif" font-size="10.00">gamma</text>
</g>
</g>
</svg>
