<?xml version="1.0" encoding="UTF-8" standalone="no"?>
<!DOCTYPE svg PUBLIC "-//W3C//DTD SVG 1.1//EN"
 "http://www.w3.org/Graphics/SVG/1.1/DTD/svg11.dtd">
<!-- Generated by graphviz version 2.43.0 (0)
 -->
<!-- Title: plssvm::detail::is_tracking_entry&lt; T &gt; Pages: 1 -->
<svg width="129pt" height="184pt"
 viewBox="0.00 0.00 129.00 184.00" xmlns="http://www.w3.org/2000/svg" xmlns:xlink="http://www.w3.org/1999/xlink">
<g id="graph0" class="graph" transform="scale(1 1) rotate(0) translate(4 180)">
<title>plssvm::detail::is_tracking_entry&lt; T &gt;</title>
<polygon fill="white" stroke="transparent" points="-4,4 -4,-180 125,-180 125,4 -4,4"/>
<!-- Node1 -->
<g id="node1" class="node">
<title>Node1</title>
<g id="a_node1"><a xlink:title="Check whether T is a tracking entry. Ignores all top&#45;level const, volatile, and reference qualifiers.">
<polygon fill="#bfbfbf" stroke="black" points="0,-0.5 0,-30.5 121,-30.5 121,-0.5 0,-0.5"/>
<text text-anchor="start" x="8" y="-18.5" font-family="Helvetica,sans-Serif" font-size="10.00">plssvm::detail::is</text>
<text text-anchor="middle" x="60.5" y="-7.5" font-family="Helvetica,sans-Serif" font-size="10.00">_tracking_entry&lt; T &gt;</text>
</a>
</g>
</g>
<!-- Node2 -->
<g id="node2" class="node">
<title>Node2</title>
<g id="a_node2"><a xlink:href="structplssvm_1_1detail_1_1impl_1_1is__tracking__entry.html" target="_top" xlink:title=" ">
<polygon fill="white" stroke="black" points="0,-67.5 0,-119.5 121,-119.5 121,-67.5 0,-67.5"/>
<text text-anchor="start" x="8" y="-107.5" font-family="Helvetica,sans-Serif" font-size="10.00">plssvm::detail::impl</text>
<text text-anchor="start" x="8" y="-96.5" font-family="Helvetica,sans-Serif" font-size="10.00">::is_tracking_entry&lt;</text>
<text text-anchor="start" x="8" y="-85.5" font-family="Helvetica,sans-Serif" font-size="10.00"> detail::remove_cvref</text>
<text text-anchor="middle" x="60.5" y="-74.5" font-family="Helvetica,sans-Serif" font-size="10.00">_t&lt; T &gt; &gt;</text>
</a>
</g>
</g>
<!-- Node2&#45;&gt;Node1 -->
<g id="edge1" class="edge">
<title>Node2&#45;&gt;Node1</title>
<path fill="none" stroke="midnightblue" d="M60.5,-56.96C60.5,-47.72 60.5,-38.28 60.5,-30.85"/>
<polygon fill="midnightblue" stroke="midnightblue" points="57,-57.19 60.5,-67.19 64,-57.19 57,-57.19"/>
</g>
<!-- Node3 -->
<g id="node3" class="node">
<title>Node3</title>
<g id="a_node3"><a xlink:title=" ">
<polygon fill="white" stroke="#bfbfbf" points="16,-156.5 16,-175.5 105,-175.5 105,-156.5 16,-156.5"/>
<text text-anchor="middle" x="60.5" y="-163.5" font-family="Helvetica,sans-Serif" font-size="10.00">std::false_type</text>
</a>
</g>
</g>
<!-- Node3&#45;&gt;Node2 -->
<g id="edge2" class="edge">
<title>Node3&#45;&gt;Node2</title>
<path fill="none" stroke="midnightblue" d="M60.5,-146.1C60.5,-137.96 60.5,-128.33 60.5,-119.6"/>
<polygon fill="midnightblue" stroke="midnightblue" points="57,-146.36 60.5,-156.36 64,-146.36 57,-146.36"/>
</g>
</g>
</svg>
