<?xml version="1.0" encoding="UTF-8" standalone="no"?>
<!DOCTYPE svg PUBLIC "-//W3C//DTD SVG 1.1//EN"
 "http://www.w3.org/Graphics/SVG/1.1/DTD/svg11.dtd">
<!-- Generated by graphviz version 2.43.0 (0)
 -->
<!-- Title: include/plssvm/target_platforms.hpp Pages: 1 -->
<!--zoomable 687 -->
<svg id="main" version="1.1" xmlns="http://www.w3.org/2000/svg" xmlns:xlink="http://www.w3.org/1999/xlink" xml:space="preserve" onload="init(evt)">
<style type="text/css"><![CDATA[
.edge:hover path { stroke: red; }
.edge:hover polygon { stroke: red; fill: red; }
]]></style>
<script type="text/javascript"><![CDATA[
var edges = document.getElementsByTagName('g');
if (edges && edges.length) {
  for (var i=0;i<edges.length;i++) {
    if (edges[i].id.substr(0,4)=='edge') {
      edges[i].setAttribute('class','edge');
    }
  }
}
]]></script>
        <defs>
                <circle id="rim" cx="0" cy="0" r="7"/>
                <circle id="rim2" cx="0" cy="0" r="3.5"/>
                <g id="zoomPlus">
                        <use xlink:href="#rim" fill="#404040">
                                <set attributeName="fill" to="#808080" begin="zoomplus.mouseover" end="zoomplus.mouseout"/>
                        </use>
                        <path d="M-4,0h8M0,-4v8" fill="none" stroke="white" stroke-width="1.5" pointer-events="none"/>
                </g>
                <g id="zoomMin">
                        <use xlink:href="#rim" fill="#404040">
                                <set attributeName="fill" to="#808080" begin="zoomminus.mouseover" end="zoomminus.mouseout"/>
                        </use>
                        <path d="M-4,0h8" fill="none" stroke="white" stroke-width="1.5" pointer-events="none"/>
                </g>
                <g id="dirArrow">
                        <path fill="none" stroke="white" stroke-width="1.5" d="M0,-3.0v7 M-2.5,-0.5L0,-3.0L2.5,-0.5"/>
                </g>
               <g id="resetDef">
                       <use xlink:href="#rim2" fill="#404040">
                               <set attributeName="fill" to="#808080" begin="reset.mouseover" end="reset.mouseout"/>
                       </use>
               </g>
        </defs>

<script type="text/javascript">
var viewWidth = 1676;
var viewHeight = 687;
var sectionId = 'dynsection-0';
</script>
<script xlink:href="svgpan.js"/>
<svg id="graph" class="graph">
<g id="viewport">
<title>include/plssvm/target_platforms.hpp</title>
<polygon fill="white" stroke="transparent" points="-4,4 -4,-683 1672,-683 1672,4 -4,4"/>
<!-- Node1 -->
<g id="node1" class="node">
<title>Node1</title>
<g id="a_node1"><a xlink:title="Defines an enumeration holding all possible target platforms. Can also include targets not available ...">
<polygon fill="#bfbfbf" stroke="black" points="944,-648.5 944,-678.5 1066,-678.5 1066,-648.5 944,-648.5"/>
<text text-anchor="start" x="952" y="-666.5" font-family="Helvetica,sans-Serif" font-size="10.00">include/plssvm/target</text>
<text text-anchor="middle" x="1005" y="-655.5" font-family="Helvetica,sans-Serif" font-size="10.00">_platforms.hpp</text>
</a>
</g>
</g>
<!-- Node2 -->
<g id="node2" class="node">
<title>Node2</title>
<g id="a_node2"><a xlink:href="backend__types_8hpp.html" target="_top" xlink:title="Defines an enumeration holding all possible backends. Can also include backends not available on the ...">
<polygon fill="white" stroke="black" points="378,-581.5 378,-611.5 512,-611.5 512,-581.5 378,-581.5"/>
<text text-anchor="start" x="386" y="-599.5" font-family="Helvetica,sans-Serif" font-size="10.00">include/plssvm/backend</text>
<text text-anchor="middle" x="445" y="-588.5" font-family="Helvetica,sans-Serif" font-size="10.00">_types.hpp</text>
</a>
</g>
</g>
<!-- Node1&#45;&gt;Node2 -->
<g id="edge1" class="edge">
<title>Node1&#45;&gt;Node2</title>
<path fill="none" stroke="midnightblue" d="M933.51,-654.2C824.63,-641.56 618.71,-617.66 512.35,-605.32"/>
<polygon fill="midnightblue" stroke="midnightblue" points="933.4,-657.71 943.74,-655.39 934.21,-650.76 933.4,-657.71"/>
</g>
<!-- Node3 -->
<g id="node3" class="node">
<title>Node3</title>
<g id="a_node3"><a xlink:href="core_8hpp.html" target="_top" xlink:title="Core header including all other necessary headers.">
<polygon fill="white" stroke="black" points="273.5,-6 273.5,-25 408.5,-25 408.5,-6 273.5,-6"/>
<text text-anchor="middle" x="341" y="-13" font-family="Helvetica,sans-Serif" font-size="10.00">include/plssvm/core.hpp</text>
</a>
</g>
</g>
<!-- Node1&#45;&gt;Node3 -->
<g id="edge50" class="edge">
<title>Node1&#45;&gt;Node3</title>
<path fill="none" stroke="midnightblue" d="M933.39,-660.63C703.65,-653.69 0,-624.74 0,-530.5 0,-530.5 0,-530.5 0,-143 0,-103.28 14.08,-89.21 47,-67 83.06,-42.67 198.41,-28.52 273.45,-21.67"/>
<polygon fill="midnightblue" stroke="midnightblue" points="933.55,-664.14 943.65,-660.93 933.75,-657.14 933.55,-664.14"/>
</g>
<!-- Node5 -->
<g id="node5" class="node">
<title>Node5</title>
<g id="a_node5"><a xlink:href="parser__predict_8hpp.html" target="_top" xlink:title="Implements a class encapsulating all necessary parameters for predicting using the C&#45;SVM possibly pro...">
<polygon fill="white" stroke="black" points="378,-514.5 378,-544.5 512,-544.5 512,-514.5 378,-514.5"/>
<text text-anchor="start" x="386" y="-532.5" font-family="Helvetica,sans-Serif" font-size="10.00">include/plssvm/detail</text>
<text text-anchor="middle" x="445" y="-521.5" font-family="Helvetica,sans-Serif" font-size="10.00">/cmd/parser_predict.hpp</text>
</a>
</g>
</g>
<!-- Node1&#45;&gt;Node5 -->
<g id="edge52" class="edge">
<title>Node1&#45;&gt;Node5</title>
<path fill="none" stroke="midnightblue" d="M933.94,-649.01C884.46,-639.36 817.03,-625.71 758,-612 664.88,-590.37 557.18,-561.47 495.48,-544.53"/>
<polygon fill="midnightblue" stroke="midnightblue" points="933.42,-652.47 943.9,-650.94 934.75,-645.6 933.42,-652.47"/>
</g>
<!-- Node9 -->
<g id="node9" class="node">
<title>Node9</title>
<g id="a_node9"><a xlink:href="backends_2CUDA_2csvm_8hpp.html" target="_top" xlink:title="Defines a C&#45;SVM using the CUDA backend.">
<polygon fill="white" stroke="black" points="580.5,-0.5 580.5,-30.5 719.5,-30.5 719.5,-0.5 580.5,-0.5"/>
<text text-anchor="start" x="588.5" y="-18.5" font-family="Helvetica,sans-Serif" font-size="10.00">include/plssvm/backends</text>
<text text-anchor="middle" x="650" y="-7.5" font-family="Helvetica,sans-Serif" font-size="10.00">/CUDA/csvm.hpp</text>
</a>
</g>
</g>
<!-- Node1&#45;&gt;Node9 -->
<g id="edge41" class="edge">
<title>Node1&#45;&gt;Node9</title>
<path fill="none" stroke="midnightblue" d="M979.19,-641.38C970.23,-633 960.75,-622.78 954,-612 861.89,-464.93 914.74,-390.07 818,-246 769.52,-173.8 738,-170.52 690,-98 675.3,-75.79 662.58,-47.38 655.63,-30.64"/>
<polygon fill="midnightblue" stroke="midnightblue" points="977.06,-644.17 986.84,-648.24 981.73,-638.96 977.06,-644.17"/>
</g>
<!-- Node10 -->
<g id="node10" class="node">
<title>Node10</title>
<g id="a_node10"><a xlink:href="backends_2HIP_2csvm_8hpp.html" target="_top" xlink:title="Defines a C&#45;SVM using the HIP backend.">
<polygon fill="white" stroke="black" points="737.5,-0.5 737.5,-30.5 876.5,-30.5 876.5,-0.5 737.5,-0.5"/>
<text text-anchor="start" x="745.5" y="-18.5" font-family="Helvetica,sans-Serif" font-size="10.00">include/plssvm/backends</text>
<text text-anchor="middle" x="807" y="-7.5" font-family="Helvetica,sans-Serif" font-size="10.00">/HIP/csvm.hpp</text>
</a>
</g>
</g>
<!-- Node1&#45;&gt;Node10 -->
<g id="edge42" class="edge">
<title>Node1&#45;&gt;Node10</title>
<path fill="none" stroke="midnightblue" d="M999.44,-638.49C993.83,-612.15 986,-568.55 986,-530.5 986,-530.5 986,-530.5 986,-461.5 986,-371.46 1024,-352.54 1024,-262.5 1024,-262.5 1024,-262.5 1024,-143 1024,-108.07 1028.78,-91.62 1004,-67 994.61,-57.67 928.59,-41.93 875.52,-30.5"/>
<polygon fill="midnightblue" stroke="midnightblue" points="996.04,-639.32 1001.6,-648.34 1002.87,-637.82 996.04,-639.32"/>
</g>
<!-- Node11 -->
<g id="node11" class="node">
<title>Node11</title>
<g id="a_node11"><a xlink:href="backends_2OpenCL_2csvm_8hpp.html" target="_top" xlink:title="Defines a C&#45;SVM using the OpenCL backend.">
<polygon fill="white" stroke="black" points="894.5,-0.5 894.5,-30.5 1033.5,-30.5 1033.5,-0.5 894.5,-0.5"/>
<text text-anchor="start" x="902.5" y="-18.5" font-family="Helvetica,sans-Serif" font-size="10.00">include/plssvm/backends</text>
<text text-anchor="middle" x="964" y="-7.5" font-family="Helvetica,sans-Serif" font-size="10.00">/OpenCL/csvm.hpp</text>
</a>
</g>
</g>
<!-- Node1&#45;&gt;Node11 -->
<g id="edge43" class="edge">
<title>Node1&#45;&gt;Node11</title>
<path fill="none" stroke="midnightblue" d="M1021.56,-639.83C1038.39,-614.5 1062,-571.63 1062,-530.5 1062,-530.5 1062,-530.5 1062,-143 1062,-107.58 1059.12,-95.43 1038,-67 1026.5,-51.52 1008.78,-39.19 993.56,-30.58"/>
<polygon fill="midnightblue" stroke="midnightblue" points="1018.5,-638.1 1015.72,-648.33 1024.27,-642.06 1018.5,-638.1"/>
</g>
<!-- Node12 -->
<g id="node12" class="node">
<title>Node12</title>
<g id="a_node12"><a xlink:href="backends_2SYCL_2hipSYCL_2csvm_8hpp.html" target="_top" xlink:title="Defines a base C&#45;SVM used for the different SYCL backends using hipSYCL as SYCL implementation.">
<polygon fill="white" stroke="black" points="1051.5,-0.5 1051.5,-30.5 1190.5,-30.5 1190.5,-0.5 1051.5,-0.5"/>
<text text-anchor="start" x="1059.5" y="-18.5" font-family="Helvetica,sans-Serif" font-size="10.00">include/plssvm/backends</text>
<text text-anchor="middle" x="1121" y="-7.5" font-family="Helvetica,sans-Serif" font-size="10.00">/SYCL/hipSYCL/csvm.hpp</text>
</a>
</g>
</g>
<!-- Node1&#45;&gt;Node12 -->
<g id="edge47" class="edge">
<title>Node1&#45;&gt;Node12</title>
<path fill="none" stroke="midnightblue" d="M1032.61,-641.87C1060.66,-618.32 1100,-577.01 1100,-530.5 1100,-530.5 1100,-530.5 1100,-143 1100,-101.81 1110.97,-54.09 1117.05,-30.79"/>
<polygon fill="midnightblue" stroke="midnightblue" points="1030.24,-639.29 1024.68,-648.31 1034.65,-644.72 1030.24,-639.29"/>
</g>
<!-- Node13 -->
<g id="node13" class="node">
<title>Node13</title>
<g id="a_node13"><a xlink:href="backends_2SYCL_2DPCPP_2csvm_8hpp.html" target="_top" xlink:title="Defines a base C&#45;SVM used for the different SYCL backends using DPC++ as SYCL implementation.">
<polygon fill="white" stroke="black" points="1208.5,-0.5 1208.5,-30.5 1347.5,-30.5 1347.5,-0.5 1208.5,-0.5"/>
<text text-anchor="start" x="1216.5" y="-18.5" font-family="Helvetica,sans-Serif" font-size="10.00">include/plssvm/backends</text>
<text text-anchor="middle" x="1278" y="-7.5" font-family="Helvetica,sans-Serif" font-size="10.00">/SYCL/DPCPP/csvm.hpp</text>
</a>
</g>
</g>
<!-- Node1&#45;&gt;Node13 -->
<g id="edge48" class="edge">
<title>Node1&#45;&gt;Node13</title>
<path fill="none" stroke="midnightblue" d="M1045.28,-643.68C1084.43,-622.29 1138,-583.36 1138,-530.5 1138,-530.5 1138,-530.5 1138,-143 1138,-86.98 1200.47,-49.36 1241.95,-30.55"/>
<polygon fill="midnightblue" stroke="midnightblue" points="1043.39,-640.72 1036.18,-648.49 1046.66,-646.91 1043.39,-640.72"/>
</g>
<!-- Node14 -->
<g id="node14" class="node">
<title>Node14</title>
<g id="a_node14"><a xlink:href="csvm_8hpp.html" target="_top" xlink:title="Defines the base class for all C&#45;SVM backends and implements the functionality shared by all of them.">
<polygon fill="white" stroke="black" points="564,-134.5 564,-153.5 704,-153.5 704,-134.5 564,-134.5"/>
<text text-anchor="middle" x="634" y="-141.5" font-family="Helvetica,sans-Serif" font-size="10.00">include/plssvm/csvm.hpp</text>
</a>
</g>
</g>
<!-- Node1&#45;&gt;Node14 -->
<g id="edge51" class="edge">
<title>Node1&#45;&gt;Node14</title>
<path fill="none" stroke="midnightblue" d="M988.97,-640.05C983.23,-631.5 976.96,-621.51 972,-612 905.85,-485 938.42,-427.17 852,-313 793.31,-235.47 690.18,-175.04 650.34,-153.52"/>
<polygon fill="midnightblue" stroke="midnightblue" points="986.14,-642.11 994.69,-648.37 991.91,-638.15 986.14,-642.11"/>
</g>
<!-- Node15 -->
<g id="node15" class="node">
<title>Node15</title>
<g id="a_node15"><a xlink:href="backends_2OpenMP_2csvm_8hpp.html" target="_top" xlink:title="Defines a C&#45;SVM using the OpenMP backend.">
<polygon fill="white" stroke="black" points="699.5,-67.5 699.5,-97.5 838.5,-97.5 838.5,-67.5 699.5,-67.5"/>
<text text-anchor="start" x="707.5" y="-85.5" font-family="Helvetica,sans-Serif" font-size="10.00">include/plssvm/backends</text>
<text text-anchor="middle" x="769" y="-74.5" font-family="Helvetica,sans-Serif" font-size="10.00">/OpenMP/csvm.hpp</text>
</a>
</g>
</g>
<!-- Node1&#45;&gt;Node15 -->
<g id="edge45" class="edge">
<title>Node1&#45;&gt;Node15</title>
<path fill="none" stroke="midnightblue" d="M1010.56,-638.49C1016.17,-612.15 1024,-568.55 1024,-530.5 1024,-530.5 1024,-530.5 1024,-461.5 1024,-332.91 1014.66,-281.19 924,-190 884.41,-150.18 828.05,-115.79 795.32,-97.51"/>
<polygon fill="midnightblue" stroke="midnightblue" points="1007.13,-637.82 1008.4,-648.34 1013.96,-639.32 1007.13,-637.82"/>
</g>
<!-- Node21 -->
<g id="node21" class="node">
<title>Node21</title>
<g id="a_node21"><a xlink:href="parser__train_8hpp.html" target="_top" xlink:title="Implements a class encapsulating all necessary parameters for training the C&#45;SVM possibly provided th...">
<polygon fill="white" stroke="black" points="530.5,-514.5 530.5,-544.5 653.5,-544.5 653.5,-514.5 530.5,-514.5"/>
<text text-anchor="start" x="538.5" y="-532.5" font-family="Helvetica,sans-Serif" font-size="10.00">include/plssvm/detail</text>
<text text-anchor="middle" x="592" y="-521.5" font-family="Helvetica,sans-Serif" font-size="10.00">/cmd/parser_train.hpp</text>
</a>
</g>
</g>
<!-- Node1&#45;&gt;Node21 -->
<g id="edge53" class="edge">
<title>Node1&#45;&gt;Node21</title>
<path fill="none" stroke="midnightblue" d="M951.51,-645.4C869.02,-619.04 712.31,-568.95 635.98,-544.56"/>
<polygon fill="midnightblue" stroke="midnightblue" points="950.6,-648.79 961.19,-648.5 952.73,-642.12 950.6,-648.79"/>
</g>
<!-- Node22 -->
<g id="node22" class="node">
<title>Node22</title>
<g id="a_node22"><a xlink:href="backends_2OpenCL_2detail_2utility_8hpp.html" target="_top" xlink:title="Utility functions specific to the OpenCL backend.">
<polygon fill="white" stroke="black" points="1166.5,-581.5 1166.5,-611.5 1305.5,-611.5 1305.5,-581.5 1166.5,-581.5"/>
<text text-anchor="start" x="1174.5" y="-599.5" font-family="Helvetica,sans-Serif" font-size="10.00">include/plssvm/backends</text>
<text text-anchor="middle" x="1236" y="-588.5" font-family="Helvetica,sans-Serif" font-size="10.00">/OpenCL/detail/utility.hpp</text>
</a>
</g>
</g>
<!-- Node1&#45;&gt;Node22 -->
<g id="edge44" class="edge">
<title>Node1&#45;&gt;Node22</title>
<path fill="none" stroke="midnightblue" d="M1064.65,-645.71C1102.24,-635.14 1150.23,-621.63 1185.85,-611.61"/>
<polygon fill="midnightblue" stroke="midnightblue" points="1063.52,-642.4 1054.84,-648.48 1065.41,-649.14 1063.52,-642.4"/>
</g>
<!-- Node23 -->
<g id="node23" class="node">
<title>Node23</title>
<g id="a_node23"><a xlink:href="backends_2SYCL_2DPCPP_2detail_2utility_8hpp.html" target="_top" xlink:title="Utility functions specific to the SYCL backend using DPC++ as SYCL implementation.">
<polygon fill="white" stroke="black" points="1324,-581.5 1324,-611.5 1484,-611.5 1484,-581.5 1324,-581.5"/>
<text text-anchor="start" x="1332" y="-599.5" font-family="Helvetica,sans-Serif" font-size="10.00">include/plssvm/backends</text>
<text text-anchor="middle" x="1404" y="-588.5" font-family="Helvetica,sans-Serif" font-size="10.00">/SYCL/DPCPP/detail/utility.hpp</text>
</a>
</g>
</g>
<!-- Node1&#45;&gt;Node23 -->
<g id="edge46" class="edge">
<title>Node1&#45;&gt;Node23</title>
<path fill="none" stroke="midnightblue" d="M1076.01,-650.93C1145.49,-639.61 1251.15,-622.4 1323.67,-610.59"/>
<polygon fill="midnightblue" stroke="midnightblue" points="1075.34,-647.49 1066.03,-652.56 1076.47,-654.4 1075.34,-647.49"/>
</g>
<!-- Node24 -->
<g id="node24" class="node">
<title>Node24</title>
<g id="a_node24"><a xlink:href="backends_2SYCL_2hipSYCL_2detail_2utility_8hpp.html" target="_top" xlink:title="Utility functions specific to the SYCL backend using hipSYCL as SYCL implementation.">
<polygon fill="white" stroke="black" points="1502,-581.5 1502,-611.5 1668,-611.5 1668,-581.5 1502,-581.5"/>
<text text-anchor="start" x="1510" y="-599.5" font-family="Helvetica,sans-Serif" font-size="10.00">include/plssvm/backends</text>
<text text-anchor="middle" x="1585" y="-588.5" font-family="Helvetica,sans-Serif" font-size="10.00">/SYCL/hipSYCL/detail/utility.hpp</text>
</a>
</g>
</g>
<!-- Node1&#45;&gt;Node24 -->
<g id="edge49" class="edge">
<title>Node1&#45;&gt;Node24</title>
<path fill="none" stroke="midnightblue" d="M1076.46,-656.31C1171.67,-647.78 1345.3,-631.27 1493,-612 1495.89,-611.62 1498.82,-611.23 1501.78,-610.82"/>
<polygon fill="midnightblue" stroke="midnightblue" points="1076.02,-652.83 1066.37,-657.21 1076.64,-659.8 1076.02,-652.83"/>
</g>
<!-- Node2&#45;&gt;Node3 -->
<g id="edge2" class="edge">
<title>Node2&#45;&gt;Node3</title>
<path fill="none" stroke="midnightblue" d="M367.65,-589.21C285.07,-581.5 160.38,-566.74 118,-545 72.84,-521.83 38,-514.26 38,-463.5 38,-463.5 38,-463.5 38,-143 38,-41.67 184.08,-20.07 273.38,-16.33"/>
<polygon fill="midnightblue" stroke="midnightblue" points="367.48,-592.71 377.75,-590.14 368.12,-585.74 367.48,-592.71"/>
</g>
<!-- Node4 -->
<g id="node4" class="node">
<title>Node4</title>
<g id="a_node4"><a xlink:href="csvm__factory_8hpp.html" target="_top" xlink:title="Factory function for constructing a new C&#45;SVM based on the provided plssvm::backend_type and potentia...">
<polygon fill="white" stroke="black" points="388.5,-67.5 388.5,-97.5 507.5,-97.5 507.5,-67.5 388.5,-67.5"/>
<text text-anchor="start" x="396.5" y="-85.5" font-family="Helvetica,sans-Serif" font-size="10.00">include/plssvm/csvm</text>
<text text-anchor="middle" x="448" y="-74.5" font-family="Helvetica,sans-Serif" font-size="10.00">_factory.hpp</text>
</a>
</g>
</g>
<!-- Node2&#45;&gt;Node4 -->
<g id="edge3" class="edge">
<title>Node2&#45;&gt;Node4</title>
<path fill="none" stroke="midnightblue" d="M367.85,-583.89C259.67,-565.39 76,-524.94 76,-463.5 76,-463.5 76,-463.5 76,-327.5 76,-179.98 283.08,-116.76 388.23,-94.17"/>
<polygon fill="midnightblue" stroke="midnightblue" points="367.31,-587.34 377.75,-585.55 368.47,-580.44 367.31,-587.34"/>
</g>
<!-- Node2&#45;&gt;Node5 -->
<g id="edge5" class="edge">
<title>Node2&#45;&gt;Node5</title>
<path fill="none" stroke="midnightblue" d="M445,-571.11C445,-562.15 445,-552.32 445,-544.58"/>
<polygon fill="midnightblue" stroke="midnightblue" points="441.5,-571.4 445,-581.4 448.5,-571.4 441.5,-571.4"/>
</g>
<!-- Node2&#45;&gt;Node21 -->
<g id="edge38" class="edge">
<title>Node2&#45;&gt;Node21</title>
<path fill="none" stroke="midnightblue" d="M486.23,-577.27C509.64,-566.92 538.51,-554.15 560.17,-544.58"/>
<polygon fill="midnightblue" stroke="midnightblue" points="484.63,-574.15 476.9,-581.4 487.46,-580.55 484.63,-574.15"/>
</g>
<!-- Node4&#45;&gt;Node3 -->
<g id="edge4" class="edge">
<title>Node4&#45;&gt;Node3</title>
<path fill="none" stroke="midnightblue" d="M416.13,-62.14C395.8,-49.79 370.45,-34.39 355,-25.01"/>
<polygon fill="midnightblue" stroke="midnightblue" points="414.42,-65.2 424.78,-67.4 418.05,-59.21 414.42,-65.2"/>
</g>
<!-- Node6 -->
<g id="node6" class="node">
<title>Node6</title>
<g id="a_node6"><a xlink:href="data__set__variants_8hpp.html" target="_top" xlink:title="Implements utility functions to create a data set based on runtime parameters.">
<polygon fill="white" stroke="black" points="142,-246.5 142,-276.5 294,-276.5 294,-246.5 142,-246.5"/>
<text text-anchor="start" x="150" y="-264.5" font-family="Helvetica,sans-Serif" font-size="10.00">include/plssvm/detail</text>
<text text-anchor="middle" x="218" y="-253.5" font-family="Helvetica,sans-Serif" font-size="10.00">/cmd/data_set_variants.hpp</text>
</a>
</g>
</g>
<!-- Node5&#45;&gt;Node6 -->
<g id="edge6" class="edge">
<title>Node5&#45;&gt;Node6</title>
<path fill="none" stroke="midnightblue" d="M367.83,-520.9C336.87,-514.15 303.12,-501.52 280,-478 223.36,-420.4 217.81,-314.59 217.73,-276.57"/>
<polygon fill="midnightblue" stroke="midnightblue" points="367.27,-524.36 377.77,-522.9 368.65,-517.5 367.27,-524.36"/>
</g>
<!-- Node7 -->
<g id="node7" class="node">
<title>Node7</title>
<g id="a_node7"><a xlink:href="performance__tracker_8hpp.html" target="_top" xlink:title="Defines a performance tracker which can dump performance information in a YAML file.">
<polygon fill="white" stroke="black" points="521.5,-447.5 521.5,-477.5 662.5,-477.5 662.5,-447.5 521.5,-447.5"/>
<text text-anchor="start" x="529.5" y="-465.5" font-family="Helvetica,sans-Serif" font-size="10.00">include/plssvm/detail</text>
<text text-anchor="middle" x="592" y="-454.5" font-family="Helvetica,sans-Serif" font-size="10.00">/performance_tracker.hpp</text>
</a>
</g>
</g>
<!-- Node5&#45;&gt;Node7 -->
<g id="edge7" class="edge">
<title>Node5&#45;&gt;Node7</title>
<path fill="none" stroke="midnightblue" d="M486.23,-510.27C509.64,-499.92 538.51,-487.15 560.17,-477.58"/>
<polygon fill="midnightblue" stroke="midnightblue" points="484.63,-507.15 476.9,-514.4 487.46,-513.55 484.63,-507.15"/>
</g>
<!-- Node8 -->
<g id="node8" class="node">
<title>Node8</title>
<g id="a_node8"><a xlink:href="gpu__csvm_8hpp.html" target="_top" xlink:title="Defines the base class for all C&#45;SVM backends using a GPU. Used for code duplication reduction.">
<polygon fill="white" stroke="black" points="856.5,-67.5 856.5,-97.5 995.5,-97.5 995.5,-67.5 856.5,-67.5"/>
<text text-anchor="start" x="864.5" y="-85.5" font-family="Helvetica,sans-Serif" font-size="10.00">include/plssvm/backends</text>
<text text-anchor="middle" x="926" y="-74.5" font-family="Helvetica,sans-Serif" font-size="10.00">/gpu_csvm.hpp</text>
</a>
</g>
</g>
<!-- Node7&#45;&gt;Node8 -->
<g id="edge8" class="edge">
<title>Node7&#45;&gt;Node8</title>
<path fill="none" stroke="midnightblue" d="M672.57,-446.21C731.49,-430.7 808.43,-400.58 852,-344 912.52,-265.4 923.55,-139.4 925.55,-97.53"/>
<polygon fill="midnightblue" stroke="midnightblue" points="671.36,-442.91 662.53,-448.76 673.09,-449.69 671.36,-442.91"/>
</g>
<!-- Node7&#45;&gt;Node14 -->
<g id="edge14" class="edge">
<title>Node7&#45;&gt;Node14</title>
<path fill="none" stroke="midnightblue" d="M626.41,-441.87C638.6,-433.59 651.6,-423.06 661,-411 685.02,-380.17 694,-368.58 694,-329.5 694,-329.5 694,-329.5 694,-260.5 694,-216.21 658.83,-172.04 642.34,-153.76"/>
<polygon fill="midnightblue" stroke="midnightblue" points="624.23,-439.11 617.74,-447.49 628.04,-444.99 624.23,-439.11"/>
</g>
<!-- Node16 -->
<g id="node16" class="node">
<title>Node16</title>
<g id="a_node16"><a xlink:href="data__set_8hpp.html" target="_top" xlink:title="Implements a data set class encapsulating all data points, features, and potential labels.">
<polygon fill="white" stroke="black" points="398.5,-313.5 398.5,-343.5 513.5,-343.5 513.5,-313.5 398.5,-313.5"/>
<text text-anchor="start" x="406.5" y="-331.5" font-family="Helvetica,sans-Serif" font-size="10.00">include/plssvm/data</text>
<text text-anchor="middle" x="456" y="-320.5" font-family="Helvetica,sans-Serif" font-size="10.00">_set.hpp</text>
</a>
</g>
</g>
<!-- Node7&#45;&gt;Node16 -->
<g id="edge19" class="edge">
<title>Node7&#45;&gt;Node16</title>
<path fill="none" stroke="midnightblue" d="M560.96,-441.74C548.29,-433.02 533.85,-422.21 522,-411 499.51,-389.73 477.79,-360.77 465.73,-343.71"/>
<polygon fill="midnightblue" stroke="midnightblue" points="559.15,-444.74 569.4,-447.42 563.06,-438.94 559.15,-444.74"/>
</g>
<!-- Node18 -->
<g id="node18" class="node">
<title>Node18</title>
<g id="a_node18"><a xlink:href="model_8hpp.html" target="_top" xlink:title="Implements a model class encapsulating the results of a SVM fit call.">
<polygon fill="white" stroke="black" points="394.5,-190.5 394.5,-209.5 539.5,-209.5 539.5,-190.5 394.5,-190.5"/>
<text text-anchor="middle" x="467" y="-197.5" font-family="Helvetica,sans-Serif" font-size="10.00">include/plssvm/model.hpp</text>
</a>
</g>
</g>
<!-- Node7&#45;&gt;Node18 -->
<g id="edge37" class="edge">
<title>Node7&#45;&gt;Node18</title>
<path fill="none" stroke="midnightblue" d="M511.35,-455.52C404.02,-442.73 217.9,-402.63 133,-277 125.29,-265.58 123.93,-256.37 133,-246 141.54,-236.23 298.81,-218.37 394.45,-208.34"/>
<polygon fill="midnightblue" stroke="midnightblue" points="511.16,-459.02 521.49,-456.68 511.95,-452.07 511.16,-459.02"/>
</g>
<!-- Node19 -->
<g id="node19" class="node">
<title>Node19</title>
<g id="a_node19"><a xlink:href="layout_8hpp.html" target="_top" xlink:title="Defines functions to convert 2D vectors to 1D SoA or AoS vectors.">
<polygon fill="white" stroke="black" points="722.5,-313.5 722.5,-343.5 843.5,-343.5 843.5,-313.5 722.5,-313.5"/>
<text text-anchor="start" x="730.5" y="-331.5" font-family="Helvetica,sans-Serif" font-size="10.00">include/plssvm/detail</text>
<text text-anchor="middle" x="783" y="-320.5" font-family="Helvetica,sans-Serif" font-size="10.00">/layout.hpp</text>
</a>
</g>
</g>
<!-- Node7&#45;&gt;Node19 -->
<g id="edge28" class="edge">
<title>Node7&#45;&gt;Node19</title>
<path fill="none" stroke="midnightblue" d="M645.16,-443.76C665.81,-435.52 689,-424.53 708,-411 735.1,-391.71 759.82,-361.27 773.01,-343.56"/>
<polygon fill="midnightblue" stroke="midnightblue" points="643.64,-440.59 635.58,-447.46 646.17,-447.12 643.64,-440.59"/>
</g>
<!-- Node20 -->
<g id="node20" class="node">
<title>Node20</title>
<g id="a_node20"><a xlink:href="logger_8hpp.html" target="_top" xlink:title="Defines a simple logging function.">
<polygon fill="white" stroke="black" points="531.5,-380.5 531.5,-410.5 652.5,-410.5 652.5,-380.5 531.5,-380.5"/>
<text text-anchor="start" x="539.5" y="-398.5" font-family="Helvetica,sans-Serif" font-size="10.00">include/plssvm/detail</text>
<text text-anchor="middle" x="592" y="-387.5" font-family="Helvetica,sans-Serif" font-size="10.00">/logger.hpp</text>
</a>
</g>
</g>
<!-- Node7&#45;&gt;Node20 -->
<g id="edge30" class="edge">
<title>Node7&#45;&gt;Node20</title>
<path fill="none" stroke="midnightblue" d="M592,-437.11C592,-428.15 592,-418.32 592,-410.58"/>
<polygon fill="midnightblue" stroke="midnightblue" points="588.5,-437.4 592,-447.4 595.5,-437.4 588.5,-437.4"/>
</g>
<!-- Node8&#45;&gt;Node9 -->
<g id="edge9" class="edge">
<title>Node8&#45;&gt;Node9</title>
<path fill="none" stroke="midnightblue" d="M856.44,-65.12C811.28,-54.48 753.02,-40.76 709.92,-30.61"/>
<polygon fill="midnightblue" stroke="midnightblue" points="855.92,-68.59 866.45,-67.48 857.52,-61.78 855.92,-68.59"/>
</g>
<!-- Node8&#45;&gt;Node10 -->
<g id="edge10" class="edge">
<title>Node8&#45;&gt;Node10</title>
<path fill="none" stroke="midnightblue" d="M891.35,-62.57C872.63,-52.35 849.91,-39.94 832.77,-30.58"/>
<polygon fill="midnightblue" stroke="midnightblue" points="889.72,-65.67 900.18,-67.4 893.08,-59.53 889.72,-65.67"/>
</g>
<!-- Node8&#45;&gt;Node11 -->
<g id="edge11" class="edge">
<title>Node8&#45;&gt;Node11</title>
<path fill="none" stroke="midnightblue" d="M939.4,-58.58C944.86,-49.24 950.99,-38.75 955.77,-30.58"/>
<polygon fill="midnightblue" stroke="midnightblue" points="936.27,-57 934.25,-67.4 942.31,-60.53 936.27,-57"/>
</g>
<!-- Node8&#45;&gt;Node12 -->
<g id="edge12" class="edge">
<title>Node8&#45;&gt;Node12</title>
<path fill="none" stroke="midnightblue" d="M977.82,-64.23C1009.36,-53.71 1049.15,-40.45 1078.77,-30.58"/>
<polygon fill="midnightblue" stroke="midnightblue" points="976.69,-60.91 968.31,-67.4 978.91,-67.55 976.69,-60.91"/>
</g>
<!-- Node8&#45;&gt;Node13 -->
<g id="edge13" class="edge">
<title>Node8&#45;&gt;Node13</title>
<path fill="none" stroke="midnightblue" d="M1005.52,-66.88C1060.21,-56.81 1134.52,-43.12 1200,-31 1202.71,-30.5 1205.47,-29.99 1208.26,-29.47"/>
<polygon fill="midnightblue" stroke="midnightblue" points="1004.75,-63.46 995.54,-68.71 1006.01,-70.35 1004.75,-63.46"/>
</g>
<!-- Node14&#45;&gt;Node3 -->
<g id="edge17" class="edge">
<title>Node14&#45;&gt;Node3</title>
<path fill="none" stroke="midnightblue" d="M614.86,-128.16C592.32,-111.29 553.21,-83.91 516,-67 472.53,-47.24 419.46,-33.22 383.23,-25.05"/>
<polygon fill="midnightblue" stroke="midnightblue" points="612.84,-131.01 622.92,-134.27 617.07,-125.44 612.84,-131.01"/>
</g>
<!-- Node14&#45;&gt;Node4 -->
<g id="edge18" class="edge">
<title>Node14&#45;&gt;Node4</title>
<path fill="none" stroke="midnightblue" d="M597.6,-131.36C567.3,-121.66 524.05,-107.83 491.84,-97.52"/>
<polygon fill="midnightblue" stroke="midnightblue" points="596.76,-134.76 607.35,-134.48 598.89,-128.09 596.76,-134.76"/>
</g>
<!-- Node14&#45;&gt;Node8 -->
<g id="edge15" class="edge">
<title>Node14&#45;&gt;Node8</title>
<path fill="none" stroke="midnightblue" d="M685.65,-132.48C733.38,-122.75 804.64,-108.23 857.18,-97.52"/>
<polygon fill="midnightblue" stroke="midnightblue" points="684.94,-129.05 675.84,-134.48 686.33,-135.91 684.94,-129.05"/>
</g>
<!-- Node14&#45;&gt;Node15 -->
<g id="edge16" class="edge">
<title>Node14&#45;&gt;Node15</title>
<path fill="none" stroke="midnightblue" d="M662.75,-130.33C684.59,-120.7 714.62,-107.47 737.18,-97.52"/>
<polygon fill="midnightblue" stroke="midnightblue" points="661.08,-127.24 653.34,-134.48 663.9,-133.64 661.08,-127.24"/>
</g>
<!-- Node16&#45;&gt;Node3 -->
<g id="edge20" class="edge">
<title>Node16&#45;&gt;Node3</title>
<path fill="none" stroke="midnightblue" d="M413.04,-308.78C373.84,-288.45 322,-251.94 322,-201 322,-201 322,-201 322,-143 322,-98.14 333.83,-45.31 338.82,-25.02"/>
<polygon fill="midnightblue" stroke="midnightblue" points="411.68,-312.01 422.19,-313.35 414.81,-305.75 411.68,-312.01"/>
</g>
<!-- Node16&#45;&gt;Node6 -->
<g id="edge22" class="edge">
<title>Node16&#45;&gt;Node6</title>
<path fill="none" stroke="midnightblue" d="M394.54,-310.71C355.81,-300.14 306.37,-286.63 269.67,-276.61"/>
<polygon fill="midnightblue" stroke="midnightblue" points="394.08,-314.22 404.65,-313.48 395.93,-307.46 394.08,-314.22"/>
</g>
<!-- Node16&#45;&gt;Node14 -->
<g id="edge21" class="edge">
<title>Node16&#45;&gt;Node14</title>
<path fill="none" stroke="midnightblue" d="M508.26,-309.55C526.15,-301.59 545.32,-290.84 560,-277 599.57,-239.69 623.53,-176.41 631.25,-153.56"/>
<polygon fill="midnightblue" stroke="midnightblue" points="506.89,-306.33 499.06,-313.46 509.63,-312.77 506.89,-306.33"/>
</g>
<!-- Node17 -->
<g id="node17" class="node">
<title>Node17</title>
<g id="a_node17"><a xlink:href="libsvm__model__parsing_8hpp.html" target="_top" xlink:title="Implements parsing functions for the LIBSVM model file.">
<polygon fill="white" stroke="black" points="388.5,-246.5 388.5,-276.5 551.5,-276.5 551.5,-246.5 388.5,-246.5"/>
<text text-anchor="start" x="396.5" y="-264.5" font-family="Helvetica,sans-Serif" font-size="10.00">include/plssvm/detail</text>
<text text-anchor="middle" x="470" y="-253.5" font-family="Helvetica,sans-Serif" font-size="10.00">/io/libsvm_model_parsing.hpp</text>
</a>
</g>
</g>
<!-- Node16&#45;&gt;Node17 -->
<g id="edge23" class="edge">
<title>Node16&#45;&gt;Node17</title>
<path fill="none" stroke="midnightblue" d="M461.19,-303.4C463.14,-294.37 465.28,-284.41 466.97,-276.58"/>
<polygon fill="midnightblue" stroke="midnightblue" points="457.72,-302.88 459.04,-313.4 464.56,-304.36 457.72,-302.88"/>
</g>
<!-- Node16&#45;&gt;Node18 -->
<g id="edge27" class="edge">
<title>Node16&#45;&gt;Node18</title>
<path fill="none" stroke="midnightblue" d="M411.2,-308.37C398.48,-300.6 386.16,-290.26 379,-277 372.45,-264.88 371.81,-257.75 379,-246 390.37,-227.41 412.12,-216.19 431.15,-209.6"/>
<polygon fill="midnightblue" stroke="midnightblue" points="409.58,-311.48 420.01,-313.35 413.02,-305.38 409.58,-311.48"/>
</g>
<!-- Node17&#45;&gt;Node18 -->
<g id="edge24" class="edge">
<title>Node17&#45;&gt;Node18</title>
<path fill="none" stroke="midnightblue" d="M468.78,-236.29C468.3,-226.86 467.79,-216.65 467.44,-209.66"/>
<polygon fill="midnightblue" stroke="midnightblue" points="465.29,-236.59 469.29,-246.4 472.28,-236.24 465.29,-236.59"/>
</g>
<!-- Node18&#45;&gt;Node3 -->
<g id="edge25" class="edge">
<title>Node18&#45;&gt;Node3</title>
<path fill="none" stroke="midnightblue" d="M450.8,-183.31C431.87,-164.36 400.41,-130.93 379,-98 363,-73.39 350.01,-40.97 344.23,-25.49"/>
<polygon fill="midnightblue" stroke="midnightblue" points="448.5,-185.96 458.08,-190.5 453.42,-180.98 448.5,-185.96"/>
</g>
<!-- Node18&#45;&gt;Node14 -->
<g id="edge26" class="edge">
<title>Node18&#45;&gt;Node14</title>
<path fill="none" stroke="midnightblue" d="M503.17,-187.3C534.64,-177.13 579.49,-162.62 607.66,-153.52"/>
<polygon fill="midnightblue" stroke="midnightblue" points="501.9,-184.04 493.46,-190.44 504.05,-190.7 501.9,-184.04"/>
</g>
<!-- Node19&#45;&gt;Node8 -->
<g id="edge29" class="edge">
<title>Node19&#45;&gt;Node8</title>
<path fill="none" stroke="midnightblue" d="M796.43,-304.58C825.57,-254.86 893.9,-138.28 917.67,-97.71"/>
<polygon fill="midnightblue" stroke="midnightblue" points="793.34,-302.93 791.31,-313.33 799.38,-306.47 793.34,-302.93"/>
</g>
<!-- Node20&#45;&gt;Node8 -->
<g id="edge31" class="edge">
<title>Node20&#45;&gt;Node8</title>
<path fill="none" stroke="midnightblue" d="M614.74,-373.33C678.38,-314.06 857.19,-147.57 910.69,-97.75"/>
<polygon fill="midnightblue" stroke="midnightblue" points="612.15,-370.95 607.22,-380.33 616.92,-376.08 612.15,-370.95"/>
</g>
<!-- Node20&#45;&gt;Node14 -->
<g id="edge32" class="edge">
<title>Node20&#45;&gt;Node14</title>
<path fill="none" stroke="midnightblue" d="M598.02,-370.53C600.04,-362.16 602.22,-352.69 604,-344 616.1,-284.8 618.65,-269.85 627,-210 629.79,-189.99 632.09,-166.38 633.22,-153.85"/>
<polygon fill="midnightblue" stroke="midnightblue" points="594.58,-369.86 595.6,-380.4 601.38,-371.53 594.58,-369.86"/>
</g>
<!-- Node20&#45;&gt;Node16 -->
<g id="edge33" class="edge">
<title>Node20&#45;&gt;Node16</title>
<path fill="none" stroke="midnightblue" d="M553.28,-375.99C531.72,-365.69 505.31,-353.07 485.45,-343.58"/>
<polygon fill="midnightblue" stroke="midnightblue" points="551.96,-379.24 562.49,-380.4 554.98,-372.93 551.96,-379.24"/>
</g>
<!-- Node20&#45;&gt;Node17 -->
<g id="edge34" class="edge">
<title>Node20&#45;&gt;Node17</title>
<path fill="none" stroke="midnightblue" d="M573.82,-372.26C559.99,-355.6 540.28,-332.44 522,-313 510.1,-300.35 495.92,-286.66 485.38,-276.73"/>
<polygon fill="midnightblue" stroke="midnightblue" points="571.42,-374.84 580.48,-380.32 576.81,-370.38 571.42,-374.84"/>
</g>
<!-- Node20&#45;&gt;Node18 -->
<g id="edge36" class="edge">
<title>Node20&#45;&gt;Node18</title>
<path fill="none" stroke="midnightblue" d="M592.98,-369.9C592.97,-337.99 588.43,-282.17 560,-246 545.59,-227.67 521.83,-216.35 501.94,-209.65"/>
<polygon fill="midnightblue" stroke="midnightblue" points="589.48,-370.06 592.83,-380.11 596.48,-370.16 589.48,-370.06"/>
</g>
<!-- Node20&#45;&gt;Node19 -->
<g id="edge35" class="edge">
<title>Node20&#45;&gt;Node19</title>
<path fill="none" stroke="midnightblue" d="M643.15,-377.09C673.99,-366.6 712.75,-353.41 741.64,-343.58"/>
<polygon fill="midnightblue" stroke="midnightblue" points="641.78,-373.86 633.44,-380.4 644.04,-380.49 641.78,-373.86"/>
</g>
<!-- Node21&#45;&gt;Node6 -->
<g id="edge39" class="edge">
<title>Node21&#45;&gt;Node6</title>
<path fill="none" stroke="midnightblue" d="M559.86,-508.92C545.12,-499.76 527.51,-488.56 512,-478 405.29,-405.34 281.96,-311.64 236.25,-276.57"/>
<polygon fill="midnightblue" stroke="midnightblue" points="558.27,-512.05 568.62,-514.33 561.95,-506.1 558.27,-512.05"/>
</g>
<!-- Node21&#45;&gt;Node7 -->
<g id="edge40" class="edge">
<title>Node21&#45;&gt;Node7</title>
<path fill="none" stroke="midnightblue" d="M592,-504.11C592,-495.15 592,-485.32 592,-477.58"/>
<polygon fill="midnightblue" stroke="midnightblue" points="588.5,-504.4 592,-514.4 595.5,-504.4 588.5,-504.4"/>
</g>
</g>
</svg>
        <g id="navigator" transform="translate(0 0)" fill="#404254">
                <rect fill="#f2f5e9" fill-opacity="0.5" stroke="#606060" stroke-width=".5" x="0" y="0" width="60" height="60"/>
                <use id="zoomplus" xlink:href="#zoomPlus" x="17" y="9" onmousedown="handleZoom(evt,'in')"/>
                <use id="zoomminus" xlink:href="#zoomMin" x="42" y="9" onmousedown="handleZoom(evt,'out')"/>
                <use id="reset" xlink:href="#resetDef" x="30" y="36" onmousedown="handleReset()"/>
                <g id="arrowUp" xlink:href="#dirArrow" transform="translate(30 24)" onmousedown="handlePan(0,-1)">
                  <use xlink:href="#rim" fill="#404040">
                        <set attributeName="fill" to="#808080" begin="arrowUp.mouseover" end="arrowUp.mouseout"/>
                  </use>
                  <path fill="none" stroke="white" stroke-width="1.5" d="M0,-3.0v7 M-2.5,-0.5L0,-3.0L2.5,-0.5"/>
                </g>
                <g id="arrowRight" xlink:href="#dirArrow" transform="rotate(90) translate(36 -43)" onmousedown="handlePan(1,0)">
                  <use xlink:href="#rim" fill="#404040">
                        <set attributeName="fill" to="#808080" begin="arrowRight.mouseover" end="arrowRight.mouseout"/>
                  </use>
                  <path fill="none" stroke="white" stroke-width="1.5" d="M0,-3.0v7 M-2.5,-0.5L0,-3.0L2.5,-0.5"/>
                </g>
                <g id="arrowDown" xlink:href="#dirArrow" transform="rotate(180) translate(-30 -48)" onmousedown="handlePan(0,1)">
                  <use xlink:href="#rim" fill="#404040">
                        <set attributeName="fill" to="#808080" begin="arrowDown.mouseover" end="arrowDown.mouseout"/>
                  </use>
                  <path fill="none" stroke="white" stroke-width="1.5" d="M0,-3.0v7 M-2.5,-0.5L0,-3.0L2.5,-0.5"/>
                </g>
                <g id="arrowLeft" xlink:href="#dirArrow" transform="rotate(270) translate(-36 17)" onmousedown="handlePan(-1,0)">
                  <use xlink:href="#rim" fill="#404040">
                        <set attributeName="fill" to="#808080" begin="arrowLeft.mouseover" end="arrowLeft.mouseout"/>
                  </use>
                  <path fill="none" stroke="white" stroke-width="1.5" d="M0,-3.0v7 M-2.5,-0.5L0,-3.0L2.5,-0.5"/>
                </g>
        </g>
        <svg viewBox="0 0 15 15" width="100%" height="30px" preserveAspectRatio="xMaxYMin meet">
         <g id="arrow_out" transform="scale(0.3 0.3)">
          <a xlink:href="target__platforms_8hpp__dep__incl_org.svg" target="_base">
           <rect id="button" ry="5" rx="5" y="6" x="6" height="38" width="38"
                fill="#f2f5e9" fill-opacity="0.5" stroke="#606060" stroke-width="1.0"/>
           <path id="arrow"
             d="M 11.500037,31.436501 C 11.940474,20.09759 22.043105,11.32322 32.158766,21.979434 L 37.068811,17.246167 C 37.068811,17.246167 37.088388,32 37.088388,32 L 22.160133,31.978069 C 22.160133,31.978069 26.997745,27.140456 26.997745,27.140456 C 18.528582,18.264221 13.291696,25.230495 11.500037,31.436501 z"
             style="fill:#404040;"/>
          </a>
         </g>
        </svg>
</svg>
